  0
SECTION
  2
HEADER
  9
$ACADVER
  1
AC1014
  9
$HANDSEED
  5
FFFF
  9
$INSUNITS
 70
     0
  9
$MEASUREMENT
 70
     1
  0
ENDSEC
  0
SECTION
  2
TABLES
  0
TABLE
  2
VPORT
  5
8
330
0
100
AcDbSymbolTable
 70
     4
  0
VPORT
  5
2E
330
8
100
AcDbSymbolTableRecord
100
AcDbViewportTableRecord
  2
*ACTIVE
 70
     0
 10
0.0
 20
0.0
 11
1.0
 21
1.0
 12
210.0
 22
148.5
 13
0.0
 23
0.0
 14
10.0
 24
10.0
 15
10.0
 25
10.0
 16
0.0
 26
0.0
 36
1.0
 17
0.0
 27
0.0
 37
0.0
 40
341.0
 41
1.24
 42
50.0
 43
0.0
 44
0.0
 50
0.0
 51
0.0
 71
     0
 72
   100
 73
     1
 74
     3
 75
     0
 76
     0
 77
     0
 78
     0
  0
ENDTAB
  0
TABLE
  2
LTYPE
  5
5
330
0
100
AcDbSymbolTable
 70
     1
  0
LTYPE
  5
14
330
5
100
AcDbSymbolTableRecord
100
AcDbLinetypeTableRecord
  2
BYBLOCK
 70
     0
  3

 72
    65
 73
     0
 40
0.0
  0
LTYPE
  5
15
330
5
100
AcDbSymbolTableRecord
100
AcDbLinetypeTableRecord
  2
BYLAYER
 70
     0
  3

 72
    65
 73
     0
 40
0.0
  0
LTYPE
  5
16
330
5
100
AcDbSymbolTableRecord
100
AcDbLinetypeTableRecord
  2
CONTINUOUS
 70
     0
  3
Solid line
 72
    65
 73
     0
 40
0.0
  0
ENDTAB
  0
TABLE
  2
LAYER
  5
2
100
AcDbSymbolTable
 70
2
  0
LAYER
  5
50
100
AcDbSymbolTableRecord
100
AcDbLayerTableRecord
  2
0
 70
0
  6
CONTINUOUS
  0
LAYER
  5
51
100
AcDbSymbolTableRecord
100
AcDbLayerTableRecord
  2
Layer_1
 70
0
  6
CONTINUOUS
  0
ENDTAB
  0
TABLE
  2
STYLE
  5
3
330
0
100
AcDbSymbolTable
 70
     1
  0
STYLE
  5
11
330
3
100
AcDbSymbolTableRecord
100
AcDbTextStyleTableRecord
  2
STANDARD
 70
     0
 40
0.0
 41
1.0
 50
0.0
 71
     0
 42
2.5
  3
txt
  4

  0
ENDTAB
  0
TABLE
  2
VIEW
  5
6
330
0
100
AcDbSymbolTable
 70
     0
  0
ENDTAB
  0
TABLE
  2
UCS
  5
7
330
0
100
AcDbSymbolTable
 70
     0
  0
ENDTAB
  0
TABLE
  2
APPID
  5
9
330
0
100
AcDbSymbolTable
 70
     2
  0
APPID
  5
12
330
9
100
AcDbSymbolTableRecord
100
AcDbRegAppTableRecord
  2
ACAD
 70
     0
  0
ENDTAB
  0
TABLE
  2
DIMSTYLE
  5
A
330
0
100
AcDbSymbolTable
 70
     1
  0
DIMSTYLE
105
27
330
A
100
AcDbSymbolTableRecord
100
AcDbDimStyleTableRecord
  2
ISO-25
 70
     0
  3

  4

  5

  6

  7

 40
1.0
 41
2.5
 42
0.625
 43
3.75
 44
1.25
 45
0.0
 46
0.0
 47
0.0
 48
0.0
140
2.5
141
2.5
142
0.0
143
0.03937007874016
144
1.0
145
0.0
146
1.0
147
0.625
 71
     0
 72
     0
 73
     0
 74
     0
 75
     0
 76
     0
 77
     1
 78
     8
170
     0
171
     3
172
     1
173
     0
174
     0
175
     0
176
     0
177
     0
178
     0
270
     2
271
     2
272
     2
273
     2
274
     3
340
11
275
     0
280
     0
281
     0
282
     0
283
     0
284
     8
285
     0
286
     0
287
     3
288
     0
  0
ENDTAB
  0
TABLE
  2
BLOCK_RECORD
  5
1
330
0
100
AcDbSymbolTable
 70
     1
  0
BLOCK_RECORD
  5
1F
330
1
100
AcDbSymbolTableRecord
100
AcDbBlockTableRecord
  2
*MODEL_SPACE
  0
BLOCK_RECORD
  5
1B
330
1
100
AcDbSymbolTableRecord
100
AcDbBlockTableRecord
  2
*PAPER_SPACE
  0
ENDTAB
  0
ENDSEC
  0
SECTION
  2
BLOCKS
  0
BLOCK
  5
20
330
1F
100
AcDbEntity
  8
0
100
AcDbBlockBegin
  2
*MODEL_SPACE
 70
     0
 10
0.0
 20
0.0
 30
0.0
  3
*MODEL_SPACE
  1

  0
ENDBLK
  5
21
330
1F
100
AcDbEntity
  8
0
100
AcDbBlockEnd
  0
BLOCK
  5
1C
330
1B
100
AcDbEntity
 67
     1
  8
0
100
AcDbBlockBegin
  2
*PAPER_SPACE
  1

  0
ENDBLK
  5
1D
330
1B
100
AcDbEntity
 67
     1
  8
0
100
AcDbBlockEnd
  0
ENDSEC
  0
SECTION
  2
ENTITIES
  0
SPLINE
  5
100
100
AcDbEntity
  8
Layer_1
 62
2
100
AcDbSpline
 70
8
 71
3
 72
8
 73
4
 74
0
 40
0
 40
0
 40
0
 40
0
 40
1
 40
1
 40
1
 40
1
 10
-13.502710
 20
93.168210
 30
0.0
 10
-26.434280
 20
93.167300
 30
0.0
 10
-39.558720
 20
93.159210
 30
0.0
 10
-53.492840
 20
93.133110
 30
0.0
  0
SPLINE
  5
101
100
AcDbEntity
  8
Layer_1
 62
2
100
AcDbSpline
 70
8
 71
3
 72
8
 73
4
 74
0
 40
0
 40
0
 40
0
 40
0
 40
1
 40
1
 40
1
 40
1
 10
-53.492840
 20
93.133110
 30
0.0
 10
-54.077340
 20
93.132110
 30
0.0
 10
-54.895270
 20
93.456810
 30
0.0
 10
-55.319740
 20
93.858640
 30
0.0
  0
LINE
  5
102
100
AcDbEntity
  8
Layer_1
 62
2
100
AcDbLine
 10
-55.319740
 20
93.858640
 30
0.0
 11
-57.039860
 21
95.487020
 31
0.0
  0
SPLINE
  5
103
100
AcDbEntity
  8
Layer_1
 62
2
100
AcDbSpline
 70
8
 71
3
 72
8
 73
4
 74
0
 40
0
 40
0
 40
0
 40
0
 40
1
 40
1
 40
1
 40
1
 10
-57.039860
 20
95.487020
 30
0.0
 10
-57.530489
 20
95.951482
 30
0.0
 10
-57.808440
 20
96.597326
 30
0.0
 10
-57.808460
 20
97.272930
 30
0.0
  0
LINE
  5
104
100
AcDbEntity
  8
Layer_1
 62
2
100
AcDbLine
 10
-57.808460
 20
97.272930
 30
0.0
 11
-57.811460
 21
200.114990
 31
0.0
  0
SPLINE
  5
105
100
AcDbEntity
  8
Layer_1
 62
2
100
AcDbSpline
 70
8
 71
3
 72
8
 73
4
 74
0
 40
0
 40
0
 40
0
 40
0
 40
1
 40
1
 40
1
 40
1
 10
-57.811460
 20
200.114990
 30
0.0
 10
-57.811477
 20
200.787164
 30
0.0
 10
-57.519684
 20
201.426239
 30
0.0
 10
-57.011750
 20
201.866490
 30
0.0
  0
LINE
  5
106
100
AcDbEntity
  8
Layer_1
 62
2
100
AcDbLine
 10
-57.011750
 20
201.866490
 30
0.0
 11
-55.351180
 21
203.305800
 31
0.0
  0
SPLINE
  5
107
100
AcDbEntity
  8
Layer_1
 62
2
100
AcDbSpline
 70
8
 71
3
 72
8
 73
4
 74
0
 40
0
 40
0
 40
0
 40
0
 40
1
 40
1
 40
1
 40
1
 10
-55.351180
 20
203.305800
 30
0.0
 10
-54.835385
 20
203.752866
 30
0.0
 10
-54.175688
 20
203.998965
 30
0.0
 10
-53.493110
 20
203.998950
 30
0.0
  0
LINE
  5
108
100
AcDbEntity
  8
Layer_1
 62
2
100
AcDbLine
 10
-53.493110
 20
203.998950
 30
0.0
 11
77.620250
 21
203.995950
 31
0.0
  0
SPLINE
  5
109
100
AcDbEntity
  8
Layer_1
 62
2
100
AcDbSpline
 70
8
 71
3
 72
8
 73
4
 74
0
 40
0
 40
0
 40
0
 40
0
 40
1
 40
1
 40
1
 40
1
 10
77.620250
 20
203.995950
 30
0.0
 10
78.301757
 20
203.995935
 30
0.0
 10
78.959317
 20
203.744568
 30
0.0
 10
79.467050
 20
203.289970
 30
0.0
  0
LINE
  5
10a
100
AcDbEntity
  8
Layer_1
 62
2
100
AcDbLine
 10
79.467050
 20
203.289970
 30
0.0
 11
81.050530
 21
201.872190
 31
0.0
  0
SPLINE
  5
10b
100
AcDbEntity
  8
Layer_1
 62
2
100
AcDbSpline
 70
8
 71
3
 72
8
 73
4
 74
0
 40
0
 40
0
 40
0
 40
0
 40
1
 40
1
 40
1
 40
1
 10
81.050530
 20
201.872190
 30
0.0
 10
81.552263
 20
201.422960
 30
0.0
 10
81.838999
 20
200.781357
 30
0.0
 10
81.839000
 20
200.107900
 30
0.0
  0
LINE
  5
10c
100
AcDbEntity
  8
Layer_1
 62
2
100
AcDbLine
 10
81.839000
 20
200.107900
 30
0.0
 11
81.839000
 21
97.296390
 31
0.0
  0
SPLINE
  5
10d
100
AcDbEntity
  8
Layer_1
 62
2
100
AcDbSpline
 70
8
 71
3
 72
8
 73
4
 74
0
 40
0
 40
0
 40
0
 40
0
 40
1
 40
1
 40
1
 40
1
 10
81.839000
 20
97.296390
 30
0.0
 10
81.839000
 20
96.619769
 30
0.0
 10
81.565382
 20
95.971903
 30
0.0
 10
81.080370
 20
95.500120
 30
0.0
  0
LINE
  5
10e
100
AcDbEntity
  8
Layer_1
 62
2
100
AcDbLine
 10
81.080370
 20
95.500120
 30
0.0
 11
79.421830
 21
93.886820
 31
0.0
  0
SPLINE
  5
10f
100
AcDbEntity
  8
Layer_1
 62
2
100
AcDbSpline
 70
8
 71
3
 72
8
 73
4
 74
0
 40
0
 40
0
 40
0
 40
0
 40
1
 40
1
 40
1
 40
1
 10
79.421830
 20
93.886820
 30
0.0
 10
78.935424
 20
93.413677
 30
0.0
 10
78.283438
 20
93.149253
 30
0.0
 10
77.604870
 20
93.149920
 30
0.0
  0
LINE
  5
110
100
AcDbEntity
  8
Layer_1
 62
2
100
AcDbLine
 10
77.604870
 20
93.149920
 30
0.0
 11
56.819400
 21
93.170420
 31
0.0
  0
SPLINE
  5
111
100
AcDbEntity
  8
Layer_1
 62
2
100
AcDbSpline
 70
8
 71
3
 72
8
 73
4
 74
0
 40
0
 40
0
 40
0
 40
0
 40
1
 40
1
 40
1
 40
1
 10
56.819400
 20
93.170420
 30
0.0
 10
56.234900
 20
93.170990
 30
0.0
 10
55.287240
 20
93.171060
 30
0.0
 10
54.702740
 20
93.170600
 30
0.0
  0
SPLINE
  5
112
100
AcDbEntity
  8
Layer_1
 62
2
100
AcDbSpline
 70
8
 71
3
 72
8
 73
4
 74
0
 40
0
 40
0
 40
0
 40
0
 40
1
 40
1
 40
1
 40
1
 10
54.702740
 20
93.170600
 30
0.0
 10
37.317160
 20
93.156900
 30
0.0
 10
21.242090
 20
93.162600
 30
0.0
 10
5.312240
 20
93.166600
 30
0.0
  0
SPLINE
  5
113
100
AcDbEntity
  8
Layer_1
 62
2
100
AcDbSpline
 70
8
 71
3
 72
8
 73
4
 74
0
 40
0
 40
0
 40
0
 40
0
 40
1
 40
1
 40
1
 40
1
 10
5.312240
 20
93.166600
 30
0.0
 10
4.727740
 20
93.166750
 30
0.0
 10
3.780080
 20
93.166910
 30
0.0
 10
3.195580
 20
93.166960
 30
0.0
  0
LINE
  5
114
100
AcDbEntity
  8
Layer_1
 62
2
100
AcDbLine
 10
3.195580
 20
93.166960
 30
0.0
 11
-13.502710
 21
93.168210
 31
0.0
  0
LINE
  5
115
100
AcDbEntity
  8
Layer_1
 62
2
100
AcDbLine
 10
212.543610
 20
93.150960
 30
0.0
 11
229.179890
 21
93.153960
 31
0.0
  0
SPLINE
  5
116
100
AcDbEntity
  8
Layer_1
 62
2
100
AcDbSpline
 70
8
 71
3
 72
8
 73
4
 74
0
 40
0
 40
0
 40
0
 40
0
 40
1
 40
1
 40
1
 40
1
 10
229.179890
 20
93.153960
 30
0.0
 10
229.859301
 20
93.154076
 30
0.0
 10
230.512656
 20
93.415421
 30
0.0
 10
231.004720
 20
93.883900
 30
0.0
  0
LINE
  5
117
100
AcDbEntity
  8
Layer_1
 62
2
100
AcDbLine
 10
231.004720
 20
93.883900
 30
0.0
 11
232.691150
 21
95.489500
 31
0.0
  0
SPLINE
  5
118
100
AcDbEntity
  8
Layer_1
 62
2
100
AcDbSpline
 70
8
 71
3
 72
8
 73
4
 74
0
 40
0
 40
0
 40
0
 40
0
 40
1
 40
1
 40
1
 40
1
 10
232.691150
 20
95.489500
 30
0.0
 10
233.180611
 20
95.955500
 30
0.0
 10
233.457649
 20
96.601773
 30
0.0
 10
233.457650
 20
97.277590
 30
0.0
  0
LINE
  5
119
100
AcDbEntity
  8
Layer_1
 62
2
100
AcDbLine
 10
233.457650
 20
97.277590
 30
0.0
 11
233.457650
 21
200.112490
 31
0.0
  0
SPLINE
  5
11a
100
AcDbEntity
  8
Layer_1
 62
2
100
AcDbSpline
 70
8
 71
3
 72
8
 73
4
 74
0
 40
0
 40
0
 40
0
 40
0
 40
1
 40
1
 40
1
 40
1
 10
233.457650
 20
200.112490
 30
0.0
 10
233.457648
 20
200.785054
 30
0.0
 10
233.167360
 20
201.424889
 30
0.0
 10
232.661260
 20
201.867840
 30
0.0
  0
LINE
  5
11b
100
AcDbEntity
  8
Layer_1
 62
2
100
AcDbLine
 10
232.661260
 20
201.867840
 30
0.0
 11
231.026730
 21
203.298430
 31
0.0
  0
SPLINE
  5
11c
100
AcDbEntity
  8
Layer_1
 62
2
100
AcDbSpline
 70
8
 71
3
 72
8
 73
4
 74
0
 40
0
 40
0
 40
0
 40
0
 40
1
 40
1
 40
1
 40
1
 10
231.026730
 20
203.298430
 30
0.0
 10
230.513335
 20
203.747770
 30
0.0
 10
229.854271
 20
203.995448
 30
0.0
 10
229.172010
 20
203.995440
 30
0.0
  0
LINE
  5
11d
100
AcDbEntity
  8
Layer_1
 62
2
100
AcDbLine
 10
229.172010
 20
203.995440
 30
0.0
 11
214.924890
 21
203.995230
 31
0.0
  0
SPLINE
  5
11e
100
AcDbEntity
  8
Layer_1
 62
2
100
AcDbSpline
 70
8
 71
3
 72
8
 73
4
 74
0
 40
0
 40
0
 40
0
 40
0
 40
1
 40
1
 40
1
 40
1
 10
214.924890
 20
203.995230
 30
0.0
 10
214.219337
 20
203.995221
 30
0.0
 10
213.513783
 20
203.995211
 30
0.0
 10
212.808230
 20
203.995200
 30
0.0
  0
LINE
  5
11f
100
AcDbEntity
  8
Layer_1
 62
2
100
AcDbLine
 10
212.808230
 20
203.995200
 30
0.0
 11
195.530300
 21
203.994890
 31
0.0
  0
SPLINE
  5
120
100
AcDbEntity
  8
Layer_1
 62
2
100
AcDbSpline
 70
8
 71
3
 72
8
 73
4
 74
0
 40
0
 40
0
 40
0
 40
0
 40
1
 40
1
 40
1
 40
1
 10
195.530300
 20
203.994890
 30
0.0
 10
194.824747
 20
203.994877
 30
0.0
 10
194.119193
 20
203.994867
 30
0.0
 10
193.413640
 20
203.994860
 30
0.0
  0
LINE
  5
121
100
AcDbEntity
  8
Layer_1
 62
2
100
AcDbLine
 10
193.413640
 20
203.994860
 30
0.0
 11
98.099510
 21
203.993910
 31
0.0
  0
SPLINE
  5
122
100
AcDbEntity
  8
Layer_1
 62
2
100
AcDbSpline
 70
8
 71
3
 72
8
 73
4
 74
0
 40
0
 40
0
 40
0
 40
0
 40
1
 40
1
 40
1
 40
1
 10
98.099510
 20
203.993910
 30
0.0
 10
97.417611
 20
203.993901
 30
0.0
 10
96.759270
 20
203.744446
 30
0.0
 10
96.248590
 20
203.292570
 30
0.0
  0
LINE
  5
123
100
AcDbEntity
  8
Layer_1
 62
2
100
AcDbLine
 10
96.248590
 20
203.292570
 30
0.0
 11
94.638650
 21
201.868020
 31
0.0
  0
SPLINE
  5
124
100
AcDbEntity
  8
Layer_1
 62
2
100
AcDbSpline
 70
8
 71
3
 72
8
 73
4
 74
0
 40
0
 40
0
 40
0
 40
0
 40
1
 40
1
 40
1
 40
1
 10
94.638650
 20
201.868020
 30
0.0
 10
94.134640
 20
201.422043
 30
0.0
 10
93.846060
 20
200.781354
 30
0.0
 10
93.846060
 20
200.108360
 30
0.0
  0
LINE
  5
125
100
AcDbEntity
  8
Layer_1
 62
2
100
AcDbLine
 10
93.846060
 20
200.108360
 30
0.0
 11
93.846060
 21
97.260890
 31
0.0
  0
SPLINE
  5
126
100
AcDbEntity
  8
Layer_1
 62
2
100
AcDbSpline
 70
8
 71
3
 72
8
 73
4
 74
0
 40
0
 40
0
 40
0
 40
0
 40
1
 40
1
 40
1
 40
1
 10
93.846060
 20
97.260890
 30
0.0
 10
93.846060
 20
96.584748
 30
0.0
 10
94.121717
 20
95.937830
 30
0.0
 10
94.609390
 20
95.469490
 30
0.0
  0
LINE
  5
127
100
AcDbEntity
  8
Layer_1
 62
2
100
AcDbLine
 10
94.609390
 20
95.469490
 30
0.0
 11
96.275830
 21
93.869130
 31
0.0
  0
SPLINE
  5
128
100
AcDbEntity
  8
Layer_1
 62
2
100
AcDbSpline
 70
8
 71
3
 72
8
 73
4
 74
0
 40
0
 40
0
 40
0
 40
0
 40
1
 40
1
 40
1
 40
1
 10
96.275830
 20
93.869130
 30
0.0
 10
96.765625
 20
93.398754
 30
0.0
 10
97.418407
 20
93.136108
 30
0.0
 10
98.097490
 20
93.136190
 30
0.0
  0
LINE
  5
129
100
AcDbEntity
  8
Layer_1
 62
2
100
AcDbLine
 10
98.097490
 20
93.136190
 30
0.0
 11
193.413680
 21
93.147990
 31
0.0
  0
LINE
  5
12a
100
AcDbEntity
  8
Layer_1
 62
2
100
AcDbLine
 10
193.413680
 20
93.147990
 30
0.0
 11
212.543610
 21
93.150960
 31
0.0
  0
SPLINE
  5
12b
100
AcDbEntity
  8
Layer_1
 62
2
100
AcDbSpline
 70
8
 71
3
 72
8
 73
4
 74
0
 40
0
 40
0
 40
0
 40
0
 40
1
 40
1
 40
1
 40
1
 10
-52.112460
 20
102.514860
 30
0.0
 10
-52.745443
 20
102.514860
 30
0.0
 10
-53.316099
 20
102.133560
 30
0.0
 10
-53.558332
 20
101.548760
 30
0.0
  0
SPLINE
  5
12c
100
AcDbEntity
  8
Layer_1
 62
2
100
AcDbSpline
 70
8
 71
3
 72
8
 73
4
 74
0
 40
0
 40
0
 40
0
 40
0
 40
1
 40
1
 40
1
 40
1
 10
-53.558332
 20
101.548760
 30
0.0
 10
-53.800564
 20
100.963959
 30
0.0
 10
-53.666669
 20
100.290825
 30
0.0
 10
-53.219082
 20
99.843238
 30
0.0
  0
SPLINE
  5
12d
100
AcDbEntity
  8
Layer_1
 62
2
100
AcDbSpline
 70
8
 71
3
 72
8
 73
4
 74
0
 40
0
 40
0
 40
0
 40
0
 40
1
 40
1
 40
1
 40
1
 10
-53.219082
 20
99.843238
 30
0.0
 10
-52.771495
 20
99.395651
 30
0.0
 10
-52.098361
 20
99.261756
 30
0.0
 10
-51.513560
 20
99.503988
 30
0.0
  0
SPLINE
  5
12e
100
AcDbEntity
  8
Layer_1
 62
2
100
AcDbSpline
 70
8
 71
3
 72
8
 73
4
 74
0
 40
0
 40
0
 40
0
 40
0
 40
1
 40
1
 40
1
 40
1
 10
-51.513560
 20
99.503988
 30
0.0
 10
-50.928760
 20
99.746221
 30
0.0
 10
-50.547460
 20
100.316877
 30
0.0
 10
-50.547460
 20
100.949860
 30
0.0
  0
SPLINE
  5
12f
100
AcDbEntity
  8
Layer_1
 62
2
100
AcDbSpline
 70
8
 71
3
 72
8
 73
4
 74
0
 40
0
 40
0
 40
0
 40
0
 40
1
 40
1
 40
1
 40
1
 10
-50.547460
 20
100.949860
 30
0.0
 10
-50.547460
 20
101.814186
 30
0.0
 10
-51.248134
 20
102.514860
 30
0.0
 10
-52.112460
 20
102.514860
 30
0.0
  0
LINE
  5
130
100
AcDbEntity
  8
Layer_1
 62
2
100
AcDbLine
 10
-52.112460
 20
102.514860
 30
0.0
 11
-52.112460
 21
102.514860
 31
0.0
  0
SPLINE
  5
131
100
AcDbEntity
  8
Layer_1
 62
2
100
AcDbSpline
 70
8
 71
3
 72
8
 73
4
 74
0
 40
0
 40
0
 40
0
 40
0
 40
1
 40
1
 40
1
 40
1
 10
-52.112460
 20
191.348330
 30
0.0
 10
-52.745443
 20
191.348330
 30
0.0
 10
-53.316099
 20
190.967030
 30
0.0
 10
-53.558332
 20
190.382230
 30
0.0
  0
SPLINE
  5
132
100
AcDbEntity
  8
Layer_1
 62
2
100
AcDbSpline
 70
8
 71
3
 72
8
 73
4
 74
0
 40
0
 40
0
 40
0
 40
0
 40
1
 40
1
 40
1
 40
1
 10
-53.558332
 20
190.382230
 30
0.0
 10
-53.800564
 20
189.797429
 30
0.0
 10
-53.666669
 20
189.124295
 30
0.0
 10
-53.219082
 20
188.676708
 30
0.0
  0
SPLINE
  5
133
100
AcDbEntity
  8
Layer_1
 62
2
100
AcDbSpline
 70
8
 71
3
 72
8
 73
4
 74
0
 40
0
 40
0
 40
0
 40
0
 40
1
 40
1
 40
1
 40
1
 10
-53.219082
 20
188.676708
 30
0.0
 10
-52.771495
 20
188.229121
 30
0.0
 10
-52.098361
 20
188.095226
 30
0.0
 10
-51.513560
 20
188.337458
 30
0.0
  0
SPLINE
  5
134
100
AcDbEntity
  8
Layer_1
 62
2
100
AcDbSpline
 70
8
 71
3
 72
8
 73
4
 74
0
 40
0
 40
0
 40
0
 40
0
 40
1
 40
1
 40
1
 40
1
 10
-51.513560
 20
188.337458
 30
0.0
 10
-50.928760
 20
188.579691
 30
0.0
 10
-50.547460
 20
189.150347
 30
0.0
 10
-50.547460
 20
189.783330
 30
0.0
  0
SPLINE
  5
135
100
AcDbEntity
  8
Layer_1
 62
2
100
AcDbSpline
 70
8
 71
3
 72
8
 73
4
 74
0
 40
0
 40
0
 40
0
 40
0
 40
1
 40
1
 40
1
 40
1
 10
-50.547460
 20
189.783330
 30
0.0
 10
-50.547460
 20
190.647656
 30
0.0
 10
-51.248134
 20
191.348330
 30
0.0
 10
-52.112460
 20
191.348330
 30
0.0
  0
LINE
  5
136
100
AcDbEntity
  8
Layer_1
 62
2
100
AcDbLine
 10
-52.112460
 20
191.348330
 30
0.0
 11
-52.112460
 21
191.348330
 31
0.0
  0
SPLINE
  5
137
100
AcDbEntity
  8
Layer_1
 62
2
100
AcDbSpline
 70
8
 71
3
 72
8
 73
4
 74
0
 40
0
 40
0
 40
0
 40
0
 40
1
 40
1
 40
1
 40
1
 10
76.141690
 20
199.871250
 30
0.0
 10
75.508707
 20
199.871250
 30
0.0
 10
74.938051
 20
199.489950
 30
0.0
 10
74.695818
 20
198.905150
 30
0.0
  0
SPLINE
  5
138
100
AcDbEntity
  8
Layer_1
 62
2
100
AcDbSpline
 70
8
 71
3
 72
8
 73
4
 74
0
 40
0
 40
0
 40
0
 40
0
 40
1
 40
1
 40
1
 40
1
 10
74.695818
 20
198.905150
 30
0.0
 10
74.453586
 20
198.320349
 30
0.0
 10
74.587481
 20
197.647215
 30
0.0
 10
75.035068
 20
197.199628
 30
0.0
  0
SPLINE
  5
139
100
AcDbEntity
  8
Layer_1
 62
2
100
AcDbSpline
 70
8
 71
3
 72
8
 73
4
 74
0
 40
0
 40
0
 40
0
 40
0
 40
1
 40
1
 40
1
 40
1
 10
75.035068
 20
197.199628
 30
0.0
 10
75.482655
 20
196.752041
 30
0.0
 10
76.155789
 20
196.618146
 30
0.0
 10
76.740590
 20
196.860378
 30
0.0
  0
SPLINE
  5
13a
100
AcDbEntity
  8
Layer_1
 62
2
100
AcDbSpline
 70
8
 71
3
 72
8
 73
4
 74
0
 40
0
 40
0
 40
0
 40
0
 40
1
 40
1
 40
1
 40
1
 10
76.740590
 20
196.860378
 30
0.0
 10
77.325390
 20
197.102611
 30
0.0
 10
77.706690
 20
197.673267
 30
0.0
 10
77.706690
 20
198.306250
 30
0.0
  0
SPLINE
  5
13b
100
AcDbEntity
  8
Layer_1
 62
2
100
AcDbSpline
 70
8
 71
3
 72
8
 73
4
 74
0
 40
0
 40
0
 40
0
 40
0
 40
1
 40
1
 40
1
 40
1
 10
77.706690
 20
198.306250
 30
0.0
 10
77.706690
 20
198.721314
 30
0.0
 10
77.541807
 20
199.119378
 30
0.0
 10
77.248312
 20
199.412872
 30
0.0
  0
SPLINE
  5
13c
100
AcDbEntity
  8
Layer_1
 62
2
100
AcDbSpline
 70
8
 71
3
 72
8
 73
4
 74
0
 40
0
 40
0
 40
0
 40
0
 40
1
 40
1
 40
1
 40
1
 10
77.248312
 20
199.412872
 30
0.0
 10
76.954818
 20
199.706367
 30
0.0
 10
76.556754
 20
199.871250
 30
0.0
 10
76.141690
 20
199.871250
 30
0.0
  0
LINE
  5
13d
100
AcDbEntity
  8
Layer_1
 62
2
100
AcDbLine
 10
76.141690
 20
199.871250
 30
0.0
 11
76.141690
 21
199.871250
 31
0.0
  0
SPLINE
  5
13e
100
AcDbEntity
  8
Layer_1
 62
2
100
AcDbSpline
 70
8
 71
3
 72
8
 73
4
 74
0
 40
0
 40
0
 40
0
 40
0
 40
1
 40
1
 40
1
 40
1
 10
76.141690
 20
102.535670
 30
0.0
 10
75.508707
 20
102.535670
 30
0.0
 10
74.938051
 20
102.154370
 30
0.0
 10
74.695818
 20
101.569570
 30
0.0
  0
SPLINE
  5
13f
100
AcDbEntity
  8
Layer_1
 62
2
100
AcDbSpline
 70
8
 71
3
 72
8
 73
4
 74
0
 40
0
 40
0
 40
0
 40
0
 40
1
 40
1
 40
1
 40
1
 10
74.695818
 20
101.569570
 30
0.0
 10
74.453586
 20
100.984769
 30
0.0
 10
74.587481
 20
100.311635
 30
0.0
 10
75.035068
 20
99.864048
 30
0.0
  0
SPLINE
  5
140
100
AcDbEntity
  8
Layer_1
 62
2
100
AcDbSpline
 70
8
 71
3
 72
8
 73
4
 74
0
 40
0
 40
0
 40
0
 40
0
 40
1
 40
1
 40
1
 40
1
 10
75.035068
 20
99.864048
 30
0.0
 10
75.482655
 20
99.416461
 30
0.0
 10
76.155789
 20
99.282566
 30
0.0
 10
76.740590
 20
99.524798
 30
0.0
  0
SPLINE
  5
141
100
AcDbEntity
  8
Layer_1
 62
2
100
AcDbSpline
 70
8
 71
3
 72
8
 73
4
 74
0
 40
0
 40
0
 40
0
 40
0
 40
1
 40
1
 40
1
 40
1
 10
76.740590
 20
99.524798
 30
0.0
 10
77.325390
 20
99.767031
 30
0.0
 10
77.706690
 20
100.337687
 30
0.0
 10
77.706690
 20
100.970670
 30
0.0
  0
SPLINE
  5
142
100
AcDbEntity
  8
Layer_1
 62
2
100
AcDbSpline
 70
8
 71
3
 72
8
 73
4
 74
0
 40
0
 40
0
 40
0
 40
0
 40
1
 40
1
 40
1
 40
1
 10
77.706690
 20
100.970670
 30
0.0
 10
77.706690
 20
101.385734
 30
0.0
 10
77.541807
 20
101.783798
 30
0.0
 10
77.248312
 20
102.077292
 30
0.0
  0
SPLINE
  5
143
100
AcDbEntity
  8
Layer_1
 62
2
100
AcDbSpline
 70
8
 71
3
 72
8
 73
4
 74
0
 40
0
 40
0
 40
0
 40
0
 40
1
 40
1
 40
1
 40
1
 10
77.248312
 20
102.077292
 30
0.0
 10
76.954818
 20
102.370787
 30
0.0
 10
76.556754
 20
102.535670
 30
0.0
 10
76.141690
 20
102.535670
 30
0.0
  0
LINE
  5
144
100
AcDbEntity
  8
Layer_1
 62
2
100
AcDbLine
 10
76.141690
 20
102.535670
 30
0.0
 11
76.141690
 21
102.535670
 31
0.0
  0
SPLINE
  5
145
100
AcDbEntity
  8
Layer_1
 62
2
100
AcDbSpline
 70
8
 71
3
 72
8
 73
4
 74
0
 40
0
 40
0
 40
0
 40
0
 40
1
 40
1
 40
1
 40
1
 10
76.141690
 20
156.453860
 30
0.0
 10
75.508707
 20
156.453860
 30
0.0
 10
74.938051
 20
156.072560
 30
0.0
 10
74.695818
 20
155.487760
 30
0.0
  0
SPLINE
  5
146
100
AcDbEntity
  8
Layer_1
 62
2
100
AcDbSpline
 70
8
 71
3
 72
8
 73
4
 74
0
 40
0
 40
0
 40
0
 40
0
 40
1
 40
1
 40
1
 40
1
 10
74.695818
 20
155.487760
 30
0.0
 10
74.453586
 20
154.902959
 30
0.0
 10
74.587481
 20
154.229825
 30
0.0
 10
75.035068
 20
153.782238
 30
0.0
  0
SPLINE
  5
147
100
AcDbEntity
  8
Layer_1
 62
2
100
AcDbSpline
 70
8
 71
3
 72
8
 73
4
 74
0
 40
0
 40
0
 40
0
 40
0
 40
1
 40
1
 40
1
 40
1
 10
75.035068
 20
153.782238
 30
0.0
 10
75.482655
 20
153.334651
 30
0.0
 10
76.155789
 20
153.200756
 30
0.0
 10
76.740590
 20
153.442988
 30
0.0
  0
SPLINE
  5
148
100
AcDbEntity
  8
Layer_1
 62
2
100
AcDbSpline
 70
8
 71
3
 72
8
 73
4
 74
0
 40
0
 40
0
 40
0
 40
0
 40
1
 40
1
 40
1
 40
1
 10
76.740590
 20
153.442988
 30
0.0
 10
77.325390
 20
153.685221
 30
0.0
 10
77.706690
 20
154.255877
 30
0.0
 10
77.706690
 20
154.888860
 30
0.0
  0
SPLINE
  5
149
100
AcDbEntity
  8
Layer_1
 62
2
100
AcDbSpline
 70
8
 71
3
 72
8
 73
4
 74
0
 40
0
 40
0
 40
0
 40
0
 40
1
 40
1
 40
1
 40
1
 10
77.706690
 20
154.888860
 30
0.0
 10
77.706690
 20
155.303924
 30
0.0
 10
77.541807
 20
155.701988
 30
0.0
 10
77.248312
 20
155.995482
 30
0.0
  0
SPLINE
  5
14a
100
AcDbEntity
  8
Layer_1
 62
2
100
AcDbSpline
 70
8
 71
3
 72
8
 73
4
 74
0
 40
0
 40
0
 40
0
 40
0
 40
1
 40
1
 40
1
 40
1
 10
77.248312
 20
155.995482
 30
0.0
 10
76.954818
 20
156.288977
 30
0.0
 10
76.556754
 20
156.453860
 30
0.0
 10
76.141690
 20
156.453860
 30
0.0
  0
LINE
  5
14b
100
AcDbEntity
  8
Layer_1
 62
2
100
AcDbLine
 10
76.141690
 20
156.453860
 30
0.0
 11
76.141690
 21
156.453860
 31
0.0
  0
SPLINE
  5
14c
100
AcDbEntity
  8
Layer_1
 62
2
100
AcDbSpline
 70
8
 71
3
 72
8
 73
4
 74
0
 40
0
 40
0
 40
0
 40
0
 40
1
 40
1
 40
1
 40
1
 10
227.762450
 20
102.514860
 30
0.0
 10
228.395433
 20
102.514860
 30
0.0
 10
228.966089
 20
102.133560
 30
0.0
 10
229.208322
 20
101.548760
 30
0.0
  0
SPLINE
  5
14d
100
AcDbEntity
  8
Layer_1
 62
2
100
AcDbSpline
 70
8
 71
3
 72
8
 73
4
 74
0
 40
0
 40
0
 40
0
 40
0
 40
1
 40
1
 40
1
 40
1
 10
229.208322
 20
101.548760
 30
0.0
 10
229.450554
 20
100.963959
 30
0.0
 10
229.316659
 20
100.290825
 30
0.0
 10
228.869072
 20
99.843238
 30
0.0
  0
SPLINE
  5
14e
100
AcDbEntity
  8
Layer_1
 62
2
100
AcDbSpline
 70
8
 71
3
 72
8
 73
4
 74
0
 40
0
 40
0
 40
0
 40
0
 40
1
 40
1
 40
1
 40
1
 10
228.869072
 20
99.843238
 30
0.0
 10
228.421485
 20
99.395651
 30
0.0
 10
227.748351
 20
99.261756
 30
0.0
 10
227.163550
 20
99.503988
 30
0.0
  0
SPLINE
  5
14f
100
AcDbEntity
  8
Layer_1
 62
2
100
AcDbSpline
 70
8
 71
3
 72
8
 73
4
 74
0
 40
0
 40
0
 40
0
 40
0
 40
1
 40
1
 40
1
 40
1
 10
227.163550
 20
99.503988
 30
0.0
 10
226.578750
 20
99.746221
 30
0.0
 10
226.197450
 20
100.316877
 30
0.0
 10
226.197450
 20
100.949860
 30
0.0
  0
SPLINE
  5
150
100
AcDbEntity
  8
Layer_1
 62
2
100
AcDbSpline
 70
8
 71
3
 72
8
 73
4
 74
0
 40
0
 40
0
 40
0
 40
0
 40
1
 40
1
 40
1
 40
1
 10
226.197450
 20
100.949860
 30
0.0
 10
226.197450
 20
101.364924
 30
0.0
 10
226.362333
 20
101.762988
 30
0.0
 10
226.655828
 20
102.056482
 30
0.0
  0
SPLINE
  5
151
100
AcDbEntity
  8
Layer_1
 62
2
100
AcDbSpline
 70
8
 71
3
 72
8
 73
4
 74
0
 40
0
 40
0
 40
0
 40
0
 40
1
 40
1
 40
1
 40
1
 10
226.655828
 20
102.056482
 30
0.0
 10
226.949322
 20
102.349977
 30
0.0
 10
227.347386
 20
102.514860
 30
0.0
 10
227.762450
 20
102.514860
 30
0.0
  0
LINE
  5
152
100
AcDbEntity
  8
Layer_1
 62
2
100
AcDbLine
 10
227.762450
 20
102.514860
 30
0.0
 11
227.762450
 21
102.514860
 31
0.0
  0
SPLINE
  5
153
100
AcDbEntity
  8
Layer_1
 62
2
100
AcDbSpline
 70
8
 71
3
 72
8
 73
4
 74
0
 40
0
 40
0
 40
0
 40
0
 40
1
 40
1
 40
1
 40
1
 10
227.762450
 20
191.348330
 30
0.0
 10
228.395433
 20
191.348330
 30
0.0
 10
228.966089
 20
190.967030
 30
0.0
 10
229.208322
 20
190.382230
 30
0.0
  0
SPLINE
  5
154
100
AcDbEntity
  8
Layer_1
 62
2
100
AcDbSpline
 70
8
 71
3
 72
8
 73
4
 74
0
 40
0
 40
0
 40
0
 40
0
 40
1
 40
1
 40
1
 40
1
 10
229.208322
 20
190.382230
 30
0.0
 10
229.450554
 20
189.797429
 30
0.0
 10
229.316659
 20
189.124295
 30
0.0
 10
228.869072
 20
188.676708
 30
0.0
  0
SPLINE
  5
155
100
AcDbEntity
  8
Layer_1
 62
2
100
AcDbSpline
 70
8
 71
3
 72
8
 73
4
 74
0
 40
0
 40
0
 40
0
 40
0
 40
1
 40
1
 40
1
 40
1
 10
228.869072
 20
188.676708
 30
0.0
 10
228.421485
 20
188.229121
 30
0.0
 10
227.748351
 20
188.095226
 30
0.0
 10
227.163550
 20
188.337458
 30
0.0
  0
SPLINE
  5
156
100
AcDbEntity
  8
Layer_1
 62
2
100
AcDbSpline
 70
8
 71
3
 72
8
 73
4
 74
0
 40
0
 40
0
 40
0
 40
0
 40
1
 40
1
 40
1
 40
1
 10
227.163550
 20
188.337458
 30
0.0
 10
226.578750
 20
188.579691
 30
0.0
 10
226.197450
 20
189.150347
 30
0.0
 10
226.197450
 20
189.783330
 30
0.0
  0
SPLINE
  5
157
100
AcDbEntity
  8
Layer_1
 62
2
100
AcDbSpline
 70
8
 71
3
 72
8
 73
4
 74
0
 40
0
 40
0
 40
0
 40
0
 40
1
 40
1
 40
1
 40
1
 10
226.197450
 20
189.783330
 30
0.0
 10
226.197450
 20
190.198394
 30
0.0
 10
226.362333
 20
190.596458
 30
0.0
 10
226.655828
 20
190.889952
 30
0.0
  0
SPLINE
  5
158
100
AcDbEntity
  8
Layer_1
 62
2
100
AcDbSpline
 70
8
 71
3
 72
8
 73
4
 74
0
 40
0
 40
0
 40
0
 40
0
 40
1
 40
1
 40
1
 40
1
 10
226.655828
 20
190.889952
 30
0.0
 10
226.949322
 20
191.183447
 30
0.0
 10
227.347386
 20
191.348330
 30
0.0
 10
227.762450
 20
191.348330
 30
0.0
  0
LINE
  5
159
100
AcDbEntity
  8
Layer_1
 62
2
100
AcDbLine
 10
227.762450
 20
191.348330
 30
0.0
 11
227.762450
 21
191.348330
 31
0.0
  0
SPLINE
  5
15a
100
AcDbEntity
  8
Layer_1
 62
2
100
AcDbSpline
 70
8
 71
3
 72
8
 73
4
 74
0
 40
0
 40
0
 40
0
 40
0
 40
1
 40
1
 40
1
 40
1
 10
99.548310
 20
199.871250
 30
0.0
 10
100.181293
 20
199.871250
 30
0.0
 10
100.751949
 20
199.489950
 30
0.0
 10
100.994182
 20
198.905150
 30
0.0
  0
SPLINE
  5
15b
100
AcDbEntity
  8
Layer_1
 62
2
100
AcDbSpline
 70
8
 71
3
 72
8
 73
4
 74
0
 40
0
 40
0
 40
0
 40
0
 40
1
 40
1
 40
1
 40
1
 10
100.994182
 20
198.905150
 30
0.0
 10
101.236414
 20
198.320349
 30
0.0
 10
101.102519
 20
197.647215
 30
0.0
 10
100.654932
 20
197.199628
 30
0.0
  0
SPLINE
  5
15c
100
AcDbEntity
  8
Layer_1
 62
2
100
AcDbSpline
 70
8
 71
3
 72
8
 73
4
 74
0
 40
0
 40
0
 40
0
 40
0
 40
1
 40
1
 40
1
 40
1
 10
100.654932
 20
197.199628
 30
0.0
 10
100.207345
 20
196.752041
 30
0.0
 10
99.534211
 20
196.618146
 30
0.0
 10
98.949410
 20
196.860378
 30
0.0
  0
SPLINE
  5
15d
100
AcDbEntity
  8
Layer_1
 62
2
100
AcDbSpline
 70
8
 71
3
 72
8
 73
4
 74
0
 40
0
 40
0
 40
0
 40
0
 40
1
 40
1
 40
1
 40
1
 10
98.949410
 20
196.860378
 30
0.0
 10
98.364610
 20
197.102611
 30
0.0
 10
97.983310
 20
197.673267
 30
0.0
 10
97.983310
 20
198.306250
 30
0.0
  0
SPLINE
  5
15e
100
AcDbEntity
  8
Layer_1
 62
2
100
AcDbSpline
 70
8
 71
3
 72
8
 73
4
 74
0
 40
0
 40
0
 40
0
 40
0
 40
1
 40
1
 40
1
 40
1
 10
97.983310
 20
198.306250
 30
0.0
 10
97.983310
 20
198.721314
 30
0.0
 10
98.148193
 20
199.119378
 30
0.0
 10
98.441688
 20
199.412872
 30
0.0
  0
SPLINE
  5
15f
100
AcDbEntity
  8
Layer_1
 62
2
100
AcDbSpline
 70
8
 71
3
 72
8
 73
4
 74
0
 40
0
 40
0
 40
0
 40
0
 40
1
 40
1
 40
1
 40
1
 10
98.441688
 20
199.412872
 30
0.0
 10
98.735182
 20
199.706367
 30
0.0
 10
99.133246
 20
199.871250
 30
0.0
 10
99.548310
 20
199.871250
 30
0.0
  0
LINE
  5
160
100
AcDbEntity
  8
Layer_1
 62
2
100
AcDbLine
 10
99.548310
 20
199.871250
 30
0.0
 11
99.548310
 21
199.871250
 31
0.0
  0
SPLINE
  5
161
100
AcDbEntity
  8
Layer_1
 62
2
100
AcDbSpline
 70
8
 71
3
 72
8
 73
4
 74
0
 40
0
 40
0
 40
0
 40
0
 40
1
 40
1
 40
1
 40
1
 10
99.548310
 20
102.535670
 30
0.0
 10
100.181293
 20
102.535670
 30
0.0
 10
100.751949
 20
102.154370
 30
0.0
 10
100.994182
 20
101.569570
 30
0.0
  0
SPLINE
  5
162
100
AcDbEntity
  8
Layer_1
 62
2
100
AcDbSpline
 70
8
 71
3
 72
8
 73
4
 74
0
 40
0
 40
0
 40
0
 40
0
 40
1
 40
1
 40
1
 40
1
 10
100.994182
 20
101.569570
 30
0.0
 10
101.236414
 20
100.984769
 30
0.0
 10
101.102519
 20
100.311635
 30
0.0
 10
100.654932
 20
99.864048
 30
0.0
  0
SPLINE
  5
163
100
AcDbEntity
  8
Layer_1
 62
2
100
AcDbSpline
 70
8
 71
3
 72
8
 73
4
 74
0
 40
0
 40
0
 40
0
 40
0
 40
1
 40
1
 40
1
 40
1
 10
100.654932
 20
99.864048
 30
0.0
 10
100.207345
 20
99.416461
 30
0.0
 10
99.534211
 20
99.282566
 30
0.0
 10
98.949410
 20
99.524798
 30
0.0
  0
SPLINE
  5
164
100
AcDbEntity
  8
Layer_1
 62
2
100
AcDbSpline
 70
8
 71
3
 72
8
 73
4
 74
0
 40
0
 40
0
 40
0
 40
0
 40
1
 40
1
 40
1
 40
1
 10
98.949410
 20
99.524798
 30
0.0
 10
98.364610
 20
99.767031
 30
0.0
 10
97.983310
 20
100.337687
 30
0.0
 10
97.983310
 20
100.970670
 30
0.0
  0
SPLINE
  5
165
100
AcDbEntity
  8
Layer_1
 62
2
100
AcDbSpline
 70
8
 71
3
 72
8
 73
4
 74
0
 40
0
 40
0
 40
0
 40
0
 40
1
 40
1
 40
1
 40
1
 10
97.983310
 20
100.970670
 30
0.0
 10
97.983310
 20
101.385734
 30
0.0
 10
98.148193
 20
101.783798
 30
0.0
 10
98.441688
 20
102.077292
 30
0.0
  0
SPLINE
  5
166
100
AcDbEntity
  8
Layer_1
 62
2
100
AcDbSpline
 70
8
 71
3
 72
8
 73
4
 74
0
 40
0
 40
0
 40
0
 40
0
 40
1
 40
1
 40
1
 40
1
 10
98.441688
 20
102.077292
 30
0.0
 10
98.735182
 20
102.370787
 30
0.0
 10
99.133246
 20
102.535670
 30
0.0
 10
99.548310
 20
102.535670
 30
0.0
  0
LINE
  5
167
100
AcDbEntity
  8
Layer_1
 62
2
100
AcDbLine
 10
99.548310
 20
102.535670
 30
0.0
 11
99.548310
 21
102.535670
 31
0.0
  0
SPLINE
  5
168
100
AcDbEntity
  8
Layer_1
 62
2
100
AcDbSpline
 70
8
 71
3
 72
8
 73
4
 74
0
 40
0
 40
0
 40
0
 40
0
 40
1
 40
1
 40
1
 40
1
 10
99.548310
 20
156.453860
 30
0.0
 10
100.181293
 20
156.453860
 30
0.0
 10
100.751949
 20
156.072560
 30
0.0
 10
100.994182
 20
155.487760
 30
0.0
  0
SPLINE
  5
169
100
AcDbEntity
  8
Layer_1
 62
2
100
AcDbSpline
 70
8
 71
3
 72
8
 73
4
 74
0
 40
0
 40
0
 40
0
 40
0
 40
1
 40
1
 40
1
 40
1
 10
100.994182
 20
155.487760
 30
0.0
 10
101.236414
 20
154.902959
 30
0.0
 10
101.102519
 20
154.229825
 30
0.0
 10
100.654932
 20
153.782238
 30
0.0
  0
SPLINE
  5
16a
100
AcDbEntity
  8
Layer_1
 62
2
100
AcDbSpline
 70
8
 71
3
 72
8
 73
4
 74
0
 40
0
 40
0
 40
0
 40
0
 40
1
 40
1
 40
1
 40
1
 10
100.654932
 20
153.782238
 30
0.0
 10
100.207345
 20
153.334651
 30
0.0
 10
99.534211
 20
153.200756
 30
0.0
 10
98.949410
 20
153.442988
 30
0.0
  0
SPLINE
  5
16b
100
AcDbEntity
  8
Layer_1
 62
2
100
AcDbSpline
 70
8
 71
3
 72
8
 73
4
 74
0
 40
0
 40
0
 40
0
 40
0
 40
1
 40
1
 40
1
 40
1
 10
98.949410
 20
153.442988
 30
0.0
 10
98.364610
 20
153.685221
 30
0.0
 10
97.983310
 20
154.255877
 30
0.0
 10
97.983310
 20
154.888860
 30
0.0
  0
SPLINE
  5
16c
100
AcDbEntity
  8
Layer_1
 62
2
100
AcDbSpline
 70
8
 71
3
 72
8
 73
4
 74
0
 40
0
 40
0
 40
0
 40
0
 40
1
 40
1
 40
1
 40
1
 10
97.983310
 20
154.888860
 30
0.0
 10
97.983310
 20
155.303924
 30
0.0
 10
98.148193
 20
155.701988
 30
0.0
 10
98.441688
 20
155.995482
 30
0.0
  0
SPLINE
  5
16d
100
AcDbEntity
  8
Layer_1
 62
2
100
AcDbSpline
 70
8
 71
3
 72
8
 73
4
 74
0
 40
0
 40
0
 40
0
 40
0
 40
1
 40
1
 40
1
 40
1
 10
98.441688
 20
155.995482
 30
0.0
 10
98.735182
 20
156.288977
 30
0.0
 10
99.133246
 20
156.453860
 30
0.0
 10
99.548310
 20
156.453860
 30
0.0
  0
LINE
  5
16e
100
AcDbEntity
  8
Layer_1
 62
2
100
AcDbLine
 10
99.548310
 20
156.453860
 30
0.0
 11
99.548310
 21
156.453860
 31
0.0
  0
LINE
  5
16f
100
AcDbEntity
  8
Layer_1
 62
2
100
AcDbLine
 10
-46.858760
 20
183.995790
 30
0.0
 11
-52.282840
 21
183.995790
 31
0.0
  0
SPLINE
  5
170
100
AcDbEntity
  8
Layer_1
 62
2
100
AcDbSpline
 70
8
 71
3
 72
8
 73
4
 74
0
 40
0
 40
0
 40
0
 40
0
 40
1
 40
1
 40
1
 40
1
 10
-52.282840
 20
183.995790
 30
0.0
 10
-52.423185
 20
183.995791
 30
0.0
 10
-52.557782
 20
183.940039
 30
0.0
 10
-52.657021
 20
183.840801
 30
0.0
  0
SPLINE
  5
171
100
AcDbEntity
  8
Layer_1
 62
2
100
AcDbSpline
 70
8
 71
3
 72
8
 73
4
 74
0
 40
0
 40
0
 40
0
 40
0
 40
1
 40
1
 40
1
 40
1
 10
-52.657021
 20
183.840801
 30
0.0
 10
-52.756259
 20
183.741562
 30
0.0
 10
-52.812011
 20
183.606965
 30
0.0
 10
-52.812010
 20
183.466620
 30
0.0
  0
LINE
  5
172
100
AcDbEntity
  8
Layer_1
 62
2
100
AcDbLine
 10
-52.812010
 20
183.466620
 30
0.0
 11
-52.812010
 21
107.263240
 31
0.0
  0
SPLINE
  5
173
100
AcDbEntity
  8
Layer_1
 62
2
100
AcDbSpline
 70
8
 71
3
 72
8
 73
4
 74
0
 40
0
 40
0
 40
0
 40
0
 40
1
 40
1
 40
1
 40
1
 10
-52.812010
 20
107.263240
 30
0.0
 10
-52.812011
 20
107.122895
 30
0.0
 10
-52.756259
 20
106.988298
 30
0.0
 10
-52.657021
 20
106.889059
 30
0.0
  0
SPLINE
  5
174
100
AcDbEntity
  8
Layer_1
 62
2
100
AcDbSpline
 70
8
 71
3
 72
8
 73
4
 74
0
 40
0
 40
0
 40
0
 40
0
 40
1
 40
1
 40
1
 40
1
 10
-52.657021
 20
106.889059
 30
0.0
 10
-52.557782
 20
106.789821
 30
0.0
 10
-52.423185
 20
106.734069
 30
0.0
 10
-52.282840
 20
106.734070
 30
0.0
  0
LINE
  5
175
100
AcDbEntity
  8
Layer_1
 62
2
100
AcDbLine
 10
-52.282840
 20
106.734070
 30
0.0
 11
-46.858760
 21
106.734070
 31
0.0
  0
SPLINE
  5
176
100
AcDbEntity
  8
Layer_1
 62
2
100
AcDbSpline
 70
8
 71
3
 72
8
 73
4
 74
0
 40
0
 40
0
 40
0
 40
0
 40
1
 40
1
 40
1
 40
1
 10
-46.858760
 20
106.734070
 30
0.0
 10
-46.566510
 20
106.734070
 30
0.0
 10
-46.329490
 20
106.497150
 30
0.0
 10
-46.329320
 20
106.204900
 30
0.0
  0
SPLINE
  5
177
100
AcDbEntity
  8
Layer_1
 62
2
100
AcDbSpline
 70
8
 71
3
 72
8
 73
4
 74
0
 40
0
 40
0
 40
0
 40
0
 40
1
 40
1
 40
1
 40
1
 10
-46.329320
 20
106.204900
 30
0.0
 10
-46.328750
 20
105.225000
 30
0.0
 10
-46.328320
 20
104.245090
 30
0.0
 10
-46.327320
 20
103.265190
 30
0.0
  0
SPLINE
  5
178
100
AcDbEntity
  8
Layer_1
 62
2
100
AcDbSpline
 70
8
 71
3
 72
8
 73
4
 74
0
 40
0
 40
0
 40
0
 40
0
 40
1
 40
1
 40
1
 40
1
 10
-46.327320
 20
103.265190
 30
0.0
 10
-46.327250
 20
102.972940
 30
0.0
 10
-46.090330
 20
102.735980
 30
0.0
 10
-45.798080
 20
102.735930
 30
0.0
  0
LINE
  5
179
100
AcDbEntity
  8
Layer_1
 62
2
100
AcDbLine
 10
-45.798080
 20
102.735930
 30
0.0
 11
-11.938460
 21
102.729930
 31
0.0
  0
SPLINE
  5
17a
100
AcDbEntity
  8
Layer_1
 62
2
100
AcDbSpline
 70
8
 71
3
 72
8
 73
4
 74
0
 40
0
 40
0
 40
0
 40
0
 40
1
 40
1
 40
1
 40
1
 10
-11.938460
 20
102.729930
 30
0.0
 10
-11.646210
 20
102.729880
 30
0.0
 10
-11.409270
 20
102.966760
 30
0.0
 10
-11.409210
 20
103.259010
 30
0.0
  0
SPLINE
  5
17b
100
AcDbEntity
  8
Layer_1
 62
2
100
AcDbSpline
 70
8
 71
3
 72
8
 73
4
 74
0
 40
0
 40
0
 40
0
 40
0
 40
1
 40
1
 40
1
 40
1
 10
-11.409210
 20
103.259010
 30
0.0
 10
-11.408980
 20
104.240870
 30
0.0
 10
-11.408380
 20
105.222720
 30
0.0
 10
-11.407210
 20
106.204580
 30
0.0
  0
SPLINE
  5
17c
100
AcDbEntity
  8
Layer_1
 62
2
100
AcDbSpline
 70
8
 71
3
 72
8
 73
4
 74
0
 40
0
 40
0
 40
0
 40
0
 40
1
 40
1
 40
1
 40
1
 10
-11.407210
 20
106.204580
 30
0.0
 10
-11.407000
 20
106.496830
 30
0.0
 10
-11.169900
 20
106.733690
 30
0.0
 10
-10.877650
 20
106.733630
 30
0.0
  0
SPLINE
  5
17d
100
AcDbEntity
  8
Layer_1
 62
2
100
AcDbSpline
 70
8
 71
3
 72
8
 73
4
 74
0
 40
0
 40
0
 40
0
 40
0
 40
1
 40
1
 40
1
 40
1
 10
-10.877650
 20
106.733630
 30
0.0
 10
1.186230
 20
106.730630
 30
0.0
 10
13.250140
 20
106.741630
 30
0.0
 10
25.314020
 20
106.722930
 30
0.0
  0
SPLINE
  5
17e
100
AcDbEntity
  8
Layer_1
 62
2
100
AcDbSpline
 70
8
 71
3
 72
8
 73
4
 74
0
 40
0
 40
0
 40
0
 40
0
 40
1
 40
1
 40
1
 40
1
 10
25.314020
 20
106.722930
 30
0.0
 10
25.606270
 20
106.722470
 30
0.0
 10
25.843280
 20
106.485150
 30
0.0
 10
25.843450
 20
106.192900
 30
0.0
  0
SPLINE
  5
17f
100
AcDbEntity
  8
Layer_1
 62
2
100
AcDbSpline
 70
8
 71
3
 72
8
 73
4
 74
0
 40
0
 40
0
 40
0
 40
0
 40
1
 40
1
 40
1
 40
1
 10
25.843450
 20
106.192900
 30
0.0
 10
25.844020
 20
105.214950
 30
0.0
 10
25.844450
 20
104.237000
 30
0.0
 10
25.845450
 20
103.259050
 30
0.0
  0
SPLINE
  5
180
100
AcDbEntity
  8
Layer_1
 62
2
100
AcDbSpline
 70
8
 71
3
 72
8
 73
4
 74
0
 40
0
 40
0
 40
0
 40
0
 40
1
 40
1
 40
1
 40
1
 10
25.845450
 20
103.259050
 30
0.0
 10
25.845520
 20
102.966800
 30
0.0
 10
26.082440
 20
102.729880
 30
0.0
 10
26.374690
 20
102.729880
 30
0.0
  0
LINE
  5
181
100
AcDbEntity
  8
Layer_1
 62
2
100
AcDbLine
 10
26.374690
 20
102.729880
 30
0.0
 11
61.781190
 21
102.729880
 31
0.0
  0
SPLINE
  5
182
100
AcDbEntity
  8
Layer_1
 62
2
100
AcDbSpline
 70
8
 71
3
 72
8
 73
4
 74
0
 40
0
 40
0
 40
0
 40
0
 40
1
 40
1
 40
1
 40
1
 10
61.781190
 20
102.729880
 30
0.0
 10
62.073440
 20
102.729880
 30
0.0
 10
62.310380
 20
102.966800
 30
0.0
 10
62.310440
 20
103.259050
 30
0.0
  0
SPLINE
  5
183
100
AcDbEntity
  8
Layer_1
 62
2
100
AcDbSpline
 70
8
 71
3
 72
8
 73
4
 74
0
 40
0
 40
0
 40
0
 40
0
 40
1
 40
1
 40
1
 40
1
 10
62.310440
 20
103.259050
 30
0.0
 10
62.310670
 20
104.240910
 30
0.0
 10
62.311270
 20
105.222760
 30
0.0
 10
62.312440
 20
106.204620
 30
0.0
  0
SPLINE
  5
184
100
AcDbEntity
  8
Layer_1
 62
2
100
AcDbSpline
 70
8
 71
3
 72
8
 73
4
 74
0
 40
0
 40
0
 40
0
 40
0
 40
1
 40
1
 40
1
 40
1
 10
62.312440
 20
106.204620
 30
0.0
 10
62.312650
 20
106.496870
 30
0.0
 10
62.549750
 20
106.733790
 30
0.0
 10
62.842000
 20
106.733790
 30
0.0
  0
LINE
  5
185
100
AcDbEntity
  8
Layer_1
 62
2
100
AcDbLine
 10
62.842000
 20
106.733790
 30
0.0
 11
66.783660
 21
106.733790
 31
0.0
  0
SPLINE
  5
186
100
AcDbEntity
  8
Layer_1
 62
2
100
AcDbSpline
 70
8
 71
3
 72
8
 73
4
 74
0
 40
0
 40
0
 40
0
 40
0
 40
1
 40
1
 40
1
 40
1
 10
66.783660
 20
106.733790
 30
0.0
 10
66.924005
 20
106.733789
 30
0.0
 10
67.058602
 20
106.789541
 30
0.0
 10
67.157841
 20
106.888779
 30
0.0
  0
SPLINE
  5
187
100
AcDbEntity
  8
Layer_1
 62
2
100
AcDbSpline
 70
8
 71
3
 72
8
 73
4
 74
0
 40
0
 40
0
 40
0
 40
0
 40
1
 40
1
 40
1
 40
1
 10
67.157841
 20
106.888779
 30
0.0
 10
67.257079
 20
106.988018
 30
0.0
 10
67.312831
 20
107.122615
 30
0.0
 10
67.312830
 20
107.262960
 30
0.0
  0
LINE
  5
188
100
AcDbEntity
  8
Layer_1
 62
2
100
AcDbLine
 10
67.312830
 20
107.262960
 30
0.0
 11
67.312830
 21
125.255400
 31
0.0
  0
SPLINE
  5
189
100
AcDbEntity
  8
Layer_1
 62
2
100
AcDbSpline
 70
8
 71
3
 72
8
 73
4
 74
0
 40
0
 40
0
 40
0
 40
0
 40
1
 40
1
 40
1
 40
1
 10
67.312830
 20
125.255400
 30
0.0
 10
67.312829
 20
125.395745
 30
0.0
 10
67.368581
 20
125.530342
 30
0.0
 10
67.467819
 20
125.629581
 30
0.0
  0
SPLINE
  5
18a
100
AcDbEntity
  8
Layer_1
 62
2
100
AcDbSpline
 70
8
 71
3
 72
8
 73
4
 74
0
 40
0
 40
0
 40
0
 40
0
 40
1
 40
1
 40
1
 40
1
 10
67.467819
 20
125.629581
 30
0.0
 10
67.567058
 20
125.728819
 30
0.0
 10
67.701655
 20
125.784571
 30
0.0
 10
67.842000
 20
125.784570
 30
0.0
  0
LINE
  5
18b
100
AcDbEntity
  8
Layer_1
 62
2
100
AcDbLine
 10
67.842000
 20
125.784570
 30
0.0
 11
76.309050
 21
125.784570
 31
0.0
  0
SPLINE
  5
18c
100
AcDbEntity
  8
Layer_1
 62
2
100
AcDbSpline
 70
8
 71
3
 72
8
 73
4
 74
0
 40
0
 40
0
 40
0
 40
0
 40
1
 40
1
 40
1
 40
1
 10
76.309050
 20
125.784570
 30
0.0
 10
76.449395
 20
125.784569
 30
0.0
 10
76.583992
 20
125.840321
 30
0.0
 10
76.683231
 20
125.939559
 30
0.0
  0
SPLINE
  5
18d
100
AcDbEntity
  8
Layer_1
 62
2
100
AcDbSpline
 70
8
 71
3
 72
8
 73
4
 74
0
 40
0
 40
0
 40
0
 40
0
 40
1
 40
1
 40
1
 40
1
 10
76.683231
 20
125.939559
 30
0.0
 10
76.782469
 20
126.038798
 30
0.0
 10
76.838221
 20
126.173395
 30
0.0
 10
76.838220
 20
126.313740
 30
0.0
  0
LINE
  5
18e
100
AcDbEntity
  8
Layer_1
 62
2
100
AcDbLine
 10
76.838220
 20
126.313740
 30
0.0
 11
76.838220
 21
145.364930
 31
0.0
  0
SPLINE
  5
18f
100
AcDbEntity
  8
Layer_1
 62
2
100
AcDbSpline
 70
8
 71
3
 72
8
 73
4
 74
0
 40
0
 40
0
 40
0
 40
0
 40
1
 40
1
 40
1
 40
1
 10
76.838220
 20
145.364930
 30
0.0
 10
76.838221
 20
145.505275
 30
0.0
 10
76.782469
 20
145.639872
 30
0.0
 10
76.683231
 20
145.739111
 30
0.0
  0
SPLINE
  5
190
100
AcDbEntity
  8
Layer_1
 62
2
100
AcDbSpline
 70
8
 71
3
 72
8
 73
4
 74
0
 40
0
 40
0
 40
0
 40
0
 40
1
 40
1
 40
1
 40
1
 10
76.683231
 20
145.739111
 30
0.0
 10
76.583992
 20
145.838349
 30
0.0
 10
76.449395
 20
145.894101
 30
0.0
 10
76.309050
 20
145.894100
 30
0.0
  0
LINE
  5
191
100
AcDbEntity
  8
Layer_1
 62
2
100
AcDbLine
 10
76.309050
 20
145.894100
 30
0.0
 11
67.842000
 21
145.894100
 31
0.0
  0
SPLINE
  5
192
100
AcDbEntity
  8
Layer_1
 62
2
100
AcDbSpline
 70
8
 71
3
 72
8
 73
4
 74
0
 40
0
 40
0
 40
0
 40
0
 40
1
 40
1
 40
1
 40
1
 10
67.842000
 20
145.894100
 30
0.0
 10
67.701655
 20
145.894099
 30
0.0
 10
67.567058
 20
145.949851
 30
0.0
 10
67.467819
 20
146.049089
 30
0.0
  0
SPLINE
  5
193
100
AcDbEntity
  8
Layer_1
 62
2
100
AcDbSpline
 70
8
 71
3
 72
8
 73
4
 74
0
 40
0
 40
0
 40
0
 40
0
 40
1
 40
1
 40
1
 40
1
 10
67.467819
 20
146.049089
 30
0.0
 10
67.368581
 20
146.148328
 30
0.0
 10
67.312829
 20
146.282925
 30
0.0
 10
67.312830
 20
146.423270
 30
0.0
  0
LINE
  5
194
100
AcDbEntity
  8
Layer_1
 62
2
100
AcDbLine
 10
67.312830
 20
146.423270
 30
0.0
 11
67.312830
 21
164.415720
 31
0.0
  0
SPLINE
  5
195
100
AcDbEntity
  8
Layer_1
 62
2
100
AcDbSpline
 70
8
 71
3
 72
8
 73
4
 74
0
 40
0
 40
0
 40
0
 40
0
 40
1
 40
1
 40
1
 40
1
 10
67.312830
 20
164.415720
 30
0.0
 10
67.312831
 20
164.556065
 30
0.0
 10
67.257079
 20
164.690662
 30
0.0
 10
67.157841
 20
164.789901
 30
0.0
  0
SPLINE
  5
196
100
AcDbEntity
  8
Layer_1
 62
2
100
AcDbSpline
 70
8
 71
3
 72
8
 73
4
 74
0
 40
0
 40
0
 40
0
 40
0
 40
1
 40
1
 40
1
 40
1
 10
67.157841
 20
164.789901
 30
0.0
 10
67.058602
 20
164.889139
 30
0.0
 10
66.924005
 20
164.944891
 30
0.0
 10
66.783660
 20
164.944890
 30
0.0
  0
LINE
  5
197
100
AcDbEntity
  8
Layer_1
 62
2
100
AcDbLine
 10
66.783660
 20
164.944890
 30
0.0
 11
63.078330
 21
164.944890
 31
0.0
  0
SPLINE
  5
198
100
AcDbEntity
  8
Layer_1
 62
2
100
AcDbSpline
 70
8
 71
3
 72
8
 73
4
 74
0
 40
0
 40
0
 40
0
 40
0
 40
1
 40
1
 40
1
 40
1
 10
63.078330
 20
164.944890
 30
0.0
 10
62.937985
 20
164.944889
 30
0.0
 10
62.803388
 20
165.000641
 30
0.0
 10
62.704149
 20
165.099879
 30
0.0
  0
SPLINE
  5
199
100
AcDbEntity
  8
Layer_1
 62
2
100
AcDbSpline
 70
8
 71
3
 72
8
 73
4
 74
0
 40
0
 40
0
 40
0
 40
0
 40
1
 40
1
 40
1
 40
1
 10
62.704149
 20
165.099879
 30
0.0
 10
62.604911
 20
165.199118
 30
0.0
 10
62.549159
 20
165.333715
 30
0.0
 10
62.549160
 20
165.474060
 30
0.0
  0
LINE
  5
19a
100
AcDbEntity
  8
Layer_1
 62
2
100
AcDbLine
 10
62.549160
 20
165.474060
 30
0.0
 11
62.549160
 21
183.466500
 31
0.0
  0
SPLINE
  5
19b
100
AcDbEntity
  8
Layer_1
 62
2
100
AcDbSpline
 70
8
 71
3
 72
8
 73
4
 74
0
 40
0
 40
0
 40
0
 40
0
 40
1
 40
1
 40
1
 40
1
 10
62.549160
 20
183.466500
 30
0.0
 10
62.549161
 20
183.606845
 30
0.0
 10
62.493409
 20
183.741442
 30
0.0
 10
62.394171
 20
183.840681
 30
0.0
  0
SPLINE
  5
19c
100
AcDbEntity
  8
Layer_1
 62
2
100
AcDbSpline
 70
8
 71
3
 72
8
 73
4
 74
0
 40
0
 40
0
 40
0
 40
0
 40
1
 40
1
 40
1
 40
1
 10
62.394171
 20
183.840681
 30
0.0
 10
62.294932
 20
183.939919
 30
0.0
 10
62.160335
 20
183.995671
 30
0.0
 10
62.019990
 20
183.995670
 30
0.0
  0
LINE
  5
19d
100
AcDbEntity
  8
Layer_1
 62
2
100
AcDbLine
 10
62.019990
 20
183.995670
 30
0.0
 11
60.552930
 21
183.995670
 31
0.0
  0
SPLINE
  5
19e
100
AcDbEntity
  8
Layer_1
 62
2
100
AcDbSpline
 70
8
 71
3
 72
8
 73
4
 74
0
 40
0
 40
0
 40
0
 40
0
 40
1
 40
1
 40
1
 40
1
 10
60.552930
 20
183.995670
 30
0.0
 10
60.260680
 20
183.995670
 30
0.0
 10
60.023860
 20
184.232590
 30
0.0
 10
60.024030
 20
184.524840
 30
0.0
  0
SPLINE
  5
19f
100
AcDbEntity
  8
Layer_1
 62
2
100
AcDbSpline
 70
8
 71
3
 72
8
 73
4
 74
0
 40
0
 40
0
 40
0
 40
0
 40
1
 40
1
 40
1
 40
1
 10
60.024030
 20
184.524840
 30
0.0
 10
60.024600
 20
185.506690
 30
0.0
 10
60.025030
 20
186.488550
 30
0.0
 10
60.026030
 20
187.470400
 30
0.0
  0
SPLINE
  5
1a0
100
AcDbEntity
  8
Layer_1
 62
2
100
AcDbSpline
 70
8
 71
3
 72
8
 73
4
 74
0
 40
0
 40
0
 40
0
 40
0
 40
1
 40
1
 40
1
 40
1
 10
60.026030
 20
187.470400
 30
0.0
 10
60.026100
 20
187.762650
 30
0.0
 10
59.789180
 20
187.999570
 30
0.0
 10
59.496930
 20
187.999570
 30
0.0
  0
LINE
  5
1a1
100
AcDbEntity
  8
Layer_1
 62
2
100
AcDbLine
 10
59.496930
 20
187.999570
 30
0.0
 11
24.088470
 21
187.999570
 31
0.0
  0
SPLINE
  5
1a2
100
AcDbEntity
  8
Layer_1
 62
2
100
AcDbSpline
 70
8
 71
3
 72
8
 73
4
 74
0
 40
0
 40
0
 40
0
 40
0
 40
1
 40
1
 40
1
 40
1
 10
24.088470
 20
187.999570
 30
0.0
 10
23.948125
 20
187.999571
 30
0.0
 10
23.813528
 20
187.943819
 30
0.0
 10
23.714289
 20
187.844581
 30
0.0
  0
SPLINE
  5
1a3
100
AcDbEntity
  8
Layer_1
 62
2
100
AcDbSpline
 70
8
 71
3
 72
8
 73
4
 74
0
 40
0
 40
0
 40
0
 40
0
 40
1
 40
1
 40
1
 40
1
 10
23.714289
 20
187.844581
 30
0.0
 10
23.615051
 20
187.745342
 30
0.0
 10
23.559299
 20
187.610745
 30
0.0
 10
23.559300
 20
187.470400
 30
0.0
  0
LINE
  5
1a4
100
AcDbEntity
  8
Layer_1
 62
2
100
AcDbLine
 10
23.559300
 20
187.470400
 30
0.0
 11
23.559300
 21
184.538510
 31
0.0
  0
SPLINE
  5
1a5
100
AcDbEntity
  8
Layer_1
 62
2
100
AcDbSpline
 70
8
 71
3
 72
8
 73
4
 74
0
 40
0
 40
0
 40
0
 40
0
 40
1
 40
1
 40
1
 40
1
 10
23.559300
 20
184.538510
 30
0.0
 10
23.559300
 20
184.246260
 30
0.0
 10
23.322380
 20
184.008850
 30
0.0
 10
23.030130
 20
184.008270
 30
0.0
  0
SPLINE
  5
1a6
100
AcDbEntity
  8
Layer_1
 62
2
100
AcDbSpline
 70
8
 71
3
 72
8
 73
4
 74
0
 40
0
 40
0
 40
0
 40
0
 40
1
 40
1
 40
1
 40
1
 10
23.030130
 20
184.008270
 30
0.0
 10
11.720170
 20
183.985870
 30
0.0
 10
0.410160
 20
183.997870
 30
0.0
 10
-10.899820
 20
183.993970
 30
0.0
  0
SPLINE
  5
1a7
100
AcDbEntity
  8
Layer_1
 62
2
100
AcDbSpline
 70
8
 71
3
 72
8
 73
4
 74
0
 40
0
 40
0
 40
0
 40
0
 40
1
 40
1
 40
1
 40
1
 10
-10.899820
 20
183.993970
 30
0.0
 10
-11.192070
 20
183.993860
 30
0.0
 10
-11.429080
 20
184.230690
 30
0.0
 10
-11.429250
 20
184.522940
 30
0.0
  0
SPLINE
  5
1a8
100
AcDbEntity
  8
Layer_1
 62
2
100
AcDbSpline
 70
8
 71
3
 72
8
 73
4
 74
0
 40
0
 40
0
 40
0
 40
0
 40
1
 40
1
 40
1
 40
1
 10
-11.429250
 20
184.522940
 30
0.0
 10
-11.429820
 20
185.505450
 30
0.0
 10
-11.430250
 20
186.487960
 30
0.0
 10
-11.431250
 20
187.470460
 30
0.0
  0
SPLINE
  5
1a9
100
AcDbEntity
  8
Layer_1
 62
2
100
AcDbSpline
 70
8
 71
3
 72
8
 73
4
 74
0
 40
0
 40
0
 40
0
 40
0
 40
1
 40
1
 40
1
 40
1
 10
-11.431250
 20
187.470460
 30
0.0
 10
-11.431320
 20
187.762710
 30
0.0
 10
-11.668240
 20
187.999620
 30
0.0
 10
-11.960490
 20
187.999600
 30
0.0
  0
LINE
  5
1aa
100
AcDbEntity
  8
Layer_1
 62
2
100
AcDbLine
 10
-11.960490
 20
187.999600
 30
0.0
 11
-45.799560
 21
187.997600
 31
0.0
  0
SPLINE
  5
1ab
100
AcDbEntity
  8
Layer_1
 62
2
100
AcDbSpline
 70
8
 71
3
 72
8
 73
4
 74
0
 40
0
 40
0
 40
0
 40
0
 40
1
 40
1
 40
1
 40
1
 10
-45.799560
 20
187.997600
 30
0.0
 10
-45.939898
 20
187.997593
 30
0.0
 10
-46.074485
 20
187.941832
 30
0.0
 10
-46.173707
 20
187.842585
 30
0.0
  0
SPLINE
  5
1ac
100
AcDbEntity
  8
Layer_1
 62
2
100
AcDbSpline
 70
8
 71
3
 72
8
 73
4
 74
0
 40
0
 40
0
 40
0
 40
0
 40
1
 40
1
 40
1
 40
1
 10
-46.173707
 20
187.842585
 30
0.0
 10
-46.272929
 20
187.743339
 30
0.0
 10
-46.328657
 20
187.608738
 30
0.0
 10
-46.328630
 20
187.468400
 30
0.0
  0
LINE
  5
1ad
100
AcDbEntity
  8
Layer_1
 62
2
100
AcDbLine
 10
-46.328630
 20
187.468400
 30
0.0
 11
-46.328070
 21
184.524930
 31
0.0
  0
SPLINE
  5
1ae
100
AcDbEntity
  8
Layer_1
 62
2
100
AcDbSpline
 70
8
 71
3
 72
8
 73
4
 74
0
 40
0
 40
0
 40
0
 40
0
 40
1
 40
1
 40
1
 40
1
 10
-46.328070
 20
184.524930
 30
0.0
 10
-46.328042
 20
184.384594
 30
0.0
 10
-46.383772
 20
184.249997
 30
0.0
 10
-46.482995
 20
184.150755
 30
0.0
  0
SPLINE
  5
1af
100
AcDbEntity
  8
Layer_1
 62
2
100
AcDbSpline
 70
8
 71
3
 72
8
 73
4
 74
0
 40
0
 40
0
 40
0
 40
0
 40
1
 40
1
 40
1
 40
1
 10
-46.482995
 20
184.150755
 30
0.0
 10
-46.582218
 20
184.051514
 30
0.0
 10
-46.716804
 20
183.995759
 30
0.0
 10
-46.857140
 20
183.995760
 30
0.0
  0
LINE
  5
1b0
100
AcDbEntity
  8
Layer_1
 62
2
100
AcDbLine
 10
-46.857140
 20
183.995760
 30
0.0
 11
-46.858760
 21
183.995790
 31
0.0
  0
LINE
  5
1b1
100
AcDbEntity
  8
Layer_1
 62
2
100
AcDbLine
 10
101.378360
 20
186.941230
 30
0.0
 11
101.378360
 21
184.523000
 31
0.0
  0
SPLINE
  5
1b2
100
AcDbEntity
  8
Layer_1
 62
2
100
AcDbSpline
 70
8
 71
3
 72
8
 73
4
 74
0
 40
0
 40
0
 40
0
 40
0
 40
1
 40
1
 40
1
 40
1
 10
101.378360
 20
184.523000
 30
0.0
 10
101.378360
 20
184.230750
 30
0.0
 10
101.141440
 20
183.994010
 30
0.0
 10
100.849190
 20
183.994300
 30
0.0
  0
SPLINE
  5
1b3
100
AcDbEntity
  8
Layer_1
 62
2
100
AcDbSpline
 70
8
 71
3
 72
8
 73
4
 74
0
 40
0
 40
0
 40
0
 40
0
 40
1
 40
1
 40
1
 40
1
 10
100.849190
 20
183.994300
 30
0.0
 10
100.360170
 20
183.994800
 30
0.0
 10
99.871150
 20
183.995300
 30
0.0
 10
99.382140
 20
183.995300
 30
0.0
  0
SPLINE
  5
1b4
100
AcDbEntity
  8
Layer_1
 62
2
100
AcDbSpline
 70
8
 71
3
 72
8
 73
4
 74
0
 40
0
 40
0
 40
0
 40
0
 40
1
 40
1
 40
1
 40
1
 10
99.382140
 20
183.995300
 30
0.0
 10
99.089890
 20
183.995470
 30
0.0
 10
98.852970
 20
183.758540
 30
0.0
 10
98.852970
 20
183.466290
 30
0.0
  0
LINE
  5
1b5
100
AcDbEntity
  8
Layer_1
 62
2
100
AcDbLine
 10
98.852970
 20
183.466290
 30
0.0
 11
98.852970
 21
164.413300
 31
0.0
  0
SPLINE
  5
1b6
100
AcDbEntity
  8
Layer_1
 62
2
100
AcDbSpline
 70
8
 71
3
 72
8
 73
4
 74
0
 40
0
 40
0
 40
0
 40
0
 40
1
 40
1
 40
1
 40
1
 10
98.852970
 20
164.413300
 30
0.0
 10
98.852969
 20
164.272955
 30
0.0
 10
98.908721
 20
164.138358
 30
0.0
 10
99.007959
 20
164.039119
 30
0.0
  0
SPLINE
  5
1b7
100
AcDbEntity
  8
Layer_1
 62
2
100
AcDbSpline
 70
8
 71
3
 72
8
 73
4
 74
0
 40
0
 40
0
 40
0
 40
0
 40
1
 40
1
 40
1
 40
1
 10
99.007959
 20
164.039119
 30
0.0
 10
99.107198
 20
163.939881
 30
0.0
 10
99.241795
 20
163.884129
 30
0.0
 10
99.382140
 20
163.884130
 30
0.0
  0
LINE
  5
1b8
100
AcDbEntity
  8
Layer_1
 62
2
100
AcDbLine
 10
99.382140
 20
163.884130
 30
0.0
 11
103.085520
 21
163.884130
 31
0.0
  0
SPLINE
  5
1b9
100
AcDbEntity
  8
Layer_1
 62
2
100
AcDbSpline
 70
8
 71
3
 72
8
 73
4
 74
0
 40
0
 40
0
 40
0
 40
0
 40
1
 40
1
 40
1
 40
1
 10
103.085520
 20
163.884130
 30
0.0
 10
103.377770
 20
163.884130
 30
0.0
 10
103.614690
 20
163.647210
 30
0.0
 10
103.614690
 20
163.354960
 30
0.0
  0
SPLINE
  5
1ba
100
AcDbEntity
  8
Layer_1
 62
2
100
AcDbSpline
 70
8
 71
3
 72
8
 73
4
 74
0
 40
0
 40
0
 40
0
 40
0
 40
1
 40
1
 40
1
 40
1
 10
103.614690
 20
163.354960
 30
0.0
 10
103.614680
 20
157.357480
 30
0.0
 10
103.614690
 20
151.360000
 30
0.0
 10
103.614690
 20
145.362520
 30
0.0
  0
SPLINE
  5
1bb
100
AcDbEntity
  8
Layer_1
 62
2
100
AcDbSpline
 70
8
 71
3
 72
8
 73
4
 74
0
 40
0
 40
0
 40
0
 40
0
 40
1
 40
1
 40
1
 40
1
 10
103.614690
 20
145.362520
 30
0.0
 10
103.614690
 20
145.070270
 30
0.0
 10
103.851610
 20
144.833350
 30
0.0
 10
104.143860
 20
144.833350
 30
0.0
  0
LINE
  5
1bc
100
AcDbEntity
  8
Layer_1
 62
2
100
AcDbLine
 10
104.143860
 20
144.833350
 30
0.0
 11
112.610910
 21
144.833350
 31
0.0
  0
SPLINE
  5
1bd
100
AcDbEntity
  8
Layer_1
 62
2
100
AcDbSpline
 70
8
 71
3
 72
8
 73
4
 74
0
 40
0
 40
0
 40
0
 40
0
 40
1
 40
1
 40
1
 40
1
 10
112.610910
 20
144.833350
 30
0.0
 10
112.751255
 20
144.833351
 30
0.0
 10
112.885852
 20
144.777599
 30
0.0
 10
112.985091
 20
144.678361
 30
0.0
  0
SPLINE
  5
1be
100
AcDbEntity
  8
Layer_1
 62
2
100
AcDbSpline
 70
8
 71
3
 72
8
 73
4
 74
0
 40
0
 40
0
 40
0
 40
0
 40
1
 40
1
 40
1
 40
1
 10
112.985091
 20
144.678361
 30
0.0
 10
113.084329
 20
144.579122
 30
0.0
 10
113.140081
 20
144.444525
 30
0.0
 10
113.140080
 20
144.304180
 30
0.0
  0
LINE
  5
1bf
100
AcDbEntity
  8
Layer_1
 62
2
100
AcDbLine
 10
113.140080
 20
144.304180
 30
0.0
 11
113.140080
 21
127.374240
 31
0.0
  0
SPLINE
  5
1c0
100
AcDbEntity
  8
Layer_1
 62
2
100
AcDbSpline
 70
8
 71
3
 72
8
 73
4
 74
0
 40
0
 40
0
 40
0
 40
0
 40
1
 40
1
 40
1
 40
1
 10
113.140080
 20
127.374240
 30
0.0
 10
113.140081
 20
127.233895
 30
0.0
 10
113.084329
 20
127.099298
 30
0.0
 10
112.985091
 20
127.000059
 30
0.0
  0
SPLINE
  5
1c1
100
AcDbEntity
  8
Layer_1
 62
2
100
AcDbSpline
 70
8
 71
3
 72
8
 73
4
 74
0
 40
0
 40
0
 40
0
 40
0
 40
1
 40
1
 40
1
 40
1
 10
112.985091
 20
127.000059
 30
0.0
 10
112.885852
 20
126.900821
 30
0.0
 10
112.751255
 20
126.845069
 30
0.0
 10
112.610910
 20
126.845070
 30
0.0
  0
LINE
  5
1c2
100
AcDbEntity
  8
Layer_1
 62
2
100
AcDbLine
 10
112.610910
 20
126.845070
 30
0.0
 11
104.143860
 21
126.845070
 31
0.0
  0
SPLINE
  5
1c3
100
AcDbEntity
  8
Layer_1
 62
2
100
AcDbSpline
 70
8
 71
3
 72
8
 73
4
 74
0
 40
0
 40
0
 40
0
 40
0
 40
1
 40
1
 40
1
 40
1
 10
104.143860
 20
126.845070
 30
0.0
 10
103.851610
 20
126.845070
 30
0.0
 10
103.614690
 20
126.608150
 30
0.0
 10
103.614690
 20
126.315900
 30
0.0
  0
SPLINE
  5
1c4
100
AcDbEntity
  8
Layer_1
 62
2
100
AcDbSpline
 70
8
 71
3
 72
8
 73
4
 74
0
 40
0
 40
0
 40
0
 40
0
 40
1
 40
1
 40
1
 40
1
 10
103.614690
 20
126.315900
 30
0.0
 10
103.614690
 20
119.964900
 30
0.0
 10
103.614680
 20
113.613900
 30
0.0
 10
103.614690
 20
107.262910
 30
0.0
  0
SPLINE
  5
1c5
100
AcDbEntity
  8
Layer_1
 62
2
100
AcDbSpline
 70
8
 71
3
 72
8
 73
4
 74
0
 40
0
 40
0
 40
0
 40
0
 40
1
 40
1
 40
1
 40
1
 10
103.614690
 20
107.262910
 30
0.0
 10
103.614690
 20
106.970660
 30
0.0
 10
103.851610
 20
106.733740
 30
0.0
 10
104.143860
 20
106.733740
 30
0.0
  0
LINE
  5
1c6
100
AcDbEntity
  8
Layer_1
 62
2
100
AcDbLine
 10
104.143860
 20
106.733740
 30
0.0
 11
108.091370
 21
106.733740
 31
0.0
  0
SPLINE
  5
1c7
100
AcDbEntity
  8
Layer_1
 62
2
100
AcDbSpline
 70
8
 71
3
 72
8
 73
4
 74
0
 40
0
 40
0
 40
0
 40
0
 40
1
 40
1
 40
1
 40
1
 10
108.091370
 20
106.733740
 30
0.0
 10
108.231715
 20
106.733741
 30
0.0
 10
108.366312
 20
106.677989
 30
0.0
 10
108.465551
 20
106.578751
 30
0.0
  0
SPLINE
  5
1c8
100
AcDbEntity
  8
Layer_1
 62
2
100
AcDbSpline
 70
8
 71
3
 72
8
 73
4
 74
0
 40
0
 40
0
 40
0
 40
0
 40
1
 40
1
 40
1
 40
1
 10
108.465551
 20
106.578751
 30
0.0
 10
108.564789
 20
106.479512
 30
0.0
 10
108.620541
 20
106.344915
 30
0.0
 10
108.620540
 20
106.204570
 30
0.0
  0
LINE
  5
1c9
100
AcDbEntity
  8
Layer_1
 62
2
100
AcDbLine
 10
108.620540
 20
106.204570
 30
0.0
 11
108.620540
 21
103.259000
 31
0.0
  0
SPLINE
  5
1ca
100
AcDbEntity
  8
Layer_1
 62
2
100
AcDbSpline
 70
8
 71
3
 72
8
 73
4
 74
0
 40
0
 40
0
 40
0
 40
0
 40
1
 40
1
 40
1
 40
1
 10
108.620540
 20
103.259000
 30
0.0
 10
108.620539
 20
103.118655
 30
0.0
 10
108.676291
 20
102.984058
 30
0.0
 10
108.775529
 20
102.884819
 30
0.0
  0
SPLINE
  5
1cb
100
AcDbEntity
  8
Layer_1
 62
2
100
AcDbSpline
 70
8
 71
3
 72
8
 73
4
 74
0
 40
0
 40
0
 40
0
 40
0
 40
1
 40
1
 40
1
 40
1
 10
108.775529
 20
102.884819
 30
0.0
 10
108.874768
 20
102.785581
 30
0.0
 10
109.009365
 20
102.729829
 30
0.0
 10
109.149710
 20
102.729830
 30
0.0
  0
LINE
  5
1cc
100
AcDbEntity
  8
Layer_1
 62
2
100
AcDbLine
 10
109.149710
 20
102.729830
 30
0.0
 11
144.558170
 21
102.729830
 31
0.0
  0
SPLINE
  5
1cd
100
AcDbEntity
  8
Layer_1
 62
2
100
AcDbSpline
 70
8
 71
3
 72
8
 73
4
 74
0
 40
0
 40
0
 40
0
 40
0
 40
1
 40
1
 40
1
 40
1
 10
144.558170
 20
102.729830
 30
0.0
 10
144.850420
 20
102.729830
 30
0.0
 10
145.087330
 20
102.966750
 30
0.0
 10
145.087260
 20
103.259000
 30
0.0
  0
SPLINE
  5
1ce
100
AcDbEntity
  8
Layer_1
 62
2
100
AcDbSpline
 70
8
 71
3
 72
8
 73
4
 74
0
 40
0
 40
0
 40
0
 40
0
 40
1
 40
1
 40
1
 40
1
 10
145.087260
 20
103.259000
 30
0.0
 10
145.087040
 20
104.239550
 30
0.0
 10
145.086440
 20
105.220110
 30
0.0
 10
145.085260
 20
106.200660
 30
0.0
  0
SPLINE
  5
1cf
100
AcDbEntity
  8
Layer_1
 62
2
100
AcDbSpline
 70
8
 71
3
 72
8
 73
4
 74
0
 40
0
 40
0
 40
0
 40
0
 40
1
 40
1
 40
1
 40
1
 10
145.085260
 20
106.200660
 30
0.0
 10
145.085050
 20
106.492910
 30
0.0
 10
145.321790
 20
106.729850
 30
0.0
 10
145.614040
 20
106.729870
 30
0.0
  0
SPLINE
  5
1d0
100
AcDbEntity
  8
Layer_1
 62
2
100
AcDbSpline
 70
8
 71
3
 72
8
 73
4
 74
0
 40
0
 40
0
 40
0
 40
0
 40
1
 40
1
 40
1
 40
1
 10
145.614040
 20
106.729870
 30
0.0
 10
160.196800
 20
106.730870
 30
0.0
 10
174.779590
 20
106.743970
 30
0.0
 10
189.362350
 20
106.724870
 30
0.0
  0
SPLINE
  5
1d1
100
AcDbEntity
  8
Layer_1
 62
2
100
AcDbSpline
 70
8
 71
3
 72
8
 73
4
 74
0
 40
0
 40
0
 40
0
 40
0
 40
1
 40
1
 40
1
 40
1
 10
189.362350
 20
106.724870
 30
0.0
 10
189.654600
 20
106.724480
 30
0.0
 10
189.891510
 20
106.487230
 30
0.0
 10
189.891510
 20
106.194980
 30
0.0
  0
LINE
  5
1d2
100
AcDbEntity
  8
Layer_1
 62
2
100
AcDbLine
 10
189.891510
 20
106.194980
 30
0.0
 11
189.891510
 21
103.259180
 31
0.0
  0
SPLINE
  5
1d3
100
AcDbEntity
  8
Layer_1
 62
2
100
AcDbSpline
 70
8
 71
3
 72
8
 73
4
 74
0
 40
0
 40
0
 40
0
 40
0
 40
1
 40
1
 40
1
 40
1
 10
189.891510
 20
103.259180
 30
0.0
 10
189.891509
 20
103.118835
 30
0.0
 10
189.947261
 20
102.984238
 30
0.0
 10
190.046499
 20
102.884999
 30
0.0
  0
SPLINE
  5
1d4
100
AcDbEntity
  8
Layer_1
 62
2
100
AcDbSpline
 70
8
 71
3
 72
8
 73
4
 74
0
 40
0
 40
0
 40
0
 40
0
 40
1
 40
1
 40
1
 40
1
 10
190.046499
 20
102.884999
 30
0.0
 10
190.145738
 20
102.785761
 30
0.0
 10
190.280335
 20
102.730009
 30
0.0
 10
190.420680
 20
102.730010
 30
0.0
  0
LINE
  5
1d5
100
AcDbEntity
  8
Layer_1
 62
2
100
AcDbLine
 10
190.420680
 20
102.730010
 30
0.0
 11
221.504920
 21
102.730010
 31
0.0
  0
SPLINE
  5
1d6
100
AcDbEntity
  8
Layer_1
 62
2
100
AcDbSpline
 70
8
 71
3
 72
8
 73
4
 74
0
 40
0
 40
0
 40
0
 40
0
 40
1
 40
1
 40
1
 40
1
 10
221.504920
 20
102.730010
 30
0.0
 10
221.797170
 20
102.730010
 30
0.0
 10
222.034100
 20
102.966930
 30
0.0
 10
222.034170
 20
103.259180
 30
0.0
  0
SPLINE
  5
1d7
100
AcDbEntity
  8
Layer_1
 62
2
100
AcDbSpline
 70
8
 71
3
 72
8
 73
4
 74
0
 40
0
 40
0
 40
0
 40
0
 40
1
 40
1
 40
1
 40
1
 10
222.034170
 20
103.259180
 30
0.0
 10
222.034390
 20
104.241040
 30
0.0
 10
222.034990
 20
105.222890
 30
0.0
 10
222.036170
 20
106.204750
 30
0.0
  0
SPLINE
  5
1d8
100
AcDbEntity
  8
Layer_1
 62
2
100
AcDbSpline
 70
8
 71
3
 72
8
 73
4
 74
0
 40
0
 40
0
 40
0
 40
0
 40
1
 40
1
 40
1
 40
1
 10
222.036170
 20
106.204750
 30
0.0
 10
222.036380
 20
106.497000
 30
0.0
 10
222.273480
 20
106.733920
 30
0.0
 10
222.565730
 20
106.733920
 30
0.0
  0
LINE
  5
1d9
100
AcDbEntity
  8
Layer_1
 62
2
100
AcDbLine
 10
222.565730
 20
106.733920
 30
0.0
 11
227.980050
 21
106.733920
 31
0.0
  0
SPLINE
  5
1da
100
AcDbEntity
  8
Layer_1
 62
2
100
AcDbSpline
 70
8
 71
3
 72
8
 73
4
 74
0
 40
0
 40
0
 40
0
 40
0
 40
1
 40
1
 40
1
 40
1
 10
227.980050
 20
106.733920
 30
0.0
 10
228.272300
 20
106.733920
 30
0.0
 10
228.509240
 20
106.970840
 30
0.0
 10
228.509260
 20
107.263090
 30
0.0
  0
SPLINE
  5
1db
100
AcDbEntity
  8
Layer_1
 62
2
100
AcDbSpline
 70
8
 71
3
 72
8
 73
4
 74
0
 40
0
 40
0
 40
0
 40
0
 40
1
 40
1
 40
1
 40
1
 10
228.509260
 20
107.263090
 30
0.0
 10
228.511260
 20
132.663200
 30
0.0
 10
228.512260
 20
158.064170
 30
0.0
 10
228.511260
 20
183.466470
 30
0.0
  0
SPLINE
  5
1dc
100
AcDbEntity
  8
Layer_1
 62
2
100
AcDbSpline
 70
8
 71
3
 72
8
 73
4
 74
0
 40
0
 40
0
 40
0
 40
0
 40
1
 40
1
 40
1
 40
1
 10
228.511260
 20
183.466470
 30
0.0
 10
228.511250
 20
183.758720
 30
0.0
 10
228.274320
 20
183.995640
 30
0.0
 10
227.982070
 20
183.995640
 30
0.0
  0
LINE
  5
1dd
100
AcDbEntity
  8
Layer_1
 62
2
100
AcDbLine
 10
227.982070
 20
183.995640
 30
0.0
 11
222.563850
 21
183.995640
 31
0.0
  0
SPLINE
  5
1de
100
AcDbEntity
  8
Layer_1
 62
2
100
AcDbSpline
 70
8
 71
3
 72
8
 73
4
 74
0
 40
0
 40
0
 40
0
 40
0
 40
1
 40
1
 40
1
 40
1
 10
222.563850
 20
183.995640
 30
0.0
 10
222.423505
 20
183.995639
 30
0.0
 10
222.288908
 20
184.051391
 30
0.0
 10
222.189669
 20
184.150629
 30
0.0
  0
SPLINE
  5
1df
100
AcDbEntity
  8
Layer_1
 62
2
100
AcDbSpline
 70
8
 71
3
 72
8
 73
4
 74
0
 40
0
 40
0
 40
0
 40
0
 40
1
 40
1
 40
1
 40
1
 10
222.189669
 20
184.150629
 30
0.0
 10
222.090431
 20
184.249868
 30
0.0
 10
222.034679
 20
184.384465
 30
0.0
 10
222.034680
 20
184.524810
 30
0.0
  0
LINE
  5
1e0
100
AcDbEntity
  8
Layer_1
 62
2
100
AcDbLine
 10
222.034680
 20
184.524810
 30
0.0
 11
222.034680
 21
187.470370
 31
0.0
  0
SPLINE
  5
1e1
100
AcDbEntity
  8
Layer_1
 62
2
100
AcDbSpline
 70
8
 71
3
 72
8
 73
4
 74
0
 40
0
 40
0
 40
0
 40
0
 40
1
 40
1
 40
1
 40
1
 10
222.034680
 20
187.470370
 30
0.0
 10
222.034681
 20
187.610715
 30
0.0
 10
221.978929
 20
187.745312
 30
0.0
 10
221.879691
 20
187.844551
 30
0.0
  0
SPLINE
  5
1e2
100
AcDbEntity
  8
Layer_1
 62
2
100
AcDbSpline
 70
8
 71
3
 72
8
 73
4
 74
0
 40
0
 40
0
 40
0
 40
0
 40
1
 40
1
 40
1
 40
1
 10
221.879691
 20
187.844551
 30
0.0
 10
221.780452
 20
187.943789
 30
0.0
 10
221.645855
 20
187.999541
 30
0.0
 10
221.505510
 20
187.999540
 30
0.0
  0
LINE
  5
1e3
100
AcDbEntity
  8
Layer_1
 62
2
100
AcDbLine
 10
221.505510
 20
187.999540
 30
0.0
 11
190.421270
 21
187.999540
 31
0.0
  0
SPLINE
  5
1e4
100
AcDbEntity
  8
Layer_1
 62
2
100
AcDbSpline
 70
8
 71
3
 72
8
 73
4
 74
0
 40
0
 40
0
 40
0
 40
0
 40
1
 40
1
 40
1
 40
1
 10
190.421270
 20
187.999540
 30
0.0
 10
190.280925
 20
187.999541
 30
0.0
 10
190.146328
 20
187.943789
 30
0.0
 10
190.047089
 20
187.844551
 30
0.0
  0
SPLINE
  5
1e5
100
AcDbEntity
  8
Layer_1
 62
2
100
AcDbSpline
 70
8
 71
3
 72
8
 73
4
 74
0
 40
0
 40
0
 40
0
 40
0
 40
1
 40
1
 40
1
 40
1
 10
190.047089
 20
187.844551
 30
0.0
 10
189.947851
 20
187.745312
 30
0.0
 10
189.892099
 20
187.610715
 30
0.0
 10
189.892100
 20
187.470370
 30
0.0
  0
LINE
  5
1e6
100
AcDbEntity
  8
Layer_1
 62
2
100
AcDbLine
 10
189.892100
 20
187.470370
 30
0.0
 11
189.892100
 21
184.522850
 31
0.0
  0
SPLINE
  5
1e7
100
AcDbEntity
  8
Layer_1
 62
2
100
AcDbSpline
 70
8
 71
3
 72
8
 73
4
 74
0
 40
0
 40
0
 40
0
 40
0
 40
1
 40
1
 40
1
 40
1
 10
189.892100
 20
184.522850
 30
0.0
 10
189.892100
 20
184.230600
 30
0.0
 10
189.655180
 20
183.993690
 30
0.0
 10
189.362930
 20
183.993710
 30
0.0
  0
SPLINE
  5
1e8
100
AcDbEntity
  8
Layer_1
 62
2
100
AcDbSpline
 70
8
 71
3
 72
8
 73
4
 74
0
 40
0
 40
0
 40
0
 40
0
 40
1
 40
1
 40
1
 40
1
 10
189.362930
 20
183.993710
 30
0.0
 10
172.365450
 20
183.994540
 30
0.0
 10
155.367970
 20
183.995710
 30
0.0
 10
138.370490
 20
183.995710
 30
0.0
  0
SPLINE
  5
1e9
100
AcDbEntity
  8
Layer_1
 62
2
100
AcDbSpline
 70
8
 71
3
 72
8
 73
4
 74
0
 40
0
 40
0
 40
0
 40
0
 40
1
 40
1
 40
1
 40
1
 10
138.370490
 20
183.995710
 30
0.0
 10
138.078240
 20
183.995710
 30
0.0
 10
137.841420
 20
184.232630
 30
0.0
 10
137.841590
 20
184.524880
 30
0.0
  0
SPLINE
  5
1ea
100
AcDbEntity
  8
Layer_1
 62
2
100
AcDbSpline
 70
8
 71
3
 72
8
 73
4
 74
0
 40
0
 40
0
 40
0
 40
0
 40
1
 40
1
 40
1
 40
1
 10
137.841590
 20
184.524880
 30
0.0
 10
137.842160
 20
185.506730
 30
0.0
 10
137.842590
 20
186.488590
 30
0.0
 10
137.843590
 20
187.470440
 30
0.0
  0
SPLINE
  5
1eb
100
AcDbEntity
  8
Layer_1
 62
2
100
AcDbSpline
 70
8
 71
3
 72
8
 73
4
 74
0
 40
0
 40
0
 40
0
 40
0
 40
1
 40
1
 40
1
 40
1
 10
137.843590
 20
187.470440
 30
0.0
 10
137.843660
 20
187.762690
 30
0.0
 10
137.606740
 20
187.999610
 30
0.0
 10
137.314490
 20
187.999610
 30
0.0
  0
LINE
  5
1ec
100
AcDbEntity
  8
Layer_1
 62
2
100
AcDbLine
 10
137.314490
 20
187.999610
 30
0.0
 11
101.907990
 21
187.999610
 31
0.0
  0
SPLINE
  5
1ed
100
AcDbEntity
  8
Layer_1
 62
2
100
AcDbSpline
 70
8
 71
3
 72
8
 73
4
 74
0
 40
0
 40
0
 40
0
 40
0
 40
1
 40
1
 40
1
 40
1
 10
101.907990
 20
187.999610
 30
0.0
 10
101.767645
 20
187.999611
 30
0.0
 10
101.633048
 20
187.943859
 30
0.0
 10
101.533809
 20
187.844621
 30
0.0
  0
SPLINE
  5
1ee
100
AcDbEntity
  8
Layer_1
 62
2
100
AcDbSpline
 70
8
 71
3
 72
8
 73
4
 74
0
 40
0
 40
0
 40
0
 40
0
 40
1
 40
1
 40
1
 40
1
 10
101.533809
 20
187.844621
 30
0.0
 10
101.434571
 20
187.745382
 30
0.0
 10
101.378819
 20
187.610785
 30
0.0
 10
101.378820
 20
187.470440
 30
0.0
  0
LINE
  5
1ef
100
AcDbEntity
  8
Layer_1
 62
2
100
AcDbLine
 10
101.378820
 20
187.470440
 30
0.0
 11
101.378787
 21
187.470382
 31
0.0
  0
LINE
  5
1f0
100
AcDbEntity
  8
Layer_1
 62
2
100
AcDbLine
 10
101.378787
 20
187.470382
 30
0.0
 11
101.378720
 21
187.470380
 31
0.0
  0
LINE
  5
1f1
100
AcDbEntity
  8
Layer_1
 62
2
100
AcDbLine
 10
101.378720
 20
187.470380
 30
0.0
 11
101.378360
 21
186.941230
 31
0.0
  0
SPLINE
  5
1f2
100
AcDbEntity
  8
Layer_1
 62
2
100
AcDbSpline
 70
8
 71
3
 72
8
 73
4
 74
0
 40
0
 40
0
 40
0
 40
0
 40
1
 40
1
 40
1
 40
1
 10
60.191166
 20
194.823580
 30
0.0
 10
59.281126
 20
194.823580
 30
0.0
 10
58.460694
 20
194.275385
 30
0.0
 10
58.112437
 20
193.434618
 30
0.0
  0
SPLINE
  5
1f3
100
AcDbEntity
  8
Layer_1
 62
2
100
AcDbSpline
 70
8
 71
3
 72
8
 73
4
 74
0
 40
0
 40
0
 40
0
 40
0
 40
1
 40
1
 40
1
 40
1
 10
58.112437
 20
193.434618
 30
0.0
 10
57.764180
 20
192.593850
 30
0.0
 10
57.956680
 20
191.626085
 30
0.0
 10
58.600176
 20
190.982590
 30
0.0
  0
SPLINE
  5
1f4
100
AcDbEntity
  8
Layer_1
 62
2
100
AcDbSpline
 70
8
 71
3
 72
8
 73
4
 74
0
 40
0
 40
0
 40
0
 40
0
 40
1
 40
1
 40
1
 40
1
 10
58.600176
 20
190.982590
 30
0.0
 10
59.243671
 20
190.339094
 30
0.0
 10
60.211436
 20
190.146594
 30
0.0
 10
61.052204
 20
190.494851
 30
0.0
  0
SPLINE
  5
1f5
100
AcDbEntity
  8
Layer_1
 62
2
100
AcDbSpline
 70
8
 71
3
 72
8
 73
4
 74
0
 40
0
 40
0
 40
0
 40
0
 40
1
 40
1
 40
1
 40
1
 10
61.052204
 20
190.494851
 30
0.0
 10
61.892971
 20
190.843108
 30
0.0
 10
62.441166
 20
191.663540
 30
0.0
 10
62.441166
 20
192.573580
 30
0.0
  0
SPLINE
  5
1f6
100
AcDbEntity
  8
Layer_1
 62
2
100
AcDbSpline
 70
8
 71
3
 72
8
 73
4
 74
0
 40
0
 40
0
 40
0
 40
0
 40
1
 40
1
 40
1
 40
1
 10
62.441166
 20
192.573580
 30
0.0
 10
62.441166
 20
193.170317
 30
0.0
 10
62.204113
 20
193.742613
 30
0.0
 10
61.782156
 20
194.164570
 30
0.0
  0
SPLINE
  5
1f7
100
AcDbEntity
  8
Layer_1
 62
2
100
AcDbSpline
 70
8
 71
3
 72
8
 73
4
 74
0
 40
0
 40
0
 40
0
 40
0
 40
1
 40
1
 40
1
 40
1
 10
61.782156
 20
194.164570
 30
0.0
 10
61.360199
 20
194.586527
 30
0.0
 10
60.787903
 20
194.823580
 30
0.0
 10
60.191166
 20
194.823580
 30
0.0
  0
LINE
  5
1f8
100
AcDbEntity
  8
Layer_1
 62
2
100
AcDbLine
 10
60.191166
 20
194.823580
 30
0.0
 11
60.191166
 21
194.823580
 31
0.0
  0
SPLINE
  5
1f9
100
AcDbEntity
  8
Layer_1
 62
2
100
AcDbSpline
 70
8
 71
3
 72
8
 73
4
 74
0
 40
0
 40
0
 40
0
 40
0
 40
1
 40
1
 40
1
 40
1
 10
-37.081966
 20
194.823580
 30
0.0
 10
-37.992006
 20
194.823580
 30
0.0
 10
-38.812438
 20
194.275385
 30
0.0
 10
-39.160695
 20
193.434618
 30
0.0
  0
SPLINE
  5
1fa
100
AcDbEntity
  8
Layer_1
 62
2
100
AcDbSpline
 70
8
 71
3
 72
8
 73
4
 74
0
 40
0
 40
0
 40
0
 40
0
 40
1
 40
1
 40
1
 40
1
 10
-39.160695
 20
193.434618
 30
0.0
 10
-39.508952
 20
192.593850
 30
0.0
 10
-39.316452
 20
191.626085
 30
0.0
 10
-38.672956
 20
190.982590
 30
0.0
  0
SPLINE
  5
1fb
100
AcDbEntity
  8
Layer_1
 62
2
100
AcDbSpline
 70
8
 71
3
 72
8
 73
4
 74
0
 40
0
 40
0
 40
0
 40
0
 40
1
 40
1
 40
1
 40
1
 10
-38.672956
 20
190.982590
 30
0.0
 10
-38.029461
 20
190.339094
 30
0.0
 10
-37.061696
 20
190.146594
 30
0.0
 10
-36.220928
 20
190.494851
 30
0.0
  0
SPLINE
  5
1fc
100
AcDbEntity
  8
Layer_1
 62
2
100
AcDbSpline
 70
8
 71
3
 72
8
 73
4
 74
0
 40
0
 40
0
 40
0
 40
0
 40
1
 40
1
 40
1
 40
1
 10
-36.220928
 20
190.494851
 30
0.0
 10
-35.380161
 20
190.843108
 30
0.0
 10
-34.831966
 20
191.663540
 30
0.0
 10
-34.831966
 20
192.573580
 30
0.0
  0
SPLINE
  5
1fd
100
AcDbEntity
  8
Layer_1
 62
2
100
AcDbSpline
 70
8
 71
3
 72
8
 73
4
 74
0
 40
0
 40
0
 40
0
 40
0
 40
1
 40
1
 40
1
 40
1
 10
-34.831966
 20
192.573580
 30
0.0
 10
-34.831966
 20
193.170317
 30
0.0
 10
-35.069019
 20
193.742613
 30
0.0
 10
-35.490976
 20
194.164570
 30
0.0
  0
SPLINE
  5
1fe
100
AcDbEntity
  8
Layer_1
 62
2
100
AcDbSpline
 70
8
 71
3
 72
8
 73
4
 74
0
 40
0
 40
0
 40
0
 40
0
 40
1
 40
1
 40
1
 40
1
 10
-35.490976
 20
194.164570
 30
0.0
 10
-35.912933
 20
194.586527
 30
0.0
 10
-36.485229
 20
194.823580
 30
0.0
 10
-37.081966
 20
194.823580
 30
0.0
  0
LINE
  5
1ff
100
AcDbEntity
  8
Layer_1
 62
2
100
AcDbLine
 10
-37.081966
 20
194.823580
 30
0.0
 11
-37.081966
 21
194.823580
 31
0.0
  0
SPLINE
  5
200
100
AcDbEntity
  8
Layer_1
 62
2
100
AcDbSpline
 70
8
 71
3
 72
8
 73
4
 74
0
 40
0
 40
0
 40
0
 40
0
 40
1
 40
1
 40
1
 40
1
 10
211.830870
 20
194.823580
 30
0.0
 10
210.920830
 20
194.823580
 30
0.0
 10
210.100398
 20
194.275385
 30
0.0
 10
209.752141
 20
193.434618
 30
0.0
  0
SPLINE
  5
201
100
AcDbEntity
  8
Layer_1
 62
2
100
AcDbSpline
 70
8
 71
3
 72
8
 73
4
 74
0
 40
0
 40
0
 40
0
 40
0
 40
1
 40
1
 40
1
 40
1
 10
209.752141
 20
193.434618
 30
0.0
 10
209.403884
 20
192.593850
 30
0.0
 10
209.596384
 20
191.626085
 30
0.0
 10
210.239880
 20
190.982590
 30
0.0
  0
SPLINE
  5
202
100
AcDbEntity
  8
Layer_1
 62
2
100
AcDbSpline
 70
8
 71
3
 72
8
 73
4
 74
0
 40
0
 40
0
 40
0
 40
0
 40
1
 40
1
 40
1
 40
1
 10
210.239880
 20
190.982590
 30
0.0
 10
210.883375
 20
190.339094
 30
0.0
 10
211.851140
 20
190.146594
 30
0.0
 10
212.691908
 20
190.494851
 30
0.0
  0
SPLINE
  5
203
100
AcDbEntity
  8
Layer_1
 62
2
100
AcDbSpline
 70
8
 71
3
 72
8
 73
4
 74
0
 40
0
 40
0
 40
0
 40
0
 40
1
 40
1
 40
1
 40
1
 10
212.691908
 20
190.494851
 30
0.0
 10
213.532675
 20
190.843108
 30
0.0
 10
214.080870
 20
191.663540
 30
0.0
 10
214.080870
 20
192.573580
 30
0.0
  0
SPLINE
  5
204
100
AcDbEntity
  8
Layer_1
 62
2
100
AcDbSpline
 70
8
 71
3
 72
8
 73
4
 74
0
 40
0
 40
0
 40
0
 40
0
 40
1
 40
1
 40
1
 40
1
 10
214.080870
 20
192.573580
 30
0.0
 10
214.080870
 20
193.170317
 30
0.0
 10
213.843817
 20
193.742613
 30
0.0
 10
213.421860
 20
194.164570
 30
0.0
  0
SPLINE
  5
205
100
AcDbEntity
  8
Layer_1
 62
2
100
AcDbSpline
 70
8
 71
3
 72
8
 73
4
 74
0
 40
0
 40
0
 40
0
 40
0
 40
1
 40
1
 40
1
 40
1
 10
213.421860
 20
194.164570
 30
0.0
 10
212.999903
 20
194.586527
 30
0.0
 10
212.427607
 20
194.823580
 30
0.0
 10
211.830870
 20
194.823580
 30
0.0
  0
LINE
  5
206
100
AcDbEntity
  8
Layer_1
 62
2
100
AcDbLine
 10
211.830870
 20
194.823580
 30
0.0
 11
211.830870
 21
194.823580
 31
0.0
  0
SPLINE
  5
207
100
AcDbEntity
  8
Layer_1
 62
2
100
AcDbSpline
 70
8
 71
3
 72
8
 73
4
 74
0
 40
0
 40
0
 40
0
 40
0
 40
1
 40
1
 40
1
 40
1
 10
114.557740
 20
194.823580
 30
0.0
 10
113.647700
 20
194.823580
 30
0.0
 10
112.827268
 20
194.275385
 30
0.0
 10
112.479011
 20
193.434618
 30
0.0
  0
SPLINE
  5
208
100
AcDbEntity
  8
Layer_1
 62
2
100
AcDbSpline
 70
8
 71
3
 72
8
 73
4
 74
0
 40
0
 40
0
 40
0
 40
0
 40
1
 40
1
 40
1
 40
1
 10
112.479011
 20
193.434618
 30
0.0
 10
112.130754
 20
192.593850
 30
0.0
 10
112.323254
 20
191.626085
 30
0.0
 10
112.966750
 20
190.982590
 30
0.0
  0
SPLINE
  5
209
100
AcDbEntity
  8
Layer_1
 62
2
100
AcDbSpline
 70
8
 71
3
 72
8
 73
4
 74
0
 40
0
 40
0
 40
0
 40
0
 40
1
 40
1
 40
1
 40
1
 10
112.966750
 20
190.982590
 30
0.0
 10
113.610245
 20
190.339094
 30
0.0
 10
114.578010
 20
190.146594
 30
0.0
 10
115.418778
 20
190.494851
 30
0.0
  0
SPLINE
  5
20a
100
AcDbEntity
  8
Layer_1
 62
2
100
AcDbSpline
 70
8
 71
3
 72
8
 73
4
 74
0
 40
0
 40
0
 40
0
 40
0
 40
1
 40
1
 40
1
 40
1
 10
115.418778
 20
190.494851
 30
0.0
 10
116.259545
 20
190.843108
 30
0.0
 10
116.807740
 20
191.663540
 30
0.0
 10
116.807740
 20
192.573580
 30
0.0
  0
SPLINE
  5
20b
100
AcDbEntity
  8
Layer_1
 62
2
100
AcDbSpline
 70
8
 71
3
 72
8
 73
4
 74
0
 40
0
 40
0
 40
0
 40
0
 40
1
 40
1
 40
1
 40
1
 10
116.807740
 20
192.573580
 30
0.0
 10
116.807740
 20
193.170317
 30
0.0
 10
116.570687
 20
193.742613
 30
0.0
 10
116.148730
 20
194.164570
 30
0.0
  0
SPLINE
  5
20c
100
AcDbEntity
  8
Layer_1
 62
2
100
AcDbSpline
 70
8
 71
3
 72
8
 73
4
 74
0
 40
0
 40
0
 40
0
 40
0
 40
1
 40
1
 40
1
 40
1
 10
116.148730
 20
194.164570
 30
0.0
 10
115.726773
 20
194.586527
 30
0.0
 10
115.154477
 20
194.823580
 30
0.0
 10
114.557740
 20
194.823580
 30
0.0
  0
LINE
  5
20d
100
AcDbEntity
  8
Layer_1
 62
2
100
AcDbLine
 10
114.557740
 20
194.823580
 30
0.0
 11
114.557740
 21
194.823580
 31
0.0
  0
ENDSEC
  0
SECTION
  2
OBJECTS
  0
DICTIONARY
  5
C
330
0
100
AcDbDictionary
  3
ACAD_GROUP
350
D
  3
ACAD_MLINESTYLE
350
17
  0
DICTIONARY
  5
D
330
C
100
AcDbDictionary
  0
DICTIONARY
  5
1A
330
C
100
AcDbDictionary
  0
DICTIONARY
  5
17
330
C
100
AcDbDictionary
  3
STANDARD
350
18
  0
DICTIONARY
  5
19
330
C
100
AcDbDictionary
  0
ENDSEC
  0
EOF
