  0
SECTION
  2
HEADER
  9
$ACADVER
  1
AC1014
  9
$HANDSEED
  5
FFFF
  9
$INSUNITS
 70
     0
  9
$MEASUREMENT
 70
     1
  0
ENDSEC
  0
SECTION
  2
TABLES
  0
TABLE
  2
VPORT
  5
8
330
0
100
AcDbSymbolTable
 70
     4
  0
VPORT
  5
2E
330
8
100
AcDbSymbolTableRecord
100
AcDbViewportTableRecord
  2
*ACTIVE
 70
     0
 10
0.0
 20
0.0
 11
1.0
 21
1.0
 12
210.0
 22
148.5
 13
0.0
 23
0.0
 14
10.0
 24
10.0
 15
10.0
 25
10.0
 16
0.0
 26
0.0
 36
1.0
 17
0.0
 27
0.0
 37
0.0
 40
341.0
 41
1.24
 42
50.0
 43
0.0
 44
0.0
 50
0.0
 51
0.0
 71
     0
 72
   100
 73
     1
 74
     3
 75
     0
 76
     0
 77
     0
 78
     0
  0
ENDTAB
  0
TABLE
  2
LTYPE
  5
5
330
0
100
AcDbSymbolTable
 70
     1
  0
LTYPE
  5
14
330
5
100
AcDbSymbolTableRecord
100
AcDbLinetypeTableRecord
  2
BYBLOCK
 70
     0
  3

 72
    65
 73
     0
 40
0.0
  0
LTYPE
  5
15
330
5
100
AcDbSymbolTableRecord
100
AcDbLinetypeTableRecord
  2
BYLAYER
 70
     0
  3

 72
    65
 73
     0
 40
0.0
  0
LTYPE
  5
16
330
5
100
AcDbSymbolTableRecord
100
AcDbLinetypeTableRecord
  2
CONTINUOUS
 70
     0
  3
Solid line
 72
    65
 73
     0
 40
0.0
  0
ENDTAB
  0
TABLE
  2
LAYER
  5
2
100
AcDbSymbolTable
 70
2
  0
LAYER
  5
50
100
AcDbSymbolTableRecord
100
AcDbLayerTableRecord
  2
0
 70
0
  6
CONTINUOUS
  0
LAYER
  5
51
100
AcDbSymbolTableRecord
100
AcDbLayerTableRecord
  2
Layer_1
 70
0
  6
CONTINUOUS
  0
ENDTAB
  0
TABLE
  2
STYLE
  5
3
330
0
100
AcDbSymbolTable
 70
     1
  0
STYLE
  5
11
330
3
100
AcDbSymbolTableRecord
100
AcDbTextStyleTableRecord
  2
STANDARD
 70
     0
 40
0.0
 41
1.0
 50
0.0
 71
     0
 42
2.5
  3
txt
  4

  0
ENDTAB
  0
TABLE
  2
VIEW
  5
6
330
0
100
AcDbSymbolTable
 70
     0
  0
ENDTAB
  0
TABLE
  2
UCS
  5
7
330
0
100
AcDbSymbolTable
 70
     0
  0
ENDTAB
  0
TABLE
  2
APPID
  5
9
330
0
100
AcDbSymbolTable
 70
     2
  0
APPID
  5
12
330
9
100
AcDbSymbolTableRecord
100
AcDbRegAppTableRecord
  2
ACAD
 70
     0
  0
ENDTAB
  0
TABLE
  2
DIMSTYLE
  5
A
330
0
100
AcDbSymbolTable
 70
     1
  0
DIMSTYLE
105
27
330
A
100
AcDbSymbolTableRecord
100
AcDbDimStyleTableRecord
  2
ISO-25
 70
     0
  3

  4

  5

  6

  7

 40
1.0
 41
2.5
 42
0.625
 43
3.75
 44
1.25
 45
0.0
 46
0.0
 47
0.0
 48
0.0
140
2.5
141
2.5
142
0.0
143
0.03937007874016
144
1.0
145
0.0
146
1.0
147
0.625
 71
     0
 72
     0
 73
     0
 74
     0
 75
     0
 76
     0
 77
     1
 78
     8
170
     0
171
     3
172
     1
173
     0
174
     0
175
     0
176
     0
177
     0
178
     0
270
     2
271
     2
272
     2
273
     2
274
     3
340
11
275
     0
280
     0
281
     0
282
     0
283
     0
284
     8
285
     0
286
     0
287
     3
288
     0
  0
ENDTAB
  0
TABLE
  2
BLOCK_RECORD
  5
1
330
0
100
AcDbSymbolTable
 70
     1
  0
BLOCK_RECORD
  5
1F
330
1
100
AcDbSymbolTableRecord
100
AcDbBlockTableRecord
  2
*MODEL_SPACE
  0
BLOCK_RECORD
  5
1B
330
1
100
AcDbSymbolTableRecord
100
AcDbBlockTableRecord
  2
*PAPER_SPACE
  0
ENDTAB
  0
ENDSEC
  0
SECTION
  2
BLOCKS
  0
BLOCK
  5
20
330
1F
100
AcDbEntity
  8
0
100
AcDbBlockBegin
  2
*MODEL_SPACE
 70
     0
 10
0.0
 20
0.0
 30
0.0
  3
*MODEL_SPACE
  1

  0
ENDBLK
  5
21
330
1F
100
AcDbEntity
  8
0
100
AcDbBlockEnd
  0
BLOCK
  5
1C
330
1B
100
AcDbEntity
 67
     1
  8
0
100
AcDbBlockBegin
  2
*PAPER_SPACE
  1

  0
ENDBLK
  5
1D
330
1B
100
AcDbEntity
 67
     1
  8
0
100
AcDbBlockEnd
  0
ENDSEC
  0
SECTION
  2
ENTITIES
  0
LINE
  5
100
100
AcDbEntity
  8
Layer_1
 62
1
100
AcDbLine
 10
416.602790
 20
128.331940
 30
0.0
 11
381.198290
 21
128.417640
 31
0.0
  0
SPLINE
  5
101
100
AcDbEntity
  8
Layer_1
 62
1
100
AcDbSpline
 70
8
 71
3
 72
8
 73
4
 74
0
 40
0
 40
0
 40
0
 40
0
 40
1
 40
1
 40
1
 40
1
 10
381.198290
 20
128.417640
 30
0.0
 10
380.906040
 20
128.418350
 30
0.0
 10
380.432200
 20
128.419640
 30
0.0
 10
380.139950
 20
128.419640
 30
0.0
  0
SPLINE
  5
102
100
AcDbEntity
  8
Layer_1
 62
1
100
AcDbSpline
 70
8
 71
3
 72
8
 73
4
 74
0
 40
0
 40
0
 40
0
 40
0
 40
1
 40
1
 40
1
 40
1
 10
380.139950
 20
128.419640
 30
0.0
 10
365.556550
 20
128.442940
 30
0.0
 10
350.973100
 20
128.427640
 30
0.0
 10
336.389680
 20
128.426640
 30
0.0
  0
SPLINE
  5
103
100
AcDbEntity
  8
Layer_1
 62
1
100
AcDbSpline
 70
8
 71
3
 72
8
 73
4
 74
0
 40
0
 40
0
 40
0
 40
0
 40
1
 40
1
 40
1
 40
1
 10
336.389680
 20
128.426640
 30
0.0
 10
336.097430
 20
128.426630
 30
0.0
 10
335.623600
 20
128.426660
 30
0.0
 10
335.331350
 20
128.426690
 30
0.0
  0
LINE
  5
104
100
AcDbEntity
  8
Layer_1
 62
1
100
AcDbLine
 10
335.331350
 20
128.426690
 30
0.0
 11
299.926830
 21
128.430690
 31
0.0
  0
SPLINE
  5
105
100
AcDbEntity
  8
Layer_1
 62
1
100
AcDbSpline
 70
8
 71
3
 72
8
 73
4
 74
0
 40
0
 40
0
 40
0
 40
0
 40
1
 40
1
 40
1
 40
1
 10
299.926830
 20
128.430690
 30
0.0
 10
299.574050
 20
128.430729
 30
0.0
 10
299.221270
 20
128.430749
 30
0.0
 10
298.868490
 20
128.430750
 30
0.0
  0
LINE
  5
106
100
AcDbEntity
  8
Layer_1
 62
1
100
AcDbLine
 10
298.868490
 20
128.430750
 30
0.0
 11
294.920970
 21
128.430750
 31
0.0
  0
SPLINE
  5
107
100
AcDbEntity
  8
Layer_1
 62
1
100
AcDbSpline
 70
8
 71
3
 72
8
 73
4
 74
0
 40
0
 40
0
 40
0
 40
0
 40
1
 40
1
 40
1
 40
1
 10
294.920970
 20
128.430750
 30
0.0
 10
294.780625
 20
128.430749
 30
0.0
 10
294.646028
 20
128.486501
 30
0.0
 10
294.546789
 20
128.585739
 30
0.0
  0
SPLINE
  5
108
100
AcDbEntity
  8
Layer_1
 62
1
100
AcDbSpline
 70
8
 71
3
 72
8
 73
4
 74
0
 40
0
 40
0
 40
0
 40
0
 40
1
 40
1
 40
1
 40
1
 10
294.546789
 20
128.585739
 30
0.0
 10
294.447551
 20
128.684978
 30
0.0
 10
294.391799
 20
128.819575
 30
0.0
 10
294.391800
 20
128.959920
 30
0.0
  0
LINE
  5
109
100
AcDbEntity
  8
Layer_1
 62
1
100
AcDbLine
 10
294.391800
 20
128.959920
 30
0.0
 11
294.391800
 21
148.012910
 31
0.0
  0
SPLINE
  5
10a
100
AcDbEntity
  8
Layer_1
 62
1
100
AcDbSpline
 70
8
 71
3
 72
8
 73
4
 74
0
 40
0
 40
0
 40
0
 40
0
 40
1
 40
1
 40
1
 40
1
 10
294.391800
 20
148.012910
 30
0.0
 10
294.391799
 20
148.153255
 30
0.0
 10
294.447551
 20
148.287852
 30
0.0
 10
294.546789
 20
148.387091
 30
0.0
  0
SPLINE
  5
10b
100
AcDbEntity
  8
Layer_1
 62
1
100
AcDbSpline
 70
8
 71
3
 72
8
 73
4
 74
0
 40
0
 40
0
 40
0
 40
0
 40
1
 40
1
 40
1
 40
1
 10
294.546789
 20
148.387091
 30
0.0
 10
294.646028
 20
148.486329
 30
0.0
 10
294.780625
 20
148.542081
 30
0.0
 10
294.920970
 20
148.542080
 30
0.0
  0
LINE
  5
10c
100
AcDbEntity
  8
Layer_1
 62
1
100
AcDbLine
 10
294.920970
 20
148.542080
 30
0.0
 11
303.388020
 21
148.542080
 31
0.0
  0
SPLINE
  5
10d
100
AcDbEntity
  8
Layer_1
 62
1
100
AcDbSpline
 70
8
 71
3
 72
8
 73
4
 74
0
 40
0
 40
0
 40
0
 40
0
 40
1
 40
1
 40
1
 40
1
 10
303.388020
 20
148.542080
 30
0.0
 10
303.528365
 20
148.542079
 30
0.0
 10
303.662962
 20
148.597831
 30
0.0
 10
303.762201
 20
148.697069
 30
0.0
  0
SPLINE
  5
10e
100
AcDbEntity
  8
Layer_1
 62
1
100
AcDbSpline
 70
8
 71
3
 72
8
 73
4
 74
0
 40
0
 40
0
 40
0
 40
0
 40
1
 40
1
 40
1
 40
1
 10
303.762201
 20
148.697069
 30
0.0
 10
303.861439
 20
148.796308
 30
0.0
 10
303.917191
 20
148.930905
 30
0.0
 10
303.917190
 20
149.071250
 30
0.0
  0
LINE
  5
10f
100
AcDbEntity
  8
Layer_1
 62
1
100
AcDbLine
 10
303.917190
 20
149.071250
 30
0.0
 11
303.917190
 21
166.001190
 31
0.0
  0
SPLINE
  5
110
100
AcDbEntity
  8
Layer_1
 62
1
100
AcDbSpline
 70
8
 71
3
 72
8
 73
4
 74
0
 40
0
 40
0
 40
0
 40
0
 40
1
 40
1
 40
1
 40
1
 10
303.917190
 20
166.001190
 30
0.0
 10
303.917191
 20
166.141535
 30
0.0
 10
303.861439
 20
166.276132
 30
0.0
 10
303.762201
 20
166.375371
 30
0.0
  0
SPLINE
  5
111
100
AcDbEntity
  8
Layer_1
 62
1
100
AcDbSpline
 70
8
 71
3
 72
8
 73
4
 74
0
 40
0
 40
0
 40
0
 40
0
 40
1
 40
1
 40
1
 40
1
 10
303.762201
 20
166.375371
 30
0.0
 10
303.662962
 20
166.474609
 30
0.0
 10
303.528365
 20
166.530361
 30
0.0
 10
303.388020
 20
166.530360
 30
0.0
  0
LINE
  5
112
100
AcDbEntity
  8
Layer_1
 62
1
100
AcDbLine
 10
303.388020
 20
166.530360
 30
0.0
 11
294.920970
 21
166.530360
 31
0.0
  0
SPLINE
  5
113
100
AcDbEntity
  8
Layer_1
 62
1
100
AcDbSpline
 70
8
 71
3
 72
8
 73
4
 74
0
 40
0
 40
0
 40
0
 40
0
 40
1
 40
1
 40
1
 40
1
 10
294.920970
 20
166.530360
 30
0.0
 10
294.780625
 20
166.530359
 30
0.0
 10
294.646028
 20
166.586111
 30
0.0
 10
294.546789
 20
166.685349
 30
0.0
  0
SPLINE
  5
114
100
AcDbEntity
  8
Layer_1
 62
1
100
AcDbSpline
 70
8
 71
3
 72
8
 73
4
 74
0
 40
0
 40
0
 40
0
 40
0
 40
1
 40
1
 40
1
 40
1
 10
294.546789
 20
166.685349
 30
0.0
 10
294.447551
 20
166.784588
 30
0.0
 10
294.391799
 20
166.919185
 30
0.0
 10
294.391800
 20
167.059530
 30
0.0
  0
LINE
  5
115
100
AcDbEntity
  8
Layer_1
 62
1
100
AcDbLine
 10
294.391800
 20
167.059530
 30
0.0
 11
294.391800
 21
185.051980
 31
0.0
  0
SPLINE
  5
116
100
AcDbEntity
  8
Layer_1
 62
1
100
AcDbSpline
 70
8
 71
3
 72
8
 73
4
 74
0
 40
0
 40
0
 40
0
 40
0
 40
1
 40
1
 40
1
 40
1
 10
294.391800
 20
185.051980
 30
0.0
 10
294.391800
 20
185.344230
 30
0.0
 10
294.154880
 20
185.581150
 30
0.0
 10
293.862630
 20
185.581150
 30
0.0
  0
SPLINE
  5
117
100
AcDbEntity
  8
Layer_1
 62
1
100
AcDbSpline
 70
8
 71
3
 72
8
 73
4
 74
0
 40
0
 40
0
 40
0
 40
0
 40
1
 40
1
 40
1
 40
1
 10
293.862630
 20
185.581150
 30
0.0
 10
292.627520
 20
185.581140
 30
0.0
 10
291.392410
 20
185.581150
 30
0.0
 10
290.157300
 20
185.581150
 30
0.0
  0
SPLINE
  5
118
100
AcDbEntity
  8
Layer_1
 62
1
100
AcDbSpline
 70
8
 71
3
 72
8
 73
4
 74
0
 40
0
 40
0
 40
0
 40
0
 40
1
 40
1
 40
1
 40
1
 10
290.157300
 20
185.581150
 30
0.0
 10
289.865050
 20
185.581150
 30
0.0
 10
289.628130
 20
185.818070
 30
0.0
 10
289.628130
 20
186.110320
 30
0.0
  0
LINE
  5
119
100
AcDbEntity
  8
Layer_1
 62
1
100
AcDbLine
 10
289.628130
 20
186.110320
 30
0.0
 11
289.628130
 21
205.163300
 31
0.0
  0
SPLINE
  5
11a
100
AcDbEntity
  8
Layer_1
 62
1
100
AcDbSpline
 70
8
 71
3
 72
8
 73
4
 74
0
 40
0
 40
0
 40
0
 40
0
 40
1
 40
1
 40
1
 40
1
 10
289.628130
 20
205.163300
 30
0.0
 10
289.628130
 20
205.455550
 30
0.0
 10
289.865050
 20
205.692530
 30
0.0
 10
290.157300
 20
205.692420
 30
0.0
  0
SPLINE
  5
11b
100
AcDbEntity
  8
Layer_1
 62
1
100
AcDbSpline
 70
8
 71
3
 72
8
 73
4
 74
0
 40
0
 40
0
 40
0
 40
0
 40
1
 40
1
 40
1
 40
1
 10
290.157300
 20
205.692420
 30
0.0
 10
290.646320
 20
205.692240
 30
0.0
 10
291.135330
 20
205.691700
 30
0.0
 10
291.624350
 20
205.691420
 30
0.0
  0
SPLINE
  5
11c
100
AcDbEntity
  8
Layer_1
 62
1
100
AcDbSpline
 70
8
 71
3
 72
8
 73
4
 74
0
 40
0
 40
0
 40
0
 40
0
 40
1
 40
1
 40
1
 40
1
 10
291.624350
 20
205.691420
 30
0.0
 10
291.916600
 20
205.691070
 30
0.0
 10
292.390440
 20
205.690790
 30
0.0
 10
292.682690
 20
205.690810
 30
0.0
  0
LINE
  5
11d
100
AcDbEntity
  8
Layer_1
 62
1
100
AcDbLine
 10
292.682690
 20
205.690810
 30
0.0
 11
328.087190
 21
205.692810
 31
0.0
  0
SPLINE
  5
11e
100
AcDbEntity
  8
Layer_1
 62
1
100
AcDbSpline
 70
8
 71
3
 72
8
 73
4
 74
0
 40
0
 40
0
 40
0
 40
0
 40
1
 40
1
 40
1
 40
1
 10
328.087190
 20
205.692810
 30
0.0
 10
328.379440
 20
205.692830
 30
0.0
 10
328.853280
 20
205.692850
 30
0.0
 10
329.145530
 20
205.692850
 30
0.0
  0
SPLINE
  5
11f
100
AcDbEntity
  8
Layer_1
 62
1
100
AcDbSpline
 70
8
 71
3
 72
8
 73
4
 74
0
 40
0
 40
0
 40
0
 40
0
 40
1
 40
1
 40
1
 40
1
 10
329.145530
 20
205.692850
 30
0.0
 10
346.143660
 20
205.693230
 30
0.0
 10
363.141790
 20
205.691860
 30
0.0
 10
380.139930
 20
205.690850
 30
0.0
  0
SPLINE
  5
120
100
AcDbEntity
  8
Layer_1
 62
1
100
AcDbSpline
 70
8
 71
3
 72
8
 73
4
 74
0
 40
0
 40
0
 40
0
 40
0
 40
1
 40
1
 40
1
 40
1
 10
380.139930
 20
205.690850
 30
0.0
 10
380.432180
 20
205.690830
 30
0.0
 10
380.906020
 20
205.691490
 30
0.0
 10
381.198260
 20
205.691850
 30
0.0
  0
LINE
  5
121
100
AcDbEntity
  8
Layer_1
 62
1
100
AcDbLine
 10
381.198260
 20
205.691850
 30
0.0
 11
416.602770
 21
205.792140
 31
0.0
  0
SPLINE
  5
122
100
AcDbEntity
  8
Layer_1
 62
1
100
AcDbSpline
 70
8
 71
3
 72
8
 73
4
 74
0
 40
0
 40
0
 40
0
 40
0
 40
1
 40
1
 40
1
 40
1
 10
416.602770
 20
205.792140
 30
0.0
 10
416.955546
 20
205.793139
 30
0.0
 10
417.308323
 20
205.793805
 30
0.0
 10
417.661100
 20
205.794140
 30
0.0
  0
LINE
  5
123
100
AcDbEntity
  8
Layer_1
 62
1
100
AcDbLine
 10
417.661100
 20
205.794140
 30
0.0
 11
418.707520
 21
205.795140
 31
0.0
  0
SPLINE
  5
124
100
AcDbEntity
  8
Layer_1
 62
1
100
AcDbSpline
 70
8
 71
3
 72
8
 73
4
 74
0
 40
0
 40
0
 40
0
 40
0
 40
1
 40
1
 40
1
 40
1
 10
418.707520
 20
205.795140
 30
0.0
 10
418.999770
 20
205.795410
 30
0.0
 10
419.236700
 20
205.558720
 30
0.0
 10
419.236700
 20
205.266470
 30
0.0
  0
SPLINE
  5
125
100
AcDbEntity
  8
Layer_1
 62
1
100
AcDbSpline
 70
8
 71
3
 72
8
 73
4
 74
0
 40
0
 40
0
 40
0
 40
0
 40
1
 40
1
 40
1
 40
1
 10
419.236700
 20
205.266470
 30
0.0
 10
419.237240
 20
179.893380
 30
0.0
 10
419.236450
 20
154.229310
 30
0.0
 10
419.234700
 20
128.858420
 30
0.0
  0
SPLINE
  5
126
100
AcDbEntity
  8
Layer_1
 62
1
100
AcDbSpline
 70
8
 71
3
 72
8
 73
4
 74
0
 40
0
 40
0
 40
0
 40
0
 40
1
 40
1
 40
1
 40
1
 10
419.234700
 20
128.858420
 30
0.0
 10
419.234680
 20
128.566170
 30
0.0
 10
418.997740
 20
128.329370
 30
0.0
 10
418.705490
 20
128.329520
 30
0.0
  0
LINE
  5
127
100
AcDbEntity
  8
Layer_1
 62
1
100
AcDbLine
 10
418.705490
 20
128.329520
 30
0.0
 11
417.661100
 21
128.330060
 31
0.0
  0
SPLINE
  5
128
100
AcDbEntity
  8
Layer_1
 62
1
100
AcDbSpline
 70
8
 71
3
 72
8
 73
4
 74
0
 40
0
 40
0
 40
0
 40
0
 40
1
 40
1
 40
1
 40
1
 10
417.661100
 20
128.330060
 30
0.0
 10
417.308319
 20
128.330390
 30
0.0
 10
416.955539
 20
128.331057
 30
0.0
 10
416.602760
 20
128.332060
 30
0.0
  0
LINE
  5
129
100
AcDbEntity
  8
Layer_1
 62
1
100
AcDbLine
 10
416.602760
 20
128.332060
 30
0.0
 11
416.602790
 21
128.331940
 31
0.0
  0
LINE
  5
12a
100
AcDbEntity
  8
Layer_1
 62
1
100
AcDbLine
 10
142.889200
 20
128.430630
 30
0.0
 11
139.011990
 21
128.430630
 31
0.0
  0
SPLINE
  5
12b
100
AcDbEntity
  8
Layer_1
 62
1
100
AcDbSpline
 70
8
 71
3
 72
8
 73
4
 74
0
 40
0
 40
0
 40
0
 40
0
 40
1
 40
1
 40
1
 40
1
 10
139.011990
 20
128.430630
 30
0.0
 10
138.719740
 20
128.430630
 30
0.0
 10
138.482800
 20
128.667550
 30
0.0
 10
138.482780
 20
128.959800
 30
0.0
  0
SPLINE
  5
12c
100
AcDbEntity
  8
Layer_1
 62
1
100
AcDbSpline
 70
8
 71
3
 72
8
 73
4
 74
0
 40
0
 40
0
 40
0
 40
0
 40
1
 40
1
 40
1
 40
1
 10
138.482780
 20
128.959800
 30
0.0
 10
138.480780
 20
154.363140
 30
0.0
 10
138.483030
 20
179.759810
 30
0.0
 10
138.480780
 20
205.163180
 30
0.0
  0
SPLINE
  5
12d
100
AcDbEntity
  8
Layer_1
 62
1
100
AcDbSpline
 70
8
 71
3
 72
8
 73
4
 74
0
 40
0
 40
0
 40
0
 40
0
 40
1
 40
1
 40
1
 40
1
 10
138.480780
 20
205.163180
 30
0.0
 10
138.480750
 20
205.455430
 30
0.0
 10
138.717650
 20
205.692350
 30
0.0
 10
139.009900
 20
205.692350
 30
0.0
  0
LINE
  5
12e
100
AcDbEntity
  8
Layer_1
 62
1
100
AcDbLine
 10
139.009900
 20
205.692350
 30
0.0
 11
142.867570
 21
205.692350
 31
0.0
  0
SPLINE
  5
12f
100
AcDbEntity
  8
Layer_1
 62
1
100
AcDbSpline
 70
8
 71
3
 72
8
 73
4
 74
0
 40
0
 40
0
 40
0
 40
0
 40
1
 40
1
 40
1
 40
1
 10
142.867570
 20
205.692350
 30
0.0
 10
143.220350
 20
205.692350
 30
0.0
 10
143.573130
 20
205.692340
 30
0.0
 10
143.925910
 20
205.692320
 30
0.0
  0
LINE
  5
130
100
AcDbEntity
  8
Layer_1
 62
1
100
AcDbLine
 10
143.925910
 20
205.692320
 30
0.0
 11
179.334410
 21
205.690320
 31
0.0
  0
SPLINE
  5
131
100
AcDbEntity
  8
Layer_1
 62
1
100
AcDbSpline
 70
8
 71
3
 72
8
 73
4
 74
0
 40
0
 40
0
 40
0
 40
0
 40
1
 40
1
 40
1
 40
1
 10
179.334410
 20
205.690320
 30
0.0
 10
179.626660
 20
205.690300
 30
0.0
 10
180.100500
 20
205.690370
 30
0.0
 10
180.392750
 20
205.690460
 30
0.0
  0
SPLINE
  5
132
100
AcDbEntity
  8
Layer_1
 62
1
100
AcDbSpline
 70
8
 71
3
 72
8
 73
4
 74
0
 40
0
 40
0
 40
0
 40
0
 40
1
 40
1
 40
1
 40
1
 10
180.392750
 20
205.690460
 30
0.0
 10
191.702080
 20
205.693460
 30
0.0
 10
203.011430
 20
205.683460
 30
0.0
 10
214.320750
 20
205.703060
 30
0.0
  0
SPLINE
  5
133
100
AcDbEntity
  8
Layer_1
 62
1
100
AcDbSpline
 70
8
 71
3
 72
8
 73
4
 74
0
 40
0
 40
0
 40
0
 40
0
 40
1
 40
1
 40
1
 40
1
 10
214.320750
 20
205.703060
 30
0.0
 10
214.613000
 20
205.703560
 30
0.0
 10
215.086830
 20
205.703900
 30
0.0
 10
215.379080
 20
205.703810
 30
0.0
  0
LINE
  5
134
100
AcDbEntity
  8
Layer_1
 62
1
100
AcDbLine
 10
215.379080
 20
205.703810
 30
0.0
 11
250.787540
 21
205.692410
 31
0.0
  0
SPLINE
  5
135
100
AcDbEntity
  8
Layer_1
 62
1
100
AcDbSpline
 70
8
 71
3
 72
8
 73
4
 74
0
 40
0
 40
0
 40
0
 40
0
 40
1
 40
1
 40
1
 40
1
 10
250.787540
 20
205.692410
 30
0.0
 10
251.140320
 20
205.692297
 30
0.0
 10
251.493100
 20
205.692240
 30
0.0
 10
251.845880
 20
205.692240
 30
0.0
  0
LINE
  5
136
100
AcDbEntity
  8
Layer_1
 62
1
100
AcDbLine
 10
251.845880
 20
205.692240
 30
0.0
 11
253.312930
 21
205.692240
 31
0.0
  0
SPLINE
  5
137
100
AcDbEntity
  8
Layer_1
 62
1
100
AcDbSpline
 70
8
 71
3
 72
8
 73
4
 74
0
 40
0
 40
0
 40
0
 40
0
 40
1
 40
1
 40
1
 40
1
 10
253.312930
 20
205.692240
 30
0.0
 10
253.453275
 20
205.692241
 30
0.0
 10
253.587872
 20
205.636489
 30
0.0
 10
253.687111
 20
205.537251
 30
0.0
  0
SPLINE
  5
138
100
AcDbEntity
  8
Layer_1
 62
1
100
AcDbSpline
 70
8
 71
3
 72
8
 73
4
 74
0
 40
0
 40
0
 40
0
 40
0
 40
1
 40
1
 40
1
 40
1
 10
253.687111
 20
205.537251
 30
0.0
 10
253.786349
 20
205.438012
 30
0.0
 10
253.842101
 20
205.303415
 30
0.0
 10
253.842100
 20
205.163070
 30
0.0
  0
LINE
  5
139
100
AcDbEntity
  8
Layer_1
 62
1
100
AcDbLine
 10
253.842100
 20
205.163070
 30
0.0
 11
253.842100
 21
187.170630
 31
0.0
  0
SPLINE
  5
13a
100
AcDbEntity
  8
Layer_1
 62
1
100
AcDbSpline
 70
8
 71
3
 72
8
 73
4
 74
0
 40
0
 40
0
 40
0
 40
0
 40
1
 40
1
 40
1
 40
1
 10
253.842100
 20
187.170630
 30
0.0
 10
253.842099
 20
187.030285
 30
0.0
 10
253.897851
 20
186.895688
 30
0.0
 10
253.997089
 20
186.796449
 30
0.0
  0
SPLINE
  5
13b
100
AcDbEntity
  8
Layer_1
 62
1
100
AcDbSpline
 70
8
 71
3
 72
8
 73
4
 74
0
 40
0
 40
0
 40
0
 40
0
 40
1
 40
1
 40
1
 40
1
 10
253.997089
 20
186.796449
 30
0.0
 10
254.096328
 20
186.697211
 30
0.0
 10
254.230925
 20
186.641459
 30
0.0
 10
254.371270
 20
186.641460
 30
0.0
  0
LINE
  5
13c
100
AcDbEntity
  8
Layer_1
 62
1
100
AcDbLine
 10
254.371270
 20
186.641460
 30
0.0
 11
258.076600
 21
186.641460
 31
0.0
  0
SPLINE
  5
13d
100
AcDbEntity
  8
Layer_1
 62
1
100
AcDbSpline
 70
8
 71
3
 72
8
 73
4
 74
0
 40
0
 40
0
 40
0
 40
0
 40
1
 40
1
 40
1
 40
1
 10
258.076600
 20
186.641460
 30
0.0
 10
258.216945
 20
186.641461
 30
0.0
 10
258.351542
 20
186.585709
 30
0.0
 10
258.450781
 20
186.486471
 30
0.0
  0
SPLINE
  5
13e
100
AcDbEntity
  8
Layer_1
 62
1
100
AcDbSpline
 70
8
 71
3
 72
8
 73
4
 74
0
 40
0
 40
0
 40
0
 40
0
 40
1
 40
1
 40
1
 40
1
 10
258.450781
 20
186.486471
 30
0.0
 10
258.550019
 20
186.387232
 30
0.0
 10
258.605771
 20
186.252635
 30
0.0
 10
258.605770
 20
186.112290
 30
0.0
  0
LINE
  5
13f
100
AcDbEntity
  8
Layer_1
 62
1
100
AcDbLine
 10
258.605770
 20
186.112290
 30
0.0
 11
258.605770
 21
168.119850
 31
0.0
  0
SPLINE
  5
140
100
AcDbEntity
  8
Layer_1
 62
1
100
AcDbSpline
 70
8
 71
3
 72
8
 73
4
 74
0
 40
0
 40
0
 40
0
 40
0
 40
1
 40
1
 40
1
 40
1
 10
258.605770
 20
168.119850
 30
0.0
 10
258.605769
 20
167.979505
 30
0.0
 10
258.661521
 20
167.844908
 30
0.0
 10
258.760759
 20
167.745669
 30
0.0
  0
SPLINE
  5
141
100
AcDbEntity
  8
Layer_1
 62
1
100
AcDbSpline
 70
8
 71
3
 72
8
 73
4
 74
0
 40
0
 40
0
 40
0
 40
0
 40
1
 40
1
 40
1
 40
1
 10
258.760759
 20
167.745669
 30
0.0
 10
258.859998
 20
167.646431
 30
0.0
 10
258.994595
 20
167.590679
 30
0.0
 10
259.134940
 20
167.590680
 30
0.0
  0
LINE
  5
142
100
AcDbEntity
  8
Layer_1
 62
1
100
AcDbLine
 10
259.134940
 20
167.590680
 30
0.0
 11
267.600040
 21
167.590680
 31
0.0
  0
SPLINE
  5
143
100
AcDbEntity
  8
Layer_1
 62
1
100
AcDbSpline
 70
8
 71
3
 72
8
 73
4
 74
0
 40
0
 40
0
 40
0
 40
0
 40
1
 40
1
 40
1
 40
1
 10
267.600040
 20
167.590680
 30
0.0
 10
267.740385
 20
167.590681
 30
0.0
 10
267.874982
 20
167.534929
 30
0.0
 10
267.974221
 20
167.435691
 30
0.0
  0
SPLINE
  5
144
100
AcDbEntity
  8
Layer_1
 62
1
100
AcDbSpline
 70
8
 71
3
 72
8
 73
4
 74
0
 40
0
 40
0
 40
0
 40
0
 40
1
 40
1
 40
1
 40
1
 10
267.974221
 20
167.435691
 30
0.0
 10
268.073459
 20
167.336452
 30
0.0
 10
268.129211
 20
167.201855
 30
0.0
 10
268.129210
 20
167.061510
 30
0.0
  0
LINE
  5
145
100
AcDbEntity
  8
Layer_1
 62
1
100
AcDbLine
 10
268.129210
 20
167.061510
 30
0.0
 11
268.129210
 21
148.010480
 31
0.0
  0
SPLINE
  5
146
100
AcDbEntity
  8
Layer_1
 62
1
100
AcDbSpline
 70
8
 71
3
 72
8
 73
4
 74
0
 40
0
 40
0
 40
0
 40
0
 40
1
 40
1
 40
1
 40
1
 10
268.129210
 20
148.010480
 30
0.0
 10
268.129211
 20
147.870135
 30
0.0
 10
268.073459
 20
147.735538
 30
0.0
 10
267.974221
 20
147.636299
 30
0.0
  0
SPLINE
  5
147
100
AcDbEntity
  8
Layer_1
 62
1
100
AcDbSpline
 70
8
 71
3
 72
8
 73
4
 74
0
 40
0
 40
0
 40
0
 40
0
 40
1
 40
1
 40
1
 40
1
 10
267.974221
 20
147.636299
 30
0.0
 10
267.874982
 20
147.537061
 30
0.0
 10
267.740385
 20
147.481309
 30
0.0
 10
267.600040
 20
147.481310
 30
0.0
  0
LINE
  5
148
100
AcDbEntity
  8
Layer_1
 62
1
100
AcDbLine
 10
267.600040
 20
147.481310
 30
0.0
 11
259.134940
 21
147.481310
 31
0.0
  0
SPLINE
  5
149
100
AcDbEntity
  8
Layer_1
 62
1
100
AcDbSpline
 70
8
 71
3
 72
8
 73
4
 74
0
 40
0
 40
0
 40
0
 40
0
 40
1
 40
1
 40
1
 40
1
 10
259.134940
 20
147.481310
 30
0.0
 10
258.994595
 20
147.481311
 30
0.0
 10
258.859998
 20
147.425559
 30
0.0
 10
258.760759
 20
147.326321
 30
0.0
  0
SPLINE
  5
14a
100
AcDbEntity
  8
Layer_1
 62
1
100
AcDbSpline
 70
8
 71
3
 72
8
 73
4
 74
0
 40
0
 40
0
 40
0
 40
0
 40
1
 40
1
 40
1
 40
1
 10
258.760759
 20
147.326321
 30
0.0
 10
258.661521
 20
147.227082
 30
0.0
 10
258.605769
 20
147.092485
 30
0.0
 10
258.605770
 20
146.952140
 30
0.0
  0
LINE
  5
14b
100
AcDbEntity
  8
Layer_1
 62
1
100
AcDbLine
 10
258.605770
 20
146.952140
 30
0.0
 11
258.605770
 21
128.959690
 31
0.0
  0
SPLINE
  5
14c
100
AcDbEntity
  8
Layer_1
 62
1
100
AcDbSpline
 70
8
 71
3
 72
8
 73
4
 74
0
 40
0
 40
0
 40
0
 40
0
 40
1
 40
1
 40
1
 40
1
 10
258.605770
 20
128.959690
 30
0.0
 10
258.605771
 20
128.819345
 30
0.0
 10
258.550019
 20
128.684748
 30
0.0
 10
258.450781
 20
128.585509
 30
0.0
  0
SPLINE
  5
14d
100
AcDbEntity
  8
Layer_1
 62
1
100
AcDbSpline
 70
8
 71
3
 72
8
 73
4
 74
0
 40
0
 40
0
 40
0
 40
0
 40
1
 40
1
 40
1
 40
1
 10
258.450781
 20
128.585509
 30
0.0
 10
258.351542
 20
128.486271
 30
0.0
 10
258.216945
 20
128.430519
 30
0.0
 10
258.076600
 20
128.430520
 30
0.0
  0
LINE
  5
14e
100
AcDbEntity
  8
Layer_1
 62
1
100
AcDbLine
 10
258.076600
 20
128.430520
 30
0.0
 11
254.132990
 21
128.430520
 31
0.0
  0
SPLINE
  5
14f
100
AcDbEntity
  8
Layer_1
 62
1
100
AcDbSpline
 70
8
 71
3
 72
8
 73
4
 74
0
 40
0
 40
0
 40
0
 40
0
 40
1
 40
1
 40
1
 40
1
 10
254.132990
 20
128.430520
 30
0.0
 10
253.780210
 20
128.430520
 30
0.0
 10
253.427430
 20
128.430463
 30
0.0
 10
253.074650
 20
128.430350
 30
0.0
  0
LINE
  5
150
100
AcDbEntity
  8
Layer_1
 62
1
100
AcDbLine
 10
253.074650
 20
128.430350
 30
0.0
 11
217.666190
 21
128.418950
 31
0.0
  0
SPLINE
  5
151
100
AcDbEntity
  8
Layer_1
 62
1
100
AcDbSpline
 70
8
 71
3
 72
8
 73
4
 74
0
 40
0
 40
0
 40
0
 40
0
 40
1
 40
1
 40
1
 40
1
 10
217.666190
 20
128.418950
 30
0.0
 10
217.373940
 20
128.418860
 30
0.0
 10
216.900100
 20
128.419180
 30
0.0
 10
216.607850
 20
128.419650
 30
0.0
  0
SPLINE
  5
152
100
AcDbEntity
  8
Layer_1
 62
1
100
AcDbSpline
 70
8
 71
3
 72
8
 73
4
 74
0
 40
0
 40
0
 40
0
 40
0
 40
1
 40
1
 40
1
 40
1
 10
216.607850
 20
128.419650
 30
0.0
 10
204.543320
 20
128.439150
 30
0.0
 10
192.478770
 20
128.427650
 30
0.0
 10
180.414230
 20
128.430350
 30
0.0
  0
SPLINE
  5
153
100
AcDbEntity
  8
Layer_1
 62
1
100
AcDbSpline
 70
8
 71
3
 72
8
 73
4
 74
0
 40
0
 40
0
 40
0
 40
0
 40
1
 40
1
 40
1
 40
1
 10
180.414230
 20
128.430350
 30
0.0
 10
180.121980
 20
128.430430
 30
0.0
 10
179.648150
 20
128.430500
 30
0.0
 10
179.355900
 20
128.430500
 30
0.0
  0
LINE
  5
154
100
AcDbEntity
  8
Layer_1
 62
1
100
AcDbLine
 10
179.355900
 20
128.430500
 30
0.0
 11
143.947450
 21
128.430500
 31
0.0
  0
LINE
  5
155
100
AcDbEntity
  8
Layer_1
 62
1
100
AcDbLine
 10
143.947450
 20
128.430500
 30
0.0
 11
142.889200
 21
128.430630
 31
0.0
  0
SPLINE
  5
156
100
AcDbEntity
  8
Layer_1
 62
1
100
AcDbSpline
 70
8
 71
3
 72
8
 73
4
 74
0
 40
0
 40
0
 40
0
 40
0
 40
1
 40
1
 40
1
 40
1
 10
177.791040
 20
116.981320
 30
0.0
 10
164.859470
 20
116.980410
 30
0.0
 10
151.735030
 20
116.972320
 30
0.0
 10
137.800910
 20
116.946220
 30
0.0
  0
SPLINE
  5
157
100
AcDbEntity
  8
Layer_1
 62
1
100
AcDbSpline
 70
8
 71
3
 72
8
 73
4
 74
0
 40
0
 40
0
 40
0
 40
0
 40
1
 40
1
 40
1
 40
1
 10
137.800910
 20
116.946220
 30
0.0
 10
137.216410
 20
116.945220
 30
0.0
 10
136.398480
 20
117.269920
 30
0.0
 10
135.974010
 20
117.671750
 30
0.0
  0
LINE
  5
158
100
AcDbEntity
  8
Layer_1
 62
1
100
AcDbLine
 10
135.974010
 20
117.671750
 30
0.0
 11
134.253890
 21
119.300130
 31
0.0
  0
SPLINE
  5
159
100
AcDbEntity
  8
Layer_1
 62
1
100
AcDbSpline
 70
8
 71
3
 72
8
 73
4
 74
0
 40
0
 40
0
 40
0
 40
0
 40
1
 40
1
 40
1
 40
1
 10
134.253890
 20
119.300130
 30
0.0
 10
133.763262
 20
119.764592
 30
0.0
 10
133.485311
 20
120.410436
 30
0.0
 10
133.485290
 20
121.086040
 30
0.0
  0
LINE
  5
15a
100
AcDbEntity
  8
Layer_1
 62
1
100
AcDbLine
 10
133.485290
 20
121.086040
 30
0.0
 11
133.482290
 21
216.089820
 31
0.0
  0
SPLINE
  5
15b
100
AcDbEntity
  8
Layer_1
 62
1
100
AcDbSpline
 70
8
 71
3
 72
8
 73
4
 74
0
 40
0
 40
0
 40
0
 40
0
 40
1
 40
1
 40
1
 40
1
 10
133.482290
 20
216.089820
 30
0.0
 10
133.482271
 20
216.761982
 30
0.0
 10
133.774105
 20
217.401035
 30
0.0
 10
134.282090
 20
217.841210
 30
0.0
  0
LINE
  5
15c
100
AcDbEntity
  8
Layer_1
 62
1
100
AcDbLine
 10
134.282090
 20
217.841210
 30
0.0
 11
135.942480
 21
219.279960
 31
0.0
  0
SPLINE
  5
15d
100
AcDbEntity
  8
Layer_1
 62
1
100
AcDbSpline
 70
8
 71
3
 72
8
 73
4
 74
0
 40
0
 40
0
 40
0
 40
0
 40
1
 40
1
 40
1
 40
1
 10
135.942480
 20
219.279960
 30
0.0
 10
136.458343
 20
219.726961
 30
0.0
 10
137.118054
 20
219.973021
 30
0.0
 10
137.800640
 20
219.973020
 30
0.0
  0
LINE
  5
15e
100
AcDbEntity
  8
Layer_1
 62
1
100
AcDbLine
 10
137.800640
 20
219.973020
 30
0.0
 11
193.413870
 21
219.972830
 31
0.0
  0
SPLINE
  5
15f
100
AcDbEntity
  8
Layer_1
 62
1
100
AcDbSpline
 70
8
 71
3
 72
8
 73
4
 74
0
 40
0
 40
0
 40
0
 40
0
 40
1
 40
1
 40
1
 40
1
 10
193.413870
 20
219.972830
 30
0.0
 10
194.107495
 20
219.972829
 30
0.0
 10
194.789202
 20
220.153172
 30
0.0
 10
195.392090
 20
220.496160
 30
0.0
  0
LINE
  5
160
100
AcDbEntity
  8
Layer_1
 62
1
100
AcDbLine
 10
195.392090
 20
220.496160
 30
0.0
 11
203.607200
 21
225.169790
 31
0.0
  0
SPLINE
  5
161
100
AcDbEntity
  8
Layer_1
 62
1
100
AcDbSpline
 70
8
 71
3
 72
8
 73
4
 74
0
 40
0
 40
0
 40
0
 40
0
 40
1
 40
1
 40
1
 40
1
 10
203.607200
 20
225.169790
 30
0.0
 10
204.210088
 20
225.512775
 30
0.0
 10
204.891797
 20
225.693112
 30
0.0
 10
205.585420
 20
225.693100
 30
0.0
  0
LINE
  5
162
100
AcDbEntity
  8
Layer_1
 62
1
100
AcDbLine
 10
205.585420
 20
225.693100
 30
0.0
 11
268.914000
 21
225.692140
 31
0.0
  0
SPLINE
  5
163
100
AcDbEntity
  8
Layer_1
 62
1
100
AcDbSpline
 70
8
 71
3
 72
8
 73
4
 74
0
 40
0
 40
0
 40
0
 40
0
 40
1
 40
1
 40
1
 40
1
 10
268.914000
 20
225.692140
 30
0.0
 10
269.595508
 20
225.692128
 30
0.0
 10
270.253069
 20
225.440761
 30
0.0
 10
270.760800
 20
224.986160
 30
0.0
  0
LINE
  5
164
100
AcDbEntity
  8
Layer_1
 62
1
100
AcDbLine
 10
270.760800
 20
224.986160
 30
0.0
 11
272.344280
 21
223.568380
 31
0.0
  0
SPLINE
  5
165
100
AcDbEntity
  8
Layer_1
 62
1
100
AcDbSpline
 70
8
 71
3
 72
8
 73
4
 74
0
 40
0
 40
0
 40
0
 40
0
 40
1
 40
1
 40
1
 40
1
 10
272.344280
 20
223.568380
 30
0.0
 10
272.846013
 20
223.119150
 30
0.0
 10
273.132749
 20
222.477547
 30
0.0
 10
273.132750
 20
221.804090
 30
0.0
  0
LINE
  5
166
100
AcDbEntity
  8
Layer_1
 62
1
100
AcDbLine
 10
273.132750
 20
221.804090
 30
0.0
 11
273.132750
 21
121.109250
 31
0.0
  0
SPLINE
  5
167
100
AcDbEntity
  8
Layer_1
 62
1
100
AcDbSpline
 70
8
 71
3
 72
8
 73
4
 74
0
 40
0
 40
0
 40
0
 40
0
 40
1
 40
1
 40
1
 40
1
 10
273.132750
 20
121.109250
 30
0.0
 10
273.132750
 20
120.432629
 30
0.0
 10
272.859132
 20
119.784763
 30
0.0
 10
272.374120
 20
119.312980
 30
0.0
  0
LINE
  5
168
100
AcDbEntity
  8
Layer_1
 62
1
100
AcDbLine
 10
272.374120
 20
119.312980
 30
0.0
 11
270.715580
 21
117.699680
 31
0.0
  0
SPLINE
  5
169
100
AcDbEntity
  8
Layer_1
 62
1
100
AcDbSpline
 70
8
 71
3
 72
8
 73
4
 74
0
 40
0
 40
0
 40
0
 40
0
 40
1
 40
1
 40
1
 40
1
 10
270.715580
 20
117.699680
 30
0.0
 10
270.229174
 20
117.226537
 30
0.0
 10
269.577188
 20
116.962113
 30
0.0
 10
268.898620
 20
116.962780
 30
0.0
  0
LINE
  5
16a
100
AcDbEntity
  8
Layer_1
 62
1
100
AcDbLine
 10
268.898620
 20
116.962780
 30
0.0
 11
248.113150
 21
116.983280
 31
0.0
  0
SPLINE
  5
16b
100
AcDbEntity
  8
Layer_1
 62
1
100
AcDbSpline
 70
8
 71
3
 72
8
 73
4
 74
0
 40
0
 40
0
 40
0
 40
0
 40
1
 40
1
 40
1
 40
1
 10
248.113150
 20
116.983280
 30
0.0
 10
247.528650
 20
116.983850
 30
0.0
 10
246.580990
 20
116.983920
 30
0.0
 10
245.996490
 20
116.983460
 30
0.0
  0
SPLINE
  5
16c
100
AcDbEntity
  8
Layer_1
 62
1
100
AcDbSpline
 70
8
 71
3
 72
8
 73
4
 74
0
 40
0
 40
0
 40
0
 40
0
 40
1
 40
1
 40
1
 40
1
 10
245.996490
 20
116.983460
 30
0.0
 10
228.610910
 20
116.969760
 30
0.0
 10
212.535840
 20
116.975460
 30
0.0
 10
196.605990
 20
116.979460
 30
0.0
  0
SPLINE
  5
16d
100
AcDbEntity
  8
Layer_1
 62
1
100
AcDbSpline
 70
8
 71
3
 72
8
 73
4
 74
0
 40
0
 40
0
 40
0
 40
0
 40
1
 40
1
 40
1
 40
1
 10
196.605990
 20
116.979460
 30
0.0
 10
196.021490
 20
116.979610
 30
0.0
 10
195.073830
 20
116.979770
 30
0.0
 10
194.489330
 20
116.979840
 30
0.0
  0
LINE
  5
16e
100
AcDbEntity
  8
Layer_1
 62
1
100
AcDbLine
 10
194.489330
 20
116.979840
 30
0.0
 11
177.791040
 21
116.981320
 31
0.0
  0
LINE
  5
16f
100
AcDbEntity
  8
Layer_1
 62
1
100
AcDbLine
 10
403.319490
 20
116.964070
 30
0.0
 11
419.955770
 21
116.967070
 31
0.0
  0
SPLINE
  5
170
100
AcDbEntity
  8
Layer_1
 62
1
100
AcDbSpline
 70
8
 71
3
 72
8
 73
4
 74
0
 40
0
 40
0
 40
0
 40
0
 40
1
 40
1
 40
1
 40
1
 10
419.955770
 20
116.967070
 30
0.0
 10
420.635181
 20
116.967186
 30
0.0
 10
421.288536
 20
117.228531
 30
0.0
 10
421.780600
 20
117.697010
 30
0.0
  0
LINE
  5
171
100
AcDbEntity
  8
Layer_1
 62
1
100
AcDbLine
 10
421.780600
 20
117.697010
 30
0.0
 11
423.467030
 21
119.302610
 31
0.0
  0
SPLINE
  5
172
100
AcDbEntity
  8
Layer_1
 62
1
100
AcDbSpline
 70
8
 71
3
 72
8
 73
4
 74
0
 40
0
 40
0
 40
0
 40
0
 40
1
 40
1
 40
1
 40
1
 10
423.467030
 20
119.302610
 30
0.0
 10
423.956491
 20
119.768610
 30
0.0
 10
424.233529
 20
120.414883
 30
0.0
 10
424.233530
 20
121.090700
 30
0.0
  0
LINE
  5
173
100
AcDbEntity
  8
Layer_1
 62
1
100
AcDbLine
 10
424.233530
 20
121.090700
 30
0.0
 11
424.233530
 21
216.090600
 31
0.0
  0
SPLINE
  5
174
100
AcDbEntity
  8
Layer_1
 62
1
100
AcDbSpline
 70
8
 71
3
 72
8
 73
4
 74
0
 40
0
 40
0
 40
0
 40
0
 40
1
 40
1
 40
1
 40
1
 10
424.233530
 20
216.090600
 30
0.0
 10
424.233528
 20
216.763164
 30
0.0
 10
423.943240
 20
217.402999
 30
0.0
 10
423.437140
 20
217.845950
 30
0.0
  0
LINE
  5
175
100
AcDbEntity
  8
Layer_1
 62
1
100
AcDbLine
 10
423.437140
 20
217.845950
 30
0.0
 11
421.802610
 21
219.276540
 31
0.0
  0
SPLINE
  5
176
100
AcDbEntity
  8
Layer_1
 62
1
100
AcDbSpline
 70
8
 71
3
 72
8
 73
4
 74
0
 40
0
 40
0
 40
0
 40
0
 40
1
 40
1
 40
1
 40
1
 10
421.802610
 20
219.276540
 30
0.0
 10
421.289224
 20
219.725872
 30
0.0
 10
420.630140
 20
219.973494
 30
0.0
 10
419.947890
 20
219.973370
 30
0.0
  0
LINE
  5
177
100
AcDbEntity
  8
Layer_1
 62
1
100
AcDbLine
 10
419.947890
 20
219.973370
 30
0.0
 11
405.700770
 21
219.970370
 31
0.0
  0
SPLINE
  5
178
100
AcDbEntity
  8
Layer_1
 62
1
100
AcDbSpline
 70
8
 71
3
 72
8
 73
4
 74
0
 40
0
 40
0
 40
0
 40
0
 40
1
 40
1
 40
1
 40
1
 10
405.700770
 20
219.970370
 30
0.0
 10
404.995217
 20
219.970241
 30
0.0
 10
404.289663
 20
219.970231
 30
0.0
 10
403.584110
 20
219.970340
 30
0.0
  0
LINE
  5
179
100
AcDbEntity
  8
Layer_1
 62
1
100
AcDbLine
 10
403.584110
 20
219.970340
 30
0.0
 11
386.306180
 21
219.973340
 31
0.0
  0
SPLINE
  5
17a
100
AcDbEntity
  8
Layer_1
 62
1
100
AcDbSpline
 70
8
 71
3
 72
8
 73
4
 74
0
 40
0
 40
0
 40
0
 40
0
 40
1
 40
1
 40
1
 40
1
 10
386.306180
 20
219.973340
 30
0.0
 10
385.600627
 20
219.973448
 30
0.0
 10
384.895073
 20
219.973498
 30
0.0
 10
384.189520
 20
219.973490
 30
0.0
  0
LINE
  5
17b
100
AcDbEntity
  8
Layer_1
 62
1
100
AcDbLine
 10
384.189520
 20
219.973490
 30
0.0
 11
364.339520
 21
219.973290
 31
0.0
  0
SPLINE
  5
17c
100
AcDbEntity
  8
Layer_1
 62
1
100
AcDbSpline
 70
8
 71
3
 72
8
 73
4
 74
0
 40
0
 40
0
 40
0
 40
0
 40
1
 40
1
 40
1
 40
1
 10
364.339520
 20
219.973290
 30
0.0
 10
363.645904
 20
219.973284
 30
0.0
 10
362.964210
 20
220.153664
 30
0.0
 10
362.361370
 20
220.496720
 30
0.0
  0
LINE
  5
17d
100
AcDbEntity
  8
Layer_1
 62
1
100
AcDbLine
 10
362.361370
 20
220.496720
 30
0.0
 11
354.146840
 21
225.171350
 31
0.0
  0
SPLINE
  5
17e
100
AcDbEntity
  8
Layer_1
 62
1
100
AcDbSpline
 70
8
 71
3
 72
8
 73
4
 74
0
 40
0
 40
0
 40
0
 40
0
 40
1
 40
1
 40
1
 40
1
 10
354.146840
 20
225.171350
 30
0.0
 10
353.544000
 20
225.514406
 30
0.0
 10
352.862306
 20
225.694786
 30
0.0
 10
352.168690
 20
225.694780
 30
0.0
  0
LINE
  5
17f
100
AcDbEntity
  8
Layer_1
 62
1
100
AcDbLine
 10
352.168690
 20
225.694780
 30
0.0
 11
288.875390
 21
225.694150
 31
0.0
  0
SPLINE
  5
180
100
AcDbEntity
  8
Layer_1
 62
1
100
AcDbSpline
 70
8
 71
3
 72
8
 73
4
 74
0
 40
0
 40
0
 40
0
 40
0
 40
1
 40
1
 40
1
 40
1
 10
288.875390
 20
225.694150
 30
0.0
 10
288.193549
 20
225.694142
 30
0.0
 10
287.535326
 20
225.444391
 30
0.0
 10
287.025100
 20
224.992090
 30
0.0
  0
LINE
  5
181
100
AcDbEntity
  8
Layer_1
 62
1
100
AcDbLine
 10
287.025100
 20
224.992090
 30
0.0
 11
285.413900
 21
223.563810
 31
0.0
  0
SPLINE
  5
182
100
AcDbEntity
  8
Layer_1
 62
1
100
AcDbSpline
 70
8
 71
3
 72
8
 73
4
 74
0
 40
0
 40
0
 40
0
 40
0
 40
1
 40
1
 40
1
 40
1
 10
285.413900
 20
223.563810
 30
0.0
 10
284.910238
 20
223.117329
 30
0.0
 10
284.621941
 20
222.476498
 30
0.0
 10
284.621940
 20
221.803430
 30
0.0
  0
LINE
  5
183
100
AcDbEntity
  8
Layer_1
 62
1
100
AcDbLine
 10
284.621940
 20
221.803430
 30
0.0
 11
284.621940
 21
121.074120
 31
0.0
  0
SPLINE
  5
184
100
AcDbEntity
  8
Layer_1
 62
1
100
AcDbSpline
 70
8
 71
3
 72
8
 73
4
 74
0
 40
0
 40
0
 40
0
 40
0
 40
1
 40
1
 40
1
 40
1
 10
284.621940
 20
121.074120
 30
0.0
 10
284.621940
 20
120.397978
 30
0.0
 10
284.897597
 20
119.751060
 30
0.0
 10
285.385270
 20
119.282720
 30
0.0
  0
LINE
  5
185
100
AcDbEntity
  8
Layer_1
 62
1
100
AcDbLine
 10
285.385270
 20
119.282720
 30
0.0
 11
287.051710
 21
117.682360
 31
0.0
  0
SPLINE
  5
186
100
AcDbEntity
  8
Layer_1
 62
1
100
AcDbSpline
 70
8
 71
3
 72
8
 73
4
 74
0
 40
0
 40
0
 40
0
 40
0
 40
1
 40
1
 40
1
 40
1
 10
287.051710
 20
117.682360
 30
0.0
 10
287.541505
 20
117.211984
 30
0.0
 10
288.194287
 20
116.949338
 30
0.0
 10
288.873370
 20
116.949420
 30
0.0
  0
LINE
  5
187
100
AcDbEntity
  8
Layer_1
 62
1
100
AcDbLine
 10
288.873370
 20
116.949420
 30
0.0
 11
384.189560
 21
116.961220
 31
0.0
  0
LINE
  5
188
100
AcDbEntity
  8
Layer_1
 62
1
100
AcDbLine
 10
384.189560
 20
116.961220
 30
0.0
 11
403.319490
 21
116.964070
 31
0.0
  0
SPLINE
  5
189
100
AcDbEntity
  8
Layer_1
 62
1
100
AcDbSpline
 70
8
 71
3
 72
8
 73
4
 74
0
 40
0
 40
0
 40
0
 40
0
 40
1
 40
1
 40
1
 40
1
 10
139.181540
 20
123.595860
 30
0.0
 10
138.797301
 20
123.595860
 30
0.0
 10
138.450896
 20
123.364400
 30
0.0
 10
138.303854
 20
123.009409
 30
0.0
  0
SPLINE
  5
18a
100
AcDbEntity
  8
Layer_1
 62
1
100
AcDbSpline
 70
8
 71
3
 72
8
 73
4
 74
0
 40
0
 40
0
 40
0
 40
0
 40
1
 40
1
 40
1
 40
1
 10
138.303854
 20
123.009409
 30
0.0
 10
138.156813
 20
122.654419
 30
0.0
 10
138.238090
 20
122.245807
 30
0.0
 10
138.509789
 20
121.974109
 30
0.0
  0
SPLINE
  5
18b
100
AcDbEntity
  8
Layer_1
 62
1
100
AcDbSpline
 70
8
 71
3
 72
8
 73
4
 74
0
 40
0
 40
0
 40
0
 40
0
 40
1
 40
1
 40
1
 40
1
 10
138.509789
 20
121.974109
 30
0.0
 10
138.781487
 20
121.702410
 30
0.0
 10
139.190099
 20
121.621133
 30
0.0
 10
139.545089
 20
121.768174
 30
0.0
  0
SPLINE
  5
18c
100
AcDbEntity
  8
Layer_1
 62
1
100
AcDbSpline
 70
8
 71
3
 72
8
 73
4
 74
0
 40
0
 40
0
 40
0
 40
0
 40
1
 40
1
 40
1
 40
1
 10
139.545089
 20
121.768174
 30
0.0
 10
139.900080
 20
121.915216
 30
0.0
 10
140.131540
 20
122.261621
 30
0.0
 10
140.131540
 20
122.645860
 30
0.0
  0
SPLINE
  5
18d
100
AcDbEntity
  8
Layer_1
 62
1
100
AcDbSpline
 70
8
 71
3
 72
8
 73
4
 74
0
 40
0
 40
0
 40
0
 40
0
 40
1
 40
1
 40
1
 40
1
 10
140.131540
 20
122.645860
 30
0.0
 10
140.131540
 20
122.897816
 30
0.0
 10
140.031451
 20
123.139452
 30
0.0
 10
139.853291
 20
123.317611
 30
0.0
  0
SPLINE
  5
18e
100
AcDbEntity
  8
Layer_1
 62
1
100
AcDbSpline
 70
8
 71
3
 72
8
 73
4
 74
0
 40
0
 40
0
 40
0
 40
0
 40
1
 40
1
 40
1
 40
1
 10
139.853291
 20
123.317611
 30
0.0
 10
139.675132
 20
123.495771
 30
0.0
 10
139.433496
 20
123.595860
 30
0.0
 10
139.181540
 20
123.595860
 30
0.0
  0
LINE
  5
18f
100
AcDbEntity
  8
Layer_1
 62
1
100
AcDbLine
 10
139.181540
 20
123.595860
 30
0.0
 11
139.181540
 21
123.595860
 31
0.0
  0
SPLINE
  5
190
100
AcDbEntity
  8
Layer_1
 62
1
100
AcDbSpline
 70
8
 71
3
 72
8
 73
4
 74
0
 40
0
 40
0
 40
0
 40
0
 40
1
 40
1
 40
1
 40
1
 10
139.181540
 20
212.429330
 30
0.0
 10
138.797301
 20
212.429330
 30
0.0
 10
138.450896
 20
212.197870
 30
0.0
 10
138.303854
 20
211.842879
 30
0.0
  0
SPLINE
  5
191
100
AcDbEntity
  8
Layer_1
 62
1
100
AcDbSpline
 70
8
 71
3
 72
8
 73
4
 74
0
 40
0
 40
0
 40
0
 40
0
 40
1
 40
1
 40
1
 40
1
 10
138.303854
 20
211.842879
 30
0.0
 10
138.156813
 20
211.487889
 30
0.0
 10
138.238090
 20
211.079277
 30
0.0
 10
138.509789
 20
210.807579
 30
0.0
  0
SPLINE
  5
192
100
AcDbEntity
  8
Layer_1
 62
1
100
AcDbSpline
 70
8
 71
3
 72
8
 73
4
 74
0
 40
0
 40
0
 40
0
 40
0
 40
1
 40
1
 40
1
 40
1
 10
138.509789
 20
210.807579
 30
0.0
 10
138.781487
 20
210.535880
 30
0.0
 10
139.190099
 20
210.454603
 30
0.0
 10
139.545089
 20
210.601644
 30
0.0
  0
SPLINE
  5
193
100
AcDbEntity
  8
Layer_1
 62
1
100
AcDbSpline
 70
8
 71
3
 72
8
 73
4
 74
0
 40
0
 40
0
 40
0
 40
0
 40
1
 40
1
 40
1
 40
1
 10
139.545089
 20
210.601644
 30
0.0
 10
139.900080
 20
210.748686
 30
0.0
 10
140.131540
 20
211.095091
 30
0.0
 10
140.131540
 20
211.479330
 30
0.0
  0
SPLINE
  5
194
100
AcDbEntity
  8
Layer_1
 62
1
100
AcDbSpline
 70
8
 71
3
 72
8
 73
4
 74
0
 40
0
 40
0
 40
0
 40
0
 40
1
 40
1
 40
1
 40
1
 10
140.131540
 20
211.479330
 30
0.0
 10
140.131540
 20
211.731286
 30
0.0
 10
140.031451
 20
211.972922
 30
0.0
 10
139.853291
 20
212.151081
 30
0.0
  0
SPLINE
  5
195
100
AcDbEntity
  8
Layer_1
 62
1
100
AcDbSpline
 70
8
 71
3
 72
8
 73
4
 74
0
 40
0
 40
0
 40
0
 40
0
 40
1
 40
1
 40
1
 40
1
 10
139.853291
 20
212.151081
 30
0.0
 10
139.675132
 20
212.329241
 30
0.0
 10
139.433496
 20
212.429330
 30
0.0
 10
139.181540
 20
212.429330
 30
0.0
  0
LINE
  5
196
100
AcDbEntity
  8
Layer_1
 62
1
100
AcDbLine
 10
139.181540
 20
212.429330
 30
0.0
 11
139.181540
 21
212.429330
 31
0.0
  0
SPLINE
  5
197
100
AcDbEntity
  8
Layer_1
 62
1
100
AcDbSpline
 70
8
 71
3
 72
8
 73
4
 74
0
 40
0
 40
0
 40
0
 40
0
 40
1
 40
1
 40
1
 40
1
 10
267.435690
 20
220.952250
 30
0.0
 10
267.051451
 20
220.952250
 30
0.0
 10
266.705046
 20
220.720790
 30
0.0
 10
266.558004
 20
220.365799
 30
0.0
  0
SPLINE
  5
198
100
AcDbEntity
  8
Layer_1
 62
1
100
AcDbSpline
 70
8
 71
3
 72
8
 73
4
 74
0
 40
0
 40
0
 40
0
 40
0
 40
1
 40
1
 40
1
 40
1
 10
266.558004
 20
220.365799
 30
0.0
 10
266.410963
 20
220.010809
 30
0.0
 10
266.492240
 20
219.602197
 30
0.0
 10
266.763939
 20
219.330499
 30
0.0
  0
SPLINE
  5
199
100
AcDbEntity
  8
Layer_1
 62
1
100
AcDbSpline
 70
8
 71
3
 72
8
 73
4
 74
0
 40
0
 40
0
 40
0
 40
0
 40
1
 40
1
 40
1
 40
1
 10
266.763939
 20
219.330499
 30
0.0
 10
267.035637
 20
219.058800
 30
0.0
 10
267.444249
 20
218.977523
 30
0.0
 10
267.799239
 20
219.124564
 30
0.0
  0
SPLINE
  5
19a
100
AcDbEntity
  8
Layer_1
 62
1
100
AcDbSpline
 70
8
 71
3
 72
8
 73
4
 74
0
 40
0
 40
0
 40
0
 40
0
 40
1
 40
1
 40
1
 40
1
 10
267.799239
 20
219.124564
 30
0.0
 10
268.154230
 20
219.271606
 30
0.0
 10
268.385690
 20
219.618011
 30
0.0
 10
268.385690
 20
220.002250
 30
0.0
  0
SPLINE
  5
19b
100
AcDbEntity
  8
Layer_1
 62
1
100
AcDbSpline
 70
8
 71
3
 72
8
 73
4
 74
0
 40
0
 40
0
 40
0
 40
0
 40
1
 40
1
 40
1
 40
1
 10
268.385690
 20
220.002250
 30
0.0
 10
268.385690
 20
220.254206
 30
0.0
 10
268.285601
 20
220.495842
 30
0.0
 10
268.107441
 20
220.674001
 30
0.0
  0
SPLINE
  5
19c
100
AcDbEntity
  8
Layer_1
 62
1
100
AcDbSpline
 70
8
 71
3
 72
8
 73
4
 74
0
 40
0
 40
0
 40
0
 40
0
 40
1
 40
1
 40
1
 40
1
 10
268.107441
 20
220.674001
 30
0.0
 10
267.929282
 20
220.852161
 30
0.0
 10
267.687646
 20
220.952250
 30
0.0
 10
267.435690
 20
220.952250
 30
0.0
  0
LINE
  5
19d
100
AcDbEntity
  8
Layer_1
 62
1
100
AcDbLine
 10
267.435690
 20
220.952250
 30
0.0
 11
267.435690
 21
220.952250
 31
0.0
  0
SPLINE
  5
19e
100
AcDbEntity
  8
Layer_1
 62
1
100
AcDbSpline
 70
8
 71
3
 72
8
 73
4
 74
0
 40
0
 40
0
 40
0
 40
0
 40
1
 40
1
 40
1
 40
1
 10
267.435690
 20
123.616670
 30
0.0
 10
267.051451
 20
123.616670
 30
0.0
 10
266.705046
 20
123.385210
 30
0.0
 10
266.558004
 20
123.030219
 30
0.0
  0
SPLINE
  5
19f
100
AcDbEntity
  8
Layer_1
 62
1
100
AcDbSpline
 70
8
 71
3
 72
8
 73
4
 74
0
 40
0
 40
0
 40
0
 40
0
 40
1
 40
1
 40
1
 40
1
 10
266.558004
 20
123.030219
 30
0.0
 10
266.410963
 20
122.675229
 30
0.0
 10
266.492240
 20
122.266617
 30
0.0
 10
266.763939
 20
121.994919
 30
0.0
  0
SPLINE
  5
1a0
100
AcDbEntity
  8
Layer_1
 62
1
100
AcDbSpline
 70
8
 71
3
 72
8
 73
4
 74
0
 40
0
 40
0
 40
0
 40
0
 40
1
 40
1
 40
1
 40
1
 10
266.763939
 20
121.994919
 30
0.0
 10
267.035637
 20
121.723220
 30
0.0
 10
267.444249
 20
121.641943
 30
0.0
 10
267.799239
 20
121.788984
 30
0.0
  0
SPLINE
  5
1a1
100
AcDbEntity
  8
Layer_1
 62
1
100
AcDbSpline
 70
8
 71
3
 72
8
 73
4
 74
0
 40
0
 40
0
 40
0
 40
0
 40
1
 40
1
 40
1
 40
1
 10
267.799239
 20
121.788984
 30
0.0
 10
268.154230
 20
121.936026
 30
0.0
 10
268.385690
 20
122.282431
 30
0.0
 10
268.385690
 20
122.666670
 30
0.0
  0
SPLINE
  5
1a2
100
AcDbEntity
  8
Layer_1
 62
1
100
AcDbSpline
 70
8
 71
3
 72
8
 73
4
 74
0
 40
0
 40
0
 40
0
 40
0
 40
1
 40
1
 40
1
 40
1
 10
268.385690
 20
122.666670
 30
0.0
 10
268.385690
 20
122.918626
 30
0.0
 10
268.285601
 20
123.160262
 30
0.0
 10
268.107441
 20
123.338421
 30
0.0
  0
SPLINE
  5
1a3
100
AcDbEntity
  8
Layer_1
 62
1
100
AcDbSpline
 70
8
 71
3
 72
8
 73
4
 74
0
 40
0
 40
0
 40
0
 40
0
 40
1
 40
1
 40
1
 40
1
 10
268.107441
 20
123.338421
 30
0.0
 10
267.929282
 20
123.516581
 30
0.0
 10
267.687646
 20
123.616670
 30
0.0
 10
267.435690
 20
123.616670
 30
0.0
  0
LINE
  5
1a4
100
AcDbEntity
  8
Layer_1
 62
1
100
AcDbLine
 10
267.435690
 20
123.616670
 30
0.0
 11
267.435690
 21
123.616670
 31
0.0
  0
SPLINE
  5
1a5
100
AcDbEntity
  8
Layer_1
 62
1
100
AcDbSpline
 70
8
 71
3
 72
8
 73
4
 74
0
 40
0
 40
0
 40
0
 40
0
 40
1
 40
1
 40
1
 40
1
 10
267.435690
 20
177.534860
 30
0.0
 10
267.051451
 20
177.534860
 30
0.0
 10
266.705046
 20
177.303400
 30
0.0
 10
266.558004
 20
176.948409
 30
0.0
  0
SPLINE
  5
1a6
100
AcDbEntity
  8
Layer_1
 62
1
100
AcDbSpline
 70
8
 71
3
 72
8
 73
4
 74
0
 40
0
 40
0
 40
0
 40
0
 40
1
 40
1
 40
1
 40
1
 10
266.558004
 20
176.948409
 30
0.0
 10
266.410963
 20
176.593419
 30
0.0
 10
266.492240
 20
176.184807
 30
0.0
 10
266.763939
 20
175.913109
 30
0.0
  0
SPLINE
  5
1a7
100
AcDbEntity
  8
Layer_1
 62
1
100
AcDbSpline
 70
8
 71
3
 72
8
 73
4
 74
0
 40
0
 40
0
 40
0
 40
0
 40
1
 40
1
 40
1
 40
1
 10
266.763939
 20
175.913109
 30
0.0
 10
267.035637
 20
175.641410
 30
0.0
 10
267.444249
 20
175.560133
 30
0.0
 10
267.799239
 20
175.707174
 30
0.0
  0
SPLINE
  5
1a8
100
AcDbEntity
  8
Layer_1
 62
1
100
AcDbSpline
 70
8
 71
3
 72
8
 73
4
 74
0
 40
0
 40
0
 40
0
 40
0
 40
1
 40
1
 40
1
 40
1
 10
267.799239
 20
175.707174
 30
0.0
 10
268.154230
 20
175.854216
 30
0.0
 10
268.385690
 20
176.200621
 30
0.0
 10
268.385690
 20
176.584860
 30
0.0
  0
SPLINE
  5
1a9
100
AcDbEntity
  8
Layer_1
 62
1
100
AcDbSpline
 70
8
 71
3
 72
8
 73
4
 74
0
 40
0
 40
0
 40
0
 40
0
 40
1
 40
1
 40
1
 40
1
 10
268.385690
 20
176.584860
 30
0.0
 10
268.385690
 20
176.836816
 30
0.0
 10
268.285601
 20
177.078452
 30
0.0
 10
268.107441
 20
177.256611
 30
0.0
  0
SPLINE
  5
1aa
100
AcDbEntity
  8
Layer_1
 62
1
100
AcDbSpline
 70
8
 71
3
 72
8
 73
4
 74
0
 40
0
 40
0
 40
0
 40
0
 40
1
 40
1
 40
1
 40
1
 10
268.107441
 20
177.256611
 30
0.0
 10
267.929282
 20
177.434771
 30
0.0
 10
267.687646
 20
177.534860
 30
0.0
 10
267.435690
 20
177.534860
 30
0.0
  0
LINE
  5
1ab
100
AcDbEntity
  8
Layer_1
 62
1
100
AcDbLine
 10
267.435690
 20
177.534860
 30
0.0
 11
267.435690
 21
177.534860
 31
0.0
  0
SPLINE
  5
1ac
100
AcDbEntity
  8
Layer_1
 62
1
100
AcDbSpline
 70
8
 71
3
 72
8
 73
4
 74
0
 40
0
 40
0
 40
0
 40
0
 40
1
 40
1
 40
1
 40
1
 10
418.537450
 20
123.595860
 30
0.0
 10
418.921689
 20
123.595860
 30
0.0
 10
419.268094
 20
123.364400
 30
0.0
 10
419.415136
 20
123.009409
 30
0.0
  0
SPLINE
  5
1ad
100
AcDbEntity
  8
Layer_1
 62
1
100
AcDbSpline
 70
8
 71
3
 72
8
 73
4
 74
0
 40
0
 40
0
 40
0
 40
0
 40
1
 40
1
 40
1
 40
1
 10
419.415136
 20
123.009409
 30
0.0
 10
419.562177
 20
122.654419
 30
0.0
 10
419.480900
 20
122.245807
 30
0.0
 10
419.209201
 20
121.974109
 30
0.0
  0
SPLINE
  5
1ae
100
AcDbEntity
  8
Layer_1
 62
1
100
AcDbSpline
 70
8
 71
3
 72
8
 73
4
 74
0
 40
0
 40
0
 40
0
 40
0
 40
1
 40
1
 40
1
 40
1
 10
419.209201
 20
121.974109
 30
0.0
 10
418.937503
 20
121.702410
 30
0.0
 10
418.528891
 20
121.621133
 30
0.0
 10
418.173901
 20
121.768174
 30
0.0
  0
SPLINE
  5
1af
100
AcDbEntity
  8
Layer_1
 62
1
100
AcDbSpline
 70
8
 71
3
 72
8
 73
4
 74
0
 40
0
 40
0
 40
0
 40
0
 40
1
 40
1
 40
1
 40
1
 10
418.173901
 20
121.768174
 30
0.0
 10
417.818910
 20
121.915216
 30
0.0
 10
417.587450
 20
122.261621
 30
0.0
 10
417.587450
 20
122.645860
 30
0.0
  0
SPLINE
  5
1b0
100
AcDbEntity
  8
Layer_1
 62
1
100
AcDbSpline
 70
8
 71
3
 72
8
 73
4
 74
0
 40
0
 40
0
 40
0
 40
0
 40
1
 40
1
 40
1
 40
1
 10
417.587450
 20
122.645860
 30
0.0
 10
417.587450
 20
123.170531
 30
0.0
 10
418.012779
 20
123.595860
 30
0.0
 10
418.537450
 20
123.595860
 30
0.0
  0
LINE
  5
1b1
100
AcDbEntity
  8
Layer_1
 62
1
100
AcDbLine
 10
418.537450
 20
123.595860
 30
0.0
 11
418.537450
 21
123.595860
 31
0.0
  0
SPLINE
  5
1b2
100
AcDbEntity
  8
Layer_1
 62
1
100
AcDbSpline
 70
8
 71
3
 72
8
 73
4
 74
0
 40
0
 40
0
 40
0
 40
0
 40
1
 40
1
 40
1
 40
1
 10
418.537450
 20
212.429330
 30
0.0
 10
418.921689
 20
212.429330
 30
0.0
 10
419.268094
 20
212.197870
 30
0.0
 10
419.415136
 20
211.842879
 30
0.0
  0
SPLINE
  5
1b3
100
AcDbEntity
  8
Layer_1
 62
1
100
AcDbSpline
 70
8
 71
3
 72
8
 73
4
 74
0
 40
0
 40
0
 40
0
 40
0
 40
1
 40
1
 40
1
 40
1
 10
419.415136
 20
211.842879
 30
0.0
 10
419.562177
 20
211.487889
 30
0.0
 10
419.480900
 20
211.079277
 30
0.0
 10
419.209201
 20
210.807579
 30
0.0
  0
SPLINE
  5
1b4
100
AcDbEntity
  8
Layer_1
 62
1
100
AcDbSpline
 70
8
 71
3
 72
8
 73
4
 74
0
 40
0
 40
0
 40
0
 40
0
 40
1
 40
1
 40
1
 40
1
 10
419.209201
 20
210.807579
 30
0.0
 10
418.937503
 20
210.535880
 30
0.0
 10
418.528891
 20
210.454603
 30
0.0
 10
418.173901
 20
210.601644
 30
0.0
  0
SPLINE
  5
1b5
100
AcDbEntity
  8
Layer_1
 62
1
100
AcDbSpline
 70
8
 71
3
 72
8
 73
4
 74
0
 40
0
 40
0
 40
0
 40
0
 40
1
 40
1
 40
1
 40
1
 10
418.173901
 20
210.601644
 30
0.0
 10
417.818910
 20
210.748686
 30
0.0
 10
417.587450
 20
211.095091
 30
0.0
 10
417.587450
 20
211.479330
 30
0.0
  0
SPLINE
  5
1b6
100
AcDbEntity
  8
Layer_1
 62
1
100
AcDbSpline
 70
8
 71
3
 72
8
 73
4
 74
0
 40
0
 40
0
 40
0
 40
0
 40
1
 40
1
 40
1
 40
1
 10
417.587450
 20
211.479330
 30
0.0
 10
417.587450
 20
212.004001
 30
0.0
 10
418.012779
 20
212.429330
 30
0.0
 10
418.537450
 20
212.429330
 30
0.0
  0
LINE
  5
1b7
100
AcDbEntity
  8
Layer_1
 62
1
100
AcDbLine
 10
418.537450
 20
212.429330
 30
0.0
 11
418.537450
 21
212.429330
 31
0.0
  0
SPLINE
  5
1b8
100
AcDbEntity
  8
Layer_1
 62
1
100
AcDbSpline
 70
8
 71
3
 72
8
 73
4
 74
0
 40
0
 40
0
 40
0
 40
0
 40
1
 40
1
 40
1
 40
1
 10
290.323310
 20
220.952250
 30
0.0
 10
290.707549
 20
220.952250
 30
0.0
 10
291.053954
 20
220.720790
 30
0.0
 10
291.200996
 20
220.365799
 30
0.0
  0
SPLINE
  5
1b9
100
AcDbEntity
  8
Layer_1
 62
1
100
AcDbSpline
 70
8
 71
3
 72
8
 73
4
 74
0
 40
0
 40
0
 40
0
 40
0
 40
1
 40
1
 40
1
 40
1
 10
291.200996
 20
220.365799
 30
0.0
 10
291.348037
 20
220.010809
 30
0.0
 10
291.266760
 20
219.602197
 30
0.0
 10
290.995061
 20
219.330499
 30
0.0
  0
SPLINE
  5
1ba
100
AcDbEntity
  8
Layer_1
 62
1
100
AcDbSpline
 70
8
 71
3
 72
8
 73
4
 74
0
 40
0
 40
0
 40
0
 40
0
 40
1
 40
1
 40
1
 40
1
 10
290.995061
 20
219.330499
 30
0.0
 10
290.723363
 20
219.058800
 30
0.0
 10
290.314751
 20
218.977523
 30
0.0
 10
289.959761
 20
219.124564
 30
0.0
  0
SPLINE
  5
1bb
100
AcDbEntity
  8
Layer_1
 62
1
100
AcDbSpline
 70
8
 71
3
 72
8
 73
4
 74
0
 40
0
 40
0
 40
0
 40
0
 40
1
 40
1
 40
1
 40
1
 10
289.959761
 20
219.124564
 30
0.0
 10
289.604770
 20
219.271606
 30
0.0
 10
289.373310
 20
219.618011
 30
0.0
 10
289.373310
 20
220.002250
 30
0.0
  0
SPLINE
  5
1bc
100
AcDbEntity
  8
Layer_1
 62
1
100
AcDbSpline
 70
8
 71
3
 72
8
 73
4
 74
0
 40
0
 40
0
 40
0
 40
0
 40
1
 40
1
 40
1
 40
1
 10
289.373310
 20
220.002250
 30
0.0
 10
289.373310
 20
220.254206
 30
0.0
 10
289.473399
 20
220.495842
 30
0.0
 10
289.651559
 20
220.674001
 30
0.0
  0
SPLINE
  5
1bd
100
AcDbEntity
  8
Layer_1
 62
1
100
AcDbSpline
 70
8
 71
3
 72
8
 73
4
 74
0
 40
0
 40
0
 40
0
 40
0
 40
1
 40
1
 40
1
 40
1
 10
289.651559
 20
220.674001
 30
0.0
 10
289.829718
 20
220.852161
 30
0.0
 10
290.071354
 20
220.952250
 30
0.0
 10
290.323310
 20
220.952250
 30
0.0
  0
LINE
  5
1be
100
AcDbEntity
  8
Layer_1
 62
1
100
AcDbLine
 10
290.323310
 20
220.952250
 30
0.0
 11
290.323310
 21
220.952250
 31
0.0
  0
SPLINE
  5
1bf
100
AcDbEntity
  8
Layer_1
 62
1
100
AcDbSpline
 70
8
 71
3
 72
8
 73
4
 74
0
 40
0
 40
0
 40
0
 40
0
 40
1
 40
1
 40
1
 40
1
 10
290.323310
 20
123.616670
 30
0.0
 10
290.707549
 20
123.616670
 30
0.0
 10
291.053954
 20
123.385210
 30
0.0
 10
291.200996
 20
123.030219
 30
0.0
  0
SPLINE
  5
1c0
100
AcDbEntity
  8
Layer_1
 62
1
100
AcDbSpline
 70
8
 71
3
 72
8
 73
4
 74
0
 40
0
 40
0
 40
0
 40
0
 40
1
 40
1
 40
1
 40
1
 10
291.200996
 20
123.030219
 30
0.0
 10
291.348037
 20
122.675229
 30
0.0
 10
291.266760
 20
122.266617
 30
0.0
 10
290.995061
 20
121.994919
 30
0.0
  0
SPLINE
  5
1c1
100
AcDbEntity
  8
Layer_1
 62
1
100
AcDbSpline
 70
8
 71
3
 72
8
 73
4
 74
0
 40
0
 40
0
 40
0
 40
0
 40
1
 40
1
 40
1
 40
1
 10
290.995061
 20
121.994919
 30
0.0
 10
290.723363
 20
121.723220
 30
0.0
 10
290.314751
 20
121.641943
 30
0.0
 10
289.959761
 20
121.788984
 30
0.0
  0
SPLINE
  5
1c2
100
AcDbEntity
  8
Layer_1
 62
1
100
AcDbSpline
 70
8
 71
3
 72
8
 73
4
 74
0
 40
0
 40
0
 40
0
 40
0
 40
1
 40
1
 40
1
 40
1
 10
289.959761
 20
121.788984
 30
0.0
 10
289.604770
 20
121.936026
 30
0.0
 10
289.373310
 20
122.282431
 30
0.0
 10
289.373310
 20
122.666670
 30
0.0
  0
SPLINE
  5
1c3
100
AcDbEntity
  8
Layer_1
 62
1
100
AcDbSpline
 70
8
 71
3
 72
8
 73
4
 74
0
 40
0
 40
0
 40
0
 40
0
 40
1
 40
1
 40
1
 40
1
 10
289.373310
 20
122.666670
 30
0.0
 10
289.373310
 20
122.918626
 30
0.0
 10
289.473399
 20
123.160262
 30
0.0
 10
289.651559
 20
123.338421
 30
0.0
  0
SPLINE
  5
1c4
100
AcDbEntity
  8
Layer_1
 62
1
100
AcDbSpline
 70
8
 71
3
 72
8
 73
4
 74
0
 40
0
 40
0
 40
0
 40
0
 40
1
 40
1
 40
1
 40
1
 10
289.651559
 20
123.338421
 30
0.0
 10
289.829718
 20
123.516581
 30
0.0
 10
290.071354
 20
123.616670
 30
0.0
 10
290.323310
 20
123.616670
 30
0.0
  0
LINE
  5
1c5
100
AcDbEntity
  8
Layer_1
 62
1
100
AcDbLine
 10
290.323310
 20
123.616670
 30
0.0
 11
290.323310
 21
123.616670
 31
0.0
  0
SPLINE
  5
1c6
100
AcDbEntity
  8
Layer_1
 62
1
100
AcDbSpline
 70
8
 71
3
 72
8
 73
4
 74
0
 40
0
 40
0
 40
0
 40
0
 40
1
 40
1
 40
1
 40
1
 10
290.323310
 20
177.534860
 30
0.0
 10
290.707549
 20
177.534860
 30
0.0
 10
291.053954
 20
177.303400
 30
0.0
 10
291.200996
 20
176.948409
 30
0.0
  0
SPLINE
  5
1c7
100
AcDbEntity
  8
Layer_1
 62
1
100
AcDbSpline
 70
8
 71
3
 72
8
 73
4
 74
0
 40
0
 40
0
 40
0
 40
0
 40
1
 40
1
 40
1
 40
1
 10
291.200996
 20
176.948409
 30
0.0
 10
291.348037
 20
176.593419
 30
0.0
 10
291.266760
 20
176.184807
 30
0.0
 10
290.995061
 20
175.913109
 30
0.0
  0
SPLINE
  5
1c8
100
AcDbEntity
  8
Layer_1
 62
1
100
AcDbSpline
 70
8
 71
3
 72
8
 73
4
 74
0
 40
0
 40
0
 40
0
 40
0
 40
1
 40
1
 40
1
 40
1
 10
290.995061
 20
175.913109
 30
0.0
 10
290.723363
 20
175.641410
 30
0.0
 10
290.314751
 20
175.560133
 30
0.0
 10
289.959761
 20
175.707174
 30
0.0
  0
SPLINE
  5
1c9
100
AcDbEntity
  8
Layer_1
 62
1
100
AcDbSpline
 70
8
 71
3
 72
8
 73
4
 74
0
 40
0
 40
0
 40
0
 40
0
 40
1
 40
1
 40
1
 40
1
 10
289.959761
 20
175.707174
 30
0.0
 10
289.604770
 20
175.854216
 30
0.0
 10
289.373310
 20
176.200621
 30
0.0
 10
289.373310
 20
176.584860
 30
0.0
  0
SPLINE
  5
1ca
100
AcDbEntity
  8
Layer_1
 62
1
100
AcDbSpline
 70
8
 71
3
 72
8
 73
4
 74
0
 40
0
 40
0
 40
0
 40
0
 40
1
 40
1
 40
1
 40
1
 10
289.373310
 20
176.584860
 30
0.0
 10
289.373310
 20
176.836816
 30
0.0
 10
289.473399
 20
177.078452
 30
0.0
 10
289.651559
 20
177.256611
 30
0.0
  0
SPLINE
  5
1cb
100
AcDbEntity
  8
Layer_1
 62
1
100
AcDbSpline
 70
8
 71
3
 72
8
 73
4
 74
0
 40
0
 40
0
 40
0
 40
0
 40
1
 40
1
 40
1
 40
1
 10
289.651559
 20
177.256611
 30
0.0
 10
289.829718
 20
177.434771
 30
0.0
 10
290.071354
 20
177.534860
 30
0.0
 10
290.323310
 20
177.534860
 30
0.0
  0
LINE
  5
1cc
100
AcDbEntity
  8
Layer_1
 62
1
100
AcDbLine
 10
290.323310
 20
177.534860
 30
0.0
 11
290.323310
 21
177.534860
 31
0.0
  0
ENDSEC
  0
SECTION
  2
OBJECTS
  0
DICTIONARY
  5
C
330
0
100
AcDbDictionary
  3
ACAD_GROUP
350
D
  3
ACAD_MLINESTYLE
350
17
  0
DICTIONARY
  5
D
330
C
100
AcDbDictionary
  0
DICTIONARY
  5
1A
330
C
100
AcDbDictionary
  0
DICTIONARY
  5
17
330
C
100
AcDbDictionary
  3
STANDARD
350
18
  0
DICTIONARY
  5
19
330
C
100
AcDbDictionary
  0
ENDSEC
  0
EOF
