  0
SECTION
  2
HEADER
  9
$ACADVER
  1
AC1014
  9
$HANDSEED
  5
FFFF
  9
$INSUNITS
 70
     0
  9
$MEASUREMENT
 70
     1
  0
ENDSEC
  0
SECTION
  2
TABLES
  0
TABLE
  2
VPORT
  5
8
330
0
100
AcDbSymbolTable
 70
     4
  0
VPORT
  5
2E
330
8
100
AcDbSymbolTableRecord
100
AcDbViewportTableRecord
  2
*ACTIVE
 70
     0
 10
0.0
 20
0.0
 11
1.0
 21
1.0
 12
210.0
 22
148.5
 13
0.0
 23
0.0
 14
10.0
 24
10.0
 15
10.0
 25
10.0
 16
0.0
 26
0.0
 36
1.0
 17
0.0
 27
0.0
 37
0.0
 40
341.0
 41
1.24
 42
50.0
 43
0.0
 44
0.0
 50
0.0
 51
0.0
 71
     0
 72
   100
 73
     1
 74
     3
 75
     0
 76
     0
 77
     0
 78
     0
  0
ENDTAB
  0
TABLE
  2
LTYPE
  5
5
330
0
100
AcDbSymbolTable
 70
     1
  0
LTYPE
  5
14
330
5
100
AcDbSymbolTableRecord
100
AcDbLinetypeTableRecord
  2
BYBLOCK
 70
     0
  3

 72
    65
 73
     0
 40
0.0
  0
LTYPE
  5
15
330
5
100
AcDbSymbolTableRecord
100
AcDbLinetypeTableRecord
  2
BYLAYER
 70
     0
  3

 72
    65
 73
     0
 40
0.0
  0
LTYPE
  5
16
330
5
100
AcDbSymbolTableRecord
100
AcDbLinetypeTableRecord
  2
CONTINUOUS
 70
     0
  3
Solid line
 72
    65
 73
     0
 40
0.0
  0
ENDTAB
  0
TABLE
  2
LAYER
  5
2
100
AcDbSymbolTable
 70
2
  0
LAYER
  5
50
100
AcDbSymbolTableRecord
100
AcDbLayerTableRecord
  2
0
 70
0
  6
CONTINUOUS
  0
LAYER
  5
51
100
AcDbSymbolTableRecord
100
AcDbLayerTableRecord
  2
Layer_1
 70
0
  6
CONTINUOUS
  0
ENDTAB
  0
TABLE
  2
STYLE
  5
3
330
0
100
AcDbSymbolTable
 70
     1
  0
STYLE
  5
11
330
3
100
AcDbSymbolTableRecord
100
AcDbTextStyleTableRecord
  2
STANDARD
 70
     0
 40
0.0
 41
1.0
 50
0.0
 71
     0
 42
2.5
  3
txt
  4

  0
ENDTAB
  0
TABLE
  2
VIEW
  5
6
330
0
100
AcDbSymbolTable
 70
     0
  0
ENDTAB
  0
TABLE
  2
UCS
  5
7
330
0
100
AcDbSymbolTable
 70
     0
  0
ENDTAB
  0
TABLE
  2
APPID
  5
9
330
0
100
AcDbSymbolTable
 70
     2
  0
APPID
  5
12
330
9
100
AcDbSymbolTableRecord
100
AcDbRegAppTableRecord
  2
ACAD
 70
     0
  0
ENDTAB
  0
TABLE
  2
DIMSTYLE
  5
A
330
0
100
AcDbSymbolTable
 70
     1
  0
DIMSTYLE
105
27
330
A
100
AcDbSymbolTableRecord
100
AcDbDimStyleTableRecord
  2
ISO-25
 70
     0
  3

  4

  5

  6

  7

 40
1.0
 41
2.5
 42
0.625
 43
3.75
 44
1.25
 45
0.0
 46
0.0
 47
0.0
 48
0.0
140
2.5
141
2.5
142
0.0
143
0.03937007874016
144
1.0
145
0.0
146
1.0
147
0.625
 71
     0
 72
     0
 73
     0
 74
     0
 75
     0
 76
     0
 77
     1
 78
     8
170
     0
171
     3
172
     1
173
     0
174
     0
175
     0
176
     0
177
     0
178
     0
270
     2
271
     2
272
     2
273
     2
274
     3
340
11
275
     0
280
     0
281
     0
282
     0
283
     0
284
     8
285
     0
286
     0
287
     3
288
     0
  0
ENDTAB
  0
TABLE
  2
BLOCK_RECORD
  5
1
330
0
100
AcDbSymbolTable
 70
     1
  0
BLOCK_RECORD
  5
1F
330
1
100
AcDbSymbolTableRecord
100
AcDbBlockTableRecord
  2
*MODEL_SPACE
  0
BLOCK_RECORD
  5
1B
330
1
100
AcDbSymbolTableRecord
100
AcDbBlockTableRecord
  2
*PAPER_SPACE
  0
ENDTAB
  0
ENDSEC
  0
SECTION
  2
BLOCKS
  0
BLOCK
  5
20
330
1F
100
AcDbEntity
  8
0
100
AcDbBlockBegin
  2
*MODEL_SPACE
 70
     0
 10
0.0
 20
0.0
 30
0.0
  3
*MODEL_SPACE
  1

  0
ENDBLK
  5
21
330
1F
100
AcDbEntity
  8
0
100
AcDbBlockEnd
  0
BLOCK
  5
1C
330
1B
100
AcDbEntity
 67
     1
  8
0
100
AcDbBlockBegin
  2
*PAPER_SPACE
  1

  0
ENDBLK
  5
1D
330
1B
100
AcDbEntity
 67
     1
  8
0
100
AcDbBlockEnd
  0
ENDSEC
  0
SECTION
  2
ENTITIES
  0
LINE
  5
100
100
AcDbEntity
  8
Layer_1
 62
5
100
AcDbLine
 10
79.637530
 20
158.857350
 30
0.0
 11
79.637530
 21
93.292420
 31
0.0
  0
SPLINE
  5
101
100
AcDbEntity
  8
Layer_1
 62
5
100
AcDbSpline
 70
8
 71
3
 72
8
 73
4
 74
0
 40
0
 40
0
 40
0
 40
0
 40
1
 40
1
 40
1
 40
1
 10
79.637530
 20
93.292420
 30
0.0
 10
79.637530
 20
92.616278
 30
0.0
 10
79.913187
 20
91.969360
 30
0.0
 10
80.400860
 20
91.501020
 30
0.0
  0
LINE
  5
102
100
AcDbEntity
  8
Layer_1
 62
5
100
AcDbLine
 10
80.400860
 20
91.501020
 30
0.0
 11
82.067300
 21
89.900660
 31
0.0
  0
SPLINE
  5
103
100
AcDbEntity
  8
Layer_1
 62
5
100
AcDbSpline
 70
8
 71
3
 72
8
 73
4
 74
0
 40
0
 40
0
 40
0
 40
0
 40
1
 40
1
 40
1
 40
1
 10
82.067300
 20
89.900660
 30
0.0
 10
82.557095
 20
89.430284
 30
0.0
 10
83.209877
 20
89.167638
 30
0.0
 10
83.888960
 20
89.167720
 30
0.0
  0
LINE
  5
104
100
AcDbEntity
  8
Layer_1
 62
5
100
AcDbLine
 10
83.888960
 20
89.167720
 30
0.0
 11
178.146820
 21
89.179320
 31
0.0
  0
SPLINE
  5
105
100
AcDbEntity
  8
Layer_1
 62
5
100
AcDbSpline
 70
8
 71
3
 72
8
 73
4
 74
0
 40
0
 40
0
 40
0
 40
0
 40
1
 40
1
 40
1
 40
1
 10
178.146820
 20
89.179320
 30
0.0
 10
178.852373
 20
89.179408
 30
0.0
 10
179.557927
 20
89.179508
 30
0.0
 10
180.263480
 20
89.179620
 30
0.0
  0
LINE
  5
106
100
AcDbEntity
  8
Layer_1
 62
5
100
AcDbLine
 10
180.263480
 20
89.179620
 30
0.0
 11
197.276750
 21
89.182620
 31
0.0
  0
SPLINE
  5
107
100
AcDbEntity
  8
Layer_1
 62
5
100
AcDbSpline
 70
8
 71
3
 72
8
 73
4
 74
0
 40
0
 40
0
 40
0
 40
0
 40
1
 40
1
 40
1
 40
1
 10
197.276750
 20
89.182620
 30
0.0
 10
197.982303
 20
89.182732
 30
0.0
 10
198.687857
 20
89.182849
 30
0.0
 10
199.393410
 20
89.182970
 30
0.0
  0
LINE
  5
108
100
AcDbEntity
  8
Layer_1
 62
5
100
AcDbLine
 10
199.393410
 20
89.182970
 30
0.0
 11
214.971360
 21
89.185970
 31
0.0
  0
SPLINE
  5
109
100
AcDbEntity
  8
Layer_1
 62
5
100
AcDbSpline
 70
8
 71
3
 72
8
 73
4
 74
0
 40
0
 40
0
 40
0
 40
0
 40
1
 40
1
 40
1
 40
1
 10
214.971360
 20
89.185970
 30
0.0
 10
215.650771
 20
89.186086
 30
0.0
 10
216.304126
 20
89.447431
 30
0.0
 10
216.796190
 20
89.915910
 30
0.0
  0
LINE
  5
10a
100
AcDbEntity
  8
Layer_1
 62
5
100
AcDbLine
 10
216.796190
 20
89.915910
 30
0.0
 11
218.482620
 21
91.521510
 31
0.0
  0
SPLINE
  5
10b
100
AcDbEntity
  8
Layer_1
 62
5
100
AcDbSpline
 70
8
 71
3
 72
8
 73
4
 74
0
 40
0
 40
0
 40
0
 40
0
 40
1
 40
1
 40
1
 40
1
 10
218.482620
 20
91.521510
 30
0.0
 10
218.972081
 20
91.987510
 30
0.0
 10
219.249119
 20
92.633783
 30
0.0
 10
219.249120
 20
93.309600
 30
0.0
  0
LINE
  5
10c
100
AcDbEntity
  8
Layer_1
 62
5
100
AcDbLine
 10
219.249120
 20
93.309600
 30
0.0
 11
219.249120
 21
196.144010
 31
0.0
  0
SPLINE
  5
10d
100
AcDbEntity
  8
Layer_1
 62
5
100
AcDbSpline
 70
8
 71
3
 72
8
 73
4
 74
0
 40
0
 40
0
 40
0
 40
0
 40
1
 40
1
 40
1
 40
1
 10
219.249120
 20
196.144010
 30
0.0
 10
219.249118
 20
196.816574
 30
0.0
 10
218.958830
 20
197.456409
 30
0.0
 10
218.452730
 20
197.899360
 30
0.0
  0
LINE
  5
10e
100
AcDbEntity
  8
Layer_1
 62
5
100
AcDbLine
 10
218.452730
 20
197.899360
 30
0.0
 11
216.818200
 21
199.329950
 31
0.0
  0
SPLINE
  5
10f
100
AcDbEntity
  8
Layer_1
 62
5
100
AcDbSpline
 70
8
 71
3
 72
8
 73
4
 74
0
 40
0
 40
0
 40
0
 40
0
 40
1
 40
1
 40
1
 40
1
 10
216.818200
 20
199.329950
 30
0.0
 10
216.304805
 20
199.779290
 30
0.0
 10
215.645741
 20
200.026968
 30
0.0
 10
214.963480
 20
200.026960
 30
0.0
  0
LINE
  5
110
100
AcDbEntity
  8
Layer_1
 62
5
100
AcDbLine
 10
214.963480
 20
200.026960
 30
0.0
 11
200.716360
 21
200.026750
 31
0.0
  0
SPLINE
  5
111
100
AcDbEntity
  8
Layer_1
 62
5
100
AcDbSpline
 70
8
 71
3
 72
8
 73
4
 74
0
 40
0
 40
0
 40
0
 40
0
 40
1
 40
1
 40
1
 40
1
 10
200.716360
 20
200.026750
 30
0.0
 10
200.010807
 20
200.026741
 30
0.0
 10
199.305253
 20
200.026731
 30
0.0
 10
198.599700
 20
200.026720
 30
0.0
  0
LINE
  5
112
100
AcDbEntity
  8
Layer_1
 62
5
100
AcDbLine
 10
198.599700
 20
200.026720
 30
0.0
 11
181.321770
 21
200.026410
 31
0.0
  0
SPLINE
  5
113
100
AcDbEntity
  8
Layer_1
 62
5
100
AcDbSpline
 70
8
 71
3
 72
8
 73
4
 74
0
 40
0
 40
0
 40
0
 40
0
 40
1
 40
1
 40
1
 40
1
 10
181.321770
 20
200.026410
 30
0.0
 10
180.616217
 20
200.026397
 30
0.0
 10
179.910663
 20
200.026387
 30
0.0
 10
179.205110
 20
200.026380
 30
0.0
  0
LINE
  5
114
100
AcDbEntity
  8
Layer_1
 62
5
100
AcDbLine
 10
179.205110
 20
200.026380
 30
0.0
 11
83.890980
 21
200.025430
 31
0.0
  0
SPLINE
  5
115
100
AcDbEntity
  8
Layer_1
 62
5
100
AcDbSpline
 70
8
 71
3
 72
8
 73
4
 74
0
 40
0
 40
0
 40
0
 40
0
 40
1
 40
1
 40
1
 40
1
 10
83.890980
 20
200.025430
 30
0.0
 10
83.209081
 20
200.025421
 30
0.0
 10
82.550740
 20
199.775966
 30
0.0
 10
82.040060
 20
199.324090
 30
0.0
  0
LINE
  5
116
100
AcDbEntity
  8
Layer_1
 62
5
100
AcDbLine
 10
82.040060
 20
199.324090
 30
0.0
 11
80.430120
 21
197.899540
 31
0.0
  0
SPLINE
  5
117
100
AcDbEntity
  8
Layer_1
 62
5
100
AcDbSpline
 70
8
 71
3
 72
8
 73
4
 74
0
 40
0
 40
0
 40
0
 40
0
 40
1
 40
1
 40
1
 40
1
 10
80.430120
 20
197.899540
 30
0.0
 10
79.926110
 20
197.453563
 30
0.0
 10
79.637530
 20
196.812874
 30
0.0
 10
79.637530
 20
196.139880
 30
0.0
  0
LINE
  5
118
100
AcDbEntity
  8
Layer_1
 62
5
100
AcDbLine
 10
79.637530
 20
196.139880
 30
0.0
 11
79.637530
 21
181.083420
 31
0.0
  0
SPLINE
  5
119
100
AcDbEntity
  8
Layer_1
 62
5
100
AcDbSpline
 70
8
 71
3
 72
8
 73
4
 74
0
 40
0
 40
0
 40
0
 40
0
 40
1
 40
1
 40
1
 40
1
 10
79.637530
 20
181.083420
 30
0.0
 10
79.637530
 20
180.802791
 30
0.0
 10
79.749052
 20
180.533666
 30
0.0
 10
79.947546
 20
180.335290
 30
0.0
  0
SPLINE
  5
11a
100
AcDbEntity
  8
Layer_1
 62
5
100
AcDbSpline
 70
8
 71
3
 72
8
 73
4
 74
0
 40
0
 40
0
 40
0
 40
0
 40
1
 40
1
 40
1
 40
1
 10
79.947546
 20
180.335290
 30
0.0
 10
80.146039
 20
180.136915
 30
0.0
 10
80.415231
 20
180.025553
 30
0.0
 10
80.695860
 20
180.025720
 30
0.0
  0
LINE
  5
11b
100
AcDbEntity
  8
Layer_1
 62
5
100
AcDbLine
 10
80.695860
 20
180.025720
 30
0.0
 11
84.114550
 21
180.027720
 31
0.0
  0
SPLINE
  5
11c
100
AcDbEntity
  8
Layer_1
 62
5
100
AcDbSpline
 70
8
 71
3
 72
8
 73
4
 74
0
 40
0
 40
0
 40
0
 40
0
 40
1
 40
1
 40
1
 40
1
 10
84.114550
 20
180.027720
 30
0.0
 10
84.406800
 20
180.027900
 30
0.0
 10
84.880640
 20
180.028100
 30
0.0
 10
85.172890
 20
180.027990
 30
0.0
  0
SPLINE
  5
11d
100
AcDbEntity
  8
Layer_1
 62
5
100
AcDbSpline
 70
8
 71
3
 72
8
 73
4
 74
0
 40
0
 40
0
 40
0
 40
0
 40
1
 40
1
 40
1
 40
1
 10
85.172890
 20
180.027990
 30
0.0
 10
85.661910
 20
180.027810
 30
0.0
 10
86.150920
 20
180.027270
 30
0.0
 10
86.639940
 20
180.026990
 30
0.0
  0
SPLINE
  5
11e
100
AcDbEntity
  8
Layer_1
 62
5
100
AcDbSpline
 70
8
 71
3
 72
8
 73
4
 74
0
 40
0
 40
0
 40
0
 40
0
 40
1
 40
1
 40
1
 40
1
 10
86.639940
 20
180.026990
 30
0.0
 10
86.932190
 20
180.026640
 30
0.0
 10
87.406030
 20
180.026360
 30
0.0
 10
87.698280
 20
180.026380
 30
0.0
  0
LINE
  5
11f
100
AcDbEntity
  8
Layer_1
 62
5
100
AcDbLine
 10
87.698280
 20
180.026380
 30
0.0
 11
88.855540
 21
180.026440
 31
0.0
  0
SPLINE
  5
120
100
AcDbEntity
  8
Layer_1
 62
5
100
AcDbSpline
 70
8
 71
3
 72
8
 73
4
 74
0
 40
0
 40
0
 40
0
 40
0
 40
1
 40
1
 40
1
 40
1
 10
88.855540
 20
180.026440
 30
0.0
 10
89.208320
 20
180.026459
 30
0.0
 10
89.561100
 20
180.026602
 30
0.0
 10
89.913880
 20
180.026870
 30
0.0
  0
LINE
  5
121
100
AcDbEntity
  8
Layer_1
 62
5
100
AcDbLine
 10
89.913880
 20
180.026870
 30
0.0
 11
206.658500
 21
180.115670
 31
0.0
  0
SPLINE
  5
122
100
AcDbEntity
  8
Layer_1
 62
5
100
AcDbSpline
 70
8
 71
3
 72
8
 73
4
 74
0
 40
0
 40
0
 40
0
 40
0
 40
1
 40
1
 40
1
 40
1
 10
206.658500
 20
180.115670
 30
0.0
 10
207.011277
 20
180.115969
 30
0.0
 10
207.364054
 20
180.116636
 30
0.0
 10
207.716830
 20
180.117670
 30
0.0
  0
LINE
  5
123
100
AcDbEntity
  8
Layer_1
 62
5
100
AcDbLine
 10
207.716830
 20
180.117670
 30
0.0
 11
211.618760
 21
180.128770
 31
0.0
  0
SPLINE
  5
124
100
AcDbEntity
  8
Layer_1
 62
5
100
AcDbSpline
 70
8
 71
3
 72
8
 73
4
 74
0
 40
0
 40
0
 40
0
 40
0
 40
1
 40
1
 40
1
 40
1
 10
211.618760
 20
180.128770
 30
0.0
 10
211.971536
 20
180.129770
 30
0.0
 10
212.324313
 20
180.130437
 30
0.0
 10
212.677090
 20
180.130770
 30
0.0
  0
LINE
  5
125
100
AcDbEntity
  8
Layer_1
 62
5
100
AcDbLine
 10
212.677090
 20
180.130770
 30
0.0
 11
213.723510
 21
180.131770
 31
0.0
  0
SPLINE
  5
126
100
AcDbEntity
  8
Layer_1
 62
5
100
AcDbSpline
 70
8
 71
3
 72
8
 73
4
 74
0
 40
0
 40
0
 40
0
 40
0
 40
1
 40
1
 40
1
 40
1
 10
213.723510
 20
180.131770
 30
0.0
 10
214.015760
 20
180.132040
 30
0.0
 10
214.252690
 20
179.895350
 30
0.0
 10
214.252690
 20
179.603100
 30
0.0
  0
SPLINE
  5
127
100
AcDbEntity
  8
Layer_1
 62
5
100
AcDbSpline
 70
8
 71
3
 72
8
 73
4
 74
0
 40
0
 40
0
 40
0
 40
0
 40
1
 40
1
 40
1
 40
1
 10
214.252690
 20
179.603100
 30
0.0
 10
214.253230
 20
154.230010
 30
0.0
 10
214.252440
 20
128.565940
 30
0.0
 10
214.250690
 20
103.195050
 30
0.0
  0
SPLINE
  5
128
100
AcDbEntity
  8
Layer_1
 62
5
100
AcDbSpline
 70
8
 71
3
 72
8
 73
4
 74
0
 40
0
 40
0
 40
0
 40
0
 40
1
 40
1
 40
1
 40
1
 10
214.250690
 20
103.195050
 30
0.0
 10
214.250670
 20
102.902800
 30
0.0
 10
214.013730
 20
102.665990
 30
0.0
 10
213.721480
 20
102.666130
 30
0.0
  0
LINE
  5
129
100
AcDbEntity
  8
Layer_1
 62
5
100
AcDbLine
 10
213.721480
 20
102.666130
 30
0.0
 11
212.677090
 21
102.666630
 31
0.0
  0
SPLINE
  5
12a
100
AcDbEntity
  8
Layer_1
 62
5
100
AcDbSpline
 70
8
 71
3
 72
8
 73
4
 74
0
 40
0
 40
0
 40
0
 40
0
 40
1
 40
1
 40
1
 40
1
 10
212.677090
 20
102.666630
 30
0.0
 10
212.324309
 20
102.666953
 30
0.0
 10
211.971529
 20
102.667620
 30
0.0
 10
211.618750
 20
102.668630
 30
0.0
  0
LINE
  5
12b
100
AcDbEntity
  8
Layer_1
 62
5
100
AcDbLine
 10
211.618750
 20
102.668630
 30
0.0
 11
176.214250
 21
102.754330
 31
0.0
  0
SPLINE
  5
12c
100
AcDbEntity
  8
Layer_1
 62
5
100
AcDbSpline
 70
8
 71
3
 72
8
 73
4
 74
0
 40
0
 40
0
 40
0
 40
0
 40
1
 40
1
 40
1
 40
1
 10
176.214250
 20
102.754330
 30
0.0
 10
175.922000
 20
102.755040
 30
0.0
 10
175.448160
 20
102.756330
 30
0.0
 10
175.155910
 20
102.756330
 30
0.0
  0
SPLINE
  5
12d
100
AcDbEntity
  8
Layer_1
 62
5
100
AcDbSpline
 70
8
 71
3
 72
8
 73
4
 74
0
 40
0
 40
0
 40
0
 40
0
 40
1
 40
1
 40
1
 40
1
 10
175.155910
 20
102.756330
 30
0.0
 10
160.572510
 20
102.779630
 30
0.0
 10
145.989060
 20
102.764330
 30
0.0
 10
131.405640
 20
102.763330
 30
0.0
  0
SPLINE
  5
12e
100
AcDbEntity
  8
Layer_1
 62
5
100
AcDbSpline
 70
8
 71
3
 72
8
 73
4
 74
0
 40
0
 40
0
 40
0
 40
0
 40
1
 40
1
 40
1
 40
1
 10
131.405640
 20
102.763330
 30
0.0
 10
131.113390
 20
102.763320
 30
0.0
 10
130.639560
 20
102.763350
 30
0.0
 10
130.347310
 20
102.763380
 30
0.0
  0
LINE
  5
12f
100
AcDbEntity
  8
Layer_1
 62
5
100
AcDbLine
 10
130.347310
 20
102.763380
 30
0.0
 11
94.942790
 21
102.767380
 31
0.0
  0
SPLINE
  5
130
100
AcDbEntity
  8
Layer_1
 62
5
100
AcDbSpline
 70
8
 71
3
 72
8
 73
4
 74
0
 40
0
 40
0
 40
0
 40
0
 40
1
 40
1
 40
1
 40
1
 10
94.942790
 20
102.767380
 30
0.0
 10
94.590010
 20
102.767419
 30
0.0
 10
94.237230
 20
102.767439
 30
0.0
 10
93.884450
 20
102.767440
 30
0.0
  0
LINE
  5
131
100
AcDbEntity
  8
Layer_1
 62
5
100
AcDbLine
 10
93.884450
 20
102.767440
 30
0.0
 11
89.936930
 21
102.767440
 31
0.0
  0
SPLINE
  5
132
100
AcDbEntity
  8
Layer_1
 62
5
100
AcDbSpline
 70
8
 71
3
 72
8
 73
4
 74
0
 40
0
 40
0
 40
0
 40
0
 40
1
 40
1
 40
1
 40
1
 10
89.936930
 20
102.767440
 30
0.0
 10
89.796585
 20
102.767439
 30
0.0
 10
89.661988
 20
102.823191
 30
0.0
 10
89.562749
 20
102.922429
 30
0.0
  0
SPLINE
  5
133
100
AcDbEntity
  8
Layer_1
 62
5
100
AcDbSpline
 70
8
 71
3
 72
8
 73
4
 74
0
 40
0
 40
0
 40
0
 40
0
 40
1
 40
1
 40
1
 40
1
 10
89.562749
 20
102.922429
 30
0.0
 10
89.463511
 20
103.021668
 30
0.0
 10
89.407759
 20
103.156265
 30
0.0
 10
89.407760
 20
103.296610
 30
0.0
  0
LINE
  5
134
100
AcDbEntity
  8
Layer_1
 62
5
100
AcDbLine
 10
89.407760
 20
103.296610
 30
0.0
 11
89.407760
 21
122.348820
 31
0.0
  0
LINE
  5
135
100
AcDbEntity
  8
Layer_1
 62
5
100
AcDbLine
 10
89.407760
 20
122.348820
 30
0.0
 11
89.407760
 21
140.337100
 31
0.0
  0
LINE
  5
136
100
AcDbEntity
  8
Layer_1
 62
5
100
AcDbLine
 10
89.407760
 20
140.337100
 30
0.0
 11
89.407760
 21
159.387890
 31
0.0
  0
SPLINE
  5
137
100
AcDbEntity
  8
Layer_1
 62
5
100
AcDbSpline
 70
8
 71
3
 72
8
 73
4
 74
0
 40
0
 40
0
 40
0
 40
0
 40
1
 40
1
 40
1
 40
1
 10
89.407760
 20
159.387890
 30
0.0
 10
89.407760
 20
159.680140
 30
0.0
 10
89.170840
 20
159.917060
 30
0.0
 10
88.878590
 20
159.917060
 30
0.0
  0
SPLINE
  5
138
100
AcDbEntity
  8
Layer_1
 62
5
100
AcDbSpline
 70
8
 71
3
 72
8
 73
4
 74
0
 40
0
 40
0
 40
0
 40
0
 40
1
 40
1
 40
1
 40
1
 10
88.878590
 20
159.917060
 30
0.0
 10
87.643480
 20
159.917050
 30
0.0
 10
86.408370
 20
159.917060
 30
0.0
 10
85.173260
 20
159.917060
 30
0.0
  0
SPLINE
  5
139
100
AcDbEntity
  8
Layer_1
 62
5
100
AcDbSpline
 70
8
 71
3
 72
8
 73
4
 74
0
 40
0
 40
0
 40
0
 40
0
 40
1
 40
1
 40
1
 40
1
 10
85.173260
 20
159.917060
 30
0.0
 10
84.881010
 20
159.917060
 30
0.0
 10
84.407170
 20
159.917020
 30
0.0
 10
84.114920
 20
159.916980
 30
0.0
  0
LINE
  5
13a
100
AcDbEntity
  8
Layer_1
 62
5
100
AcDbLine
 10
84.114920
 20
159.916980
 30
0.0
 11
80.695830
 21
159.916460
 31
0.0
  0
SPLINE
  5
13b
100
AcDbEntity
  8
Layer_1
 62
5
100
AcDbSpline
 70
8
 71
3
 72
8
 73
4
 74
0
 40
0
 40
0
 40
0
 40
0
 40
1
 40
1
 40
1
 40
1
 10
80.695830
 20
159.916460
 30
0.0
 10
80.111306
 20
159.916369
 30
0.0
 10
79.637502
 20
159.442494
 30
0.0
 10
79.637500
 20
158.857970
 30
0.0
  0
LINE
  5
13c
100
AcDbEntity
  8
Layer_1
 62
5
100
AcDbLine
 10
79.637500
 20
158.857970
 30
0.0
 11
79.637530
 21
158.857350
 31
0.0
  0
SPLINE
  5
13d
100
AcDbEntity
  8
Layer_1
 62
5
100
AcDbSpline
 70
8
 71
3
 72
8
 73
4
 74
0
 40
0
 40
0
 40
0
 40
0
 40
1
 40
1
 40
1
 40
1
 10
-62.696460
 20
98.545860
 30
0.0
 10
-63.329443
 20
98.545860
 30
0.0
 10
-63.900099
 20
98.164560
 30
0.0
 10
-64.142332
 20
97.579760
 30
0.0
  0
SPLINE
  5
13e
100
AcDbEntity
  8
Layer_1
 62
5
100
AcDbSpline
 70
8
 71
3
 72
8
 73
4
 74
0
 40
0
 40
0
 40
0
 40
0
 40
1
 40
1
 40
1
 40
1
 10
-64.142332
 20
97.579760
 30
0.0
 10
-64.384564
 20
96.994959
 30
0.0
 10
-64.250669
 20
96.321825
 30
0.0
 10
-63.803082
 20
95.874238
 30
0.0
  0
SPLINE
  5
13f
100
AcDbEntity
  8
Layer_1
 62
5
100
AcDbSpline
 70
8
 71
3
 72
8
 73
4
 74
0
 40
0
 40
0
 40
0
 40
0
 40
1
 40
1
 40
1
 40
1
 10
-63.803082
 20
95.874238
 30
0.0
 10
-63.355495
 20
95.426651
 30
0.0
 10
-62.682361
 20
95.292756
 30
0.0
 10
-62.097560
 20
95.534988
 30
0.0
  0
SPLINE
  5
140
100
AcDbEntity
  8
Layer_1
 62
5
100
AcDbSpline
 70
8
 71
3
 72
8
 73
4
 74
0
 40
0
 40
0
 40
0
 40
0
 40
1
 40
1
 40
1
 40
1
 10
-62.097560
 20
95.534988
 30
0.0
 10
-61.512760
 20
95.777221
 30
0.0
 10
-61.131460
 20
96.347877
 30
0.0
 10
-61.131460
 20
96.980860
 30
0.0
  0
SPLINE
  5
141
100
AcDbEntity
  8
Layer_1
 62
5
100
AcDbSpline
 70
8
 71
3
 72
8
 73
4
 74
0
 40
0
 40
0
 40
0
 40
0
 40
1
 40
1
 40
1
 40
1
 10
-61.131460
 20
96.980860
 30
0.0
 10
-61.131460
 20
97.845186
 30
0.0
 10
-61.832134
 20
98.545860
 30
0.0
 10
-62.696460
 20
98.545860
 30
0.0
  0
LINE
  5
142
100
AcDbEntity
  8
Layer_1
 62
5
100
AcDbLine
 10
-62.696460
 20
98.545860
 30
0.0
 11
-62.696460
 21
98.545860
 31
0.0
  0
SPLINE
  5
143
100
AcDbEntity
  8
Layer_1
 62
5
100
AcDbSpline
 70
8
 71
3
 72
8
 73
4
 74
0
 40
0
 40
0
 40
0
 40
0
 40
1
 40
1
 40
1
 40
1
 10
-62.696460
 20
187.379330
 30
0.0
 10
-63.329443
 20
187.379330
 30
0.0
 10
-63.900099
 20
186.998030
 30
0.0
 10
-64.142332
 20
186.413230
 30
0.0
  0
SPLINE
  5
144
100
AcDbEntity
  8
Layer_1
 62
5
100
AcDbSpline
 70
8
 71
3
 72
8
 73
4
 74
0
 40
0
 40
0
 40
0
 40
0
 40
1
 40
1
 40
1
 40
1
 10
-64.142332
 20
186.413230
 30
0.0
 10
-64.384564
 20
185.828429
 30
0.0
 10
-64.250669
 20
185.155295
 30
0.0
 10
-63.803082
 20
184.707708
 30
0.0
  0
SPLINE
  5
145
100
AcDbEntity
  8
Layer_1
 62
5
100
AcDbSpline
 70
8
 71
3
 72
8
 73
4
 74
0
 40
0
 40
0
 40
0
 40
0
 40
1
 40
1
 40
1
 40
1
 10
-63.803082
 20
184.707708
 30
0.0
 10
-63.355495
 20
184.260121
 30
0.0
 10
-62.682361
 20
184.126226
 30
0.0
 10
-62.097560
 20
184.368458
 30
0.0
  0
SPLINE
  5
146
100
AcDbEntity
  8
Layer_1
 62
5
100
AcDbSpline
 70
8
 71
3
 72
8
 73
4
 74
0
 40
0
 40
0
 40
0
 40
0
 40
1
 40
1
 40
1
 40
1
 10
-62.097560
 20
184.368458
 30
0.0
 10
-61.512760
 20
184.610691
 30
0.0
 10
-61.131460
 20
185.181347
 30
0.0
 10
-61.131460
 20
185.814330
 30
0.0
  0
SPLINE
  5
147
100
AcDbEntity
  8
Layer_1
 62
5
100
AcDbSpline
 70
8
 71
3
 72
8
 73
4
 74
0
 40
0
 40
0
 40
0
 40
0
 40
1
 40
1
 40
1
 40
1
 10
-61.131460
 20
185.814330
 30
0.0
 10
-61.131460
 20
186.678656
 30
0.0
 10
-61.832134
 20
187.379330
 30
0.0
 10
-62.696460
 20
187.379330
 30
0.0
  0
LINE
  5
148
100
AcDbEntity
  8
Layer_1
 62
5
100
AcDbLine
 10
-62.696460
 20
187.379330
 30
0.0
 11
-62.696460
 21
187.379330
 31
0.0
  0
SPLINE
  5
149
100
AcDbEntity
  8
Layer_1
 62
5
100
AcDbSpline
 70
8
 71
3
 72
8
 73
4
 74
0
 40
0
 40
0
 40
0
 40
0
 40
1
 40
1
 40
1
 40
1
 10
65.557690
 20
195.902250
 30
0.0
 10
64.924707
 20
195.902250
 30
0.0
 10
64.354051
 20
195.520950
 30
0.0
 10
64.111818
 20
194.936150
 30
0.0
  0
SPLINE
  5
14a
100
AcDbEntity
  8
Layer_1
 62
5
100
AcDbSpline
 70
8
 71
3
 72
8
 73
4
 74
0
 40
0
 40
0
 40
0
 40
0
 40
1
 40
1
 40
1
 40
1
 10
64.111818
 20
194.936150
 30
0.0
 10
63.869586
 20
194.351349
 30
0.0
 10
64.003481
 20
193.678215
 30
0.0
 10
64.451068
 20
193.230628
 30
0.0
  0
SPLINE
  5
14b
100
AcDbEntity
  8
Layer_1
 62
5
100
AcDbSpline
 70
8
 71
3
 72
8
 73
4
 74
0
 40
0
 40
0
 40
0
 40
0
 40
1
 40
1
 40
1
 40
1
 10
64.451068
 20
193.230628
 30
0.0
 10
64.898655
 20
192.783041
 30
0.0
 10
65.571789
 20
192.649146
 30
0.0
 10
66.156590
 20
192.891378
 30
0.0
  0
SPLINE
  5
14c
100
AcDbEntity
  8
Layer_1
 62
5
100
AcDbSpline
 70
8
 71
3
 72
8
 73
4
 74
0
 40
0
 40
0
 40
0
 40
0
 40
1
 40
1
 40
1
 40
1
 10
66.156590
 20
192.891378
 30
0.0
 10
66.741390
 20
193.133611
 30
0.0
 10
67.122690
 20
193.704267
 30
0.0
 10
67.122690
 20
194.337250
 30
0.0
  0
SPLINE
  5
14d
100
AcDbEntity
  8
Layer_1
 62
5
100
AcDbSpline
 70
8
 71
3
 72
8
 73
4
 74
0
 40
0
 40
0
 40
0
 40
0
 40
1
 40
1
 40
1
 40
1
 10
67.122690
 20
194.337250
 30
0.0
 10
67.122690
 20
194.752314
 30
0.0
 10
66.957807
 20
195.150378
 30
0.0
 10
66.664312
 20
195.443872
 30
0.0
  0
SPLINE
  5
14e
100
AcDbEntity
  8
Layer_1
 62
5
100
AcDbSpline
 70
8
 71
3
 72
8
 73
4
 74
0
 40
0
 40
0
 40
0
 40
0
 40
1
 40
1
 40
1
 40
1
 10
66.664312
 20
195.443872
 30
0.0
 10
66.370818
 20
195.737367
 30
0.0
 10
65.972754
 20
195.902250
 30
0.0
 10
65.557690
 20
195.902250
 30
0.0
  0
LINE
  5
14f
100
AcDbEntity
  8
Layer_1
 62
5
100
AcDbLine
 10
65.557690
 20
195.902250
 30
0.0
 11
65.557690
 21
195.902250
 31
0.0
  0
SPLINE
  5
150
100
AcDbEntity
  8
Layer_1
 62
5
100
AcDbSpline
 70
8
 71
3
 72
8
 73
4
 74
0
 40
0
 40
0
 40
0
 40
0
 40
1
 40
1
 40
1
 40
1
 10
65.557690
 20
98.566670
 30
0.0
 10
64.924707
 20
98.566670
 30
0.0
 10
64.354051
 20
98.185370
 30
0.0
 10
64.111818
 20
97.600570
 30
0.0
  0
SPLINE
  5
151
100
AcDbEntity
  8
Layer_1
 62
5
100
AcDbSpline
 70
8
 71
3
 72
8
 73
4
 74
0
 40
0
 40
0
 40
0
 40
0
 40
1
 40
1
 40
1
 40
1
 10
64.111818
 20
97.600570
 30
0.0
 10
63.869586
 20
97.015769
 30
0.0
 10
64.003481
 20
96.342635
 30
0.0
 10
64.451068
 20
95.895048
 30
0.0
  0
SPLINE
  5
152
100
AcDbEntity
  8
Layer_1
 62
5
100
AcDbSpline
 70
8
 71
3
 72
8
 73
4
 74
0
 40
0
 40
0
 40
0
 40
0
 40
1
 40
1
 40
1
 40
1
 10
64.451068
 20
95.895048
 30
0.0
 10
64.898655
 20
95.447461
 30
0.0
 10
65.571789
 20
95.313566
 30
0.0
 10
66.156590
 20
95.555798
 30
0.0
  0
SPLINE
  5
153
100
AcDbEntity
  8
Layer_1
 62
5
100
AcDbSpline
 70
8
 71
3
 72
8
 73
4
 74
0
 40
0
 40
0
 40
0
 40
0
 40
1
 40
1
 40
1
 40
1
 10
66.156590
 20
95.555798
 30
0.0
 10
66.741390
 20
95.798031
 30
0.0
 10
67.122690
 20
96.368687
 30
0.0
 10
67.122690
 20
97.001670
 30
0.0
  0
SPLINE
  5
154
100
AcDbEntity
  8
Layer_1
 62
5
100
AcDbSpline
 70
8
 71
3
 72
8
 73
4
 74
0
 40
0
 40
0
 40
0
 40
0
 40
1
 40
1
 40
1
 40
1
 10
67.122690
 20
97.001670
 30
0.0
 10
67.122690
 20
97.416734
 30
0.0
 10
66.957807
 20
97.814798
 30
0.0
 10
66.664312
 20
98.108292
 30
0.0
  0
SPLINE
  5
155
100
AcDbEntity
  8
Layer_1
 62
5
100
AcDbSpline
 70
8
 71
3
 72
8
 73
4
 74
0
 40
0
 40
0
 40
0
 40
0
 40
1
 40
1
 40
1
 40
1
 10
66.664312
 20
98.108292
 30
0.0
 10
66.370818
 20
98.401787
 30
0.0
 10
65.972754
 20
98.566670
 30
0.0
 10
65.557690
 20
98.566670
 30
0.0
  0
LINE
  5
156
100
AcDbEntity
  8
Layer_1
 62
5
100
AcDbLine
 10
65.557690
 20
98.566670
 30
0.0
 11
65.557690
 21
98.566670
 31
0.0
  0
SPLINE
  5
157
100
AcDbEntity
  8
Layer_1
 62
5
100
AcDbSpline
 70
8
 71
3
 72
8
 73
4
 74
0
 40
0
 40
0
 40
0
 40
0
 40
1
 40
1
 40
1
 40
1
 10
65.557690
 20
152.484860
 30
0.0
 10
64.924707
 20
152.484860
 30
0.0
 10
64.354051
 20
152.103560
 30
0.0
 10
64.111818
 20
151.518760
 30
0.0
  0
SPLINE
  5
158
100
AcDbEntity
  8
Layer_1
 62
5
100
AcDbSpline
 70
8
 71
3
 72
8
 73
4
 74
0
 40
0
 40
0
 40
0
 40
0
 40
1
 40
1
 40
1
 40
1
 10
64.111818
 20
151.518760
 30
0.0
 10
63.869586
 20
150.933959
 30
0.0
 10
64.003481
 20
150.260825
 30
0.0
 10
64.451068
 20
149.813238
 30
0.0
  0
SPLINE
  5
159
100
AcDbEntity
  8
Layer_1
 62
5
100
AcDbSpline
 70
8
 71
3
 72
8
 73
4
 74
0
 40
0
 40
0
 40
0
 40
0
 40
1
 40
1
 40
1
 40
1
 10
64.451068
 20
149.813238
 30
0.0
 10
64.898655
 20
149.365651
 30
0.0
 10
65.571789
 20
149.231756
 30
0.0
 10
66.156590
 20
149.473988
 30
0.0
  0
SPLINE
  5
15a
100
AcDbEntity
  8
Layer_1
 62
5
100
AcDbSpline
 70
8
 71
3
 72
8
 73
4
 74
0
 40
0
 40
0
 40
0
 40
0
 40
1
 40
1
 40
1
 40
1
 10
66.156590
 20
149.473988
 30
0.0
 10
66.741390
 20
149.716221
 30
0.0
 10
67.122690
 20
150.286877
 30
0.0
 10
67.122690
 20
150.919860
 30
0.0
  0
SPLINE
  5
15b
100
AcDbEntity
  8
Layer_1
 62
5
100
AcDbSpline
 70
8
 71
3
 72
8
 73
4
 74
0
 40
0
 40
0
 40
0
 40
0
 40
1
 40
1
 40
1
 40
1
 10
67.122690
 20
150.919860
 30
0.0
 10
67.122690
 20
151.334924
 30
0.0
 10
66.957807
 20
151.732988
 30
0.0
 10
66.664312
 20
152.026482
 30
0.0
  0
SPLINE
  5
15c
100
AcDbEntity
  8
Layer_1
 62
5
100
AcDbSpline
 70
8
 71
3
 72
8
 73
4
 74
0
 40
0
 40
0
 40
0
 40
0
 40
1
 40
1
 40
1
 40
1
 10
66.664312
 20
152.026482
 30
0.0
 10
66.370818
 20
152.319977
 30
0.0
 10
65.972754
 20
152.484860
 30
0.0
 10
65.557690
 20
152.484860
 30
0.0
  0
LINE
  5
15d
100
AcDbEntity
  8
Layer_1
 62
5
100
AcDbLine
 10
65.557690
 20
152.484860
 30
0.0
 11
65.557690
 21
152.484860
 31
0.0
  0
SPLINE
  5
15e
100
AcDbEntity
  8
Layer_1
 62
5
100
AcDbSpline
 70
8
 71
3
 72
8
 73
4
 74
0
 40
0
 40
0
 40
0
 40
0
 40
1
 40
1
 40
1
 40
1
 10
213.553450
 20
98.545860
 30
0.0
 10
214.186433
 20
98.545860
 30
0.0
 10
214.757089
 20
98.164560
 30
0.0
 10
214.999322
 20
97.579760
 30
0.0
  0
SPLINE
  5
15f
100
AcDbEntity
  8
Layer_1
 62
5
100
AcDbSpline
 70
8
 71
3
 72
8
 73
4
 74
0
 40
0
 40
0
 40
0
 40
0
 40
1
 40
1
 40
1
 40
1
 10
214.999322
 20
97.579760
 30
0.0
 10
215.241554
 20
96.994959
 30
0.0
 10
215.107659
 20
96.321825
 30
0.0
 10
214.660072
 20
95.874238
 30
0.0
  0
SPLINE
  5
160
100
AcDbEntity
  8
Layer_1
 62
5
100
AcDbSpline
 70
8
 71
3
 72
8
 73
4
 74
0
 40
0
 40
0
 40
0
 40
0
 40
1
 40
1
 40
1
 40
1
 10
214.660072
 20
95.874238
 30
0.0
 10
214.212485
 20
95.426651
 30
0.0
 10
213.539351
 20
95.292756
 30
0.0
 10
212.954550
 20
95.534988
 30
0.0
  0
SPLINE
  5
161
100
AcDbEntity
  8
Layer_1
 62
5
100
AcDbSpline
 70
8
 71
3
 72
8
 73
4
 74
0
 40
0
 40
0
 40
0
 40
0
 40
1
 40
1
 40
1
 40
1
 10
212.954550
 20
95.534988
 30
0.0
 10
212.369750
 20
95.777221
 30
0.0
 10
211.988450
 20
96.347877
 30
0.0
 10
211.988450
 20
96.980860
 30
0.0
  0
SPLINE
  5
162
100
AcDbEntity
  8
Layer_1
 62
5
100
AcDbSpline
 70
8
 71
3
 72
8
 73
4
 74
0
 40
0
 40
0
 40
0
 40
0
 40
1
 40
1
 40
1
 40
1
 10
211.988450
 20
96.980860
 30
0.0
 10
211.988450
 20
97.395924
 30
0.0
 10
212.153333
 20
97.793988
 30
0.0
 10
212.446828
 20
98.087482
 30
0.0
  0
SPLINE
  5
163
100
AcDbEntity
  8
Layer_1
 62
5
100
AcDbSpline
 70
8
 71
3
 72
8
 73
4
 74
0
 40
0
 40
0
 40
0
 40
0
 40
1
 40
1
 40
1
 40
1
 10
212.446828
 20
98.087482
 30
0.0
 10
212.740322
 20
98.380977
 30
0.0
 10
213.138386
 20
98.545860
 30
0.0
 10
213.553450
 20
98.545860
 30
0.0
  0
LINE
  5
164
100
AcDbEntity
  8
Layer_1
 62
5
100
AcDbLine
 10
213.553450
 20
98.545860
 30
0.0
 11
213.553450
 21
98.545860
 31
0.0
  0
SPLINE
  5
165
100
AcDbEntity
  8
Layer_1
 62
5
100
AcDbSpline
 70
8
 71
3
 72
8
 73
4
 74
0
 40
0
 40
0
 40
0
 40
0
 40
1
 40
1
 40
1
 40
1
 10
213.553450
 20
187.379330
 30
0.0
 10
214.186433
 20
187.379330
 30
0.0
 10
214.757089
 20
186.998030
 30
0.0
 10
214.999322
 20
186.413230
 30
0.0
  0
SPLINE
  5
166
100
AcDbEntity
  8
Layer_1
 62
5
100
AcDbSpline
 70
8
 71
3
 72
8
 73
4
 74
0
 40
0
 40
0
 40
0
 40
0
 40
1
 40
1
 40
1
 40
1
 10
214.999322
 20
186.413230
 30
0.0
 10
215.241554
 20
185.828429
 30
0.0
 10
215.107659
 20
185.155295
 30
0.0
 10
214.660072
 20
184.707708
 30
0.0
  0
SPLINE
  5
167
100
AcDbEntity
  8
Layer_1
 62
5
100
AcDbSpline
 70
8
 71
3
 72
8
 73
4
 74
0
 40
0
 40
0
 40
0
 40
0
 40
1
 40
1
 40
1
 40
1
 10
214.660072
 20
184.707708
 30
0.0
 10
214.212485
 20
184.260121
 30
0.0
 10
213.539351
 20
184.126226
 30
0.0
 10
212.954550
 20
184.368458
 30
0.0
  0
SPLINE
  5
168
100
AcDbEntity
  8
Layer_1
 62
5
100
AcDbSpline
 70
8
 71
3
 72
8
 73
4
 74
0
 40
0
 40
0
 40
0
 40
0
 40
1
 40
1
 40
1
 40
1
 10
212.954550
 20
184.368458
 30
0.0
 10
212.369750
 20
184.610691
 30
0.0
 10
211.988450
 20
185.181347
 30
0.0
 10
211.988450
 20
185.814330
 30
0.0
  0
SPLINE
  5
169
100
AcDbEntity
  8
Layer_1
 62
5
100
AcDbSpline
 70
8
 71
3
 72
8
 73
4
 74
0
 40
0
 40
0
 40
0
 40
0
 40
1
 40
1
 40
1
 40
1
 10
211.988450
 20
185.814330
 30
0.0
 10
211.988450
 20
186.229394
 30
0.0
 10
212.153333
 20
186.627458
 30
0.0
 10
212.446828
 20
186.920952
 30
0.0
  0
SPLINE
  5
16a
100
AcDbEntity
  8
Layer_1
 62
5
100
AcDbSpline
 70
8
 71
3
 72
8
 73
4
 74
0
 40
0
 40
0
 40
0
 40
0
 40
1
 40
1
 40
1
 40
1
 10
212.446828
 20
186.920952
 30
0.0
 10
212.740322
 20
187.214447
 30
0.0
 10
213.138386
 20
187.379330
 30
0.0
 10
213.553450
 20
187.379330
 30
0.0
  0
LINE
  5
16b
100
AcDbEntity
  8
Layer_1
 62
5
100
AcDbLine
 10
213.553450
 20
187.379330
 30
0.0
 11
213.553450
 21
187.379330
 31
0.0
  0
SPLINE
  5
16c
100
AcDbEntity
  8
Layer_1
 62
5
100
AcDbSpline
 70
8
 71
3
 72
8
 73
4
 74
0
 40
0
 40
0
 40
0
 40
0
 40
1
 40
1
 40
1
 40
1
 10
85.339310
 20
195.902250
 30
0.0
 10
85.972293
 20
195.902250
 30
0.0
 10
86.542949
 20
195.520950
 30
0.0
 10
86.785182
 20
194.936150
 30
0.0
  0
SPLINE
  5
16d
100
AcDbEntity
  8
Layer_1
 62
5
100
AcDbSpline
 70
8
 71
3
 72
8
 73
4
 74
0
 40
0
 40
0
 40
0
 40
0
 40
1
 40
1
 40
1
 40
1
 10
86.785182
 20
194.936150
 30
0.0
 10
87.027414
 20
194.351349
 30
0.0
 10
86.893519
 20
193.678215
 30
0.0
 10
86.445932
 20
193.230628
 30
0.0
  0
SPLINE
  5
16e
100
AcDbEntity
  8
Layer_1
 62
5
100
AcDbSpline
 70
8
 71
3
 72
8
 73
4
 74
0
 40
0
 40
0
 40
0
 40
0
 40
1
 40
1
 40
1
 40
1
 10
86.445932
 20
193.230628
 30
0.0
 10
85.998345
 20
192.783041
 30
0.0
 10
85.325211
 20
192.649146
 30
0.0
 10
84.740410
 20
192.891378
 30
0.0
  0
SPLINE
  5
16f
100
AcDbEntity
  8
Layer_1
 62
5
100
AcDbSpline
 70
8
 71
3
 72
8
 73
4
 74
0
 40
0
 40
0
 40
0
 40
0
 40
1
 40
1
 40
1
 40
1
 10
84.740410
 20
192.891378
 30
0.0
 10
84.155610
 20
193.133611
 30
0.0
 10
83.774310
 20
193.704267
 30
0.0
 10
83.774310
 20
194.337250
 30
0.0
  0
SPLINE
  5
170
100
AcDbEntity
  8
Layer_1
 62
5
100
AcDbSpline
 70
8
 71
3
 72
8
 73
4
 74
0
 40
0
 40
0
 40
0
 40
0
 40
1
 40
1
 40
1
 40
1
 10
83.774310
 20
194.337250
 30
0.0
 10
83.774310
 20
194.752314
 30
0.0
 10
83.939193
 20
195.150378
 30
0.0
 10
84.232688
 20
195.443872
 30
0.0
  0
SPLINE
  5
171
100
AcDbEntity
  8
Layer_1
 62
5
100
AcDbSpline
 70
8
 71
3
 72
8
 73
4
 74
0
 40
0
 40
0
 40
0
 40
0
 40
1
 40
1
 40
1
 40
1
 10
84.232688
 20
195.443872
 30
0.0
 10
84.526182
 20
195.737367
 30
0.0
 10
84.924246
 20
195.902250
 30
0.0
 10
85.339310
 20
195.902250
 30
0.0
  0
LINE
  5
172
100
AcDbEntity
  8
Layer_1
 62
5
100
AcDbLine
 10
85.339310
 20
195.902250
 30
0.0
 11
85.339310
 21
195.902250
 31
0.0
  0
SPLINE
  5
173
100
AcDbEntity
  8
Layer_1
 62
5
100
AcDbSpline
 70
8
 71
3
 72
8
 73
4
 74
0
 40
0
 40
0
 40
0
 40
0
 40
1
 40
1
 40
1
 40
1
 10
85.339310
 20
98.566670
 30
0.0
 10
85.972293
 20
98.566670
 30
0.0
 10
86.542949
 20
98.185370
 30
0.0
 10
86.785182
 20
97.600570
 30
0.0
  0
SPLINE
  5
174
100
AcDbEntity
  8
Layer_1
 62
5
100
AcDbSpline
 70
8
 71
3
 72
8
 73
4
 74
0
 40
0
 40
0
 40
0
 40
0
 40
1
 40
1
 40
1
 40
1
 10
86.785182
 20
97.600570
 30
0.0
 10
87.027414
 20
97.015769
 30
0.0
 10
86.893519
 20
96.342635
 30
0.0
 10
86.445932
 20
95.895048
 30
0.0
  0
SPLINE
  5
175
100
AcDbEntity
  8
Layer_1
 62
5
100
AcDbSpline
 70
8
 71
3
 72
8
 73
4
 74
0
 40
0
 40
0
 40
0
 40
0
 40
1
 40
1
 40
1
 40
1
 10
86.445932
 20
95.895048
 30
0.0
 10
85.998345
 20
95.447461
 30
0.0
 10
85.325211
 20
95.313566
 30
0.0
 10
84.740410
 20
95.555798
 30
0.0
  0
SPLINE
  5
176
100
AcDbEntity
  8
Layer_1
 62
5
100
AcDbSpline
 70
8
 71
3
 72
8
 73
4
 74
0
 40
0
 40
0
 40
0
 40
0
 40
1
 40
1
 40
1
 40
1
 10
84.740410
 20
95.555798
 30
0.0
 10
84.155610
 20
95.798031
 30
0.0
 10
83.774310
 20
96.368687
 30
0.0
 10
83.774310
 20
97.001670
 30
0.0
  0
SPLINE
  5
177
100
AcDbEntity
  8
Layer_1
 62
5
100
AcDbSpline
 70
8
 71
3
 72
8
 73
4
 74
0
 40
0
 40
0
 40
0
 40
0
 40
1
 40
1
 40
1
 40
1
 10
83.774310
 20
97.001670
 30
0.0
 10
83.774310
 20
97.416734
 30
0.0
 10
83.939193
 20
97.814798
 30
0.0
 10
84.232688
 20
98.108292
 30
0.0
  0
SPLINE
  5
178
100
AcDbEntity
  8
Layer_1
 62
5
100
AcDbSpline
 70
8
 71
3
 72
8
 73
4
 74
0
 40
0
 40
0
 40
0
 40
0
 40
1
 40
1
 40
1
 40
1
 10
84.232688
 20
98.108292
 30
0.0
 10
84.526182
 20
98.401787
 30
0.0
 10
84.924246
 20
98.566670
 30
0.0
 10
85.339310
 20
98.566670
 30
0.0
  0
LINE
  5
179
100
AcDbEntity
  8
Layer_1
 62
5
100
AcDbLine
 10
85.339310
 20
98.566670
 30
0.0
 11
85.339310
 21
98.566670
 31
0.0
  0
SPLINE
  5
17a
100
AcDbEntity
  8
Layer_1
 62
5
100
AcDbSpline
 70
8
 71
3
 72
8
 73
4
 74
0
 40
0
 40
0
 40
0
 40
0
 40
1
 40
1
 40
1
 40
1
 10
85.339310
 20
152.484860
 30
0.0
 10
85.972293
 20
152.484860
 30
0.0
 10
86.542949
 20
152.103560
 30
0.0
 10
86.785182
 20
151.518760
 30
0.0
  0
SPLINE
  5
17b
100
AcDbEntity
  8
Layer_1
 62
5
100
AcDbSpline
 70
8
 71
3
 72
8
 73
4
 74
0
 40
0
 40
0
 40
0
 40
0
 40
1
 40
1
 40
1
 40
1
 10
86.785182
 20
151.518760
 30
0.0
 10
87.027414
 20
150.933959
 30
0.0
 10
86.893519
 20
150.260825
 30
0.0
 10
86.445932
 20
149.813238
 30
0.0
  0
SPLINE
  5
17c
100
AcDbEntity
  8
Layer_1
 62
5
100
AcDbSpline
 70
8
 71
3
 72
8
 73
4
 74
0
 40
0
 40
0
 40
0
 40
0
 40
1
 40
1
 40
1
 40
1
 10
86.445932
 20
149.813238
 30
0.0
 10
85.998345
 20
149.365651
 30
0.0
 10
85.325211
 20
149.231756
 30
0.0
 10
84.740410
 20
149.473988
 30
0.0
  0
SPLINE
  5
17d
100
AcDbEntity
  8
Layer_1
 62
5
100
AcDbSpline
 70
8
 71
3
 72
8
 73
4
 74
0
 40
0
 40
0
 40
0
 40
0
 40
1
 40
1
 40
1
 40
1
 10
84.740410
 20
149.473988
 30
0.0
 10
84.155610
 20
149.716221
 30
0.0
 10
83.774310
 20
150.286877
 30
0.0
 10
83.774310
 20
150.919860
 30
0.0
  0
SPLINE
  5
17e
100
AcDbEntity
  8
Layer_1
 62
5
100
AcDbSpline
 70
8
 71
3
 72
8
 73
4
 74
0
 40
0
 40
0
 40
0
 40
0
 40
1
 40
1
 40
1
 40
1
 10
83.774310
 20
150.919860
 30
0.0
 10
83.774310
 20
151.334924
 30
0.0
 10
83.939193
 20
151.732988
 30
0.0
 10
84.232688
 20
152.026482
 30
0.0
  0
SPLINE
  5
17f
100
AcDbEntity
  8
Layer_1
 62
5
100
AcDbSpline
 70
8
 71
3
 72
8
 73
4
 74
0
 40
0
 40
0
 40
0
 40
0
 40
1
 40
1
 40
1
 40
1
 10
84.232688
 20
152.026482
 30
0.0
 10
84.526182
 20
152.319977
 30
0.0
 10
84.924246
 20
152.484860
 30
0.0
 10
85.339310
 20
152.484860
 30
0.0
  0
LINE
  5
180
100
AcDbEntity
  8
Layer_1
 62
5
100
AcDbLine
 10
85.339310
 20
152.484860
 30
0.0
 11
85.339310
 21
152.484860
 31
0.0
  0
LINE
  5
181
100
AcDbEntity
  8
Layer_1
 62
5
100
AcDbLine
 10
-57.441130
 20
180.027660
 30
0.0
 11
-57.951170
 21
180.027690
 31
0.0
  0
SPLINE
  5
182
100
AcDbEntity
  8
Layer_1
 62
5
100
AcDbSpline
 70
8
 71
3
 72
8
 73
4
 74
0
 40
0
 40
0
 40
0
 40
0
 40
1
 40
1
 40
1
 40
1
 10
-57.951170
 20
180.027690
 30
0.0
 10
-58.303950
 20
180.027710
 30
0.0
 10
-58.656730
 20
180.027720
 30
0.0
 10
-59.009510
 20
180.027720
 30
0.0
  0
LINE
  5
183
100
AcDbEntity
  8
Layer_1
 62
5
100
AcDbLine
 10
-59.009510
 20
180.027720
 30
0.0
 11
-62.867180
 21
180.027720
 31
0.0
  0
SPLINE
  5
184
100
AcDbEntity
  8
Layer_1
 62
5
100
AcDbSpline
 70
8
 71
3
 72
8
 73
4
 74
0
 40
0
 40
0
 40
0
 40
0
 40
1
 40
1
 40
1
 40
1
 10
-62.867180
 20
180.027720
 30
0.0
 10
-63.159430
 20
180.027720
 30
0.0
 10
-63.396330
 20
179.790800
 30
0.0
 10
-63.396310
 20
179.498550
 30
0.0
  0
SPLINE
  5
185
100
AcDbEntity
  8
Layer_1
 62
5
100
AcDbSpline
 70
8
 71
3
 72
8
 73
4
 74
0
 40
0
 40
0
 40
0
 40
0
 40
1
 40
1
 40
1
 40
1
 10
-63.396310
 20
179.498550
 30
0.0
 10
-63.394310
 20
154.095180
 30
0.0
 10
-63.396310
 20
128.698510
 30
0.0
 10
-63.394310
 20
103.295170
 30
0.0
  0
SPLINE
  5
186
100
AcDbEntity
  8
Layer_1
 62
5
100
AcDbSpline
 70
8
 71
3
 72
8
 73
4
 74
0
 40
0
 40
0
 40
0
 40
0
 40
1
 40
1
 40
1
 40
1
 10
-63.394310
 20
103.295170
 30
0.0
 10
-63.394290
 20
103.002920
 30
0.0
 10
-63.157350
 20
102.766000
 30
0.0
 10
-62.865100
 20
102.766000
 30
0.0
  0
LINE
  5
187
100
AcDbEntity
  8
Layer_1
 62
5
100
AcDbLine
 10
-62.865100
 20
102.766000
 30
0.0
 11
-59.517050
 21
102.766000
 31
0.0
  0
LINE
  5
188
100
AcDbEntity
  8
Layer_1
 62
5
100
AcDbLine
 10
-59.517050
 20
102.766000
 30
0.0
 11
-23.050260
 21
102.766000
 31
0.0
  0
SPLINE
  5
189
100
AcDbEntity
  8
Layer_1
 62
5
100
AcDbSpline
 70
8
 71
3
 72
8
 73
4
 74
0
 40
0
 40
0
 40
0
 40
0
 40
1
 40
1
 40
1
 40
1
 10
-23.050260
 20
102.766000
 30
0.0
 10
-22.465760
 20
102.766000
 30
0.0
 10
-21.518100
 20
102.765840
 30
0.0
 10
-20.933600
 20
102.765700
 30
0.0
  0
SPLINE
  5
18a
100
AcDbEntity
  8
Layer_1
 62
5
100
AcDbSpline
 70
8
 71
3
 72
8
 73
4
 74
0
 40
0
 40
0
 40
0
 40
0
 40
1
 40
1
 40
1
 40
1
 10
-20.933600
 20
102.765700
 30
0.0
 10
-9.045450
 20
102.762700
 30
0.0
 10
2.842710
 20
102.773700
 30
0.0
 10
14.730860
 20
102.755200
 30
0.0
  0
SPLINE
  5
18b
100
AcDbEntity
  8
Layer_1
 62
5
100
AcDbSpline
 70
8
 71
3
 72
8
 73
4
 74
0
 40
0
 40
0
 40
0
 40
0
 40
1
 40
1
 40
1
 40
1
 10
14.730860
 20
102.755200
 30
0.0
 10
15.023110
 20
102.754740
 30
0.0
 10
15.496940
 20
102.754420
 30
0.0
 10
15.789190
 20
102.754510
 30
0.0
  0
LINE
  5
18c
100
AcDbEntity
  8
Layer_1
 62
5
100
AcDbLine
 10
15.789190
 20
102.754510
 30
0.0
 11
51.197650
 21
102.765910
 31
0.0
  0
SPLINE
  5
18d
100
AcDbEntity
  8
Layer_1
 62
5
100
AcDbSpline
 70
8
 71
3
 72
8
 73
4
 74
0
 40
0
 40
0
 40
0
 40
0
 40
1
 40
1
 40
1
 40
1
 10
51.197650
 20
102.765910
 30
0.0
 10
51.550430
 20
102.766023
 30
0.0
 10
51.903210
 20
102.766080
 30
0.0
 10
52.255990
 20
102.766080
 30
0.0
  0
LINE
  5
18e
100
AcDbEntity
  8
Layer_1
 62
5
100
AcDbLine
 10
52.255990
 20
102.766080
 30
0.0
 11
58.845430
 21
102.766080
 31
0.0
  0
SPLINE
  5
18f
100
AcDbEntity
  8
Layer_1
 62
5
100
AcDbSpline
 70
8
 71
3
 72
8
 73
4
 74
0
 40
0
 40
0
 40
0
 40
0
 40
1
 40
1
 40
1
 40
1
 10
58.845430
 20
102.766080
 30
0.0
 10
58.985775
 20
102.766079
 30
0.0
 10
59.120372
 20
102.821831
 30
0.0
 10
59.219611
 20
102.921069
 30
0.0
  0
SPLINE
  5
190
100
AcDbEntity
  8
Layer_1
 62
5
100
AcDbSpline
 70
8
 71
3
 72
8
 73
4
 74
0
 40
0
 40
0
 40
0
 40
0
 40
1
 40
1
 40
1
 40
1
 10
59.219611
 20
102.921069
 30
0.0
 10
59.318849
 20
103.020308
 30
0.0
 10
59.374601
 20
103.154905
 30
0.0
 10
59.374600
 20
103.295250
 30
0.0
  0
LINE
  5
191
100
AcDbEntity
  8
Layer_1
 62
5
100
AcDbLine
 10
59.374600
 20
103.295250
 30
0.0
 11
59.374600
 21
121.287700
 31
0.0
  0
SPLINE
  5
192
100
AcDbEntity
  8
Layer_1
 62
5
100
AcDbSpline
 70
8
 71
3
 72
8
 73
4
 74
0
 40
0
 40
0
 40
0
 40
0
 40
1
 40
1
 40
1
 40
1
 10
59.374600
 20
121.287700
 30
0.0
 10
59.374599
 20
121.428045
 30
0.0
 10
59.430351
 20
121.562642
 30
0.0
 10
59.529589
 20
121.661881
 30
0.0
  0
SPLINE
  5
193
100
AcDbEntity
  8
Layer_1
 62
5
100
AcDbSpline
 70
8
 71
3
 72
8
 73
4
 74
0
 40
0
 40
0
 40
0
 40
0
 40
1
 40
1
 40
1
 40
1
 10
59.529589
 20
121.661881
 30
0.0
 10
59.628828
 20
121.761119
 30
0.0
 10
59.763425
 20
121.816871
 30
0.0
 10
59.903770
 20
121.816870
 30
0.0
  0
LINE
  5
194
100
AcDbEntity
  8
Layer_1
 62
5
100
AcDbLine
 10
59.903770
 20
121.816870
 30
0.0
 11
65.723040
 21
121.816870
 31
0.0
  0
SPLINE
  5
195
100
AcDbEntity
  8
Layer_1
 62
5
100
AcDbSpline
 70
8
 71
3
 72
8
 73
4
 74
0
 40
0
 40
0
 40
0
 40
0
 40
1
 40
1
 40
1
 40
1
 10
65.723040
 20
121.816870
 30
0.0
 10
65.863385
 20
121.816869
 30
0.0
 10
65.997982
 20
121.872621
 30
0.0
 10
66.097221
 20
121.971859
 30
0.0
  0
SPLINE
  5
196
100
AcDbEntity
  8
Layer_1
 62
5
100
AcDbSpline
 70
8
 71
3
 72
8
 73
4
 74
0
 40
0
 40
0
 40
0
 40
0
 40
1
 40
1
 40
1
 40
1
 10
66.097221
 20
121.971859
 30
0.0
 10
66.196459
 20
122.071098
 30
0.0
 10
66.252211
 20
122.205695
 30
0.0
 10
66.252210
 20
122.346040
 30
0.0
  0
LINE
  5
197
100
AcDbEntity
  8
Layer_1
 62
5
100
AcDbLine
 10
66.252210
 20
122.346040
 30
0.0
 11
66.252210
 21
141.397180
 31
0.0
  0
SPLINE
  5
198
100
AcDbEntity
  8
Layer_1
 62
5
100
AcDbSpline
 70
8
 71
3
 72
8
 73
4
 74
0
 40
0
 40
0
 40
0
 40
0
 40
1
 40
1
 40
1
 40
1
 10
66.252210
 20
141.397180
 30
0.0
 10
66.252211
 20
141.537525
 30
0.0
 10
66.196459
 20
141.672122
 30
0.0
 10
66.097221
 20
141.771361
 30
0.0
  0
SPLINE
  5
199
100
AcDbEntity
  8
Layer_1
 62
5
100
AcDbSpline
 70
8
 71
3
 72
8
 73
4
 74
0
 40
0
 40
0
 40
0
 40
0
 40
1
 40
1
 40
1
 40
1
 10
66.097221
 20
141.771361
 30
0.0
 10
65.997982
 20
141.870599
 30
0.0
 10
65.863385
 20
141.926351
 30
0.0
 10
65.723040
 20
141.926350
 30
0.0
  0
LINE
  5
19a
100
AcDbEntity
  8
Layer_1
 62
5
100
AcDbLine
 10
65.723040
 20
141.926350
 30
0.0
 11
59.903770
 21
141.926350
 31
0.0
  0
SPLINE
  5
19b
100
AcDbEntity
  8
Layer_1
 62
5
100
AcDbSpline
 70
8
 71
3
 72
8
 73
4
 74
0
 40
0
 40
0
 40
0
 40
0
 40
1
 40
1
 40
1
 40
1
 10
59.903770
 20
141.926350
 30
0.0
 10
59.763425
 20
141.926349
 30
0.0
 10
59.628828
 20
141.982101
 30
0.0
 10
59.529589
 20
142.081339
 30
0.0
  0
SPLINE
  5
19c
100
AcDbEntity
  8
Layer_1
 62
5
100
AcDbSpline
 70
8
 71
3
 72
8
 73
4
 74
0
 40
0
 40
0
 40
0
 40
0
 40
1
 40
1
 40
1
 40
1
 10
59.529589
 20
142.081339
 30
0.0
 10
59.430351
 20
142.180578
 30
0.0
 10
59.374599
 20
142.315175
 30
0.0
 10
59.374600
 20
142.455520
 30
0.0
  0
LINE
  5
19d
100
AcDbEntity
  8
Layer_1
 62
5
100
AcDbLine
 10
59.374600
 20
142.455520
 30
0.0
 11
59.374600
 21
160.447560
 31
0.0
  0
SPLINE
  5
19e
100
AcDbEntity
  8
Layer_1
 62
5
100
AcDbSpline
 70
8
 71
3
 72
8
 73
4
 74
0
 40
0
 40
0
 40
0
 40
0
 40
1
 40
1
 40
1
 40
1
 10
59.374600
 20
160.447560
 30
0.0
 10
59.374599
 20
160.587897
 30
0.0
 10
59.430354
 20
160.722484
 30
0.0
 10
59.529595
 20
160.821709
 30
0.0
  0
SPLINE
  5
19f
100
AcDbEntity
  8
Layer_1
 62
5
100
AcDbSpline
 70
8
 71
3
 72
8
 73
4
 74
0
 40
0
 40
0
 40
0
 40
0
 40
1
 40
1
 40
1
 40
1
 10
59.529595
 20
160.821709
 30
0.0
 10
59.628836
 20
160.920933
 30
0.0
 10
59.763433
 20
160.976665
 30
0.0
 10
59.903770
 20
160.976640
 30
0.0
  0
LINE
  5
1a0
100
AcDbEntity
  8
Layer_1
 62
5
100
AcDbLine
 10
59.903770
 20
160.976640
 30
0.0
 11
70.726550
 21
160.974640
 31
0.0
  0
SPLINE
  5
1a1
100
AcDbEntity
  8
Layer_1
 62
5
100
AcDbSpline
 70
8
 71
3
 72
8
 73
4
 74
0
 40
0
 40
0
 40
0
 40
0
 40
1
 40
1
 40
1
 40
1
 10
70.726550
 20
160.974640
 30
0.0
 10
71.018818
 20
160.974593
 30
0.0
 10
71.255722
 20
160.737648
 30
0.0
 10
71.255720
 20
160.445380
 30
0.0
  0
LINE
  5
1a2
100
AcDbEntity
  8
Layer_1
 62
5
100
AcDbLine
 10
71.255720
 20
160.445380
 30
0.0
 11
71.255720
 21
92.798210
 31
0.0
  0
SPLINE
  5
1a3
100
AcDbEntity
  8
Layer_1
 62
5
100
AcDbSpline
 70
8
 71
3
 72
8
 73
4
 74
0
 40
0
 40
0
 40
0
 40
0
 40
1
 40
1
 40
1
 40
1
 10
71.255720
 20
92.798210
 30
0.0
 10
71.255722
 20
92.459898
 30
0.0
 10
71.118916
 20
92.135964
 30
0.0
 10
70.876410
 20
91.900070
 30
0.0
  0
LINE
  5
1a4
100
AcDbEntity
  8
Layer_1
 62
5
100
AcDbLine
 10
70.876410
 20
91.900070
 30
0.0
 11
68.459230
 21
89.548830
 31
0.0
  0
SPLINE
  5
1a5
100
AcDbEntity
  8
Layer_1
 62
5
100
AcDbSpline
 70
8
 71
3
 72
8
 73
4
 74
0
 40
0
 40
0
 40
0
 40
0
 40
1
 40
1
 40
1
 40
1
 10
68.459230
 20
89.548830
 30
0.0
 10
68.216027
 20
89.312259
 30
0.0
 10
67.890034
 20
89.180046
 30
0.0
 10
67.550750
 20
89.180380
 30
0.0
  0
LINE
  5
1a6
100
AcDbEntity
  8
Layer_1
 62
5
100
AcDbLine
 10
67.550750
 20
89.180380
 30
0.0
 11
45.706960
 21
89.201980
 31
0.0
  0
SPLINE
  5
1a7
100
AcDbEntity
  8
Layer_1
 62
5
100
AcDbSpline
 70
8
 71
3
 72
8
 73
4
 74
0
 40
0
 40
0
 40
0
 40
0
 40
1
 40
1
 40
1
 40
1
 10
45.706960
 20
89.201980
 30
0.0
 10
45.414710
 20
89.202270
 30
0.0
 10
44.940870
 20
89.202300
 30
0.0
 10
44.648620
 20
89.202070
 30
0.0
  0
SPLINE
  5
1a8
100
AcDbEntity
  8
Layer_1
 62
5
100
AcDbSpline
 70
8
 71
3
 72
8
 73
4
 74
0
 40
0
 40
0
 40
0
 40
0
 40
1
 40
1
 40
1
 40
1
 10
44.648620
 20
89.202070
 30
0.0
 10
27.059830
 20
89.187870
 30
0.0
 10
10.820300
 20
89.193070
 30
0.0
 10
-5.271040
 20
89.197070
 30
0.0
  0
SPLINE
  5
1a9
100
AcDbEntity
  8
Layer_1
 62
5
100
AcDbSpline
 70
8
 71
3
 72
8
 73
4
 74
0
 40
0
 40
0
 40
0
 40
0
 40
1
 40
1
 40
1
 40
1
 10
-5.271040
 20
89.197070
 30
0.0
 10
-5.855540
 20
89.197220
 30
0.0
 10
-6.803200
 20
89.197380
 30
0.0
 10
-7.387700
 20
89.197450
 30
0.0
  0
LINE
  5
1aa
100
AcDbEntity
  8
Layer_1
 62
5
100
AcDbLine
 10
-7.387700
 20
89.197450
 30
0.0
 11
-23.027720
 21
89.199450
 31
0.0
  0
SPLINE
  5
1ab
100
AcDbEntity
  8
Layer_1
 62
5
100
AcDbSpline
 70
8
 71
3
 72
8
 73
4
 74
0
 40
0
 40
0
 40
0
 40
0
 40
1
 40
1
 40
1
 40
1
 10
-23.027720
 20
89.199450
 30
0.0
 10
-23.612220
 20
89.199520
 30
0.0
 10
-24.559880
 20
89.199540
 30
0.0
 10
-25.144380
 20
89.199480
 30
0.0
  0
SPLINE
  5
1ac
100
AcDbEntity
  8
Layer_1
 62
5
100
AcDbSpline
 70
8
 71
3
 72
8
 73
4
 74
0
 40
0
 40
0
 40
0
 40
0
 40
1
 40
1
 40
1
 40
1
 10
-25.144380
 20
89.199480
 30
0.0
 10
-37.734000
 20
89.198480
 30
0.0
 10
-50.522030
 20
89.190480
 30
0.0
 10
-64.076180
 20
89.164380
 30
0.0
  0
SPLINE
  5
1ad
100
AcDbEntity
  8
Layer_1
 62
5
100
AcDbSpline
 70
8
 71
3
 72
8
 73
4
 74
0
 40
0
 40
0
 40
0
 40
0
 40
1
 40
1
 40
1
 40
1
 10
-64.076180
 20
89.164380
 30
0.0
 10
-64.660680
 20
89.163380
 30
0.0
 10
-65.478610
 20
89.488080
 30
0.0
 10
-65.903080
 20
89.889910
 30
0.0
  0
LINE
  5
1ae
100
AcDbEntity
  8
Layer_1
 62
5
100
AcDbLine
 10
-65.903080
 20
89.889910
 30
0.0
 11
-67.623200
 21
91.518290
 31
0.0
  0
SPLINE
  5
1af
100
AcDbEntity
  8
Layer_1
 62
5
100
AcDbSpline
 70
8
 71
3
 72
8
 73
4
 74
0
 40
0
 40
0
 40
0
 40
0
 40
1
 40
1
 40
1
 40
1
 10
-67.623200
 20
91.518290
 30
0.0
 10
-68.113829
 20
91.982752
 30
0.0
 10
-68.391780
 20
92.628596
 30
0.0
 10
-68.391800
 20
93.304200
 30
0.0
  0
LINE
  5
1b0
100
AcDbEntity
  8
Layer_1
 62
5
100
AcDbLine
 10
-68.391800
 20
93.304200
 30
0.0
 11
-68.394800
 21
196.146250
 31
0.0
  0
SPLINE
  5
1b1
100
AcDbEntity
  8
Layer_1
 62
5
100
AcDbSpline
 70
8
 71
3
 72
8
 73
4
 74
0
 40
0
 40
0
 40
0
 40
0
 40
1
 40
1
 40
1
 40
1
 10
-68.394800
 20
196.146250
 30
0.0
 10
-68.394817
 20
196.818424
 30
0.0
 10
-68.103024
 20
197.457499
 30
0.0
 10
-67.595090
 20
197.897750
 30
0.0
  0
LINE
  5
1b2
100
AcDbEntity
  8
Layer_1
 62
5
100
AcDbLine
 10
-67.595090
 20
197.897750
 30
0.0
 11
-65.934520
 21
199.337060
 31
0.0
  0
SPLINE
  5
1b3
100
AcDbEntity
  8
Layer_1
 62
5
100
AcDbSpline
 70
8
 71
3
 72
8
 73
4
 74
0
 40
0
 40
0
 40
0
 40
0
 40
1
 40
1
 40
1
 40
1
 10
-65.934520
 20
199.337060
 30
0.0
 10
-65.418725
 20
199.784126
 30
0.0
 10
-64.759028
 20
200.030225
 30
0.0
 10
-64.076450
 20
200.030210
 30
0.0
  0
LINE
  5
1b4
100
AcDbEntity
  8
Layer_1
 62
5
100
AcDbLine
 10
-64.076450
 20
200.030210
 30
0.0
 11
67.036910
 21
200.027210
 31
0.0
  0
SPLINE
  5
1b5
100
AcDbEntity
  8
Layer_1
 62
5
100
AcDbSpline
 70
8
 71
3
 72
8
 73
4
 74
0
 40
0
 40
0
 40
0
 40
0
 40
1
 40
1
 40
1
 40
1
 10
67.036910
 20
200.027210
 30
0.0
 10
67.718417
 20
200.027195
 30
0.0
 10
68.375977
 20
199.775828
 30
0.0
 10
68.883710
 20
199.321230
 30
0.0
  0
LINE
  5
1b6
100
AcDbEntity
  8
Layer_1
 62
5
100
AcDbLine
 10
68.883710
 20
199.321230
 30
0.0
 11
70.467190
 21
197.903450
 31
0.0
  0
SPLINE
  5
1b7
100
AcDbEntity
  8
Layer_1
 62
5
100
AcDbSpline
 70
8
 71
3
 72
8
 73
4
 74
0
 40
0
 40
0
 40
0
 40
0
 40
1
 40
1
 40
1
 40
1
 10
70.467190
 20
197.903450
 30
0.0
 10
70.968923
 20
197.454220
 30
0.0
 10
71.255659
 20
196.812617
 30
0.0
 10
71.255660
 20
196.139160
 30
0.0
  0
LINE
  5
1b8
100
AcDbEntity
  8
Layer_1
 62
5
100
AcDbLine
 10
71.255660
 20
196.139160
 30
0.0
 11
71.255660
 21
181.085240
 31
0.0
  0
SPLINE
  5
1b9
100
AcDbEntity
  8
Layer_1
 62
5
100
AcDbSpline
 70
8
 71
3
 72
8
 73
4
 74
0
 40
0
 40
0
 40
0
 40
0
 40
1
 40
1
 40
1
 40
1
 10
71.255660
 20
181.085240
 30
0.0
 10
71.255660
 20
180.804555
 30
0.0
 10
71.144157
 20
180.535367
 30
0.0
 10
70.945681
 20
180.336894
 30
0.0
  0
SPLINE
  5
1ba
100
AcDbEntity
  8
Layer_1
 62
5
100
AcDbSpline
 70
8
 71
3
 72
8
 73
4
 74
0
 40
0
 40
0
 40
0
 40
0
 40
1
 40
1
 40
1
 40
1
 10
70.945681
 20
180.336894
 30
0.0
 10
70.747205
 20
180.138422
 30
0.0
 10
70.478015
 20
180.026924
 30
0.0
 10
70.197330
 20
180.026930
 30
0.0
  0
LINE
  5
1bb
100
AcDbEntity
  8
Layer_1
 62
5
100
AcDbLine
 10
70.197330
 20
180.026930
 30
0.0
 11
58.811790
 21
180.027200
 31
0.0
  0
SPLINE
  5
1bc
100
AcDbEntity
  8
Layer_1
 62
5
100
AcDbSpline
 70
8
 71
3
 72
8
 73
4
 74
0
 40
0
 40
0
 40
0
 40
0
 40
1
 40
1
 40
1
 40
1
 10
58.811790
 20
180.027200
 30
0.0
 10
58.106237
 20
180.027214
 30
0.0
 10
57.400683
 20
180.027220
 30
0.0
 10
56.695130
 20
180.027220
 30
0.0
  0
LINE
  5
1bd
100
AcDbEntity
  8
Layer_1
 62
5
100
AcDbLine
 10
56.695130
 20
180.027220
 30
0.0
 11
-55.324450
 21
180.027530
 31
0.0
  0
SPLINE
  5
1be
100
AcDbEntity
  8
Layer_1
 62
5
100
AcDbSpline
 70
8
 71
3
 72
8
 73
4
 74
0
 40
0
 40
0
 40
0
 40
0
 40
1
 40
1
 40
1
 40
1
 10
-55.324450
 20
180.027530
 30
0.0
 10
-56.030003
 20
180.027531
 30
0.0
 10
-56.735557
 20
180.027551
 30
0.0
 10
-57.441110
 20
180.027590
 30
0.0
  0
LINE
  5
1bf
100
AcDbEntity
  8
Layer_1
 62
5
100
AcDbLine
 10
-57.441110
 20
180.027590
 30
0.0
 11
-57.441130
 21
180.027660
 31
0.0
  0
SPLINE
  5
1c0
100
AcDbEntity
  8
Layer_1
 62
5
100
AcDbSpline
 70
8
 71
3
 72
8
 73
4
 74
0
 40
0
 40
0
 40
0
 40
0
 40
1
 40
1
 40
1
 40
1
 10
100.349200
 20
189.555040
 30
0.0
 10
99.964961
 20
189.555040
 30
0.0
 10
99.618556
 20
189.323580
 30
0.0
 10
99.471514
 20
188.968589
 30
0.0
  0
SPLINE
  5
1c1
100
AcDbEntity
  8
Layer_1
 62
5
100
AcDbSpline
 70
8
 71
3
 72
8
 73
4
 74
0
 40
0
 40
0
 40
0
 40
0
 40
1
 40
1
 40
1
 40
1
 10
99.471514
 20
188.968589
 30
0.0
 10
99.324473
 20
188.613599
 30
0.0
 10
99.405750
 20
188.204987
 30
0.0
 10
99.677449
 20
187.933289
 30
0.0
  0
SPLINE
  5
1c2
100
AcDbEntity
  8
Layer_1
 62
5
100
AcDbSpline
 70
8
 71
3
 72
8
 73
4
 74
0
 40
0
 40
0
 40
0
 40
0
 40
1
 40
1
 40
1
 40
1
 10
99.677449
 20
187.933289
 30
0.0
 10
99.949147
 20
187.661590
 30
0.0
 10
100.357759
 20
187.580313
 30
0.0
 10
100.712749
 20
187.727354
 30
0.0
  0
SPLINE
  5
1c3
100
AcDbEntity
  8
Layer_1
 62
5
100
AcDbSpline
 70
8
 71
3
 72
8
 73
4
 74
0
 40
0
 40
0
 40
0
 40
0
 40
1
 40
1
 40
1
 40
1
 10
100.712749
 20
187.727354
 30
0.0
 10
101.067740
 20
187.874396
 30
0.0
 10
101.299200
 20
188.220801
 30
0.0
 10
101.299200
 20
188.605040
 30
0.0
  0
SPLINE
  5
1c4
100
AcDbEntity
  8
Layer_1
 62
5
100
AcDbSpline
 70
8
 71
3
 72
8
 73
4
 74
0
 40
0
 40
0
 40
0
 40
0
 40
1
 40
1
 40
1
 40
1
 10
101.299200
 20
188.605040
 30
0.0
 10
101.299200
 20
188.856996
 30
0.0
 10
101.199111
 20
189.098632
 30
0.0
 10
101.020951
 20
189.276791
 30
0.0
  0
SPLINE
  5
1c5
100
AcDbEntity
  8
Layer_1
 62
5
100
AcDbSpline
 70
8
 71
3
 72
8
 73
4
 74
0
 40
0
 40
0
 40
0
 40
0
 40
1
 40
1
 40
1
 40
1
 10
101.020951
 20
189.276791
 30
0.0
 10
100.842792
 20
189.454951
 30
0.0
 10
100.601156
 20
189.555040
 30
0.0
 10
100.349200
 20
189.555040
 30
0.0
  0
LINE
  5
1c6
100
AcDbEntity
  8
Layer_1
 62
5
100
AcDbLine
 10
100.349200
 20
189.555040
 30
0.0
 11
100.349200
 21
189.555040
 31
0.0
  0
SPLINE
  5
1c7
100
AcDbEntity
  8
Layer_1
 62
5
100
AcDbSpline
 70
8
 71
3
 72
8
 73
4
 74
0
 40
0
 40
0
 40
0
 40
0
 40
1
 40
1
 40
1
 40
1
 10
197.622330
 20
189.555040
 30
0.0
 10
197.238091
 20
189.555040
 30
0.0
 10
196.891686
 20
189.323580
 30
0.0
 10
196.744644
 20
188.968589
 30
0.0
  0
SPLINE
  5
1c8
100
AcDbEntity
  8
Layer_1
 62
5
100
AcDbSpline
 70
8
 71
3
 72
8
 73
4
 74
0
 40
0
 40
0
 40
0
 40
0
 40
1
 40
1
 40
1
 40
1
 10
196.744644
 20
188.968589
 30
0.0
 10
196.597603
 20
188.613599
 30
0.0
 10
196.678880
 20
188.204987
 30
0.0
 10
196.950579
 20
187.933289
 30
0.0
  0
SPLINE
  5
1c9
100
AcDbEntity
  8
Layer_1
 62
5
100
AcDbSpline
 70
8
 71
3
 72
8
 73
4
 74
0
 40
0
 40
0
 40
0
 40
0
 40
1
 40
1
 40
1
 40
1
 10
196.950579
 20
187.933289
 30
0.0
 10
197.222277
 20
187.661590
 30
0.0
 10
197.630889
 20
187.580313
 30
0.0
 10
197.985879
 20
187.727354
 30
0.0
  0
SPLINE
  5
1ca
100
AcDbEntity
  8
Layer_1
 62
5
100
AcDbSpline
 70
8
 71
3
 72
8
 73
4
 74
0
 40
0
 40
0
 40
0
 40
0
 40
1
 40
1
 40
1
 40
1
 10
197.985879
 20
187.727354
 30
0.0
 10
198.340870
 20
187.874396
 30
0.0
 10
198.572330
 20
188.220801
 30
0.0
 10
198.572330
 20
188.605040
 30
0.0
  0
SPLINE
  5
1cb
100
AcDbEntity
  8
Layer_1
 62
5
100
AcDbSpline
 70
8
 71
3
 72
8
 73
4
 74
0
 40
0
 40
0
 40
0
 40
0
 40
1
 40
1
 40
1
 40
1
 10
198.572330
 20
188.605040
 30
0.0
 10
198.572330
 20
188.856996
 30
0.0
 10
198.472241
 20
189.098632
 30
0.0
 10
198.294081
 20
189.276791
 30
0.0
  0
SPLINE
  5
1cc
100
AcDbEntity
  8
Layer_1
 62
5
100
AcDbSpline
 70
8
 71
3
 72
8
 73
4
 74
0
 40
0
 40
0
 40
0
 40
0
 40
1
 40
1
 40
1
 40
1
 10
198.294081
 20
189.276791
 30
0.0
 10
198.115922
 20
189.454951
 30
0.0
 10
197.874286
 20
189.555040
 30
0.0
 10
197.622330
 20
189.555040
 30
0.0
  0
LINE
  5
1cd
100
AcDbEntity
  8
Layer_1
 62
5
100
AcDbLine
 10
197.622330
 20
189.555040
 30
0.0
 11
197.622330
 21
189.555040
 31
0.0
  0
SPLINE
  5
1ce
100
AcDbEntity
  8
Layer_1
 62
5
100
AcDbSpline
 70
8
 71
3
 72
8
 73
4
 74
0
 40
0
 40
0
 40
0
 40
0
 40
1
 40
1
 40
1
 40
1
 10
49.607735
 20
189.555040
 30
0.0
 10
49.223496
 20
189.555040
 30
0.0
 10
48.877091
 20
189.323580
 30
0.0
 10
48.730049
 20
188.968589
 30
0.0
  0
SPLINE
  5
1cf
100
AcDbEntity
  8
Layer_1
 62
5
100
AcDbSpline
 70
8
 71
3
 72
8
 73
4
 74
0
 40
0
 40
0
 40
0
 40
0
 40
1
 40
1
 40
1
 40
1
 10
48.730049
 20
188.968589
 30
0.0
 10
48.583008
 20
188.613599
 30
0.0
 10
48.664285
 20
188.204987
 30
0.0
 10
48.935984
 20
187.933289
 30
0.0
  0
SPLINE
  5
1d0
100
AcDbEntity
  8
Layer_1
 62
5
100
AcDbSpline
 70
8
 71
3
 72
8
 73
4
 74
0
 40
0
 40
0
 40
0
 40
0
 40
1
 40
1
 40
1
 40
1
 10
48.935984
 20
187.933289
 30
0.0
 10
49.207682
 20
187.661590
 30
0.0
 10
49.616294
 20
187.580313
 30
0.0
 10
49.971284
 20
187.727354
 30
0.0
  0
SPLINE
  5
1d1
100
AcDbEntity
  8
Layer_1
 62
5
100
AcDbSpline
 70
8
 71
3
 72
8
 73
4
 74
0
 40
0
 40
0
 40
0
 40
0
 40
1
 40
1
 40
1
 40
1
 10
49.971284
 20
187.727354
 30
0.0
 10
50.326275
 20
187.874396
 30
0.0
 10
50.557735
 20
188.220801
 30
0.0
 10
50.557735
 20
188.605040
 30
0.0
  0
SPLINE
  5
1d2
100
AcDbEntity
  8
Layer_1
 62
5
100
AcDbSpline
 70
8
 71
3
 72
8
 73
4
 74
0
 40
0
 40
0
 40
0
 40
0
 40
1
 40
1
 40
1
 40
1
 10
50.557735
 20
188.605040
 30
0.0
 10
50.557735
 20
188.856996
 30
0.0
 10
50.457646
 20
189.098632
 30
0.0
 10
50.279486
 20
189.276791
 30
0.0
  0
SPLINE
  5
1d3
100
AcDbEntity
  8
Layer_1
 62
5
100
AcDbSpline
 70
8
 71
3
 72
8
 73
4
 74
0
 40
0
 40
0
 40
0
 40
0
 40
1
 40
1
 40
1
 40
1
 10
50.279486
 20
189.276791
 30
0.0
 10
50.101327
 20
189.454951
 30
0.0
 10
49.859691
 20
189.555040
 30
0.0
 10
49.607735
 20
189.555040
 30
0.0
  0
LINE
  5
1d4
100
AcDbEntity
  8
Layer_1
 62
5
100
AcDbLine
 10
49.607735
 20
189.555040
 30
0.0
 11
49.607735
 21
189.555040
 31
0.0
  0
SPLINE
  5
1d5
100
AcDbEntity
  8
Layer_1
 62
5
100
AcDbSpline
 70
8
 71
3
 72
8
 73
4
 74
0
 40
0
 40
0
 40
0
 40
0
 40
1
 40
1
 40
1
 40
1
 10
-47.665398
 20
189.555040
 30
0.0
 10
-48.049637
 20
189.555040
 30
0.0
 10
-48.396042
 20
189.323580
 30
0.0
 10
-48.543084
 20
188.968589
 30
0.0
  0
SPLINE
  5
1d6
100
AcDbEntity
  8
Layer_1
 62
5
100
AcDbSpline
 70
8
 71
3
 72
8
 73
4
 74
0
 40
0
 40
0
 40
0
 40
0
 40
1
 40
1
 40
1
 40
1
 10
-48.543084
 20
188.968589
 30
0.0
 10
-48.690125
 20
188.613599
 30
0.0
 10
-48.608848
 20
188.204987
 30
0.0
 10
-48.337149
 20
187.933289
 30
0.0
  0
SPLINE
  5
1d7
100
AcDbEntity
  8
Layer_1
 62
5
100
AcDbSpline
 70
8
 71
3
 72
8
 73
4
 74
0
 40
0
 40
0
 40
0
 40
0
 40
1
 40
1
 40
1
 40
1
 10
-48.337149
 20
187.933289
 30
0.0
 10
-48.065451
 20
187.661590
 30
0.0
 10
-47.656839
 20
187.580313
 30
0.0
 10
-47.301849
 20
187.727354
 30
0.0
  0
SPLINE
  5
1d8
100
AcDbEntity
  8
Layer_1
 62
5
100
AcDbSpline
 70
8
 71
3
 72
8
 73
4
 74
0
 40
0
 40
0
 40
0
 40
0
 40
1
 40
1
 40
1
 40
1
 10
-47.301849
 20
187.727354
 30
0.0
 10
-46.946858
 20
187.874396
 30
0.0
 10
-46.715398
 20
188.220801
 30
0.0
 10
-46.715398
 20
188.605040
 30
0.0
  0
SPLINE
  5
1d9
100
AcDbEntity
  8
Layer_1
 62
5
100
AcDbSpline
 70
8
 71
3
 72
8
 73
4
 74
0
 40
0
 40
0
 40
0
 40
0
 40
1
 40
1
 40
1
 40
1
 10
-46.715398
 20
188.605040
 30
0.0
 10
-46.715398
 20
189.129711
 30
0.0
 10
-47.140727
 20
189.555040
 30
0.0
 10
-47.665398
 20
189.555040
 30
0.0
  0
LINE
  5
1da
100
AcDbEntity
  8
Layer_1
 62
5
100
AcDbLine
 10
-47.665398
 20
189.555040
 30
0.0
 11
-47.665398
 21
189.555040
 31
0.0
  0
ENDSEC
  0
SECTION
  2
OBJECTS
  0
DICTIONARY
  5
C
330
0
100
AcDbDictionary
  3
ACAD_GROUP
350
D
  3
ACAD_MLINESTYLE
350
17
  0
DICTIONARY
  5
D
330
C
100
AcDbDictionary
  0
DICTIONARY
  5
1A
330
C
100
AcDbDictionary
  0
DICTIONARY
  5
17
330
C
100
AcDbDictionary
  3
STANDARD
350
18
  0
DICTIONARY
  5
19
330
C
100
AcDbDictionary
  0
ENDSEC
  0
EOF
