  0
SECTION
  2
HEADER
  9
$ACADVER
  1
AC1014
  9
$HANDSEED
  5
FFFF
  9
$INSUNITS
 70
     0
  9
$MEASUREMENT
 70
     1
  0
ENDSEC
  0
SECTION
  2
TABLES
  0
TABLE
  2
VPORT
  5
8
330
0
100
AcDbSymbolTable
 70
     4
  0
VPORT
  5
2E
330
8
100
AcDbSymbolTableRecord
100
AcDbViewportTableRecord
  2
*ACTIVE
 70
     0
 10
0.0
 20
0.0
 11
1.0
 21
1.0
 12
210.0
 22
148.5
 13
0.0
 23
0.0
 14
10.0
 24
10.0
 15
10.0
 25
10.0
 16
0.0
 26
0.0
 36
1.0
 17
0.0
 27
0.0
 37
0.0
 40
341.0
 41
1.24
 42
50.0
 43
0.0
 44
0.0
 50
0.0
 51
0.0
 71
     0
 72
   100
 73
     1
 74
     3
 75
     0
 76
     0
 77
     0
 78
     0
  0
ENDTAB
  0
TABLE
  2
LTYPE
  5
5
330
0
100
AcDbSymbolTable
 70
     1
  0
LTYPE
  5
14
330
5
100
AcDbSymbolTableRecord
100
AcDbLinetypeTableRecord
  2
BYBLOCK
 70
     0
  3

 72
    65
 73
     0
 40
0.0
  0
LTYPE
  5
15
330
5
100
AcDbSymbolTableRecord
100
AcDbLinetypeTableRecord
  2
BYLAYER
 70
     0
  3

 72
    65
 73
     0
 40
0.0
  0
LTYPE
  5
16
330
5
100
AcDbSymbolTableRecord
100
AcDbLinetypeTableRecord
  2
CONTINUOUS
 70
     0
  3
Solid line
 72
    65
 73
     0
 40
0.0
  0
ENDTAB
  0
TABLE
  2
LAYER
  5
2
100
AcDbSymbolTable
 70
2
  0
LAYER
  5
50
100
AcDbSymbolTableRecord
100
AcDbLayerTableRecord
  2
0
 70
0
  6
CONTINUOUS
  0
LAYER
  5
51
100
AcDbSymbolTableRecord
100
AcDbLayerTableRecord
  2
Layer_1
 70
0
  6
CONTINUOUS
  0
ENDTAB
  0
TABLE
  2
STYLE
  5
3
330
0
100
AcDbSymbolTable
 70
     1
  0
STYLE
  5
11
330
3
100
AcDbSymbolTableRecord
100
AcDbTextStyleTableRecord
  2
STANDARD
 70
     0
 40
0.0
 41
1.0
 50
0.0
 71
     0
 42
2.5
  3
txt
  4

  0
ENDTAB
  0
TABLE
  2
VIEW
  5
6
330
0
100
AcDbSymbolTable
 70
     0
  0
ENDTAB
  0
TABLE
  2
UCS
  5
7
330
0
100
AcDbSymbolTable
 70
     0
  0
ENDTAB
  0
TABLE
  2
APPID
  5
9
330
0
100
AcDbSymbolTable
 70
     2
  0
APPID
  5
12
330
9
100
AcDbSymbolTableRecord
100
AcDbRegAppTableRecord
  2
ACAD
 70
     0
  0
ENDTAB
  0
TABLE
  2
DIMSTYLE
  5
A
330
0
100
AcDbSymbolTable
 70
     1
  0
DIMSTYLE
105
27
330
A
100
AcDbSymbolTableRecord
100
AcDbDimStyleTableRecord
  2
ISO-25
 70
     0
  3

  4

  5

  6

  7

 40
1.0
 41
2.5
 42
0.625
 43
3.75
 44
1.25
 45
0.0
 46
0.0
 47
0.0
 48
0.0
140
2.5
141
2.5
142
0.0
143
0.03937007874016
144
1.0
145
0.0
146
1.0
147
0.625
 71
     0
 72
     0
 73
     0
 74
     0
 75
     0
 76
     0
 77
     1
 78
     8
170
     0
171
     3
172
     1
173
     0
174
     0
175
     0
176
     0
177
     0
178
     0
270
     2
271
     2
272
     2
273
     2
274
     3
340
11
275
     0
280
     0
281
     0
282
     0
283
     0
284
     8
285
     0
286
     0
287
     3
288
     0
  0
ENDTAB
  0
TABLE
  2
BLOCK_RECORD
  5
1
330
0
100
AcDbSymbolTable
 70
     1
  0
BLOCK_RECORD
  5
1F
330
1
100
AcDbSymbolTableRecord
100
AcDbBlockTableRecord
  2
*MODEL_SPACE
  0
BLOCK_RECORD
  5
1B
330
1
100
AcDbSymbolTableRecord
100
AcDbBlockTableRecord
  2
*PAPER_SPACE
  0
ENDTAB
  0
ENDSEC
  0
SECTION
  2
BLOCKS
  0
BLOCK
  5
20
330
1F
100
AcDbEntity
  8
0
100
AcDbBlockBegin
  2
*MODEL_SPACE
 70
     0
 10
0.0
 20
0.0
 30
0.0
  3
*MODEL_SPACE
  1

  0
ENDBLK
  5
21
330
1F
100
AcDbEntity
  8
0
100
AcDbBlockEnd
  0
BLOCK
  5
1C
330
1B
100
AcDbEntity
 67
     1
  8
0
100
AcDbBlockBegin
  2
*PAPER_SPACE
  1

  0
ENDBLK
  5
1D
330
1B
100
AcDbEntity
 67
     1
  8
0
100
AcDbBlockEnd
  0
ENDSEC
  0
SECTION
  2
ENTITIES
  0
LINE
  5
100
100
AcDbEntity
  8
Layer_1
 62
4
100
AcDbLine
 10
211.539440
 20
103.460950
 30
0.0
 11
176.134940
 21
103.546650
 31
0.0
  0
SPLINE
  5
101
100
AcDbEntity
  8
Layer_1
 62
4
100
AcDbSpline
 70
8
 71
3
 72
8
 73
4
 74
0
 40
0
 40
0
 40
0
 40
0
 40
1
 40
1
 40
1
 40
1
 10
176.134940
 20
103.546650
 30
0.0
 10
175.842690
 20
103.547360
 30
0.0
 10
175.368850
 20
103.548650
 30
0.0
 10
175.076600
 20
103.548650
 30
0.0
  0
SPLINE
  5
102
100
AcDbEntity
  8
Layer_1
 62
4
100
AcDbSpline
 70
8
 71
3
 72
8
 73
4
 74
0
 40
0
 40
0
 40
0
 40
0
 40
1
 40
1
 40
1
 40
1
 10
175.076600
 20
103.548650
 30
0.0
 10
160.493200
 20
103.571950
 30
0.0
 10
145.909750
 20
103.556650
 30
0.0
 10
131.326330
 20
103.555650
 30
0.0
  0
SPLINE
  5
103
100
AcDbEntity
  8
Layer_1
 62
4
100
AcDbSpline
 70
8
 71
3
 72
8
 73
4
 74
0
 40
0
 40
0
 40
0
 40
0
 40
1
 40
1
 40
1
 40
1
 10
131.326330
 20
103.555650
 30
0.0
 10
131.034080
 20
103.555640
 30
0.0
 10
130.560250
 20
103.555670
 30
0.0
 10
130.268000
 20
103.555700
 30
0.0
  0
LINE
  5
104
100
AcDbEntity
  8
Layer_1
 62
4
100
AcDbLine
 10
130.268000
 20
103.555700
 30
0.0
 11
94.863480
 21
103.559700
 31
0.0
  0
SPLINE
  5
105
100
AcDbEntity
  8
Layer_1
 62
4
100
AcDbSpline
 70
8
 71
3
 72
8
 73
4
 74
0
 40
0
 40
0
 40
0
 40
0
 40
1
 40
1
 40
1
 40
1
 10
94.863480
 20
103.559700
 30
0.0
 10
94.510700
 20
103.559739
 30
0.0
 10
94.157920
 20
103.559759
 30
0.0
 10
93.805140
 20
103.559760
 30
0.0
  0
LINE
  5
106
100
AcDbEntity
  8
Layer_1
 62
4
100
AcDbLine
 10
93.805140
 20
103.559760
 30
0.0
 11
89.857620
 21
103.559760
 31
0.0
  0
SPLINE
  5
107
100
AcDbEntity
  8
Layer_1
 62
4
100
AcDbSpline
 70
8
 71
3
 72
8
 73
4
 74
0
 40
0
 40
0
 40
0
 40
0
 40
1
 40
1
 40
1
 40
1
 10
89.857620
 20
103.559760
 30
0.0
 10
89.717275
 20
103.559759
 30
0.0
 10
89.582678
 20
103.615511
 30
0.0
 10
89.483439
 20
103.714749
 30
0.0
  0
SPLINE
  5
108
100
AcDbEntity
  8
Layer_1
 62
4
100
AcDbSpline
 70
8
 71
3
 72
8
 73
4
 74
0
 40
0
 40
0
 40
0
 40
0
 40
1
 40
1
 40
1
 40
1
 10
89.483439
 20
103.714749
 30
0.0
 10
89.384201
 20
103.813988
 30
0.0
 10
89.328449
 20
103.948585
 30
0.0
 10
89.328450
 20
104.088930
 30
0.0
  0
LINE
  5
109
100
AcDbEntity
  8
Layer_1
 62
4
100
AcDbLine
 10
89.328450
 20
104.088930
 30
0.0
 11
89.328450
 21
123.141920
 31
0.0
  0
SPLINE
  5
10a
100
AcDbEntity
  8
Layer_1
 62
4
100
AcDbSpline
 70
8
 71
3
 72
8
 73
4
 74
0
 40
0
 40
0
 40
0
 40
0
 40
1
 40
1
 40
1
 40
1
 10
89.328450
 20
123.141920
 30
0.0
 10
89.328449
 20
123.282265
 30
0.0
 10
89.384201
 20
123.416862
 30
0.0
 10
89.483439
 20
123.516101
 30
0.0
  0
SPLINE
  5
10b
100
AcDbEntity
  8
Layer_1
 62
4
100
AcDbSpline
 70
8
 71
3
 72
8
 73
4
 74
0
 40
0
 40
0
 40
0
 40
0
 40
1
 40
1
 40
1
 40
1
 10
89.483439
 20
123.516101
 30
0.0
 10
89.582678
 20
123.615339
 30
0.0
 10
89.717275
 20
123.671091
 30
0.0
 10
89.857620
 20
123.671090
 30
0.0
  0
LINE
  5
10c
100
AcDbEntity
  8
Layer_1
 62
4
100
AcDbLine
 10
89.857620
 20
123.671090
 30
0.0
 11
98.324670
 21
123.671090
 31
0.0
  0
SPLINE
  5
10d
100
AcDbEntity
  8
Layer_1
 62
4
100
AcDbSpline
 70
8
 71
3
 72
8
 73
4
 74
0
 40
0
 40
0
 40
0
 40
0
 40
1
 40
1
 40
1
 40
1
 10
98.324670
 20
123.671090
 30
0.0
 10
98.465015
 20
123.671089
 30
0.0
 10
98.599612
 20
123.726841
 30
0.0
 10
98.698851
 20
123.826079
 30
0.0
  0
SPLINE
  5
10e
100
AcDbEntity
  8
Layer_1
 62
4
100
AcDbSpline
 70
8
 71
3
 72
8
 73
4
 74
0
 40
0
 40
0
 40
0
 40
0
 40
1
 40
1
 40
1
 40
1
 10
98.698851
 20
123.826079
 30
0.0
 10
98.798089
 20
123.925318
 30
0.0
 10
98.853841
 20
124.059915
 30
0.0
 10
98.853840
 20
124.200260
 30
0.0
  0
LINE
  5
10f
100
AcDbEntity
  8
Layer_1
 62
4
100
AcDbLine
 10
98.853840
 20
124.200260
 30
0.0
 11
98.853840
 21
141.130200
 31
0.0
  0
SPLINE
  5
110
100
AcDbEntity
  8
Layer_1
 62
4
100
AcDbSpline
 70
8
 71
3
 72
8
 73
4
 74
0
 40
0
 40
0
 40
0
 40
0
 40
1
 40
1
 40
1
 40
1
 10
98.853840
 20
141.130200
 30
0.0
 10
98.853841
 20
141.270545
 30
0.0
 10
98.798089
 20
141.405142
 30
0.0
 10
98.698851
 20
141.504381
 30
0.0
  0
SPLINE
  5
111
100
AcDbEntity
  8
Layer_1
 62
4
100
AcDbSpline
 70
8
 71
3
 72
8
 73
4
 74
0
 40
0
 40
0
 40
0
 40
0
 40
1
 40
1
 40
1
 40
1
 10
98.698851
 20
141.504381
 30
0.0
 10
98.599612
 20
141.603619
 30
0.0
 10
98.465015
 20
141.659371
 30
0.0
 10
98.324670
 20
141.659370
 30
0.0
  0
LINE
  5
112
100
AcDbEntity
  8
Layer_1
 62
4
100
AcDbLine
 10
98.324670
 20
141.659370
 30
0.0
 11
89.857620
 21
141.659370
 31
0.0
  0
SPLINE
  5
113
100
AcDbEntity
  8
Layer_1
 62
4
100
AcDbSpline
 70
8
 71
3
 72
8
 73
4
 74
0
 40
0
 40
0
 40
0
 40
0
 40
1
 40
1
 40
1
 40
1
 10
89.857620
 20
141.659370
 30
0.0
 10
89.717275
 20
141.659369
 30
0.0
 10
89.582678
 20
141.715121
 30
0.0
 10
89.483439
 20
141.814359
 30
0.0
  0
SPLINE
  5
114
100
AcDbEntity
  8
Layer_1
 62
4
100
AcDbSpline
 70
8
 71
3
 72
8
 73
4
 74
0
 40
0
 40
0
 40
0
 40
0
 40
1
 40
1
 40
1
 40
1
 10
89.483439
 20
141.814359
 30
0.0
 10
89.384201
 20
141.913598
 30
0.0
 10
89.328449
 20
142.048195
 30
0.0
 10
89.328450
 20
142.188540
 30
0.0
  0
LINE
  5
115
100
AcDbEntity
  8
Layer_1
 62
4
100
AcDbLine
 10
89.328450
 20
142.188540
 30
0.0
 11
89.328450
 21
160.180990
 31
0.0
  0
SPLINE
  5
116
100
AcDbEntity
  8
Layer_1
 62
4
100
AcDbSpline
 70
8
 71
3
 72
8
 73
4
 74
0
 40
0
 40
0
 40
0
 40
0
 40
1
 40
1
 40
1
 40
1
 10
89.328450
 20
160.180990
 30
0.0
 10
89.328450
 20
160.473240
 30
0.0
 10
89.091530
 20
160.710160
 30
0.0
 10
88.799280
 20
160.710160
 30
0.0
  0
SPLINE
  5
117
100
AcDbEntity
  8
Layer_1
 62
4
100
AcDbSpline
 70
8
 71
3
 72
8
 73
4
 74
0
 40
0
 40
0
 40
0
 40
0
 40
1
 40
1
 40
1
 40
1
 10
88.799280
 20
160.710160
 30
0.0
 10
87.564170
 20
160.710150
 30
0.0
 10
86.329060
 20
160.710160
 30
0.0
 10
85.093950
 20
160.710160
 30
0.0
  0
SPLINE
  5
118
100
AcDbEntity
  8
Layer_1
 62
4
100
AcDbSpline
 70
8
 71
3
 72
8
 73
4
 74
0
 40
0
 40
0
 40
0
 40
0
 40
1
 40
1
 40
1
 40
1
 10
85.093950
 20
160.710160
 30
0.0
 10
84.801700
 20
160.710160
 30
0.0
 10
84.564780
 20
160.947080
 30
0.0
 10
84.564780
 20
161.239330
 30
0.0
  0
LINE
  5
119
100
AcDbEntity
  8
Layer_1
 62
4
100
AcDbLine
 10
84.564780
 20
161.239330
 30
0.0
 11
84.564780
 21
180.292310
 31
0.0
  0
SPLINE
  5
11a
100
AcDbEntity
  8
Layer_1
 62
4
100
AcDbSpline
 70
8
 71
3
 72
8
 73
4
 74
0
 40
0
 40
0
 40
0
 40
0
 40
1
 40
1
 40
1
 40
1
 10
84.564780
 20
180.292310
 30
0.0
 10
84.564780
 20
180.584560
 30
0.0
 10
84.801700
 20
180.821540
 30
0.0
 10
85.093950
 20
180.821430
 30
0.0
  0
SPLINE
  5
11b
100
AcDbEntity
  8
Layer_1
 62
4
100
AcDbSpline
 70
8
 71
3
 72
8
 73
4
 74
0
 40
0
 40
0
 40
0
 40
0
 40
1
 40
1
 40
1
 40
1
 10
85.093950
 20
180.821430
 30
0.0
 10
85.582970
 20
180.821250
 30
0.0
 10
86.071980
 20
180.820710
 30
0.0
 10
86.561000
 20
180.820430
 30
0.0
  0
SPLINE
  5
11c
100
AcDbEntity
  8
Layer_1
 62
4
100
AcDbSpline
 70
8
 71
3
 72
8
 73
4
 74
0
 40
0
 40
0
 40
0
 40
0
 40
1
 40
1
 40
1
 40
1
 10
86.561000
 20
180.820430
 30
0.0
 10
86.853250
 20
180.820080
 30
0.0
 10
87.327090
 20
180.819800
 30
0.0
 10
87.619340
 20
180.819820
 30
0.0
  0
LINE
  5
11d
100
AcDbEntity
  8
Layer_1
 62
4
100
AcDbLine
 10
87.619340
 20
180.819820
 30
0.0
 11
123.023840
 21
180.821820
 31
0.0
  0
SPLINE
  5
11e
100
AcDbEntity
  8
Layer_1
 62
4
100
AcDbSpline
 70
8
 71
3
 72
8
 73
4
 74
0
 40
0
 40
0
 40
0
 40
0
 40
1
 40
1
 40
1
 40
1
 10
123.023840
 20
180.821820
 30
0.0
 10
123.316090
 20
180.821840
 30
0.0
 10
123.789930
 20
180.821860
 30
0.0
 10
124.082180
 20
180.821860
 30
0.0
  0
SPLINE
  5
11f
100
AcDbEntity
  8
Layer_1
 62
4
100
AcDbSpline
 70
8
 71
3
 72
8
 73
4
 74
0
 40
0
 40
0
 40
0
 40
0
 40
1
 40
1
 40
1
 40
1
 10
124.082180
 20
180.821860
 30
0.0
 10
141.080310
 20
180.822240
 30
0.0
 10
158.078440
 20
180.820870
 30
0.0
 10
175.076580
 20
180.819860
 30
0.0
  0
SPLINE
  5
120
100
AcDbEntity
  8
Layer_1
 62
4
100
AcDbSpline
 70
8
 71
3
 72
8
 73
4
 74
0
 40
0
 40
0
 40
0
 40
0
 40
1
 40
1
 40
1
 40
1
 10
175.076580
 20
180.819860
 30
0.0
 10
175.368830
 20
180.819840
 30
0.0
 10
175.842670
 20
180.820500
 30
0.0
 10
176.134910
 20
180.820860
 30
0.0
  0
LINE
  5
121
100
AcDbEntity
  8
Layer_1
 62
4
100
AcDbLine
 10
176.134910
 20
180.820860
 30
0.0
 11
211.539420
 21
180.921150
 31
0.0
  0
SPLINE
  5
122
100
AcDbEntity
  8
Layer_1
 62
4
100
AcDbSpline
 70
8
 71
3
 72
8
 73
4
 74
0
 40
0
 40
0
 40
0
 40
0
 40
1
 40
1
 40
1
 40
1
 10
211.539420
 20
180.921150
 30
0.0
 10
211.892196
 20
180.922149
 30
0.0
 10
212.244973
 20
180.922815
 30
0.0
 10
212.597750
 20
180.923150
 30
0.0
  0
LINE
  5
123
100
AcDbEntity
  8
Layer_1
 62
4
100
AcDbLine
 10
212.597750
 20
180.923150
 30
0.0
 11
213.644170
 21
180.924150
 31
0.0
  0
SPLINE
  5
124
100
AcDbEntity
  8
Layer_1
 62
4
100
AcDbSpline
 70
8
 71
3
 72
8
 73
4
 74
0
 40
0
 40
0
 40
0
 40
0
 40
1
 40
1
 40
1
 40
1
 10
213.644170
 20
180.924150
 30
0.0
 10
213.936420
 20
180.924420
 30
0.0
 10
214.173350
 20
180.687730
 30
0.0
 10
214.173350
 20
180.395480
 30
0.0
  0
SPLINE
  5
125
100
AcDbEntity
  8
Layer_1
 62
4
100
AcDbSpline
 70
8
 71
3
 72
8
 73
4
 74
0
 40
0
 40
0
 40
0
 40
0
 40
1
 40
1
 40
1
 40
1
 10
214.173350
 20
180.395480
 30
0.0
 10
214.173890
 20
155.022390
 30
0.0
 10
214.173100
 20
129.358320
 30
0.0
 10
214.171350
 20
103.987430
 30
0.0
  0
SPLINE
  5
126
100
AcDbEntity
  8
Layer_1
 62
4
100
AcDbSpline
 70
8
 71
3
 72
8
 73
4
 74
0
 40
0
 40
0
 40
0
 40
0
 40
1
 40
1
 40
1
 40
1
 10
214.171350
 20
103.987430
 30
0.0
 10
214.171330
 20
103.695180
 30
0.0
 10
213.934390
 20
103.458380
 30
0.0
 10
213.642140
 20
103.458530
 30
0.0
  0
LINE
  5
127
100
AcDbEntity
  8
Layer_1
 62
4
100
AcDbLine
 10
213.642140
 20
103.458530
 30
0.0
 11
212.597750
 21
103.459070
 31
0.0
  0
SPLINE
  5
128
100
AcDbEntity
  8
Layer_1
 62
4
100
AcDbSpline
 70
8
 71
3
 72
8
 73
4
 74
0
 40
0
 40
0
 40
0
 40
0
 40
1
 40
1
 40
1
 40
1
 10
212.597750
 20
103.459070
 30
0.0
 10
212.244969
 20
103.459400
 30
0.0
 10
211.892189
 20
103.460067
 30
0.0
 10
211.539410
 20
103.461070
 30
0.0
  0
LINE
  5
129
100
AcDbEntity
  8
Layer_1
 62
4
100
AcDbLine
 10
211.539410
 20
103.461070
 30
0.0
 11
211.539440
 21
103.460950
 31
0.0
  0
LINE
  5
12a
100
AcDbEntity
  8
Layer_1
 62
4
100
AcDbLine
 10
-62.692020
 20
103.559640
 30
0.0
 11
-66.569230
 21
103.559640
 31
0.0
  0
SPLINE
  5
12b
100
AcDbEntity
  8
Layer_1
 62
4
100
AcDbSpline
 70
8
 71
3
 72
8
 73
4
 74
0
 40
0
 40
0
 40
0
 40
0
 40
1
 40
1
 40
1
 40
1
 10
-66.569230
 20
103.559640
 30
0.0
 10
-66.861480
 20
103.559640
 30
0.0
 10
-67.098420
 20
103.796560
 30
0.0
 10
-67.098440
 20
104.088810
 30
0.0
  0
SPLINE
  5
12c
100
AcDbEntity
  8
Layer_1
 62
4
100
AcDbSpline
 70
8
 71
3
 72
8
 73
4
 74
0
 40
0
 40
0
 40
0
 40
0
 40
1
 40
1
 40
1
 40
1
 10
-67.098440
 20
104.088810
 30
0.0
 10
-67.100440
 20
129.492150
 30
0.0
 10
-67.098190
 20
154.888820
 30
0.0
 10
-67.100440
 20
180.292190
 30
0.0
  0
SPLINE
  5
12d
100
AcDbEntity
  8
Layer_1
 62
4
100
AcDbSpline
 70
8
 71
3
 72
8
 73
4
 74
0
 40
0
 40
0
 40
0
 40
0
 40
1
 40
1
 40
1
 40
1
 10
-67.100440
 20
180.292190
 30
0.0
 10
-67.100470
 20
180.584440
 30
0.0
 10
-66.863570
 20
180.821360
 30
0.0
 10
-66.571320
 20
180.821360
 30
0.0
  0
LINE
  5
12e
100
AcDbEntity
  8
Layer_1
 62
4
100
AcDbLine
 10
-66.571320
 20
180.821360
 30
0.0
 11
-62.713650
 21
180.821360
 31
0.0
  0
SPLINE
  5
12f
100
AcDbEntity
  8
Layer_1
 62
4
100
AcDbSpline
 70
8
 71
3
 72
8
 73
4
 74
0
 40
0
 40
0
 40
0
 40
0
 40
1
 40
1
 40
1
 40
1
 10
-62.713650
 20
180.821360
 30
0.0
 10
-62.360870
 20
180.821360
 30
0.0
 10
-62.008090
 20
180.821350
 30
0.0
 10
-61.655310
 20
180.821330
 30
0.0
  0
LINE
  5
130
100
AcDbEntity
  8
Layer_1
 62
4
100
AcDbLine
 10
-61.655310
 20
180.821330
 30
0.0
 11
-26.246810
 21
180.819330
 31
0.0
  0
SPLINE
  5
131
100
AcDbEntity
  8
Layer_1
 62
4
100
AcDbSpline
 70
8
 71
3
 72
8
 73
4
 74
0
 40
0
 40
0
 40
0
 40
0
 40
1
 40
1
 40
1
 40
1
 10
-26.246810
 20
180.819330
 30
0.0
 10
-25.954560
 20
180.819310
 30
0.0
 10
-25.480720
 20
180.819380
 30
0.0
 10
-25.188470
 20
180.819470
 30
0.0
  0
SPLINE
  5
132
100
AcDbEntity
  8
Layer_1
 62
4
100
AcDbSpline
 70
8
 71
3
 72
8
 73
4
 74
0
 40
0
 40
0
 40
0
 40
0
 40
1
 40
1
 40
1
 40
1
 10
-25.188470
 20
180.819470
 30
0.0
 10
-13.879140
 20
180.822470
 30
0.0
 10
-2.569790
 20
180.812470
 30
0.0
 10
8.739530
 20
180.832070
 30
0.0
  0
SPLINE
  5
133
100
AcDbEntity
  8
Layer_1
 62
4
100
AcDbSpline
 70
8
 71
3
 72
8
 73
4
 74
0
 40
0
 40
0
 40
0
 40
0
 40
1
 40
1
 40
1
 40
1
 10
8.739530
 20
180.832070
 30
0.0
 10
9.031780
 20
180.832570
 30
0.0
 10
9.505610
 20
180.832910
 30
0.0
 10
9.797860
 20
180.832820
 30
0.0
  0
LINE
  5
134
100
AcDbEntity
  8
Layer_1
 62
4
100
AcDbLine
 10
9.797860
 20
180.832820
 30
0.0
 11
45.206320
 21
180.821420
 31
0.0
  0
SPLINE
  5
135
100
AcDbEntity
  8
Layer_1
 62
4
100
AcDbSpline
 70
8
 71
3
 72
8
 73
4
 74
0
 40
0
 40
0
 40
0
 40
0
 40
1
 40
1
 40
1
 40
1
 10
45.206320
 20
180.821420
 30
0.0
 10
45.559100
 20
180.821307
 30
0.0
 10
45.911880
 20
180.821250
 30
0.0
 10
46.264660
 20
180.821250
 30
0.0
  0
LINE
  5
136
100
AcDbEntity
  8
Layer_1
 62
4
100
AcDbLine
 10
46.264660
 20
180.821250
 30
0.0
 11
47.731710
 21
180.821250
 31
0.0
  0
SPLINE
  5
137
100
AcDbEntity
  8
Layer_1
 62
4
100
AcDbSpline
 70
8
 71
3
 72
8
 73
4
 74
0
 40
0
 40
0
 40
0
 40
0
 40
1
 40
1
 40
1
 40
1
 10
47.731710
 20
180.821250
 30
0.0
 10
47.872055
 20
180.821251
 30
0.0
 10
48.006652
 20
180.765499
 30
0.0
 10
48.105891
 20
180.666261
 30
0.0
  0
SPLINE
  5
138
100
AcDbEntity
  8
Layer_1
 62
4
100
AcDbSpline
 70
8
 71
3
 72
8
 73
4
 74
0
 40
0
 40
0
 40
0
 40
0
 40
1
 40
1
 40
1
 40
1
 10
48.105891
 20
180.666261
 30
0.0
 10
48.205129
 20
180.567022
 30
0.0
 10
48.260881
 20
180.432425
 30
0.0
 10
48.260880
 20
180.292080
 30
0.0
  0
LINE
  5
139
100
AcDbEntity
  8
Layer_1
 62
4
100
AcDbLine
 10
48.260880
 20
180.292080
 30
0.0
 11
48.260880
 21
162.299640
 31
0.0
  0
SPLINE
  5
13a
100
AcDbEntity
  8
Layer_1
 62
4
100
AcDbSpline
 70
8
 71
3
 72
8
 73
4
 74
0
 40
0
 40
0
 40
0
 40
0
 40
1
 40
1
 40
1
 40
1
 10
48.260880
 20
162.299640
 30
0.0
 10
48.260879
 20
162.159295
 30
0.0
 10
48.316631
 20
162.024698
 30
0.0
 10
48.415869
 20
161.925459
 30
0.0
  0
SPLINE
  5
13b
100
AcDbEntity
  8
Layer_1
 62
4
100
AcDbSpline
 70
8
 71
3
 72
8
 73
4
 74
0
 40
0
 40
0
 40
0
 40
0
 40
1
 40
1
 40
1
 40
1
 10
48.415869
 20
161.925459
 30
0.0
 10
48.515108
 20
161.826221
 30
0.0
 10
48.649705
 20
161.770469
 30
0.0
 10
48.790050
 20
161.770470
 30
0.0
  0
LINE
  5
13c
100
AcDbEntity
  8
Layer_1
 62
4
100
AcDbLine
 10
48.790050
 20
161.770470
 30
0.0
 11
52.495380
 21
161.770470
 31
0.0
  0
SPLINE
  5
13d
100
AcDbEntity
  8
Layer_1
 62
4
100
AcDbSpline
 70
8
 71
3
 72
8
 73
4
 74
0
 40
0
 40
0
 40
0
 40
0
 40
1
 40
1
 40
1
 40
1
 10
52.495380
 20
161.770470
 30
0.0
 10
52.635725
 20
161.770471
 30
0.0
 10
52.770322
 20
161.714719
 30
0.0
 10
52.869561
 20
161.615481
 30
0.0
  0
SPLINE
  5
13e
100
AcDbEntity
  8
Layer_1
 62
4
100
AcDbSpline
 70
8
 71
3
 72
8
 73
4
 74
0
 40
0
 40
0
 40
0
 40
0
 40
1
 40
1
 40
1
 40
1
 10
52.869561
 20
161.615481
 30
0.0
 10
52.968799
 20
161.516242
 30
0.0
 10
53.024551
 20
161.381645
 30
0.0
 10
53.024550
 20
161.241300
 30
0.0
  0
LINE
  5
13f
100
AcDbEntity
  8
Layer_1
 62
4
100
AcDbLine
 10
53.024550
 20
161.241300
 30
0.0
 11
53.024550
 21
143.248860
 31
0.0
  0
SPLINE
  5
140
100
AcDbEntity
  8
Layer_1
 62
4
100
AcDbSpline
 70
8
 71
3
 72
8
 73
4
 74
0
 40
0
 40
0
 40
0
 40
0
 40
1
 40
1
 40
1
 40
1
 10
53.024550
 20
143.248860
 30
0.0
 10
53.024549
 20
143.108515
 30
0.0
 10
53.080301
 20
142.973918
 30
0.0
 10
53.179539
 20
142.874679
 30
0.0
  0
SPLINE
  5
141
100
AcDbEntity
  8
Layer_1
 62
4
100
AcDbSpline
 70
8
 71
3
 72
8
 73
4
 74
0
 40
0
 40
0
 40
0
 40
0
 40
1
 40
1
 40
1
 40
1
 10
53.179539
 20
142.874679
 30
0.0
 10
53.278778
 20
142.775441
 30
0.0
 10
53.413375
 20
142.719689
 30
0.0
 10
53.553720
 20
142.719690
 30
0.0
  0
LINE
  5
142
100
AcDbEntity
  8
Layer_1
 62
4
100
AcDbLine
 10
53.553720
 20
142.719690
 30
0.0
 11
62.018820
 21
142.719690
 31
0.0
  0
SPLINE
  5
143
100
AcDbEntity
  8
Layer_1
 62
4
100
AcDbSpline
 70
8
 71
3
 72
8
 73
4
 74
0
 40
0
 40
0
 40
0
 40
0
 40
1
 40
1
 40
1
 40
1
 10
62.018820
 20
142.719690
 30
0.0
 10
62.159165
 20
142.719691
 30
0.0
 10
62.293762
 20
142.663939
 30
0.0
 10
62.393001
 20
142.564701
 30
0.0
  0
SPLINE
  5
144
100
AcDbEntity
  8
Layer_1
 62
4
100
AcDbSpline
 70
8
 71
3
 72
8
 73
4
 74
0
 40
0
 40
0
 40
0
 40
0
 40
1
 40
1
 40
1
 40
1
 10
62.393001
 20
142.564701
 30
0.0
 10
62.492239
 20
142.465462
 30
0.0
 10
62.547991
 20
142.330865
 30
0.0
 10
62.547990
 20
142.190520
 30
0.0
  0
LINE
  5
145
100
AcDbEntity
  8
Layer_1
 62
4
100
AcDbLine
 10
62.547990
 20
142.190520
 30
0.0
 11
62.547990
 21
123.139490
 31
0.0
  0
SPLINE
  5
146
100
AcDbEntity
  8
Layer_1
 62
4
100
AcDbSpline
 70
8
 71
3
 72
8
 73
4
 74
0
 40
0
 40
0
 40
0
 40
0
 40
1
 40
1
 40
1
 40
1
 10
62.547990
 20
123.139490
 30
0.0
 10
62.547991
 20
122.999145
 30
0.0
 10
62.492239
 20
122.864548
 30
0.0
 10
62.393001
 20
122.765309
 30
0.0
  0
SPLINE
  5
147
100
AcDbEntity
  8
Layer_1
 62
4
100
AcDbSpline
 70
8
 71
3
 72
8
 73
4
 74
0
 40
0
 40
0
 40
0
 40
0
 40
1
 40
1
 40
1
 40
1
 10
62.393001
 20
122.765309
 30
0.0
 10
62.293762
 20
122.666071
 30
0.0
 10
62.159165
 20
122.610319
 30
0.0
 10
62.018820
 20
122.610320
 30
0.0
  0
LINE
  5
148
100
AcDbEntity
  8
Layer_1
 62
4
100
AcDbLine
 10
62.018820
 20
122.610320
 30
0.0
 11
53.553720
 21
122.610320
 31
0.0
  0
SPLINE
  5
149
100
AcDbEntity
  8
Layer_1
 62
4
100
AcDbSpline
 70
8
 71
3
 72
8
 73
4
 74
0
 40
0
 40
0
 40
0
 40
0
 40
1
 40
1
 40
1
 40
1
 10
53.553720
 20
122.610320
 30
0.0
 10
53.413375
 20
122.610321
 30
0.0
 10
53.278778
 20
122.554569
 30
0.0
 10
53.179539
 20
122.455331
 30
0.0
  0
SPLINE
  5
14a
100
AcDbEntity
  8
Layer_1
 62
4
100
AcDbSpline
 70
8
 71
3
 72
8
 73
4
 74
0
 40
0
 40
0
 40
0
 40
0
 40
1
 40
1
 40
1
 40
1
 10
53.179539
 20
122.455331
 30
0.0
 10
53.080301
 20
122.356092
 30
0.0
 10
53.024549
 20
122.221495
 30
0.0
 10
53.024550
 20
122.081150
 30
0.0
  0
LINE
  5
14b
100
AcDbEntity
  8
Layer_1
 62
4
100
AcDbLine
 10
53.024550
 20
122.081150
 30
0.0
 11
53.024550
 21
104.088700
 31
0.0
  0
SPLINE
  5
14c
100
AcDbEntity
  8
Layer_1
 62
4
100
AcDbSpline
 70
8
 71
3
 72
8
 73
4
 74
0
 40
0
 40
0
 40
0
 40
0
 40
1
 40
1
 40
1
 40
1
 10
53.024550
 20
104.088700
 30
0.0
 10
53.024551
 20
103.948355
 30
0.0
 10
52.968799
 20
103.813758
 30
0.0
 10
52.869561
 20
103.714519
 30
0.0
  0
SPLINE
  5
14d
100
AcDbEntity
  8
Layer_1
 62
4
100
AcDbSpline
 70
8
 71
3
 72
8
 73
4
 74
0
 40
0
 40
0
 40
0
 40
0
 40
1
 40
1
 40
1
 40
1
 10
52.869561
 20
103.714519
 30
0.0
 10
52.770322
 20
103.615281
 30
0.0
 10
52.635725
 20
103.559529
 30
0.0
 10
52.495380
 20
103.559530
 30
0.0
  0
LINE
  5
14e
100
AcDbEntity
  8
Layer_1
 62
4
100
AcDbLine
 10
52.495380
 20
103.559530
 30
0.0
 11
48.551770
 21
103.559530
 31
0.0
  0
SPLINE
  5
14f
100
AcDbEntity
  8
Layer_1
 62
4
100
AcDbSpline
 70
8
 71
3
 72
8
 73
4
 74
0
 40
0
 40
0
 40
0
 40
0
 40
1
 40
1
 40
1
 40
1
 10
48.551770
 20
103.559530
 30
0.0
 10
48.198990
 20
103.559530
 30
0.0
 10
47.846210
 20
103.559473
 30
0.0
 10
47.493430
 20
103.559360
 30
0.0
  0
LINE
  5
150
100
AcDbEntity
  8
Layer_1
 62
4
100
AcDbLine
 10
47.493430
 20
103.559360
 30
0.0
 11
12.084970
 21
103.547960
 31
0.0
  0
SPLINE
  5
151
100
AcDbEntity
  8
Layer_1
 62
4
100
AcDbSpline
 70
8
 71
3
 72
8
 73
4
 74
0
 40
0
 40
0
 40
0
 40
0
 40
1
 40
1
 40
1
 40
1
 10
12.084970
 20
103.547960
 30
0.0
 10
11.792720
 20
103.547870
 30
0.0
 10
11.318880
 20
103.548190
 30
0.0
 10
11.026630
 20
103.548660
 30
0.0
  0
SPLINE
  5
152
100
AcDbEntity
  8
Layer_1
 62
4
100
AcDbSpline
 70
8
 71
3
 72
8
 73
4
 74
0
 40
0
 40
0
 40
0
 40
0
 40
1
 40
1
 40
1
 40
1
 10
11.026630
 20
103.548660
 30
0.0
 10
-1.037900
 20
103.568160
 30
0.0
 10
-13.102450
 20
103.556660
 30
0.0
 10
-25.166990
 20
103.559360
 30
0.0
  0
SPLINE
  5
153
100
AcDbEntity
  8
Layer_1
 62
4
100
AcDbSpline
 70
8
 71
3
 72
8
 73
4
 74
0
 40
0
 40
0
 40
0
 40
0
 40
1
 40
1
 40
1
 40
1
 10
-25.166990
 20
103.559360
 30
0.0
 10
-25.459240
 20
103.559440
 30
0.0
 10
-25.933070
 20
103.559510
 30
0.0
 10
-26.225320
 20
103.559510
 30
0.0
  0
LINE
  5
154
100
AcDbEntity
  8
Layer_1
 62
4
100
AcDbLine
 10
-26.225320
 20
103.559510
 30
0.0
 11
-61.633770
 21
103.559510
 31
0.0
  0
LINE
  5
155
100
AcDbEntity
  8
Layer_1
 62
4
100
AcDbLine
 10
-61.633770
 20
103.559510
 30
0.0
 11
-62.692020
 21
103.559640
 31
0.0
  0
LINE
  5
156
100
AcDbEntity
  8
Layer_1
 62
4
100
AcDbLine
 10
198.256140
 20
91.034750
 30
0.0
 11
214.892420
 21
91.037750
 31
0.0
  0
SPLINE
  5
157
100
AcDbEntity
  8
Layer_1
 62
4
100
AcDbSpline
 70
8
 71
3
 72
8
 73
4
 74
0
 40
0
 40
0
 40
0
 40
0
 40
1
 40
1
 40
1
 40
1
 10
214.892420
 20
91.037750
 30
0.0
 10
215.571831
 20
91.037866
 30
0.0
 10
216.225186
 20
91.299211
 30
0.0
 10
216.717250
 20
91.767690
 30
0.0
  0
LINE
  5
158
100
AcDbEntity
  8
Layer_1
 62
4
100
AcDbLine
 10
216.717250
 20
91.767690
 30
0.0
 11
218.403680
 21
93.373290
 31
0.0
  0
SPLINE
  5
159
100
AcDbEntity
  8
Layer_1
 62
4
100
AcDbSpline
 70
8
 71
3
 72
8
 73
4
 74
0
 40
0
 40
0
 40
0
 40
0
 40
1
 40
1
 40
1
 40
1
 10
218.403680
 20
93.373290
 30
0.0
 10
218.893140
 20
93.839288
 30
0.0
 10
219.170165
 20
94.485566
 30
0.0
 10
219.170140
 20
95.161380
 30
0.0
  0
LINE
  5
15a
100
AcDbEntity
  8
Layer_1
 62
4
100
AcDbLine
 10
219.170140
 20
95.161380
 30
0.0
 11
219.166140
 21
192.687090
 31
0.0
  0
SPLINE
  5
15b
100
AcDbEntity
  8
Layer_1
 62
4
100
AcDbSpline
 70
8
 71
3
 72
8
 73
4
 74
0
 40
0
 40
0
 40
0
 40
0
 40
1
 40
1
 40
1
 40
1
 10
219.166140
 20
192.687090
 30
0.0
 10
219.166112
 20
193.359657
 30
0.0
 10
218.875811
 20
193.999487
 30
0.0
 10
218.369710
 20
194.442440
 30
0.0
  0
LINE
  5
15c
100
AcDbEntity
  8
Layer_1
 62
4
100
AcDbLine
 10
218.369710
 20
194.442440
 30
0.0
 11
216.735180
 21
195.873030
 31
0.0
  0
SPLINE
  5
15d
100
AcDbEntity
  8
Layer_1
 62
4
100
AcDbSpline
 70
8
 71
3
 72
8
 73
4
 74
0
 40
0
 40
0
 40
0
 40
0
 40
1
 40
1
 40
1
 40
1
 10
216.735180
 20
195.873030
 30
0.0
 10
216.221784
 20
196.322367
 30
0.0
 10
215.562720
 20
196.570042
 30
0.0
 10
214.880460
 20
196.570030
 30
0.0
  0
LINE
  5
15e
100
AcDbEntity
  8
Layer_1
 62
4
100
AcDbLine
 10
214.880460
 20
196.570030
 30
0.0
 11
200.633340
 21
196.569810
 31
0.0
  0
SPLINE
  5
15f
100
AcDbEntity
  8
Layer_1
 62
4
100
AcDbSpline
 70
8
 71
3
 72
8
 73
4
 74
0
 40
0
 40
0
 40
0
 40
0
 40
1
 40
1
 40
1
 40
1
 10
200.633340
 20
196.569810
 30
0.0
 10
199.927787
 20
196.569799
 30
0.0
 10
199.222233
 20
196.569789
 30
0.0
 10
198.516680
 20
196.569780
 30
0.0
  0
LINE
  5
160
100
AcDbEntity
  8
Layer_1
 62
4
100
AcDbLine
 10
198.516680
 20
196.569780
 30
0.0
 11
181.238750
 21
196.569540
 31
0.0
  0
SPLINE
  5
161
100
AcDbEntity
  8
Layer_1
 62
4
100
AcDbSpline
 70
8
 71
3
 72
8
 73
4
 74
0
 40
0
 40
0
 40
0
 40
0
 40
1
 40
1
 40
1
 40
1
 10
181.238750
 20
196.569540
 30
0.0
 10
180.533197
 20
196.569532
 30
0.0
 10
179.827643
 20
196.569535
 30
0.0
 10
179.122090
 20
196.569550
 30
0.0
  0
LINE
  5
162
100
AcDbEntity
  8
Layer_1
 62
4
100
AcDbLine
 10
179.122090
 20
196.569550
 30
0.0
 11
166.318000
 21
196.569810
 31
0.0
  0
SPLINE
  5
163
100
AcDbEntity
  8
Layer_1
 62
4
100
AcDbSpline
 70
8
 71
3
 72
8
 73
4
 74
0
 40
0
 40
0
 40
0
 40
0
 40
1
 40
1
 40
1
 40
1
 10
166.318000
 20
196.569810
 30
0.0
 10
165.612447
 20
196.569824
 30
0.0
 10
164.906893
 20
196.570104
 30
0.0
 10
164.201340
 20
196.570650
 30
0.0
  0
LINE
  5
164
100
AcDbEntity
  8
Layer_1
 62
4
100
AcDbLine
 10
164.201340
 20
196.570650
 30
0.0
 11
163.732840
 21
196.571010
 31
0.0
  0
SPLINE
  5
165
100
AcDbEntity
  8
Layer_1
 62
4
100
AcDbSpline
 70
8
 71
3
 72
8
 73
4
 74
0
 40
0
 40
0
 40
0
 40
0
 40
1
 40
1
 40
1
 40
1
 10
163.732840
 20
196.571010
 30
0.0
 10
163.039124
 20
196.571547
 30
0.0
 10
162.357372
 20
196.751733
 30
0.0
 10
161.753980
 20
197.094020
 30
0.0
  0
LINE
  5
166
100
AcDbEntity
  8
Layer_1
 62
4
100
AcDbLine
 10
161.753980
 20
197.094020
 30
0.0
 11
156.099280
 21
200.301790
 31
0.0
  0
SPLINE
  5
167
100
AcDbEntity
  8
Layer_1
 62
4
100
AcDbSpline
 70
8
 71
3
 72
8
 73
4
 74
0
 40
0
 40
0
 40
0
 40
0
 40
1
 40
1
 40
1
 40
1
 10
156.099280
 20
200.301790
 30
0.0
 10
155.495920
 20
200.644058
 30
0.0
 10
154.814099
 20
200.823977
 30
0.0
 10
154.120420
 20
200.823970
 30
0.0
  0
LINE
  5
168
100
AcDbEntity
  8
Layer_1
 62
4
100
AcDbLine
 10
154.120420
 20
200.823970
 30
0.0
 11
83.807960
 21
200.823340
 31
0.0
  0
SPLINE
  5
169
100
AcDbEntity
  8
Layer_1
 62
4
100
AcDbSpline
 70
8
 71
3
 72
8
 73
4
 74
0
 40
0
 40
0
 40
0
 40
0
 40
1
 40
1
 40
1
 40
1
 10
83.807960
 20
200.823340
 30
0.0
 10
83.126119
 20
200.823333
 30
0.0
 10
82.467896
 20
200.573581
 30
0.0
 10
81.957670
 20
200.121280
 30
0.0
  0
LINE
  5
16a
100
AcDbEntity
  8
Layer_1
 62
4
100
AcDbLine
 10
81.957670
 20
200.121280
 30
0.0
 11
80.346470
 21
198.693000
 31
0.0
  0
SPLINE
  5
16b
100
AcDbEntity
  8
Layer_1
 62
4
100
AcDbSpline
 70
8
 71
3
 72
8
 73
4
 74
0
 40
0
 40
0
 40
0
 40
0
 40
1
 40
1
 40
1
 40
1
 10
80.346470
 20
198.693000
 30
0.0
 10
79.842810
 20
198.246522
 30
0.0
 10
79.554525
 20
197.605685
 30
0.0
 10
79.554550
 20
196.932620
 30
0.0
  0
LINE
  5
16c
100
AcDbEntity
  8
Layer_1
 62
4
100
AcDbLine
 10
79.554550
 20
196.932620
 30
0.0
 11
79.558550
 21
95.144860
 31
0.0
  0
SPLINE
  5
16d
100
AcDbEntity
  8
Layer_1
 62
4
100
AcDbSpline
 70
8
 71
3
 72
8
 73
4
 74
0
 40
0
 40
0
 40
0
 40
0
 40
1
 40
1
 40
1
 40
1
 10
79.558550
 20
95.144860
 30
0.0
 10
79.558576
 20
94.468715
 30
0.0
 10
79.834245
 20
93.821802
 30
0.0
 10
80.321920
 20
93.353460
 30
0.0
  0
LINE
  5
16e
100
AcDbEntity
  8
Layer_1
 62
4
100
AcDbLine
 10
80.321920
 20
93.353460
 30
0.0
 11
81.988360
 21
91.753100
 31
0.0
  0
SPLINE
  5
16f
100
AcDbEntity
  8
Layer_1
 62
4
100
AcDbSpline
 70
8
 71
3
 72
8
 73
4
 74
0
 40
0
 40
0
 40
0
 40
0
 40
1
 40
1
 40
1
 40
1
 10
81.988360
 20
91.753100
 30
0.0
 10
82.478155
 20
91.282724
 30
0.0
 10
83.130937
 20
91.020078
 30
0.0
 10
83.810020
 20
91.020160
 30
0.0
  0
LINE
  5
170
100
AcDbEntity
  8
Layer_1
 62
4
100
AcDbLine
 10
83.810020
 20
91.020160
 30
0.0
 11
179.126210
 21
91.031960
 31
0.0
  0
LINE
  5
171
100
AcDbEntity
  8
Layer_1
 62
4
100
AcDbLine
 10
179.126210
 20
91.031960
 30
0.0
 11
198.256140
 21
91.034750
 31
0.0
  0
LINE
  5
172
100
AcDbEntity
  8
Layer_1
 62
4
100
AcDbLine
 10
-69.607650
 20
91.742260
 30
0.0
 11
-71.330610
 21
93.374890
 31
0.0
  0
SPLINE
  5
173
100
AcDbEntity
  8
Layer_1
 62
4
100
AcDbSpline
 70
8
 71
3
 72
8
 73
4
 74
0
 40
0
 40
0
 40
0
 40
0
 40
1
 40
1
 40
1
 40
1
 10
-71.330610
 20
93.374890
 30
0.0
 10
-71.821039
 20
93.839608
 30
0.0
 10
-72.098828
 20
94.485524
 30
0.0
 10
-72.098830
 20
95.161160
 30
0.0
  0
LINE
  5
174
100
AcDbEntity
  8
Layer_1
 62
4
100
AcDbLine
 10
-72.098830
 20
95.161160
 30
0.0
 11
-72.098970
 21
192.686870
 31
0.0
  0
SPLINE
  5
175
100
AcDbEntity
  8
Layer_1
 62
4
100
AcDbSpline
 70
8
 71
3
 72
8
 73
4
 74
0
 40
0
 40
0
 40
0
 40
0
 40
1
 40
1
 40
1
 40
1
 10
-72.098970
 20
192.686870
 30
0.0
 10
-72.098968
 20
193.359459
 30
0.0
 10
-71.808778
 20
193.999343
 30
0.0
 10
-71.302800
 20
194.442470
 30
0.0
  0
LINE
  5
176
100
AcDbEntity
  8
Layer_1
 62
4
100
AcDbLine
 10
-71.302800
 20
194.442470
 30
0.0
 11
-69.669890
 21
195.872560
 31
0.0
  0
SPLINE
  5
177
100
AcDbEntity
  8
Layer_1
 62
4
100
AcDbSpline
 70
8
 71
3
 72
8
 73
4
 74
0
 40
0
 40
0
 40
0
 40
0
 40
1
 40
1
 40
1
 40
1
 10
-69.669890
 20
195.872560
 30
0.0
 10
-69.156652
 20
196.322045
 30
0.0
 10
-68.497629
 20
196.569822
 30
0.0
 10
-67.815390
 20
196.569810
 30
0.0
  0
LINE
  5
178
100
AcDbEntity
  8
Layer_1
 62
4
100
AcDbLine
 10
-67.815390
 20
196.569810
 30
0.0
 11
-53.525900
 21
196.569590
 31
0.0
  0
SPLINE
  5
179
100
AcDbEntity
  8
Layer_1
 62
4
100
AcDbSpline
 70
8
 71
3
 72
8
 73
4
 74
0
 40
0
 40
0
 40
0
 40
0
 40
1
 40
1
 40
1
 40
1
 10
-53.525900
 20
196.569590
 30
0.0
 10
-52.820347
 20
196.569579
 30
0.0
 10
-52.114793
 20
196.569569
 30
0.0
 10
-51.409240
 20
196.569560
 30
0.0
  0
LINE
  5
17a
100
AcDbEntity
  8
Layer_1
 62
4
100
AcDbLine
 10
-51.409240
 20
196.569560
 30
0.0
 11
-34.131310
 21
196.569320
 31
0.0
  0
SPLINE
  5
17b
100
AcDbEntity
  8
Layer_1
 62
4
100
AcDbSpline
 70
8
 71
3
 72
8
 73
4
 74
0
 40
0
 40
0
 40
0
 40
0
 40
1
 40
1
 40
1
 40
1
 10
-34.131310
 20
196.569320
 30
0.0
 10
-33.425757
 20
196.569312
 30
0.0
 10
-32.720203
 20
196.569315
 30
0.0
 10
-32.014650
 20
196.569330
 30
0.0
  0
LINE
  5
17c
100
AcDbEntity
  8
Layer_1
 62
4
100
AcDbLine
 10
-32.014650
 20
196.569330
 30
0.0
 11
-19.210560
 21
196.569590
 31
0.0
  0
SPLINE
  5
17d
100
AcDbEntity
  8
Layer_1
 62
4
100
AcDbSpline
 70
8
 71
3
 72
8
 73
4
 74
0
 40
0
 40
0
 40
0
 40
0
 40
1
 40
1
 40
1
 40
1
 10
-19.210560
 20
196.569590
 30
0.0
 10
-18.505007
 20
196.569604
 30
0.0
 10
-17.799453
 20
196.569884
 30
0.0
 10
-17.093900
 20
196.570430
 30
0.0
  0
LINE
  5
17e
100
AcDbEntity
  8
Layer_1
 62
4
100
AcDbLine
 10
-17.093900
 20
196.570430
 30
0.0
 11
-16.625400
 21
196.570790
 31
0.0
  0
SPLINE
  5
17f
100
AcDbEntity
  8
Layer_1
 62
4
100
AcDbSpline
 70
8
 71
3
 72
8
 73
4
 74
0
 40
0
 40
0
 40
0
 40
0
 40
1
 40
1
 40
1
 40
1
 10
-16.625400
 20
196.570790
 30
0.0
 10
-15.931684
 20
196.571327
 30
0.0
 10
-15.249932
 20
196.751513
 30
0.0
 10
-14.646540
 20
197.093800
 30
0.0
  0
LINE
  5
180
100
AcDbEntity
  8
Layer_1
 62
4
100
AcDbLine
 10
-14.646540
 20
197.093800
 30
0.0
 11
-8.991840
 21
200.301570
 31
0.0
  0
SPLINE
  5
181
100
AcDbEntity
  8
Layer_1
 62
4
100
AcDbSpline
 70
8
 71
3
 72
8
 73
4
 74
0
 40
0
 40
0
 40
0
 40
0
 40
1
 40
1
 40
1
 40
1
 10
-8.991840
 20
200.301570
 30
0.0
 10
-8.388480
 20
200.643838
 30
0.0
 10
-7.706659
 20
200.823757
 30
0.0
 10
-7.012980
 20
200.823750
 30
0.0
  0
LINE
  5
182
100
AcDbEntity
  8
Layer_1
 62
4
100
AcDbLine
 10
-7.012980
 20
200.823750
 30
0.0
 11
63.299480
 21
200.823120
 31
0.0
  0
SPLINE
  5
183
100
AcDbEntity
  8
Layer_1
 62
4
100
AcDbSpline
 70
8
 71
3
 72
8
 73
4
 74
0
 40
0
 40
0
 40
0
 40
0
 40
1
 40
1
 40
1
 40
1
 10
63.299480
 20
200.823120
 30
0.0
 10
63.981321
 20
200.823113
 30
0.0
 10
64.639544
 20
200.573361
 30
0.0
 10
65.149770
 20
200.121060
 30
0.0
  0
LINE
  5
184
100
AcDbEntity
  8
Layer_1
 62
4
100
AcDbLine
 10
65.149770
 20
200.121060
 30
0.0
 11
66.760970
 21
198.692780
 31
0.0
  0
SPLINE
  5
185
100
AcDbEntity
  8
Layer_1
 62
4
100
AcDbSpline
 70
8
 71
3
 72
8
 73
4
 74
0
 40
0
 40
0
 40
0
 40
0
 40
1
 40
1
 40
1
 40
1
 10
66.760970
 20
198.692780
 30
0.0
 10
67.264630
 20
198.246302
 30
0.0
 10
67.552915
 20
197.605465
 30
0.0
 10
67.552890
 20
196.932400
 30
0.0
  0
LINE
  5
186
100
AcDbEntity
  8
Layer_1
 62
4
100
AcDbLine
 10
67.552890
 20
196.932400
 30
0.0
 11
67.548890
 21
95.172410
 31
0.0
  0
SPLINE
  5
187
100
AcDbEntity
  8
Layer_1
 62
4
100
AcDbSpline
 70
8
 71
3
 72
8
 73
4
 74
0
 40
0
 40
0
 40
0
 40
0
 40
1
 40
1
 40
1
 40
1
 10
67.548890
 20
95.172410
 30
0.0
 10
67.548863
 20
94.496016
 30
0.0
 10
67.274250
 20
93.848610
 30
0.0
 10
66.787950
 20
93.378480
 30
0.0
  0
LINE
  5
188
100
AcDbEntity
  8
Layer_1
 62
4
100
AcDbLine
 10
66.787950
 20
93.378480
 30
0.0
 11
65.116650
 21
91.762750
 31
0.0
  0
SPLINE
  5
189
100
AcDbEntity
  8
Layer_1
 62
4
100
AcDbSpline
 70
8
 71
3
 72
8
 73
4
 74
0
 40
0
 40
0
 40
0
 40
0
 40
1
 40
1
 40
1
 40
1
 10
65.116650
 20
91.762750
 30
0.0
 10
64.628593
 20
91.290918
 30
0.0
 10
63.976261
 20
91.027242
 30
0.0
 10
63.297420
 20
91.027410
 30
0.0
  0
LINE
  5
18a
100
AcDbEntity
  8
Layer_1
 62
4
100
AcDbLine
 10
63.297420
 20
91.027410
 30
0.0
 11
-32.018770
 21
91.051210
 31
0.0
  0
LINE
  5
18b
100
AcDbEntity
  8
Layer_1
 62
4
100
AcDbLine
 10
-32.018770
 20
91.051210
 30
0.0
 11
-67.781180
 21
91.015310
 31
0.0
  0
SPLINE
  5
18c
100
AcDbEntity
  8
Layer_1
 62
4
100
AcDbSpline
 70
8
 71
3
 72
8
 73
4
 74
0
 40
0
 40
0
 40
0
 40
0
 40
1
 40
1
 40
1
 40
1
 10
-67.781180
 20
91.015310
 30
0.0
 10
-68.460673
 20
91.014629
 30
0.0
 10
-69.114499
 20
91.274821
 30
0.0
 10
-69.607730
 20
91.742190
 30
0.0
  0
LINE
  5
18d
100
AcDbEntity
  8
Layer_1
 62
4
100
AcDbLine
 10
-69.607730
 20
91.742190
 30
0.0
 11
-69.607650
 21
91.742260
 31
0.0
  0
SPLINE
  5
18e
100
AcDbEntity
  8
Layer_1
 62
4
100
AcDbSpline
 70
8
 71
3
 72
8
 73
4
 74
0
 40
0
 40
0
 40
0
 40
0
 40
1
 40
1
 40
1
 40
1
 10
-66.400460
 20
99.339860
 30
0.0
 10
-67.033443
 20
99.339860
 30
0.0
 10
-67.604099
 20
98.958560
 30
0.0
 10
-67.846332
 20
98.373760
 30
0.0
  0
SPLINE
  5
18f
100
AcDbEntity
  8
Layer_1
 62
4
100
AcDbSpline
 70
8
 71
3
 72
8
 73
4
 74
0
 40
0
 40
0
 40
0
 40
0
 40
1
 40
1
 40
1
 40
1
 10
-67.846332
 20
98.373760
 30
0.0
 10
-68.088564
 20
97.788959
 30
0.0
 10
-67.954669
 20
97.115825
 30
0.0
 10
-67.507082
 20
96.668238
 30
0.0
  0
SPLINE
  5
190
100
AcDbEntity
  8
Layer_1
 62
4
100
AcDbSpline
 70
8
 71
3
 72
8
 73
4
 74
0
 40
0
 40
0
 40
0
 40
0
 40
1
 40
1
 40
1
 40
1
 10
-67.507082
 20
96.668238
 30
0.0
 10
-67.059495
 20
96.220651
 30
0.0
 10
-66.386361
 20
96.086756
 30
0.0
 10
-65.801560
 20
96.328988
 30
0.0
  0
SPLINE
  5
191
100
AcDbEntity
  8
Layer_1
 62
4
100
AcDbSpline
 70
8
 71
3
 72
8
 73
4
 74
0
 40
0
 40
0
 40
0
 40
0
 40
1
 40
1
 40
1
 40
1
 10
-65.801560
 20
96.328988
 30
0.0
 10
-65.216760
 20
96.571221
 30
0.0
 10
-64.835460
 20
97.141877
 30
0.0
 10
-64.835460
 20
97.774860
 30
0.0
  0
SPLINE
  5
192
100
AcDbEntity
  8
Layer_1
 62
4
100
AcDbSpline
 70
8
 71
3
 72
8
 73
4
 74
0
 40
0
 40
0
 40
0
 40
0
 40
1
 40
1
 40
1
 40
1
 10
-64.835460
 20
97.774860
 30
0.0
 10
-64.835460
 20
98.639186
 30
0.0
 10
-65.536134
 20
99.339860
 30
0.0
 10
-66.400460
 20
99.339860
 30
0.0
  0
LINE
  5
193
100
AcDbEntity
  8
Layer_1
 62
4
100
AcDbLine
 10
-66.400460
 20
99.339860
 30
0.0
 11
-66.400460
 21
99.339860
 31
0.0
  0
SPLINE
  5
194
100
AcDbEntity
  8
Layer_1
 62
4
100
AcDbSpline
 70
8
 71
3
 72
8
 73
4
 74
0
 40
0
 40
0
 40
0
 40
0
 40
1
 40
1
 40
1
 40
1
 10
-66.400460
 20
188.173330
 30
0.0
 10
-67.033443
 20
188.173330
 30
0.0
 10
-67.604099
 20
187.792030
 30
0.0
 10
-67.846332
 20
187.207230
 30
0.0
  0
SPLINE
  5
195
100
AcDbEntity
  8
Layer_1
 62
4
100
AcDbSpline
 70
8
 71
3
 72
8
 73
4
 74
0
 40
0
 40
0
 40
0
 40
0
 40
1
 40
1
 40
1
 40
1
 10
-67.846332
 20
187.207230
 30
0.0
 10
-68.088564
 20
186.622429
 30
0.0
 10
-67.954669
 20
185.949295
 30
0.0
 10
-67.507082
 20
185.501708
 30
0.0
  0
SPLINE
  5
196
100
AcDbEntity
  8
Layer_1
 62
4
100
AcDbSpline
 70
8
 71
3
 72
8
 73
4
 74
0
 40
0
 40
0
 40
0
 40
0
 40
1
 40
1
 40
1
 40
1
 10
-67.507082
 20
185.501708
 30
0.0
 10
-67.059495
 20
185.054121
 30
0.0
 10
-66.386361
 20
184.920226
 30
0.0
 10
-65.801560
 20
185.162458
 30
0.0
  0
SPLINE
  5
197
100
AcDbEntity
  8
Layer_1
 62
4
100
AcDbSpline
 70
8
 71
3
 72
8
 73
4
 74
0
 40
0
 40
0
 40
0
 40
0
 40
1
 40
1
 40
1
 40
1
 10
-65.801560
 20
185.162458
 30
0.0
 10
-65.216760
 20
185.404691
 30
0.0
 10
-64.835460
 20
185.975347
 30
0.0
 10
-64.835460
 20
186.608330
 30
0.0
  0
SPLINE
  5
198
100
AcDbEntity
  8
Layer_1
 62
4
100
AcDbSpline
 70
8
 71
3
 72
8
 73
4
 74
0
 40
0
 40
0
 40
0
 40
0
 40
1
 40
1
 40
1
 40
1
 10
-64.835460
 20
186.608330
 30
0.0
 10
-64.835460
 20
187.472656
 30
0.0
 10
-65.536134
 20
188.173330
 30
0.0
 10
-66.400460
 20
188.173330
 30
0.0
  0
LINE
  5
199
100
AcDbEntity
  8
Layer_1
 62
4
100
AcDbLine
 10
-66.400460
 20
188.173330
 30
0.0
 11
-66.400460
 21
188.173330
 31
0.0
  0
SPLINE
  5
19a
100
AcDbEntity
  8
Layer_1
 62
4
100
AcDbSpline
 70
8
 71
3
 72
8
 73
4
 74
0
 40
0
 40
0
 40
0
 40
0
 40
1
 40
1
 40
1
 40
1
 10
61.853690
 20
196.696250
 30
0.0
 10
61.220707
 20
196.696250
 30
0.0
 10
60.650051
 20
196.314950
 30
0.0
 10
60.407818
 20
195.730150
 30
0.0
  0
SPLINE
  5
19b
100
AcDbEntity
  8
Layer_1
 62
4
100
AcDbSpline
 70
8
 71
3
 72
8
 73
4
 74
0
 40
0
 40
0
 40
0
 40
0
 40
1
 40
1
 40
1
 40
1
 10
60.407818
 20
195.730150
 30
0.0
 10
60.165586
 20
195.145349
 30
0.0
 10
60.299481
 20
194.472215
 30
0.0
 10
60.747068
 20
194.024628
 30
0.0
  0
SPLINE
  5
19c
100
AcDbEntity
  8
Layer_1
 62
4
100
AcDbSpline
 70
8
 71
3
 72
8
 73
4
 74
0
 40
0
 40
0
 40
0
 40
0
 40
1
 40
1
 40
1
 40
1
 10
60.747068
 20
194.024628
 30
0.0
 10
61.194655
 20
193.577041
 30
0.0
 10
61.867789
 20
193.443146
 30
0.0
 10
62.452590
 20
193.685378
 30
0.0
  0
SPLINE
  5
19d
100
AcDbEntity
  8
Layer_1
 62
4
100
AcDbSpline
 70
8
 71
3
 72
8
 73
4
 74
0
 40
0
 40
0
 40
0
 40
0
 40
1
 40
1
 40
1
 40
1
 10
62.452590
 20
193.685378
 30
0.0
 10
63.037390
 20
193.927611
 30
0.0
 10
63.418690
 20
194.498267
 30
0.0
 10
63.418690
 20
195.131250
 30
0.0
  0
SPLINE
  5
19e
100
AcDbEntity
  8
Layer_1
 62
4
100
AcDbSpline
 70
8
 71
3
 72
8
 73
4
 74
0
 40
0
 40
0
 40
0
 40
0
 40
1
 40
1
 40
1
 40
1
 10
63.418690
 20
195.131250
 30
0.0
 10
63.418690
 20
195.546314
 30
0.0
 10
63.253807
 20
195.944378
 30
0.0
 10
62.960312
 20
196.237872
 30
0.0
  0
SPLINE
  5
19f
100
AcDbEntity
  8
Layer_1
 62
4
100
AcDbSpline
 70
8
 71
3
 72
8
 73
4
 74
0
 40
0
 40
0
 40
0
 40
0
 40
1
 40
1
 40
1
 40
1
 10
62.960312
 20
196.237872
 30
0.0
 10
62.666818
 20
196.531367
 30
0.0
 10
62.268754
 20
196.696250
 30
0.0
 10
61.853690
 20
196.696250
 30
0.0
  0
LINE
  5
1a0
100
AcDbEntity
  8
Layer_1
 62
4
100
AcDbLine
 10
61.853690
 20
196.696250
 30
0.0
 11
61.853690
 21
196.696250
 31
0.0
  0
SPLINE
  5
1a1
100
AcDbEntity
  8
Layer_1
 62
4
100
AcDbSpline
 70
8
 71
3
 72
8
 73
4
 74
0
 40
0
 40
0
 40
0
 40
0
 40
1
 40
1
 40
1
 40
1
 10
61.853690
 20
99.360670
 30
0.0
 10
61.220707
 20
99.360670
 30
0.0
 10
60.650051
 20
98.979370
 30
0.0
 10
60.407818
 20
98.394570
 30
0.0
  0
SPLINE
  5
1a2
100
AcDbEntity
  8
Layer_1
 62
4
100
AcDbSpline
 70
8
 71
3
 72
8
 73
4
 74
0
 40
0
 40
0
 40
0
 40
0
 40
1
 40
1
 40
1
 40
1
 10
60.407818
 20
98.394570
 30
0.0
 10
60.165586
 20
97.809769
 30
0.0
 10
60.299481
 20
97.136635
 30
0.0
 10
60.747068
 20
96.689048
 30
0.0
  0
SPLINE
  5
1a3
100
AcDbEntity
  8
Layer_1
 62
4
100
AcDbSpline
 70
8
 71
3
 72
8
 73
4
 74
0
 40
0
 40
0
 40
0
 40
0
 40
1
 40
1
 40
1
 40
1
 10
60.747068
 20
96.689048
 30
0.0
 10
61.194655
 20
96.241461
 30
0.0
 10
61.867789
 20
96.107566
 30
0.0
 10
62.452590
 20
96.349798
 30
0.0
  0
SPLINE
  5
1a4
100
AcDbEntity
  8
Layer_1
 62
4
100
AcDbSpline
 70
8
 71
3
 72
8
 73
4
 74
0
 40
0
 40
0
 40
0
 40
0
 40
1
 40
1
 40
1
 40
1
 10
62.452590
 20
96.349798
 30
0.0
 10
63.037390
 20
96.592031
 30
0.0
 10
63.418690
 20
97.162687
 30
0.0
 10
63.418690
 20
97.795670
 30
0.0
  0
SPLINE
  5
1a5
100
AcDbEntity
  8
Layer_1
 62
4
100
AcDbSpline
 70
8
 71
3
 72
8
 73
4
 74
0
 40
0
 40
0
 40
0
 40
0
 40
1
 40
1
 40
1
 40
1
 10
63.418690
 20
97.795670
 30
0.0
 10
63.418690
 20
98.210734
 30
0.0
 10
63.253807
 20
98.608798
 30
0.0
 10
62.960312
 20
98.902292
 30
0.0
  0
SPLINE
  5
1a6
100
AcDbEntity
  8
Layer_1
 62
4
100
AcDbSpline
 70
8
 71
3
 72
8
 73
4
 74
0
 40
0
 40
0
 40
0
 40
0
 40
1
 40
1
 40
1
 40
1
 10
62.960312
 20
98.902292
 30
0.0
 10
62.666818
 20
99.195787
 30
0.0
 10
62.268754
 20
99.360670
 30
0.0
 10
61.853690
 20
99.360670
 30
0.0
  0
LINE
  5
1a7
100
AcDbEntity
  8
Layer_1
 62
4
100
AcDbLine
 10
61.853690
 20
99.360670
 30
0.0
 11
61.853690
 21
99.360670
 31
0.0
  0
SPLINE
  5
1a8
100
AcDbEntity
  8
Layer_1
 62
4
100
AcDbSpline
 70
8
 71
3
 72
8
 73
4
 74
0
 40
0
 40
0
 40
0
 40
0
 40
1
 40
1
 40
1
 40
1
 10
61.853690
 20
153.278860
 30
0.0
 10
61.220707
 20
153.278860
 30
0.0
 10
60.650051
 20
152.897560
 30
0.0
 10
60.407818
 20
152.312760
 30
0.0
  0
SPLINE
  5
1a9
100
AcDbEntity
  8
Layer_1
 62
4
100
AcDbSpline
 70
8
 71
3
 72
8
 73
4
 74
0
 40
0
 40
0
 40
0
 40
0
 40
1
 40
1
 40
1
 40
1
 10
60.407818
 20
152.312760
 30
0.0
 10
60.165586
 20
151.727959
 30
0.0
 10
60.299481
 20
151.054825
 30
0.0
 10
60.747068
 20
150.607238
 30
0.0
  0
SPLINE
  5
1aa
100
AcDbEntity
  8
Layer_1
 62
4
100
AcDbSpline
 70
8
 71
3
 72
8
 73
4
 74
0
 40
0
 40
0
 40
0
 40
0
 40
1
 40
1
 40
1
 40
1
 10
60.747068
 20
150.607238
 30
0.0
 10
61.194655
 20
150.159651
 30
0.0
 10
61.867789
 20
150.025756
 30
0.0
 10
62.452590
 20
150.267988
 30
0.0
  0
SPLINE
  5
1ab
100
AcDbEntity
  8
Layer_1
 62
4
100
AcDbSpline
 70
8
 71
3
 72
8
 73
4
 74
0
 40
0
 40
0
 40
0
 40
0
 40
1
 40
1
 40
1
 40
1
 10
62.452590
 20
150.267988
 30
0.0
 10
63.037390
 20
150.510221
 30
0.0
 10
63.418690
 20
151.080877
 30
0.0
 10
63.418690
 20
151.713860
 30
0.0
  0
SPLINE
  5
1ac
100
AcDbEntity
  8
Layer_1
 62
4
100
AcDbSpline
 70
8
 71
3
 72
8
 73
4
 74
0
 40
0
 40
0
 40
0
 40
0
 40
1
 40
1
 40
1
 40
1
 10
63.418690
 20
151.713860
 30
0.0
 10
63.418690
 20
152.128924
 30
0.0
 10
63.253807
 20
152.526988
 30
0.0
 10
62.960312
 20
152.820482
 30
0.0
  0
SPLINE
  5
1ad
100
AcDbEntity
  8
Layer_1
 62
4
100
AcDbSpline
 70
8
 71
3
 72
8
 73
4
 74
0
 40
0
 40
0
 40
0
 40
0
 40
1
 40
1
 40
1
 40
1
 10
62.960312
 20
152.820482
 30
0.0
 10
62.666818
 20
153.113977
 30
0.0
 10
62.268754
 20
153.278860
 30
0.0
 10
61.853690
 20
153.278860
 30
0.0
  0
LINE
  5
1ae
100
AcDbEntity
  8
Layer_1
 62
4
100
AcDbLine
 10
61.853690
 20
153.278860
 30
0.0
 11
61.853690
 21
153.278860
 31
0.0
  0
SPLINE
  5
1af
100
AcDbEntity
  8
Layer_1
 62
4
100
AcDbSpline
 70
8
 71
3
 72
8
 73
4
 74
0
 40
0
 40
0
 40
0
 40
0
 40
1
 40
1
 40
1
 40
1
 10
213.474450
 20
99.339860
 30
0.0
 10
214.107433
 20
99.339860
 30
0.0
 10
214.678089
 20
98.958560
 30
0.0
 10
214.920322
 20
98.373760
 30
0.0
  0
SPLINE
  5
1b0
100
AcDbEntity
  8
Layer_1
 62
4
100
AcDbSpline
 70
8
 71
3
 72
8
 73
4
 74
0
 40
0
 40
0
 40
0
 40
0
 40
1
 40
1
 40
1
 40
1
 10
214.920322
 20
98.373760
 30
0.0
 10
215.162554
 20
97.788959
 30
0.0
 10
215.028659
 20
97.115825
 30
0.0
 10
214.581072
 20
96.668238
 30
0.0
  0
SPLINE
  5
1b1
100
AcDbEntity
  8
Layer_1
 62
4
100
AcDbSpline
 70
8
 71
3
 72
8
 73
4
 74
0
 40
0
 40
0
 40
0
 40
0
 40
1
 40
1
 40
1
 40
1
 10
214.581072
 20
96.668238
 30
0.0
 10
214.133485
 20
96.220651
 30
0.0
 10
213.460351
 20
96.086756
 30
0.0
 10
212.875550
 20
96.328988
 30
0.0
  0
SPLINE
  5
1b2
100
AcDbEntity
  8
Layer_1
 62
4
100
AcDbSpline
 70
8
 71
3
 72
8
 73
4
 74
0
 40
0
 40
0
 40
0
 40
0
 40
1
 40
1
 40
1
 40
1
 10
212.875550
 20
96.328988
 30
0.0
 10
212.290750
 20
96.571221
 30
0.0
 10
211.909450
 20
97.141877
 30
0.0
 10
211.909450
 20
97.774860
 30
0.0
  0
SPLINE
  5
1b3
100
AcDbEntity
  8
Layer_1
 62
4
100
AcDbSpline
 70
8
 71
3
 72
8
 73
4
 74
0
 40
0
 40
0
 40
0
 40
0
 40
1
 40
1
 40
1
 40
1
 10
211.909450
 20
97.774860
 30
0.0
 10
211.909450
 20
98.189924
 30
0.0
 10
212.074333
 20
98.587988
 30
0.0
 10
212.367828
 20
98.881482
 30
0.0
  0
SPLINE
  5
1b4
100
AcDbEntity
  8
Layer_1
 62
4
100
AcDbSpline
 70
8
 71
3
 72
8
 73
4
 74
0
 40
0
 40
0
 40
0
 40
0
 40
1
 40
1
 40
1
 40
1
 10
212.367828
 20
98.881482
 30
0.0
 10
212.661322
 20
99.174977
 30
0.0
 10
213.059386
 20
99.339860
 30
0.0
 10
213.474450
 20
99.339860
 30
0.0
  0
LINE
  5
1b5
100
AcDbEntity
  8
Layer_1
 62
4
100
AcDbLine
 10
213.474450
 20
99.339860
 30
0.0
 11
213.474450
 21
99.339860
 31
0.0
  0
SPLINE
  5
1b6
100
AcDbEntity
  8
Layer_1
 62
4
100
AcDbSpline
 70
8
 71
3
 72
8
 73
4
 74
0
 40
0
 40
0
 40
0
 40
0
 40
1
 40
1
 40
1
 40
1
 10
213.474450
 20
188.173330
 30
0.0
 10
214.107433
 20
188.173330
 30
0.0
 10
214.678089
 20
187.792030
 30
0.0
 10
214.920322
 20
187.207230
 30
0.0
  0
SPLINE
  5
1b7
100
AcDbEntity
  8
Layer_1
 62
4
100
AcDbSpline
 70
8
 71
3
 72
8
 73
4
 74
0
 40
0
 40
0
 40
0
 40
0
 40
1
 40
1
 40
1
 40
1
 10
214.920322
 20
187.207230
 30
0.0
 10
215.162554
 20
186.622429
 30
0.0
 10
215.028659
 20
185.949295
 30
0.0
 10
214.581072
 20
185.501708
 30
0.0
  0
SPLINE
  5
1b8
100
AcDbEntity
  8
Layer_1
 62
4
100
AcDbSpline
 70
8
 71
3
 72
8
 73
4
 74
0
 40
0
 40
0
 40
0
 40
0
 40
1
 40
1
 40
1
 40
1
 10
214.581072
 20
185.501708
 30
0.0
 10
214.133485
 20
185.054121
 30
0.0
 10
213.460351
 20
184.920226
 30
0.0
 10
212.875550
 20
185.162458
 30
0.0
  0
SPLINE
  5
1b9
100
AcDbEntity
  8
Layer_1
 62
4
100
AcDbSpline
 70
8
 71
3
 72
8
 73
4
 74
0
 40
0
 40
0
 40
0
 40
0
 40
1
 40
1
 40
1
 40
1
 10
212.875550
 20
185.162458
 30
0.0
 10
212.290750
 20
185.404691
 30
0.0
 10
211.909450
 20
185.975347
 30
0.0
 10
211.909450
 20
186.608330
 30
0.0
  0
SPLINE
  5
1ba
100
AcDbEntity
  8
Layer_1
 62
4
100
AcDbSpline
 70
8
 71
3
 72
8
 73
4
 74
0
 40
0
 40
0
 40
0
 40
0
 40
1
 40
1
 40
1
 40
1
 10
211.909450
 20
186.608330
 30
0.0
 10
211.909450
 20
187.023394
 30
0.0
 10
212.074333
 20
187.421458
 30
0.0
 10
212.367828
 20
187.714952
 30
0.0
  0
SPLINE
  5
1bb
100
AcDbEntity
  8
Layer_1
 62
4
100
AcDbSpline
 70
8
 71
3
 72
8
 73
4
 74
0
 40
0
 40
0
 40
0
 40
0
 40
1
 40
1
 40
1
 40
1
 10
212.367828
 20
187.714952
 30
0.0
 10
212.661322
 20
188.008447
 30
0.0
 10
213.059386
 20
188.173330
 30
0.0
 10
213.474450
 20
188.173330
 30
0.0
  0
LINE
  5
1bc
100
AcDbEntity
  8
Layer_1
 62
4
100
AcDbLine
 10
213.474450
 20
188.173330
 30
0.0
 11
213.474450
 21
188.173330
 31
0.0
  0
SPLINE
  5
1bd
100
AcDbEntity
  8
Layer_1
 62
4
100
AcDbSpline
 70
8
 71
3
 72
8
 73
4
 74
0
 40
0
 40
0
 40
0
 40
0
 40
1
 40
1
 40
1
 40
1
 10
85.260310
 20
196.696250
 30
0.0
 10
85.893293
 20
196.696250
 30
0.0
 10
86.463949
 20
196.314950
 30
0.0
 10
86.706182
 20
195.730150
 30
0.0
  0
SPLINE
  5
1be
100
AcDbEntity
  8
Layer_1
 62
4
100
AcDbSpline
 70
8
 71
3
 72
8
 73
4
 74
0
 40
0
 40
0
 40
0
 40
0
 40
1
 40
1
 40
1
 40
1
 10
86.706182
 20
195.730150
 30
0.0
 10
86.948414
 20
195.145349
 30
0.0
 10
86.814519
 20
194.472215
 30
0.0
 10
86.366932
 20
194.024628
 30
0.0
  0
SPLINE
  5
1bf
100
AcDbEntity
  8
Layer_1
 62
4
100
AcDbSpline
 70
8
 71
3
 72
8
 73
4
 74
0
 40
0
 40
0
 40
0
 40
0
 40
1
 40
1
 40
1
 40
1
 10
86.366932
 20
194.024628
 30
0.0
 10
85.919345
 20
193.577041
 30
0.0
 10
85.246211
 20
193.443146
 30
0.0
 10
84.661410
 20
193.685378
 30
0.0
  0
SPLINE
  5
1c0
100
AcDbEntity
  8
Layer_1
 62
4
100
AcDbSpline
 70
8
 71
3
 72
8
 73
4
 74
0
 40
0
 40
0
 40
0
 40
0
 40
1
 40
1
 40
1
 40
1
 10
84.661410
 20
193.685378
 30
0.0
 10
84.076610
 20
193.927611
 30
0.0
 10
83.695310
 20
194.498267
 30
0.0
 10
83.695310
 20
195.131250
 30
0.0
  0
SPLINE
  5
1c1
100
AcDbEntity
  8
Layer_1
 62
4
100
AcDbSpline
 70
8
 71
3
 72
8
 73
4
 74
0
 40
0
 40
0
 40
0
 40
0
 40
1
 40
1
 40
1
 40
1
 10
83.695310
 20
195.131250
 30
0.0
 10
83.695310
 20
195.546314
 30
0.0
 10
83.860193
 20
195.944378
 30
0.0
 10
84.153688
 20
196.237872
 30
0.0
  0
SPLINE
  5
1c2
100
AcDbEntity
  8
Layer_1
 62
4
100
AcDbSpline
 70
8
 71
3
 72
8
 73
4
 74
0
 40
0
 40
0
 40
0
 40
0
 40
1
 40
1
 40
1
 40
1
 10
84.153688
 20
196.237872
 30
0.0
 10
84.447182
 20
196.531367
 30
0.0
 10
84.845246
 20
196.696250
 30
0.0
 10
85.260310
 20
196.696250
 30
0.0
  0
LINE
  5
1c3
100
AcDbEntity
  8
Layer_1
 62
4
100
AcDbLine
 10
85.260310
 20
196.696250
 30
0.0
 11
85.260310
 21
196.696250
 31
0.0
  0
SPLINE
  5
1c4
100
AcDbEntity
  8
Layer_1
 62
4
100
AcDbSpline
 70
8
 71
3
 72
8
 73
4
 74
0
 40
0
 40
0
 40
0
 40
0
 40
1
 40
1
 40
1
 40
1
 10
85.260310
 20
99.360670
 30
0.0
 10
85.893293
 20
99.360670
 30
0.0
 10
86.463949
 20
98.979370
 30
0.0
 10
86.706182
 20
98.394570
 30
0.0
  0
SPLINE
  5
1c5
100
AcDbEntity
  8
Layer_1
 62
4
100
AcDbSpline
 70
8
 71
3
 72
8
 73
4
 74
0
 40
0
 40
0
 40
0
 40
0
 40
1
 40
1
 40
1
 40
1
 10
86.706182
 20
98.394570
 30
0.0
 10
86.948414
 20
97.809769
 30
0.0
 10
86.814519
 20
97.136635
 30
0.0
 10
86.366932
 20
96.689048
 30
0.0
  0
SPLINE
  5
1c6
100
AcDbEntity
  8
Layer_1
 62
4
100
AcDbSpline
 70
8
 71
3
 72
8
 73
4
 74
0
 40
0
 40
0
 40
0
 40
0
 40
1
 40
1
 40
1
 40
1
 10
86.366932
 20
96.689048
 30
0.0
 10
85.919345
 20
96.241461
 30
0.0
 10
85.246211
 20
96.107566
 30
0.0
 10
84.661410
 20
96.349798
 30
0.0
  0
SPLINE
  5
1c7
100
AcDbEntity
  8
Layer_1
 62
4
100
AcDbSpline
 70
8
 71
3
 72
8
 73
4
 74
0
 40
0
 40
0
 40
0
 40
0
 40
1
 40
1
 40
1
 40
1
 10
84.661410
 20
96.349798
 30
0.0
 10
84.076610
 20
96.592031
 30
0.0
 10
83.695310
 20
97.162687
 30
0.0
 10
83.695310
 20
97.795670
 30
0.0
  0
SPLINE
  5
1c8
100
AcDbEntity
  8
Layer_1
 62
4
100
AcDbSpline
 70
8
 71
3
 72
8
 73
4
 74
0
 40
0
 40
0
 40
0
 40
0
 40
1
 40
1
 40
1
 40
1
 10
83.695310
 20
97.795670
 30
0.0
 10
83.695310
 20
98.210734
 30
0.0
 10
83.860193
 20
98.608798
 30
0.0
 10
84.153688
 20
98.902292
 30
0.0
  0
SPLINE
  5
1c9
100
AcDbEntity
  8
Layer_1
 62
4
100
AcDbSpline
 70
8
 71
3
 72
8
 73
4
 74
0
 40
0
 40
0
 40
0
 40
0
 40
1
 40
1
 40
1
 40
1
 10
84.153688
 20
98.902292
 30
0.0
 10
84.447182
 20
99.195787
 30
0.0
 10
84.845246
 20
99.360670
 30
0.0
 10
85.260310
 20
99.360670
 30
0.0
  0
LINE
  5
1ca
100
AcDbEntity
  8
Layer_1
 62
4
100
AcDbLine
 10
85.260310
 20
99.360670
 30
0.0
 11
85.260310
 21
99.360670
 31
0.0
  0
SPLINE
  5
1cb
100
AcDbEntity
  8
Layer_1
 62
4
100
AcDbSpline
 70
8
 71
3
 72
8
 73
4
 74
0
 40
0
 40
0
 40
0
 40
0
 40
1
 40
1
 40
1
 40
1
 10
85.260310
 20
153.278860
 30
0.0
 10
85.893293
 20
153.278860
 30
0.0
 10
86.463949
 20
152.897560
 30
0.0
 10
86.706182
 20
152.312760
 30
0.0
  0
SPLINE
  5
1cc
100
AcDbEntity
  8
Layer_1
 62
4
100
AcDbSpline
 70
8
 71
3
 72
8
 73
4
 74
0
 40
0
 40
0
 40
0
 40
0
 40
1
 40
1
 40
1
 40
1
 10
86.706182
 20
152.312760
 30
0.0
 10
86.948414
 20
151.727959
 30
0.0
 10
86.814519
 20
151.054825
 30
0.0
 10
86.366932
 20
150.607238
 30
0.0
  0
SPLINE
  5
1cd
100
AcDbEntity
  8
Layer_1
 62
4
100
AcDbSpline
 70
8
 71
3
 72
8
 73
4
 74
0
 40
0
 40
0
 40
0
 40
0
 40
1
 40
1
 40
1
 40
1
 10
86.366932
 20
150.607238
 30
0.0
 10
85.919345
 20
150.159651
 30
0.0
 10
85.246211
 20
150.025756
 30
0.0
 10
84.661410
 20
150.267988
 30
0.0
  0
SPLINE
  5
1ce
100
AcDbEntity
  8
Layer_1
 62
4
100
AcDbSpline
 70
8
 71
3
 72
8
 73
4
 74
0
 40
0
 40
0
 40
0
 40
0
 40
1
 40
1
 40
1
 40
1
 10
84.661410
 20
150.267988
 30
0.0
 10
84.076610
 20
150.510221
 30
0.0
 10
83.695310
 20
151.080877
 30
0.0
 10
83.695310
 20
151.713860
 30
0.0
  0
SPLINE
  5
1cf
100
AcDbEntity
  8
Layer_1
 62
4
100
AcDbSpline
 70
8
 71
3
 72
8
 73
4
 74
0
 40
0
 40
0
 40
0
 40
0
 40
1
 40
1
 40
1
 40
1
 10
83.695310
 20
151.713860
 30
0.0
 10
83.695310
 20
152.128924
 30
0.0
 10
83.860193
 20
152.526988
 30
0.0
 10
84.153688
 20
152.820482
 30
0.0
  0
SPLINE
  5
1d0
100
AcDbEntity
  8
Layer_1
 62
4
100
AcDbSpline
 70
8
 71
3
 72
8
 73
4
 74
0
 40
0
 40
0
 40
0
 40
0
 40
1
 40
1
 40
1
 40
1
 10
84.153688
 20
152.820482
 30
0.0
 10
84.447182
 20
153.113977
 30
0.0
 10
84.845246
 20
153.278860
 30
0.0
 10
85.260310
 20
153.278860
 30
0.0
  0
LINE
  5
1d1
100
AcDbEntity
  8
Layer_1
 62
4
100
AcDbLine
 10
85.260310
 20
153.278860
 30
0.0
 11
85.260310
 21
153.278860
 31
0.0
  0
ENDSEC
  0
SECTION
  2
OBJECTS
  0
DICTIONARY
  5
C
330
0
100
AcDbDictionary
  3
ACAD_GROUP
350
D
  3
ACAD_MLINESTYLE
350
17
  0
DICTIONARY
  5
D
330
C
100
AcDbDictionary
  0
DICTIONARY
  5
1A
330
C
100
AcDbDictionary
  0
DICTIONARY
  5
17
330
C
100
AcDbDictionary
  3
STANDARD
350
18
  0
DICTIONARY
  5
19
330
C
100
AcDbDictionary
  0
ENDSEC
  0
EOF
