  0
SECTION
  2
HEADER
  9
$ACADVER
  1
AC1014
  9
$HANDSEED
  5
FFFF
  9
$INSUNITS
 70
     0
  9
$MEASUREMENT
 70
     1
  0
ENDSEC
  0
SECTION
  2
TABLES
  0
TABLE
  2
VPORT
  5
8
330
0
100
AcDbSymbolTable
 70
     4
  0
VPORT
  5
2E
330
8
100
AcDbSymbolTableRecord
100
AcDbViewportTableRecord
  2
*ACTIVE
 70
     0
 10
0.0
 20
0.0
 11
1.0
 21
1.0
 12
210.0
 22
148.5
 13
0.0
 23
0.0
 14
10.0
 24
10.0
 15
10.0
 25
10.0
 16
0.0
 26
0.0
 36
1.0
 17
0.0
 27
0.0
 37
0.0
 40
341.0
 41
1.24
 42
50.0
 43
0.0
 44
0.0
 50
0.0
 51
0.0
 71
     0
 72
   100
 73
     1
 74
     3
 75
     0
 76
     0
 77
     0
 78
     0
  0
ENDTAB
  0
TABLE
  2
LTYPE
  5
5
330
0
100
AcDbSymbolTable
 70
     1
  0
LTYPE
  5
14
330
5
100
AcDbSymbolTableRecord
100
AcDbLinetypeTableRecord
  2
BYBLOCK
 70
     0
  3

 72
    65
 73
     0
 40
0.0
  0
LTYPE
  5
15
330
5
100
AcDbSymbolTableRecord
100
AcDbLinetypeTableRecord
  2
BYLAYER
 70
     0
  3

 72
    65
 73
     0
 40
0.0
  0
LTYPE
  5
16
330
5
100
AcDbSymbolTableRecord
100
AcDbLinetypeTableRecord
  2
CONTINUOUS
 70
     0
  3
Solid line
 72
    65
 73
     0
 40
0.0
  0
ENDTAB
  0
TABLE
  2
LAYER
  5
2
100
AcDbSymbolTable
 70
2
  0
LAYER
  5
50
100
AcDbSymbolTableRecord
100
AcDbLayerTableRecord
  2
0
 70
0
  6
CONTINUOUS
  0
LAYER
  5
51
100
AcDbSymbolTableRecord
100
AcDbLayerTableRecord
  2
Layer_1
 70
0
  6
CONTINUOUS
  0
ENDTAB
  0
TABLE
  2
STYLE
  5
3
330
0
100
AcDbSymbolTable
 70
     1
  0
STYLE
  5
11
330
3
100
AcDbSymbolTableRecord
100
AcDbTextStyleTableRecord
  2
STANDARD
 70
     0
 40
0.0
 41
1.0
 50
0.0
 71
     0
 42
2.5
  3
txt
  4

  0
ENDTAB
  0
TABLE
  2
VIEW
  5
6
330
0
100
AcDbSymbolTable
 70
     0
  0
ENDTAB
  0
TABLE
  2
UCS
  5
7
330
0
100
AcDbSymbolTable
 70
     0
  0
ENDTAB
  0
TABLE
  2
APPID
  5
9
330
0
100
AcDbSymbolTable
 70
     2
  0
APPID
  5
12
330
9
100
AcDbSymbolTableRecord
100
AcDbRegAppTableRecord
  2
ACAD
 70
     0
  0
ENDTAB
  0
TABLE
  2
DIMSTYLE
  5
A
330
0
100
AcDbSymbolTable
 70
     1
  0
DIMSTYLE
105
27
330
A
100
AcDbSymbolTableRecord
100
AcDbDimStyleTableRecord
  2
ISO-25
 70
     0
  3

  4

  5

  6

  7

 40
1.0
 41
2.5
 42
0.625
 43
3.75
 44
1.25
 45
0.0
 46
0.0
 47
0.0
 48
0.0
140
2.5
141
2.5
142
0.0
143
0.03937007874016
144
1.0
145
0.0
146
1.0
147
0.625
 71
     0
 72
     0
 73
     0
 74
     0
 75
     0
 76
     0
 77
     1
 78
     8
170
     0
171
     3
172
     1
173
     0
174
     0
175
     0
176
     0
177
     0
178
     0
270
     2
271
     2
272
     2
273
     2
274
     3
340
11
275
     0
280
     0
281
     0
282
     0
283
     0
284
     8
285
     0
286
     0
287
     3
288
     0
  0
ENDTAB
  0
TABLE
  2
BLOCK_RECORD
  5
1
330
0
100
AcDbSymbolTable
 70
     1
  0
BLOCK_RECORD
  5
1F
330
1
100
AcDbSymbolTableRecord
100
AcDbBlockTableRecord
  2
*MODEL_SPACE
  0
BLOCK_RECORD
  5
1B
330
1
100
AcDbSymbolTableRecord
100
AcDbBlockTableRecord
  2
*PAPER_SPACE
  0
ENDTAB
  0
ENDSEC
  0
SECTION
  2
BLOCKS
  0
BLOCK
  5
20
330
1F
100
AcDbEntity
  8
0
100
AcDbBlockBegin
  2
*MODEL_SPACE
 70
     0
 10
0.0
 20
0.0
 30
0.0
  3
*MODEL_SPACE
  1

  0
ENDBLK
  5
21
330
1F
100
AcDbEntity
  8
0
100
AcDbBlockEnd
  0
BLOCK
  5
1C
330
1B
100
AcDbEntity
 67
     1
  8
0
100
AcDbBlockBegin
  2
*PAPER_SPACE
  1

  0
ENDBLK
  5
1D
330
1B
100
AcDbEntity
 67
     1
  8
0
100
AcDbBlockEnd
  0
ENDSEC
  0
SECTION
  2
ENTITIES
  0
SPLINE
  5
100
100
AcDbEntity
  8
Layer_1
 62
1
100
AcDbSpline
 70
8
 71
3
 72
8
 73
4
 74
0
 40
0
 40
0
 40
0
 40
0
 40
1
 40
1
 40
1
 40
1
 10
562.042600
 20
-82.415200
 30
0.0
 10
562.426839
 20
-82.415200
 30
0.0
 10
562.773244
 20
-82.646660
 30
0.0
 10
562.920286
 20
-83.001651
 30
0.0
  0
SPLINE
  5
101
100
AcDbEntity
  8
Layer_1
 62
1
100
AcDbSpline
 70
8
 71
3
 72
8
 73
4
 74
0
 40
0
 40
0
 40
0
 40
0
 40
1
 40
1
 40
1
 40
1
 10
562.920286
 20
-83.001651
 30
0.0
 10
563.067327
 20
-83.356641
 30
0.0
 10
562.986050
 20
-83.765253
 30
0.0
 10
562.714351
 20
-84.036951
 30
0.0
  0
SPLINE
  5
102
100
AcDbEntity
  8
Layer_1
 62
1
100
AcDbSpline
 70
8
 71
3
 72
8
 73
4
 74
0
 40
0
 40
0
 40
0
 40
0
 40
1
 40
1
 40
1
 40
1
 10
562.714351
 20
-84.036951
 30
0.0
 10
562.442653
 20
-84.308650
 30
0.0
 10
562.034041
 20
-84.389927
 30
0.0
 10
561.679051
 20
-84.242886
 30
0.0
  0
SPLINE
  5
103
100
AcDbEntity
  8
Layer_1
 62
1
100
AcDbSpline
 70
8
 71
3
 72
8
 73
4
 74
0
 40
0
 40
0
 40
0
 40
0
 40
1
 40
1
 40
1
 40
1
 10
561.679051
 20
-84.242886
 30
0.0
 10
561.324060
 20
-84.095844
 30
0.0
 10
561.092600
 20
-83.749439
 30
0.0
 10
561.092600
 20
-83.365200
 30
0.0
  0
SPLINE
  5
104
100
AcDbEntity
  8
Layer_1
 62
1
100
AcDbSpline
 70
8
 71
3
 72
8
 73
4
 74
0
 40
0
 40
0
 40
0
 40
0
 40
1
 40
1
 40
1
 40
1
 10
561.092600
 20
-83.365200
 30
0.0
 10
561.092600
 20
-83.113244
 30
0.0
 10
561.192689
 20
-82.871608
 30
0.0
 10
561.370849
 20
-82.693449
 30
0.0
  0
SPLINE
  5
105
100
AcDbEntity
  8
Layer_1
 62
1
100
AcDbSpline
 70
8
 71
3
 72
8
 73
4
 74
0
 40
0
 40
0
 40
0
 40
0
 40
1
 40
1
 40
1
 40
1
 10
561.370849
 20
-82.693449
 30
0.0
 10
561.549008
 20
-82.515289
 30
0.0
 10
561.790644
 20
-82.415200
 30
0.0
 10
562.042600
 20
-82.415200
 30
0.0
  0
LINE
  5
106
100
AcDbEntity
  8
Layer_1
 62
1
100
AcDbLine
 10
562.042600
 20
-82.415200
 30
0.0
 11
562.042600
 21
-82.415200
 31
0.0
  0
SPLINE
  5
107
100
AcDbEntity
  8
Layer_1
 62
1
100
AcDbSpline
 70
8
 71
3
 72
8
 73
4
 74
0
 40
0
 40
0
 40
0
 40
0
 40
1
 40
1
 40
1
 40
1
 10
504.197750
 20
-82.415200
 30
0.0
 10
503.813511
 20
-82.415200
 30
0.0
 10
503.467106
 20
-82.646660
 30
0.0
 10
503.320064
 20
-83.001651
 30
0.0
  0
SPLINE
  5
108
100
AcDbEntity
  8
Layer_1
 62
1
100
AcDbSpline
 70
8
 71
3
 72
8
 73
4
 74
0
 40
0
 40
0
 40
0
 40
0
 40
1
 40
1
 40
1
 40
1
 10
503.320064
 20
-83.001651
 30
0.0
 10
503.173023
 20
-83.356641
 30
0.0
 10
503.254300
 20
-83.765253
 30
0.0
 10
503.525999
 20
-84.036951
 30
0.0
  0
SPLINE
  5
109
100
AcDbEntity
  8
Layer_1
 62
1
100
AcDbSpline
 70
8
 71
3
 72
8
 73
4
 74
0
 40
0
 40
0
 40
0
 40
0
 40
1
 40
1
 40
1
 40
1
 10
503.525999
 20
-84.036951
 30
0.0
 10
503.797697
 20
-84.308650
 30
0.0
 10
504.206309
 20
-84.389927
 30
0.0
 10
504.561299
 20
-84.242886
 30
0.0
  0
SPLINE
  5
10a
100
AcDbEntity
  8
Layer_1
 62
1
100
AcDbSpline
 70
8
 71
3
 72
8
 73
4
 74
0
 40
0
 40
0
 40
0
 40
0
 40
1
 40
1
 40
1
 40
1
 10
504.561299
 20
-84.242886
 30
0.0
 10
504.916290
 20
-84.095844
 30
0.0
 10
505.147750
 20
-83.749439
 30
0.0
 10
505.147750
 20
-83.365200
 30
0.0
  0
SPLINE
  5
10b
100
AcDbEntity
  8
Layer_1
 62
1
100
AcDbSpline
 70
8
 71
3
 72
8
 73
4
 74
0
 40
0
 40
0
 40
0
 40
0
 40
1
 40
1
 40
1
 40
1
 10
505.147750
 20
-83.365200
 30
0.0
 10
505.147750
 20
-83.113244
 30
0.0
 10
505.047661
 20
-82.871608
 30
0.0
 10
504.869501
 20
-82.693449
 30
0.0
  0
SPLINE
  5
10c
100
AcDbEntity
  8
Layer_1
 62
1
100
AcDbSpline
 70
8
 71
3
 72
8
 73
4
 74
0
 40
0
 40
0
 40
0
 40
0
 40
1
 40
1
 40
1
 40
1
 10
504.869501
 20
-82.693449
 30
0.0
 10
504.691342
 20
-82.515289
 30
0.0
 10
504.449706
 20
-82.415200
 30
0.0
 10
504.197750
 20
-82.415200
 30
0.0
  0
LINE
  5
10d
100
AcDbEntity
  8
Layer_1
 62
1
100
AcDbLine
 10
504.197750
 20
-82.415200
 30
0.0
 11
504.197750
 21
-82.415200
 31
0.0
  0
SPLINE
  5
10e
100
AcDbEntity
  8
Layer_1
 62
1
100
AcDbSpline
 70
8
 71
3
 72
8
 73
4
 74
0
 40
0
 40
0
 40
0
 40
0
 40
1
 40
1
 40
1
 40
1
 10
504.197750
 20
14.920370
 30
0.0
 10
503.813511
 20
14.920370
 30
0.0
 10
503.467106
 20
14.688910
 30
0.0
 10
503.320064
 20
14.333919
 30
0.0
  0
SPLINE
  5
10f
100
AcDbEntity
  8
Layer_1
 62
1
100
AcDbSpline
 70
8
 71
3
 72
8
 73
4
 74
0
 40
0
 40
0
 40
0
 40
0
 40
1
 40
1
 40
1
 40
1
 10
503.320064
 20
14.333919
 30
0.0
 10
503.173023
 20
13.978929
 30
0.0
 10
503.254300
 20
13.570317
 30
0.0
 10
503.525999
 20
13.298619
 30
0.0
  0
SPLINE
  5
110
100
AcDbEntity
  8
Layer_1
 62
1
100
AcDbSpline
 70
8
 71
3
 72
8
 73
4
 74
0
 40
0
 40
0
 40
0
 40
0
 40
1
 40
1
 40
1
 40
1
 10
503.525999
 20
13.298619
 30
0.0
 10
503.797697
 20
13.026920
 30
0.0
 10
504.206309
 20
12.945643
 30
0.0
 10
504.561299
 20
13.092684
 30
0.0
  0
SPLINE
  5
111
100
AcDbEntity
  8
Layer_1
 62
1
100
AcDbSpline
 70
8
 71
3
 72
8
 73
4
 74
0
 40
0
 40
0
 40
0
 40
0
 40
1
 40
1
 40
1
 40
1
 10
504.561299
 20
13.092684
 30
0.0
 10
504.916290
 20
13.239726
 30
0.0
 10
505.147750
 20
13.586131
 30
0.0
 10
505.147750
 20
13.970370
 30
0.0
  0
SPLINE
  5
112
100
AcDbEntity
  8
Layer_1
 62
1
100
AcDbSpline
 70
8
 71
3
 72
8
 73
4
 74
0
 40
0
 40
0
 40
0
 40
0
 40
1
 40
1
 40
1
 40
1
 10
505.147750
 20
13.970370
 30
0.0
 10
505.147750
 20
14.222326
 30
0.0
 10
505.047661
 20
14.463962
 30
0.0
 10
504.869501
 20
14.642121
 30
0.0
  0
SPLINE
  5
113
100
AcDbEntity
  8
Layer_1
 62
1
100
AcDbSpline
 70
8
 71
3
 72
8
 73
4
 74
0
 40
0
 40
0
 40
0
 40
0
 40
1
 40
1
 40
1
 40
1
 10
504.869501
 20
14.642121
 30
0.0
 10
504.691342
 20
14.820281
 30
0.0
 10
504.449706
 20
14.920370
 30
0.0
 10
504.197750
 20
14.920370
 30
0.0
  0
LINE
  5
114
100
AcDbEntity
  8
Layer_1
 62
1
100
AcDbLine
 10
504.197750
 20
14.920370
 30
0.0
 11
504.197750
 21
14.920370
 31
0.0
  0
SPLINE
  5
115
100
AcDbEntity
  8
Layer_1
 62
1
100
AcDbSpline
 70
8
 71
3
 72
8
 73
4
 74
0
 40
0
 40
0
 40
0
 40
0
 40
1
 40
1
 40
1
 40
1
 10
562.042600
 20
14.920370
 30
0.0
 10
562.426839
 20
14.920370
 30
0.0
 10
562.773244
 20
14.688910
 30
0.0
 10
562.920286
 20
14.333919
 30
0.0
  0
SPLINE
  5
116
100
AcDbEntity
  8
Layer_1
 62
1
100
AcDbSpline
 70
8
 71
3
 72
8
 73
4
 74
0
 40
0
 40
0
 40
0
 40
0
 40
1
 40
1
 40
1
 40
1
 10
562.920286
 20
14.333919
 30
0.0
 10
563.067327
 20
13.978929
 30
0.0
 10
562.986050
 20
13.570317
 30
0.0
 10
562.714351
 20
13.298619
 30
0.0
  0
SPLINE
  5
117
100
AcDbEntity
  8
Layer_1
 62
1
100
AcDbSpline
 70
8
 71
3
 72
8
 73
4
 74
0
 40
0
 40
0
 40
0
 40
0
 40
1
 40
1
 40
1
 40
1
 10
562.714351
 20
13.298619
 30
0.0
 10
562.442653
 20
13.026920
 30
0.0
 10
562.034041
 20
12.945643
 30
0.0
 10
561.679051
 20
13.092684
 30
0.0
  0
SPLINE
  5
118
100
AcDbEntity
  8
Layer_1
 62
1
100
AcDbSpline
 70
8
 71
3
 72
8
 73
4
 74
0
 40
0
 40
0
 40
0
 40
0
 40
1
 40
1
 40
1
 40
1
 10
561.679051
 20
13.092684
 30
0.0
 10
561.324060
 20
13.239726
 30
0.0
 10
561.092600
 20
13.586131
 30
0.0
 10
561.092600
 20
13.970370
 30
0.0
  0
SPLINE
  5
119
100
AcDbEntity
  8
Layer_1
 62
1
100
AcDbSpline
 70
8
 71
3
 72
8
 73
4
 74
0
 40
0
 40
0
 40
0
 40
0
 40
1
 40
1
 40
1
 40
1
 10
561.092600
 20
13.970370
 30
0.0
 10
561.092600
 20
14.222326
 30
0.0
 10
561.192689
 20
14.463962
 30
0.0
 10
561.370849
 20
14.642121
 30
0.0
  0
SPLINE
  5
11a
100
AcDbEntity
  8
Layer_1
 62
1
100
AcDbSpline
 70
8
 71
3
 72
8
 73
4
 74
0
 40
0
 40
0
 40
0
 40
0
 40
1
 40
1
 40
1
 40
1
 10
561.370849
 20
14.642121
 30
0.0
 10
561.549008
 20
14.820281
 30
0.0
 10
561.790644
 20
14.920370
 30
0.0
 10
562.042600
 20
14.920370
 30
0.0
  0
LINE
  5
11b
100
AcDbEntity
  8
Layer_1
 62
1
100
AcDbLine
 10
562.042600
 20
14.920370
 30
0.0
 11
562.042600
 21
14.920370
 31
0.0
  0
SPLINE
  5
11c
100
AcDbEntity
  8
Layer_1
 62
1
100
AcDbSpline
 70
8
 71
3
 72
8
 73
4
 74
0
 40
0
 40
0
 40
0
 40
0
 40
1
 40
1
 40
1
 40
1
 10
533.119200
 20
-50.015930
 30
0.0
 10
529.883502
 20
-50.015930
 30
0.0
 10
526.966412
 20
-51.965067
 30
0.0
 10
525.728164
 20
-54.954463
 30
0.0
  0
SPLINE
  5
11d
100
AcDbEntity
  8
Layer_1
 62
1
100
AcDbSpline
 70
8
 71
3
 72
8
 73
4
 74
0
 40
0
 40
0
 40
0
 40
0
 40
1
 40
1
 40
1
 40
1
 10
525.728164
 20
-54.954463
 30
0.0
 10
524.489916
 20
-57.943858
 30
0.0
 10
525.174362
 20
-61.384800
 30
0.0
 10
527.462346
 20
-63.672784
 30
0.0
  0
SPLINE
  5
11e
100
AcDbEntity
  8
Layer_1
 62
1
100
AcDbSpline
 70
8
 71
3
 72
8
 73
4
 74
0
 40
0
 40
0
 40
0
 40
0
 40
1
 40
1
 40
1
 40
1
 10
527.462346
 20
-63.672784
 30
0.0
 10
529.750330
 20
-65.960768
 30
0.0
 10
533.191272
 20
-66.645214
 30
0.0
 10
536.180667
 20
-65.406966
 30
0.0
  0
SPLINE
  5
11f
100
AcDbEntity
  8
Layer_1
 62
1
100
AcDbSpline
 70
8
 71
3
 72
8
 73
4
 74
0
 40
0
 40
0
 40
0
 40
0
 40
1
 40
1
 40
1
 40
1
 10
536.180667
 20
-65.406966
 30
0.0
 10
539.170063
 20
-64.168718
 30
0.0
 10
541.119200
 20
-61.251628
 30
0.0
 10
541.119200
 20
-58.015930
 30
0.0
  0
SPLINE
  5
120
100
AcDbEntity
  8
Layer_1
 62
1
100
AcDbSpline
 70
8
 71
3
 72
8
 73
4
 74
0
 40
0
 40
0
 40
0
 40
0
 40
1
 40
1
 40
1
 40
1
 10
541.119200
 20
-58.015930
 30
0.0
 10
541.119200
 20
-55.894198
 30
0.0
 10
540.276345
 20
-53.859367
 30
0.0
 10
538.776054
 20
-52.359076
 30
0.0
  0
SPLINE
  5
121
100
AcDbEntity
  8
Layer_1
 62
1
100
AcDbSpline
 70
8
 71
3
 72
8
 73
4
 74
0
 40
0
 40
0
 40
0
 40
0
 40
1
 40
1
 40
1
 40
1
 10
538.776054
 20
-52.359076
 30
0.0
 10
537.275763
 20
-50.858785
 30
0.0
 10
535.240932
 20
-50.015930
 30
0.0
 10
533.119200
 20
-50.015930
 30
0.0
  0
LINE
  5
122
100
AcDbEntity
  8
Layer_1
 62
1
100
AcDbLine
 10
533.119200
 20
-50.015930
 30
0.0
 11
533.119200
 21
-50.015930
 31
0.0
  0
LINE
  5
123
100
AcDbEntity
  8
Layer_1
 62
1
100
AcDbLine
 10
526.012484
 20
-85.197760
 30
0.0
 11
548.210484
 21
-85.197760
 31
0.0
  0
SPLINE
  5
124
100
AcDbEntity
  8
Layer_1
 62
1
100
AcDbSpline
 70
8
 71
3
 72
8
 73
4
 74
0
 40
0
 40
0
 40
0
 40
0
 40
1
 40
1
 40
1
 40
1
 10
548.210484
 20
-85.197760
 30
0.0
 10
548.916037
 20
-85.197761
 30
0.0
 10
549.621590
 20
-85.198051
 30
0.0
 10
550.327144
 20
-85.198630
 30
0.0
  0
LINE
  5
125
100
AcDbEntity
  8
Layer_1
 62
1
100
AcDbLine
 10
550.327144
 20
-85.198630
 30
0.0
 11
555.532204
 21
-85.202630
 31
0.0
  0
SPLINE
  5
126
100
AcDbEntity
  8
Layer_1
 62
1
100
AcDbSpline
 70
8
 71
3
 72
8
 73
4
 74
0
 40
0
 40
0
 40
0
 40
0
 40
1
 40
1
 40
1
 40
1
 10
555.532204
 20
-85.202630
 30
0.0
 10
556.211439
 20
-85.203187
 30
0.0
 10
556.864275
 20
-85.465764
 30
0.0
 10
557.354734
 20
-85.935670
 30
0.0
  0
LINE
  5
127
100
AcDbEntity
  8
Layer_1
 62
1
100
AcDbLine
 10
557.354734
 20
-85.935670
 30
0.0
 11
558.775084
 21
-87.296510
 31
0.0
  0
SPLINE
  5
128
100
AcDbEntity
  8
Layer_1
 62
1
100
AcDbSpline
 70
8
 71
3
 72
8
 73
4
 74
0
 40
0
 40
0
 40
0
 40
0
 40
1
 40
1
 40
1
 40
1
 10
558.775084
 20
-87.296510
 30
0.0
 10
559.265481
 20
-87.766355
 30
0.0
 10
559.918464
 20
-88.028532
 30
0.0
 10
560.597614
 20
-88.028270
 30
0.0
  0
LINE
  5
129
100
AcDbEntity
  8
Layer_1
 62
1
100
AcDbLine
 10
560.597614
 20
-88.028270
 30
0.0
 11
568.905524
 21
-88.025270
 31
0.0
  0
SPLINE
  5
12a
100
AcDbEntity
  8
Layer_1
 62
1
100
AcDbSpline
 70
8
 71
3
 72
8
 73
4
 74
0
 40
0
 40
0
 40
0
 40
0
 40
1
 40
1
 40
1
 40
1
 10
568.905524
 20
-88.025270
 30
0.0
 10
569.186203
 20
-88.025161
 30
0.0
 10
569.455343
 20
-87.913552
 30
0.0
 10
569.653730
 20
-87.714997
 30
0.0
  0
SPLINE
  5
12b
100
AcDbEntity
  8
Layer_1
 62
1
100
AcDbSpline
 70
8
 71
3
 72
8
 73
4
 74
0
 40
0
 40
0
 40
0
 40
0
 40
1
 40
1
 40
1
 40
1
 10
569.653730
 20
-87.714997
 30
0.0
 10
569.852118
 20
-87.516443
 30
0.0
 10
569.963500
 20
-87.247210
 30
0.0
 10
569.963374
 20
-86.966530
 30
0.0
  0
LINE
  5
12c
100
AcDbEntity
  8
Layer_1
 62
1
100
AcDbLine
 10
569.963374
 20
-86.966530
 30
0.0
 11
569.961374
 21
-82.427620
 31
0.0
  0
SPLINE
  5
12d
100
AcDbEntity
  8
Layer_1
 62
1
100
AcDbSpline
 70
8
 71
3
 72
8
 73
4
 74
0
 40
0
 40
0
 40
0
 40
0
 40
1
 40
1
 40
1
 40
1
 10
569.961374
 20
-82.427620
 30
0.0
 10
569.961069
 20
-81.754155
 30
0.0
 10
569.674074
 20
-81.112666
 30
0.0
 10
569.172174
 20
-80.663610
 30
0.0
  0
LINE
  5
12e
100
AcDbEntity
  8
Layer_1
 62
1
100
AcDbLine
 10
569.172174
 20
-80.663610
 30
0.0
 11
558.627224
 21
-71.228940
 31
0.0
  0
SPLINE
  5
12f
100
AcDbEntity
  8
Layer_1
 62
1
100
AcDbSpline
 70
8
 71
3
 72
8
 73
4
 74
0
 40
0
 40
0
 40
0
 40
0
 40
1
 40
1
 40
1
 40
1
 10
558.627224
 20
-71.228940
 30
0.0
 10
558.125348
 20
-70.779903
 30
0.0
 10
557.838479
 20
-70.138364
 30
0.0
 10
557.838434
 20
-69.464930
 30
0.0
  0
LINE
  5
130
100
AcDbEntity
  8
Layer_1
 62
1
100
AcDbLine
 10
557.838434
 20
-69.464930
 30
0.0
 11
557.836434
 21
-42.116820
 31
0.0
  0
SPLINE
  5
131
100
AcDbEntity
  8
Layer_1
 62
1
100
AcDbSpline
 70
8
 71
3
 72
8
 73
4
 74
0
 40
0
 40
0
 40
0
 40
0
 40
1
 40
1
 40
1
 40
1
 10
557.836434
 20
-42.116820
 30
0.0
 10
557.836388
 20
-41.444189
 30
0.0
 10
558.126377
 20
-40.804203
 30
0.0
 10
558.632134
 20
-40.360760
 30
0.0
  0
LINE
  5
132
100
AcDbEntity
  8
Layer_1
 62
1
100
AcDbLine
 10
558.632134
 20
-40.360760
 30
0.0
 11
564.199174
 21
-35.479620
 31
0.0
  0
SPLINE
  5
133
100
AcDbEntity
  8
Layer_1
 62
1
100
AcDbSpline
 70
8
 71
3
 72
8
 73
4
 74
0
 40
0
 40
0
 40
0
 40
0
 40
1
 40
1
 40
1
 40
1
 10
564.199174
 20
-35.479620
 30
0.0
 10
564.704874
 20
-35.036227
 30
0.0
 10
564.994551
 20
-34.396114
 30
0.0
 10
564.993864
 20
-33.723560
 30
0.0
  0
LINE
  5
134
100
AcDbEntity
  8
Layer_1
 62
1
100
AcDbLine
 10
564.993864
 20
-33.723560
 30
0.0
 11
564.984864
 21
-25.088760
 31
0.0
  0
SPLINE
  5
135
100
AcDbEntity
  8
Layer_1
 62
1
100
AcDbSpline
 70
8
 71
3
 72
8
 73
4
 74
0
 40
0
 40
0
 40
0
 40
0
 40
1
 40
1
 40
1
 40
1
 10
564.984864
 20
-25.088760
 30
0.0
 10
564.984175
 20
-24.414938
 30
0.0
 10
564.698257
 20
-23.772902
 30
0.0
 10
564.197894
 20
-23.321600
 30
0.0
  0
LINE
  5
136
100
AcDbEntity
  8
Layer_1
 62
1
100
AcDbLine
 10
564.197894
 20
-23.321600
 30
0.0
 11
558.624184
 21
-18.294450
 31
0.0
  0
SPLINE
  5
137
100
AcDbEntity
  8
Layer_1
 62
1
100
AcDbSpline
 70
8
 71
3
 72
8
 73
4
 74
0
 40
0
 40
0
 40
0
 40
0
 40
1
 40
1
 40
1
 40
1
 10
558.624184
 20
-18.294450
 30
0.0
 10
558.123874
 20
-17.843200
 30
0.0
 10
557.838270
 20
-17.201038
 30
0.0
 10
557.838234
 20
-16.527290
 30
0.0
  0
LINE
  5
138
100
AcDbEntity
  8
Layer_1
 62
1
100
AcDbLine
 10
557.838234
 20
-16.527290
 30
0.0
 11
557.837354
 21
0.286110
 31
0.0
  0
SPLINE
  5
139
100
AcDbEntity
  8
Layer_1
 62
1
100
AcDbSpline
 70
8
 71
3
 72
8
 73
4
 74
0
 40
0
 40
0
 40
0
 40
0
 40
1
 40
1
 40
1
 40
1
 10
557.837354
 20
0.286110
 30
0.0
 10
557.837317
 20
0.959197
 30
0.0
 10
558.125489
 20
1.600086
 30
0.0
 10
558.629014
 20
2.046750
 30
0.0
  0
LINE
  5
13a
100
AcDbEntity
  8
Layer_1
 62
1
100
AcDbLine
 10
558.629014
 20
2.046750
 30
0.0
 11
569.170304
 21
11.397560
 31
0.0
  0
SPLINE
  5
13b
100
AcDbEntity
  8
Layer_1
 62
1
100
AcDbSpline
 70
8
 71
3
 72
8
 73
4
 74
0
 40
0
 40
0
 40
0
 40
0
 40
1
 40
1
 40
1
 40
1
 10
569.170304
 20
11.397560
 30
0.0
 10
569.673869
 20
11.844259
 30
0.0
 10
569.962259
 20
12.485060
 30
0.0
 10
569.962674
 20
13.158200
 30
0.0
  0
LINE
  5
13c
100
AcDbEntity
  8
Layer_1
 62
1
100
AcDbLine
 10
569.962674
 20
13.158200
 30
0.0
 11
569.965674
 21
17.537220
 31
0.0
  0
SPLINE
  5
13d
100
AcDbEntity
  8
Layer_1
 62
1
100
AcDbSpline
 70
8
 71
3
 72
8
 73
4
 74
0
 40
0
 40
0
 40
0
 40
0
 40
1
 40
1
 40
1
 40
1
 10
569.965674
 20
17.537220
 30
0.0
 10
569.965844
 20
17.817883
 30
0.0
 10
569.854499
 20
18.087115
 30
0.0
 10
569.656138
 20
18.285672
 30
0.0
  0
SPLINE
  5
13e
100
AcDbEntity
  8
Layer_1
 62
1
100
AcDbSpline
 70
8
 71
3
 72
8
 73
4
 74
0
 40
0
 40
0
 40
0
 40
0
 40
1
 40
1
 40
1
 40
1
 10
569.656138
 20
18.285672
 30
0.0
 10
569.457778
 20
18.484230
 30
0.0
 10
569.188657
 20
18.595842
 30
0.0
 10
568.907994
 20
18.595950
 30
0.0
  0
LINE
  5
13f
100
AcDbEntity
  8
Layer_1
 62
1
100
AcDbLine
 10
568.907994
 20
18.595950
 30
0.0
 11
560.567834
 21
18.598950
 31
0.0
  0
SPLINE
  5
140
100
AcDbEntity
  8
Layer_1
 62
1
100
AcDbSpline
 70
8
 71
3
 72
8
 73
4
 74
0
 40
0
 40
0
 40
0
 40
0
 40
1
 40
1
 40
1
 40
1
 10
560.567834
 20
18.598950
 30
0.0
 10
559.886307
 20
18.599208
 30
0.0
 10
559.228609
 20
18.348188
 30
0.0
 10
558.720564
 20
17.893910
 30
0.0
  0
LINE
  5
141
100
AcDbEntity
  8
Layer_1
 62
1
100
AcDbLine
 10
558.720564
 20
17.893910
 30
0.0
 11
557.138854
 21
16.479610
 31
0.0
  0
SPLINE
  5
142
100
AcDbEntity
  8
Layer_1
 62
1
100
AcDbSpline
 70
8
 71
3
 72
8
 73
4
 74
0
 40
0
 40
0
 40
0
 40
0
 40
1
 40
1
 40
1
 40
1
 10
557.138854
 20
16.479610
 30
0.0
 10
556.630746
 20
16.025278
 30
0.0
 10
555.973193
 20
15.773849
 30
0.0
 10
555.291584
 20
15.773270
 30
0.0
  0
LINE
  5
143
100
AcDbEntity
  8
Layer_1
 62
1
100
AcDbLine
 10
555.291584
 20
15.773270
 30
0.0
 11
550.326304
 21
15.769270
 31
0.0
  0
SPLINE
  5
144
100
AcDbEntity
  8
Layer_1
 62
1
100
AcDbSpline
 70
8
 71
3
 72
8
 73
4
 74
0
 40
0
 40
0
 40
0
 40
0
 40
1
 40
1
 40
1
 40
1
 10
550.326304
 20
15.769270
 30
0.0
 10
549.620750
 20
15.768671
 30
0.0
 10
548.915197
 20
15.768371
 30
0.0
 10
548.209644
 20
15.768370
 30
0.0
  0
LINE
  5
145
100
AcDbEntity
  8
Layer_1
 62
1
100
AcDbLine
 10
548.209644
 20
15.768370
 30
0.0
 11
529.506914
 21
15.768370
 31
0.0
  0
LINE
  5
146
100
AcDbEntity
  8
Layer_1
 62
1
100
AcDbLine
 10
529.506914
 20
15.768370
 30
0.0
 11
518.640894
 21
15.768360
 31
0.0
  0
SPLINE
  5
147
100
AcDbEntity
  8
Layer_1
 62
1
100
AcDbSpline
 70
8
 71
3
 72
8
 73
4
 74
0
 40
0
 40
0
 40
0
 40
0
 40
1
 40
1
 40
1
 40
1
 10
518.640894
 20
15.768360
 30
0.0
 10
517.935340
 20
15.768361
 30
0.0
 10
517.229787
 20
15.768637
 30
0.0
 10
516.524234
 20
15.769190
 30
0.0
  0
LINE
  5
148
100
AcDbEntity
  8
Layer_1
 62
1
100
AcDbLine
 10
516.524234
 20
15.769190
 30
0.0
 11
510.963644
 21
15.773190
 31
0.0
  0
SPLINE
  5
149
100
AcDbEntity
  8
Layer_1
 62
1
100
AcDbSpline
 70
8
 71
3
 72
8
 73
4
 74
0
 40
0
 40
0
 40
0
 40
0
 40
1
 40
1
 40
1
 40
1
 10
510.963644
 20
15.773190
 30
0.0
 10
510.282039
 20
15.773725
 30
0.0
 10
509.624478
 20
16.025131
 30
0.0
 10
509.116374
 20
16.479460
 30
0.0
  0
LINE
  5
14a
100
AcDbEntity
  8
Layer_1
 62
1
100
AcDbLine
 10
509.116374
 20
16.479460
 30
0.0
 11
507.534664
 21
17.893760
 31
0.0
  0
SPLINE
  5
14b
100
AcDbEntity
  8
Layer_1
 62
1
100
AcDbSpline
 70
8
 71
3
 72
8
 73
4
 74
0
 40
0
 40
0
 40
0
 40
0
 40
1
 40
1
 40
1
 40
1
 10
507.534664
 20
17.893760
 30
0.0
 10
507.026618
 20
18.348038
 30
0.0
 10
506.368920
 20
18.599058
 30
0.0
 10
505.687394
 20
18.598800
 30
0.0
  0
LINE
  5
14c
100
AcDbEntity
  8
Layer_1
 62
1
100
AcDbLine
 10
505.687394
 20
18.598800
 30
0.0
 11
497.347234
 21
18.595800
 31
0.0
  0
SPLINE
  5
14d
100
AcDbEntity
  8
Layer_1
 62
1
100
AcDbSpline
 70
8
 71
3
 72
8
 73
4
 74
0
 40
0
 40
0
 40
0
 40
0
 40
1
 40
1
 40
1
 40
1
 10
497.347234
 20
18.595800
 30
0.0
 10
497.066570
 20
18.595692
 30
0.0
 10
496.797449
 20
18.484080
 30
0.0
 10
496.599089
 20
18.285522
 30
0.0
  0
SPLINE
  5
14e
100
AcDbEntity
  8
Layer_1
 62
1
100
AcDbSpline
 70
8
 71
3
 72
8
 73
4
 74
0
 40
0
 40
0
 40
0
 40
0
 40
1
 40
1
 40
1
 40
1
 10
496.599089
 20
18.285522
 30
0.0
 10
496.400728
 20
18.086965
 30
0.0
 10
496.289383
 20
17.817733
 30
0.0
 10
496.289554
 20
17.537070
 30
0.0
  0
LINE
  5
14f
100
AcDbEntity
  8
Layer_1
 62
1
100
AcDbLine
 10
496.289554
 20
17.537070
 30
0.0
 11
496.292554
 21
13.158050
 31
0.0
  0
SPLINE
  5
150
100
AcDbEntity
  8
Layer_1
 62
1
100
AcDbSpline
 70
8
 71
3
 72
8
 73
4
 74
0
 40
0
 40
0
 40
0
 40
0
 40
1
 40
1
 40
1
 40
1
 10
496.292554
 20
13.158050
 30
0.0
 10
496.292968
 20
12.484910
 30
0.0
 10
496.581358
 20
11.844109
 30
0.0
 10
497.084924
 20
11.397410
 30
0.0
  0
LINE
  5
151
100
AcDbEntity
  8
Layer_1
 62
1
100
AcDbLine
 10
497.084924
 20
11.397410
 30
0.0
 11
507.602794
 21
2.067380
 31
0.0
  0
SPLINE
  5
152
100
AcDbEntity
  8
Layer_1
 62
1
100
AcDbSpline
 70
8
 71
3
 72
8
 73
4
 74
0
 40
0
 40
0
 40
0
 40
0
 40
1
 40
1
 40
1
 40
1
 10
507.602794
 20
2.067380
 30
0.0
 10
508.106312
 20
1.620726
 30
0.0
 10
508.394434
 20
0.979816
 30
0.0
 10
508.394294
 20
0.306740
 30
0.0
  0
LINE
  5
153
100
AcDbEntity
  8
Layer_1
 62
1
100
AcDbLine
 10
508.394294
 20
0.306740
 30
0.0
 11
508.390294
 21
-16.550780
 31
0.0
  0
SPLINE
  5
154
100
AcDbEntity
  8
Layer_1
 62
1
100
AcDbSpline
 70
8
 71
3
 72
8
 73
4
 74
0
 40
0
 40
0
 40
0
 40
0
 40
1
 40
1
 40
1
 40
1
 10
508.390294
 20
-16.550780
 30
0.0
 10
508.390152
 20
-17.224539
 30
0.0
 10
508.104500
 20
-17.866681
 30
0.0
 10
507.604184
 20
-18.317940
 30
0.0
  0
LINE
  5
155
100
AcDbEntity
  8
Layer_1
 62
1
100
AcDbLine
 10
507.604184
 20
-18.317940
 30
0.0
 11
502.056354
 21
-23.321750
 31
0.0
  0
SPLINE
  5
156
100
AcDbEntity
  8
Layer_1
 62
1
100
AcDbSpline
 70
8
 71
3
 72
8
 73
4
 74
0
 40
0
 40
0
 40
0
 40
0
 40
1
 40
1
 40
1
 40
1
 10
502.056354
 20
-23.321750
 30
0.0
 10
501.555990
 20
-23.773052
 30
0.0
 10
501.270072
 20
-24.415088
 30
0.0
 10
501.269384
 20
-25.088910
 30
0.0
  0
LINE
  5
157
100
AcDbEntity
  8
Layer_1
 62
1
100
AcDbLine
 10
501.269384
 20
-25.088910
 30
0.0
 11
501.260384
 21
-33.723710
 31
0.0
  0
SPLINE
  5
158
100
AcDbEntity
  8
Layer_1
 62
1
100
AcDbSpline
 70
8
 71
3
 72
8
 73
4
 74
0
 40
0
 40
0
 40
0
 40
0
 40
1
 40
1
 40
1
 40
1
 10
501.260384
 20
-33.723710
 30
0.0
 10
501.259696
 20
-34.396264
 30
0.0
 10
501.549373
 20
-35.036377
 30
0.0
 10
502.055074
 20
-35.479770
 30
0.0
  0
LINE
  5
159
100
AcDbEntity
  8
Layer_1
 62
1
100
AcDbLine
 10
502.055074
 20
-35.479770
 30
0.0
 11
507.596594
 21
-40.338530
 31
0.0
  0
SPLINE
  5
15a
100
AcDbEntity
  8
Layer_1
 62
1
100
AcDbSpline
 70
8
 71
3
 72
8
 73
4
 74
0
 40
0
 40
0
 40
0
 40
0
 40
1
 40
1
 40
1
 40
1
 10
507.596594
 20
-40.338530
 30
0.0
 10
508.102347
 20
-40.781969
 30
0.0
 10
508.392314
 20
-41.421964
 30
0.0
 10
508.392224
 20
-42.094590
 30
0.0
  0
LINE
  5
15b
100
AcDbEntity
  8
Layer_1
 62
1
100
AcDbLine
 10
508.392224
 20
-42.094590
 30
0.0
 11
508.388224
 21
-69.490350
 31
0.0
  0
SPLINE
  5
15c
100
AcDbEntity
  8
Layer_1
 62
1
100
AcDbSpline
 70
8
 71
3
 72
8
 73
4
 74
0
 40
0
 40
0
 40
0
 40
0
 40
1
 40
1
 40
1
 40
1
 10
508.388224
 20
-69.490350
 30
0.0
 10
508.388133
 20
-70.163789
 30
0.0
 10
508.101243
 20
-70.805319
 30
0.0
 10
507.599364
 20
-71.254360
 30
0.0
  0
LINE
  5
15d
100
AcDbEntity
  8
Layer_1
 62
1
100
AcDbLine
 10
507.599364
 20
-71.254360
 30
0.0
 11
497.082664
 21
-80.663760
 31
0.0
  0
SPLINE
  5
15e
100
AcDbEntity
  8
Layer_1
 62
1
100
AcDbSpline
 70
8
 71
3
 72
8
 73
4
 74
0
 40
0
 40
0
 40
0
 40
0
 40
1
 40
1
 40
1
 40
1
 10
497.082664
 20
-80.663760
 30
0.0
 10
496.580763
 20
-81.112816
 30
0.0
 10
496.293768
 20
-81.754305
 30
0.0
 10
496.293464
 20
-82.427770
 30
0.0
  0
LINE
  5
15f
100
AcDbEntity
  8
Layer_1
 62
1
100
AcDbLine
 10
496.293464
 20
-82.427770
 30
0.0
 11
496.291464
 21
-86.966680
 31
0.0
  0
SPLINE
  5
160
100
AcDbEntity
  8
Layer_1
 62
1
100
AcDbSpline
 70
8
 71
3
 72
8
 73
4
 74
0
 40
0
 40
0
 40
0
 40
0
 40
1
 40
1
 40
1
 40
1
 10
496.291464
 20
-86.966680
 30
0.0
 10
496.291337
 20
-87.247360
 30
0.0
 10
496.402719
 20
-87.516593
 30
0.0
 10
496.601107
 20
-87.715147
 30
0.0
  0
SPLINE
  5
161
100
AcDbEntity
  8
Layer_1
 62
1
100
AcDbSpline
 70
8
 71
3
 72
8
 73
4
 74
0
 40
0
 40
0
 40
0
 40
0
 40
1
 40
1
 40
1
 40
1
 10
496.601107
 20
-87.715147
 30
0.0
 10
496.799494
 20
-87.913702
 30
0.0
 10
497.068634
 20
-88.025311
 30
0.0
 10
497.349314
 20
-88.025420
 30
0.0
  0
LINE
  5
162
100
AcDbEntity
  8
Layer_1
 62
1
100
AcDbLine
 10
497.349314
 20
-88.025420
 30
0.0
 11
505.657224
 21
-88.028420
 31
0.0
  0
SPLINE
  5
163
100
AcDbEntity
  8
Layer_1
 62
1
100
AcDbSpline
 70
8
 71
3
 72
8
 73
4
 74
0
 40
0
 40
0
 40
0
 40
0
 40
1
 40
1
 40
1
 40
1
 10
505.657224
 20
-88.028420
 30
0.0
 10
506.336373
 20
-88.028682
 30
0.0
 10
506.989356
 20
-87.766505
 30
0.0
 10
507.479754
 20
-87.296660
 30
0.0
  0
LINE
  5
164
100
AcDbEntity
  8
Layer_1
 62
1
100
AcDbLine
 10
507.479754
 20
-87.296660
 30
0.0
 11
508.900104
 21
-85.935820
 31
0.0
  0
SPLINE
  5
165
100
AcDbEntity
  8
Layer_1
 62
1
100
AcDbSpline
 70
8
 71
3
 72
8
 73
4
 74
0
 40
0
 40
0
 40
0
 40
0
 40
1
 40
1
 40
1
 40
1
 10
508.900104
 20
-85.935820
 30
0.0
 10
509.390559
 20
-85.465919
 30
0.0
 10
510.043403
 20
-85.203363
 30
0.0
 10
510.722634
 20
-85.202850
 30
0.0
  0
LINE
  5
166
100
AcDbEntity
  8
Layer_1
 62
1
100
AcDbLine
 10
510.722634
 20
-85.202850
 30
0.0
 11
516.523004
 21
-85.198850
 31
0.0
  0
SPLINE
  5
167
100
AcDbEntity
  8
Layer_1
 62
1
100
AcDbSpline
 70
8
 71
3
 72
8
 73
4
 74
0
 40
0
 40
0
 40
0
 40
0
 40
1
 40
1
 40
1
 40
1
 10
516.523004
 20
-85.198850
 30
0.0
 10
517.228557
 20
-85.198316
 30
0.0
 10
517.934110
 20
-85.198050
 30
0.0
 10
518.639664
 20
-85.198050
 30
0.0
  0
LINE
  5
168
100
AcDbEntity
  8
Layer_1
 62
1
100
AcDbLine
 10
518.639664
 20
-85.198050
 30
0.0
 11
526.012484
 21
-85.197760
 31
0.0
  0
SPLINE
  5
169
100
AcDbEntity
  8
Layer_1
 62
1
100
AcDbSpline
 70
8
 71
3
 72
8
 73
4
 74
0
 40
0
 40
0
 40
0
 40
0
 40
1
 40
1
 40
1
 40
1
 10
562.042600
 20
-28.497020
 30
0.0
 10
562.426839
 20
-28.497020
 30
0.0
 10
562.773244
 20
-28.728480
 30
0.0
 10
562.920286
 20
-29.083471
 30
0.0
  0
SPLINE
  5
16a
100
AcDbEntity
  8
Layer_1
 62
1
100
AcDbSpline
 70
8
 71
3
 72
8
 73
4
 74
0
 40
0
 40
0
 40
0
 40
0
 40
1
 40
1
 40
1
 40
1
 10
562.920286
 20
-29.083471
 30
0.0
 10
563.067327
 20
-29.438461
 30
0.0
 10
562.986050
 20
-29.847073
 30
0.0
 10
562.714351
 20
-30.118771
 30
0.0
  0
SPLINE
  5
16b
100
AcDbEntity
  8
Layer_1
 62
1
100
AcDbSpline
 70
8
 71
3
 72
8
 73
4
 74
0
 40
0
 40
0
 40
0
 40
0
 40
1
 40
1
 40
1
 40
1
 10
562.714351
 20
-30.118771
 30
0.0
 10
562.442653
 20
-30.390470
 30
0.0
 10
562.034041
 20
-30.471747
 30
0.0
 10
561.679051
 20
-30.324706
 30
0.0
  0
SPLINE
  5
16c
100
AcDbEntity
  8
Layer_1
 62
1
100
AcDbSpline
 70
8
 71
3
 72
8
 73
4
 74
0
 40
0
 40
0
 40
0
 40
0
 40
1
 40
1
 40
1
 40
1
 10
561.679051
 20
-30.324706
 30
0.0
 10
561.324060
 20
-30.177664
 30
0.0
 10
561.092600
 20
-29.831259
 30
0.0
 10
561.092600
 20
-29.447020
 30
0.0
  0
SPLINE
  5
16d
100
AcDbEntity
  8
Layer_1
 62
1
100
AcDbSpline
 70
8
 71
3
 72
8
 73
4
 74
0
 40
0
 40
0
 40
0
 40
0
 40
1
 40
1
 40
1
 40
1
 10
561.092600
 20
-29.447020
 30
0.0
 10
561.092600
 20
-29.195064
 30
0.0
 10
561.192689
 20
-28.953428
 30
0.0
 10
561.370849
 20
-28.775269
 30
0.0
  0
SPLINE
  5
16e
100
AcDbEntity
  8
Layer_1
 62
1
100
AcDbSpline
 70
8
 71
3
 72
8
 73
4
 74
0
 40
0
 40
0
 40
0
 40
0
 40
1
 40
1
 40
1
 40
1
 10
561.370849
 20
-28.775269
 30
0.0
 10
561.549008
 20
-28.597109
 30
0.0
 10
561.790644
 20
-28.497020
 30
0.0
 10
562.042600
 20
-28.497020
 30
0.0
  0
LINE
  5
16f
100
AcDbEntity
  8
Layer_1
 62
1
100
AcDbLine
 10
562.042600
 20
-28.497020
 30
0.0
 11
562.042600
 21
-28.497020
 31
0.0
  0
SPLINE
  5
170
100
AcDbEntity
  8
Layer_1
 62
1
100
AcDbSpline
 70
8
 71
3
 72
8
 73
4
 74
0
 40
0
 40
0
 40
0
 40
0
 40
1
 40
1
 40
1
 40
1
 10
504.197750
 20
-28.497020
 30
0.0
 10
503.813511
 20
-28.497020
 30
0.0
 10
503.467106
 20
-28.728480
 30
0.0
 10
503.320064
 20
-29.083471
 30
0.0
  0
SPLINE
  5
171
100
AcDbEntity
  8
Layer_1
 62
1
100
AcDbSpline
 70
8
 71
3
 72
8
 73
4
 74
0
 40
0
 40
0
 40
0
 40
0
 40
1
 40
1
 40
1
 40
1
 10
503.320064
 20
-29.083471
 30
0.0
 10
503.173023
 20
-29.438461
 30
0.0
 10
503.254300
 20
-29.847073
 30
0.0
 10
503.525999
 20
-30.118771
 30
0.0
  0
SPLINE
  5
172
100
AcDbEntity
  8
Layer_1
 62
1
100
AcDbSpline
 70
8
 71
3
 72
8
 73
4
 74
0
 40
0
 40
0
 40
0
 40
0
 40
1
 40
1
 40
1
 40
1
 10
503.525999
 20
-30.118771
 30
0.0
 10
503.797697
 20
-30.390470
 30
0.0
 10
504.206309
 20
-30.471747
 30
0.0
 10
504.561299
 20
-30.324706
 30
0.0
  0
SPLINE
  5
173
100
AcDbEntity
  8
Layer_1
 62
1
100
AcDbSpline
 70
8
 71
3
 72
8
 73
4
 74
0
 40
0
 40
0
 40
0
 40
0
 40
1
 40
1
 40
1
 40
1
 10
504.561299
 20
-30.324706
 30
0.0
 10
504.916290
 20
-30.177664
 30
0.0
 10
505.147750
 20
-29.831259
 30
0.0
 10
505.147750
 20
-29.447020
 30
0.0
  0
SPLINE
  5
174
100
AcDbEntity
  8
Layer_1
 62
1
100
AcDbSpline
 70
8
 71
3
 72
8
 73
4
 74
0
 40
0
 40
0
 40
0
 40
0
 40
1
 40
1
 40
1
 40
1
 10
505.147750
 20
-29.447020
 30
0.0
 10
505.147750
 20
-29.195064
 30
0.0
 10
505.047661
 20
-28.953428
 30
0.0
 10
504.869501
 20
-28.775269
 30
0.0
  0
SPLINE
  5
175
100
AcDbEntity
  8
Layer_1
 62
1
100
AcDbSpline
 70
8
 71
3
 72
8
 73
4
 74
0
 40
0
 40
0
 40
0
 40
0
 40
1
 40
1
 40
1
 40
1
 10
504.869501
 20
-28.775269
 30
0.0
 10
504.691342
 20
-28.597109
 30
0.0
 10
504.449706
 20
-28.497020
 30
0.0
 10
504.197750
 20
-28.497020
 30
0.0
  0
LINE
  5
176
100
AcDbEntity
  8
Layer_1
 62
1
100
AcDbLine
 10
504.197750
 20
-28.497020
 30
0.0
 11
504.197750
 21
-28.497020
 31
0.0
  0
LINE
  5
177
100
AcDbEntity
  8
Layer_1
 62
1
100
AcDbLine
 10
524.336203
 20
11.127930
 30
0.0
 11
541.904538
 21
11.127930
 31
0.0
  0
SPLINE
  5
178
100
AcDbEntity
  8
Layer_1
 62
1
100
AcDbSpline
 70
8
 71
3
 72
8
 73
4
 74
0
 40
0
 40
0
 40
0
 40
0
 40
1
 40
1
 40
1
 40
1
 10
541.904538
 20
11.127930
 30
0.0
 10
542.606256
 20
11.127930
 30
0.0
 10
543.279234
 20
10.849173
 30
0.0
 10
543.775424
 20
10.352983
 30
0.0
  0
SPLINE
  5
179
100
AcDbEntity
  8
Layer_1
 62
1
100
AcDbSpline
 70
8
 71
3
 72
8
 73
4
 74
0
 40
0
 40
0
 40
0
 40
0
 40
1
 40
1
 40
1
 40
1
 10
543.775424
 20
10.352983
 30
0.0
 10
544.271614
 20
9.856793
 30
0.0
 10
544.550371
 20
9.183815
 30
0.0
 10
544.550371
 20
8.482097
 30
0.0
  0
LINE
  5
17a
100
AcDbEntity
  8
Layer_1
 62
1
100
AcDbLine
 10
544.550371
 20
8.482097
 30
0.0
 11
544.550371
 21
-37.026236
 31
0.0
  0
SPLINE
  5
17b
100
AcDbEntity
  8
Layer_1
 62
1
100
AcDbSpline
 70
8
 71
3
 72
8
 73
4
 74
0
 40
0
 40
0
 40
0
 40
0
 40
1
 40
1
 40
1
 40
1
 10
544.550371
 20
-37.026236
 30
0.0
 10
544.550371
 20
-37.727954
 30
0.0
 10
544.271614
 20
-38.400932
 30
0.0
 10
543.775424
 20
-38.897122
 30
0.0
  0
SPLINE
  5
17c
100
AcDbEntity
  8
Layer_1
 62
1
100
AcDbSpline
 70
8
 71
3
 72
8
 73
4
 74
0
 40
0
 40
0
 40
0
 40
0
 40
1
 40
1
 40
1
 40
1
 10
543.775424
 20
-38.897122
 30
0.0
 10
543.279234
 20
-39.393312
 30
0.0
 10
542.606256
 20
-39.672069
 30
0.0
 10
541.904538
 20
-39.672069
 30
0.0
  0
LINE
  5
17d
100
AcDbEntity
  8
Layer_1
 62
1
100
AcDbLine
 10
541.904538
 20
-39.672069
 30
0.0
 11
524.336203
 21
-39.672069
 31
0.0
  0
SPLINE
  5
17e
100
AcDbEntity
  8
Layer_1
 62
1
100
AcDbSpline
 70
8
 71
3
 72
8
 73
4
 74
0
 40
0
 40
0
 40
0
 40
0
 40
1
 40
1
 40
1
 40
1
 10
524.336203
 20
-39.672069
 30
0.0
 10
523.634485
 20
-39.672069
 30
0.0
 10
522.961507
 20
-39.393312
 30
0.0
 10
522.465317
 20
-38.897122
 30
0.0
  0
SPLINE
  5
17f
100
AcDbEntity
  8
Layer_1
 62
1
100
AcDbSpline
 70
8
 71
3
 72
8
 73
4
 74
0
 40
0
 40
0
 40
0
 40
0
 40
1
 40
1
 40
1
 40
1
 10
522.465317
 20
-38.897122
 30
0.0
 10
521.969127
 20
-38.400932
 30
0.0
 10
521.690370
 20
-37.727954
 30
0.0
 10
521.690370
 20
-37.026236
 30
0.0
  0
LINE
  5
180
100
AcDbEntity
  8
Layer_1
 62
1
100
AcDbLine
 10
521.690370
 20
-37.026236
 30
0.0
 11
521.690370
 21
8.482097
 31
0.0
  0
SPLINE
  5
181
100
AcDbEntity
  8
Layer_1
 62
1
100
AcDbSpline
 70
8
 71
3
 72
8
 73
4
 74
0
 40
0
 40
0
 40
0
 40
0
 40
1
 40
1
 40
1
 40
1
 10
521.690370
 20
8.482097
 30
0.0
 10
521.690370
 20
9.183815
 30
0.0
 10
521.969127
 20
9.856793
 30
0.0
 10
522.465317
 20
10.352983
 30
0.0
  0
SPLINE
  5
182
100
AcDbEntity
  8
Layer_1
 62
1
100
AcDbSpline
 70
8
 71
3
 72
8
 73
4
 74
0
 40
0
 40
0
 40
0
 40
0
 40
1
 40
1
 40
1
 40
1
 10
522.465317
 20
10.352983
 30
0.0
 10
522.961507
 20
10.849173
 30
0.0
 10
523.634485
 20
11.127930
 30
0.0
 10
524.336203
 20
11.127930
 30
0.0
  0
LINE
  5
183
100
AcDbEntity
  8
Layer_1
 62
1
100
AcDbLine
 10
524.336203
 20
11.127930
 30
0.0
 11
524.336203
 21
11.127930
 31
0.0
  0
ENDSEC
  0
SECTION
  2
OBJECTS
  0
DICTIONARY
  5
C
330
0
100
AcDbDictionary
  3
ACAD_GROUP
350
D
  3
ACAD_MLINESTYLE
350
17
  0
DICTIONARY
  5
D
330
C
100
AcDbDictionary
  0
DICTIONARY
  5
1A
330
C
100
AcDbDictionary
  0
DICTIONARY
  5
17
330
C
100
AcDbDictionary
  3
STANDARD
350
18
  0
DICTIONARY
  5
19
330
C
100
AcDbDictionary
  0
ENDSEC
  0
EOF
