  0
SECTION
  2
HEADER
  9
$ACADVER
  1
AC1014
  9
$HANDSEED
  5
FFFF
  9
$INSUNITS
 70
     0
  9
$MEASUREMENT
 70
     1
  0
ENDSEC
  0
SECTION
  2
TABLES
  0
TABLE
  2
VPORT
  5
8
330
0
100
AcDbSymbolTable
 70
     4
  0
VPORT
  5
2E
330
8
100
AcDbSymbolTableRecord
100
AcDbViewportTableRecord
  2
*ACTIVE
 70
     0
 10
0.0
 20
0.0
 11
1.0
 21
1.0
 12
210.0
 22
148.5
 13
0.0
 23
0.0
 14
10.0
 24
10.0
 15
10.0
 25
10.0
 16
0.0
 26
0.0
 36
1.0
 17
0.0
 27
0.0
 37
0.0
 40
341.0
 41
1.24
 42
50.0
 43
0.0
 44
0.0
 50
0.0
 51
0.0
 71
     0
 72
   100
 73
     1
 74
     3
 75
     0
 76
     0
 77
     0
 78
     0
  0
ENDTAB
  0
TABLE
  2
LTYPE
  5
5
330
0
100
AcDbSymbolTable
 70
     1
  0
LTYPE
  5
14
330
5
100
AcDbSymbolTableRecord
100
AcDbLinetypeTableRecord
  2
BYBLOCK
 70
     0
  3

 72
    65
 73
     0
 40
0.0
  0
LTYPE
  5
15
330
5
100
AcDbSymbolTableRecord
100
AcDbLinetypeTableRecord
  2
BYLAYER
 70
     0
  3

 72
    65
 73
     0
 40
0.0
  0
LTYPE
  5
16
330
5
100
AcDbSymbolTableRecord
100
AcDbLinetypeTableRecord
  2
CONTINUOUS
 70
     0
  3
Solid line
 72
    65
 73
     0
 40
0.0
  0
ENDTAB
  0
TABLE
  2
LAYER
  5
2
100
AcDbSymbolTable
 70
2
  0
LAYER
  5
50
100
AcDbSymbolTableRecord
100
AcDbLayerTableRecord
  2
0
 70
0
  6
CONTINUOUS
  0
LAYER
  5
51
100
AcDbSymbolTableRecord
100
AcDbLayerTableRecord
  2
Layer_1
 70
0
  6
CONTINUOUS
  0
ENDTAB
  0
TABLE
  2
STYLE
  5
3
330
0
100
AcDbSymbolTable
 70
     1
  0
STYLE
  5
11
330
3
100
AcDbSymbolTableRecord
100
AcDbTextStyleTableRecord
  2
STANDARD
 70
     0
 40
0.0
 41
1.0
 50
0.0
 71
     0
 42
2.5
  3
txt
  4

  0
ENDTAB
  0
TABLE
  2
VIEW
  5
6
330
0
100
AcDbSymbolTable
 70
     0
  0
ENDTAB
  0
TABLE
  2
UCS
  5
7
330
0
100
AcDbSymbolTable
 70
     0
  0
ENDTAB
  0
TABLE
  2
APPID
  5
9
330
0
100
AcDbSymbolTable
 70
     2
  0
APPID
  5
12
330
9
100
AcDbSymbolTableRecord
100
AcDbRegAppTableRecord
  2
ACAD
 70
     0
  0
ENDTAB
  0
TABLE
  2
DIMSTYLE
  5
A
330
0
100
AcDbSymbolTable
 70
     1
  0
DIMSTYLE
105
27
330
A
100
AcDbSymbolTableRecord
100
AcDbDimStyleTableRecord
  2
ISO-25
 70
     0
  3

  4

  5

  6

  7

 40
1.0
 41
2.5
 42
0.625
 43
3.75
 44
1.25
 45
0.0
 46
0.0
 47
0.0
 48
0.0
140
2.5
141
2.5
142
0.0
143
0.03937007874016
144
1.0
145
0.0
146
1.0
147
0.625
 71
     0
 72
     0
 73
     0
 74
     0
 75
     0
 76
     0
 77
     1
 78
     8
170
     0
171
     3
172
     1
173
     0
174
     0
175
     0
176
     0
177
     0
178
     0
270
     2
271
     2
272
     2
273
     2
274
     3
340
11
275
     0
280
     0
281
     0
282
     0
283
     0
284
     8
285
     0
286
     0
287
     3
288
     0
  0
ENDTAB
  0
TABLE
  2
BLOCK_RECORD
  5
1
330
0
100
AcDbSymbolTable
 70
     1
  0
BLOCK_RECORD
  5
1F
330
1
100
AcDbSymbolTableRecord
100
AcDbBlockTableRecord
  2
*MODEL_SPACE
  0
BLOCK_RECORD
  5
1B
330
1
100
AcDbSymbolTableRecord
100
AcDbBlockTableRecord
  2
*PAPER_SPACE
  0
ENDTAB
  0
ENDSEC
  0
SECTION
  2
BLOCKS
  0
BLOCK
  5
20
330
1F
100
AcDbEntity
  8
0
100
AcDbBlockBegin
  2
*MODEL_SPACE
 70
     0
 10
0.0
 20
0.0
 30
0.0
  3
*MODEL_SPACE
  1

  0
ENDBLK
  5
21
330
1F
100
AcDbEntity
  8
0
100
AcDbBlockEnd
  0
BLOCK
  5
1C
330
1B
100
AcDbEntity
 67
     1
  8
0
100
AcDbBlockBegin
  2
*PAPER_SPACE
  1

  0
ENDBLK
  5
1D
330
1B
100
AcDbEntity
 67
     1
  8
0
100
AcDbBlockEnd
  0
ENDSEC
  0
SECTION
  2
ENTITIES
  0
LINE
  5
100
100
AcDbEntity
  8
Layer_1
 62
3
100
AcDbLine
 10
62.812460
 20
144.573270
 30
0.0
 11
61.345410
 21
144.573270
 31
0.0
  0
SPLINE
  5
101
100
AcDbEntity
  8
Layer_1
 62
3
100
AcDbSpline
 70
8
 71
3
 72
8
 73
4
 74
0
 40
0
 40
0
 40
0
 40
0
 40
1
 40
1
 40
1
 40
1
 10
61.345410
 20
144.573270
 30
0.0
 10
60.992630
 20
144.573270
 30
0.0
 10
60.639850
 20
144.573327
 30
0.0
 10
60.287070
 20
144.573440
 30
0.0
  0
LINE
  5
102
100
AcDbEntity
  8
Layer_1
 62
3
100
AcDbLine
 10
60.287070
 20
144.573440
 30
0.0
 11
24.878610
 21
144.584840
 31
0.0
  0
SPLINE
  5
103
100
AcDbEntity
  8
Layer_1
 62
3
100
AcDbSpline
 70
8
 71
3
 72
8
 73
4
 74
0
 40
0
 40
0
 40
0
 40
0
 40
1
 40
1
 40
1
 40
1
 10
24.878610
 20
144.584840
 30
0.0
 10
24.586360
 20
144.584930
 30
0.0
 10
24.112520
 20
144.584590
 30
0.0
 10
23.820270
 20
144.584080
 30
0.0
  0
SPLINE
  5
104
100
AcDbEntity
  8
Layer_1
 62
3
100
AcDbSpline
 70
8
 71
3
 72
8
 73
4
 74
0
 40
0
 40
0
 40
0
 40
0
 40
1
 40
1
 40
1
 40
1
 10
23.820270
 20
144.584080
 30
0.0
 10
12.809760
 20
144.564980
 30
0.0
 10
10.956950
 20
144.575080
 30
0.0
 10
-0.053580
 20
144.571480
 30
0.0
  0
SPLINE
  5
105
100
AcDbEntity
  8
Layer_1
 62
3
100
AcDbSpline
 70
8
 71
3
 72
8
 73
4
 74
0
 40
0
 40
0
 40
0
 40
0
 40
1
 40
1
 40
1
 40
1
 10
-0.053580
 20
144.571480
 30
0.0
 10
-0.345820
 20
144.571400
 30
0.0
 10
-0.819650
 20
144.571340
 30
0.0
 10
-1.111900
 20
144.571360
 30
0.0
  0
LINE
  5
106
100
AcDbEntity
  8
Layer_1
 62
3
100
AcDbLine
 10
-1.111900
 20
144.571360
 30
0.0
 11
-26.466230
 21
144.573360
 31
0.0
  0
SPLINE
  5
107
100
AcDbEntity
  8
Layer_1
 62
3
100
AcDbSpline
 70
8
 71
3
 72
8
 73
4
 74
0
 40
0
 40
0
 40
0
 40
0
 40
1
 40
1
 40
1
 40
1
 10
-26.466230
 20
144.573360
 30
0.0
 10
-26.819010
 20
144.573387
 30
0.0
 10
-27.171790
 20
144.573400
 30
0.0
 10
-27.524570
 20
144.573400
 30
0.0
  0
LINE
  5
108
100
AcDbEntity
  8
Layer_1
 62
3
100
AcDbLine
 10
-27.524570
 20
144.573400
 30
0.0
 11
-31.382240
 21
144.573400
 31
0.0
  0
SPLINE
  5
109
100
AcDbEntity
  8
Layer_1
 62
3
100
AcDbSpline
 70
8
 71
3
 72
8
 73
4
 74
0
 40
0
 40
0
 40
0
 40
0
 40
1
 40
1
 40
1
 40
1
 10
-31.382240
 20
144.573400
 30
0.0
 10
-31.735020
 20
144.573399
 30
0.0
 10
-32.087800
 20
144.573469
 30
0.0
 10
-32.440580
 20
144.573610
 30
0.0
  0
LINE
  5
10a
100
AcDbEntity
  8
Layer_1
 62
3
100
AcDbLine
 10
-32.440580
 20
144.573610
 30
0.0
 11
-35.850580
 21
144.574610
 31
0.0
  0
SPLINE
  5
10b
100
AcDbEntity
  8
Layer_1
 62
3
100
AcDbSpline
 70
8
 71
3
 72
8
 73
4
 74
0
 40
0
 40
0
 40
0
 40
0
 40
1
 40
1
 40
1
 40
1
 10
-35.850580
 20
144.574610
 30
0.0
 10
-36.435151
 20
144.574848
 30
0.0
 10
-36.908922
 20
145.048789
 30
0.0
 10
-36.908950
 20
145.633360
 30
0.0
  0
LINE
  5
10c
100
AcDbEntity
  8
Layer_1
 62
3
100
AcDbLine
 10
-36.908950
 20
145.633360
 30
0.0
 11
-36.909390
 21
155.929580
 31
0.0
  0
SPLINE
  5
10d
100
AcDbEntity
  8
Layer_1
 62
3
100
AcDbSpline
 70
8
 71
3
 72
8
 73
4
 74
0
 40
0
 40
0
 40
0
 40
0
 40
1
 40
1
 40
1
 40
1
 10
-36.909390
 20
155.929580
 30
0.0
 10
-36.909405
 20
156.265670
 30
0.0
 10
-36.763510
 20
156.585213
 30
0.0
 10
-36.509540
 20
156.805340
 30
0.0
  0
LINE
  5
10e
100
AcDbEntity
  8
Layer_1
 62
3
100
AcDbLine
 10
-36.509540
 20
156.805340
 30
0.0
 11
-34.049230
 21
158.937810
 31
0.0
  0
SPLINE
  5
10f
100
AcDbEntity
  8
Layer_1
 62
3
100
AcDbSpline
 70
8
 71
3
 72
8
 73
4
 74
0
 40
0
 40
0
 40
0
 40
0
 40
1
 40
1
 40
1
 40
1
 10
-34.049230
 20
158.937810
 30
0.0
 10
-33.791332
 20
159.161347
 30
0.0
 10
-33.461481
 20
159.284398
 30
0.0
 10
-33.120190
 20
159.284390
 30
0.0
  0
LINE
  5
110
100
AcDbEntity
  8
Layer_1
 62
3
100
AcDbLine
 10
-33.120190
 20
159.284390
 30
0.0
 11
79.472330
 21
159.281390
 31
0.0
  0
SPLINE
  5
111
100
AcDbEntity
  8
Layer_1
 62
3
100
AcDbSpline
 70
8
 71
3
 72
8
 73
4
 74
0
 40
0
 40
0
 40
0
 40
0
 40
1
 40
1
 40
1
 40
1
 10
79.472330
 20
159.281390
 30
0.0
 10
79.813087
 20
159.281384
 30
0.0
 10
80.141871
 20
159.155701
 30
0.0
 10
80.395740
 20
158.928400
 30
0.0
  0
LINE
  5
112
100
AcDbEntity
  8
Layer_1
 62
3
100
AcDbLine
 10
80.395740
 20
158.928400
 30
0.0
 11
82.767680
 21
156.804660
 31
0.0
  0
SPLINE
  5
113
100
AcDbEntity
  8
Layer_1
 62
3
100
AcDbSpline
 70
8
 71
3
 72
8
 73
4
 74
0
 40
0
 40
0
 40
0
 40
0
 40
1
 40
1
 40
1
 40
1
 10
82.767680
 20
156.804660
 30
0.0
 10
83.018550
 20
156.580045
 30
0.0
 10
83.161920
 20
156.259241
 30
0.0
 10
83.161920
 20
155.922510
 30
0.0
  0
LINE
  5
114
100
AcDbEntity
  8
Layer_1
 62
3
100
AcDbLine
 10
83.161920
 20
155.922510
 30
0.0
 11
83.161920
 21
145.101940
 31
0.0
  0
SPLINE
  5
115
100
AcDbEntity
  8
Layer_1
 62
3
100
AcDbSpline
 70
8
 71
3
 72
8
 73
4
 74
0
 40
0
 40
0
 40
0
 40
0
 40
1
 40
1
 40
1
 40
1
 10
83.161920
 20
145.101940
 30
0.0
 10
83.161920
 20
144.961596
 30
0.0
 10
83.106168
 20
144.827001
 30
0.0
 10
83.006929
 20
144.727764
 30
0.0
  0
SPLINE
  5
116
100
AcDbEntity
  8
Layer_1
 62
3
100
AcDbSpline
 70
8
 71
3
 72
8
 73
4
 74
0
 40
0
 40
0
 40
0
 40
0
 40
1
 40
1
 40
1
 40
1
 10
83.006929
 20
144.727764
 30
0.0
 10
82.907690
 20
144.628527
 30
0.0
 10
82.773094
 20
144.572777
 30
0.0
 10
82.632750
 20
144.572780
 30
0.0
  0
LINE
  5
117
100
AcDbEntity
  8
Layer_1
 62
3
100
AcDbLine
 10
82.632750
 20
144.572780
 30
0.0
 11
63.870800
 21
144.573000
 31
0.0
  0
SPLINE
  5
118
100
AcDbEntity
  8
Layer_1
 62
3
100
AcDbSpline
 70
8
 71
3
 72
8
 73
4
 74
0
 40
0
 40
0
 40
0
 40
0
 40
1
 40
1
 40
1
 40
1
 10
63.870800
 20
144.573000
 30
0.0
 10
63.518020
 20
144.573005
 30
0.0
 10
63.165240
 20
144.573009
 30
0.0
 10
62.812460
 20
144.573010
 30
0.0
  0
LINE
  5
119
100
AcDbEntity
  8
Layer_1
 62
3
100
AcDbLine
 10
62.812460
 20
144.573010
 30
0.0
 11
62.812460
 21
144.573270
 31
0.0
  0
LINE
  5
11a
100
AcDbEntity
  8
Layer_1
 62
3
100
AcDbLine
 10
193.219370
 20
144.573260
 30
0.0
 11
191.752320
 21
144.573260
 31
0.0
  0
SPLINE
  5
11b
100
AcDbEntity
  8
Layer_1
 62
3
100
AcDbSpline
 70
8
 71
3
 72
8
 73
4
 74
0
 40
0
 40
0
 40
0
 40
0
 40
1
 40
1
 40
1
 40
1
 10
191.752320
 20
144.573260
 30
0.0
 10
191.399540
 20
144.573260
 30
0.0
 10
191.046760
 20
144.573317
 30
0.0
 10
190.693980
 20
144.573430
 30
0.0
  0
LINE
  5
11c
100
AcDbEntity
  8
Layer_1
 62
3
100
AcDbLine
 10
190.693980
 20
144.573430
 30
0.0
 11
155.285520
 21
144.584830
 31
0.0
  0
SPLINE
  5
11d
100
AcDbEntity
  8
Layer_1
 62
3
100
AcDbSpline
 70
8
 71
3
 72
8
 73
4
 74
0
 40
0
 40
0
 40
0
 40
0
 40
1
 40
1
 40
1
 40
1
 10
155.285520
 20
144.584830
 30
0.0
 10
154.993270
 20
144.584920
 30
0.0
 10
154.519430
 20
144.584580
 30
0.0
 10
154.227180
 20
144.584070
 30
0.0
  0
SPLINE
  5
11e
100
AcDbEntity
  8
Layer_1
 62
3
100
AcDbSpline
 70
8
 71
3
 72
8
 73
4
 74
0
 40
0
 40
0
 40
0
 40
0
 40
1
 40
1
 40
1
 40
1
 10
154.227180
 20
144.584070
 30
0.0
 10
143.216670
 20
144.564970
 30
0.0
 10
141.363860
 20
144.575070
 30
0.0
 10
130.353330
 20
144.571470
 30
0.0
  0
SPLINE
  5
11f
100
AcDbEntity
  8
Layer_1
 62
3
100
AcDbSpline
 70
8
 71
3
 72
8
 73
4
 74
0
 40
0
 40
0
 40
0
 40
0
 40
1
 40
1
 40
1
 40
1
 10
130.353330
 20
144.571470
 30
0.0
 10
130.061090
 20
144.571390
 30
0.0
 10
129.587260
 20
144.571330
 30
0.0
 10
129.295010
 20
144.571350
 30
0.0
  0
LINE
  5
120
100
AcDbEntity
  8
Layer_1
 62
3
100
AcDbLine
 10
129.295010
 20
144.571350
 30
0.0
 11
103.940680
 21
144.573350
 31
0.0
  0
SPLINE
  5
121
100
AcDbEntity
  8
Layer_1
 62
3
100
AcDbSpline
 70
8
 71
3
 72
8
 73
4
 74
0
 40
0
 40
0
 40
0
 40
0
 40
1
 40
1
 40
1
 40
1
 10
103.940680
 20
144.573350
 30
0.0
 10
103.587900
 20
144.573377
 30
0.0
 10
103.235120
 20
144.573390
 30
0.0
 10
102.882340
 20
144.573390
 30
0.0
  0
LINE
  5
122
100
AcDbEntity
  8
Layer_1
 62
3
100
AcDbLine
 10
102.882340
 20
144.573390
 30
0.0
 11
99.024670
 21
144.573390
 31
0.0
  0
SPLINE
  5
123
100
AcDbEntity
  8
Layer_1
 62
3
100
AcDbSpline
 70
8
 71
3
 72
8
 73
4
 74
0
 40
0
 40
0
 40
0
 40
0
 40
1
 40
1
 40
1
 40
1
 10
99.024670
 20
144.573390
 30
0.0
 10
98.671890
 20
144.573389
 30
0.0
 10
98.319110
 20
144.573459
 30
0.0
 10
97.966330
 20
144.573600
 30
0.0
  0
LINE
  5
124
100
AcDbEntity
  8
Layer_1
 62
3
100
AcDbLine
 10
97.966330
 20
144.573600
 30
0.0
 11
94.556330
 21
144.574600
 31
0.0
  0
SPLINE
  5
125
100
AcDbEntity
  8
Layer_1
 62
3
100
AcDbSpline
 70
8
 71
3
 72
8
 73
4
 74
0
 40
0
 40
0
 40
0
 40
0
 40
1
 40
1
 40
1
 40
1
 10
94.556330
 20
144.574600
 30
0.0
 10
93.971759
 20
144.574838
 30
0.0
 10
93.497988
 20
145.048779
 30
0.0
 10
93.497960
 20
145.633350
 30
0.0
  0
LINE
  5
126
100
AcDbEntity
  8
Layer_1
 62
3
100
AcDbLine
 10
93.497960
 20
145.633350
 30
0.0
 11
93.497520
 21
155.929570
 31
0.0
  0
SPLINE
  5
127
100
AcDbEntity
  8
Layer_1
 62
3
100
AcDbSpline
 70
8
 71
3
 72
8
 73
4
 74
0
 40
0
 40
0
 40
0
 40
0
 40
1
 40
1
 40
1
 40
1
 10
93.497520
 20
155.929570
 30
0.0
 10
93.497505
 20
156.265660
 30
0.0
 10
93.643400
 20
156.585203
 30
0.0
 10
93.897370
 20
156.805330
 30
0.0
  0
LINE
  5
128
100
AcDbEntity
  8
Layer_1
 62
3
100
AcDbLine
 10
93.897370
 20
156.805330
 30
0.0
 11
96.357680
 21
158.937800
 31
0.0
  0
SPLINE
  5
129
100
AcDbEntity
  8
Layer_1
 62
3
100
AcDbSpline
 70
8
 71
3
 72
8
 73
4
 74
0
 40
0
 40
0
 40
0
 40
0
 40
1
 40
1
 40
1
 40
1
 10
96.357680
 20
158.937800
 30
0.0
 10
96.615578
 20
159.161337
 30
0.0
 10
96.945429
 20
159.284388
 30
0.0
 10
97.286720
 20
159.284380
 30
0.0
  0
LINE
  5
12a
100
AcDbEntity
  8
Layer_1
 62
3
100
AcDbLine
 10
97.286720
 20
159.284380
 30
0.0
 11
209.879240
 21
159.281380
 31
0.0
  0
SPLINE
  5
12b
100
AcDbEntity
  8
Layer_1
 62
3
100
AcDbSpline
 70
8
 71
3
 72
8
 73
4
 74
0
 40
0
 40
0
 40
0
 40
0
 40
1
 40
1
 40
1
 40
1
 10
209.879240
 20
159.281380
 30
0.0
 10
210.219997
 20
159.281374
 30
0.0
 10
210.548781
 20
159.155691
 30
0.0
 10
210.802650
 20
158.928390
 30
0.0
  0
LINE
  5
12c
100
AcDbEntity
  8
Layer_1
 62
3
100
AcDbLine
 10
210.802650
 20
158.928390
 30
0.0
 11
213.174590
 21
156.804650
 31
0.0
  0
SPLINE
  5
12d
100
AcDbEntity
  8
Layer_1
 62
3
100
AcDbSpline
 70
8
 71
3
 72
8
 73
4
 74
0
 40
0
 40
0
 40
0
 40
0
 40
1
 40
1
 40
1
 40
1
 10
213.174590
 20
156.804650
 30
0.0
 10
213.425460
 20
156.580035
 30
0.0
 10
213.568830
 20
156.259231
 30
0.0
 10
213.568830
 20
155.922500
 30
0.0
  0
LINE
  5
12e
100
AcDbEntity
  8
Layer_1
 62
3
100
AcDbLine
 10
213.568830
 20
155.922500
 30
0.0
 11
213.568830
 21
145.101930
 31
0.0
  0
SPLINE
  5
12f
100
AcDbEntity
  8
Layer_1
 62
3
100
AcDbSpline
 70
8
 71
3
 72
8
 73
4
 74
0
 40
0
 40
0
 40
0
 40
0
 40
1
 40
1
 40
1
 40
1
 10
213.568830
 20
145.101930
 30
0.0
 10
213.568830
 20
144.961586
 30
0.0
 10
213.513078
 20
144.826991
 30
0.0
 10
213.413839
 20
144.727754
 30
0.0
  0
SPLINE
  5
130
100
AcDbEntity
  8
Layer_1
 62
3
100
AcDbSpline
 70
8
 71
3
 72
8
 73
4
 74
0
 40
0
 40
0
 40
0
 40
0
 40
1
 40
1
 40
1
 40
1
 10
213.413839
 20
144.727754
 30
0.0
 10
213.314600
 20
144.628517
 30
0.0
 10
213.180004
 20
144.572767
 30
0.0
 10
213.039660
 20
144.572770
 30
0.0
  0
LINE
  5
131
100
AcDbEntity
  8
Layer_1
 62
3
100
AcDbLine
 10
213.039660
 20
144.572770
 30
0.0
 11
194.277710
 21
144.572990
 31
0.0
  0
SPLINE
  5
132
100
AcDbEntity
  8
Layer_1
 62
3
100
AcDbSpline
 70
8
 71
3
 72
8
 73
4
 74
0
 40
0
 40
0
 40
0
 40
0
 40
1
 40
1
 40
1
 40
1
 10
194.277710
 20
144.572990
 30
0.0
 10
193.924930
 20
144.572995
 30
0.0
 10
193.572150
 20
144.572999
 30
0.0
 10
193.219370
 20
144.573000
 30
0.0
  0
LINE
  5
133
100
AcDbEntity
  8
Layer_1
 62
3
100
AcDbLine
 10
193.219370
 20
144.573000
 30
0.0
 11
193.219370
 21
144.573260
 31
0.0
  0
SPLINE
  5
134
100
AcDbEntity
  8
Layer_1
 62
3
100
AcDbSpline
 70
8
 71
3
 72
8
 73
4
 74
0
 40
0
 40
0
 40
0
 40
0
 40
1
 40
1
 40
1
 40
1
 10
71.304565
 20
151.221150
 30
0.0
 10
70.920326
 20
151.221150
 30
0.0
 10
70.573921
 20
150.989690
 30
0.0
 10
70.426879
 20
150.634699
 30
0.0
  0
SPLINE
  5
135
100
AcDbEntity
  8
Layer_1
 62
3
100
AcDbSpline
 70
8
 71
3
 72
8
 73
4
 74
0
 40
0
 40
0
 40
0
 40
0
 40
1
 40
1
 40
1
 40
1
 10
70.426879
 20
150.634699
 30
0.0
 10
70.279838
 20
150.279709
 30
0.0
 10
70.361115
 20
149.871097
 30
0.0
 10
70.632814
 20
149.599399
 30
0.0
  0
SPLINE
  5
136
100
AcDbEntity
  8
Layer_1
 62
3
100
AcDbSpline
 70
8
 71
3
 72
8
 73
4
 74
0
 40
0
 40
0
 40
0
 40
0
 40
1
 40
1
 40
1
 40
1
 10
70.632814
 20
149.599399
 30
0.0
 10
70.904512
 20
149.327700
 30
0.0
 10
71.313124
 20
149.246423
 30
0.0
 10
71.668114
 20
149.393464
 30
0.0
  0
SPLINE
  5
137
100
AcDbEntity
  8
Layer_1
 62
3
100
AcDbSpline
 70
8
 71
3
 72
8
 73
4
 74
0
 40
0
 40
0
 40
0
 40
0
 40
1
 40
1
 40
1
 40
1
 10
71.668114
 20
149.393464
 30
0.0
 10
72.023105
 20
149.540506
 30
0.0
 10
72.254565
 20
149.886911
 30
0.0
 10
72.254565
 20
150.271150
 30
0.0
  0
SPLINE
  5
138
100
AcDbEntity
  8
Layer_1
 62
3
100
AcDbSpline
 70
8
 71
3
 72
8
 73
4
 74
0
 40
0
 40
0
 40
0
 40
0
 40
1
 40
1
 40
1
 40
1
 10
72.254565
 20
150.271150
 30
0.0
 10
72.254565
 20
150.523106
 30
0.0
 10
72.154476
 20
150.764742
 30
0.0
 10
71.976316
 20
150.942901
 30
0.0
  0
SPLINE
  5
139
100
AcDbEntity
  8
Layer_1
 62
3
100
AcDbSpline
 70
8
 71
3
 72
8
 73
4
 74
0
 40
0
 40
0
 40
0
 40
0
 40
1
 40
1
 40
1
 40
1
 10
71.976316
 20
150.942901
 30
0.0
 10
71.798157
 20
151.121061
 30
0.0
 10
71.556521
 20
151.221150
 30
0.0
 10
71.304565
 20
151.221150
 30
0.0
  0
LINE
  5
13a
100
AcDbEntity
  8
Layer_1
 62
3
100
AcDbLine
 10
71.304565
 20
151.221150
 30
0.0
 11
71.304565
 21
151.221150
 31
0.0
  0
SPLINE
  5
13b
100
AcDbEntity
  8
Layer_1
 62
3
100
AcDbSpline
 70
8
 71
3
 72
8
 73
4
 74
0
 40
0
 40
0
 40
0
 40
0
 40
1
 40
1
 40
1
 40
1
 10
-25.968569
 20
151.221150
 30
0.0
 10
-26.352808
 20
151.221150
 30
0.0
 10
-26.699213
 20
150.989690
 30
0.0
 10
-26.846255
 20
150.634699
 30
0.0
  0
SPLINE
  5
13c
100
AcDbEntity
  8
Layer_1
 62
3
100
AcDbSpline
 70
8
 71
3
 72
8
 73
4
 74
0
 40
0
 40
0
 40
0
 40
0
 40
1
 40
1
 40
1
 40
1
 10
-26.846255
 20
150.634699
 30
0.0
 10
-26.993296
 20
150.279709
 30
0.0
 10
-26.912019
 20
149.871097
 30
0.0
 10
-26.640320
 20
149.599399
 30
0.0
  0
SPLINE
  5
13d
100
AcDbEntity
  8
Layer_1
 62
3
100
AcDbSpline
 70
8
 71
3
 72
8
 73
4
 74
0
 40
0
 40
0
 40
0
 40
0
 40
1
 40
1
 40
1
 40
1
 10
-26.640320
 20
149.599399
 30
0.0
 10
-26.368622
 20
149.327700
 30
0.0
 10
-25.960010
 20
149.246423
 30
0.0
 10
-25.605020
 20
149.393464
 30
0.0
  0
SPLINE
  5
13e
100
AcDbEntity
  8
Layer_1
 62
3
100
AcDbSpline
 70
8
 71
3
 72
8
 73
4
 74
0
 40
0
 40
0
 40
0
 40
0
 40
1
 40
1
 40
1
 40
1
 10
-25.605020
 20
149.393464
 30
0.0
 10
-25.250029
 20
149.540506
 30
0.0
 10
-25.018569
 20
149.886911
 30
0.0
 10
-25.018569
 20
150.271150
 30
0.0
  0
SPLINE
  5
13f
100
AcDbEntity
  8
Layer_1
 62
3
100
AcDbSpline
 70
8
 71
3
 72
8
 73
4
 74
0
 40
0
 40
0
 40
0
 40
0
 40
1
 40
1
 40
1
 40
1
 10
-25.018569
 20
150.271150
 30
0.0
 10
-25.018569
 20
150.795821
 30
0.0
 10
-25.443898
 20
151.221150
 30
0.0
 10
-25.968569
 20
151.221150
 30
0.0
  0
LINE
  5
140
100
AcDbEntity
  8
Layer_1
 62
3
100
AcDbLine
 10
-25.968569
 20
151.221150
 30
0.0
 11
-25.968569
 21
151.221150
 31
0.0
  0
SPLINE
  5
141
100
AcDbEntity
  8
Layer_1
 62
3
100
AcDbSpline
 70
8
 71
3
 72
8
 73
4
 74
0
 40
0
 40
0
 40
0
 40
0
 40
1
 40
1
 40
1
 40
1
 10
201.711500
 20
151.221150
 30
0.0
 10
201.186829
 20
151.221150
 30
0.0
 10
200.761500
 20
150.795821
 30
0.0
 10
200.761500
 20
150.271150
 30
0.0
  0
SPLINE
  5
142
100
AcDbEntity
  8
Layer_1
 62
3
100
AcDbSpline
 70
8
 71
3
 72
8
 73
4
 74
0
 40
0
 40
0
 40
0
 40
0
 40
1
 40
1
 40
1
 40
1
 10
200.761500
 20
150.271150
 30
0.0
 10
200.761500
 20
149.746479
 30
0.0
 10
201.186829
 20
149.321150
 30
0.0
 10
201.711500
 20
149.321150
 30
0.0
  0
SPLINE
  5
143
100
AcDbEntity
  8
Layer_1
 62
3
100
AcDbSpline
 70
8
 71
3
 72
8
 73
4
 74
0
 40
0
 40
0
 40
0
 40
0
 40
1
 40
1
 40
1
 40
1
 10
201.711500
 20
149.321150
 30
0.0
 10
202.236171
 20
149.321150
 30
0.0
 10
202.661500
 20
149.746479
 30
0.0
 10
202.661500
 20
150.271150
 30
0.0
  0
SPLINE
  5
144
100
AcDbEntity
  8
Layer_1
 62
3
100
AcDbSpline
 70
8
 71
3
 72
8
 73
4
 74
0
 40
0
 40
0
 40
0
 40
0
 40
1
 40
1
 40
1
 40
1
 10
202.661500
 20
150.271150
 30
0.0
 10
202.661500
 20
150.523106
 30
0.0
 10
202.561411
 20
150.764742
 30
0.0
 10
202.383251
 20
150.942901
 30
0.0
  0
SPLINE
  5
145
100
AcDbEntity
  8
Layer_1
 62
3
100
AcDbSpline
 70
8
 71
3
 72
8
 73
4
 74
0
 40
0
 40
0
 40
0
 40
0
 40
1
 40
1
 40
1
 40
1
 10
202.383251
 20
150.942901
 30
0.0
 10
202.205092
 20
151.121061
 30
0.0
 10
201.963456
 20
151.221150
 30
0.0
 10
201.711500
 20
151.221150
 30
0.0
  0
LINE
  5
146
100
AcDbEntity
  8
Layer_1
 62
3
100
AcDbLine
 10
201.711500
 20
151.221150
 30
0.0
 11
201.711500
 21
151.221150
 31
0.0
  0
SPLINE
  5
147
100
AcDbEntity
  8
Layer_1
 62
3
100
AcDbSpline
 70
8
 71
3
 72
8
 73
4
 74
0
 40
0
 40
0
 40
0
 40
0
 40
1
 40
1
 40
1
 40
1
 10
104.438360
 20
151.221150
 30
0.0
 10
104.054121
 20
151.221150
 30
0.0
 10
103.707716
 20
150.989690
 30
0.0
 10
103.560674
 20
150.634699
 30
0.0
  0
SPLINE
  5
148
100
AcDbEntity
  8
Layer_1
 62
3
100
AcDbSpline
 70
8
 71
3
 72
8
 73
4
 74
0
 40
0
 40
0
 40
0
 40
0
 40
1
 40
1
 40
1
 40
1
 10
103.560674
 20
150.634699
 30
0.0
 10
103.413633
 20
150.279709
 30
0.0
 10
103.494910
 20
149.871097
 30
0.0
 10
103.766609
 20
149.599399
 30
0.0
  0
SPLINE
  5
149
100
AcDbEntity
  8
Layer_1
 62
3
100
AcDbSpline
 70
8
 71
3
 72
8
 73
4
 74
0
 40
0
 40
0
 40
0
 40
0
 40
1
 40
1
 40
1
 40
1
 10
103.766609
 20
149.599399
 30
0.0
 10
104.038307
 20
149.327700
 30
0.0
 10
104.446919
 20
149.246423
 30
0.0
 10
104.801909
 20
149.393464
 30
0.0
  0
SPLINE
  5
14a
100
AcDbEntity
  8
Layer_1
 62
3
100
AcDbSpline
 70
8
 71
3
 72
8
 73
4
 74
0
 40
0
 40
0
 40
0
 40
0
 40
1
 40
1
 40
1
 40
1
 10
104.801909
 20
149.393464
 30
0.0
 10
105.156900
 20
149.540506
 30
0.0
 10
105.388360
 20
149.886911
 30
0.0
 10
105.388360
 20
150.271150
 30
0.0
  0
SPLINE
  5
14b
100
AcDbEntity
  8
Layer_1
 62
3
100
AcDbSpline
 70
8
 71
3
 72
8
 73
4
 74
0
 40
0
 40
0
 40
0
 40
0
 40
1
 40
1
 40
1
 40
1
 10
105.388360
 20
150.271150
 30
0.0
 10
105.388360
 20
150.795821
 30
0.0
 10
104.963031
 20
151.221150
 30
0.0
 10
104.438360
 20
151.221150
 30
0.0
  0
LINE
  5
14c
100
AcDbEntity
  8
Layer_1
 62
3
100
AcDbLine
 10
104.438360
 20
151.221150
 30
0.0
 11
104.438360
 21
151.221150
 31
0.0
  0
LINE
  5
14d
100
AcDbEntity
  8
Layer_1
 62
3
100
AcDbLine
 10
62.506840
 20
122.787890
 30
0.0
 11
61.039790
 21
122.787890
 31
0.0
  0
SPLINE
  5
14e
100
AcDbEntity
  8
Layer_1
 62
3
100
AcDbSpline
 70
8
 71
3
 72
8
 73
4
 74
0
 40
0
 40
0
 40
0
 40
0
 40
1
 40
1
 40
1
 40
1
 10
61.039790
 20
122.787890
 30
0.0
 10
60.687010
 20
122.787890
 30
0.0
 10
60.334230
 20
122.787947
 30
0.0
 10
59.981450
 20
122.788060
 30
0.0
  0
LINE
  5
14f
100
AcDbEntity
  8
Layer_1
 62
3
100
AcDbLine
 10
59.981450
 20
122.788060
 30
0.0
 11
24.572990
 21
122.799460
 31
0.0
  0
SPLINE
  5
150
100
AcDbEntity
  8
Layer_1
 62
3
100
AcDbSpline
 70
8
 71
3
 72
8
 73
4
 74
0
 40
0
 40
0
 40
0
 40
0
 40
1
 40
1
 40
1
 40
1
 10
24.572990
 20
122.799460
 30
0.0
 10
24.280740
 20
122.799550
 30
0.0
 10
23.806900
 20
122.799210
 30
0.0
 10
23.514650
 20
122.798700
 30
0.0
  0
SPLINE
  5
151
100
AcDbEntity
  8
Layer_1
 62
3
100
AcDbSpline
 70
8
 71
3
 72
8
 73
4
 74
0
 40
0
 40
0
 40
0
 40
0
 40
1
 40
1
 40
1
 40
1
 10
23.514650
 20
122.798700
 30
0.0
 10
12.504140
 20
122.779600
 30
0.0
 10
10.651330
 20
122.789700
 30
0.0
 10
-0.359200
 20
122.786100
 30
0.0
  0
SPLINE
  5
152
100
AcDbEntity
  8
Layer_1
 62
3
100
AcDbSpline
 70
8
 71
3
 72
8
 73
4
 74
0
 40
0
 40
0
 40
0
 40
0
 40
1
 40
1
 40
1
 40
1
 10
-0.359200
 20
122.786100
 30
0.0
 10
-0.651440
 20
122.786020
 30
0.0
 10
-1.125270
 20
122.785960
 30
0.0
 10
-1.417520
 20
122.785980
 30
0.0
  0
LINE
  5
153
100
AcDbEntity
  8
Layer_1
 62
3
100
AcDbLine
 10
-1.417520
 20
122.785980
 30
0.0
 11
-26.771850
 21
122.787980
 31
0.0
  0
SPLINE
  5
154
100
AcDbEntity
  8
Layer_1
 62
3
100
AcDbSpline
 70
8
 71
3
 72
8
 73
4
 74
0
 40
0
 40
0
 40
0
 40
0
 40
1
 40
1
 40
1
 40
1
 10
-26.771850
 20
122.787980
 30
0.0
 10
-27.124630
 20
122.788007
 30
0.0
 10
-27.477410
 20
122.788020
 30
0.0
 10
-27.830190
 20
122.788020
 30
0.0
  0
LINE
  5
155
100
AcDbEntity
  8
Layer_1
 62
3
100
AcDbLine
 10
-27.830190
 20
122.788020
 30
0.0
 11
-31.687860
 21
122.788020
 31
0.0
  0
SPLINE
  5
156
100
AcDbEntity
  8
Layer_1
 62
3
100
AcDbSpline
 70
8
 71
3
 72
8
 73
4
 74
0
 40
0
 40
0
 40
0
 40
0
 40
1
 40
1
 40
1
 40
1
 10
-31.687860
 20
122.788020
 30
0.0
 10
-32.040640
 20
122.788019
 30
0.0
 10
-32.393420
 20
122.788089
 30
0.0
 10
-32.746200
 20
122.788230
 30
0.0
  0
LINE
  5
157
100
AcDbEntity
  8
Layer_1
 62
3
100
AcDbLine
 10
-32.746200
 20
122.788230
 30
0.0
 11
-36.156200
 21
122.789230
 31
0.0
  0
SPLINE
  5
158
100
AcDbEntity
  8
Layer_1
 62
3
100
AcDbSpline
 70
8
 71
3
 72
8
 73
4
 74
0
 40
0
 40
0
 40
0
 40
0
 40
1
 40
1
 40
1
 40
1
 10
-36.156200
 20
122.789230
 30
0.0
 10
-36.740771
 20
122.789468
 30
0.0
 10
-37.214542
 20
123.263409
 30
0.0
 10
-37.214570
 20
123.847980
 30
0.0
  0
LINE
  5
159
100
AcDbEntity
  8
Layer_1
 62
3
100
AcDbLine
 10
-37.214570
 20
123.847980
 30
0.0
 11
-37.215010
 21
134.144200
 31
0.0
  0
SPLINE
  5
15a
100
AcDbEntity
  8
Layer_1
 62
3
100
AcDbSpline
 70
8
 71
3
 72
8
 73
4
 74
0
 40
0
 40
0
 40
0
 40
0
 40
1
 40
1
 40
1
 40
1
 10
-37.215010
 20
134.144200
 30
0.0
 10
-37.215025
 20
134.480290
 30
0.0
 10
-37.069130
 20
134.799833
 30
0.0
 10
-36.815160
 20
135.019960
 30
0.0
  0
LINE
  5
15b
100
AcDbEntity
  8
Layer_1
 62
3
100
AcDbLine
 10
-36.815160
 20
135.019960
 30
0.0
 11
-34.354850
 21
137.152430
 31
0.0
  0
SPLINE
  5
15c
100
AcDbEntity
  8
Layer_1
 62
3
100
AcDbSpline
 70
8
 71
3
 72
8
 73
4
 74
0
 40
0
 40
0
 40
0
 40
0
 40
1
 40
1
 40
1
 40
1
 10
-34.354850
 20
137.152430
 30
0.0
 10
-34.096952
 20
137.375967
 30
0.0
 10
-33.767101
 20
137.499018
 30
0.0
 10
-33.425810
 20
137.499010
 30
0.0
  0
LINE
  5
15d
100
AcDbEntity
  8
Layer_1
 62
3
100
AcDbLine
 10
-33.425810
 20
137.499010
 30
0.0
 11
79.166710
 21
137.496010
 31
0.0
  0
SPLINE
  5
15e
100
AcDbEntity
  8
Layer_1
 62
3
100
AcDbSpline
 70
8
 71
3
 72
8
 73
4
 74
0
 40
0
 40
0
 40
0
 40
0
 40
1
 40
1
 40
1
 40
1
 10
79.166710
 20
137.496010
 30
0.0
 10
79.507467
 20
137.496004
 30
0.0
 10
79.836251
 20
137.370321
 30
0.0
 10
80.090120
 20
137.143020
 30
0.0
  0
LINE
  5
15f
100
AcDbEntity
  8
Layer_1
 62
3
100
AcDbLine
 10
80.090120
 20
137.143020
 30
0.0
 11
82.462060
 21
135.019280
 31
0.0
  0
SPLINE
  5
160
100
AcDbEntity
  8
Layer_1
 62
3
100
AcDbSpline
 70
8
 71
3
 72
8
 73
4
 74
0
 40
0
 40
0
 40
0
 40
0
 40
1
 40
1
 40
1
 40
1
 10
82.462060
 20
135.019280
 30
0.0
 10
82.712930
 20
134.794665
 30
0.0
 10
82.856300
 20
134.473861
 30
0.0
 10
82.856300
 20
134.137130
 30
0.0
  0
LINE
  5
161
100
AcDbEntity
  8
Layer_1
 62
3
100
AcDbLine
 10
82.856300
 20
134.137130
 30
0.0
 11
82.856300
 21
123.316560
 31
0.0
  0
SPLINE
  5
162
100
AcDbEntity
  8
Layer_1
 62
3
100
AcDbSpline
 70
8
 71
3
 72
8
 73
4
 74
0
 40
0
 40
0
 40
0
 40
0
 40
1
 40
1
 40
1
 40
1
 10
82.856300
 20
123.316560
 30
0.0
 10
82.856300
 20
123.176216
 30
0.0
 10
82.800548
 20
123.041621
 30
0.0
 10
82.701309
 20
122.942384
 30
0.0
  0
SPLINE
  5
163
100
AcDbEntity
  8
Layer_1
 62
3
100
AcDbSpline
 70
8
 71
3
 72
8
 73
4
 74
0
 40
0
 40
0
 40
0
 40
0
 40
1
 40
1
 40
1
 40
1
 10
82.701309
 20
122.942384
 30
0.0
 10
82.602070
 20
122.843147
 30
0.0
 10
82.467474
 20
122.787397
 30
0.0
 10
82.327130
 20
122.787400
 30
0.0
  0
LINE
  5
164
100
AcDbEntity
  8
Layer_1
 62
3
100
AcDbLine
 10
82.327130
 20
122.787400
 30
0.0
 11
63.565180
 21
122.787620
 31
0.0
  0
SPLINE
  5
165
100
AcDbEntity
  8
Layer_1
 62
3
100
AcDbSpline
 70
8
 71
3
 72
8
 73
4
 74
0
 40
0
 40
0
 40
0
 40
0
 40
1
 40
1
 40
1
 40
1
 10
63.565180
 20
122.787620
 30
0.0
 10
63.212400
 20
122.787625
 30
0.0
 10
62.859620
 20
122.787629
 30
0.0
 10
62.506840
 20
122.787630
 30
0.0
  0
LINE
  5
166
100
AcDbEntity
  8
Layer_1
 62
3
100
AcDbLine
 10
62.506840
 20
122.787630
 30
0.0
 11
62.506840
 21
122.787890
 31
0.0
  0
LINE
  5
167
100
AcDbEntity
  8
Layer_1
 62
3
100
AcDbLine
 10
192.913750
 20
122.787880
 30
0.0
 11
191.446700
 21
122.787880
 31
0.0
  0
SPLINE
  5
168
100
AcDbEntity
  8
Layer_1
 62
3
100
AcDbSpline
 70
8
 71
3
 72
8
 73
4
 74
0
 40
0
 40
0
 40
0
 40
0
 40
1
 40
1
 40
1
 40
1
 10
191.446700
 20
122.787880
 30
0.0
 10
191.093920
 20
122.787880
 30
0.0
 10
190.741140
 20
122.787937
 30
0.0
 10
190.388360
 20
122.788050
 30
0.0
  0
LINE
  5
169
100
AcDbEntity
  8
Layer_1
 62
3
100
AcDbLine
 10
190.388360
 20
122.788050
 30
0.0
 11
154.979900
 21
122.799450
 31
0.0
  0
SPLINE
  5
16a
100
AcDbEntity
  8
Layer_1
 62
3
100
AcDbSpline
 70
8
 71
3
 72
8
 73
4
 74
0
 40
0
 40
0
 40
0
 40
0
 40
1
 40
1
 40
1
 40
1
 10
154.979900
 20
122.799450
 30
0.0
 10
154.687650
 20
122.799540
 30
0.0
 10
154.213810
 20
122.799200
 30
0.0
 10
153.921560
 20
122.798690
 30
0.0
  0
SPLINE
  5
16b
100
AcDbEntity
  8
Layer_1
 62
3
100
AcDbSpline
 70
8
 71
3
 72
8
 73
4
 74
0
 40
0
 40
0
 40
0
 40
0
 40
1
 40
1
 40
1
 40
1
 10
153.921560
 20
122.798690
 30
0.0
 10
142.911050
 20
122.779590
 30
0.0
 10
141.058240
 20
122.789690
 30
0.0
 10
130.047710
 20
122.786090
 30
0.0
  0
SPLINE
  5
16c
100
AcDbEntity
  8
Layer_1
 62
3
100
AcDbSpline
 70
8
 71
3
 72
8
 73
4
 74
0
 40
0
 40
0
 40
0
 40
0
 40
1
 40
1
 40
1
 40
1
 10
130.047710
 20
122.786090
 30
0.0
 10
129.755470
 20
122.786010
 30
0.0
 10
129.281640
 20
122.785950
 30
0.0
 10
128.989390
 20
122.785970
 30
0.0
  0
LINE
  5
16d
100
AcDbEntity
  8
Layer_1
 62
3
100
AcDbLine
 10
128.989390
 20
122.785970
 30
0.0
 11
103.635060
 21
122.787970
 31
0.0
  0
SPLINE
  5
16e
100
AcDbEntity
  8
Layer_1
 62
3
100
AcDbSpline
 70
8
 71
3
 72
8
 73
4
 74
0
 40
0
 40
0
 40
0
 40
0
 40
1
 40
1
 40
1
 40
1
 10
103.635060
 20
122.787970
 30
0.0
 10
103.282280
 20
122.787997
 30
0.0
 10
102.929500
 20
122.788010
 30
0.0
 10
102.576720
 20
122.788010
 30
0.0
  0
LINE
  5
16f
100
AcDbEntity
  8
Layer_1
 62
3
100
AcDbLine
 10
102.576720
 20
122.788010
 30
0.0
 11
98.719050
 21
122.788010
 31
0.0
  0
SPLINE
  5
170
100
AcDbEntity
  8
Layer_1
 62
3
100
AcDbSpline
 70
8
 71
3
 72
8
 73
4
 74
0
 40
0
 40
0
 40
0
 40
0
 40
1
 40
1
 40
1
 40
1
 10
98.719050
 20
122.788010
 30
0.0
 10
98.366270
 20
122.788009
 30
0.0
 10
98.013490
 20
122.788079
 30
0.0
 10
97.660710
 20
122.788220
 30
0.0
  0
LINE
  5
171
100
AcDbEntity
  8
Layer_1
 62
3
100
AcDbLine
 10
97.660710
 20
122.788220
 30
0.0
 11
94.250710
 21
122.789220
 31
0.0
  0
SPLINE
  5
172
100
AcDbEntity
  8
Layer_1
 62
3
100
AcDbSpline
 70
8
 71
3
 72
8
 73
4
 74
0
 40
0
 40
0
 40
0
 40
0
 40
1
 40
1
 40
1
 40
1
 10
94.250710
 20
122.789220
 30
0.0
 10
93.666139
 20
122.789458
 30
0.0
 10
93.192368
 20
123.263399
 30
0.0
 10
93.192340
 20
123.847970
 30
0.0
  0
LINE
  5
173
100
AcDbEntity
  8
Layer_1
 62
3
100
AcDbLine
 10
93.192340
 20
123.847970
 30
0.0
 11
93.191900
 21
134.144190
 31
0.0
  0
SPLINE
  5
174
100
AcDbEntity
  8
Layer_1
 62
3
100
AcDbSpline
 70
8
 71
3
 72
8
 73
4
 74
0
 40
0
 40
0
 40
0
 40
0
 40
1
 40
1
 40
1
 40
1
 10
93.191900
 20
134.144190
 30
0.0
 10
93.191885
 20
134.480280
 30
0.0
 10
93.337780
 20
134.799823
 30
0.0
 10
93.591750
 20
135.019950
 30
0.0
  0
LINE
  5
175
100
AcDbEntity
  8
Layer_1
 62
3
100
AcDbLine
 10
93.591750
 20
135.019950
 30
0.0
 11
96.052060
 21
137.152420
 31
0.0
  0
SPLINE
  5
176
100
AcDbEntity
  8
Layer_1
 62
3
100
AcDbSpline
 70
8
 71
3
 72
8
 73
4
 74
0
 40
0
 40
0
 40
0
 40
0
 40
1
 40
1
 40
1
 40
1
 10
96.052060
 20
137.152420
 30
0.0
 10
96.309958
 20
137.375957
 30
0.0
 10
96.639809
 20
137.499008
 30
0.0
 10
96.981100
 20
137.499000
 30
0.0
  0
LINE
  5
177
100
AcDbEntity
  8
Layer_1
 62
3
100
AcDbLine
 10
96.981100
 20
137.499000
 30
0.0
 11
209.573620
 21
137.496000
 31
0.0
  0
SPLINE
  5
178
100
AcDbEntity
  8
Layer_1
 62
3
100
AcDbSpline
 70
8
 71
3
 72
8
 73
4
 74
0
 40
0
 40
0
 40
0
 40
0
 40
1
 40
1
 40
1
 40
1
 10
209.573620
 20
137.496000
 30
0.0
 10
209.914377
 20
137.495994
 30
0.0
 10
210.243161
 20
137.370311
 30
0.0
 10
210.497030
 20
137.143010
 30
0.0
  0
LINE
  5
179
100
AcDbEntity
  8
Layer_1
 62
3
100
AcDbLine
 10
210.497030
 20
137.143010
 30
0.0
 11
212.868970
 21
135.019270
 31
0.0
  0
SPLINE
  5
17a
100
AcDbEntity
  8
Layer_1
 62
3
100
AcDbSpline
 70
8
 71
3
 72
8
 73
4
 74
0
 40
0
 40
0
 40
0
 40
0
 40
1
 40
1
 40
1
 40
1
 10
212.868970
 20
135.019270
 30
0.0
 10
213.119840
 20
134.794655
 30
0.0
 10
213.263210
 20
134.473851
 30
0.0
 10
213.263210
 20
134.137120
 30
0.0
  0
LINE
  5
17b
100
AcDbEntity
  8
Layer_1
 62
3
100
AcDbLine
 10
213.263210
 20
134.137120
 30
0.0
 11
213.263210
 21
123.316550
 31
0.0
  0
SPLINE
  5
17c
100
AcDbEntity
  8
Layer_1
 62
3
100
AcDbSpline
 70
8
 71
3
 72
8
 73
4
 74
0
 40
0
 40
0
 40
0
 40
0
 40
1
 40
1
 40
1
 40
1
 10
213.263210
 20
123.316550
 30
0.0
 10
213.263210
 20
123.176206
 30
0.0
 10
213.207458
 20
123.041611
 30
0.0
 10
213.108219
 20
122.942374
 30
0.0
  0
SPLINE
  5
17d
100
AcDbEntity
  8
Layer_1
 62
3
100
AcDbSpline
 70
8
 71
3
 72
8
 73
4
 74
0
 40
0
 40
0
 40
0
 40
0
 40
1
 40
1
 40
1
 40
1
 10
213.108219
 20
122.942374
 30
0.0
 10
213.008980
 20
122.843137
 30
0.0
 10
212.874384
 20
122.787387
 30
0.0
 10
212.734040
 20
122.787390
 30
0.0
  0
LINE
  5
17e
100
AcDbEntity
  8
Layer_1
 62
3
100
AcDbLine
 10
212.734040
 20
122.787390
 30
0.0
 11
193.972090
 21
122.787610
 31
0.0
  0
SPLINE
  5
17f
100
AcDbEntity
  8
Layer_1
 62
3
100
AcDbSpline
 70
8
 71
3
 72
8
 73
4
 74
0
 40
0
 40
0
 40
0
 40
0
 40
1
 40
1
 40
1
 40
1
 10
193.972090
 20
122.787610
 30
0.0
 10
193.619310
 20
122.787615
 30
0.0
 10
193.266530
 20
122.787619
 30
0.0
 10
192.913750
 20
122.787620
 30
0.0
  0
LINE
  5
180
100
AcDbEntity
  8
Layer_1
 62
3
100
AcDbLine
 10
192.913750
 20
122.787620
 30
0.0
 11
192.913750
 21
122.787880
 31
0.0
  0
SPLINE
  5
181
100
AcDbEntity
  8
Layer_1
 62
3
100
AcDbSpline
 70
8
 71
3
 72
8
 73
4
 74
0
 40
0
 40
0
 40
0
 40
0
 40
1
 40
1
 40
1
 40
1
 10
70.998947
 20
129.435780
 30
0.0
 10
70.614708
 20
129.435780
 30
0.0
 10
70.268303
 20
129.204320
 30
0.0
 10
70.121261
 20
128.849329
 30
0.0
  0
SPLINE
  5
182
100
AcDbEntity
  8
Layer_1
 62
3
100
AcDbSpline
 70
8
 71
3
 72
8
 73
4
 74
0
 40
0
 40
0
 40
0
 40
0
 40
1
 40
1
 40
1
 40
1
 10
70.121261
 20
128.849329
 30
0.0
 10
69.974220
 20
128.494339
 30
0.0
 10
70.055497
 20
128.085727
 30
0.0
 10
70.327196
 20
127.814029
 30
0.0
  0
SPLINE
  5
183
100
AcDbEntity
  8
Layer_1
 62
3
100
AcDbSpline
 70
8
 71
3
 72
8
 73
4
 74
0
 40
0
 40
0
 40
0
 40
0
 40
1
 40
1
 40
1
 40
1
 10
70.327196
 20
127.814029
 30
0.0
 10
70.598894
 20
127.542330
 30
0.0
 10
71.007506
 20
127.461053
 30
0.0
 10
71.362496
 20
127.608094
 30
0.0
  0
SPLINE
  5
184
100
AcDbEntity
  8
Layer_1
 62
3
100
AcDbSpline
 70
8
 71
3
 72
8
 73
4
 74
0
 40
0
 40
0
 40
0
 40
0
 40
1
 40
1
 40
1
 40
1
 10
71.362496
 20
127.608094
 30
0.0
 10
71.717487
 20
127.755136
 30
0.0
 10
71.948947
 20
128.101541
 30
0.0
 10
71.948947
 20
128.485780
 30
0.0
  0
SPLINE
  5
185
100
AcDbEntity
  8
Layer_1
 62
3
100
AcDbSpline
 70
8
 71
3
 72
8
 73
4
 74
0
 40
0
 40
0
 40
0
 40
0
 40
1
 40
1
 40
1
 40
1
 10
71.948947
 20
128.485780
 30
0.0
 10
71.948947
 20
128.737736
 30
0.0
 10
71.848858
 20
128.979372
 30
0.0
 10
71.670698
 20
129.157531
 30
0.0
  0
SPLINE
  5
186
100
AcDbEntity
  8
Layer_1
 62
3
100
AcDbSpline
 70
8
 71
3
 72
8
 73
4
 74
0
 40
0
 40
0
 40
0
 40
0
 40
1
 40
1
 40
1
 40
1
 10
71.670698
 20
129.157531
 30
0.0
 10
71.492539
 20
129.335691
 30
0.0
 10
71.250903
 20
129.435780
 30
0.0
 10
70.998947
 20
129.435780
 30
0.0
  0
LINE
  5
187
100
AcDbEntity
  8
Layer_1
 62
3
100
AcDbLine
 10
70.998947
 20
129.435780
 30
0.0
 11
70.998947
 21
129.435780
 31
0.0
  0
SPLINE
  5
188
100
AcDbEntity
  8
Layer_1
 62
3
100
AcDbSpline
 70
8
 71
3
 72
8
 73
4
 74
0
 40
0
 40
0
 40
0
 40
0
 40
1
 40
1
 40
1
 40
1
 10
-26.274189
 20
129.435780
 30
0.0
 10
-26.658428
 20
129.435780
 30
0.0
 10
-27.004833
 20
129.204320
 30
0.0
 10
-27.151875
 20
128.849329
 30
0.0
  0
SPLINE
  5
189
100
AcDbEntity
  8
Layer_1
 62
3
100
AcDbSpline
 70
8
 71
3
 72
8
 73
4
 74
0
 40
0
 40
0
 40
0
 40
0
 40
1
 40
1
 40
1
 40
1
 10
-27.151875
 20
128.849329
 30
0.0
 10
-27.298916
 20
128.494339
 30
0.0
 10
-27.217639
 20
128.085727
 30
0.0
 10
-26.945940
 20
127.814029
 30
0.0
  0
SPLINE
  5
18a
100
AcDbEntity
  8
Layer_1
 62
3
100
AcDbSpline
 70
8
 71
3
 72
8
 73
4
 74
0
 40
0
 40
0
 40
0
 40
0
 40
1
 40
1
 40
1
 40
1
 10
-26.945940
 20
127.814029
 30
0.0
 10
-26.674242
 20
127.542330
 30
0.0
 10
-26.265630
 20
127.461053
 30
0.0
 10
-25.910640
 20
127.608094
 30
0.0
  0
SPLINE
  5
18b
100
AcDbEntity
  8
Layer_1
 62
3
100
AcDbSpline
 70
8
 71
3
 72
8
 73
4
 74
0
 40
0
 40
0
 40
0
 40
0
 40
1
 40
1
 40
1
 40
1
 10
-25.910640
 20
127.608094
 30
0.0
 10
-25.555649
 20
127.755136
 30
0.0
 10
-25.324189
 20
128.101541
 30
0.0
 10
-25.324189
 20
128.485780
 30
0.0
  0
SPLINE
  5
18c
100
AcDbEntity
  8
Layer_1
 62
3
100
AcDbSpline
 70
8
 71
3
 72
8
 73
4
 74
0
 40
0
 40
0
 40
0
 40
0
 40
1
 40
1
 40
1
 40
1
 10
-25.324189
 20
128.485780
 30
0.0
 10
-25.324189
 20
128.737736
 30
0.0
 10
-25.424278
 20
128.979372
 30
0.0
 10
-25.602438
 20
129.157531
 30
0.0
  0
SPLINE
  5
18d
100
AcDbEntity
  8
Layer_1
 62
3
100
AcDbSpline
 70
8
 71
3
 72
8
 73
4
 74
0
 40
0
 40
0
 40
0
 40
0
 40
1
 40
1
 40
1
 40
1
 10
-25.602438
 20
129.157531
 30
0.0
 10
-25.780597
 20
129.335691
 30
0.0
 10
-26.022233
 20
129.435780
 30
0.0
 10
-26.274189
 20
129.435780
 30
0.0
  0
LINE
  5
18e
100
AcDbEntity
  8
Layer_1
 62
3
100
AcDbLine
 10
-26.274189
 20
129.435780
 30
0.0
 11
-26.274189
 21
129.435780
 31
0.0
  0
SPLINE
  5
18f
100
AcDbEntity
  8
Layer_1
 62
3
100
AcDbSpline
 70
8
 71
3
 72
8
 73
4
 74
0
 40
0
 40
0
 40
0
 40
0
 40
1
 40
1
 40
1
 40
1
 10
201.405900
 20
129.435780
 30
0.0
 10
201.021661
 20
129.435780
 30
0.0
 10
200.675256
 20
129.204320
 30
0.0
 10
200.528214
 20
128.849329
 30
0.0
  0
SPLINE
  5
190
100
AcDbEntity
  8
Layer_1
 62
3
100
AcDbSpline
 70
8
 71
3
 72
8
 73
4
 74
0
 40
0
 40
0
 40
0
 40
0
 40
1
 40
1
 40
1
 40
1
 10
200.528214
 20
128.849329
 30
0.0
 10
200.381173
 20
128.494339
 30
0.0
 10
200.462450
 20
128.085727
 30
0.0
 10
200.734149
 20
127.814029
 30
0.0
  0
SPLINE
  5
191
100
AcDbEntity
  8
Layer_1
 62
3
100
AcDbSpline
 70
8
 71
3
 72
8
 73
4
 74
0
 40
0
 40
0
 40
0
 40
0
 40
1
 40
1
 40
1
 40
1
 10
200.734149
 20
127.814029
 30
0.0
 10
201.005847
 20
127.542330
 30
0.0
 10
201.414459
 20
127.461053
 30
0.0
 10
201.769449
 20
127.608094
 30
0.0
  0
SPLINE
  5
192
100
AcDbEntity
  8
Layer_1
 62
3
100
AcDbSpline
 70
8
 71
3
 72
8
 73
4
 74
0
 40
0
 40
0
 40
0
 40
0
 40
1
 40
1
 40
1
 40
1
 10
201.769449
 20
127.608094
 30
0.0
 10
202.124440
 20
127.755136
 30
0.0
 10
202.355900
 20
128.101541
 30
0.0
 10
202.355900
 20
128.485780
 30
0.0
  0
SPLINE
  5
193
100
AcDbEntity
  8
Layer_1
 62
3
100
AcDbSpline
 70
8
 71
3
 72
8
 73
4
 74
0
 40
0
 40
0
 40
0
 40
0
 40
1
 40
1
 40
1
 40
1
 10
202.355900
 20
128.485780
 30
0.0
 10
202.355900
 20
128.737736
 30
0.0
 10
202.255811
 20
128.979372
 30
0.0
 10
202.077651
 20
129.157531
 30
0.0
  0
SPLINE
  5
194
100
AcDbEntity
  8
Layer_1
 62
3
100
AcDbSpline
 70
8
 71
3
 72
8
 73
4
 74
0
 40
0
 40
0
 40
0
 40
0
 40
1
 40
1
 40
1
 40
1
 10
202.077651
 20
129.157531
 30
0.0
 10
201.899492
 20
129.335691
 30
0.0
 10
201.657856
 20
129.435780
 30
0.0
 10
201.405900
 20
129.435780
 30
0.0
  0
LINE
  5
195
100
AcDbEntity
  8
Layer_1
 62
3
100
AcDbLine
 10
201.405900
 20
129.435780
 30
0.0
 11
201.405900
 21
129.435780
 31
0.0
  0
SPLINE
  5
196
100
AcDbEntity
  8
Layer_1
 62
3
100
AcDbSpline
 70
8
 71
3
 72
8
 73
4
 74
0
 40
0
 40
0
 40
0
 40
0
 40
1
 40
1
 40
1
 40
1
 10
104.132750
 20
129.435780
 30
0.0
 10
103.748511
 20
129.435780
 30
0.0
 10
103.402106
 20
129.204320
 30
0.0
 10
103.255064
 20
128.849329
 30
0.0
  0
SPLINE
  5
197
100
AcDbEntity
  8
Layer_1
 62
3
100
AcDbSpline
 70
8
 71
3
 72
8
 73
4
 74
0
 40
0
 40
0
 40
0
 40
0
 40
1
 40
1
 40
1
 40
1
 10
103.255064
 20
128.849329
 30
0.0
 10
103.108023
 20
128.494339
 30
0.0
 10
103.189300
 20
128.085727
 30
0.0
 10
103.460999
 20
127.814029
 30
0.0
  0
SPLINE
  5
198
100
AcDbEntity
  8
Layer_1
 62
3
100
AcDbSpline
 70
8
 71
3
 72
8
 73
4
 74
0
 40
0
 40
0
 40
0
 40
0
 40
1
 40
1
 40
1
 40
1
 10
103.460999
 20
127.814029
 30
0.0
 10
103.732697
 20
127.542330
 30
0.0
 10
104.141309
 20
127.461053
 30
0.0
 10
104.496299
 20
127.608094
 30
0.0
  0
SPLINE
  5
199
100
AcDbEntity
  8
Layer_1
 62
3
100
AcDbSpline
 70
8
 71
3
 72
8
 73
4
 74
0
 40
0
 40
0
 40
0
 40
0
 40
1
 40
1
 40
1
 40
1
 10
104.496299
 20
127.608094
 30
0.0
 10
104.851290
 20
127.755136
 30
0.0
 10
105.082750
 20
128.101541
 30
0.0
 10
105.082750
 20
128.485780
 30
0.0
  0
SPLINE
  5
19a
100
AcDbEntity
  8
Layer_1
 62
3
100
AcDbSpline
 70
8
 71
3
 72
8
 73
4
 74
0
 40
0
 40
0
 40
0
 40
0
 40
1
 40
1
 40
1
 40
1
 10
105.082750
 20
128.485780
 30
0.0
 10
105.082750
 20
129.010451
 30
0.0
 10
104.657421
 20
129.435780
 30
0.0
 10
104.132750
 20
129.435780
 30
0.0
  0
LINE
  5
19b
100
AcDbEntity
  8
Layer_1
 62
3
100
AcDbLine
 10
104.132750
 20
129.435780
 30
0.0
 11
104.132750
 21
129.435780
 31
0.0
  0
ENDSEC
  0
SECTION
  2
OBJECTS
  0
DICTIONARY
  5
C
330
0
100
AcDbDictionary
  3
ACAD_GROUP
350
D
  3
ACAD_MLINESTYLE
350
17
  0
DICTIONARY
  5
D
330
C
100
AcDbDictionary
  0
DICTIONARY
  5
1A
330
C
100
AcDbDictionary
  0
DICTIONARY
  5
17
330
C
100
AcDbDictionary
  3
STANDARD
350
18
  0
DICTIONARY
  5
19
330
C
100
AcDbDictionary
  0
ENDSEC
  0
EOF
