  0
SECTION
  2
HEADER
  9
$ACADVER
  1
AC1014
  9
$HANDSEED
  5
FFFF
  9
$INSUNITS
 70
     0
  9
$MEASUREMENT
 70
     1
  0
ENDSEC
  0
SECTION
  2
TABLES
  0
TABLE
  2
VPORT
  5
8
330
0
100
AcDbSymbolTable
 70
     4
  0
VPORT
  5
2E
330
8
100
AcDbSymbolTableRecord
100
AcDbViewportTableRecord
  2
*ACTIVE
 70
     0
 10
0.0
 20
0.0
 11
1.0
 21
1.0
 12
210.0
 22
148.5
 13
0.0
 23
0.0
 14
10.0
 24
10.0
 15
10.0
 25
10.0
 16
0.0
 26
0.0
 36
1.0
 17
0.0
 27
0.0
 37
0.0
 40
341.0
 41
1.24
 42
50.0
 43
0.0
 44
0.0
 50
0.0
 51
0.0
 71
     0
 72
   100
 73
     1
 74
     3
 75
     0
 76
     0
 77
     0
 78
     0
  0
ENDTAB
  0
TABLE
  2
LTYPE
  5
5
330
0
100
AcDbSymbolTable
 70
     1
  0
LTYPE
  5
14
330
5
100
AcDbSymbolTableRecord
100
AcDbLinetypeTableRecord
  2
BYBLOCK
 70
     0
  3

 72
    65
 73
     0
 40
0.0
  0
LTYPE
  5
15
330
5
100
AcDbSymbolTableRecord
100
AcDbLinetypeTableRecord
  2
BYLAYER
 70
     0
  3

 72
    65
 73
     0
 40
0.0
  0
LTYPE
  5
16
330
5
100
AcDbSymbolTableRecord
100
AcDbLinetypeTableRecord
  2
CONTINUOUS
 70
     0
  3
Solid line
 72
    65
 73
     0
 40
0.0
  0
ENDTAB
  0
TABLE
  2
LAYER
  5
2
100
AcDbSymbolTable
 70
2
  0
LAYER
  5
50
100
AcDbSymbolTableRecord
100
AcDbLayerTableRecord
  2
0
 70
0
  6
CONTINUOUS
  0
LAYER
  5
51
100
AcDbSymbolTableRecord
100
AcDbLayerTableRecord
  2
Layer_1
 70
0
  6
CONTINUOUS
  0
ENDTAB
  0
TABLE
  2
STYLE
  5
3
330
0
100
AcDbSymbolTable
 70
     1
  0
STYLE
  5
11
330
3
100
AcDbSymbolTableRecord
100
AcDbTextStyleTableRecord
  2
STANDARD
 70
     0
 40
0.0
 41
1.0
 50
0.0
 71
     0
 42
2.5
  3
txt
  4

  0
ENDTAB
  0
TABLE
  2
VIEW
  5
6
330
0
100
AcDbSymbolTable
 70
     0
  0
ENDTAB
  0
TABLE
  2
UCS
  5
7
330
0
100
AcDbSymbolTable
 70
     0
  0
ENDTAB
  0
TABLE
  2
APPID
  5
9
330
0
100
AcDbSymbolTable
 70
     2
  0
APPID
  5
12
330
9
100
AcDbSymbolTableRecord
100
AcDbRegAppTableRecord
  2
ACAD
 70
     0
  0
ENDTAB
  0
TABLE
  2
DIMSTYLE
  5
A
330
0
100
AcDbSymbolTable
 70
     1
  0
DIMSTYLE
105
27
330
A
100
AcDbSymbolTableRecord
100
AcDbDimStyleTableRecord
  2
ISO-25
 70
     0
  3

  4

  5

  6

  7

 40
1.0
 41
2.5
 42
0.625
 43
3.75
 44
1.25
 45
0.0
 46
0.0
 47
0.0
 48
0.0
140
2.5
141
2.5
142
0.0
143
0.03937007874016
144
1.0
145
0.0
146
1.0
147
0.625
 71
     0
 72
     0
 73
     0
 74
     0
 75
     0
 76
     0
 77
     1
 78
     8
170
     0
171
     3
172
     1
173
     0
174
     0
175
     0
176
     0
177
     0
178
     0
270
     2
271
     2
272
     2
273
     2
274
     3
340
11
275
     0
280
     0
281
     0
282
     0
283
     0
284
     8
285
     0
286
     0
287
     3
288
     0
  0
ENDTAB
  0
TABLE
  2
BLOCK_RECORD
  5
1
330
0
100
AcDbSymbolTable
 70
     1
  0
BLOCK_RECORD
  5
1F
330
1
100
AcDbSymbolTableRecord
100
AcDbBlockTableRecord
  2
*MODEL_SPACE
  0
BLOCK_RECORD
  5
1B
330
1
100
AcDbSymbolTableRecord
100
AcDbBlockTableRecord
  2
*PAPER_SPACE
  0
ENDTAB
  0
ENDSEC
  0
SECTION
  2
BLOCKS
  0
BLOCK
  5
20
330
1F
100
AcDbEntity
  8
0
100
AcDbBlockBegin
  2
*MODEL_SPACE
 70
     0
 10
0.0
 20
0.0
 30
0.0
  3
*MODEL_SPACE
  1

  0
ENDBLK
  5
21
330
1F
100
AcDbEntity
  8
0
100
AcDbBlockEnd
  0
BLOCK
  5
1C
330
1B
100
AcDbEntity
 67
     1
  8
0
100
AcDbBlockBegin
  2
*PAPER_SPACE
  1

  0
ENDBLK
  5
1D
330
1B
100
AcDbEntity
 67
     1
  8
0
100
AcDbBlockEnd
  0
ENDSEC
  0
SECTION
  2
ENTITIES
  0
LINE
  5
100
100
AcDbEntity
  8
Layer_1
 62
5
100
AcDbLine
 10
43.299260
 20
175.790680
 30
0.0
 11
43.299260
 21
111.284080
 31
0.0
  0
SPLINE
  5
101
100
AcDbEntity
  8
Layer_1
 62
5
100
AcDbSpline
 70
8
 71
3
 72
8
 73
4
 74
0
 40
0
 40
0
 40
0
 40
0
 40
1
 40
1
 40
1
 40
1
 10
43.299260
 20
111.284080
 30
0.0
 10
43.299260
 20
110.607938
 30
0.0
 10
43.574917
 20
109.961020
 30
0.0
 10
44.062590
 20
109.492680
 30
0.0
  0
LINE
  5
102
100
AcDbEntity
  8
Layer_1
 62
5
100
AcDbLine
 10
44.062590
 20
109.492680
 30
0.0
 11
45.729030
 21
107.892320
 31
0.0
  0
SPLINE
  5
103
100
AcDbEntity
  8
Layer_1
 62
5
100
AcDbSpline
 70
8
 71
3
 72
8
 73
4
 74
0
 40
0
 40
0
 40
0
 40
0
 40
1
 40
1
 40
1
 40
1
 10
45.729030
 20
107.892320
 30
0.0
 10
46.218825
 20
107.421944
 30
0.0
 10
46.871607
 20
107.159298
 30
0.0
 10
47.550690
 20
107.159380
 30
0.0
  0
LINE
  5
104
100
AcDbEntity
  8
Layer_1
 62
5
100
AcDbLine
 10
47.550690
 20
107.159380
 30
0.0
 11
141.808550
 21
107.170980
 31
0.0
  0
SPLINE
  5
105
100
AcDbEntity
  8
Layer_1
 62
5
100
AcDbSpline
 70
8
 71
3
 72
8
 73
4
 74
0
 40
0
 40
0
 40
0
 40
0
 40
1
 40
1
 40
1
 40
1
 10
141.808550
 20
107.170980
 30
0.0
 10
142.514103
 20
107.171068
 30
0.0
 10
143.219657
 20
107.171168
 30
0.0
 10
143.925210
 20
107.171280
 30
0.0
  0
LINE
  5
106
100
AcDbEntity
  8
Layer_1
 62
5
100
AcDbLine
 10
143.925210
 20
107.171280
 30
0.0
 11
160.938480
 21
107.174280
 31
0.0
  0
SPLINE
  5
107
100
AcDbEntity
  8
Layer_1
 62
5
100
AcDbSpline
 70
8
 71
3
 72
8
 73
4
 74
0
 40
0
 40
0
 40
0
 40
0
 40
1
 40
1
 40
1
 40
1
 10
160.938480
 20
107.174280
 30
0.0
 10
161.644033
 20
107.174392
 30
0.0
 10
162.349587
 20
107.174509
 30
0.0
 10
163.055140
 20
107.174630
 30
0.0
  0
LINE
  5
108
100
AcDbEntity
  8
Layer_1
 62
5
100
AcDbLine
 10
163.055140
 20
107.174630
 30
0.0
 11
178.633090
 21
107.177630
 31
0.0
  0
SPLINE
  5
109
100
AcDbEntity
  8
Layer_1
 62
5
100
AcDbSpline
 70
8
 71
3
 72
8
 73
4
 74
0
 40
0
 40
0
 40
0
 40
0
 40
1
 40
1
 40
1
 40
1
 10
178.633090
 20
107.177630
 30
0.0
 10
179.312501
 20
107.177746
 30
0.0
 10
179.965856
 20
107.439091
 30
0.0
 10
180.457920
 20
107.907570
 30
0.0
  0
LINE
  5
10a
100
AcDbEntity
  8
Layer_1
 62
5
100
AcDbLine
 10
180.457920
 20
107.907570
 30
0.0
 11
182.144350
 21
109.513170
 31
0.0
  0
SPLINE
  5
10b
100
AcDbEntity
  8
Layer_1
 62
5
100
AcDbSpline
 70
8
 71
3
 72
8
 73
4
 74
0
 40
0
 40
0
 40
0
 40
0
 40
1
 40
1
 40
1
 40
1
 10
182.144350
 20
109.513170
 30
0.0
 10
182.633811
 20
109.979170
 30
0.0
 10
182.910849
 20
110.625443
 30
0.0
 10
182.910850
 20
111.301260
 30
0.0
  0
LINE
  5
10c
100
AcDbEntity
  8
Layer_1
 62
5
100
AcDbLine
 10
182.910850
 20
111.301260
 30
0.0
 11
182.910850
 21
213.077340
 31
0.0
  0
SPLINE
  5
10d
100
AcDbEntity
  8
Layer_1
 62
5
100
AcDbSpline
 70
8
 71
3
 72
8
 73
4
 74
0
 40
0
 40
0
 40
0
 40
0
 40
1
 40
1
 40
1
 40
1
 10
182.910850
 20
213.077340
 30
0.0
 10
182.910848
 20
213.749904
 30
0.0
 10
182.620560
 20
214.389739
 30
0.0
 10
182.114460
 20
214.832690
 30
0.0
  0
LINE
  5
10e
100
AcDbEntity
  8
Layer_1
 62
5
100
AcDbLine
 10
182.114460
 20
214.832690
 30
0.0
 11
180.479930
 21
216.263280
 31
0.0
  0
SPLINE
  5
10f
100
AcDbEntity
  8
Layer_1
 62
5
100
AcDbSpline
 70
8
 71
3
 72
8
 73
4
 74
0
 40
0
 40
0
 40
0
 40
0
 40
1
 40
1
 40
1
 40
1
 10
180.479930
 20
216.263280
 30
0.0
 10
179.966535
 20
216.712620
 30
0.0
 10
179.307471
 20
216.960298
 30
0.0
 10
178.625210
 20
216.960290
 30
0.0
  0
LINE
  5
110
100
AcDbEntity
  8
Layer_1
 62
5
100
AcDbLine
 10
178.625210
 20
216.960290
 30
0.0
 11
164.378090
 21
216.960080
 31
0.0
  0
SPLINE
  5
111
100
AcDbEntity
  8
Layer_1
 62
5
100
AcDbSpline
 70
8
 71
3
 72
8
 73
4
 74
0
 40
0
 40
0
 40
0
 40
0
 40
1
 40
1
 40
1
 40
1
 10
164.378090
 20
216.960080
 30
0.0
 10
163.672537
 20
216.960071
 30
0.0
 10
162.966983
 20
216.960061
 30
0.0
 10
162.261430
 20
216.960050
 30
0.0
  0
LINE
  5
112
100
AcDbEntity
  8
Layer_1
 62
5
100
AcDbLine
 10
162.261430
 20
216.960050
 30
0.0
 11
144.983500
 21
216.959740
 31
0.0
  0
SPLINE
  5
113
100
AcDbEntity
  8
Layer_1
 62
5
100
AcDbSpline
 70
8
 71
3
 72
8
 73
4
 74
0
 40
0
 40
0
 40
0
 40
0
 40
1
 40
1
 40
1
 40
1
 10
144.983500
 20
216.959740
 30
0.0
 10
144.277947
 20
216.959727
 30
0.0
 10
143.572393
 20
216.959717
 30
0.0
 10
142.866840
 20
216.959710
 30
0.0
  0
LINE
  5
114
100
AcDbEntity
  8
Layer_1
 62
5
100
AcDbLine
 10
142.866840
 20
216.959710
 30
0.0
 11
47.552710
 21
216.958760
 31
0.0
  0
SPLINE
  5
115
100
AcDbEntity
  8
Layer_1
 62
5
100
AcDbSpline
 70
8
 71
3
 72
8
 73
4
 74
0
 40
0
 40
0
 40
0
 40
0
 40
1
 40
1
 40
1
 40
1
 10
47.552710
 20
216.958760
 30
0.0
 10
46.870811
 20
216.958751
 30
0.0
 10
46.212470
 20
216.709296
 30
0.0
 10
45.701790
 20
216.257420
 30
0.0
  0
LINE
  5
116
100
AcDbEntity
  8
Layer_1
 62
5
100
AcDbLine
 10
45.701790
 20
216.257420
 30
0.0
 11
44.091850
 21
214.832870
 31
0.0
  0
SPLINE
  5
117
100
AcDbEntity
  8
Layer_1
 62
5
100
AcDbSpline
 70
8
 71
3
 72
8
 73
4
 74
0
 40
0
 40
0
 40
0
 40
0
 40
1
 40
1
 40
1
 40
1
 10
44.091850
 20
214.832870
 30
0.0
 10
43.587840
 20
214.386893
 30
0.0
 10
43.299260
 20
213.746204
 30
0.0
 10
43.299260
 20
213.073210
 30
0.0
  0
LINE
  5
118
100
AcDbEntity
  8
Layer_1
 62
5
100
AcDbLine
 10
43.299260
 20
213.073210
 30
0.0
 11
43.299260
 21
198.016750
 31
0.0
  0
SPLINE
  5
119
100
AcDbEntity
  8
Layer_1
 62
5
100
AcDbSpline
 70
8
 71
3
 72
8
 73
4
 74
0
 40
0
 40
0
 40
0
 40
0
 40
1
 40
1
 40
1
 40
1
 10
43.299260
 20
198.016750
 30
0.0
 10
43.299260
 20
197.736121
 30
0.0
 10
43.410782
 20
197.466996
 30
0.0
 10
43.609276
 20
197.268620
 30
0.0
  0
SPLINE
  5
11a
100
AcDbEntity
  8
Layer_1
 62
5
100
AcDbSpline
 70
8
 71
3
 72
8
 73
4
 74
0
 40
0
 40
0
 40
0
 40
0
 40
1
 40
1
 40
1
 40
1
 10
43.609276
 20
197.268620
 30
0.0
 10
43.807769
 20
197.070245
 30
0.0
 10
44.076961
 20
196.958883
 30
0.0
 10
44.357590
 20
196.959050
 30
0.0
  0
LINE
  5
11b
100
AcDbEntity
  8
Layer_1
 62
5
100
AcDbLine
 10
44.357590
 20
196.959050
 30
0.0
 11
47.776280
 21
196.961050
 31
0.0
  0
SPLINE
  5
11c
100
AcDbEntity
  8
Layer_1
 62
5
100
AcDbSpline
 70
8
 71
3
 72
8
 73
4
 74
0
 40
0
 40
0
 40
0
 40
0
 40
1
 40
1
 40
1
 40
1
 10
47.776280
 20
196.961050
 30
0.0
 10
48.068530
 20
196.961230
 30
0.0
 10
48.542370
 20
196.961430
 30
0.0
 10
48.834620
 20
196.961320
 30
0.0
  0
SPLINE
  5
11d
100
AcDbEntity
  8
Layer_1
 62
5
100
AcDbSpline
 70
8
 71
3
 72
8
 73
4
 74
0
 40
0
 40
0
 40
0
 40
0
 40
1
 40
1
 40
1
 40
1
 10
48.834620
 20
196.961320
 30
0.0
 10
49.323640
 20
196.961140
 30
0.0
 10
49.812650
 20
196.960600
 30
0.0
 10
50.301670
 20
196.960320
 30
0.0
  0
SPLINE
  5
11e
100
AcDbEntity
  8
Layer_1
 62
5
100
AcDbSpline
 70
8
 71
3
 72
8
 73
4
 74
0
 40
0
 40
0
 40
0
 40
0
 40
1
 40
1
 40
1
 40
1
 10
50.301670
 20
196.960320
 30
0.0
 10
50.593920
 20
196.959970
 30
0.0
 10
51.067760
 20
196.959690
 30
0.0
 10
51.360010
 20
196.959710
 30
0.0
  0
LINE
  5
11f
100
AcDbEntity
  8
Layer_1
 62
5
100
AcDbLine
 10
51.360010
 20
196.959710
 30
0.0
 11
52.517270
 21
196.959770
 31
0.0
  0
SPLINE
  5
120
100
AcDbEntity
  8
Layer_1
 62
5
100
AcDbSpline
 70
8
 71
3
 72
8
 73
4
 74
0
 40
0
 40
0
 40
0
 40
0
 40
1
 40
1
 40
1
 40
1
 10
52.517270
 20
196.959770
 30
0.0
 10
52.870050
 20
196.959789
 30
0.0
 10
53.222830
 20
196.959932
 30
0.0
 10
53.575610
 20
196.960200
 30
0.0
  0
LINE
  5
121
100
AcDbEntity
  8
Layer_1
 62
5
100
AcDbLine
 10
53.575610
 20
196.960200
 30
0.0
 11
170.320230
 21
197.049000
 31
0.0
  0
SPLINE
  5
122
100
AcDbEntity
  8
Layer_1
 62
5
100
AcDbSpline
 70
8
 71
3
 72
8
 73
4
 74
0
 40
0
 40
0
 40
0
 40
0
 40
1
 40
1
 40
1
 40
1
 10
170.320230
 20
197.049000
 30
0.0
 10
170.673007
 20
197.049299
 30
0.0
 10
171.025784
 20
197.049966
 30
0.0
 10
171.378560
 20
197.051000
 30
0.0
  0
LINE
  5
123
100
AcDbEntity
  8
Layer_1
 62
5
100
AcDbLine
 10
171.378560
 20
197.051000
 30
0.0
 11
175.280490
 21
197.062100
 31
0.0
  0
SPLINE
  5
124
100
AcDbEntity
  8
Layer_1
 62
5
100
AcDbSpline
 70
8
 71
3
 72
8
 73
4
 74
0
 40
0
 40
0
 40
0
 40
0
 40
1
 40
1
 40
1
 40
1
 10
175.280490
 20
197.062100
 30
0.0
 10
175.633266
 20
197.063100
 30
0.0
 10
175.986043
 20
197.063767
 30
0.0
 10
176.338820
 20
197.064100
 30
0.0
  0
LINE
  5
125
100
AcDbEntity
  8
Layer_1
 62
5
100
AcDbLine
 10
176.338820
 20
197.064100
 30
0.0
 11
177.385240
 21
197.065100
 31
0.0
  0
SPLINE
  5
126
100
AcDbEntity
  8
Layer_1
 62
5
100
AcDbSpline
 70
8
 71
3
 72
8
 73
4
 74
0
 40
0
 40
0
 40
0
 40
0
 40
1
 40
1
 40
1
 40
1
 10
177.385240
 20
197.065100
 30
0.0
 10
177.677490
 20
197.065370
 30
0.0
 10
177.914420
 20
196.828680
 30
0.0
 10
177.914420
 20
196.536430
 30
0.0
  0
SPLINE
  5
127
100
AcDbEntity
  8
Layer_1
 62
5
100
AcDbSpline
 70
8
 71
3
 72
8
 73
4
 74
0
 40
0
 40
0
 40
0
 40
0
 40
1
 40
1
 40
1
 40
1
 10
177.914420
 20
196.536430
 30
0.0
 10
177.914960
 20
171.163340
 30
0.0
 10
177.914170
 20
145.499270
 30
0.0
 10
177.912420
 20
120.128380
 30
0.0
  0
SPLINE
  5
128
100
AcDbEntity
  8
Layer_1
 62
5
100
AcDbSpline
 70
8
 71
3
 72
8
 73
4
 74
0
 40
0
 40
0
 40
0
 40
0
 40
1
 40
1
 40
1
 40
1
 10
177.912420
 20
120.128380
 30
0.0
 10
177.912400
 20
119.836130
 30
0.0
 10
177.675460
 20
119.599320
 30
0.0
 10
177.383210
 20
119.599460
 30
0.0
  0
LINE
  5
129
100
AcDbEntity
  8
Layer_1
 62
5
100
AcDbLine
 10
177.383210
 20
119.599460
 30
0.0
 11
176.338820
 21
119.599960
 31
0.0
  0
SPLINE
  5
12a
100
AcDbEntity
  8
Layer_1
 62
5
100
AcDbSpline
 70
8
 71
3
 72
8
 73
4
 74
0
 40
0
 40
0
 40
0
 40
0
 40
1
 40
1
 40
1
 40
1
 10
176.338820
 20
119.599960
 30
0.0
 10
175.986039
 20
119.600283
 30
0.0
 10
175.633259
 20
119.600950
 30
0.0
 10
175.280480
 20
119.601960
 30
0.0
  0
LINE
  5
12b
100
AcDbEntity
  8
Layer_1
 62
5
100
AcDbLine
 10
175.280480
 20
119.601960
 30
0.0
 11
139.875980
 21
119.687660
 31
0.0
  0
SPLINE
  5
12c
100
AcDbEntity
  8
Layer_1
 62
5
100
AcDbSpline
 70
8
 71
3
 72
8
 73
4
 74
0
 40
0
 40
0
 40
0
 40
0
 40
1
 40
1
 40
1
 40
1
 10
139.875980
 20
119.687660
 30
0.0
 10
139.583730
 20
119.688370
 30
0.0
 10
139.109890
 20
119.689660
 30
0.0
 10
138.817640
 20
119.689660
 30
0.0
  0
SPLINE
  5
12d
100
AcDbEntity
  8
Layer_1
 62
5
100
AcDbSpline
 70
8
 71
3
 72
8
 73
4
 74
0
 40
0
 40
0
 40
0
 40
0
 40
1
 40
1
 40
1
 40
1
 10
138.817640
 20
119.689660
 30
0.0
 10
124.234240
 20
119.712960
 30
0.0
 10
109.650790
 20
119.697660
 30
0.0
 10
95.067370
 20
119.696660
 30
0.0
  0
SPLINE
  5
12e
100
AcDbEntity
  8
Layer_1
 62
5
100
AcDbSpline
 70
8
 71
3
 72
8
 73
4
 74
0
 40
0
 40
0
 40
0
 40
0
 40
1
 40
1
 40
1
 40
1
 10
95.067370
 20
119.696660
 30
0.0
 10
94.775120
 20
119.696650
 30
0.0
 10
94.301290
 20
119.696680
 30
0.0
 10
94.009040
 20
119.696710
 30
0.0
  0
LINE
  5
12f
100
AcDbEntity
  8
Layer_1
 62
5
100
AcDbLine
 10
94.009040
 20
119.696710
 30
0.0
 11
58.604520
 21
119.700710
 31
0.0
  0
SPLINE
  5
130
100
AcDbEntity
  8
Layer_1
 62
5
100
AcDbSpline
 70
8
 71
3
 72
8
 73
4
 74
0
 40
0
 40
0
 40
0
 40
0
 40
1
 40
1
 40
1
 40
1
 10
58.604520
 20
119.700710
 30
0.0
 10
58.251740
 20
119.700749
 30
0.0
 10
57.898960
 20
119.700769
 30
0.0
 10
57.546180
 20
119.700770
 30
0.0
  0
LINE
  5
131
100
AcDbEntity
  8
Layer_1
 62
5
100
AcDbLine
 10
57.546180
 20
119.700770
 30
0.0
 11
53.598660
 21
119.700770
 31
0.0
  0
SPLINE
  5
132
100
AcDbEntity
  8
Layer_1
 62
5
100
AcDbSpline
 70
8
 71
3
 72
8
 73
4
 74
0
 40
0
 40
0
 40
0
 40
0
 40
1
 40
1
 40
1
 40
1
 10
53.598660
 20
119.700770
 30
0.0
 10
53.458315
 20
119.700769
 30
0.0
 10
53.323718
 20
119.756521
 30
0.0
 10
53.224479
 20
119.855759
 30
0.0
  0
SPLINE
  5
133
100
AcDbEntity
  8
Layer_1
 62
5
100
AcDbSpline
 70
8
 71
3
 72
8
 73
4
 74
0
 40
0
 40
0
 40
0
 40
0
 40
1
 40
1
 40
1
 40
1
 10
53.224479
 20
119.855759
 30
0.0
 10
53.125241
 20
119.954998
 30
0.0
 10
53.069489
 20
120.089595
 30
0.0
 10
53.069490
 20
120.229940
 30
0.0
  0
LINE
  5
134
100
AcDbEntity
  8
Layer_1
 62
5
100
AcDbLine
 10
53.069490
 20
120.229940
 30
0.0
 11
53.069490
 21
139.282150
 31
0.0
  0
LINE
  5
135
100
AcDbEntity
  8
Layer_1
 62
5
100
AcDbLine
 10
53.069490
 20
139.282150
 30
0.0
 11
53.069490
 21
157.270430
 31
0.0
  0
LINE
  5
136
100
AcDbEntity
  8
Layer_1
 62
5
100
AcDbLine
 10
53.069490
 20
157.270430
 30
0.0
 11
53.069490
 21
176.321220
 31
0.0
  0
SPLINE
  5
137
100
AcDbEntity
  8
Layer_1
 62
5
100
AcDbSpline
 70
8
 71
3
 72
8
 73
4
 74
0
 40
0
 40
0
 40
0
 40
0
 40
1
 40
1
 40
1
 40
1
 10
53.069490
 20
176.321220
 30
0.0
 10
53.069490
 20
176.613470
 30
0.0
 10
52.832570
 20
176.850390
 30
0.0
 10
52.540320
 20
176.850390
 30
0.0
  0
SPLINE
  5
138
100
AcDbEntity
  8
Layer_1
 62
5
100
AcDbSpline
 70
8
 71
3
 72
8
 73
4
 74
0
 40
0
 40
0
 40
0
 40
0
 40
1
 40
1
 40
1
 40
1
 10
52.540320
 20
176.850390
 30
0.0
 10
51.305210
 20
176.850380
 30
0.0
 10
50.070100
 20
176.850390
 30
0.0
 10
48.834990
 20
176.850390
 30
0.0
  0
SPLINE
  5
139
100
AcDbEntity
  8
Layer_1
 62
5
100
AcDbSpline
 70
8
 71
3
 72
8
 73
4
 74
0
 40
0
 40
0
 40
0
 40
0
 40
1
 40
1
 40
1
 40
1
 10
48.834990
 20
176.850390
 30
0.0
 10
48.542740
 20
176.850390
 30
0.0
 10
48.068900
 20
176.850350
 30
0.0
 10
47.776650
 20
176.850310
 30
0.0
  0
LINE
  5
13a
100
AcDbEntity
  8
Layer_1
 62
5
100
AcDbLine
 10
47.776650
 20
176.850310
 30
0.0
 11
44.357560
 21
176.849790
 31
0.0
  0
SPLINE
  5
13b
100
AcDbEntity
  8
Layer_1
 62
5
100
AcDbSpline
 70
8
 71
3
 72
8
 73
4
 74
0
 40
0
 40
0
 40
0
 40
0
 40
1
 40
1
 40
1
 40
1
 10
44.357560
 20
176.849790
 30
0.0
 10
43.773036
 20
176.849699
 30
0.0
 10
43.299232
 20
176.375824
 30
0.0
 10
43.299230
 20
175.791300
 30
0.0
  0
LINE
  5
13c
100
AcDbEntity
  8
Layer_1
 62
5
100
AcDbLine
 10
43.299230
 20
175.791300
 30
0.0
 11
43.299260
 21
175.790680
 31
0.0
  0
SPLINE
  5
13d
100
AcDbEntity
  8
Layer_1
 62
5
100
AcDbSpline
 70
8
 71
3
 72
8
 73
4
 74
0
 40
0
 40
0
 40
0
 40
0
 40
1
 40
1
 40
1
 40
1
 10
-103.177460
 20
115.478860
 30
0.0
 10
-103.810443
 20
115.478860
 30
0.0
 10
-104.381099
 20
115.097560
 30
0.0
 10
-104.623332
 20
114.512760
 30
0.0
  0
SPLINE
  5
13e
100
AcDbEntity
  8
Layer_1
 62
5
100
AcDbSpline
 70
8
 71
3
 72
8
 73
4
 74
0
 40
0
 40
0
 40
0
 40
0
 40
1
 40
1
 40
1
 40
1
 10
-104.623332
 20
114.512760
 30
0.0
 10
-104.865564
 20
113.927959
 30
0.0
 10
-104.731669
 20
113.254825
 30
0.0
 10
-104.284082
 20
112.807238
 30
0.0
  0
SPLINE
  5
13f
100
AcDbEntity
  8
Layer_1
 62
5
100
AcDbSpline
 70
8
 71
3
 72
8
 73
4
 74
0
 40
0
 40
0
 40
0
 40
0
 40
1
 40
1
 40
1
 40
1
 10
-104.284082
 20
112.807238
 30
0.0
 10
-103.836495
 20
112.359651
 30
0.0
 10
-103.163361
 20
112.225756
 30
0.0
 10
-102.578560
 20
112.467988
 30
0.0
  0
SPLINE
  5
140
100
AcDbEntity
  8
Layer_1
 62
5
100
AcDbSpline
 70
8
 71
3
 72
8
 73
4
 74
0
 40
0
 40
0
 40
0
 40
0
 40
1
 40
1
 40
1
 40
1
 10
-102.578560
 20
112.467988
 30
0.0
 10
-101.993760
 20
112.710221
 30
0.0
 10
-101.612460
 20
113.280877
 30
0.0
 10
-101.612460
 20
113.913860
 30
0.0
  0
SPLINE
  5
141
100
AcDbEntity
  8
Layer_1
 62
5
100
AcDbSpline
 70
8
 71
3
 72
8
 73
4
 74
0
 40
0
 40
0
 40
0
 40
0
 40
1
 40
1
 40
1
 40
1
 10
-101.612460
 20
113.913860
 30
0.0
 10
-101.612460
 20
114.778186
 30
0.0
 10
-102.313134
 20
115.478860
 30
0.0
 10
-103.177460
 20
115.478860
 30
0.0
  0
LINE
  5
142
100
AcDbEntity
  8
Layer_1
 62
5
100
AcDbLine
 10
-103.177460
 20
115.478860
 30
0.0
 11
-103.177460
 21
115.478860
 31
0.0
  0
SPLINE
  5
143
100
AcDbEntity
  8
Layer_1
 62
5
100
AcDbSpline
 70
8
 71
3
 72
8
 73
4
 74
0
 40
0
 40
0
 40
0
 40
0
 40
1
 40
1
 40
1
 40
1
 10
-103.177460
 20
204.312330
 30
0.0
 10
-103.810443
 20
204.312330
 30
0.0
 10
-104.381099
 20
203.931030
 30
0.0
 10
-104.623332
 20
203.346230
 30
0.0
  0
SPLINE
  5
144
100
AcDbEntity
  8
Layer_1
 62
5
100
AcDbSpline
 70
8
 71
3
 72
8
 73
4
 74
0
 40
0
 40
0
 40
0
 40
0
 40
1
 40
1
 40
1
 40
1
 10
-104.623332
 20
203.346230
 30
0.0
 10
-104.865564
 20
202.761429
 30
0.0
 10
-104.731669
 20
202.088295
 30
0.0
 10
-104.284082
 20
201.640708
 30
0.0
  0
SPLINE
  5
145
100
AcDbEntity
  8
Layer_1
 62
5
100
AcDbSpline
 70
8
 71
3
 72
8
 73
4
 74
0
 40
0
 40
0
 40
0
 40
0
 40
1
 40
1
 40
1
 40
1
 10
-104.284082
 20
201.640708
 30
0.0
 10
-103.836495
 20
201.193121
 30
0.0
 10
-103.163361
 20
201.059226
 30
0.0
 10
-102.578560
 20
201.301458
 30
0.0
  0
SPLINE
  5
146
100
AcDbEntity
  8
Layer_1
 62
5
100
AcDbSpline
 70
8
 71
3
 72
8
 73
4
 74
0
 40
0
 40
0
 40
0
 40
0
 40
1
 40
1
 40
1
 40
1
 10
-102.578560
 20
201.301458
 30
0.0
 10
-101.993760
 20
201.543691
 30
0.0
 10
-101.612460
 20
202.114347
 30
0.0
 10
-101.612460
 20
202.747330
 30
0.0
  0
SPLINE
  5
147
100
AcDbEntity
  8
Layer_1
 62
5
100
AcDbSpline
 70
8
 71
3
 72
8
 73
4
 74
0
 40
0
 40
0
 40
0
 40
0
 40
1
 40
1
 40
1
 40
1
 10
-101.612460
 20
202.747330
 30
0.0
 10
-101.612460
 20
203.611656
 30
0.0
 10
-102.313134
 20
204.312330
 30
0.0
 10
-103.177460
 20
204.312330
 30
0.0
  0
LINE
  5
148
100
AcDbEntity
  8
Layer_1
 62
5
100
AcDbLine
 10
-103.177460
 20
204.312330
 30
0.0
 11
-103.177460
 21
204.312330
 31
0.0
  0
SPLINE
  5
149
100
AcDbEntity
  8
Layer_1
 62
5
100
AcDbSpline
 70
8
 71
3
 72
8
 73
4
 74
0
 40
0
 40
0
 40
0
 40
0
 40
1
 40
1
 40
1
 40
1
 10
25.076690
 20
212.835250
 30
0.0
 10
24.443707
 20
212.835250
 30
0.0
 10
23.873051
 20
212.453950
 30
0.0
 10
23.630818
 20
211.869150
 30
0.0
  0
SPLINE
  5
14a
100
AcDbEntity
  8
Layer_1
 62
5
100
AcDbSpline
 70
8
 71
3
 72
8
 73
4
 74
0
 40
0
 40
0
 40
0
 40
0
 40
1
 40
1
 40
1
 40
1
 10
23.630818
 20
211.869150
 30
0.0
 10
23.388586
 20
211.284349
 30
0.0
 10
23.522481
 20
210.611215
 30
0.0
 10
23.970068
 20
210.163628
 30
0.0
  0
SPLINE
  5
14b
100
AcDbEntity
  8
Layer_1
 62
5
100
AcDbSpline
 70
8
 71
3
 72
8
 73
4
 74
0
 40
0
 40
0
 40
0
 40
0
 40
1
 40
1
 40
1
 40
1
 10
23.970068
 20
210.163628
 30
0.0
 10
24.417655
 20
209.716041
 30
0.0
 10
25.090789
 20
209.582146
 30
0.0
 10
25.675590
 20
209.824378
 30
0.0
  0
SPLINE
  5
14c
100
AcDbEntity
  8
Layer_1
 62
5
100
AcDbSpline
 70
8
 71
3
 72
8
 73
4
 74
0
 40
0
 40
0
 40
0
 40
0
 40
1
 40
1
 40
1
 40
1
 10
25.675590
 20
209.824378
 30
0.0
 10
26.260390
 20
210.066611
 30
0.0
 10
26.641690
 20
210.637267
 30
0.0
 10
26.641690
 20
211.270250
 30
0.0
  0
SPLINE
  5
14d
100
AcDbEntity
  8
Layer_1
 62
5
100
AcDbSpline
 70
8
 71
3
 72
8
 73
4
 74
0
 40
0
 40
0
 40
0
 40
0
 40
1
 40
1
 40
1
 40
1
 10
26.641690
 20
211.270250
 30
0.0
 10
26.641690
 20
211.685314
 30
0.0
 10
26.476807
 20
212.083378
 30
0.0
 10
26.183312
 20
212.376872
 30
0.0
  0
SPLINE
  5
14e
100
AcDbEntity
  8
Layer_1
 62
5
100
AcDbSpline
 70
8
 71
3
 72
8
 73
4
 74
0
 40
0
 40
0
 40
0
 40
0
 40
1
 40
1
 40
1
 40
1
 10
26.183312
 20
212.376872
 30
0.0
 10
25.889818
 20
212.670367
 30
0.0
 10
25.491754
 20
212.835250
 30
0.0
 10
25.076690
 20
212.835250
 30
0.0
  0
LINE
  5
14f
100
AcDbEntity
  8
Layer_1
 62
5
100
AcDbLine
 10
25.076690
 20
212.835250
 30
0.0
 11
25.076690
 21
212.835250
 31
0.0
  0
SPLINE
  5
150
100
AcDbEntity
  8
Layer_1
 62
5
100
AcDbSpline
 70
8
 71
3
 72
8
 73
4
 74
0
 40
0
 40
0
 40
0
 40
0
 40
1
 40
1
 40
1
 40
1
 10
25.076690
 20
115.499670
 30
0.0
 10
24.443707
 20
115.499670
 30
0.0
 10
23.873051
 20
115.118370
 30
0.0
 10
23.630818
 20
114.533570
 30
0.0
  0
SPLINE
  5
151
100
AcDbEntity
  8
Layer_1
 62
5
100
AcDbSpline
 70
8
 71
3
 72
8
 73
4
 74
0
 40
0
 40
0
 40
0
 40
0
 40
1
 40
1
 40
1
 40
1
 10
23.630818
 20
114.533570
 30
0.0
 10
23.388586
 20
113.948769
 30
0.0
 10
23.522481
 20
113.275635
 30
0.0
 10
23.970068
 20
112.828048
 30
0.0
  0
SPLINE
  5
152
100
AcDbEntity
  8
Layer_1
 62
5
100
AcDbSpline
 70
8
 71
3
 72
8
 73
4
 74
0
 40
0
 40
0
 40
0
 40
0
 40
1
 40
1
 40
1
 40
1
 10
23.970068
 20
112.828048
 30
0.0
 10
24.417655
 20
112.380461
 30
0.0
 10
25.090789
 20
112.246566
 30
0.0
 10
25.675590
 20
112.488798
 30
0.0
  0
SPLINE
  5
153
100
AcDbEntity
  8
Layer_1
 62
5
100
AcDbSpline
 70
8
 71
3
 72
8
 73
4
 74
0
 40
0
 40
0
 40
0
 40
0
 40
1
 40
1
 40
1
 40
1
 10
25.675590
 20
112.488798
 30
0.0
 10
26.260390
 20
112.731031
 30
0.0
 10
26.641690
 20
113.301687
 30
0.0
 10
26.641690
 20
113.934670
 30
0.0
  0
SPLINE
  5
154
100
AcDbEntity
  8
Layer_1
 62
5
100
AcDbSpline
 70
8
 71
3
 72
8
 73
4
 74
0
 40
0
 40
0
 40
0
 40
0
 40
1
 40
1
 40
1
 40
1
 10
26.641690
 20
113.934670
 30
0.0
 10
26.641690
 20
114.349734
 30
0.0
 10
26.476807
 20
114.747798
 30
0.0
 10
26.183312
 20
115.041292
 30
0.0
  0
SPLINE
  5
155
100
AcDbEntity
  8
Layer_1
 62
5
100
AcDbSpline
 70
8
 71
3
 72
8
 73
4
 74
0
 40
0
 40
0
 40
0
 40
0
 40
1
 40
1
 40
1
 40
1
 10
26.183312
 20
115.041292
 30
0.0
 10
25.889818
 20
115.334787
 30
0.0
 10
25.491754
 20
115.499670
 30
0.0
 10
25.076690
 20
115.499670
 30
0.0
  0
LINE
  5
156
100
AcDbEntity
  8
Layer_1
 62
5
100
AcDbLine
 10
25.076690
 20
115.499670
 30
0.0
 11
25.076690
 21
115.499670
 31
0.0
  0
SPLINE
  5
157
100
AcDbEntity
  8
Layer_1
 62
5
100
AcDbSpline
 70
8
 71
3
 72
8
 73
4
 74
0
 40
0
 40
0
 40
0
 40
0
 40
1
 40
1
 40
1
 40
1
 10
25.076690
 20
169.417860
 30
0.0
 10
24.443707
 20
169.417860
 30
0.0
 10
23.873051
 20
169.036560
 30
0.0
 10
23.630818
 20
168.451760
 30
0.0
  0
SPLINE
  5
158
100
AcDbEntity
  8
Layer_1
 62
5
100
AcDbSpline
 70
8
 71
3
 72
8
 73
4
 74
0
 40
0
 40
0
 40
0
 40
0
 40
1
 40
1
 40
1
 40
1
 10
23.630818
 20
168.451760
 30
0.0
 10
23.388586
 20
167.866959
 30
0.0
 10
23.522481
 20
167.193825
 30
0.0
 10
23.970068
 20
166.746238
 30
0.0
  0
SPLINE
  5
159
100
AcDbEntity
  8
Layer_1
 62
5
100
AcDbSpline
 70
8
 71
3
 72
8
 73
4
 74
0
 40
0
 40
0
 40
0
 40
0
 40
1
 40
1
 40
1
 40
1
 10
23.970068
 20
166.746238
 30
0.0
 10
24.417655
 20
166.298651
 30
0.0
 10
25.090789
 20
166.164756
 30
0.0
 10
25.675590
 20
166.406988
 30
0.0
  0
SPLINE
  5
15a
100
AcDbEntity
  8
Layer_1
 62
5
100
AcDbSpline
 70
8
 71
3
 72
8
 73
4
 74
0
 40
0
 40
0
 40
0
 40
0
 40
1
 40
1
 40
1
 40
1
 10
25.675590
 20
166.406988
 30
0.0
 10
26.260390
 20
166.649221
 30
0.0
 10
26.641690
 20
167.219877
 30
0.0
 10
26.641690
 20
167.852860
 30
0.0
  0
SPLINE
  5
15b
100
AcDbEntity
  8
Layer_1
 62
5
100
AcDbSpline
 70
8
 71
3
 72
8
 73
4
 74
0
 40
0
 40
0
 40
0
 40
0
 40
1
 40
1
 40
1
 40
1
 10
26.641690
 20
167.852860
 30
0.0
 10
26.641690
 20
168.267924
 30
0.0
 10
26.476807
 20
168.665988
 30
0.0
 10
26.183312
 20
168.959482
 30
0.0
  0
SPLINE
  5
15c
100
AcDbEntity
  8
Layer_1
 62
5
100
AcDbSpline
 70
8
 71
3
 72
8
 73
4
 74
0
 40
0
 40
0
 40
0
 40
0
 40
1
 40
1
 40
1
 40
1
 10
26.183312
 20
168.959482
 30
0.0
 10
25.889818
 20
169.252977
 30
0.0
 10
25.491754
 20
169.417860
 30
0.0
 10
25.076690
 20
169.417860
 30
0.0
  0
LINE
  5
15d
100
AcDbEntity
  8
Layer_1
 62
5
100
AcDbLine
 10
25.076690
 20
169.417860
 30
0.0
 11
25.076690
 21
169.417860
 31
0.0
  0
SPLINE
  5
15e
100
AcDbEntity
  8
Layer_1
 62
5
100
AcDbSpline
 70
8
 71
3
 72
8
 73
4
 74
0
 40
0
 40
0
 40
0
 40
0
 40
1
 40
1
 40
1
 40
1
 10
177.215450
 20
115.478860
 30
0.0
 10
177.848433
 20
115.478860
 30
0.0
 10
178.419089
 20
115.097560
 30
0.0
 10
178.661322
 20
114.512760
 30
0.0
  0
SPLINE
  5
15f
100
AcDbEntity
  8
Layer_1
 62
5
100
AcDbSpline
 70
8
 71
3
 72
8
 73
4
 74
0
 40
0
 40
0
 40
0
 40
0
 40
1
 40
1
 40
1
 40
1
 10
178.661322
 20
114.512760
 30
0.0
 10
178.903554
 20
113.927959
 30
0.0
 10
178.769659
 20
113.254825
 30
0.0
 10
178.322072
 20
112.807238
 30
0.0
  0
SPLINE
  5
160
100
AcDbEntity
  8
Layer_1
 62
5
100
AcDbSpline
 70
8
 71
3
 72
8
 73
4
 74
0
 40
0
 40
0
 40
0
 40
0
 40
1
 40
1
 40
1
 40
1
 10
178.322072
 20
112.807238
 30
0.0
 10
177.874485
 20
112.359651
 30
0.0
 10
177.201351
 20
112.225756
 30
0.0
 10
176.616550
 20
112.467988
 30
0.0
  0
SPLINE
  5
161
100
AcDbEntity
  8
Layer_1
 62
5
100
AcDbSpline
 70
8
 71
3
 72
8
 73
4
 74
0
 40
0
 40
0
 40
0
 40
0
 40
1
 40
1
 40
1
 40
1
 10
176.616550
 20
112.467988
 30
0.0
 10
176.031750
 20
112.710221
 30
0.0
 10
175.650450
 20
113.280877
 30
0.0
 10
175.650450
 20
113.913860
 30
0.0
  0
SPLINE
  5
162
100
AcDbEntity
  8
Layer_1
 62
5
100
AcDbSpline
 70
8
 71
3
 72
8
 73
4
 74
0
 40
0
 40
0
 40
0
 40
0
 40
1
 40
1
 40
1
 40
1
 10
175.650450
 20
113.913860
 30
0.0
 10
175.650450
 20
114.328924
 30
0.0
 10
175.815333
 20
114.726988
 30
0.0
 10
176.108828
 20
115.020482
 30
0.0
  0
SPLINE
  5
163
100
AcDbEntity
  8
Layer_1
 62
5
100
AcDbSpline
 70
8
 71
3
 72
8
 73
4
 74
0
 40
0
 40
0
 40
0
 40
0
 40
1
 40
1
 40
1
 40
1
 10
176.108828
 20
115.020482
 30
0.0
 10
176.402322
 20
115.313977
 30
0.0
 10
176.800386
 20
115.478860
 30
0.0
 10
177.215450
 20
115.478860
 30
0.0
  0
LINE
  5
164
100
AcDbEntity
  8
Layer_1
 62
5
100
AcDbLine
 10
177.215450
 20
115.478860
 30
0.0
 11
177.215450
 21
115.478860
 31
0.0
  0
SPLINE
  5
165
100
AcDbEntity
  8
Layer_1
 62
5
100
AcDbSpline
 70
8
 71
3
 72
8
 73
4
 74
0
 40
0
 40
0
 40
0
 40
0
 40
1
 40
1
 40
1
 40
1
 10
177.215450
 20
204.312330
 30
0.0
 10
177.848433
 20
204.312330
 30
0.0
 10
178.419089
 20
203.931030
 30
0.0
 10
178.661322
 20
203.346230
 30
0.0
  0
SPLINE
  5
166
100
AcDbEntity
  8
Layer_1
 62
5
100
AcDbSpline
 70
8
 71
3
 72
8
 73
4
 74
0
 40
0
 40
0
 40
0
 40
0
 40
1
 40
1
 40
1
 40
1
 10
178.661322
 20
203.346230
 30
0.0
 10
178.903554
 20
202.761429
 30
0.0
 10
178.769659
 20
202.088295
 30
0.0
 10
178.322072
 20
201.640708
 30
0.0
  0
SPLINE
  5
167
100
AcDbEntity
  8
Layer_1
 62
5
100
AcDbSpline
 70
8
 71
3
 72
8
 73
4
 74
0
 40
0
 40
0
 40
0
 40
0
 40
1
 40
1
 40
1
 40
1
 10
178.322072
 20
201.640708
 30
0.0
 10
177.874485
 20
201.193121
 30
0.0
 10
177.201351
 20
201.059226
 30
0.0
 10
176.616550
 20
201.301458
 30
0.0
  0
SPLINE
  5
168
100
AcDbEntity
  8
Layer_1
 62
5
100
AcDbSpline
 70
8
 71
3
 72
8
 73
4
 74
0
 40
0
 40
0
 40
0
 40
0
 40
1
 40
1
 40
1
 40
1
 10
176.616550
 20
201.301458
 30
0.0
 10
176.031750
 20
201.543691
 30
0.0
 10
175.650450
 20
202.114347
 30
0.0
 10
175.650450
 20
202.747330
 30
0.0
  0
SPLINE
  5
169
100
AcDbEntity
  8
Layer_1
 62
5
100
AcDbSpline
 70
8
 71
3
 72
8
 73
4
 74
0
 40
0
 40
0
 40
0
 40
0
 40
1
 40
1
 40
1
 40
1
 10
175.650450
 20
202.747330
 30
0.0
 10
175.650450
 20
203.162394
 30
0.0
 10
175.815333
 20
203.560458
 30
0.0
 10
176.108828
 20
203.853952
 30
0.0
  0
SPLINE
  5
16a
100
AcDbEntity
  8
Layer_1
 62
5
100
AcDbSpline
 70
8
 71
3
 72
8
 73
4
 74
0
 40
0
 40
0
 40
0
 40
0
 40
1
 40
1
 40
1
 40
1
 10
176.108828
 20
203.853952
 30
0.0
 10
176.402322
 20
204.147447
 30
0.0
 10
176.800386
 20
204.312330
 30
0.0
 10
177.215450
 20
204.312330
 30
0.0
  0
LINE
  5
16b
100
AcDbEntity
  8
Layer_1
 62
5
100
AcDbLine
 10
177.215450
 20
204.312330
 30
0.0
 11
177.215450
 21
204.312330
 31
0.0
  0
SPLINE
  5
16c
100
AcDbEntity
  8
Layer_1
 62
5
100
AcDbSpline
 70
8
 71
3
 72
8
 73
4
 74
0
 40
0
 40
0
 40
0
 40
0
 40
1
 40
1
 40
1
 40
1
 10
49.001310
 20
212.835250
 30
0.0
 10
49.634293
 20
212.835250
 30
0.0
 10
50.204949
 20
212.453950
 30
0.0
 10
50.447182
 20
211.869150
 30
0.0
  0
SPLINE
  5
16d
100
AcDbEntity
  8
Layer_1
 62
5
100
AcDbSpline
 70
8
 71
3
 72
8
 73
4
 74
0
 40
0
 40
0
 40
0
 40
0
 40
1
 40
1
 40
1
 40
1
 10
50.447182
 20
211.869150
 30
0.0
 10
50.689414
 20
211.284349
 30
0.0
 10
50.555519
 20
210.611215
 30
0.0
 10
50.107932
 20
210.163628
 30
0.0
  0
SPLINE
  5
16e
100
AcDbEntity
  8
Layer_1
 62
5
100
AcDbSpline
 70
8
 71
3
 72
8
 73
4
 74
0
 40
0
 40
0
 40
0
 40
0
 40
1
 40
1
 40
1
 40
1
 10
50.107932
 20
210.163628
 30
0.0
 10
49.660345
 20
209.716041
 30
0.0
 10
48.987211
 20
209.582146
 30
0.0
 10
48.402410
 20
209.824378
 30
0.0
  0
SPLINE
  5
16f
100
AcDbEntity
  8
Layer_1
 62
5
100
AcDbSpline
 70
8
 71
3
 72
8
 73
4
 74
0
 40
0
 40
0
 40
0
 40
0
 40
1
 40
1
 40
1
 40
1
 10
48.402410
 20
209.824378
 30
0.0
 10
47.817610
 20
210.066611
 30
0.0
 10
47.436310
 20
210.637267
 30
0.0
 10
47.436310
 20
211.270250
 30
0.0
  0
SPLINE
  5
170
100
AcDbEntity
  8
Layer_1
 62
5
100
AcDbSpline
 70
8
 71
3
 72
8
 73
4
 74
0
 40
0
 40
0
 40
0
 40
0
 40
1
 40
1
 40
1
 40
1
 10
47.436310
 20
211.270250
 30
0.0
 10
47.436310
 20
211.685314
 30
0.0
 10
47.601193
 20
212.083378
 30
0.0
 10
47.894688
 20
212.376872
 30
0.0
  0
SPLINE
  5
171
100
AcDbEntity
  8
Layer_1
 62
5
100
AcDbSpline
 70
8
 71
3
 72
8
 73
4
 74
0
 40
0
 40
0
 40
0
 40
0
 40
1
 40
1
 40
1
 40
1
 10
47.894688
 20
212.376872
 30
0.0
 10
48.188182
 20
212.670367
 30
0.0
 10
48.586246
 20
212.835250
 30
0.0
 10
49.001310
 20
212.835250
 30
0.0
  0
LINE
  5
172
100
AcDbEntity
  8
Layer_1
 62
5
100
AcDbLine
 10
49.001310
 20
212.835250
 30
0.0
 11
49.001310
 21
212.835250
 31
0.0
  0
SPLINE
  5
173
100
AcDbEntity
  8
Layer_1
 62
5
100
AcDbSpline
 70
8
 71
3
 72
8
 73
4
 74
0
 40
0
 40
0
 40
0
 40
0
 40
1
 40
1
 40
1
 40
1
 10
49.001310
 20
115.499670
 30
0.0
 10
49.634293
 20
115.499670
 30
0.0
 10
50.204949
 20
115.118370
 30
0.0
 10
50.447182
 20
114.533570
 30
0.0
  0
SPLINE
  5
174
100
AcDbEntity
  8
Layer_1
 62
5
100
AcDbSpline
 70
8
 71
3
 72
8
 73
4
 74
0
 40
0
 40
0
 40
0
 40
0
 40
1
 40
1
 40
1
 40
1
 10
50.447182
 20
114.533570
 30
0.0
 10
50.689414
 20
113.948769
 30
0.0
 10
50.555519
 20
113.275635
 30
0.0
 10
50.107932
 20
112.828048
 30
0.0
  0
SPLINE
  5
175
100
AcDbEntity
  8
Layer_1
 62
5
100
AcDbSpline
 70
8
 71
3
 72
8
 73
4
 74
0
 40
0
 40
0
 40
0
 40
0
 40
1
 40
1
 40
1
 40
1
 10
50.107932
 20
112.828048
 30
0.0
 10
49.660345
 20
112.380461
 30
0.0
 10
48.987211
 20
112.246566
 30
0.0
 10
48.402410
 20
112.488798
 30
0.0
  0
SPLINE
  5
176
100
AcDbEntity
  8
Layer_1
 62
5
100
AcDbSpline
 70
8
 71
3
 72
8
 73
4
 74
0
 40
0
 40
0
 40
0
 40
0
 40
1
 40
1
 40
1
 40
1
 10
48.402410
 20
112.488798
 30
0.0
 10
47.817610
 20
112.731031
 30
0.0
 10
47.436310
 20
113.301687
 30
0.0
 10
47.436310
 20
113.934670
 30
0.0
  0
SPLINE
  5
177
100
AcDbEntity
  8
Layer_1
 62
5
100
AcDbSpline
 70
8
 71
3
 72
8
 73
4
 74
0
 40
0
 40
0
 40
0
 40
0
 40
1
 40
1
 40
1
 40
1
 10
47.436310
 20
113.934670
 30
0.0
 10
47.436310
 20
114.349734
 30
0.0
 10
47.601193
 20
114.747798
 30
0.0
 10
47.894688
 20
115.041292
 30
0.0
  0
SPLINE
  5
178
100
AcDbEntity
  8
Layer_1
 62
5
100
AcDbSpline
 70
8
 71
3
 72
8
 73
4
 74
0
 40
0
 40
0
 40
0
 40
0
 40
1
 40
1
 40
1
 40
1
 10
47.894688
 20
115.041292
 30
0.0
 10
48.188182
 20
115.334787
 30
0.0
 10
48.586246
 20
115.499670
 30
0.0
 10
49.001310
 20
115.499670
 30
0.0
  0
LINE
  5
179
100
AcDbEntity
  8
Layer_1
 62
5
100
AcDbLine
 10
49.001310
 20
115.499670
 30
0.0
 11
49.001310
 21
115.499670
 31
0.0
  0
SPLINE
  5
17a
100
AcDbEntity
  8
Layer_1
 62
5
100
AcDbSpline
 70
8
 71
3
 72
8
 73
4
 74
0
 40
0
 40
0
 40
0
 40
0
 40
1
 40
1
 40
1
 40
1
 10
49.001310
 20
169.417860
 30
0.0
 10
49.634293
 20
169.417860
 30
0.0
 10
50.204949
 20
169.036560
 30
0.0
 10
50.447182
 20
168.451760
 30
0.0
  0
SPLINE
  5
17b
100
AcDbEntity
  8
Layer_1
 62
5
100
AcDbSpline
 70
8
 71
3
 72
8
 73
4
 74
0
 40
0
 40
0
 40
0
 40
0
 40
1
 40
1
 40
1
 40
1
 10
50.447182
 20
168.451760
 30
0.0
 10
50.689414
 20
167.866959
 30
0.0
 10
50.555519
 20
167.193825
 30
0.0
 10
50.107932
 20
166.746238
 30
0.0
  0
SPLINE
  5
17c
100
AcDbEntity
  8
Layer_1
 62
5
100
AcDbSpline
 70
8
 71
3
 72
8
 73
4
 74
0
 40
0
 40
0
 40
0
 40
0
 40
1
 40
1
 40
1
 40
1
 10
50.107932
 20
166.746238
 30
0.0
 10
49.660345
 20
166.298651
 30
0.0
 10
48.987211
 20
166.164756
 30
0.0
 10
48.402410
 20
166.406988
 30
0.0
  0
SPLINE
  5
17d
100
AcDbEntity
  8
Layer_1
 62
5
100
AcDbSpline
 70
8
 71
3
 72
8
 73
4
 74
0
 40
0
 40
0
 40
0
 40
0
 40
1
 40
1
 40
1
 40
1
 10
48.402410
 20
166.406988
 30
0.0
 10
47.817610
 20
166.649221
 30
0.0
 10
47.436310
 20
167.219877
 30
0.0
 10
47.436310
 20
167.852860
 30
0.0
  0
SPLINE
  5
17e
100
AcDbEntity
  8
Layer_1
 62
5
100
AcDbSpline
 70
8
 71
3
 72
8
 73
4
 74
0
 40
0
 40
0
 40
0
 40
0
 40
1
 40
1
 40
1
 40
1
 10
47.436310
 20
167.852860
 30
0.0
 10
47.436310
 20
168.267924
 30
0.0
 10
47.601193
 20
168.665988
 30
0.0
 10
47.894688
 20
168.959482
 30
0.0
  0
SPLINE
  5
17f
100
AcDbEntity
  8
Layer_1
 62
5
100
AcDbSpline
 70
8
 71
3
 72
8
 73
4
 74
0
 40
0
 40
0
 40
0
 40
0
 40
1
 40
1
 40
1
 40
1
 10
47.894688
 20
168.959482
 30
0.0
 10
48.188182
 20
169.252977
 30
0.0
 10
48.586246
 20
169.417860
 30
0.0
 10
49.001310
 20
169.417860
 30
0.0
  0
LINE
  5
180
100
AcDbEntity
  8
Layer_1
 62
5
100
AcDbLine
 10
49.001310
 20
169.417860
 30
0.0
 11
49.001310
 21
169.417860
 31
0.0
  0
LINE
  5
181
100
AcDbEntity
  8
Layer_1
 62
5
100
AcDbLine
 10
-97.922380
 20
196.960990
 30
0.0
 11
-98.432420
 21
196.961020
 31
0.0
  0
SPLINE
  5
182
100
AcDbEntity
  8
Layer_1
 62
5
100
AcDbSpline
 70
8
 71
3
 72
8
 73
4
 74
0
 40
0
 40
0
 40
0
 40
0
 40
1
 40
1
 40
1
 40
1
 10
-98.432420
 20
196.961020
 30
0.0
 10
-98.785200
 20
196.961040
 30
0.0
 10
-99.137980
 20
196.961050
 30
0.0
 10
-99.490760
 20
196.961050
 30
0.0
  0
LINE
  5
183
100
AcDbEntity
  8
Layer_1
 62
5
100
AcDbLine
 10
-99.490760
 20
196.961050
 30
0.0
 11
-103.348430
 21
196.961050
 31
0.0
  0
SPLINE
  5
184
100
AcDbEntity
  8
Layer_1
 62
5
100
AcDbSpline
 70
8
 71
3
 72
8
 73
4
 74
0
 40
0
 40
0
 40
0
 40
0
 40
1
 40
1
 40
1
 40
1
 10
-103.348430
 20
196.961050
 30
0.0
 10
-103.640680
 20
196.961050
 30
0.0
 10
-103.877580
 20
196.724130
 30
0.0
 10
-103.877560
 20
196.431880
 30
0.0
  0
SPLINE
  5
185
100
AcDbEntity
  8
Layer_1
 62
5
100
AcDbSpline
 70
8
 71
3
 72
8
 73
4
 74
0
 40
0
 40
0
 40
0
 40
0
 40
1
 40
1
 40
1
 40
1
 10
-103.877560
 20
196.431880
 30
0.0
 10
-103.875560
 20
171.028510
 30
0.0
 10
-103.877560
 20
145.631840
 30
0.0
 10
-103.875560
 20
120.228500
 30
0.0
  0
SPLINE
  5
186
100
AcDbEntity
  8
Layer_1
 62
5
100
AcDbSpline
 70
8
 71
3
 72
8
 73
4
 74
0
 40
0
 40
0
 40
0
 40
0
 40
1
 40
1
 40
1
 40
1
 10
-103.875560
 20
120.228500
 30
0.0
 10
-103.875540
 20
119.936250
 30
0.0
 10
-103.638600
 20
119.699330
 30
0.0
 10
-103.346350
 20
119.699330
 30
0.0
  0
LINE
  5
187
100
AcDbEntity
  8
Layer_1
 62
5
100
AcDbLine
 10
-103.346350
 20
119.699330
 30
0.0
 11
-99.998300
 21
119.699330
 31
0.0
  0
LINE
  5
188
100
AcDbEntity
  8
Layer_1
 62
5
100
AcDbLine
 10
-99.998300
 20
119.699330
 30
0.0
 11
-63.531510
 21
119.699330
 31
0.0
  0
SPLINE
  5
189
100
AcDbEntity
  8
Layer_1
 62
5
100
AcDbSpline
 70
8
 71
3
 72
8
 73
4
 74
0
 40
0
 40
0
 40
0
 40
0
 40
1
 40
1
 40
1
 40
1
 10
-63.531510
 20
119.699330
 30
0.0
 10
-62.947010
 20
119.699330
 30
0.0
 10
-61.999350
 20
119.699170
 30
0.0
 10
-61.414850
 20
119.699030
 30
0.0
  0
SPLINE
  5
18a
100
AcDbEntity
  8
Layer_1
 62
5
100
AcDbSpline
 70
8
 71
3
 72
8
 73
4
 74
0
 40
0
 40
0
 40
0
 40
0
 40
1
 40
1
 40
1
 40
1
 10
-61.414850
 20
119.699030
 30
0.0
 10
-49.526700
 20
119.696030
 30
0.0
 10
-37.638540
 20
119.707030
 30
0.0
 10
-25.750390
 20
119.688530
 30
0.0
  0
SPLINE
  5
18b
100
AcDbEntity
  8
Layer_1
 62
5
100
AcDbSpline
 70
8
 71
3
 72
8
 73
4
 74
0
 40
0
 40
0
 40
0
 40
0
 40
1
 40
1
 40
1
 40
1
 10
-25.750390
 20
119.688530
 30
0.0
 10
-25.458140
 20
119.688070
 30
0.0
 10
-24.984310
 20
119.687750
 30
0.0
 10
-24.692060
 20
119.687840
 30
0.0
  0
LINE
  5
18c
100
AcDbEntity
  8
Layer_1
 62
5
100
AcDbLine
 10
-24.692060
 20
119.687840
 30
0.0
 11
10.716400
 21
119.699240
 31
0.0
  0
SPLINE
  5
18d
100
AcDbEntity
  8
Layer_1
 62
5
100
AcDbSpline
 70
8
 71
3
 72
8
 73
4
 74
0
 40
0
 40
0
 40
0
 40
0
 40
1
 40
1
 40
1
 40
1
 10
10.716400
 20
119.699240
 30
0.0
 10
11.069180
 20
119.699353
 30
0.0
 10
11.421960
 20
119.699410
 30
0.0
 10
11.774740
 20
119.699410
 30
0.0
  0
LINE
  5
18e
100
AcDbEntity
  8
Layer_1
 62
5
100
AcDbLine
 10
11.774740
 20
119.699410
 30
0.0
 11
18.364180
 21
119.699410
 31
0.0
  0
SPLINE
  5
18f
100
AcDbEntity
  8
Layer_1
 62
5
100
AcDbSpline
 70
8
 71
3
 72
8
 73
4
 74
0
 40
0
 40
0
 40
0
 40
0
 40
1
 40
1
 40
1
 40
1
 10
18.364180
 20
119.699410
 30
0.0
 10
18.504525
 20
119.699409
 30
0.0
 10
18.639122
 20
119.755161
 30
0.0
 10
18.738361
 20
119.854399
 30
0.0
  0
SPLINE
  5
190
100
AcDbEntity
  8
Layer_1
 62
5
100
AcDbSpline
 70
8
 71
3
 72
8
 73
4
 74
0
 40
0
 40
0
 40
0
 40
0
 40
1
 40
1
 40
1
 40
1
 10
18.738361
 20
119.854399
 30
0.0
 10
18.837599
 20
119.953638
 30
0.0
 10
18.893351
 20
120.088235
 30
0.0
 10
18.893350
 20
120.228580
 30
0.0
  0
LINE
  5
191
100
AcDbEntity
  8
Layer_1
 62
5
100
AcDbLine
 10
18.893350
 20
120.228580
 30
0.0
 11
18.893350
 21
138.221030
 31
0.0
  0
SPLINE
  5
192
100
AcDbEntity
  8
Layer_1
 62
5
100
AcDbSpline
 70
8
 71
3
 72
8
 73
4
 74
0
 40
0
 40
0
 40
0
 40
0
 40
1
 40
1
 40
1
 40
1
 10
18.893350
 20
138.221030
 30
0.0
 10
18.893349
 20
138.361375
 30
0.0
 10
18.949101
 20
138.495972
 30
0.0
 10
19.048339
 20
138.595211
 30
0.0
  0
SPLINE
  5
193
100
AcDbEntity
  8
Layer_1
 62
5
100
AcDbSpline
 70
8
 71
3
 72
8
 73
4
 74
0
 40
0
 40
0
 40
0
 40
0
 40
1
 40
1
 40
1
 40
1
 10
19.048339
 20
138.595211
 30
0.0
 10
19.147578
 20
138.694449
 30
0.0
 10
19.282175
 20
138.750201
 30
0.0
 10
19.422520
 20
138.750200
 30
0.0
  0
LINE
  5
194
100
AcDbEntity
  8
Layer_1
 62
5
100
AcDbLine
 10
19.422520
 20
138.750200
 30
0.0
 11
25.241790
 21
138.750200
 31
0.0
  0
SPLINE
  5
195
100
AcDbEntity
  8
Layer_1
 62
5
100
AcDbSpline
 70
8
 71
3
 72
8
 73
4
 74
0
 40
0
 40
0
 40
0
 40
0
 40
1
 40
1
 40
1
 40
1
 10
25.241790
 20
138.750200
 30
0.0
 10
25.382135
 20
138.750199
 30
0.0
 10
25.516732
 20
138.805951
 30
0.0
 10
25.615971
 20
138.905189
 30
0.0
  0
SPLINE
  5
196
100
AcDbEntity
  8
Layer_1
 62
5
100
AcDbSpline
 70
8
 71
3
 72
8
 73
4
 74
0
 40
0
 40
0
 40
0
 40
0
 40
1
 40
1
 40
1
 40
1
 10
25.615971
 20
138.905189
 30
0.0
 10
25.715209
 20
139.004428
 30
0.0
 10
25.770961
 20
139.139025
 30
0.0
 10
25.770960
 20
139.279370
 30
0.0
  0
LINE
  5
197
100
AcDbEntity
  8
Layer_1
 62
5
100
AcDbLine
 10
25.770960
 20
139.279370
 30
0.0
 11
25.770960
 21
158.330510
 31
0.0
  0
SPLINE
  5
198
100
AcDbEntity
  8
Layer_1
 62
5
100
AcDbSpline
 70
8
 71
3
 72
8
 73
4
 74
0
 40
0
 40
0
 40
0
 40
0
 40
1
 40
1
 40
1
 40
1
 10
25.770960
 20
158.330510
 30
0.0
 10
25.770961
 20
158.470855
 30
0.0
 10
25.715209
 20
158.605452
 30
0.0
 10
25.615971
 20
158.704691
 30
0.0
  0
SPLINE
  5
199
100
AcDbEntity
  8
Layer_1
 62
5
100
AcDbSpline
 70
8
 71
3
 72
8
 73
4
 74
0
 40
0
 40
0
 40
0
 40
0
 40
1
 40
1
 40
1
 40
1
 10
25.615971
 20
158.704691
 30
0.0
 10
25.516732
 20
158.803929
 30
0.0
 10
25.382135
 20
158.859681
 30
0.0
 10
25.241790
 20
158.859680
 30
0.0
  0
LINE
  5
19a
100
AcDbEntity
  8
Layer_1
 62
5
100
AcDbLine
 10
25.241790
 20
158.859680
 30
0.0
 11
19.422520
 21
158.859680
 31
0.0
  0
SPLINE
  5
19b
100
AcDbEntity
  8
Layer_1
 62
5
100
AcDbSpline
 70
8
 71
3
 72
8
 73
4
 74
0
 40
0
 40
0
 40
0
 40
0
 40
1
 40
1
 40
1
 40
1
 10
19.422520
 20
158.859680
 30
0.0
 10
19.282175
 20
158.859679
 30
0.0
 10
19.147578
 20
158.915431
 30
0.0
 10
19.048339
 20
159.014669
 30
0.0
  0
SPLINE
  5
19c
100
AcDbEntity
  8
Layer_1
 62
5
100
AcDbSpline
 70
8
 71
3
 72
8
 73
4
 74
0
 40
0
 40
0
 40
0
 40
0
 40
1
 40
1
 40
1
 40
1
 10
19.048339
 20
159.014669
 30
0.0
 10
18.949101
 20
159.113908
 30
0.0
 10
18.893349
 20
159.248505
 30
0.0
 10
18.893350
 20
159.388850
 30
0.0
  0
LINE
  5
19d
100
AcDbEntity
  8
Layer_1
 62
5
100
AcDbLine
 10
18.893350
 20
159.388850
 30
0.0
 11
18.893350
 21
177.380890
 31
0.0
  0
SPLINE
  5
19e
100
AcDbEntity
  8
Layer_1
 62
5
100
AcDbSpline
 70
8
 71
3
 72
8
 73
4
 74
0
 40
0
 40
0
 40
0
 40
0
 40
1
 40
1
 40
1
 40
1
 10
18.893350
 20
177.380890
 30
0.0
 10
18.893349
 20
177.521227
 30
0.0
 10
18.949104
 20
177.655814
 30
0.0
 10
19.048345
 20
177.755039
 30
0.0
  0
SPLINE
  5
19f
100
AcDbEntity
  8
Layer_1
 62
5
100
AcDbSpline
 70
8
 71
3
 72
8
 73
4
 74
0
 40
0
 40
0
 40
0
 40
0
 40
1
 40
1
 40
1
 40
1
 10
19.048345
 20
177.755039
 30
0.0
 10
19.147586
 20
177.854263
 30
0.0
 10
19.282183
 20
177.909995
 30
0.0
 10
19.422520
 20
177.909970
 30
0.0
  0
LINE
  5
1a0
100
AcDbEntity
  8
Layer_1
 62
5
100
AcDbLine
 10
19.422520
 20
177.909970
 30
0.0
 11
30.245300
 21
177.907970
 31
0.0
  0
SPLINE
  5
1a1
100
AcDbEntity
  8
Layer_1
 62
5
100
AcDbSpline
 70
8
 71
3
 72
8
 73
4
 74
0
 40
0
 40
0
 40
0
 40
0
 40
1
 40
1
 40
1
 40
1
 10
30.245300
 20
177.907970
 30
0.0
 10
30.537568
 20
177.907923
 30
0.0
 10
30.774472
 20
177.670978
 30
0.0
 10
30.774470
 20
177.378710
 30
0.0
  0
LINE
  5
1a2
100
AcDbEntity
  8
Layer_1
 62
5
100
AcDbLine
 10
30.774470
 20
177.378710
 30
0.0
 11
30.774470
 21
110.789870
 31
0.0
  0
SPLINE
  5
1a3
100
AcDbEntity
  8
Layer_1
 62
5
100
AcDbSpline
 70
8
 71
3
 72
8
 73
4
 74
0
 40
0
 40
0
 40
0
 40
0
 40
1
 40
1
 40
1
 40
1
 10
30.774470
 20
110.789870
 30
0.0
 10
30.774472
 20
110.451558
 30
0.0
 10
30.637666
 20
110.127624
 30
0.0
 10
30.395160
 20
109.891730
 30
0.0
  0
LINE
  5
1a4
100
AcDbEntity
  8
Layer_1
 62
5
100
AcDbLine
 10
30.395160
 20
109.891730
 30
0.0
 11
27.977980
 21
107.540490
 31
0.0
  0
SPLINE
  5
1a5
100
AcDbEntity
  8
Layer_1
 62
5
100
AcDbSpline
 70
8
 71
3
 72
8
 73
4
 74
0
 40
0
 40
0
 40
0
 40
0
 40
1
 40
1
 40
1
 40
1
 10
27.977980
 20
107.540490
 30
0.0
 10
27.734777
 20
107.303919
 30
0.0
 10
27.408784
 20
107.171706
 30
0.0
 10
27.069500
 20
107.172040
 30
0.0
  0
LINE
  5
1a6
100
AcDbEntity
  8
Layer_1
 62
5
100
AcDbLine
 10
27.069500
 20
107.172040
 30
0.0
 11
5.225710
 21
107.193640
 31
0.0
  0
SPLINE
  5
1a7
100
AcDbEntity
  8
Layer_1
 62
5
100
AcDbSpline
 70
8
 71
3
 72
8
 73
4
 74
0
 40
0
 40
0
 40
0
 40
0
 40
1
 40
1
 40
1
 40
1
 10
5.225710
 20
107.193640
 30
0.0
 10
4.933460
 20
107.193930
 30
0.0
 10
4.459620
 20
107.193960
 30
0.0
 10
4.167370
 20
107.193730
 30
0.0
  0
SPLINE
  5
1a8
100
AcDbEntity
  8
Layer_1
 62
5
100
AcDbSpline
 70
8
 71
3
 72
8
 73
4
 74
0
 40
0
 40
0
 40
0
 40
0
 40
1
 40
1
 40
1
 40
1
 10
4.167370
 20
107.193730
 30
0.0
 10
-13.421420
 20
107.179530
 30
0.0
 10
-29.660950
 20
107.184730
 30
0.0
 10
-45.752290
 20
107.188730
 30
0.0
  0
SPLINE
  5
1a9
100
AcDbEntity
  8
Layer_1
 62
5
100
AcDbSpline
 70
8
 71
3
 72
8
 73
4
 74
0
 40
0
 40
0
 40
0
 40
0
 40
1
 40
1
 40
1
 40
1
 10
-45.752290
 20
107.188730
 30
0.0
 10
-46.336790
 20
107.188880
 30
0.0
 10
-47.284450
 20
107.189040
 30
0.0
 10
-47.868950
 20
107.189110
 30
0.0
  0
LINE
  5
1aa
100
AcDbEntity
  8
Layer_1
 62
5
100
AcDbLine
 10
-47.868950
 20
107.189110
 30
0.0
 11
-63.508970
 21
107.191110
 31
0.0
  0
SPLINE
  5
1ab
100
AcDbEntity
  8
Layer_1
 62
5
100
AcDbSpline
 70
8
 71
3
 72
8
 73
4
 74
0
 40
0
 40
0
 40
0
 40
0
 40
1
 40
1
 40
1
 40
1
 10
-63.508970
 20
107.191110
 30
0.0
 10
-64.093470
 20
107.191180
 30
0.0
 10
-65.041130
 20
107.191200
 30
0.0
 10
-65.625630
 20
107.191140
 30
0.0
  0
SPLINE
  5
1ac
100
AcDbEntity
  8
Layer_1
 62
5
100
AcDbSpline
 70
8
 71
3
 72
8
 73
4
 74
0
 40
0
 40
0
 40
0
 40
0
 40
1
 40
1
 40
1
 40
1
 10
-65.625630
 20
107.191140
 30
0.0
 10
-78.215250
 20
107.190140
 30
0.0
 10
-91.003280
 20
107.182140
 30
0.0
 10
-104.557430
 20
107.156040
 30
0.0
  0
SPLINE
  5
1ad
100
AcDbEntity
  8
Layer_1
 62
5
100
AcDbSpline
 70
8
 71
3
 72
8
 73
4
 74
0
 40
0
 40
0
 40
0
 40
0
 40
1
 40
1
 40
1
 40
1
 10
-104.557430
 20
107.156040
 30
0.0
 10
-105.141930
 20
107.155040
 30
0.0
 10
-105.959860
 20
107.479740
 30
0.0
 10
-106.384330
 20
107.881570
 30
0.0
  0
LINE
  5
1ae
100
AcDbEntity
  8
Layer_1
 62
5
100
AcDbLine
 10
-106.384330
 20
107.881570
 30
0.0
 11
-108.104450
 21
109.509950
 31
0.0
  0
SPLINE
  5
1af
100
AcDbEntity
  8
Layer_1
 62
5
100
AcDbSpline
 70
8
 71
3
 72
8
 73
4
 74
0
 40
0
 40
0
 40
0
 40
0
 40
1
 40
1
 40
1
 40
1
 10
-108.104450
 20
109.509950
 30
0.0
 10
-108.595079
 20
109.974412
 30
0.0
 10
-108.873030
 20
110.620256
 30
0.0
 10
-108.873050
 20
111.295860
 30
0.0
  0
LINE
  5
1b0
100
AcDbEntity
  8
Layer_1
 62
5
100
AcDbLine
 10
-108.873050
 20
111.295860
 30
0.0
 11
-108.876050
 21
213.079580
 31
0.0
  0
SPLINE
  5
1b1
100
AcDbEntity
  8
Layer_1
 62
5
100
AcDbSpline
 70
8
 71
3
 72
8
 73
4
 74
0
 40
0
 40
0
 40
0
 40
0
 40
1
 40
1
 40
1
 40
1
 10
-108.876050
 20
213.079580
 30
0.0
 10
-108.876067
 20
213.751754
 30
0.0
 10
-108.584274
 20
214.390829
 30
0.0
 10
-108.076340
 20
214.831080
 30
0.0
  0
LINE
  5
1b2
100
AcDbEntity
  8
Layer_1
 62
5
100
AcDbLine
 10
-108.076340
 20
214.831080
 30
0.0
 11
-106.415770
 21
216.270390
 31
0.0
  0
SPLINE
  5
1b3
100
AcDbEntity
  8
Layer_1
 62
5
100
AcDbSpline
 70
8
 71
3
 72
8
 73
4
 74
0
 40
0
 40
0
 40
0
 40
0
 40
1
 40
1
 40
1
 40
1
 10
-106.415770
 20
216.270390
 30
0.0
 10
-105.899975
 20
216.717456
 30
0.0
 10
-105.240278
 20
216.963555
 30
0.0
 10
-104.557700
 20
216.963540
 30
0.0
  0
LINE
  5
1b4
100
AcDbEntity
  8
Layer_1
 62
5
100
AcDbLine
 10
-104.557700
 20
216.963540
 30
0.0
 11
26.555660
 21
216.960540
 31
0.0
  0
SPLINE
  5
1b5
100
AcDbEntity
  8
Layer_1
 62
5
100
AcDbSpline
 70
8
 71
3
 72
8
 73
4
 74
0
 40
0
 40
0
 40
0
 40
0
 40
1
 40
1
 40
1
 40
1
 10
26.555660
 20
216.960540
 30
0.0
 10
27.237167
 20
216.960525
 30
0.0
 10
27.894727
 20
216.709158
 30
0.0
 10
28.402460
 20
216.254560
 30
0.0
  0
LINE
  5
1b6
100
AcDbEntity
  8
Layer_1
 62
5
100
AcDbLine
 10
28.402460
 20
216.254560
 30
0.0
 11
29.985940
 21
214.836780
 31
0.0
  0
SPLINE
  5
1b7
100
AcDbEntity
  8
Layer_1
 62
5
100
AcDbSpline
 70
8
 71
3
 72
8
 73
4
 74
0
 40
0
 40
0
 40
0
 40
0
 40
1
 40
1
 40
1
 40
1
 10
29.985940
 20
214.836780
 30
0.0
 10
30.487673
 20
214.387550
 30
0.0
 10
30.774409
 20
213.745947
 30
0.0
 10
30.774410
 20
213.072490
 30
0.0
  0
LINE
  5
1b8
100
AcDbEntity
  8
Layer_1
 62
5
100
AcDbLine
 10
30.774410
 20
213.072490
 30
0.0
 11
30.774410
 21
198.018570
 31
0.0
  0
SPLINE
  5
1b9
100
AcDbEntity
  8
Layer_1
 62
5
100
AcDbSpline
 70
8
 71
3
 72
8
 73
4
 74
0
 40
0
 40
0
 40
0
 40
0
 40
1
 40
1
 40
1
 40
1
 10
30.774410
 20
198.018570
 30
0.0
 10
30.774410
 20
197.737885
 30
0.0
 10
30.662907
 20
197.468697
 30
0.0
 10
30.464431
 20
197.270224
 30
0.0
  0
SPLINE
  5
1ba
100
AcDbEntity
  8
Layer_1
 62
5
100
AcDbSpline
 70
8
 71
3
 72
8
 73
4
 74
0
 40
0
 40
0
 40
0
 40
0
 40
1
 40
1
 40
1
 40
1
 10
30.464431
 20
197.270224
 30
0.0
 10
30.265955
 20
197.071752
 30
0.0
 10
29.996765
 20
196.960254
 30
0.0
 10
29.716080
 20
196.960260
 30
0.0
  0
LINE
  5
1bb
100
AcDbEntity
  8
Layer_1
 62
5
100
AcDbLine
 10
29.716080
 20
196.960260
 30
0.0
 11
18.330540
 21
196.960530
 31
0.0
  0
SPLINE
  5
1bc
100
AcDbEntity
  8
Layer_1
 62
5
100
AcDbSpline
 70
8
 71
3
 72
8
 73
4
 74
0
 40
0
 40
0
 40
0
 40
0
 40
1
 40
1
 40
1
 40
1
 10
18.330540
 20
196.960530
 30
0.0
 10
17.624987
 20
196.960544
 30
0.0
 10
16.919433
 20
196.960550
 30
0.0
 10
16.213880
 20
196.960550
 30
0.0
  0
LINE
  5
1bd
100
AcDbEntity
  8
Layer_1
 62
5
100
AcDbLine
 10
16.213880
 20
196.960550
 30
0.0
 11
-95.805700
 21
196.960860
 31
0.0
  0
SPLINE
  5
1be
100
AcDbEntity
  8
Layer_1
 62
5
100
AcDbSpline
 70
8
 71
3
 72
8
 73
4
 74
0
 40
0
 40
0
 40
0
 40
0
 40
1
 40
1
 40
1
 40
1
 10
-95.805700
 20
196.960860
 30
0.0
 10
-96.511253
 20
196.960861
 30
0.0
 10
-97.216807
 20
196.960881
 30
0.0
 10
-97.922360
 20
196.960920
 30
0.0
  0
LINE
  5
1bf
100
AcDbEntity
  8
Layer_1
 62
5
100
AcDbLine
 10
-97.922360
 20
196.960920
 30
0.0
 11
-97.922380
 21
196.960990
 31
0.0
  0
SPLINE
  5
1c0
100
AcDbEntity
  8
Layer_1
 62
5
100
AcDbSpline
 70
8
 71
3
 72
8
 73
4
 74
0
 40
0
 40
0
 40
0
 40
0
 40
1
 40
1
 40
1
 40
1
 10
64.010941
 20
207.103368
 30
0.0
 10
63.146615
 20
207.103368
 30
0.0
 10
62.445941
 20
206.402694
 30
0.0
 10
62.445941
 20
205.538368
 30
0.0
  0
SPLINE
  5
1c1
100
AcDbEntity
  8
Layer_1
 62
5
100
AcDbSpline
 70
8
 71
3
 72
8
 73
4
 74
0
 40
0
 40
0
 40
0
 40
0
 40
1
 40
1
 40
1
 40
1
 10
62.445941
 20
205.538368
 30
0.0
 10
62.445941
 20
204.674042
 30
0.0
 10
63.146615
 20
203.973368
 30
0.0
 10
64.010941
 20
203.973368
 30
0.0
  0
SPLINE
  5
1c2
100
AcDbEntity
  8
Layer_1
 62
5
100
AcDbSpline
 70
8
 71
3
 72
8
 73
4
 74
0
 40
0
 40
0
 40
0
 40
0
 40
1
 40
1
 40
1
 40
1
 10
64.010941
 20
203.973368
 30
0.0
 10
64.875267
 20
203.973368
 30
0.0
 10
65.575941
 20
204.674042
 30
0.0
 10
65.575941
 20
205.538368
 30
0.0
  0
SPLINE
  5
1c3
100
AcDbEntity
  8
Layer_1
 62
5
100
AcDbSpline
 70
8
 71
3
 72
8
 73
4
 74
0
 40
0
 40
0
 40
0
 40
0
 40
1
 40
1
 40
1
 40
1
 10
65.575941
 20
205.538368
 30
0.0
 10
65.575941
 20
205.953432
 30
0.0
 10
65.411058
 20
206.351496
 30
0.0
 10
65.117563
 20
206.644990
 30
0.0
  0
SPLINE
  5
1c4
100
AcDbEntity
  8
Layer_1
 62
5
100
AcDbSpline
 70
8
 71
3
 72
8
 73
4
 74
0
 40
0
 40
0
 40
0
 40
0
 40
1
 40
1
 40
1
 40
1
 10
65.117563
 20
206.644990
 30
0.0
 10
64.824069
 20
206.938485
 30
0.0
 10
64.426005
 20
207.103368
 30
0.0
 10
64.010941
 20
207.103368
 30
0.0
  0
LINE
  5
1c5
100
AcDbEntity
  8
Layer_1
 62
5
100
AcDbLine
 10
64.010941
 20
207.103368
 30
0.0
 11
64.010941
 21
207.103368
 31
0.0
  0
SPLINE
  5
1c6
100
AcDbEntity
  8
Layer_1
 62
5
100
AcDbSpline
 70
8
 71
3
 72
8
 73
4
 74
0
 40
0
 40
0
 40
0
 40
0
 40
1
 40
1
 40
1
 40
1
 10
161.284060
 20
207.103368
 30
0.0
 10
160.651077
 20
207.103368
 30
0.0
 10
160.080421
 20
206.722068
 30
0.0
 10
159.838188
 20
206.137268
 30
0.0
  0
SPLINE
  5
1c7
100
AcDbEntity
  8
Layer_1
 62
5
100
AcDbSpline
 70
8
 71
3
 72
8
 73
4
 74
0
 40
0
 40
0
 40
0
 40
0
 40
1
 40
1
 40
1
 40
1
 10
159.838188
 20
206.137268
 30
0.0
 10
159.595956
 20
205.552467
 30
0.0
 10
159.729851
 20
204.879333
 30
0.0
 10
160.177438
 20
204.431746
 30
0.0
  0
SPLINE
  5
1c8
100
AcDbEntity
  8
Layer_1
 62
5
100
AcDbSpline
 70
8
 71
3
 72
8
 73
4
 74
0
 40
0
 40
0
 40
0
 40
0
 40
1
 40
1
 40
1
 40
1
 10
160.177438
 20
204.431746
 30
0.0
 10
160.625025
 20
203.984159
 30
0.0
 10
161.298159
 20
203.850264
 30
0.0
 10
161.882960
 20
204.092496
 30
0.0
  0
SPLINE
  5
1c9
100
AcDbEntity
  8
Layer_1
 62
5
100
AcDbSpline
 70
8
 71
3
 72
8
 73
4
 74
0
 40
0
 40
0
 40
0
 40
0
 40
1
 40
1
 40
1
 40
1
 10
161.882960
 20
204.092496
 30
0.0
 10
162.467760
 20
204.334729
 30
0.0
 10
162.849060
 20
204.905385
 30
0.0
 10
162.849060
 20
205.538368
 30
0.0
  0
SPLINE
  5
1ca
100
AcDbEntity
  8
Layer_1
 62
5
100
AcDbSpline
 70
8
 71
3
 72
8
 73
4
 74
0
 40
0
 40
0
 40
0
 40
0
 40
1
 40
1
 40
1
 40
1
 10
162.849060
 20
205.538368
 30
0.0
 10
162.849060
 20
206.402694
 30
0.0
 10
162.148386
 20
207.103368
 30
0.0
 10
161.284060
 20
207.103368
 30
0.0
  0
LINE
  5
1cb
100
AcDbEntity
  8
Layer_1
 62
5
100
AcDbLine
 10
161.284060
 20
207.103368
 30
0.0
 11
161.284060
 21
207.103368
 31
0.0
  0
SPLINE
  5
1cc
100
AcDbEntity
  8
Layer_1
 62
5
100
AcDbSpline
 70
8
 71
3
 72
8
 73
4
 74
0
 40
0
 40
0
 40
0
 40
0
 40
1
 40
1
 40
1
 40
1
 10
9.126485
 20
207.103368
 30
0.0
 10
8.262159
 20
207.103368
 30
0.0
 10
7.561485
 20
206.402694
 30
0.0
 10
7.561485
 20
205.538368
 30
0.0
  0
SPLINE
  5
1cd
100
AcDbEntity
  8
Layer_1
 62
5
100
AcDbSpline
 70
8
 71
3
 72
8
 73
4
 74
0
 40
0
 40
0
 40
0
 40
0
 40
1
 40
1
 40
1
 40
1
 10
7.561485
 20
205.538368
 30
0.0
 10
7.561485
 20
204.674042
 30
0.0
 10
8.262159
 20
203.973368
 30
0.0
 10
9.126485
 20
203.973368
 30
0.0
  0
SPLINE
  5
1ce
100
AcDbEntity
  8
Layer_1
 62
5
100
AcDbSpline
 70
8
 71
3
 72
8
 73
4
 74
0
 40
0
 40
0
 40
0
 40
0
 40
1
 40
1
 40
1
 40
1
 10
9.126485
 20
203.973368
 30
0.0
 10
9.990811
 20
203.973368
 30
0.0
 10
10.691485
 20
204.674042
 30
0.0
 10
10.691485
 20
205.538368
 30
0.0
  0
SPLINE
  5
1cf
100
AcDbEntity
  8
Layer_1
 62
5
100
AcDbSpline
 70
8
 71
3
 72
8
 73
4
 74
0
 40
0
 40
0
 40
0
 40
0
 40
1
 40
1
 40
1
 40
1
 10
10.691485
 20
205.538368
 30
0.0
 10
10.691485
 20
205.953432
 30
0.0
 10
10.526602
 20
206.351496
 30
0.0
 10
10.233107
 20
206.644990
 30
0.0
  0
SPLINE
  5
1d0
100
AcDbEntity
  8
Layer_1
 62
5
100
AcDbSpline
 70
8
 71
3
 72
8
 73
4
 74
0
 40
0
 40
0
 40
0
 40
0
 40
1
 40
1
 40
1
 40
1
 10
10.233107
 20
206.644990
 30
0.0
 10
9.939613
 20
206.938485
 30
0.0
 10
9.541549
 20
207.103368
 30
0.0
 10
9.126485
 20
207.103368
 30
0.0
  0
LINE
  5
1d1
100
AcDbEntity
  8
Layer_1
 62
5
100
AcDbLine
 10
9.126485
 20
207.103368
 30
0.0
 11
9.126485
 21
207.103368
 31
0.0
  0
SPLINE
  5
1d2
100
AcDbEntity
  8
Layer_1
 62
5
100
AcDbSpline
 70
8
 71
3
 72
8
 73
4
 74
0
 40
0
 40
0
 40
0
 40
0
 40
1
 40
1
 40
1
 40
1
 10
-88.146645
 20
207.103368
 30
0.0
 10
-88.779628
 20
207.103368
 30
0.0
 10
-89.350284
 20
206.722068
 30
0.0
 10
-89.592517
 20
206.137268
 30
0.0
  0
SPLINE
  5
1d3
100
AcDbEntity
  8
Layer_1
 62
5
100
AcDbSpline
 70
8
 71
3
 72
8
 73
4
 74
0
 40
0
 40
0
 40
0
 40
0
 40
1
 40
1
 40
1
 40
1
 10
-89.592517
 20
206.137268
 30
0.0
 10
-89.834749
 20
205.552467
 30
0.0
 10
-89.700854
 20
204.879333
 30
0.0
 10
-89.253267
 20
204.431746
 30
0.0
  0
SPLINE
  5
1d4
100
AcDbEntity
  8
Layer_1
 62
5
100
AcDbSpline
 70
8
 71
3
 72
8
 73
4
 74
0
 40
0
 40
0
 40
0
 40
0
 40
1
 40
1
 40
1
 40
1
 10
-89.253267
 20
204.431746
 30
0.0
 10
-88.805680
 20
203.984159
 30
0.0
 10
-88.132546
 20
203.850264
 30
0.0
 10
-87.547745
 20
204.092496
 30
0.0
  0
SPLINE
  5
1d5
100
AcDbEntity
  8
Layer_1
 62
5
100
AcDbSpline
 70
8
 71
3
 72
8
 73
4
 74
0
 40
0
 40
0
 40
0
 40
0
 40
1
 40
1
 40
1
 40
1
 10
-87.547745
 20
204.092496
 30
0.0
 10
-86.962945
 20
204.334729
 30
0.0
 10
-86.581645
 20
204.905385
 30
0.0
 10
-86.581645
 20
205.538368
 30
0.0
  0
SPLINE
  5
1d6
100
AcDbEntity
  8
Layer_1
 62
5
100
AcDbSpline
 70
8
 71
3
 72
8
 73
4
 74
0
 40
0
 40
0
 40
0
 40
0
 40
1
 40
1
 40
1
 40
1
 10
-86.581645
 20
205.538368
 30
0.0
 10
-86.581645
 20
205.953432
 30
0.0
 10
-86.746528
 20
206.351496
 30
0.0
 10
-87.040023
 20
206.644990
 30
0.0
  0
SPLINE
  5
1d7
100
AcDbEntity
  8
Layer_1
 62
5
100
AcDbSpline
 70
8
 71
3
 72
8
 73
4
 74
0
 40
0
 40
0
 40
0
 40
0
 40
1
 40
1
 40
1
 40
1
 10
-87.040023
 20
206.644990
 30
0.0
 10
-87.333517
 20
206.938485
 30
0.0
 10
-87.731581
 20
207.103368
 30
0.0
 10
-88.146645
 20
207.103368
 30
0.0
  0
LINE
  5
1d8
100
AcDbEntity
  8
Layer_1
 62
5
100
AcDbLine
 10
-88.146645
 20
207.103368
 30
0.0
 11
-88.146645
 21
207.103368
 31
0.0
  0
ENDSEC
  0
SECTION
  2
OBJECTS
  0
DICTIONARY
  5
C
330
0
100
AcDbDictionary
  3
ACAD_GROUP
350
D
  3
ACAD_MLINESTYLE
350
17
  0
DICTIONARY
  5
D
330
C
100
AcDbDictionary
  0
DICTIONARY
  5
1A
330
C
100
AcDbDictionary
  0
DICTIONARY
  5
17
330
C
100
AcDbDictionary
  3
STANDARD
350
18
  0
DICTIONARY
  5
19
330
C
100
AcDbDictionary
  0
ENDSEC
  0
EOF
