999
"DXF R12 Output" (www.mydxf.blogspot.com)
 0 
SECTION
 2 
HEADER
 9 
$ACADVER
 1 
AC1009
 9 
$EXTMIN
 10 
 0 
 20 
 0 
 9 
$EXTMAX
 10 
 8.5 
 20 
 11 
 0 
ENDSEC
 0 
SECTION
 2 
ENTITIES
0
LINE
8
Layer 1
10
0.793749
20
297.793749
11
-0.793749
21
296.206251
0
LINE
8
Layer 1
10
0.000000
20
298.322915
11
0.000000
21
295.677085
0
LINE
8
Layer 1
10
2.116664
20
295.941668
11
1.058332
21
294.883336
0
LINE
8
Layer 1
10
1.587498
20
296.470834
11
0.529166
21
295.412502
0
LINE
8
Layer 1
10
1.058332
20
297.000000
11
0.000000
21
295.941668
0
LINE
8
Layer_1
10
19.350463
20
209.532035
11
19.351204
21
212.465467
0
LINE
8
Layer_1
10
19.351196
20
212.465376
11
19.506269
21
212.839564
0
LINE
8
Layer_1
10
19.506269
20
212.839564
11
19.880495
21
212.994546
0
LINE
8
Layer_1
10
19.880502
20
212.994633
11
54.230519
21
212.994633
0
LINE
8
Layer_1
10
54.230462
20
212.994556
11
54.604551
21
212.839552
0
LINE
8
Layer_1
10
54.604551
20
212.839552
11
54.759371
21
212.465386
0
LINE
8
Layer_1
10
54.759421
20
212.465467
11
54.758362
21
209.520129
0
LINE
8
Layer_1
10
54.758371
20
209.520110
11
54.913178
21
209.145864
0
LINE
8
Layer_1
10
54.913178
20
209.145864
11
55.287280
21
208.990711
0
LINE
8
Layer_1
10
55.287280
20
208.990711
11
56.290379
21
208.990391
0
LINE
8
Layer_1
10
56.290298
20
208.990434
11
56.754641
21
208.990169
0
LINE
8
Layer_1
10
56.754539
20
208.990291
11
57.128725
21
208.835230
0
LINE
8
Layer_1
10
57.128725
20
208.835230
11
57.283708
21
208.461011
0
LINE
8
Layer_1
10
57.283807
20
208.461003
11
57.283807
21
190.468301
0
LINE
8
Layer_1
10
57.283708
20
190.468374
11
57.438697
21
190.094194
0
LINE
8
Layer_1
10
57.438697
20
190.094194
11
57.812877
21
189.939205
0
LINE
8
Layer_1
10
57.812973
20
189.939135
11
61.517664
21
189.939135
0
LINE
8
Layer_1
10
61.517532
20
189.939205
11
61.891713
21
189.784216
0
LINE
8
Layer_1
10
61.891713
20
189.784216
11
62.046702
21
189.410036
0
LINE
8
Layer_1
10
62.046830
20
189.409969
11
62.046830
21
171.418325
0
LINE
8
Layer_1
10
62.046702
20
171.418398
11
62.201691
21
171.044218
0
LINE
8
Layer_1
10
62.201691
20
171.044218
11
62.575871
21
170.889229
0
LINE
8
Layer_1
10
62.575996
20
170.889159
11
71.042652
21
170.889159
0
LINE
8
Layer_1
10
71.042520
20
170.889229
11
71.416701
21
170.734240
0
LINE
8
Layer_1
10
71.416701
20
170.734240
11
71.571690
21
170.360060
0
LINE
8
Layer_1
10
71.571818
20
170.359993
11
71.571818
21
152.366497
0
LINE
8
Layer_1
10
71.571690
20
152.366422
11
71.416701
21
151.992242
0
LINE
8
Layer_1
10
71.416701
20
151.992242
11
71.042520
21
151.837253
0
LINE
8
Layer_1
10
71.042652
20
151.837331
11
62.575996
21
151.837331
0
LINE
8
Layer_1
10
62.575871
20
151.837253
11
62.201691
21
151.682264
0
LINE
8
Layer_1
10
62.201691
20
151.682264
11
62.046702
21
151.308084
0
LINE
8
Layer_1
10
62.046830
20
151.308165
11
62.046830
21
133.316521
0
LINE
8
Layer_1
10
62.046702
20
133.316446
11
61.891712
21
132.942270
0
LINE
8
Layer_1
10
61.891712
20
132.942270
11
61.517532
21
132.787287
0
LINE
8
Layer_1
10
61.517664
20
132.787355
11
57.575642
21
132.787355
0
LINE
8
Layer_1
10
57.575557
20
132.787357
11
57.201333
21
132.632381
0
LINE
8
Layer_1
10
57.201333
20
132.632381
11
57.046258
21
132.258198
0
LINE
8
Layer_1
10
57.046211
20
132.258189
11
57.045418
21
129.312322
0
LINE
8
Layer_1
10
57.045518
20
129.312341
11
56.890444
21
128.938156
0
LINE
8
Layer_1
10
56.890444
20
128.938156
11
56.516219
21
128.783182
0
LINE
8
Layer_1
10
56.516252
20
128.783156
11
22.166949
21
128.783949
0
LINE
8
Layer_1
10
22.166952
20
128.784002
11
21.792725
21
128.938990
0
LINE
8
Layer_1
10
21.792725
20
128.938990
11
21.637653
21
129.313181
0
LINE
8
Layer_1
10
21.637651
20
129.313115
11
21.636963
21
132.246812
0
LINE
8
Layer_1
10
21.636953
20
132.246807
11
21.481918
21
132.621213
0
LINE
8
Layer_1
10
21.481918
20
132.621213
11
21.107653
21
132.776587
0
LINE
8
Layer_1
10
21.107664
20
132.776507
11
12.654264
21
132.786561
0
LINE
8
Layer_1
10
12.654264
20
132.786587
11
11.595925
21
132.787197
0
LINE
8
Layer_1
10
11.595932
20
132.787090
11
-16.143585
21
132.787355
0
LINE
8
Layer_1
10
-16.143580
20
132.787307
11
-16.517851
21
132.632333
0
LINE
8
Layer_1
10
-16.517851
20
132.632333
11
-16.673009
21
132.258137
0
LINE
8
Layer_1
10
-16.673015
20
132.258189
11
-16.674021
21
129.312851
0
LINE
8
Layer_1
10
-16.674009
20
129.312791
11
-16.829173
21
128.938625
0
LINE
8
Layer_1
10
-16.829173
20
128.938625
11
-17.203438
21
128.783702
0
LINE
8
Layer_1
10
-17.203451
20
128.783685
11
-50.004335
21
128.788712
0
LINE
8
Layer_1
10
-50.004417
20
128.788702
11
-50.378634
21
128.943737
0
LINE
8
Layer_1
10
-50.378634
20
128.943737
11
-50.533676
21
129.317951
0
LINE
8
Layer_1
10
-50.533766
20
129.317878
11
-50.534295
21
132.258189
0
LINE
8
Layer_1
10
-50.534176
20
132.258148
11
-50.689226
21
132.632328
0
LINE
8
Layer_1
10
-50.689226
20
132.632328
11
-51.063436
21
132.787307
0
LINE
8
Layer_1
10
-51.063461
20
132.787355
11
-54.868958
21
132.787355
0
LINE
8
Layer_1
10
-54.868971
20
132.787277
11
-55.927310
21
132.787397
0
LINE
8
Layer_1
10
-55.927290
20
132.787355
11
-56.487412
21
132.787619
0
LINE
8
Layer_1
10
-56.487499
20
132.787547
11
-56.861686
21
132.942621
0
LINE
8
Layer_1
10
-56.861686
20
132.942621
11
-57.016668
21
133.316846
0
LINE
8
Layer_1
10
-57.016578
20
133.316785
11
-57.016578
21
151.308429
0
LINE
8
Layer_1
10
-57.016668
20
151.308484
11
-57.016698
21
152.366822
0
LINE
8
Layer_1
10
-57.016578
20
152.366761
11
-57.017637
21
170.360522
0
LINE
8
Layer_1
10
-57.017638
20
170.360460
11
-57.017638
21
171.418798
0
LINE
8
Layer_1
10
-57.017637
20
171.418854
11
-57.016578
21
189.408381
0
LINE
8
Layer_1
10
-57.016698
20
189.408436
11
-57.016698
21
190.466774
0
LINE
8
Layer_1
10
-57.016578
20
190.466713
11
-57.017637
21
208.461532
0
LINE
8
Layer_1
10
-57.017638
20
208.461411
11
-56.862665
21
208.835572
0
LINE
8
Layer_1
10
-56.862665
20
208.835572
11
-56.488499
21
208.990531
0
LINE
8
Layer_1
10
-56.488471
20
208.990434
11
-51.064254
21
208.989905
0
LINE
8
Layer_1
10
-51.064126
20
208.989991
11
-50.689949
21
209.144949
0
LINE
8
Layer_1
10
-50.689949
20
209.144949
11
-50.534956
21
209.519110
0
LINE
8
Layer_1
10
-50.535088
20
209.519071
11
-50.534824
21
212.463350
0
LINE
8
Layer_1
10
-50.534926
20
212.463376
11
-50.379938
21
212.837566
0
LINE
8
Layer_1
10
-50.379938
20
212.837566
11
-50.005757
21
212.992576
0
LINE
8
Layer_1
10
-50.005658
20
212.992516
11
-17.226523
21
212.994633
0
LINE
8
Layer_1
10
-17.226518
20
212.994576
11
-16.852197
21
212.839632
0
LINE
8
Layer_1
10
-16.852197
20
212.839632
11
-16.696949
21
212.465436
0
LINE
8
Layer_1
10
-16.696960
20
212.465467
11
-16.694949
21
209.517219
0
LINE
8
Layer_1
10
-16.694949
20
209.517150
11
-16.539698
21
209.142966
0
LINE
8
Layer_1
10
-16.539698
20
209.142966
11
-16.165380
21
208.988041
0
LINE
8
Layer_1
10
-16.165386
20
208.988053
11
9.796265
21
208.990963
0
LINE
8
Layer_1
10
9.796278
20
208.991041
11
10.854616
21
208.991831
0
LINE
8
Layer_1
10
10.854623
20
208.991757
11
18.821905
21
209.002869
0
LINE
8
Layer_1
10
18.821916
20
209.002931
11
19.196185
21
209.158386
0
LINE
8
Layer_1
10
19.196185
20
209.158386
11
19.351216
21
209.532830
0
LINE
8
Layer_1
10
19.351204
20
209.532829
11
19.350463
21
209.532035
0
LINE
8
Layer_1
10
200.698376
20
133.316256
11
200.698376
21
151.307900
0
LINE
8
Layer_1
10
200.698407
20
151.308013
11
200.698427
21
152.366352
0
LINE
8
Layer_1
10
200.698376
20
152.366232
11
200.699435
21
183.134589
0
LINE
8
Layer_1
10
200.699387
20
183.134544
11
200.699407
21
184.192882
0
LINE
8
Layer_1
10
200.699435
20
184.192921
11
200.699435
21
208.461003
0
LINE
8
Layer_1
10
200.699407
20
208.460942
11
200.544416
21
208.835114
0
LINE
8
Layer_1
10
200.544416
20
208.835114
11
200.170238
21
208.990091
0
LINE
8
Layer_1
10
200.170269
20
208.990169
11
194.752667
21
208.989905
0
LINE
8
Layer_1
10
194.752595
20
208.989891
11
194.378429
21
209.144869
0
LINE
8
Layer_1
10
194.378429
20
209.144869
11
194.223465
21
209.519040
0
LINE
8
Layer_1
10
194.223501
20
209.519071
11
194.223766
21
212.465202
0
LINE
8
Layer_1
10
194.223715
20
212.465107
11
194.068753
21
212.839286
0
LINE
8
Layer_1
10
194.068753
20
212.839286
11
193.694586
21
212.994276
0
LINE
8
Layer_1
10
193.694600
20
212.994368
11
163.668398
21
212.994104
0
LINE
8
Layer_1
10
163.668524
20
212.994136
11
163.294373
21
212.839141
0
LINE
8
Layer_1
10
163.294373
20
212.839141
11
163.139434
21
212.464967
0
LINE
8
Layer_1
10
163.139497
20
212.464938
11
163.139761
21
209.518277
0
LINE
8
Layer_1
10
163.139874
20
209.518150
11
162.984935
21
209.143986
0
LINE
8
Layer_1
10
162.984935
20
209.143986
11
162.610785
21
208.989011
0
LINE
8
Layer_1
10
162.610860
20
208.989111
11
127.619493
21
208.990963
0
LINE
8
Layer_1
10
127.619489
20
208.991011
11
126.561151
21
208.991041
0
LINE
8
Layer_1
10
126.561161
20
208.990963
11
110.559182
21
208.990963
0
LINE
8
Layer_1
10
110.559051
20
208.991041
11
110.184961
21
209.146045
0
LINE
8
Layer_1
10
110.184961
20
209.146045
11
110.030141
21
209.520210
0
LINE
8
Layer_1
10
110.030016
20
209.520129
11
110.031074
21
212.465202
0
LINE
8
Layer_1
10
110.031141
20
212.465326
11
109.876324
21
212.839497
0
LINE
8
Layer_1
10
109.876324
20
212.839497
11
109.502232
21
212.994506
0
LINE
8
Layer_1
10
109.502172
20
212.994633
11
75.153478
21
212.994897
0
LINE
8
Layer_1
10
75.153525
20
212.994896
11
74.779362
21
212.839909
0
LINE
8
Layer_1
10
74.779362
20
212.839909
11
74.624396
21
212.465737
0
LINE
8
Layer_1
10
74.624312
20
212.465732
11
74.624577
21
209.517483
0
LINE
8
Layer_1
10
74.624596
20
209.517370
11
74.469606
21
209.143342
0
LINE
8
Layer_1
10
74.469606
20
209.143342
11
74.095467
21
208.988621
0
LINE
8
Layer_1
10
74.095411
20
208.988582
11
72.628563
21
208.989640
0
LINE
8
Layer_1
10
72.628579
20
208.989621
11
72.254424
21
208.834903
0
LINE
8
Layer_1
10
72.254424
20
208.834903
11
72.099409
21
208.460871
0
LINE
8
Layer_1
10
72.099397
20
208.461003
11
72.099397
21
190.466184
0
LINE
8
Layer_1
10
72.099409
20
190.466234
11
72.254398
21
190.092054
0
LINE
8
Layer_1
10
72.254398
20
190.092054
11
72.628579
21
189.937065
0
LINE
8
Layer_1
10
72.628563
20
189.937018
11
76.333254
21
189.937018
0
LINE
8
Layer_1
10
76.333234
20
189.937065
11
76.707414
21
189.782076
0
LINE
8
Layer_1
10
76.707414
20
189.782076
11
76.862403
21
189.407896
0
LINE
8
Layer_1
10
76.862420
20
189.407852
11
76.862420
21
171.416208
0
LINE
8
Layer_1
10
76.862403
20
171.416258
11
77.017392
21
171.042078
0
LINE
8
Layer_1
10
77.017392
20
171.042078
11
77.391573
21
170.887089
0
LINE
8
Layer_1
10
77.391586
20
170.887042
11
85.858242
21
170.887042
0
LINE
8
Layer_1
10
85.858222
20
170.887089
11
86.232402
21
170.732100
0
LINE
8
Layer_1
10
86.232402
20
170.732100
11
86.387391
21
170.357920
0
LINE
8
Layer_1
10
86.387408
20
170.357876
11
86.387408
21
152.368349
0
LINE
8
Layer_1
10
86.387391
20
152.368282
11
86.232402
21
151.994102
0
LINE
8
Layer_1
10
86.232402
20
151.994102
11
85.858222
21
151.839113
0
LINE
8
Layer_1
10
85.858242
20
151.839183
11
77.391586
21
151.839183
0
LINE
8
Layer_1
10
77.391573
20
151.839113
11
77.017392
21
151.684124
0
LINE
8
Layer_1
10
77.017392
20
151.684124
11
76.862403
21
151.309944
0
LINE
8
Layer_1
10
76.862420
20
151.310017
11
76.862420
21
133.316256
0
LINE
8
Layer_1
10
76.862403
20
133.316306
11
77.017390
21
132.942116
0
LINE
8
Layer_1
10
77.017390
20
132.942116
11
77.391573
21
132.787107
0
LINE
8
Layer_1
10
77.391586
20
132.787090
11
81.338900
21
132.786826
0
LINE
8
Layer_1
10
81.339018
20
132.786887
11
81.713206
21
132.631879
0
LINE
8
Layer_1
10
81.713206
20
132.631879
11
81.868207
21
132.257688
0
LINE
8
Layer_1
10
81.868330
20
132.257660
11
81.868330
21
129.312322
0
LINE
8
Layer_1
10
81.868327
20
129.312341
11
82.023331
21
128.938164
0
LINE
8
Layer_1
10
82.023331
20
128.938164
11
82.397516
21
128.783182
0
LINE
8
Layer_1
10
82.397496
20
128.783156
11
116.746190
21
128.783685
0
LINE
8
Layer_1
10
116.746223
20
128.783702
11
117.120313
21
128.938712
0
LINE
8
Layer_1
10
117.120313
20
128.938712
11
117.275132
21
129.312881
0
LINE
8
Layer_1
10
117.275092
20
129.312851
11
117.274034
21
132.254749
0
LINE
8
Layer_1
10
117.274132
20
132.254767
11
117.428946
21
132.628974
0
LINE
8
Layer_1
10
117.428946
20
132.628974
11
117.803042
21
132.784057
0
LINE
8
Layer_1
10
117.802935
20
132.784180
11
129.461520
21
132.787090
0
LINE
8
Layer_1
10
129.461527
20
132.787057
11
130.519865
21
132.787177
0
LINE
8
Layer_1
10
130.519852
20
132.787090
11
157.004875
21
132.786826
0
LINE
8
Layer_1
10
157.004992
20
132.786947
11
158.063331
21
132.785947
0
LINE
8
Layer_1
10
158.063207
20
132.786032
11
162.610860
21
132.775978
0
LINE
8
Layer_1
10
162.610785
20
132.775947
11
162.985007
21
132.620203
0
LINE
8
Layer_1
10
162.985007
20
132.620203
11
163.139874
21
132.245618
0
LINE
8
Layer_1
10
163.139761
20
132.245489
11
163.139497
21
129.312586
0
LINE
8
Layer_1
10
163.139425
20
129.312561
11
163.294360
21
128.938382
0
LINE
8
Layer_1
10
163.294360
20
128.938382
11
163.668514
21
128.783382
0
LINE
8
Layer_1
10
163.668398
20
128.783420
11
193.694864
21
128.782891
0
LINE
8
Layer_1
10
193.694736
20
128.782942
11
194.068962
21
128.937917
0
LINE
8
Layer_1
10
194.068962
20
128.937917
11
194.224035
21
129.312101
0
LINE
8
Layer_1
10
194.224030
20
129.312057
11
194.224824
21
132.258189
0
LINE
8
Layer_1
10
194.224745
20
132.258277
11
194.379818
21
132.632464
0
LINE
8
Layer_1
10
194.379818
20
132.632464
11
194.754045
21
132.787437
0
LINE
8
Layer_1
10
194.753990
20
132.787355
11
198.523239
21
132.787355
0
LINE
8
Layer_1
10
198.523190
20
132.787337
11
199.581529
21
132.787377
0
LINE
8
Layer_1
10
199.581571
20
132.787355
11
200.169210
21
132.787355
0
LINE
8
Layer_1
10
200.169238
20
132.787437
11
200.543421
21
132.942459
0
LINE
8
Layer_1
10
200.543421
20
132.942459
11
200.698407
21
133.316656
0
LINE
8
Layer_1
10
200.698376
20
133.316785
11
200.698376
21
133.316256
0
LINE
8
Layer_1
10
-1.601397
20
168.361597
11
11.398580
21
168.361597
0
LINE
8
Layer_1
10
11.398586
20
168.361662
11
11.752138
21
168.215215
0
LINE
8
Layer_1
10
11.752138
20
168.215215
11
11.898585
21
167.861663
0
LINE
8
Layer_1
10
11.898589
20
167.861536
11
11.898589
21
154.861779
0
LINE
8
Layer_1
10
11.898585
20
154.861679
11
11.752138
21
154.508127
0
LINE
8
Layer_1
10
11.752138
20
154.508127
11
11.398586
21
154.361680
0
LINE
8
Layer_1
10
11.398580
20
154.361717
11
-1.601397
21
154.361717
0
LINE
8
Layer_1
10
-1.601398
20
154.361680
11
-1.954951
21
154.508127
0
LINE
8
Layer_1
10
-1.954951
20
154.508127
11
-2.101397
21
154.861679
0
LINE
8
Layer_1
10
-2.101398
20
154.861779
11
-2.101398
21
167.861536
0
LINE
8
Layer_1
10
-2.101397
20
167.861663
11
-1.954951
21
168.215215
0
LINE
8
Layer_1
10
-1.954951
20
168.215215
11
-1.601398
21
168.361662
0
LINE
8
Layer_1
10
-1.601397
20
168.361597
11
-1.601397
21
168.361597
0
LINE
8
Layer_1
10
-53.989219
20
149.311621
11
-40.989463
21
149.311621
0
LINE
8
Layer_1
10
-40.989348
20
149.311686
11
-40.635796
21
149.165239
0
LINE
8
Layer_1
10
-40.635796
20
149.165239
11
-40.489349
21
148.811687
0
LINE
8
Layer_1
10
-40.489401
20
148.811560
11
-40.489401
21
135.811803
0
LINE
8
Layer_1
10
-40.489349
20
135.811703
11
-40.635796
21
135.458151
0
LINE
8
Layer_1
10
-40.635796
20
135.458151
11
-40.989348
21
135.311704
0
LINE
8
Layer_1
10
-40.989463
20
135.311741
11
-53.989219
21
135.311741
0
LINE
8
Layer_1
10
-53.989332
20
135.311704
11
-54.342885
21
135.458151
0
LINE
8
Layer_1
10
-54.342885
20
135.458151
11
-54.489331
21
135.811703
0
LINE
8
Layer_1
10
-54.489281
20
135.811803
11
-54.489281
21
148.811560
0
LINE
8
Layer_1
10
-54.489331
20
148.811687
11
-54.342885
21
149.165239
0
LINE
8
Layer_1
10
-54.342885
20
149.165239
11
-53.989332
21
149.311686
0
LINE
8
Layer_1
10
-53.989219
20
149.311621
11
-53.989219
21
149.311621
0
LINE
8
Layer_1
10
41.260661
20
206.461549
11
54.260417
21
206.461549
0
LINE
8
Layer_1
10
54.260532
20
206.461614
11
54.614084
21
206.315167
0
LINE
8
Layer_1
10
54.614084
20
206.315167
11
54.760531
21
205.961615
0
LINE
8
Layer_1
10
54.760479
20
205.961488
11
54.760479
21
192.961731
0
LINE
8
Layer_1
10
54.760531
20
192.961631
11
54.614084
21
192.608079
0
LINE
8
Layer_1
10
54.614084
20
192.608079
11
54.260532
21
192.461632
0
LINE
8
Layer_1
10
54.260417
20
192.461669
11
41.260661
21
192.461669
0
LINE
8
Layer_1
10
41.260548
20
192.461632
11
40.906995
21
192.608079
0
LINE
8
Layer_1
10
40.906995
20
192.608079
11
40.760549
21
192.961631
0
LINE
8
Layer_1
10
40.760599
20
192.961731
11
40.760599
21
205.961488
0
LINE
8
Layer_1
10
40.760549
20
205.961615
11
40.906995
21
206.315167
0
LINE
8
Layer_1
10
40.906995
20
206.315167
11
41.260548
21
206.461614
0
LINE
8
Layer_1
10
41.260661
20
206.461549
11
41.260661
21
206.461549
0
LINE
8
Layer_1
10
22.210579
20
206.461549
11
35.210441
21
206.461549
0
LINE
8
Layer_1
10
35.210556
20
206.461614
11
35.564108
21
206.315167
0
LINE
8
Layer_1
10
35.564108
20
206.315167
11
35.710555
21
205.961615
0
LINE
8
Layer_1
10
35.710503
20
205.961488
11
35.710503
21
192.961731
0
LINE
8
Layer_1
10
35.710555
20
192.961631
11
35.564108
21
192.608079
0
LINE
8
Layer_1
10
35.564108
20
192.608079
11
35.210556
21
192.461632
0
LINE
8
Layer_1
10
35.210441
20
192.461669
11
22.210579
21
192.461669
0
LINE
8
Layer_1
10
22.210572
20
192.461632
11
21.857019
21
192.608079
0
LINE
8
Layer_1
10
21.857019
20
192.608079
11
21.710573
21
192.961631
0
LINE
8
Layer_1
10
21.710570
20
192.961731
11
21.710570
21
205.961488
0
LINE
8
Layer_1
10
21.710573
20
205.961615
11
21.857019
21
206.315167
0
LINE
8
Layer_1
10
21.857019
20
206.315167
11
22.210572
21
206.461614
0
LINE
8
Layer_1
10
22.210579
20
206.461549
11
22.210579
21
206.461549
0
LINE
8
Layer_1
10
3.160603
20
206.461549
11
16.160571
21
206.461549
0
LINE
8
Layer_1
10
16.160580
20
206.461614
11
16.514132
21
206.315167
0
LINE
8
Layer_1
10
16.514132
20
206.315167
11
16.660579
21
205.961615
0
LINE
8
Layer_1
10
16.660580
20
205.961488
11
16.660580
21
192.961731
0
LINE
8
Layer_1
10
16.660579
20
192.961631
11
16.514132
21
192.608079
0
LINE
8
Layer_1
10
16.514132
20
192.608079
11
16.160580
21
192.461632
0
LINE
8
Layer_1
10
16.160571
20
192.461669
11
3.160603
21
192.461669
0
LINE
8
Layer_1
10
3.160596
20
192.461632
11
2.807043
21
192.608079
0
LINE
8
Layer_1
10
2.807043
20
192.608079
11
2.660597
21
192.961631
0
LINE
8
Layer_1
10
2.660594
20
192.961731
11
2.660594
21
205.961488
0
LINE
8
Layer_1
10
2.660597
20
205.961615
11
2.807043
21
206.315167
0
LINE
8
Layer_1
10
2.807043
20
206.315167
11
3.160596
21
206.461614
0
LINE
8
Layer_1
10
3.160603
20
206.461549
11
3.160603
21
206.461549
0
LINE
8
Layer_1
10
-15.889373
20
206.461549
11
-2.889405
21
206.461549
0
LINE
8
Layer_1
10
-2.889396
20
206.461614
11
-2.535844
21
206.315167
0
LINE
8
Layer_1
10
-2.535844
20
206.315167
11
-2.389397
21
205.961615
0
LINE
8
Layer_1
10
-2.389396
20
205.961488
11
-2.389396
21
192.961731
0
LINE
8
Layer_1
10
-2.389397
20
192.961631
11
-2.535844
21
192.608079
0
LINE
8
Layer_1
10
-2.535844
20
192.608079
11
-2.889396
21
192.461632
0
LINE
8
Layer_1
10
-2.889405
20
192.461669
11
-15.889373
21
192.461669
0
LINE
8
Layer_1
10
-15.889380
20
192.461632
11
-16.242933
21
192.608079
0
LINE
8
Layer_1
10
-16.242933
20
192.608079
11
-16.389379
21
192.961631
0
LINE
8
Layer_1
10
-16.389382
20
192.961731
11
-16.389382
21
205.961488
0
LINE
8
Layer_1
10
-16.389379
20
205.961615
11
-16.242933
21
206.315167
0
LINE
8
Layer_1
10
-16.242933
20
206.315167
11
-15.889380
21
206.461614
0
LINE
8
Layer_1
10
-15.889373
20
206.461549
11
-15.889373
21
206.461549
0
LINE
8
Layer_1
10
-53.989219
20
206.461549
11
-40.989463
21
206.461549
0
LINE
8
Layer_1
10
-40.989348
20
206.461614
11
-40.635796
21
206.315167
0
LINE
8
Layer_1
10
-40.635796
20
206.315167
11
-40.489349
21
205.961615
0
LINE
8
Layer_1
10
-40.489401
20
205.961488
11
-40.489401
21
192.961731
0
LINE
8
Layer_1
10
-40.489349
20
192.961631
11
-40.635796
21
192.608079
0
LINE
8
Layer_1
10
-40.635796
20
192.608079
11
-40.989348
21
192.461632
0
LINE
8
Layer_1
10
-40.989463
20
192.461669
11
-53.989219
21
192.461669
0
LINE
8
Layer_1
10
-53.989332
20
192.461632
11
-54.342885
21
192.608079
0
LINE
8
Layer_1
10
-54.342885
20
192.608079
11
-54.489331
21
192.961631
0
LINE
8
Layer_1
10
-54.489281
20
192.961731
11
-54.489281
21
205.961488
0
LINE
8
Layer_1
10
-54.489331
20
205.961615
11
-54.342885
21
206.315167
0
LINE
8
Layer_1
10
-54.342885
20
206.315167
11
-53.989332
21
206.461614
0
LINE
8
Layer_1
10
-53.989219
20
206.461549
11
-53.989219
21
206.461549
0
LINE
8
Layer_1
10
5.541585
20
149.311621
11
18.541580
21
149.311621
0
LINE
8
Layer_1
10
18.541577
20
149.311686
11
18.895129
21
149.165239
0
LINE
8
Layer_1
10
18.895129
20
149.165239
11
19.041576
21
148.811687
0
LINE
8
Layer_1
10
19.041589
20
148.811560
11
19.041589
21
135.811803
0
LINE
8
Layer_1
10
19.041576
20
135.811703
11
18.895129
21
135.458151
0
LINE
8
Layer_1
10
18.895129
20
135.458151
11
18.541577
21
135.311704
0
LINE
8
Layer_1
10
18.541580
20
135.311741
11
5.541585
21
135.311741
0
LINE
8
Layer_1
10
5.541593
20
135.311704
11
5.188041
21
135.458151
0
LINE
8
Layer_1
10
5.188041
20
135.458151
11
5.041594
21
135.811703
0
LINE
8
Layer_1
10
5.041603
20
135.811803
11
5.041603
21
148.811560
0
LINE
8
Layer_1
10
5.041594
20
148.811687
11
5.188041
21
149.165239
0
LINE
8
Layer_1
10
5.188041
20
149.165239
11
5.541593
21
149.311686
0
LINE
8
Layer_1
10
5.541585
20
149.311621
11
5.541585
21
149.311621
0
LINE
8
Layer_1
10
-15.889373
20
149.311621
11
-2.889405
21
149.311621
0
LINE
8
Layer_1
10
-2.889396
20
149.311686
11
-2.535844
21
149.165239
0
LINE
8
Layer_1
10
-2.535844
20
149.165239
11
-2.389397
21
148.811687
0
LINE
8
Layer_1
10
-2.389396
20
148.811560
11
-2.389396
21
135.811803
0
LINE
8
Layer_1
10
-2.389397
20
135.811703
11
-2.535844
21
135.458151
0
LINE
8
Layer_1
10
-2.535844
20
135.458151
11
-2.889396
21
135.311704
0
LINE
8
Layer_1
10
-2.889405
20
135.311741
11
-15.889373
21
135.311741
0
LINE
8
Layer_1
10
-15.889380
20
135.311704
11
-16.242933
21
135.458151
0
LINE
8
Layer_1
10
-16.242933
20
135.458151
11
-16.389379
21
135.811703
0
LINE
8
Layer_1
10
-16.389382
20
135.811803
11
-16.389382
21
148.811560
0
LINE
8
Layer_1
10
-16.389379
20
148.811687
11
-16.242933
21
149.165239
0
LINE
8
Layer_1
10
-16.242933
20
149.165239
11
-15.889380
21
149.311686
0
LINE
8
Layer_1
10
-15.889373
20
149.311621
11
-15.889373
21
149.311621
0
LINE
8
Layer_1
10
55.548407
20
168.361597
11
68.548428
21
168.361597
0
LINE
8
Layer_1
10
68.548514
20
168.361662
11
68.902066
21
168.215215
0
LINE
8
Layer_1
10
68.902066
20
168.215215
11
69.048513
21
167.861663
0
LINE
8
Layer_1
10
69.048490
20
167.861536
11
69.048490
21
154.861779
0
LINE
8
Layer_1
10
69.048513
20
154.861679
11
68.902066
21
154.508127
0
LINE
8
Layer_1
10
68.902066
20
154.508127
11
68.548514
21
154.361680
0
LINE
8
Layer_1
10
68.548428
20
154.361717
11
55.548407
21
154.361717
0
LINE
8
Layer_1
10
55.548530
20
154.361680
11
55.194977
21
154.508127
0
LINE
8
Layer_1
10
55.194977
20
154.508127
11
55.048531
21
154.861679
0
LINE
8
Layer_1
10
55.048610
20
154.861779
11
55.048610
21
167.861536
0
LINE
8
Layer_1
10
55.048531
20
167.861663
11
55.194977
21
168.215215
0
LINE
8
Layer_1
10
55.194977
20
168.215215
11
55.548530
21
168.361662
0
LINE
8
Layer_1
10
55.548407
20
168.361597
11
55.548407
21
168.361597
0
LINE
8
Layer_1
10
36.498431
20
168.361597
11
49.498452
21
168.361597
0
LINE
8
Layer_1
10
49.498538
20
168.361662
11
49.852090
21
168.215215
0
LINE
8
Layer_1
10
49.852090
20
168.215215
11
49.998537
21
167.861663
0
LINE
8
Layer_1
10
49.998514
20
167.861536
11
49.998514
21
154.861779
0
LINE
8
Layer_1
10
49.998537
20
154.861679
11
49.852090
21
154.508127
0
LINE
8
Layer_1
10
49.852090
20
154.508127
11
49.498538
21
154.361680
0
LINE
8
Layer_1
10
49.498452
20
154.361717
11
36.498431
21
154.361717
0
LINE
8
Layer_1
10
36.498554
20
154.361680
11
36.145001
21
154.508127
0
LINE
8
Layer_1
10
36.145001
20
154.508127
11
35.998555
21
154.861679
0
LINE
8
Layer_1
10
35.998634
20
154.861779
11
35.998634
21
167.861536
0
LINE
8
Layer_1
10
35.998555
20
167.861663
11
36.145001
21
168.215215
0
LINE
8
Layer_1
10
36.145001
20
168.215215
11
36.498554
21
168.361662
0
LINE
8
Layer_1
10
36.498431
20
168.361597
11
36.498431
21
168.361597
0
LINE
8
Layer_1
10
17.448587
20
168.361597
11
30.448476
21
168.361597
0
LINE
8
Layer_1
10
30.448562
20
168.361662
11
30.802114
21
168.215215
0
LINE
8
Layer_1
10
30.802114
20
168.215215
11
30.948561
21
167.861663
0
LINE
8
Layer_1
10
30.948538
20
167.861536
11
30.948538
21
154.861779
0
LINE
8
Layer_1
10
30.948561
20
154.861679
11
30.802114
21
154.508127
0
LINE
8
Layer_1
10
30.802114
20
154.508127
11
30.448562
21
154.361680
0
LINE
8
Layer_1
10
30.448476
20
154.361717
11
17.448587
21
154.361717
0
LINE
8
Layer_1
10
17.448578
20
154.361680
11
17.095025
21
154.508127
0
LINE
8
Layer_1
10
17.095025
20
154.508127
11
16.948579
21
154.861679
0
LINE
8
Layer_1
10
16.948578
20
154.861779
11
16.948578
21
167.861536
0
LINE
8
Layer_1
10
16.948579
20
167.861663
11
17.095025
21
168.215215
0
LINE
8
Layer_1
10
17.095025
20
168.215215
11
17.448578
21
168.361662
0
LINE
8
Layer_1
10
17.448587
20
168.361597
11
17.448587
21
168.361597
0
LINE
8
Layer_1
10
-20.651365
20
168.361597
11
-7.651396
21
168.361597
0
LINE
8
Layer_1
10
-7.651390
20
168.361662
11
-7.297838
21
168.215215
0
LINE
8
Layer_1
10
-7.297838
20
168.215215
11
-7.151391
21
167.861663
0
LINE
8
Layer_1
10
-7.151387
20
167.861536
11
-7.151387
21
154.861779
0
LINE
8
Layer_1
10
-7.151391
20
154.861679
11
-7.297838
21
154.508127
0
LINE
8
Layer_1
10
-7.297838
20
154.508127
11
-7.651390
21
154.361680
0
LINE
8
Layer_1
10
-7.651396
20
154.361717
11
-20.651365
21
154.361717
0
LINE
8
Layer_1
10
-20.651374
20
154.361680
11
-21.004927
21
154.508127
0
LINE
8
Layer_1
10
-21.004927
20
154.508127
11
-21.151373
21
154.861679
0
LINE
8
Layer_1
10
-21.151374
20
154.861779
11
-21.151374
21
167.861536
0
LINE
8
Layer_1
10
-21.151373
20
167.861663
11
-21.004927
21
168.215215
0
LINE
8
Layer_1
10
-21.004927
20
168.215215
11
-20.651374
21
168.361662
0
LINE
8
Layer_1
10
-20.651365
20
168.361597
11
-20.651365
21
168.361597
0
LINE
8
Layer_1
10
-46.845214
20
168.361597
11
-33.845457
21
168.361597
0
LINE
8
Layer_1
10
-33.845357
20
168.361662
11
-33.491805
21
168.215215
0
LINE
8
Layer_1
10
-33.491805
20
168.215215
11
-33.345358
21
167.861663
0
LINE
8
Layer_1
10
-33.345395
20
167.861536
11
-33.345395
21
154.861779
0
LINE
8
Layer_1
10
-33.345358
20
154.861679
11
-33.491805
21
154.508127
0
LINE
8
Layer_1
10
-33.491805
20
154.508127
11
-33.845357
21
154.361680
0
LINE
8
Layer_1
10
-33.845457
20
154.361717
11
-46.845214
21
154.361717
0
LINE
8
Layer_1
10
-46.845341
20
154.361680
11
-47.198894
21
154.508127
0
LINE
8
Layer_1
10
-47.198894
20
154.508127
11
-47.345340
21
154.861679
0
LINE
8
Layer_1
10
-47.345276
20
154.861779
11
-47.345276
21
167.861536
0
LINE
8
Layer_1
10
-47.345340
20
167.861663
11
-47.198894
21
168.215215
0
LINE
8
Layer_1
10
-47.198894
20
168.215215
11
-46.845341
21
168.361662
0
LINE
8
Layer_1
10
-46.845214
20
168.361597
11
-46.845214
21
168.361597
0
LINE
8
Layer_1
10
-34.939243
20
149.311621
11
-21.939381
21
149.311621
0
LINE
8
Layer_1
10
-21.939372
20
149.311686
11
-21.585820
21
149.165239
0
LINE
8
Layer_1
10
-21.585820
20
149.165239
11
-21.439373
21
148.811687
0
LINE
8
Layer_1
10
-21.439372
20
148.811560
11
-21.439372
21
135.811803
0
LINE
8
Layer_1
10
-21.439373
20
135.811703
11
-21.585820
21
135.458151
0
LINE
8
Layer_1
10
-21.585820
20
135.458151
11
-21.939372
21
135.311704
0
LINE
8
Layer_1
10
-21.939381
20
135.311741
11
-34.939243
21
135.311741
0
LINE
8
Layer_1
10
-34.939356
20
135.311704
11
-35.292909
21
135.458151
0
LINE
8
Layer_1
10
-35.292909
20
135.458151
11
-35.439355
21
135.811703
0
LINE
8
Layer_1
10
-35.439305
20
135.811803
11
-35.439305
21
148.811560
0
LINE
8
Layer_1
10
-35.439355
20
148.811687
11
-35.292909
21
149.165239
0
LINE
8
Layer_1
10
-35.292909
20
149.165239
11
-34.939356
21
149.311686
0
LINE
8
Layer_1
10
-34.939243
20
149.311621
11
-34.939243
21
149.311621
0
LINE
8
Layer_1
10
46.023419
20
187.411573
11
59.023440
21
187.411573
0
LINE
8
Layer_1
10
59.023526
20
187.411638
11
59.377078
21
187.265191
0
LINE
8
Layer_1
10
59.377078
20
187.265191
11
59.523525
21
186.911639
0
LINE
8
Layer_1
10
59.523502
20
186.911512
11
59.523502
21
173.911755
0
LINE
8
Layer_1
10
59.523525
20
173.911655
11
59.377078
21
173.558103
0
LINE
8
Layer_1
10
59.377078
20
173.558103
11
59.023526
21
173.411656
0
LINE
8
Layer_1
10
59.023440
20
173.411693
11
46.023419
21
173.411693
0
LINE
8
Layer_1
10
46.023542
20
173.411656
11
45.669989
21
173.558103
0
LINE
8
Layer_1
10
45.669989
20
173.558103
11
45.523543
21
173.911655
0
LINE
8
Layer_1
10
45.523622
20
173.911755
11
45.523622
21
186.911512
0
LINE
8
Layer_1
10
45.523543
20
186.911639
11
45.669989
21
187.265191
0
LINE
8
Layer_1
10
45.669989
20
187.265191
11
46.023542
21
187.411638
0
LINE
8
Layer_1
10
46.023419
20
187.411573
11
46.023419
21
187.411573
0
LINE
8
Layer_1
10
26.973443
20
187.411573
11
39.973464
21
187.411573
0
LINE
8
Layer_1
10
39.973550
20
187.411638
11
40.327102
21
187.265191
0
LINE
8
Layer_1
10
40.327102
20
187.265191
11
40.473549
21
186.911639
0
LINE
8
Layer_1
10
40.473526
20
186.911512
11
40.473526
21
173.911755
0
LINE
8
Layer_1
10
40.473549
20
173.911655
11
40.327102
21
173.558103
0
LINE
8
Layer_1
10
40.327102
20
173.558103
11
39.973550
21
173.411656
0
LINE
8
Layer_1
10
39.973464
20
173.411693
11
26.973443
21
173.411693
0
LINE
8
Layer_1
10
26.973566
20
173.411656
11
26.620013
21
173.558103
0
LINE
8
Layer_1
10
26.620013
20
173.558103
11
26.473567
21
173.911655
0
LINE
8
Layer_1
10
26.473646
20
173.911755
11
26.473646
21
186.911512
0
LINE
8
Layer_1
10
26.473567
20
186.911639
11
26.620013
21
187.265191
0
LINE
8
Layer_1
10
26.620013
20
187.265191
11
26.973566
21
187.411638
0
LINE
8
Layer_1
10
26.973443
20
187.411573
11
26.973443
21
187.411573
0
LINE
8
Layer_1
10
7.923599
20
187.411573
11
20.923568
21
187.411573
0
LINE
8
Layer_1
10
20.923574
20
187.411638
11
21.277126
21
187.265191
0
LINE
8
Layer_1
10
21.277126
20
187.265191
11
21.423573
21
186.911639
0
LINE
8
Layer_1
10
21.423577
20
186.911512
11
21.423577
21
173.911755
0
LINE
8
Layer_1
10
21.423573
20
173.911655
11
21.277126
21
173.558103
0
LINE
8
Layer_1
10
21.277126
20
173.558103
11
20.923574
21
173.411656
0
LINE
8
Layer_1
10
20.923568
20
173.411693
11
7.923599
21
173.411693
0
LINE
8
Layer_1
10
7.923590
20
173.411656
11
7.570037
21
173.558103
0
LINE
8
Layer_1
10
7.570037
20
173.558103
11
7.423591
21
173.911655
0
LINE
8
Layer_1
10
7.423590
20
173.911755
11
7.423590
21
186.911512
0
LINE
8
Layer_1
10
7.423591
20
186.911639
11
7.570037
21
187.265191
0
LINE
8
Layer_1
10
7.570037
20
187.265191
11
7.923590
21
187.411638
0
LINE
8
Layer_1
10
7.923599
20
187.411573
11
7.923599
21
187.411573
0
LINE
8
Layer_1
10
-11.126377
20
187.411573
11
1.873597
21
187.411573
0
LINE
8
Layer_1
10
1.873598
20
187.411638
11
2.227150
21
187.265191
0
LINE
8
Layer_1
10
2.227150
20
187.265191
11
2.373597
21
186.911639
0
LINE
8
Layer_1
10
2.373598
20
186.911512
11
2.373598
21
173.911755
0
LINE
8
Layer_1
10
2.373597
20
173.911655
11
2.227150
21
173.558103
0
LINE
8
Layer_1
10
2.227150
20
173.558103
11
1.873598
21
173.411656
0
LINE
8
Layer_1
10
1.873597
20
173.411693
11
-11.126377
21
173.411693
0
LINE
8
Layer_1
10
-11.126386
20
173.411656
11
-11.479939
21
173.558103
0
LINE
8
Layer_1
10
-11.479939
20
173.558103
11
-11.626385
21
173.911655
0
LINE
8
Layer_1
10
-11.626386
20
173.911755
11
-11.626386
21
186.911512
0
LINE
8
Layer_1
10
-11.626385
20
186.911639
11
-11.479939
21
187.265191
0
LINE
8
Layer_1
10
-11.479939
20
187.265191
11
-11.126386
21
187.411638
0
LINE
8
Layer_1
10
-11.126377
20
187.411573
11
-11.126377
21
187.411573
0
LINE
8
Layer_1
10
-30.176485
20
187.411573
11
-17.176384
21
187.411573
0
LINE
8
Layer_1
10
-17.176378
20
187.411638
11
-16.822826
21
187.265191
0
LINE
8
Layer_1
10
-16.822826
20
187.265191
11
-16.676379
21
186.911639
0
LINE
8
Layer_1
10
-16.676375
20
186.911512
11
-16.676375
21
173.911755
0
LINE
8
Layer_1
10
-16.676379
20
173.911655
11
-16.822826
21
173.558103
0
LINE
8
Layer_1
10
-16.822826
20
173.558103
11
-17.176378
21
173.411656
0
LINE
8
Layer_1
10
-17.176384
20
173.411693
11
-30.176485
21
173.411693
0
LINE
8
Layer_1
10
-30.176362
20
173.411656
11
-30.529915
21
173.558103
0
LINE
8
Layer_1
10
-30.529915
20
173.558103
11
-30.676361
21
173.911655
0
LINE
8
Layer_1
10
-30.676282
20
173.911755
11
-30.676282
21
186.911512
0
LINE
8
Layer_1
10
-30.676361
20
186.911639
11
-30.529915
21
187.265191
0
LINE
8
Layer_1
10
-30.529915
20
187.265191
11
-30.176362
21
187.411638
0
LINE
8
Layer_1
10
-30.176485
20
187.411573
11
-30.176485
21
187.411573
0
LINE
8
Layer_1
10
-51.608237
20
187.411573
11
-38.608481
21
187.411573
0
LINE
8
Layer_1
10
-38.608351
20
187.411638
11
-38.254799
21
187.265191
0
LINE
8
Layer_1
10
-38.254799
20
187.265191
11
-38.108352
21
186.911639
0
LINE
8
Layer_1
10
-38.108419
20
186.911512
11
-38.108419
21
173.911755
0
LINE
8
Layer_1
10
-38.108352
20
173.911655
11
-38.254799
21
173.558103
0
LINE
8
Layer_1
10
-38.254799
20
173.558103
11
-38.608351
21
173.411656
0
LINE
8
Layer_1
10
-38.608481
20
173.411693
11
-51.608237
21
173.411693
0
LINE
8
Layer_1
10
-51.608335
20
173.411656
11
-51.961887
21
173.558103
0
LINE
8
Layer_1
10
-51.961887
20
173.558103
11
-52.108334
21
173.911655
0
LINE
8
Layer_1
10
-52.108299
20
173.911755
11
-52.108299
21
186.911512
0
LINE
8
Layer_1
10
-52.108334
20
186.911639
11
-51.961887
21
187.265191
0
LINE
8
Layer_1
10
-51.961887
20
187.265191
11
-51.608335
21
187.411638
0
LINE
8
Layer_1
10
-51.608237
20
187.411573
11
-51.608237
21
187.411573
0
LINE
8
Layer_1
10
-34.939243
20
206.461549
11
-21.939381
21
206.461549
0
LINE
8
Layer_1
10
-21.939372
20
206.461614
11
-21.585820
21
206.315167
0
LINE
8
Layer_1
10
-21.585820
20
206.315167
11
-21.439373
21
205.961615
0
LINE
8
Layer_1
10
-21.439372
20
205.961488
11
-21.439372
21
192.961731
0
LINE
8
Layer_1
10
-21.439373
20
192.961631
11
-21.585820
21
192.608079
0
LINE
8
Layer_1
10
-21.585820
20
192.608079
11
-21.939372
21
192.461632
0
LINE
8
Layer_1
10
-21.939381
20
192.461669
11
-34.939243
21
192.461669
0
LINE
8
Layer_1
10
-34.939356
20
192.461632
11
-35.292909
21
192.608079
0
LINE
8
Layer_1
10
-35.292909
20
192.608079
11
-35.439355
21
192.961631
0
LINE
8
Layer_1
10
-35.439305
20
192.961731
11
-35.439305
21
205.961488
0
LINE
8
Layer_1
10
-35.439355
20
205.961615
11
-35.292909
21
206.315167
0
LINE
8
Layer_1
10
-35.292909
20
206.315167
11
-34.939356
21
206.461614
0
LINE
8
Layer_1
10
-34.939243
20
206.461549
11
-34.939243
21
206.461549
0
LINE
8
Layer_1
10
177.519847
20
206.463137
11
190.519868
21
206.463137
0
LINE
8
Layer_1
10
190.519760
20
206.463014
11
190.873313
21
206.316567
0
LINE
8
Layer_1
10
190.873313
20
206.316567
11
191.019759
21
205.963015
0
LINE
8
Layer_1
10
191.019666
20
205.963075
11
191.019666
21
192.963054
0
LINE
8
Layer_1
10
191.019759
20
192.963031
11
190.873313
21
192.609478
0
LINE
8
Layer_1
10
190.873313
20
192.609478
11
190.519760
21
192.463032
0
LINE
8
Layer_1
10
190.519868
20
192.462992
11
177.519847
21
192.462992
0
LINE
8
Layer_1
10
177.519776
20
192.463032
11
177.166224
21
192.609478
0
LINE
8
Layer_1
10
177.166224
20
192.609478
11
177.019777
21
192.963031
0
LINE
8
Layer_1
10
177.019785
20
192.963054
11
177.019785
21
205.963075
0
LINE
8
Layer_1
10
177.019777
20
205.963015
11
177.166224
21
206.316567
0
LINE
8
Layer_1
10
177.166224
20
206.316567
11
177.519776
21
206.463014
0
LINE
8
Layer_1
10
177.519847
20
206.463137
11
177.519847
21
206.463137
0
LINE
8
Layer_1
10
151.326924
20
206.463137
11
164.326680
21
206.463137
0
LINE
8
Layer_1
10
164.326793
20
206.463014
11
164.680346
21
206.316567
0
LINE
8
Layer_1
10
164.680346
20
206.316567
11
164.826792
21
205.963015
0
LINE
8
Layer_1
10
164.826742
20
205.963075
11
164.826742
21
192.963054
0
LINE
8
Layer_1
10
164.826792
20
192.963031
11
164.680346
21
192.609478
0
LINE
8
Layer_1
10
164.680346
20
192.609478
11
164.326793
21
192.463032
0
LINE
8
Layer_1
10
164.326680
20
192.462992
11
151.326924
21
192.462992
0
LINE
8
Layer_1
10
151.326809
20
192.463032
11
150.973257
21
192.609478
0
LINE
8
Layer_1
10
150.973257
20
192.609478
11
150.826810
21
192.963031
0
LINE
8
Layer_1
10
150.826862
20
192.963054
11
150.826862
21
205.963075
0
LINE
8
Layer_1
10
150.826810
20
205.963015
11
150.973257
21
206.316567
0
LINE
8
Layer_1
10
150.973257
20
206.316567
11
151.326809
21
206.463014
0
LINE
8
Layer_1
10
151.326924
20
206.463137
11
151.326924
21
206.463137
0
LINE
8
Layer_1
10
113.226972
20
206.463137
11
126.226728
21
206.463137
0
LINE
8
Layer_1
10
126.226841
20
206.463014
11
126.580394
21
206.316567
0
LINE
8
Layer_1
10
126.580394
20
206.316567
11
126.726840
21
205.963015
0
LINE
8
Layer_1
10
126.726790
20
205.963075
11
126.726790
21
192.963054
0
LINE
8
Layer_1
10
126.726840
20
192.963031
11
126.580394
21
192.609478
0
LINE
8
Layer_1
10
126.580394
20
192.609478
11
126.226841
21
192.463032
0
LINE
8
Layer_1
10
126.226728
20
192.462992
11
113.226972
21
192.462992
0
LINE
8
Layer_1
10
113.226857
20
192.463032
11
112.873305
21
192.609478
0
LINE
8
Layer_1
10
112.873305
20
192.609478
11
112.726858
21
192.963031
0
LINE
8
Layer_1
10
112.726910
20
192.963054
11
112.726910
21
205.963075
0
LINE
8
Layer_1
10
112.726858
20
205.963015
11
112.873305
21
206.316567
0
LINE
8
Layer_1
10
112.873305
20
206.316567
11
113.226857
21
206.463014
0
LINE
8
Layer_1
10
113.226972
20
206.463137
11
113.226972
21
206.463137
0
LINE
8
Layer_1
10
94.176996
20
206.463137
11
107.176752
21
206.463137
0
LINE
8
Layer_1
10
107.176865
20
206.463014
11
107.530418
21
206.316567
0
LINE
8
Layer_1
10
107.530418
20
206.316567
11
107.676864
21
205.963015
0
LINE
8
Layer_1
10
107.676814
20
205.963075
11
107.676814
21
192.963054
0
LINE
8
Layer_1
10
107.676864
20
192.963031
11
107.530418
21
192.609478
0
LINE
8
Layer_1
10
107.530418
20
192.609478
11
107.176865
21
192.463032
0
LINE
8
Layer_1
10
107.176752
20
192.462992
11
94.176996
21
192.462992
0
LINE
8
Layer_1
10
94.176881
20
192.463032
11
93.823329
21
192.609478
0
LINE
8
Layer_1
10
93.823329
20
192.609478
11
93.676882
21
192.963031
0
LINE
8
Layer_1
10
93.676934
20
192.963054
11
93.676934
21
205.963075
0
LINE
8
Layer_1
10
93.676882
20
205.963015
11
93.823329
21
206.316567
0
LINE
8
Layer_1
10
93.823329
20
206.316567
11
94.176881
21
206.463014
0
LINE
8
Layer_1
10
94.176996
20
206.463137
11
94.176996
21
206.463137
0
LINE
8
Layer_1
10
75.127020
20
206.463137
11
88.126776
21
206.463137
0
LINE
8
Layer_1
10
88.126889
20
206.463014
11
88.480442
21
206.316567
0
LINE
8
Layer_1
10
88.480442
20
206.316567
11
88.626888
21
205.963015
0
LINE
8
Layer_1
10
88.626838
20
205.963075
11
88.626838
21
192.963054
0
LINE
8
Layer_1
10
88.626888
20
192.963031
11
88.480442
21
192.609478
0
LINE
8
Layer_1
10
88.480442
20
192.609478
11
88.126889
21
192.463032
0
LINE
8
Layer_1
10
88.126776
20
192.462992
11
75.127020
21
192.462992
0
LINE
8
Layer_1
10
75.126905
20
192.463032
11
74.773353
21
192.609478
0
LINE
8
Layer_1
10
74.773353
20
192.609478
11
74.626906
21
192.963031
0
LINE
8
Layer_1
10
74.626958
20
192.963054
11
74.626958
21
205.963075
0
LINE
8
Layer_1
10
74.626906
20
205.963015
11
74.773353
21
206.316567
0
LINE
8
Layer_1
10
74.773353
20
206.316567
11
75.126905
21
206.463014
0
LINE
8
Layer_1
10
75.127020
20
206.463137
11
75.127020
21
206.463137
0
LINE
8
Layer_1
10
184.663853
20
149.313209
11
197.663874
21
149.313209
0
LINE
8
Layer_1
10
197.663751
20
149.313086
11
198.017304
21
149.166639
0
LINE
8
Layer_1
10
198.017304
20
149.166639
11
198.163750
21
148.813087
0
LINE
8
Layer_1
10
198.163671
20
148.813147
11
198.163671
21
135.813126
0
LINE
8
Layer_1
10
198.163750
20
135.813103
11
198.017304
21
135.459550
0
LINE
8
Layer_1
10
198.017304
20
135.459550
11
197.663751
21
135.313104
0
LINE
8
Layer_1
10
197.663874
20
135.313064
11
184.663853
21
135.313064
0
LINE
8
Layer_1
10
184.663767
20
135.313104
11
184.310215
21
135.459550
0
LINE
8
Layer_1
10
184.310215
20
135.459550
11
184.163768
21
135.813103
0
LINE
8
Layer_1
10
184.163791
20
135.813126
11
184.163791
21
148.813147
0
LINE
8
Layer_1
10
184.163768
20
148.813087
11
184.310215
21
149.166639
0
LINE
8
Layer_1
10
184.310215
20
149.166639
11
184.663767
21
149.313086
0
LINE
8
Layer_1
10
184.663853
20
149.313209
11
184.663853
21
149.313209
0
LINE
8
Layer_1
10
165.613877
20
149.313209
11
178.613898
21
149.313209
0
LINE
8
Layer_1
10
178.613775
20
149.313086
11
178.967328
21
149.166639
0
LINE
8
Layer_1
10
178.967328
20
149.166639
11
179.113774
21
148.813087
0
LINE
8
Layer_1
10
179.113695
20
148.813147
11
179.113695
21
135.813126
0
LINE
8
Layer_1
10
179.113774
20
135.813103
11
178.967328
21
135.459550
0
LINE
8
Layer_1
10
178.967328
20
135.459550
11
178.613775
21
135.313104
0
LINE
8
Layer_1
10
178.613898
20
135.313064
11
165.613877
21
135.313064
0
LINE
8
Layer_1
10
165.613791
20
135.313104
11
165.260239
21
135.459550
0
LINE
8
Layer_1
10
165.260239
20
135.459550
11
165.113792
21
135.813103
0
LINE
8
Layer_1
10
165.113815
20
135.813126
11
165.113815
21
148.813147
0
LINE
8
Layer_1
10
165.113792
20
148.813087
11
165.260239
21
149.166639
0
LINE
8
Layer_1
10
165.260239
20
149.166639
11
165.613791
21
149.313086
0
LINE
8
Layer_1
10
165.613877
20
149.313209
11
165.613877
21
149.313209
0
LINE
8
Layer_1
10
146.563901
20
149.313209
11
159.563922
21
149.313209
0
LINE
8
Layer_1
10
159.563799
20
149.313086
11
159.917352
21
149.166639
0
LINE
8
Layer_1
10
159.917352
20
149.166639
11
160.063798
21
148.813087
0
LINE
8
Layer_1
10
160.063719
20
148.813147
11
160.063719
21
135.813126
0
LINE
8
Layer_1
10
160.063798
20
135.813103
11
159.917352
21
135.459550
0
LINE
8
Layer_1
10
159.917352
20
135.459550
11
159.563799
21
135.313104
0
LINE
8
Layer_1
10
159.563922
20
135.313064
11
146.563901
21
135.313064
0
LINE
8
Layer_1
10
146.563815
20
135.313104
11
146.210263
21
135.459550
0
LINE
8
Layer_1
10
146.210263
20
135.459550
11
146.063816
21
135.813103
0
LINE
8
Layer_1
10
146.063839
20
135.813126
11
146.063839
21
148.813147
0
LINE
8
Layer_1
10
146.063816
20
148.813087
11
146.210263
21
149.166639
0
LINE
8
Layer_1
10
146.210263
20
149.166639
11
146.563815
21
149.313086
0
LINE
8
Layer_1
10
146.563901
20
149.313209
11
146.563901
21
149.313209
0
LINE
8
Layer_1
10
125.132942
20
149.313209
11
138.132699
21
149.313209
0
LINE
8
Layer_1
10
138.132826
20
149.313086
11
138.486379
21
149.166639
0
LINE
8
Layer_1
10
138.486379
20
149.166639
11
138.632825
21
148.813087
0
LINE
8
Layer_1
10
138.632761
20
148.813147
11
138.632761
21
135.813126
0
LINE
8
Layer_1
10
138.632825
20
135.813103
11
138.486379
21
135.459550
0
LINE
8
Layer_1
10
138.486379
20
135.459550
11
138.132826
21
135.313104
0
LINE
8
Layer_1
10
138.132699
20
135.313064
11
125.132942
21
135.313064
0
LINE
8
Layer_1
10
125.132842
20
135.313104
11
124.779290
21
135.459550
0
LINE
8
Layer_1
10
124.779290
20
135.459550
11
124.632843
21
135.813103
0
LINE
8
Layer_1
10
124.632880
20
135.813126
11
124.632880
21
148.813147
0
LINE
8
Layer_1
10
124.632843
20
148.813087
11
124.779290
21
149.166639
0
LINE
8
Layer_1
10
124.779290
20
149.166639
11
125.132842
21
149.313086
0
LINE
8
Layer_1
10
125.132942
20
149.313209
11
125.132942
21
149.313209
0
LINE
8
Layer_1
10
184.663853
20
168.363185
11
197.663874
21
168.363185
0
LINE
8
Layer_1
10
197.663751
20
168.363062
11
198.017304
21
168.216615
0
LINE
8
Layer_1
10
198.017304
20
168.216615
11
198.163750
21
167.863063
0
LINE
8
Layer_1
10
198.163671
20
167.863123
11
198.163671
21
154.863102
0
LINE
8
Layer_1
10
198.163750
20
154.863079
11
198.017304
21
154.509526
0
LINE
8
Layer_1
10
198.017304
20
154.509526
11
197.663751
21
154.363080
0
LINE
8
Layer_1
10
197.663874
20
154.363040
11
184.663853
21
154.363040
0
LINE
8
Layer_1
10
184.663767
20
154.363080
11
184.310215
21
154.509526
0
LINE
8
Layer_1
10
184.310215
20
154.509526
11
184.163768
21
154.863079
0
LINE
8
Layer_1
10
184.163791
20
154.863102
11
184.163791
21
167.863123
0
LINE
8
Layer_1
10
184.163768
20
167.863063
11
184.310215
21
168.216615
0
LINE
8
Layer_1
10
184.310215
20
168.216615
11
184.663767
21
168.363062
0
LINE
8
Layer_1
10
184.663853
20
168.363185
11
184.663853
21
168.363185
0
LINE
8
Layer_1
10
165.613877
20
168.363185
11
178.613898
21
168.363185
0
LINE
8
Layer_1
10
178.613775
20
168.363062
11
178.967328
21
168.216615
0
LINE
8
Layer_1
10
178.967328
20
168.216615
11
179.113774
21
167.863063
0
LINE
8
Layer_1
10
179.113695
20
167.863123
11
179.113695
21
154.863102
0
LINE
8
Layer_1
10
179.113774
20
154.863079
11
178.967328
21
154.509526
0
LINE
8
Layer_1
10
178.967328
20
154.509526
11
178.613775
21
154.363080
0
LINE
8
Layer_1
10
178.613898
20
154.363040
11
165.613877
21
154.363040
0
LINE
8
Layer_1
10
165.613791
20
154.363080
11
165.260239
21
154.509526
0
LINE
8
Layer_1
10
165.260239
20
154.509526
11
165.113792
21
154.863079
0
LINE
8
Layer_1
10
165.113815
20
154.863102
11
165.113815
21
167.863123
0
LINE
8
Layer_1
10
165.113792
20
167.863063
11
165.260239
21
168.216615
0
LINE
8
Layer_1
10
165.260239
20
168.216615
11
165.613791
21
168.363062
0
LINE
8
Layer_1
10
165.613877
20
168.363185
11
165.613877
21
168.363185
0
LINE
8
Layer_1
10
146.563901
20
168.363185
11
159.563922
21
168.363185
0
LINE
8
Layer_1
10
159.563799
20
168.363062
11
159.917352
21
168.216615
0
LINE
8
Layer_1
10
159.917352
20
168.216615
11
160.063798
21
167.863063
0
LINE
8
Layer_1
10
160.063719
20
167.863123
11
160.063719
21
154.863102
0
LINE
8
Layer_1
10
160.063798
20
154.863079
11
159.917352
21
154.509526
0
LINE
8
Layer_1
10
159.917352
20
154.509526
11
159.563799
21
154.363080
0
LINE
8
Layer_1
10
159.563922
20
154.363040
11
146.563901
21
154.363040
0
LINE
8
Layer_1
10
146.563815
20
154.363080
11
146.210263
21
154.509526
0
LINE
8
Layer_1
10
146.210263
20
154.509526
11
146.063816
21
154.863079
0
LINE
8
Layer_1
10
146.063839
20
154.863102
11
146.063839
21
167.863123
0
LINE
8
Layer_1
10
146.063816
20
167.863063
11
146.210263
21
168.216615
0
LINE
8
Layer_1
10
146.210263
20
168.216615
11
146.563815
21
168.363062
0
LINE
8
Layer_1
10
146.563901
20
168.363185
11
146.563901
21
168.363185
0
LINE
8
Layer_1
10
127.513925
20
168.363185
11
140.513946
21
168.363185
0
LINE
8
Layer_1
10
140.513823
20
168.363062
11
140.867376
21
168.216615
0
LINE
8
Layer_1
10
140.867376
20
168.216615
11
141.013822
21
167.863063
0
LINE
8
Layer_1
10
141.013743
20
167.863123
11
141.013743
21
154.863102
0
LINE
8
Layer_1
10
141.013822
20
154.863079
11
140.867376
21
154.509526
0
LINE
8
Layer_1
10
140.867376
20
154.509526
11
140.513823
21
154.363080
0
LINE
8
Layer_1
10
140.513946
20
154.363040
11
127.513925
21
154.363040
0
LINE
8
Layer_1
10
127.513839
20
154.363080
11
127.160287
21
154.509526
0
LINE
8
Layer_1
10
127.160287
20
154.509526
11
127.013840
21
154.863079
0
LINE
8
Layer_1
10
127.013863
20
154.863102
11
127.013863
21
167.863123
0
LINE
8
Layer_1
10
127.013840
20
167.863063
11
127.160287
21
168.216615
0
LINE
8
Layer_1
10
127.160287
20
168.216615
11
127.513839
21
168.363062
0
LINE
8
Layer_1
10
127.513925
20
168.363185
11
127.513925
21
168.363185
0
LINE
8
Layer_1
10
108.463949
20
168.363185
11
121.463970
21
168.363185
0
LINE
8
Layer_1
10
121.463847
20
168.363062
11
121.817400
21
168.216615
0
LINE
8
Layer_1
10
121.817400
20
168.216615
11
121.963846
21
167.863063
0
LINE
8
Layer_1
10
121.963767
20
167.863123
11
121.963767
21
154.863102
0
LINE
8
Layer_1
10
121.963846
20
154.863079
11
121.817400
21
154.509526
0
LINE
8
Layer_1
10
121.817400
20
154.509526
11
121.463847
21
154.363080
0
LINE
8
Layer_1
10
121.463970
20
154.363040
11
108.463949
21
154.363040
0
LINE
8
Layer_1
10
108.463863
20
154.363080
11
108.110311
21
154.509526
0
LINE
8
Layer_1
10
108.110311
20
154.509526
11
107.963864
21
154.863079
0
LINE
8
Layer_1
10
107.963887
20
154.863102
11
107.963887
21
167.863123
0
LINE
8
Layer_1
10
107.963864
20
167.863063
11
108.110311
21
168.216615
0
LINE
8
Layer_1
10
108.110311
20
168.216615
11
108.463863
21
168.363062
0
LINE
8
Layer_1
10
108.463949
20
168.363185
11
108.463949
21
168.363185
0
LINE
8
Layer_1
10
89.413973
20
168.363185
11
102.413994
21
168.363185
0
LINE
8
Layer_1
10
102.413871
20
168.363062
11
102.767424
21
168.216615
0
LINE
8
Layer_1
10
102.767424
20
168.216615
11
102.913870
21
167.863063
0
LINE
8
Layer_1
10
102.913791
20
167.863123
11
102.913791
21
154.863102
0
LINE
8
Layer_1
10
102.913870
20
154.863079
11
102.767424
21
154.509526
0
LINE
8
Layer_1
10
102.767424
20
154.509526
11
102.413871
21
154.363080
0
LINE
8
Layer_1
10
102.413994
20
154.363040
11
89.413973
21
154.363040
0
LINE
8
Layer_1
10
89.413887
20
154.363080
11
89.060335
21
154.509526
0
LINE
8
Layer_1
10
89.060335
20
154.509526
11
88.913888
21
154.863079
0
LINE
8
Layer_1
10
88.913911
20
154.863102
11
88.913911
21
167.863123
0
LINE
8
Layer_1
10
88.913888
20
167.863063
11
89.060335
21
168.216615
0
LINE
8
Layer_1
10
89.060335
20
168.216615
11
89.413887
21
168.363062
0
LINE
8
Layer_1
10
89.413973
20
168.363185
11
89.413973
21
168.363185
0
LINE
8
Layer_1
10
179.901888
20
187.413161
11
192.901644
21
187.413161
0
LINE
8
Layer_1
10
192.901757
20
187.413038
11
193.255310
21
187.266591
0
LINE
8
Layer_1
10
193.255310
20
187.266591
11
193.401756
21
186.913039
0
LINE
8
Layer_1
10
193.401706
20
186.913099
11
193.401706
21
173.913078
0
LINE
8
Layer_1
10
193.401756
20
173.913055
11
193.255310
21
173.559502
0
LINE
8
Layer_1
10
193.255310
20
173.559502
11
192.901757
21
173.413056
0
LINE
8
Layer_1
10
192.901644
20
173.413016
11
179.901888
21
173.413016
0
LINE
8
Layer_1
10
179.901773
20
173.413056
11
179.548221
21
173.559502
0
LINE
8
Layer_1
10
179.548221
20
173.559502
11
179.401774
21
173.913055
0
LINE
8
Layer_1
10
179.401826
20
173.913078
11
179.401826
21
186.913099
0
LINE
8
Layer_1
10
179.401774
20
186.913039
11
179.548221
21
187.266591
0
LINE
8
Layer_1
10
179.548221
20
187.266591
11
179.901773
21
187.413038
0
LINE
8
Layer_1
10
179.901888
20
187.413161
11
179.901888
21
187.413161
0
LINE
8
Layer_1
10
156.088889
20
187.413161
11
169.088910
21
187.413161
0
LINE
8
Layer_1
10
169.088787
20
187.413038
11
169.442340
21
187.266591
0
LINE
8
Layer_1
10
169.442340
20
187.266591
11
169.588786
21
186.913039
0
LINE
8
Layer_1
10
169.588707
20
186.913099
11
169.588707
21
173.913078
0
LINE
8
Layer_1
10
169.588786
20
173.913055
11
169.442340
21
173.559502
0
LINE
8
Layer_1
10
169.442340
20
173.559502
11
169.088787
21
173.413056
0
LINE
8
Layer_1
10
169.088910
20
173.413016
11
156.088889
21
173.413016
0
LINE
8
Layer_1
10
156.088803
20
173.413056
11
155.735251
21
173.559502
0
LINE
8
Layer_1
10
155.735251
20
173.559502
11
155.588804
21
173.913055
0
LINE
8
Layer_1
10
155.588827
20
173.913078
11
155.588827
21
186.913099
0
LINE
8
Layer_1
10
155.588804
20
186.913039
11
155.735251
21
187.266591
0
LINE
8
Layer_1
10
155.735251
20
187.266591
11
156.088803
21
187.413038
0
LINE
8
Layer_1
10
156.088889
20
187.413161
11
156.088889
21
187.413161
0
LINE
8
Layer_1
10
137.038913
20
187.413161
11
150.038934
21
187.413161
0
LINE
8
Layer_1
10
150.038811
20
187.413038
11
150.392364
21
187.266591
0
LINE
8
Layer_1
10
150.392364
20
187.266591
11
150.538810
21
186.913039
0
LINE
8
Layer_1
10
150.538731
20
186.913099
11
150.538731
21
173.913078
0
LINE
8
Layer_1
10
150.538810
20
173.913055
11
150.392364
21
173.559502
0
LINE
8
Layer_1
10
150.392364
20
173.559502
11
150.038811
21
173.413056
0
LINE
8
Layer_1
10
150.038934
20
173.413016
11
137.038913
21
173.413016
0
LINE
8
Layer_1
10
137.038827
20
173.413056
11
136.685275
21
173.559502
0
LINE
8
Layer_1
10
136.685275
20
173.559502
11
136.538828
21
173.913055
0
LINE
8
Layer_1
10
136.538851
20
173.913078
11
136.538851
21
186.913099
0
LINE
8
Layer_1
10
136.538828
20
186.913039
11
136.685275
21
187.266591
0
LINE
8
Layer_1
10
136.685275
20
187.266591
11
137.038827
21
187.413038
0
LINE
8
Layer_1
10
137.038913
20
187.413161
11
137.038913
21
187.413161
0
LINE
8
Layer_1
10
117.988937
20
187.413161
11
130.988958
21
187.413161
0
LINE
8
Layer_1
10
130.988835
20
187.413038
11
131.342388
21
187.266591
0
LINE
8
Layer_1
10
131.342388
20
187.266591
11
131.488834
21
186.913039
0
LINE
8
Layer_1
10
131.488755
20
186.913099
11
131.488755
21
173.913078
0
LINE
8
Layer_1
10
131.488834
20
173.913055
11
131.342388
21
173.559502
0
LINE
8
Layer_1
10
131.342388
20
173.559502
11
130.988835
21
173.413056
0
LINE
8
Layer_1
10
130.988958
20
173.413016
11
117.988937
21
173.413016
0
LINE
8
Layer_1
10
117.988851
20
173.413056
11
117.635299
21
173.559502
0
LINE
8
Layer_1
10
117.635299
20
173.559502
11
117.488852
21
173.913055
0
LINE
8
Layer_1
10
117.488875
20
173.913078
11
117.488875
21
186.913099
0
LINE
8
Layer_1
10
117.488852
20
186.913039
11
117.635299
21
187.266591
0
LINE
8
Layer_1
10
117.635299
20
187.266591
11
117.988851
21
187.413038
0
LINE
8
Layer_1
10
117.988937
20
187.413161
11
117.988937
21
187.413161
0
LINE
8
Layer_1
10
98.938961
20
187.413161
11
111.938982
21
187.413161
0
LINE
8
Layer_1
10
111.938859
20
187.413038
11
112.292412
21
187.266591
0
LINE
8
Layer_1
10
112.292412
20
187.266591
11
112.438858
21
186.913039
0
LINE
8
Layer_1
10
112.438779
20
186.913099
11
112.438779
21
173.913078
0
LINE
8
Layer_1
10
112.438858
20
173.913055
11
112.292412
21
173.559502
0
LINE
8
Layer_1
10
112.292412
20
173.559502
11
111.938859
21
173.413056
0
LINE
8
Layer_1
10
111.938982
20
173.413016
11
98.938961
21
173.413016
0
LINE
8
Layer_1
10
98.938875
20
173.413056
11
98.585323
21
173.559502
0
LINE
8
Layer_1
10
98.585323
20
173.559502
11
98.438876
21
173.913055
0
LINE
8
Layer_1
10
98.438899
20
173.913078
11
98.438899
21
186.913099
0
LINE
8
Layer_1
10
98.438876
20
186.913039
11
98.585323
21
187.266591
0
LINE
8
Layer_1
10
98.585323
20
187.266591
11
98.938875
21
187.413038
0
LINE
8
Layer_1
10
98.938961
20
187.413161
11
98.938961
21
187.413161
0
LINE
8
Layer_1
10
79.888985
20
187.413161
11
92.889006
21
187.413161
0
LINE
8
Layer_1
10
92.888883
20
187.413038
11
93.242436
21
187.266591
0
LINE
8
Layer_1
10
93.242436
20
187.266591
11
93.388882
21
186.913039
0
LINE
8
Layer_1
10
93.388803
20
186.913099
11
93.388803
21
173.913078
0
LINE
8
Layer_1
10
93.388882
20
173.913055
11
93.242436
21
173.559502
0
LINE
8
Layer_1
10
93.242436
20
173.559502
11
92.888883
21
173.413056
0
LINE
8
Layer_1
10
92.889006
20
173.413016
11
79.888985
21
173.413016
0
LINE
8
Layer_1
10
79.888899
20
173.413056
11
79.535347
21
173.559502
0
LINE
8
Layer_1
10
79.535347
20
173.559502
11
79.388900
21
173.913055
0
LINE
8
Layer_1
10
79.388923
20
173.913078
11
79.388923
21
186.913099
0
LINE
8
Layer_1
10
79.388900
20
186.913039
11
79.535347
21
187.266591
0
LINE
8
Layer_1
10
79.535347
20
187.266591
11
79.888899
21
187.413038
0
LINE
8
Layer_1
10
79.888985
20
187.413161
11
79.888985
21
187.413161
0
LINE
8
Layer_1
10
132.276948
20
206.463137
11
145.276704
21
206.463137
0
LINE
8
Layer_1
10
145.276817
20
206.463014
11
145.630370
21
206.316567
0
LINE
8
Layer_1
10
145.630370
20
206.316567
11
145.776816
21
205.963015
0
LINE
8
Layer_1
10
145.776766
20
205.963075
11
145.776766
21
192.963054
0
LINE
8
Layer_1
10
145.776816
20
192.963031
11
145.630370
21
192.609478
0
LINE
8
Layer_1
10
145.630370
20
192.609478
11
145.276817
21
192.463032
0
LINE
8
Layer_1
10
145.276704
20
192.462992
11
132.276948
21
192.462992
0
LINE
8
Layer_1
10
132.276833
20
192.463032
11
131.923281
21
192.609478
0
LINE
8
Layer_1
10
131.923281
20
192.609478
11
131.776834
21
192.963031
0
LINE
8
Layer_1
10
131.776886
20
192.963054
11
131.776886
21
205.963075
0
LINE
8
Layer_1
10
131.776834
20
205.963015
11
131.923281
21
206.316567
0
LINE
8
Layer_1
10
131.923281
20
206.316567
11
132.276833
21
206.463014
0
LINE
8
Layer_1
10
132.276948
20
206.463137
11
132.276948
21
206.463137
0
LINE
8
Layer_1
10
105.293935
20
140.011794
11
106.817933
21
140.011794
0
LINE
8
Layer_1
10
106.817933
20
140.011794
11
106.817933
21
135.542987
0
LINE
8
Layer_1
10
106.817933
20
135.542987
11
108.543014
21
135.542987
0
LINE
8
Layer_1
10
108.543014
20
135.542987
11
108.543014
21
134.342574
0
LINE
8
Layer_1
10
108.543014
20
134.342574
11
111.842364
21
134.342574
0
LINE
8
Layer_1
10
111.842364
20
134.342574
11
111.842364
21
135.542987
0
LINE
8
Layer_1
10
111.842364
20
135.542987
11
113.567445
21
135.542987
0
LINE
8
Layer_1
10
113.567445
20
135.542987
11
113.567445
21
141.812810
0
LINE
8
Layer_1
10
113.567445
20
141.812810
11
114.392944
21
141.812810
0
LINE
8
Layer_1
10
114.392944
20
141.812810
11
114.392944
21
144.613157
0
LINE
8
Layer_1
10
114.392944
20
144.613157
11
113.567445
21
144.613157
0
LINE
8
Layer_1
10
113.567445
20
144.613157
11
113.567445
21
147.841863
0
LINE
8
Layer_1
10
113.567445
20
147.841863
11
106.817933
21
147.841863
0
LINE
8
Layer_1
10
106.817933
20
147.841863
11
106.817933
21
144.613157
0
LINE
8
Layer_1
10
106.817933
20
144.613157
11
105.293935
21
144.613157
0
LINE
8
Layer_1
10
105.293935
20
144.613157
11
105.293406
21
148.812192
0
LINE
8
Layer_1
10
105.293406
20
148.812192
11
105.146566
21
149.165823
0
LINE
8
Layer_1
10
105.146566
20
149.165823
11
104.793405
21
149.312222
0
LINE
8
Layer_1
10
104.793405
20
149.312222
11
91.794410
21
149.312185
0
LINE
8
Layer_1
10
91.794410
20
149.312185
11
91.440321
21
149.165847
0
LINE
8
Layer_1
10
91.440321
20
149.165847
11
91.294372
21
148.812195
0
LINE
8
Layer_1
10
91.294372
20
148.812195
11
91.294901
21
144.613157
0
LINE
8
Layer_1
10
91.294901
20
144.613157
11
89.768257
21
144.613157
0
LINE
8
Layer_1
10
89.768257
20
144.613157
11
89.768257
21
147.841863
0
LINE
8
Layer_1
10
89.768257
20
147.841863
11
83.018745
21
147.841863
0
LINE
8
Layer_1
10
83.018745
20
147.841863
11
83.018745
21
144.613157
0
LINE
8
Layer_1
10
83.018745
20
144.613157
11
82.193246
21
144.613157
0
LINE
8
Layer_1
10
82.193246
20
144.613157
11
82.193246
21
141.812810
0
LINE
8
Layer_1
10
82.193246
20
141.812810
11
83.018745
21
141.812810
0
LINE
8
Layer_1
10
83.018745
20
141.812810
11
83.018745
21
135.542987
0
LINE
8
Layer_1
10
83.018745
20
135.542987
11
84.743826
21
135.542987
0
LINE
8
Layer_1
10
84.743826
20
135.542987
11
84.743826
21
134.342574
0
LINE
8
Layer_1
10
84.743826
20
134.342574
11
88.043176
21
134.342574
0
LINE
8
Layer_1
10
88.043176
20
134.342574
11
88.043176
21
135.542987
0
LINE
8
Layer_1
10
88.043176
20
135.542987
11
89.768257
21
135.542987
0
LINE
8
Layer_1
10
89.768257
20
135.542987
11
89.768257
21
140.011794
0
LINE
8
Layer_1
10
89.768257
20
140.011794
11
91.294901
21
140.011794
0
LINE
8
Layer_1
10
91.294901
20
140.011794
11
91.294372
21
135.812856
0
LINE
8
Layer_1
10
91.294372
20
135.812856
11
91.440300
21
135.459294
0
LINE
8
Layer_1
10
91.440300
20
135.459294
11
91.794384
21
135.312826
0
LINE
8
Layer_1
10
91.794384
20
135.312826
11
104.793357
21
135.312826
0
LINE
8
Layer_1
10
104.793357
20
135.312826
11
105.146523
21
135.459301
0
LINE
8
Layer_1
10
105.146523
20
135.459301
11
105.293382
21
135.812856
0
LINE
8
Layer_1
10
105.293382
20
135.812856
11
105.293935
21
140.011794
0
LINE
8
Layer_1
10
49.496412
20
135.313212
11
36.497439
21
135.313212
0
LINE
8
Layer_1
10
36.497439
20
135.313212
11
36.143414
21
135.459543
0
LINE
8
Layer_1
10
36.143414
20
135.459543
11
35.997404
21
135.813242
0
LINE
8
Layer_1
10
35.997404
20
135.813242
11
35.997840
21
140.012323
0
LINE
8
Layer_1
10
35.997840
20
140.012323
11
34.471196
21
140.012323
0
LINE
8
Layer_1
10
34.471196
20
140.012323
11
34.471196
21
136.783616
0
LINE
8
Layer_1
10
34.471196
20
136.783616
11
27.721684
21
136.783616
0
LINE
8
Layer_1
10
27.721684
20
136.783616
11
27.721684
21
140.012323
0
LINE
8
Layer_1
10
27.721684
20
140.012323
11
26.896185
21
140.012323
0
LINE
8
Layer_1
10
26.896185
20
140.012323
11
26.896185
21
142.812669
0
LINE
8
Layer_1
10
26.896185
20
142.812669
11
27.721684
21
142.812669
0
LINE
8
Layer_1
10
27.721684
20
142.812669
11
27.721684
21
149.082493
0
LINE
8
Layer_1
10
27.721684
20
149.082493
11
29.446765
21
149.082493
0
LINE
8
Layer_1
10
29.446765
20
149.082493
11
29.446765
21
150.282906
0
LINE
8
Layer_1
10
29.446765
20
150.282906
11
32.746115
21
150.282906
0
LINE
8
Layer_1
10
32.746115
20
150.282906
11
32.746115
21
149.082493
0
LINE
8
Layer_1
10
32.746115
20
149.082493
11
34.471196
21
149.082493
0
LINE
8
Layer_1
10
34.471196
20
149.082493
11
34.471196
21
144.613686
0
LINE
8
Layer_1
10
34.471196
20
144.613686
11
35.997840
21
144.613686
0
LINE
8
Layer_1
10
35.997840
20
144.613686
11
35.997311
21
148.812578
0
LINE
8
Layer_1
10
35.997311
20
148.812578
11
36.143321
21
149.166096
0
LINE
8
Layer_1
10
36.143321
20
149.166096
11
36.497346
21
149.312608
0
LINE
8
Layer_1
10
36.497346
20
149.312608
11
49.496320
21
149.312608
0
LINE
8
Layer_1
10
49.496320
20
149.312608
11
49.849530
21
149.166099
0
LINE
8
Layer_1
10
49.849530
20
149.166099
11
49.996345
21
148.812578
0
LINE
8
Layer_1
10
49.996345
20
148.812578
11
49.996874
21
144.613686
0
LINE
8
Layer_1
10
49.996874
20
144.613686
11
51.520872
21
144.613686
0
LINE
8
Layer_1
10
51.520872
20
144.613686
11
51.520872
21
149.082493
0
LINE
8
Layer_1
10
51.520872
20
149.082493
11
53.245953
21
149.082493
0
LINE
8
Layer_1
10
53.245953
20
149.082493
11
53.245953
21
150.282906
0
LINE
8
Layer_1
10
53.245953
20
150.282906
11
56.545303
21
150.282906
0
LINE
8
Layer_1
10
56.545303
20
150.282906
11
56.545303
21
149.082493
0
LINE
8
Layer_1
10
56.545303
20
149.082493
11
58.270384
21
149.082493
0
LINE
8
Layer_1
10
58.270384
20
149.082493
11
58.270384
21
142.812669
0
LINE
8
Layer_1
10
58.270384
20
142.812669
11
59.095883
21
142.812669
0
LINE
8
Layer_1
10
59.095883
20
142.812669
11
59.095883
21
140.012323
0
LINE
8
Layer_1
10
59.095883
20
140.012323
11
58.270384
21
140.012323
0
LINE
8
Layer_1
10
58.270384
20
140.012323
11
58.270384
21
136.783616
0
LINE
8
Layer_1
10
58.270384
20
136.783616
11
51.520872
21
136.783616
0
LINE
8
Layer_1
10
51.520872
20
136.783616
11
51.520872
21
140.012323
0
LINE
8
Layer_1
10
51.520872
20
140.012323
11
49.996874
21
140.012323
0
LINE
8
Layer_1
10
49.996874
20
140.012323
11
49.996345
21
135.813242
0
LINE
8
Layer_1
10
49.996345
20
135.813242
11
49.849515
21
135.459579
0
LINE
8
Layer_1
10
49.849515
20
135.459579
11
49.496320
21
135.313212
0
LINE
8
Layer_1
10
49.496320
20
135.313212
11
49.496412
21
135.313212
 0 
ENDSEC
 0 
EOF