  0
SECTION
  2
HEADER
  9
$ACADVER
  1
AC1014
  9
$HANDSEED
  5
FFFF
  9
$INSUNITS
 70
     0
  9
$MEASUREMENT
 70
     1
  0
ENDSEC
  0
SECTION
  2
TABLES
  0
TABLE
  2
VPORT
  5
8
330
0
100
AcDbSymbolTable
 70
     4
  0
VPORT
  5
2E
330
8
100
AcDbSymbolTableRecord
100
AcDbViewportTableRecord
  2
*ACTIVE
 70
     0
 10
0.0
 20
0.0
 11
1.0
 21
1.0
 12
210.0
 22
148.5
 13
0.0
 23
0.0
 14
10.0
 24
10.0
 15
10.0
 25
10.0
 16
0.0
 26
0.0
 36
1.0
 17
0.0
 27
0.0
 37
0.0
 40
341.0
 41
1.24
 42
50.0
 43
0.0
 44
0.0
 50
0.0
 51
0.0
 71
     0
 72
   100
 73
     1
 74
     3
 75
     0
 76
     0
 77
     0
 78
     0
  0
ENDTAB
  0
TABLE
  2
LTYPE
  5
5
330
0
100
AcDbSymbolTable
 70
     1
  0
LTYPE
  5
14
330
5
100
AcDbSymbolTableRecord
100
AcDbLinetypeTableRecord
  2
BYBLOCK
 70
     0
  3

 72
    65
 73
     0
 40
0.0
  0
LTYPE
  5
15
330
5
100
AcDbSymbolTableRecord
100
AcDbLinetypeTableRecord
  2
BYLAYER
 70
     0
  3

 72
    65
 73
     0
 40
0.0
  0
LTYPE
  5
16
330
5
100
AcDbSymbolTableRecord
100
AcDbLinetypeTableRecord
  2
CONTINUOUS
 70
     0
  3
Solid line
 72
    65
 73
     0
 40
0.0
  0
ENDTAB
  0
TABLE
  2
LAYER
  5
2
100
AcDbSymbolTable
 70
2
  0
LAYER
  5
50
100
AcDbSymbolTableRecord
100
AcDbLayerTableRecord
  2
0
 70
0
  6
CONTINUOUS
  0
LAYER
  5
51
100
AcDbSymbolTableRecord
100
AcDbLayerTableRecord
  2
Layer_1
 70
0
  6
CONTINUOUS
  0
ENDTAB
  0
TABLE
  2
STYLE
  5
3
330
0
100
AcDbSymbolTable
 70
     1
  0
STYLE
  5
11
330
3
100
AcDbSymbolTableRecord
100
AcDbTextStyleTableRecord
  2
STANDARD
 70
     0
 40
0.0
 41
1.0
 50
0.0
 71
     0
 42
2.5
  3
txt
  4

  0
ENDTAB
  0
TABLE
  2
VIEW
  5
6
330
0
100
AcDbSymbolTable
 70
     0
  0
ENDTAB
  0
TABLE
  2
UCS
  5
7
330
0
100
AcDbSymbolTable
 70
     0
  0
ENDTAB
  0
TABLE
  2
APPID
  5
9
330
0
100
AcDbSymbolTable
 70
     2
  0
APPID
  5
12
330
9
100
AcDbSymbolTableRecord
100
AcDbRegAppTableRecord
  2
ACAD
 70
     0
  0
ENDTAB
  0
TABLE
  2
DIMSTYLE
  5
A
330
0
100
AcDbSymbolTable
 70
     1
  0
DIMSTYLE
105
27
330
A
100
AcDbSymbolTableRecord
100
AcDbDimStyleTableRecord
  2
ISO-25
 70
     0
  3

  4

  5

  6

  7

 40
1.0
 41
2.5
 42
0.625
 43
3.75
 44
1.25
 45
0.0
 46
0.0
 47
0.0
 48
0.0
140
2.5
141
2.5
142
0.0
143
0.03937007874016
144
1.0
145
0.0
146
1.0
147
0.625
 71
     0
 72
     0
 73
     0
 74
     0
 75
     0
 76
     0
 77
     1
 78
     8
170
     0
171
     3
172
     1
173
     0
174
     0
175
     0
176
     0
177
     0
178
     0
270
     2
271
     2
272
     2
273
     2
274
     3
340
11
275
     0
280
     0
281
     0
282
     0
283
     0
284
     8
285
     0
286
     0
287
     3
288
     0
  0
ENDTAB
  0
TABLE
  2
BLOCK_RECORD
  5
1
330
0
100
AcDbSymbolTable
 70
     1
  0
BLOCK_RECORD
  5
1F
330
1
100
AcDbSymbolTableRecord
100
AcDbBlockTableRecord
  2
*MODEL_SPACE
  0
BLOCK_RECORD
  5
1B
330
1
100
AcDbSymbolTableRecord
100
AcDbBlockTableRecord
  2
*PAPER_SPACE
  0
ENDTAB
  0
ENDSEC
  0
SECTION
  2
BLOCKS
  0
BLOCK
  5
20
330
1F
100
AcDbEntity
  8
0
100
AcDbBlockBegin
  2
*MODEL_SPACE
 70
     0
 10
0.0
 20
0.0
 30
0.0
  3
*MODEL_SPACE
  1

  0
ENDBLK
  5
21
330
1F
100
AcDbEntity
  8
0
100
AcDbBlockEnd
  0
BLOCK
  5
1C
330
1B
100
AcDbEntity
 67
     1
  8
0
100
AcDbBlockBegin
  2
*PAPER_SPACE
  1

  0
ENDBLK
  5
1D
330
1B
100
AcDbEntity
 67
     1
  8
0
100
AcDbBlockEnd
  0
ENDSEC
  0
SECTION
  2
ENTITIES
  0
LINE
  5
100
100
AcDbEntity
  8
Layer_1
 62
4
100
AcDbLine
 10
91.774470
 20
162.826100
 30
0.0
 11
91.774470
 21
97.261170
 31
0.0
  0
SPLINE
  5
101
100
AcDbEntity
  8
Layer_1
 62
4
100
AcDbSpline
 70
8
 71
3
 72
8
 73
4
 74
0
 40
0
 40
0
 40
0
 40
0
 40
1
 40
1
 40
1
 40
1
 10
91.774470
 20
97.261170
 30
0.0
 10
91.774470
 20
96.585028
 30
0.0
 10
92.050127
 20
95.938110
 30
0.0
 10
92.537800
 20
95.469770
 30
0.0
  0
LINE
  5
102
100
AcDbEntity
  8
Layer_1
 62
4
100
AcDbLine
 10
92.537800
 20
95.469770
 30
0.0
 11
94.204240
 21
93.869410
 31
0.0
  0
SPLINE
  5
103
100
AcDbEntity
  8
Layer_1
 62
4
100
AcDbSpline
 70
8
 71
3
 72
8
 73
4
 74
0
 40
0
 40
0
 40
0
 40
0
 40
1
 40
1
 40
1
 40
1
 10
94.204240
 20
93.869410
 30
0.0
 10
94.694035
 20
93.399034
 30
0.0
 10
95.346817
 20
93.136388
 30
0.0
 10
96.025900
 20
93.136470
 30
0.0
  0
LINE
  5
104
100
AcDbEntity
  8
Layer_1
 62
4
100
AcDbLine
 10
96.025900
 20
93.136470
 30
0.0
 11
190.283760
 21
93.148070
 31
0.0
  0
SPLINE
  5
105
100
AcDbEntity
  8
Layer_1
 62
4
100
AcDbSpline
 70
8
 71
3
 72
8
 73
4
 74
0
 40
0
 40
0
 40
0
 40
0
 40
1
 40
1
 40
1
 40
1
 10
190.283760
 20
93.148070
 30
0.0
 10
190.989313
 20
93.148158
 30
0.0
 10
191.694867
 20
93.148258
 30
0.0
 10
192.400420
 20
93.148370
 30
0.0
  0
LINE
  5
106
100
AcDbEntity
  8
Layer_1
 62
4
100
AcDbLine
 10
192.400420
 20
93.148370
 30
0.0
 11
209.413690
 21
93.151370
 31
0.0
  0
SPLINE
  5
107
100
AcDbEntity
  8
Layer_1
 62
4
100
AcDbSpline
 70
8
 71
3
 72
8
 73
4
 74
0
 40
0
 40
0
 40
0
 40
0
 40
1
 40
1
 40
1
 40
1
 10
209.413690
 20
93.151370
 30
0.0
 10
210.119243
 20
93.151482
 30
0.0
 10
210.824797
 20
93.151599
 30
0.0
 10
211.530350
 20
93.151720
 30
0.0
  0
LINE
  5
108
100
AcDbEntity
  8
Layer_1
 62
4
100
AcDbLine
 10
211.530350
 20
93.151720
 30
0.0
 11
227.108300
 21
93.154720
 31
0.0
  0
SPLINE
  5
109
100
AcDbEntity
  8
Layer_1
 62
4
100
AcDbSpline
 70
8
 71
3
 72
8
 73
4
 74
0
 40
0
 40
0
 40
0
 40
0
 40
1
 40
1
 40
1
 40
1
 10
227.108300
 20
93.154720
 30
0.0
 10
227.787711
 20
93.154836
 30
0.0
 10
228.441066
 20
93.416181
 30
0.0
 10
228.933130
 20
93.884660
 30
0.0
  0
LINE
  5
10a
100
AcDbEntity
  8
Layer_1
 62
4
100
AcDbLine
 10
228.933130
 20
93.884660
 30
0.0
 11
230.619560
 21
95.490260
 31
0.0
  0
SPLINE
  5
10b
100
AcDbEntity
  8
Layer_1
 62
4
100
AcDbSpline
 70
8
 71
3
 72
8
 73
4
 74
0
 40
0
 40
0
 40
0
 40
0
 40
1
 40
1
 40
1
 40
1
 10
230.619560
 20
95.490260
 30
0.0
 10
231.109021
 20
95.956260
 30
0.0
 10
231.386059
 20
96.602533
 30
0.0
 10
231.386060
 20
97.278350
 30
0.0
  0
LINE
  5
10c
100
AcDbEntity
  8
Layer_1
 62
4
100
AcDbLine
 10
231.386060
 20
97.278350
 30
0.0
 11
231.386060
 21
200.112760
 31
0.0
  0
SPLINE
  5
10d
100
AcDbEntity
  8
Layer_1
 62
4
100
AcDbSpline
 70
8
 71
3
 72
8
 73
4
 74
0
 40
0
 40
0
 40
0
 40
0
 40
1
 40
1
 40
1
 40
1
 10
231.386060
 20
200.112760
 30
0.0
 10
231.386058
 20
200.785324
 30
0.0
 10
231.095770
 20
201.425159
 30
0.0
 10
230.589670
 20
201.868110
 30
0.0
  0
LINE
  5
10e
100
AcDbEntity
  8
Layer_1
 62
4
100
AcDbLine
 10
230.589670
 20
201.868110
 30
0.0
 11
228.955140
 21
203.298700
 31
0.0
  0
SPLINE
  5
10f
100
AcDbEntity
  8
Layer_1
 62
4
100
AcDbSpline
 70
8
 71
3
 72
8
 73
4
 74
0
 40
0
 40
0
 40
0
 40
0
 40
1
 40
1
 40
1
 40
1
 10
228.955140
 20
203.298700
 30
0.0
 10
228.441745
 20
203.748040
 30
0.0
 10
227.782681
 20
203.995718
 30
0.0
 10
227.100420
 20
203.995710
 30
0.0
  0
LINE
  5
110
100
AcDbEntity
  8
Layer_1
 62
4
100
AcDbLine
 10
227.100420
 20
203.995710
 30
0.0
 11
212.853300
 21
203.995500
 31
0.0
  0
SPLINE
  5
111
100
AcDbEntity
  8
Layer_1
 62
4
100
AcDbSpline
 70
8
 71
3
 72
8
 73
4
 74
0
 40
0
 40
0
 40
0
 40
0
 40
1
 40
1
 40
1
 40
1
 10
212.853300
 20
203.995500
 30
0.0
 10
212.147747
 20
203.995491
 30
0.0
 10
211.442193
 20
203.995481
 30
0.0
 10
210.736640
 20
203.995470
 30
0.0
  0
LINE
  5
112
100
AcDbEntity
  8
Layer_1
 62
4
100
AcDbLine
 10
210.736640
 20
203.995470
 30
0.0
 11
193.458710
 21
203.995160
 31
0.0
  0
SPLINE
  5
113
100
AcDbEntity
  8
Layer_1
 62
4
100
AcDbSpline
 70
8
 71
3
 72
8
 73
4
 74
0
 40
0
 40
0
 40
0
 40
0
 40
1
 40
1
 40
1
 40
1
 10
193.458710
 20
203.995160
 30
0.0
 10
192.753157
 20
203.995147
 30
0.0
 10
192.047603
 20
203.995137
 30
0.0
 10
191.342050
 20
203.995130
 30
0.0
  0
LINE
  5
114
100
AcDbEntity
  8
Layer_1
 62
4
100
AcDbLine
 10
191.342050
 20
203.995130
 30
0.0
 11
96.027920
 21
203.994180
 31
0.0
  0
SPLINE
  5
115
100
AcDbEntity
  8
Layer_1
 62
4
100
AcDbSpline
 70
8
 71
3
 72
8
 73
4
 74
0
 40
0
 40
0
 40
0
 40
0
 40
1
 40
1
 40
1
 40
1
 10
96.027920
 20
203.994180
 30
0.0
 10
95.346021
 20
203.994171
 30
0.0
 10
94.687680
 20
203.744716
 30
0.0
 10
94.177000
 20
203.292840
 30
0.0
  0
LINE
  5
116
100
AcDbEntity
  8
Layer_1
 62
4
100
AcDbLine
 10
94.177000
 20
203.292840
 30
0.0
 11
92.567060
 21
201.868290
 31
0.0
  0
SPLINE
  5
117
100
AcDbEntity
  8
Layer_1
 62
4
100
AcDbSpline
 70
8
 71
3
 72
8
 73
4
 74
0
 40
0
 40
0
 40
0
 40
0
 40
1
 40
1
 40
1
 40
1
 10
92.567060
 20
201.868290
 30
0.0
 10
92.063050
 20
201.422313
 30
0.0
 10
91.774470
 20
200.781624
 30
0.0
 10
91.774470
 20
200.108630
 30
0.0
  0
LINE
  5
118
100
AcDbEntity
  8
Layer_1
 62
4
100
AcDbLine
 10
91.774470
 20
200.108630
 30
0.0
 11
91.774470
 21
185.052170
 31
0.0
  0
SPLINE
  5
119
100
AcDbEntity
  8
Layer_1
 62
4
100
AcDbSpline
 70
8
 71
3
 72
8
 73
4
 74
0
 40
0
 40
0
 40
0
 40
0
 40
1
 40
1
 40
1
 40
1
 10
91.774470
 20
185.052170
 30
0.0
 10
91.774470
 20
184.771541
 30
0.0
 10
91.885992
 20
184.502416
 30
0.0
 10
92.084486
 20
184.304040
 30
0.0
  0
SPLINE
  5
11a
100
AcDbEntity
  8
Layer_1
 62
4
100
AcDbSpline
 70
8
 71
3
 72
8
 73
4
 74
0
 40
0
 40
0
 40
0
 40
0
 40
1
 40
1
 40
1
 40
1
 10
92.084486
 20
184.304040
 30
0.0
 10
92.282979
 20
184.105665
 30
0.0
 10
92.552171
 20
183.994303
 30
0.0
 10
92.832800
 20
183.994470
 30
0.0
  0
LINE
  5
11b
100
AcDbEntity
  8
Layer_1
 62
4
100
AcDbLine
 10
92.832800
 20
183.994470
 30
0.0
 11
96.251490
 21
183.996470
 31
0.0
  0
SPLINE
  5
11c
100
AcDbEntity
  8
Layer_1
 62
4
100
AcDbSpline
 70
8
 71
3
 72
8
 73
4
 74
0
 40
0
 40
0
 40
0
 40
0
 40
1
 40
1
 40
1
 40
1
 10
96.251490
 20
183.996470
 30
0.0
 10
96.543740
 20
183.996650
 30
0.0
 10
97.017580
 20
183.996850
 30
0.0
 10
97.309830
 20
183.996740
 30
0.0
  0
SPLINE
  5
11d
100
AcDbEntity
  8
Layer_1
 62
4
100
AcDbSpline
 70
8
 71
3
 72
8
 73
4
 74
0
 40
0
 40
0
 40
0
 40
0
 40
1
 40
1
 40
1
 40
1
 10
97.309830
 20
183.996740
 30
0.0
 10
97.798850
 20
183.996560
 30
0.0
 10
98.287860
 20
183.996020
 30
0.0
 10
98.776880
 20
183.995740
 30
0.0
  0
SPLINE
  5
11e
100
AcDbEntity
  8
Layer_1
 62
4
100
AcDbSpline
 70
8
 71
3
 72
8
 73
4
 74
0
 40
0
 40
0
 40
0
 40
0
 40
1
 40
1
 40
1
 40
1
 10
98.776880
 20
183.995740
 30
0.0
 10
99.069130
 20
183.995390
 30
0.0
 10
99.542970
 20
183.995110
 30
0.0
 10
99.835220
 20
183.995130
 30
0.0
  0
LINE
  5
11f
100
AcDbEntity
  8
Layer_1
 62
4
100
AcDbLine
 10
99.835220
 20
183.995130
 30
0.0
 11
100.992480
 21
183.995190
 31
0.0
  0
SPLINE
  5
120
100
AcDbEntity
  8
Layer_1
 62
4
100
AcDbSpline
 70
8
 71
3
 72
8
 73
4
 74
0
 40
0
 40
0
 40
0
 40
0
 40
1
 40
1
 40
1
 40
1
 10
100.992480
 20
183.995190
 30
0.0
 10
101.345260
 20
183.995209
 30
0.0
 10
101.698040
 20
183.995352
 30
0.0
 10
102.050820
 20
183.995620
 30
0.0
  0
LINE
  5
121
100
AcDbEntity
  8
Layer_1
 62
4
100
AcDbLine
 10
102.050820
 20
183.995620
 30
0.0
 11
218.795440
 21
184.084420
 31
0.0
  0
SPLINE
  5
122
100
AcDbEntity
  8
Layer_1
 62
4
100
AcDbSpline
 70
8
 71
3
 72
8
 73
4
 74
0
 40
0
 40
0
 40
0
 40
0
 40
1
 40
1
 40
1
 40
1
 10
218.795440
 20
184.084420
 30
0.0
 10
219.148217
 20
184.084719
 30
0.0
 10
219.500994
 20
184.085386
 30
0.0
 10
219.853770
 20
184.086420
 30
0.0
  0
LINE
  5
123
100
AcDbEntity
  8
Layer_1
 62
4
100
AcDbLine
 10
219.853770
 20
184.086420
 30
0.0
 11
223.755700
 21
184.097520
 31
0.0
  0
SPLINE
  5
124
100
AcDbEntity
  8
Layer_1
 62
4
100
AcDbSpline
 70
8
 71
3
 72
8
 73
4
 74
0
 40
0
 40
0
 40
0
 40
0
 40
1
 40
1
 40
1
 40
1
 10
223.755700
 20
184.097520
 30
0.0
 10
224.108476
 20
184.098520
 30
0.0
 10
224.461253
 20
184.099187
 30
0.0
 10
224.814030
 20
184.099520
 30
0.0
  0
LINE
  5
125
100
AcDbEntity
  8
Layer_1
 62
4
100
AcDbLine
 10
224.814030
 20
184.099520
 30
0.0
 11
225.860450
 21
184.100520
 31
0.0
  0
SPLINE
  5
126
100
AcDbEntity
  8
Layer_1
 62
4
100
AcDbSpline
 70
8
 71
3
 72
8
 73
4
 74
0
 40
0
 40
0
 40
0
 40
0
 40
1
 40
1
 40
1
 40
1
 10
225.860450
 20
184.100520
 30
0.0
 10
226.152700
 20
184.100790
 30
0.0
 10
226.389630
 20
183.864100
 30
0.0
 10
226.389630
 20
183.571850
 30
0.0
  0
SPLINE
  5
127
100
AcDbEntity
  8
Layer_1
 62
4
100
AcDbSpline
 70
8
 71
3
 72
8
 73
4
 74
0
 40
0
 40
0
 40
0
 40
0
 40
1
 40
1
 40
1
 40
1
 10
226.389630
 20
183.571850
 30
0.0
 10
226.390170
 20
158.198760
 30
0.0
 10
226.389380
 20
132.534690
 30
0.0
 10
226.387630
 20
107.163800
 30
0.0
  0
SPLINE
  5
128
100
AcDbEntity
  8
Layer_1
 62
4
100
AcDbSpline
 70
8
 71
3
 72
8
 73
4
 74
0
 40
0
 40
0
 40
0
 40
0
 40
1
 40
1
 40
1
 40
1
 10
226.387630
 20
107.163800
 30
0.0
 10
226.387610
 20
106.871550
 30
0.0
 10
226.150670
 20
106.634740
 30
0.0
 10
225.858420
 20
106.634880
 30
0.0
  0
LINE
  5
129
100
AcDbEntity
  8
Layer_1
 62
4
100
AcDbLine
 10
225.858420
 20
106.634880
 30
0.0
 11
224.814030
 21
106.635380
 31
0.0
  0
SPLINE
  5
12a
100
AcDbEntity
  8
Layer_1
 62
4
100
AcDbSpline
 70
8
 71
3
 72
8
 73
4
 74
0
 40
0
 40
0
 40
0
 40
0
 40
1
 40
1
 40
1
 40
1
 10
224.814030
 20
106.635380
 30
0.0
 10
224.461249
 20
106.635703
 30
0.0
 10
224.108469
 20
106.636370
 30
0.0
 10
223.755690
 20
106.637380
 30
0.0
  0
LINE
  5
12b
100
AcDbEntity
  8
Layer_1
 62
4
100
AcDbLine
 10
223.755690
 20
106.637380
 30
0.0
 11
188.351190
 21
106.723080
 31
0.0
  0
SPLINE
  5
12c
100
AcDbEntity
  8
Layer_1
 62
4
100
AcDbSpline
 70
8
 71
3
 72
8
 73
4
 74
0
 40
0
 40
0
 40
0
 40
0
 40
1
 40
1
 40
1
 40
1
 10
188.351190
 20
106.723080
 30
0.0
 10
188.058940
 20
106.723790
 30
0.0
 10
187.585100
 20
106.725080
 30
0.0
 10
187.292850
 20
106.725080
 30
0.0
  0
SPLINE
  5
12d
100
AcDbEntity
  8
Layer_1
 62
4
100
AcDbSpline
 70
8
 71
3
 72
8
 73
4
 74
0
 40
0
 40
0
 40
0
 40
0
 40
1
 40
1
 40
1
 40
1
 10
187.292850
 20
106.725080
 30
0.0
 10
172.709450
 20
106.748380
 30
0.0
 10
158.126000
 20
106.733080
 30
0.0
 10
143.542580
 20
106.732080
 30
0.0
  0
SPLINE
  5
12e
100
AcDbEntity
  8
Layer_1
 62
4
100
AcDbSpline
 70
8
 71
3
 72
8
 73
4
 74
0
 40
0
 40
0
 40
0
 40
0
 40
1
 40
1
 40
1
 40
1
 10
143.542580
 20
106.732080
 30
0.0
 10
143.250330
 20
106.732070
 30
0.0
 10
142.776500
 20
106.732100
 30
0.0
 10
142.484250
 20
106.732130
 30
0.0
  0
LINE
  5
12f
100
AcDbEntity
  8
Layer_1
 62
4
100
AcDbLine
 10
142.484250
 20
106.732130
 30
0.0
 11
107.079730
 21
106.736130
 31
0.0
  0
SPLINE
  5
130
100
AcDbEntity
  8
Layer_1
 62
4
100
AcDbSpline
 70
8
 71
3
 72
8
 73
4
 74
0
 40
0
 40
0
 40
0
 40
0
 40
1
 40
1
 40
1
 40
1
 10
107.079730
 20
106.736130
 30
0.0
 10
106.726950
 20
106.736169
 30
0.0
 10
106.374170
 20
106.736189
 30
0.0
 10
106.021390
 20
106.736190
 30
0.0
  0
LINE
  5
131
100
AcDbEntity
  8
Layer_1
 62
4
100
AcDbLine
 10
106.021390
 20
106.736190
 30
0.0
 11
102.073870
 21
106.736190
 31
0.0
  0
SPLINE
  5
132
100
AcDbEntity
  8
Layer_1
 62
4
100
AcDbSpline
 70
8
 71
3
 72
8
 73
4
 74
0
 40
0
 40
0
 40
0
 40
0
 40
1
 40
1
 40
1
 40
1
 10
102.073870
 20
106.736190
 30
0.0
 10
101.933525
 20
106.736189
 30
0.0
 10
101.798928
 20
106.791941
 30
0.0
 10
101.699689
 20
106.891179
 30
0.0
  0
SPLINE
  5
133
100
AcDbEntity
  8
Layer_1
 62
4
100
AcDbSpline
 70
8
 71
3
 72
8
 73
4
 74
0
 40
0
 40
0
 40
0
 40
0
 40
1
 40
1
 40
1
 40
1
 10
101.699689
 20
106.891179
 30
0.0
 10
101.600451
 20
106.990418
 30
0.0
 10
101.544699
 20
107.125015
 30
0.0
 10
101.544700
 20
107.265360
 30
0.0
  0
LINE
  5
134
100
AcDbEntity
  8
Layer_1
 62
4
100
AcDbLine
 10
101.544700
 20
107.265360
 30
0.0
 11
101.544700
 21
126.317570
 31
0.0
  0
LINE
  5
135
100
AcDbEntity
  8
Layer_1
 62
4
100
AcDbLine
 10
101.544700
 20
126.317570
 30
0.0
 11
101.544700
 21
144.305850
 31
0.0
  0
LINE
  5
136
100
AcDbEntity
  8
Layer_1
 62
4
100
AcDbLine
 10
101.544700
 20
144.305850
 30
0.0
 11
101.544700
 21
163.356640
 31
0.0
  0
SPLINE
  5
137
100
AcDbEntity
  8
Layer_1
 62
4
100
AcDbSpline
 70
8
 71
3
 72
8
 73
4
 74
0
 40
0
 40
0
 40
0
 40
0
 40
1
 40
1
 40
1
 40
1
 10
101.544700
 20
163.356640
 30
0.0
 10
101.544700
 20
163.648890
 30
0.0
 10
101.307780
 20
163.885810
 30
0.0
 10
101.015530
 20
163.885810
 30
0.0
  0
SPLINE
  5
138
100
AcDbEntity
  8
Layer_1
 62
4
100
AcDbSpline
 70
8
 71
3
 72
8
 73
4
 74
0
 40
0
 40
0
 40
0
 40
0
 40
1
 40
1
 40
1
 40
1
 10
101.015530
 20
163.885810
 30
0.0
 10
99.780420
 20
163.885800
 30
0.0
 10
98.545310
 20
163.885810
 30
0.0
 10
97.310200
 20
163.885810
 30
0.0
  0
SPLINE
  5
139
100
AcDbEntity
  8
Layer_1
 62
4
100
AcDbSpline
 70
8
 71
3
 72
8
 73
4
 74
0
 40
0
 40
0
 40
0
 40
0
 40
1
 40
1
 40
1
 40
1
 10
97.310200
 20
163.885810
 30
0.0
 10
97.017950
 20
163.885810
 30
0.0
 10
96.544110
 20
163.885770
 30
0.0
 10
96.251860
 20
163.885730
 30
0.0
  0
LINE
  5
13a
100
AcDbEntity
  8
Layer_1
 62
4
100
AcDbLine
 10
96.251860
 20
163.885730
 30
0.0
 11
92.832770
 21
163.885210
 31
0.0
  0
SPLINE
  5
13b
100
AcDbEntity
  8
Layer_1
 62
4
100
AcDbSpline
 70
8
 71
3
 72
8
 73
4
 74
0
 40
0
 40
0
 40
0
 40
0
 40
1
 40
1
 40
1
 40
1
 10
92.832770
 20
163.885210
 30
0.0
 10
92.248246
 20
163.885119
 30
0.0
 10
91.774442
 20
163.411244
 30
0.0
 10
91.774440
 20
162.826720
 30
0.0
  0
LINE
  5
13c
100
AcDbEntity
  8
Layer_1
 62
4
100
AcDbLine
 10
91.774440
 20
162.826720
 30
0.0
 11
91.774470
 21
162.826100
 31
0.0
  0
SPLINE
  5
13d
100
AcDbEntity
  8
Layer_1
 62
4
100
AcDbSpline
 70
8
 71
3
 72
8
 73
4
 74
0
 40
0
 40
0
 40
0
 40
0
 40
1
 40
1
 40
1
 40
1
 10
-52.112460
 20
102.514860
 30
0.0
 10
-52.745443
 20
102.514860
 30
0.0
 10
-53.316099
 20
102.133560
 30
0.0
 10
-53.558332
 20
101.548760
 30
0.0
  0
SPLINE
  5
13e
100
AcDbEntity
  8
Layer_1
 62
4
100
AcDbSpline
 70
8
 71
3
 72
8
 73
4
 74
0
 40
0
 40
0
 40
0
 40
0
 40
1
 40
1
 40
1
 40
1
 10
-53.558332
 20
101.548760
 30
0.0
 10
-53.800564
 20
100.963959
 30
0.0
 10
-53.666669
 20
100.290825
 30
0.0
 10
-53.219082
 20
99.843238
 30
0.0
  0
SPLINE
  5
13f
100
AcDbEntity
  8
Layer_1
 62
4
100
AcDbSpline
 70
8
 71
3
 72
8
 73
4
 74
0
 40
0
 40
0
 40
0
 40
0
 40
1
 40
1
 40
1
 40
1
 10
-53.219082
 20
99.843238
 30
0.0
 10
-52.771495
 20
99.395651
 30
0.0
 10
-52.098361
 20
99.261756
 30
0.0
 10
-51.513560
 20
99.503988
 30
0.0
  0
SPLINE
  5
140
100
AcDbEntity
  8
Layer_1
 62
4
100
AcDbSpline
 70
8
 71
3
 72
8
 73
4
 74
0
 40
0
 40
0
 40
0
 40
0
 40
1
 40
1
 40
1
 40
1
 10
-51.513560
 20
99.503988
 30
0.0
 10
-50.928760
 20
99.746221
 30
0.0
 10
-50.547460
 20
100.316877
 30
0.0
 10
-50.547460
 20
100.949860
 30
0.0
  0
SPLINE
  5
141
100
AcDbEntity
  8
Layer_1
 62
4
100
AcDbSpline
 70
8
 71
3
 72
8
 73
4
 74
0
 40
0
 40
0
 40
0
 40
0
 40
1
 40
1
 40
1
 40
1
 10
-50.547460
 20
100.949860
 30
0.0
 10
-50.547460
 20
101.814186
 30
0.0
 10
-51.248134
 20
102.514860
 30
0.0
 10
-52.112460
 20
102.514860
 30
0.0
  0
LINE
  5
142
100
AcDbEntity
  8
Layer_1
 62
4
100
AcDbLine
 10
-52.112460
 20
102.514860
 30
0.0
 11
-52.112460
 21
102.514860
 31
0.0
  0
SPLINE
  5
143
100
AcDbEntity
  8
Layer_1
 62
4
100
AcDbSpline
 70
8
 71
3
 72
8
 73
4
 74
0
 40
0
 40
0
 40
0
 40
0
 40
1
 40
1
 40
1
 40
1
 10
-52.112460
 20
191.348330
 30
0.0
 10
-52.745443
 20
191.348330
 30
0.0
 10
-53.316099
 20
190.967030
 30
0.0
 10
-53.558332
 20
190.382230
 30
0.0
  0
SPLINE
  5
144
100
AcDbEntity
  8
Layer_1
 62
4
100
AcDbSpline
 70
8
 71
3
 72
8
 73
4
 74
0
 40
0
 40
0
 40
0
 40
0
 40
1
 40
1
 40
1
 40
1
 10
-53.558332
 20
190.382230
 30
0.0
 10
-53.800564
 20
189.797429
 30
0.0
 10
-53.666669
 20
189.124295
 30
0.0
 10
-53.219082
 20
188.676708
 30
0.0
  0
SPLINE
  5
145
100
AcDbEntity
  8
Layer_1
 62
4
100
AcDbSpline
 70
8
 71
3
 72
8
 73
4
 74
0
 40
0
 40
0
 40
0
 40
0
 40
1
 40
1
 40
1
 40
1
 10
-53.219082
 20
188.676708
 30
0.0
 10
-52.771495
 20
188.229121
 30
0.0
 10
-52.098361
 20
188.095226
 30
0.0
 10
-51.513560
 20
188.337458
 30
0.0
  0
SPLINE
  5
146
100
AcDbEntity
  8
Layer_1
 62
4
100
AcDbSpline
 70
8
 71
3
 72
8
 73
4
 74
0
 40
0
 40
0
 40
0
 40
0
 40
1
 40
1
 40
1
 40
1
 10
-51.513560
 20
188.337458
 30
0.0
 10
-50.928760
 20
188.579691
 30
0.0
 10
-50.547460
 20
189.150347
 30
0.0
 10
-50.547460
 20
189.783330
 30
0.0
  0
SPLINE
  5
147
100
AcDbEntity
  8
Layer_1
 62
4
100
AcDbSpline
 70
8
 71
3
 72
8
 73
4
 74
0
 40
0
 40
0
 40
0
 40
0
 40
1
 40
1
 40
1
 40
1
 10
-50.547460
 20
189.783330
 30
0.0
 10
-50.547460
 20
190.647656
 30
0.0
 10
-51.248134
 20
191.348330
 30
0.0
 10
-52.112460
 20
191.348330
 30
0.0
  0
LINE
  5
148
100
AcDbEntity
  8
Layer_1
 62
4
100
AcDbLine
 10
-52.112460
 20
191.348330
 30
0.0
 11
-52.112460
 21
191.348330
 31
0.0
  0
SPLINE
  5
149
100
AcDbEntity
  8
Layer_1
 62
4
100
AcDbSpline
 70
8
 71
3
 72
8
 73
4
 74
0
 40
0
 40
0
 40
0
 40
0
 40
1
 40
1
 40
1
 40
1
 10
76.141690
 20
199.871250
 30
0.0
 10
75.508707
 20
199.871250
 30
0.0
 10
74.938051
 20
199.489950
 30
0.0
 10
74.695818
 20
198.905150
 30
0.0
  0
SPLINE
  5
14a
100
AcDbEntity
  8
Layer_1
 62
4
100
AcDbSpline
 70
8
 71
3
 72
8
 73
4
 74
0
 40
0
 40
0
 40
0
 40
0
 40
1
 40
1
 40
1
 40
1
 10
74.695818
 20
198.905150
 30
0.0
 10
74.453586
 20
198.320349
 30
0.0
 10
74.587481
 20
197.647215
 30
0.0
 10
75.035068
 20
197.199628
 30
0.0
  0
SPLINE
  5
14b
100
AcDbEntity
  8
Layer_1
 62
4
100
AcDbSpline
 70
8
 71
3
 72
8
 73
4
 74
0
 40
0
 40
0
 40
0
 40
0
 40
1
 40
1
 40
1
 40
1
 10
75.035068
 20
197.199628
 30
0.0
 10
75.482655
 20
196.752041
 30
0.0
 10
76.155789
 20
196.618146
 30
0.0
 10
76.740590
 20
196.860378
 30
0.0
  0
SPLINE
  5
14c
100
AcDbEntity
  8
Layer_1
 62
4
100
AcDbSpline
 70
8
 71
3
 72
8
 73
4
 74
0
 40
0
 40
0
 40
0
 40
0
 40
1
 40
1
 40
1
 40
1
 10
76.740590
 20
196.860378
 30
0.0
 10
77.325390
 20
197.102611
 30
0.0
 10
77.706690
 20
197.673267
 30
0.0
 10
77.706690
 20
198.306250
 30
0.0
  0
SPLINE
  5
14d
100
AcDbEntity
  8
Layer_1
 62
4
100
AcDbSpline
 70
8
 71
3
 72
8
 73
4
 74
0
 40
0
 40
0
 40
0
 40
0
 40
1
 40
1
 40
1
 40
1
 10
77.706690
 20
198.306250
 30
0.0
 10
77.706690
 20
198.721314
 30
0.0
 10
77.541807
 20
199.119378
 30
0.0
 10
77.248312
 20
199.412872
 30
0.0
  0
SPLINE
  5
14e
100
AcDbEntity
  8
Layer_1
 62
4
100
AcDbSpline
 70
8
 71
3
 72
8
 73
4
 74
0
 40
0
 40
0
 40
0
 40
0
 40
1
 40
1
 40
1
 40
1
 10
77.248312
 20
199.412872
 30
0.0
 10
76.954818
 20
199.706367
 30
0.0
 10
76.556754
 20
199.871250
 30
0.0
 10
76.141690
 20
199.871250
 30
0.0
  0
LINE
  5
14f
100
AcDbEntity
  8
Layer_1
 62
4
100
AcDbLine
 10
76.141690
 20
199.871250
 30
0.0
 11
76.141690
 21
199.871250
 31
0.0
  0
SPLINE
  5
150
100
AcDbEntity
  8
Layer_1
 62
4
100
AcDbSpline
 70
8
 71
3
 72
8
 73
4
 74
0
 40
0
 40
0
 40
0
 40
0
 40
1
 40
1
 40
1
 40
1
 10
76.141690
 20
102.535670
 30
0.0
 10
75.508707
 20
102.535670
 30
0.0
 10
74.938051
 20
102.154370
 30
0.0
 10
74.695818
 20
101.569570
 30
0.0
  0
SPLINE
  5
151
100
AcDbEntity
  8
Layer_1
 62
4
100
AcDbSpline
 70
8
 71
3
 72
8
 73
4
 74
0
 40
0
 40
0
 40
0
 40
0
 40
1
 40
1
 40
1
 40
1
 10
74.695818
 20
101.569570
 30
0.0
 10
74.453586
 20
100.984769
 30
0.0
 10
74.587481
 20
100.311635
 30
0.0
 10
75.035068
 20
99.864048
 30
0.0
  0
SPLINE
  5
152
100
AcDbEntity
  8
Layer_1
 62
4
100
AcDbSpline
 70
8
 71
3
 72
8
 73
4
 74
0
 40
0
 40
0
 40
0
 40
0
 40
1
 40
1
 40
1
 40
1
 10
75.035068
 20
99.864048
 30
0.0
 10
75.482655
 20
99.416461
 30
0.0
 10
76.155789
 20
99.282566
 30
0.0
 10
76.740590
 20
99.524798
 30
0.0
  0
SPLINE
  5
153
100
AcDbEntity
  8
Layer_1
 62
4
100
AcDbSpline
 70
8
 71
3
 72
8
 73
4
 74
0
 40
0
 40
0
 40
0
 40
0
 40
1
 40
1
 40
1
 40
1
 10
76.740590
 20
99.524798
 30
0.0
 10
77.325390
 20
99.767031
 30
0.0
 10
77.706690
 20
100.337687
 30
0.0
 10
77.706690
 20
100.970670
 30
0.0
  0
SPLINE
  5
154
100
AcDbEntity
  8
Layer_1
 62
4
100
AcDbSpline
 70
8
 71
3
 72
8
 73
4
 74
0
 40
0
 40
0
 40
0
 40
0
 40
1
 40
1
 40
1
 40
1
 10
77.706690
 20
100.970670
 30
0.0
 10
77.706690
 20
101.385734
 30
0.0
 10
77.541807
 20
101.783798
 30
0.0
 10
77.248312
 20
102.077292
 30
0.0
  0
SPLINE
  5
155
100
AcDbEntity
  8
Layer_1
 62
4
100
AcDbSpline
 70
8
 71
3
 72
8
 73
4
 74
0
 40
0
 40
0
 40
0
 40
0
 40
1
 40
1
 40
1
 40
1
 10
77.248312
 20
102.077292
 30
0.0
 10
76.954818
 20
102.370787
 30
0.0
 10
76.556754
 20
102.535670
 30
0.0
 10
76.141690
 20
102.535670
 30
0.0
  0
LINE
  5
156
100
AcDbEntity
  8
Layer_1
 62
4
100
AcDbLine
 10
76.141690
 20
102.535670
 30
0.0
 11
76.141690
 21
102.535670
 31
0.0
  0
SPLINE
  5
157
100
AcDbEntity
  8
Layer_1
 62
4
100
AcDbSpline
 70
8
 71
3
 72
8
 73
4
 74
0
 40
0
 40
0
 40
0
 40
0
 40
1
 40
1
 40
1
 40
1
 10
76.141690
 20
156.453860
 30
0.0
 10
75.508707
 20
156.453860
 30
0.0
 10
74.938051
 20
156.072560
 30
0.0
 10
74.695818
 20
155.487760
 30
0.0
  0
SPLINE
  5
158
100
AcDbEntity
  8
Layer_1
 62
4
100
AcDbSpline
 70
8
 71
3
 72
8
 73
4
 74
0
 40
0
 40
0
 40
0
 40
0
 40
1
 40
1
 40
1
 40
1
 10
74.695818
 20
155.487760
 30
0.0
 10
74.453586
 20
154.902959
 30
0.0
 10
74.587481
 20
154.229825
 30
0.0
 10
75.035068
 20
153.782238
 30
0.0
  0
SPLINE
  5
159
100
AcDbEntity
  8
Layer_1
 62
4
100
AcDbSpline
 70
8
 71
3
 72
8
 73
4
 74
0
 40
0
 40
0
 40
0
 40
0
 40
1
 40
1
 40
1
 40
1
 10
75.035068
 20
153.782238
 30
0.0
 10
75.482655
 20
153.334651
 30
0.0
 10
76.155789
 20
153.200756
 30
0.0
 10
76.740590
 20
153.442988
 30
0.0
  0
SPLINE
  5
15a
100
AcDbEntity
  8
Layer_1
 62
4
100
AcDbSpline
 70
8
 71
3
 72
8
 73
4
 74
0
 40
0
 40
0
 40
0
 40
0
 40
1
 40
1
 40
1
 40
1
 10
76.740590
 20
153.442988
 30
0.0
 10
77.325390
 20
153.685221
 30
0.0
 10
77.706690
 20
154.255877
 30
0.0
 10
77.706690
 20
154.888860
 30
0.0
  0
SPLINE
  5
15b
100
AcDbEntity
  8
Layer_1
 62
4
100
AcDbSpline
 70
8
 71
3
 72
8
 73
4
 74
0
 40
0
 40
0
 40
0
 40
0
 40
1
 40
1
 40
1
 40
1
 10
77.706690
 20
154.888860
 30
0.0
 10
77.706690
 20
155.303924
 30
0.0
 10
77.541807
 20
155.701988
 30
0.0
 10
77.248312
 20
155.995482
 30
0.0
  0
SPLINE
  5
15c
100
AcDbEntity
  8
Layer_1
 62
4
100
AcDbSpline
 70
8
 71
3
 72
8
 73
4
 74
0
 40
0
 40
0
 40
0
 40
0
 40
1
 40
1
 40
1
 40
1
 10
77.248312
 20
155.995482
 30
0.0
 10
76.954818
 20
156.288977
 30
0.0
 10
76.556754
 20
156.453860
 30
0.0
 10
76.141690
 20
156.453860
 30
0.0
  0
LINE
  5
15d
100
AcDbEntity
  8
Layer_1
 62
4
100
AcDbLine
 10
76.141690
 20
156.453860
 30
0.0
 11
76.141690
 21
156.453860
 31
0.0
  0
SPLINE
  5
15e
100
AcDbEntity
  8
Layer_1
 62
4
100
AcDbSpline
 70
8
 71
3
 72
8
 73
4
 74
0
 40
0
 40
0
 40
0
 40
0
 40
1
 40
1
 40
1
 40
1
 10
225.690480
 20
102.514770
 30
0.0
 10
226.323463
 20
102.514770
 30
0.0
 10
226.894119
 20
102.133470
 30
0.0
 10
227.136352
 20
101.548670
 30
0.0
  0
SPLINE
  5
15f
100
AcDbEntity
  8
Layer_1
 62
4
100
AcDbSpline
 70
8
 71
3
 72
8
 73
4
 74
0
 40
0
 40
0
 40
0
 40
0
 40
1
 40
1
 40
1
 40
1
 10
227.136352
 20
101.548670
 30
0.0
 10
227.378584
 20
100.963869
 30
0.0
 10
227.244689
 20
100.290735
 30
0.0
 10
226.797102
 20
99.843148
 30
0.0
  0
SPLINE
  5
160
100
AcDbEntity
  8
Layer_1
 62
4
100
AcDbSpline
 70
8
 71
3
 72
8
 73
4
 74
0
 40
0
 40
0
 40
0
 40
0
 40
1
 40
1
 40
1
 40
1
 10
226.797102
 20
99.843148
 30
0.0
 10
226.349515
 20
99.395561
 30
0.0
 10
225.676381
 20
99.261666
 30
0.0
 10
225.091580
 20
99.503898
 30
0.0
  0
SPLINE
  5
161
100
AcDbEntity
  8
Layer_1
 62
4
100
AcDbSpline
 70
8
 71
3
 72
8
 73
4
 74
0
 40
0
 40
0
 40
0
 40
0
 40
1
 40
1
 40
1
 40
1
 10
225.091580
 20
99.503898
 30
0.0
 10
224.506780
 20
99.746131
 30
0.0
 10
224.125480
 20
100.316787
 30
0.0
 10
224.125480
 20
100.949770
 30
0.0
  0
SPLINE
  5
162
100
AcDbEntity
  8
Layer_1
 62
4
100
AcDbSpline
 70
8
 71
3
 72
8
 73
4
 74
0
 40
0
 40
0
 40
0
 40
0
 40
1
 40
1
 40
1
 40
1
 10
224.125480
 20
100.949770
 30
0.0
 10
224.125480
 20
101.364834
 30
0.0
 10
224.290363
 20
101.762898
 30
0.0
 10
224.583858
 20
102.056392
 30
0.0
  0
SPLINE
  5
163
100
AcDbEntity
  8
Layer_1
 62
4
100
AcDbSpline
 70
8
 71
3
 72
8
 73
4
 74
0
 40
0
 40
0
 40
0
 40
0
 40
1
 40
1
 40
1
 40
1
 10
224.583858
 20
102.056392
 30
0.0
 10
224.877352
 20
102.349887
 30
0.0
 10
225.275416
 20
102.514770
 30
0.0
 10
225.690480
 20
102.514770
 30
0.0
  0
LINE
  5
164
100
AcDbEntity
  8
Layer_1
 62
4
100
AcDbLine
 10
225.690480
 20
102.514770
 30
0.0
 11
225.690480
 21
102.514770
 31
0.0
  0
SPLINE
  5
165
100
AcDbEntity
  8
Layer_1
 62
4
100
AcDbSpline
 70
8
 71
3
 72
8
 73
4
 74
0
 40
0
 40
0
 40
0
 40
0
 40
1
 40
1
 40
1
 40
1
 10
225.690480
 20
191.348230
 30
0.0
 10
226.323463
 20
191.348230
 30
0.0
 10
226.894119
 20
190.966930
 30
0.0
 10
227.136352
 20
190.382130
 30
0.0
  0
SPLINE
  5
166
100
AcDbEntity
  8
Layer_1
 62
4
100
AcDbSpline
 70
8
 71
3
 72
8
 73
4
 74
0
 40
0
 40
0
 40
0
 40
0
 40
1
 40
1
 40
1
 40
1
 10
227.136352
 20
190.382130
 30
0.0
 10
227.378584
 20
189.797329
 30
0.0
 10
227.244689
 20
189.124195
 30
0.0
 10
226.797102
 20
188.676608
 30
0.0
  0
SPLINE
  5
167
100
AcDbEntity
  8
Layer_1
 62
4
100
AcDbSpline
 70
8
 71
3
 72
8
 73
4
 74
0
 40
0
 40
0
 40
0
 40
0
 40
1
 40
1
 40
1
 40
1
 10
226.797102
 20
188.676608
 30
0.0
 10
226.349515
 20
188.229021
 30
0.0
 10
225.676381
 20
188.095126
 30
0.0
 10
225.091580
 20
188.337358
 30
0.0
  0
SPLINE
  5
168
100
AcDbEntity
  8
Layer_1
 62
4
100
AcDbSpline
 70
8
 71
3
 72
8
 73
4
 74
0
 40
0
 40
0
 40
0
 40
0
 40
1
 40
1
 40
1
 40
1
 10
225.091580
 20
188.337358
 30
0.0
 10
224.506780
 20
188.579591
 30
0.0
 10
224.125480
 20
189.150247
 30
0.0
 10
224.125480
 20
189.783230
 30
0.0
  0
SPLINE
  5
169
100
AcDbEntity
  8
Layer_1
 62
4
100
AcDbSpline
 70
8
 71
3
 72
8
 73
4
 74
0
 40
0
 40
0
 40
0
 40
0
 40
1
 40
1
 40
1
 40
1
 10
224.125480
 20
189.783230
 30
0.0
 10
224.125480
 20
190.198294
 30
0.0
 10
224.290363
 20
190.596358
 30
0.0
 10
224.583858
 20
190.889852
 30
0.0
  0
SPLINE
  5
16a
100
AcDbEntity
  8
Layer_1
 62
4
100
AcDbSpline
 70
8
 71
3
 72
8
 73
4
 74
0
 40
0
 40
0
 40
0
 40
0
 40
1
 40
1
 40
1
 40
1
 10
224.583858
 20
190.889852
 30
0.0
 10
224.877352
 20
191.183347
 30
0.0
 10
225.275416
 20
191.348230
 30
0.0
 10
225.690480
 20
191.348230
 30
0.0
  0
LINE
  5
16b
100
AcDbEntity
  8
Layer_1
 62
4
100
AcDbLine
 10
225.690480
 20
191.348230
 30
0.0
 11
225.690480
 21
191.348230
 31
0.0
  0
SPLINE
  5
16c
100
AcDbEntity
  8
Layer_1
 62
4
100
AcDbSpline
 70
8
 71
3
 72
8
 73
4
 74
0
 40
0
 40
0
 40
0
 40
0
 40
1
 40
1
 40
1
 40
1
 10
97.476326
 20
199.871145
 30
0.0
 10
98.109309
 20
199.871145
 30
0.0
 10
98.679965
 20
199.489845
 30
0.0
 10
98.922198
 20
198.905045
 30
0.0
  0
SPLINE
  5
16d
100
AcDbEntity
  8
Layer_1
 62
4
100
AcDbSpline
 70
8
 71
3
 72
8
 73
4
 74
0
 40
0
 40
0
 40
0
 40
0
 40
1
 40
1
 40
1
 40
1
 10
98.922198
 20
198.905045
 30
0.0
 10
99.164430
 20
198.320244
 30
0.0
 10
99.030535
 20
197.647110
 30
0.0
 10
98.582948
 20
197.199523
 30
0.0
  0
SPLINE
  5
16e
100
AcDbEntity
  8
Layer_1
 62
4
100
AcDbSpline
 70
8
 71
3
 72
8
 73
4
 74
0
 40
0
 40
0
 40
0
 40
0
 40
1
 40
1
 40
1
 40
1
 10
98.582948
 20
197.199523
 30
0.0
 10
98.135361
 20
196.751936
 30
0.0
 10
97.462227
 20
196.618041
 30
0.0
 10
96.877426
 20
196.860273
 30
0.0
  0
SPLINE
  5
16f
100
AcDbEntity
  8
Layer_1
 62
4
100
AcDbSpline
 70
8
 71
3
 72
8
 73
4
 74
0
 40
0
 40
0
 40
0
 40
0
 40
1
 40
1
 40
1
 40
1
 10
96.877426
 20
196.860273
 30
0.0
 10
96.292626
 20
197.102506
 30
0.0
 10
95.911326
 20
197.673162
 30
0.0
 10
95.911326
 20
198.306145
 30
0.0
  0
SPLINE
  5
170
100
AcDbEntity
  8
Layer_1
 62
4
100
AcDbSpline
 70
8
 71
3
 72
8
 73
4
 74
0
 40
0
 40
0
 40
0
 40
0
 40
1
 40
1
 40
1
 40
1
 10
95.911326
 20
198.306145
 30
0.0
 10
95.911326
 20
198.721209
 30
0.0
 10
96.076209
 20
199.119273
 30
0.0
 10
96.369704
 20
199.412767
 30
0.0
  0
SPLINE
  5
171
100
AcDbEntity
  8
Layer_1
 62
4
100
AcDbSpline
 70
8
 71
3
 72
8
 73
4
 74
0
 40
0
 40
0
 40
0
 40
0
 40
1
 40
1
 40
1
 40
1
 10
96.369704
 20
199.412767
 30
0.0
 10
96.663198
 20
199.706262
 30
0.0
 10
97.061262
 20
199.871145
 30
0.0
 10
97.476326
 20
199.871145
 30
0.0
  0
LINE
  5
172
100
AcDbEntity
  8
Layer_1
 62
4
100
AcDbLine
 10
97.476326
 20
199.871145
 30
0.0
 11
97.476326
 21
199.871145
 31
0.0
  0
SPLINE
  5
173
100
AcDbEntity
  8
Layer_1
 62
4
100
AcDbSpline
 70
8
 71
3
 72
8
 73
4
 74
0
 40
0
 40
0
 40
0
 40
0
 40
1
 40
1
 40
1
 40
1
 10
97.476326
 20
102.535580
 30
0.0
 10
98.109309
 20
102.535580
 30
0.0
 10
98.679965
 20
102.154280
 30
0.0
 10
98.922198
 20
101.569480
 30
0.0
  0
SPLINE
  5
174
100
AcDbEntity
  8
Layer_1
 62
4
100
AcDbSpline
 70
8
 71
3
 72
8
 73
4
 74
0
 40
0
 40
0
 40
0
 40
0
 40
1
 40
1
 40
1
 40
1
 10
98.922198
 20
101.569480
 30
0.0
 10
99.164430
 20
100.984679
 30
0.0
 10
99.030535
 20
100.311545
 30
0.0
 10
98.582948
 20
99.863958
 30
0.0
  0
SPLINE
  5
175
100
AcDbEntity
  8
Layer_1
 62
4
100
AcDbSpline
 70
8
 71
3
 72
8
 73
4
 74
0
 40
0
 40
0
 40
0
 40
0
 40
1
 40
1
 40
1
 40
1
 10
98.582948
 20
99.863958
 30
0.0
 10
98.135361
 20
99.416371
 30
0.0
 10
97.462227
 20
99.282476
 30
0.0
 10
96.877426
 20
99.524708
 30
0.0
  0
SPLINE
  5
176
100
AcDbEntity
  8
Layer_1
 62
4
100
AcDbSpline
 70
8
 71
3
 72
8
 73
4
 74
0
 40
0
 40
0
 40
0
 40
0
 40
1
 40
1
 40
1
 40
1
 10
96.877426
 20
99.524708
 30
0.0
 10
96.292626
 20
99.766941
 30
0.0
 10
95.911326
 20
100.337597
 30
0.0
 10
95.911326
 20
100.970580
 30
0.0
  0
SPLINE
  5
177
100
AcDbEntity
  8
Layer_1
 62
4
100
AcDbSpline
 70
8
 71
3
 72
8
 73
4
 74
0
 40
0
 40
0
 40
0
 40
0
 40
1
 40
1
 40
1
 40
1
 10
95.911326
 20
100.970580
 30
0.0
 10
95.911326
 20
101.385644
 30
0.0
 10
96.076209
 20
101.783708
 30
0.0
 10
96.369704
 20
102.077202
 30
0.0
  0
SPLINE
  5
178
100
AcDbEntity
  8
Layer_1
 62
4
100
AcDbSpline
 70
8
 71
3
 72
8
 73
4
 74
0
 40
0
 40
0
 40
0
 40
0
 40
1
 40
1
 40
1
 40
1
 10
96.369704
 20
102.077202
 30
0.0
 10
96.663198
 20
102.370697
 30
0.0
 10
97.061262
 20
102.535580
 30
0.0
 10
97.476326
 20
102.535580
 30
0.0
  0
LINE
  5
179
100
AcDbEntity
  8
Layer_1
 62
4
100
AcDbLine
 10
97.476326
 20
102.535580
 30
0.0
 11
97.476326
 21
102.535580
 31
0.0
  0
SPLINE
  5
17a
100
AcDbEntity
  8
Layer_1
 62
4
100
AcDbSpline
 70
8
 71
3
 72
8
 73
4
 74
0
 40
0
 40
0
 40
0
 40
0
 40
1
 40
1
 40
1
 40
1
 10
97.476326
 20
156.453760
 30
0.0
 10
98.109309
 20
156.453760
 30
0.0
 10
98.679965
 20
156.072460
 30
0.0
 10
98.922198
 20
155.487660
 30
0.0
  0
SPLINE
  5
17b
100
AcDbEntity
  8
Layer_1
 62
4
100
AcDbSpline
 70
8
 71
3
 72
8
 73
4
 74
0
 40
0
 40
0
 40
0
 40
0
 40
1
 40
1
 40
1
 40
1
 10
98.922198
 20
155.487660
 30
0.0
 10
99.164430
 20
154.902859
 30
0.0
 10
99.030535
 20
154.229725
 30
0.0
 10
98.582948
 20
153.782138
 30
0.0
  0
SPLINE
  5
17c
100
AcDbEntity
  8
Layer_1
 62
4
100
AcDbSpline
 70
8
 71
3
 72
8
 73
4
 74
0
 40
0
 40
0
 40
0
 40
0
 40
1
 40
1
 40
1
 40
1
 10
98.582948
 20
153.782138
 30
0.0
 10
98.135361
 20
153.334551
 30
0.0
 10
97.462227
 20
153.200656
 30
0.0
 10
96.877426
 20
153.442888
 30
0.0
  0
SPLINE
  5
17d
100
AcDbEntity
  8
Layer_1
 62
4
100
AcDbSpline
 70
8
 71
3
 72
8
 73
4
 74
0
 40
0
 40
0
 40
0
 40
0
 40
1
 40
1
 40
1
 40
1
 10
96.877426
 20
153.442888
 30
0.0
 10
96.292626
 20
153.685121
 30
0.0
 10
95.911326
 20
154.255777
 30
0.0
 10
95.911326
 20
154.888760
 30
0.0
  0
SPLINE
  5
17e
100
AcDbEntity
  8
Layer_1
 62
4
100
AcDbSpline
 70
8
 71
3
 72
8
 73
4
 74
0
 40
0
 40
0
 40
0
 40
0
 40
1
 40
1
 40
1
 40
1
 10
95.911326
 20
154.888760
 30
0.0
 10
95.911326
 20
155.303824
 30
0.0
 10
96.076209
 20
155.701888
 30
0.0
 10
96.369704
 20
155.995382
 30
0.0
  0
SPLINE
  5
17f
100
AcDbEntity
  8
Layer_1
 62
4
100
AcDbSpline
 70
8
 71
3
 72
8
 73
4
 74
0
 40
0
 40
0
 40
0
 40
0
 40
1
 40
1
 40
1
 40
1
 10
96.369704
 20
155.995382
 30
0.0
 10
96.663198
 20
156.288877
 30
0.0
 10
97.061262
 20
156.453760
 30
0.0
 10
97.476326
 20
156.453760
 30
0.0
  0
LINE
  5
180
100
AcDbEntity
  8
Layer_1
 62
4
100
AcDbLine
 10
97.476326
 20
156.453760
 30
0.0
 11
97.476326
 21
156.453760
 31
0.0
  0
LINE
  5
181
100
AcDbEntity
  8
Layer_1
 62
4
100
AcDbLine
 10
-46.857800
 20
183.996410
 30
0.0
 11
-47.367840
 21
183.996440
 31
0.0
  0
SPLINE
  5
182
100
AcDbEntity
  8
Layer_1
 62
4
100
AcDbSpline
 70
8
 71
3
 72
8
 73
4
 74
0
 40
0
 40
0
 40
0
 40
0
 40
1
 40
1
 40
1
 40
1
 10
-47.367840
 20
183.996440
 30
0.0
 10
-47.720620
 20
183.996460
 30
0.0
 10
-48.073400
 20
183.996470
 30
0.0
 10
-48.426180
 20
183.996470
 30
0.0
  0
LINE
  5
183
100
AcDbEntity
  8
Layer_1
 62
4
100
AcDbLine
 10
-48.426180
 20
183.996470
 30
0.0
 11
-52.283850
 21
183.996470
 31
0.0
  0
SPLINE
  5
184
100
AcDbEntity
  8
Layer_1
 62
4
100
AcDbSpline
 70
8
 71
3
 72
8
 73
4
 74
0
 40
0
 40
0
 40
0
 40
0
 40
1
 40
1
 40
1
 40
1
 10
-52.283850
 20
183.996470
 30
0.0
 10
-52.576100
 20
183.996470
 30
0.0
 10
-52.813000
 20
183.759550
 30
0.0
 10
-52.812980
 20
183.467300
 30
0.0
  0
SPLINE
  5
185
100
AcDbEntity
  8
Layer_1
 62
4
100
AcDbSpline
 70
8
 71
3
 72
8
 73
4
 74
0
 40
0
 40
0
 40
0
 40
0
 40
1
 40
1
 40
1
 40
1
 10
-52.812980
 20
183.467300
 30
0.0
 10
-52.810980
 20
158.063930
 30
0.0
 10
-52.812980
 20
132.667260
 30
0.0
 10
-52.810980
 20
107.263920
 30
0.0
  0
SPLINE
  5
186
100
AcDbEntity
  8
Layer_1
 62
4
100
AcDbSpline
 70
8
 71
3
 72
8
 73
4
 74
0
 40
0
 40
0
 40
0
 40
0
 40
1
 40
1
 40
1
 40
1
 10
-52.810980
 20
107.263920
 30
0.0
 10
-52.810960
 20
106.971670
 30
0.0
 10
-52.574020
 20
106.734750
 30
0.0
 10
-52.281770
 20
106.734750
 30
0.0
  0
LINE
  5
187
100
AcDbEntity
  8
Layer_1
 62
4
100
AcDbLine
 10
-52.281770
 20
106.734750
 30
0.0
 11
-48.933720
 21
106.734750
 31
0.0
  0
LINE
  5
188
100
AcDbEntity
  8
Layer_1
 62
4
100
AcDbLine
 10
-48.933720
 20
106.734750
 30
0.0
 11
-12.466930
 21
106.734750
 31
0.0
  0
SPLINE
  5
189
100
AcDbEntity
  8
Layer_1
 62
4
100
AcDbSpline
 70
8
 71
3
 72
8
 73
4
 74
0
 40
0
 40
0
 40
0
 40
0
 40
1
 40
1
 40
1
 40
1
 10
-12.466930
 20
106.734750
 30
0.0
 10
-11.882430
 20
106.734750
 30
0.0
 10
-10.934770
 20
106.734590
 30
0.0
 10
-10.350270
 20
106.734450
 30
0.0
  0
SPLINE
  5
18a
100
AcDbEntity
  8
Layer_1
 62
4
100
AcDbSpline
 70
8
 71
3
 72
8
 73
4
 74
0
 40
0
 40
0
 40
0
 40
0
 40
1
 40
1
 40
1
 40
1
 10
-10.350270
 20
106.734450
 30
0.0
 10
1.537880
 20
106.731450
 30
0.0
 10
13.426040
 20
106.742450
 30
0.0
 10
25.314190
 20
106.723950
 30
0.0
  0
SPLINE
  5
18b
100
AcDbEntity
  8
Layer_1
 62
4
100
AcDbSpline
 70
8
 71
3
 72
8
 73
4
 74
0
 40
0
 40
0
 40
0
 40
0
 40
1
 40
1
 40
1
 40
1
 10
25.314190
 20
106.723950
 30
0.0
 10
25.606440
 20
106.723490
 30
0.0
 10
26.080270
 20
106.723170
 30
0.0
 10
26.372520
 20
106.723260
 30
0.0
  0
LINE
  5
18c
100
AcDbEntity
  8
Layer_1
 62
4
100
AcDbLine
 10
26.372520
 20
106.723260
 30
0.0
 11
61.780980
 21
106.734660
 31
0.0
  0
SPLINE
  5
18d
100
AcDbEntity
  8
Layer_1
 62
4
100
AcDbSpline
 70
8
 71
3
 72
8
 73
4
 74
0
 40
0
 40
0
 40
0
 40
0
 40
1
 40
1
 40
1
 40
1
 10
61.780980
 20
106.734660
 30
0.0
 10
62.133760
 20
106.734773
 30
0.0
 10
62.486540
 20
106.734830
 30
0.0
 10
62.839320
 20
106.734830
 30
0.0
  0
LINE
  5
18e
100
AcDbEntity
  8
Layer_1
 62
4
100
AcDbLine
 10
62.839320
 20
106.734830
 30
0.0
 11
69.428760
 21
106.734830
 31
0.0
  0
SPLINE
  5
18f
100
AcDbEntity
  8
Layer_1
 62
4
100
AcDbSpline
 70
8
 71
3
 72
8
 73
4
 74
0
 40
0
 40
0
 40
0
 40
0
 40
1
 40
1
 40
1
 40
1
 10
69.428760
 20
106.734830
 30
0.0
 10
69.569105
 20
106.734829
 30
0.0
 10
69.703702
 20
106.790581
 30
0.0
 10
69.802941
 20
106.889819
 30
0.0
  0
SPLINE
  5
190
100
AcDbEntity
  8
Layer_1
 62
4
100
AcDbSpline
 70
8
 71
3
 72
8
 73
4
 74
0
 40
0
 40
0
 40
0
 40
0
 40
1
 40
1
 40
1
 40
1
 10
69.802941
 20
106.889819
 30
0.0
 10
69.902179
 20
106.989058
 30
0.0
 10
69.957931
 20
107.123655
 30
0.0
 10
69.957930
 20
107.264000
 30
0.0
  0
LINE
  5
191
100
AcDbEntity
  8
Layer_1
 62
4
100
AcDbLine
 10
69.957930
 20
107.264000
 30
0.0
 11
69.957930
 21
125.256450
 31
0.0
  0
SPLINE
  5
192
100
AcDbEntity
  8
Layer_1
 62
4
100
AcDbSpline
 70
8
 71
3
 72
8
 73
4
 74
0
 40
0
 40
0
 40
0
 40
0
 40
1
 40
1
 40
1
 40
1
 10
69.957930
 20
125.256450
 30
0.0
 10
69.957929
 20
125.396795
 30
0.0
 10
70.013681
 20
125.531392
 30
0.0
 10
70.112919
 20
125.630631
 30
0.0
  0
SPLINE
  5
193
100
AcDbEntity
  8
Layer_1
 62
4
100
AcDbSpline
 70
8
 71
3
 72
8
 73
4
 74
0
 40
0
 40
0
 40
0
 40
0
 40
1
 40
1
 40
1
 40
1
 10
70.112919
 20
125.630631
 30
0.0
 10
70.212158
 20
125.729869
 30
0.0
 10
70.346755
 20
125.785621
 30
0.0
 10
70.487100
 20
125.785620
 30
0.0
  0
LINE
  5
194
100
AcDbEntity
  8
Layer_1
 62
4
100
AcDbLine
 10
70.487100
 20
125.785620
 30
0.0
 11
76.306370
 21
125.785620
 31
0.0
  0
SPLINE
  5
195
100
AcDbEntity
  8
Layer_1
 62
4
100
AcDbSpline
 70
8
 71
3
 72
8
 73
4
 74
0
 40
0
 40
0
 40
0
 40
0
 40
1
 40
1
 40
1
 40
1
 10
76.306370
 20
125.785620
 30
0.0
 10
76.446715
 20
125.785619
 30
0.0
 10
76.581312
 20
125.841371
 30
0.0
 10
76.680551
 20
125.940609
 30
0.0
  0
SPLINE
  5
196
100
AcDbEntity
  8
Layer_1
 62
4
100
AcDbSpline
 70
8
 71
3
 72
8
 73
4
 74
0
 40
0
 40
0
 40
0
 40
0
 40
1
 40
1
 40
1
 40
1
 10
76.680551
 20
125.940609
 30
0.0
 10
76.779789
 20
126.039848
 30
0.0
 10
76.835541
 20
126.174445
 30
0.0
 10
76.835540
 20
126.314790
 30
0.0
  0
LINE
  5
197
100
AcDbEntity
  8
Layer_1
 62
4
100
AcDbLine
 10
76.835540
 20
126.314790
 30
0.0
 11
76.835540
 21
145.365930
 31
0.0
  0
SPLINE
  5
198
100
AcDbEntity
  8
Layer_1
 62
4
100
AcDbSpline
 70
8
 71
3
 72
8
 73
4
 74
0
 40
0
 40
0
 40
0
 40
0
 40
1
 40
1
 40
1
 40
1
 10
76.835540
 20
145.365930
 30
0.0
 10
76.835541
 20
145.506275
 30
0.0
 10
76.779789
 20
145.640872
 30
0.0
 10
76.680551
 20
145.740111
 30
0.0
  0
SPLINE
  5
199
100
AcDbEntity
  8
Layer_1
 62
4
100
AcDbSpline
 70
8
 71
3
 72
8
 73
4
 74
0
 40
0
 40
0
 40
0
 40
0
 40
1
 40
1
 40
1
 40
1
 10
76.680551
 20
145.740111
 30
0.0
 10
76.581312
 20
145.839349
 30
0.0
 10
76.446715
 20
145.895101
 30
0.0
 10
76.306370
 20
145.895100
 30
0.0
  0
LINE
  5
19a
100
AcDbEntity
  8
Layer_1
 62
4
100
AcDbLine
 10
76.306370
 20
145.895100
 30
0.0
 11
70.487100
 21
145.895100
 31
0.0
  0
SPLINE
  5
19b
100
AcDbEntity
  8
Layer_1
 62
4
100
AcDbSpline
 70
8
 71
3
 72
8
 73
4
 74
0
 40
0
 40
0
 40
0
 40
0
 40
1
 40
1
 40
1
 40
1
 10
70.487100
 20
145.895100
 30
0.0
 10
70.346755
 20
145.895099
 30
0.0
 10
70.212158
 20
145.950851
 30
0.0
 10
70.112919
 20
146.050089
 30
0.0
  0
SPLINE
  5
19c
100
AcDbEntity
  8
Layer_1
 62
4
100
AcDbSpline
 70
8
 71
3
 72
8
 73
4
 74
0
 40
0
 40
0
 40
0
 40
0
 40
1
 40
1
 40
1
 40
1
 10
70.112919
 20
146.050089
 30
0.0
 10
70.013681
 20
146.149328
 30
0.0
 10
69.957929
 20
146.283925
 30
0.0
 10
69.957930
 20
146.424270
 30
0.0
  0
LINE
  5
19d
100
AcDbEntity
  8
Layer_1
 62
4
100
AcDbLine
 10
69.957930
 20
146.424270
 30
0.0
 11
69.957930
 21
164.416310
 31
0.0
  0
SPLINE
  5
19e
100
AcDbEntity
  8
Layer_1
 62
4
100
AcDbSpline
 70
8
 71
3
 72
8
 73
4
 74
0
 40
0
 40
0
 40
0
 40
0
 40
1
 40
1
 40
1
 40
1
 10
69.957930
 20
164.416310
 30
0.0
 10
69.957929
 20
164.556647
 30
0.0
 10
70.013684
 20
164.691234
 30
0.0
 10
70.112925
 20
164.790459
 30
0.0
  0
SPLINE
  5
19f
100
AcDbEntity
  8
Layer_1
 62
4
100
AcDbSpline
 70
8
 71
3
 72
8
 73
4
 74
0
 40
0
 40
0
 40
0
 40
0
 40
1
 40
1
 40
1
 40
1
 10
70.112925
 20
164.790459
 30
0.0
 10
70.212166
 20
164.889683
 30
0.0
 10
70.346763
 20
164.945415
 30
0.0
 10
70.487100
 20
164.945390
 30
0.0
  0
LINE
  5
1a0
100
AcDbEntity
  8
Layer_1
 62
4
100
AcDbLine
 10
70.487100
 20
164.945390
 30
0.0
 11
81.309880
 21
164.943390
 31
0.0
  0
SPLINE
  5
1a1
100
AcDbEntity
  8
Layer_1
 62
4
100
AcDbSpline
 70
8
 71
3
 72
8
 73
4
 74
0
 40
0
 40
0
 40
0
 40
0
 40
1
 40
1
 40
1
 40
1
 10
81.309880
 20
164.943390
 30
0.0
 10
81.602148
 20
164.943343
 30
0.0
 10
81.839052
 20
164.706398
 30
0.0
 10
81.839050
 20
164.414130
 30
0.0
  0
LINE
  5
1a2
100
AcDbEntity
  8
Layer_1
 62
4
100
AcDbLine
 10
81.839050
 20
164.414130
 30
0.0
 11
81.839050
 21
96.766960
 31
0.0
  0
SPLINE
  5
1a3
100
AcDbEntity
  8
Layer_1
 62
4
100
AcDbSpline
 70
8
 71
3
 72
8
 73
4
 74
0
 40
0
 40
0
 40
0
 40
0
 40
1
 40
1
 40
1
 40
1
 10
81.839050
 20
96.766960
 30
0.0
 10
81.839052
 20
96.428648
 30
0.0
 10
81.702246
 20
96.104714
 30
0.0
 10
81.459740
 20
95.868820
 30
0.0
  0
LINE
  5
1a4
100
AcDbEntity
  8
Layer_1
 62
4
100
AcDbLine
 10
81.459740
 20
95.868820
 30
0.0
 11
79.042560
 21
93.517580
 31
0.0
  0
SPLINE
  5
1a5
100
AcDbEntity
  8
Layer_1
 62
4
100
AcDbSpline
 70
8
 71
3
 72
8
 73
4
 74
0
 40
0
 40
0
 40
0
 40
0
 40
1
 40
1
 40
1
 40
1
 10
79.042560
 20
93.517580
 30
0.0
 10
78.799357
 20
93.281009
 30
0.0
 10
78.473364
 20
93.148796
 30
0.0
 10
78.134080
 20
93.149130
 30
0.0
  0
LINE
  5
1a6
100
AcDbEntity
  8
Layer_1
 62
4
100
AcDbLine
 10
78.134080
 20
93.149130
 30
0.0
 11
56.290290
 21
93.170730
 31
0.0
  0
SPLINE
  5
1a7
100
AcDbEntity
  8
Layer_1
 62
4
100
AcDbSpline
 70
8
 71
3
 72
8
 73
4
 74
0
 40
0
 40
0
 40
0
 40
0
 40
1
 40
1
 40
1
 40
1
 10
56.290290
 20
93.170730
 30
0.0
 10
55.998040
 20
93.171020
 30
0.0
 10
55.524200
 20
93.171050
 30
0.0
 10
55.231950
 20
93.170820
 30
0.0
  0
SPLINE
  5
1a8
100
AcDbEntity
  8
Layer_1
 62
4
100
AcDbSpline
 70
8
 71
3
 72
8
 73
4
 74
0
 40
0
 40
0
 40
0
 40
0
 40
1
 40
1
 40
1
 40
1
 10
55.231950
 20
93.170820
 30
0.0
 10
37.643160
 20
93.156620
 30
0.0
 10
21.403630
 20
93.161820
 30
0.0
 10
5.312290
 20
93.165820
 30
0.0
  0
SPLINE
  5
1a9
100
AcDbEntity
  8
Layer_1
 62
4
100
AcDbSpline
 70
8
 71
3
 72
8
 73
4
 74
0
 40
0
 40
0
 40
0
 40
0
 40
1
 40
1
 40
1
 40
1
 10
5.312290
 20
93.165820
 30
0.0
 10
4.727790
 20
93.165970
 30
0.0
 10
3.780130
 20
93.166130
 30
0.0
 10
3.195630
 20
93.166200
 30
0.0
  0
LINE
  5
1aa
100
AcDbEntity
  8
Layer_1
 62
4
100
AcDbLine
 10
3.195630
 20
93.166200
 30
0.0
 11
-12.444390
 21
93.168200
 31
0.0
  0
SPLINE
  5
1ab
100
AcDbEntity
  8
Layer_1
 62
4
100
AcDbSpline
 70
8
 71
3
 72
8
 73
4
 74
0
 40
0
 40
0
 40
0
 40
0
 40
1
 40
1
 40
1
 40
1
 10
-12.444390
 20
93.168200
 30
0.0
 10
-13.028890
 20
93.168270
 30
0.0
 10
-13.976550
 20
93.168290
 30
0.0
 10
-14.561050
 20
93.168230
 30
0.0
  0
SPLINE
  5
1ac
100
AcDbEntity
  8
Layer_1
 62
4
100
AcDbSpline
 70
8
 71
3
 72
8
 73
4
 74
0
 40
0
 40
0
 40
0
 40
0
 40
1
 40
1
 40
1
 40
1
 10
-14.561050
 20
93.168230
 30
0.0
 10
-27.150670
 20
93.167230
 30
0.0
 10
-39.938700
 20
93.159230
 30
0.0
 10
-53.492850
 20
93.133130
 30
0.0
  0
SPLINE
  5
1ad
100
AcDbEntity
  8
Layer_1
 62
4
100
AcDbSpline
 70
8
 71
3
 72
8
 73
4
 74
0
 40
0
 40
0
 40
0
 40
0
 40
1
 40
1
 40
1
 40
1
 10
-53.492850
 20
93.133130
 30
0.0
 10
-54.077350
 20
93.132130
 30
0.0
 10
-54.895280
 20
93.456830
 30
0.0
 10
-55.319750
 20
93.858660
 30
0.0
  0
LINE
  5
1ae
100
AcDbEntity
  8
Layer_1
 62
4
100
AcDbLine
 10
-55.319750
 20
93.858660
 30
0.0
 11
-57.039870
 21
95.487040
 31
0.0
  0
SPLINE
  5
1af
100
AcDbEntity
  8
Layer_1
 62
4
100
AcDbSpline
 70
8
 71
3
 72
8
 73
4
 74
0
 40
0
 40
0
 40
0
 40
0
 40
1
 40
1
 40
1
 40
1
 10
-57.039870
 20
95.487040
 30
0.0
 10
-57.530499
 20
95.951502
 30
0.0
 10
-57.808450
 20
96.597346
 30
0.0
 10
-57.808470
 20
97.272950
 30
0.0
  0
LINE
  5
1b0
100
AcDbEntity
  8
Layer_1
 62
4
100
AcDbLine
 10
-57.808470
 20
97.272950
 30
0.0
 11
-57.811470
 21
200.115000
 31
0.0
  0
SPLINE
  5
1b1
100
AcDbEntity
  8
Layer_1
 62
4
100
AcDbSpline
 70
8
 71
3
 72
8
 73
4
 74
0
 40
0
 40
0
 40
0
 40
0
 40
1
 40
1
 40
1
 40
1
 10
-57.811470
 20
200.115000
 30
0.0
 10
-57.811487
 20
200.787174
 30
0.0
 10
-57.519694
 20
201.426249
 30
0.0
 10
-57.011760
 20
201.866500
 30
0.0
  0
LINE
  5
1b2
100
AcDbEntity
  8
Layer_1
 62
4
100
AcDbLine
 10
-57.011760
 20
201.866500
 30
0.0
 11
-55.351190
 21
203.305810
 31
0.0
  0
SPLINE
  5
1b3
100
AcDbEntity
  8
Layer_1
 62
4
100
AcDbSpline
 70
8
 71
3
 72
8
 73
4
 74
0
 40
0
 40
0
 40
0
 40
0
 40
1
 40
1
 40
1
 40
1
 10
-55.351190
 20
203.305810
 30
0.0
 10
-54.835395
 20
203.752876
 30
0.0
 10
-54.175698
 20
203.998975
 30
0.0
 10
-53.493120
 20
203.998960
 30
0.0
  0
LINE
  5
1b4
100
AcDbEntity
  8
Layer_1
 62
4
100
AcDbLine
 10
-53.493120
 20
203.998960
 30
0.0
 11
77.620240
 21
203.995960
 31
0.0
  0
SPLINE
  5
1b5
100
AcDbEntity
  8
Layer_1
 62
4
100
AcDbSpline
 70
8
 71
3
 72
8
 73
4
 74
0
 40
0
 40
0
 40
0
 40
0
 40
1
 40
1
 40
1
 40
1
 10
77.620240
 20
203.995960
 30
0.0
 10
78.301747
 20
203.995945
 30
0.0
 10
78.959307
 20
203.744578
 30
0.0
 10
79.467040
 20
203.289980
 30
0.0
  0
LINE
  5
1b6
100
AcDbEntity
  8
Layer_1
 62
4
100
AcDbLine
 10
79.467040
 20
203.289980
 30
0.0
 11
81.050520
 21
201.872200
 31
0.0
  0
SPLINE
  5
1b7
100
AcDbEntity
  8
Layer_1
 62
4
100
AcDbSpline
 70
8
 71
3
 72
8
 73
4
 74
0
 40
0
 40
0
 40
0
 40
0
 40
1
 40
1
 40
1
 40
1
 10
81.050520
 20
201.872200
 30
0.0
 10
81.552253
 20
201.422970
 30
0.0
 10
81.838989
 20
200.781367
 30
0.0
 10
81.838990
 20
200.107910
 30
0.0
  0
LINE
  5
1b8
100
AcDbEntity
  8
Layer_1
 62
4
100
AcDbLine
 10
81.838990
 20
200.107910
 30
0.0
 11
81.838990
 21
185.053990
 31
0.0
  0
SPLINE
  5
1b9
100
AcDbEntity
  8
Layer_1
 62
4
100
AcDbSpline
 70
8
 71
3
 72
8
 73
4
 74
0
 40
0
 40
0
 40
0
 40
0
 40
1
 40
1
 40
1
 40
1
 10
81.838990
 20
185.053990
 30
0.0
 10
81.838990
 20
184.773305
 30
0.0
 10
81.727487
 20
184.504117
 30
0.0
 10
81.529011
 20
184.305644
 30
0.0
  0
SPLINE
  5
1ba
100
AcDbEntity
  8
Layer_1
 62
4
100
AcDbSpline
 70
8
 71
3
 72
8
 73
4
 74
0
 40
0
 40
0
 40
0
 40
0
 40
1
 40
1
 40
1
 40
1
 10
81.529011
 20
184.305644
 30
0.0
 10
81.330535
 20
184.107172
 30
0.0
 10
81.061345
 20
183.995674
 30
0.0
 10
80.780660
 20
183.995680
 30
0.0
  0
LINE
  5
1bb
100
AcDbEntity
  8
Layer_1
 62
4
100
AcDbLine
 10
80.780660
 20
183.995680
 30
0.0
 11
69.395120
 21
183.995950
 31
0.0
  0
SPLINE
  5
1bc
100
AcDbEntity
  8
Layer_1
 62
4
100
AcDbSpline
 70
8
 71
3
 72
8
 73
4
 74
0
 40
0
 40
0
 40
0
 40
0
 40
1
 40
1
 40
1
 40
1
 10
69.395120
 20
183.995950
 30
0.0
 10
68.689567
 20
183.995964
 30
0.0
 10
67.984013
 20
183.995970
 30
0.0
 10
67.278460
 20
183.995970
 30
0.0
  0
LINE
  5
1bd
100
AcDbEntity
  8
Layer_1
 62
4
100
AcDbLine
 10
67.278460
 20
183.995970
 30
0.0
 11
-44.741120
 21
183.996280
 31
0.0
  0
SPLINE
  5
1be
100
AcDbEntity
  8
Layer_1
 62
4
100
AcDbSpline
 70
8
 71
3
 72
8
 73
4
 74
0
 40
0
 40
0
 40
0
 40
0
 40
1
 40
1
 40
1
 40
1
 10
-44.741120
 20
183.996280
 30
0.0
 10
-45.446673
 20
183.996281
 30
0.0
 10
-46.152227
 20
183.996301
 30
0.0
 10
-46.857780
 20
183.996340
 30
0.0
  0
LINE
  5
1bf
100
AcDbEntity
  8
Layer_1
 62
4
100
AcDbLine
 10
-46.857780
 20
183.996340
 30
0.0
 11
-46.857800
 21
183.996410
 31
0.0
  0
SPLINE
  5
1c0
100
AcDbEntity
  8
Layer_1
 62
4
100
AcDbSpline
 70
8
 71
3
 72
8
 73
4
 74
0
 40
0
 40
0
 40
0
 40
0
 40
1
 40
1
 40
1
 40
1
 10
60.191063
 20
194.823840
 30
0.0
 10
59.281023
 20
194.823840
 30
0.0
 10
58.460591
 20
194.275645
 30
0.0
 10
58.112334
 20
193.434878
 30
0.0
  0
SPLINE
  5
1c1
100
AcDbEntity
  8
Layer_1
 62
4
100
AcDbSpline
 70
8
 71
3
 72
8
 73
4
 74
0
 40
0
 40
0
 40
0
 40
0
 40
1
 40
1
 40
1
 40
1
 10
58.112334
 20
193.434878
 30
0.0
 10
57.764077
 20
192.594110
 30
0.0
 10
57.956577
 20
191.626345
 30
0.0
 10
58.600073
 20
190.982850
 30
0.0
  0
SPLINE
  5
1c2
100
AcDbEntity
  8
Layer_1
 62
4
100
AcDbSpline
 70
8
 71
3
 72
8
 73
4
 74
0
 40
0
 40
0
 40
0
 40
0
 40
1
 40
1
 40
1
 40
1
 10
58.600073
 20
190.982850
 30
0.0
 10
59.243568
 20
190.339354
 30
0.0
 10
60.211333
 20
190.146854
 30
0.0
 10
61.052101
 20
190.495111
 30
0.0
  0
SPLINE
  5
1c3
100
AcDbEntity
  8
Layer_1
 62
4
100
AcDbSpline
 70
8
 71
3
 72
8
 73
4
 74
0
 40
0
 40
0
 40
0
 40
0
 40
1
 40
1
 40
1
 40
1
 10
61.052101
 20
190.495111
 30
0.0
 10
61.892868
 20
190.843368
 30
0.0
 10
62.441063
 20
191.663800
 30
0.0
 10
62.441063
 20
192.573840
 30
0.0
  0
SPLINE
  5
1c4
100
AcDbEntity
  8
Layer_1
 62
4
100
AcDbSpline
 70
8
 71
3
 72
8
 73
4
 74
0
 40
0
 40
0
 40
0
 40
0
 40
1
 40
1
 40
1
 40
1
 10
62.441063
 20
192.573840
 30
0.0
 10
62.441063
 20
193.170577
 30
0.0
 10
62.204010
 20
193.742873
 30
0.0
 10
61.782053
 20
194.164830
 30
0.0
  0
SPLINE
  5
1c5
100
AcDbEntity
  8
Layer_1
 62
4
100
AcDbSpline
 70
8
 71
3
 72
8
 73
4
 74
0
 40
0
 40
0
 40
0
 40
0
 40
1
 40
1
 40
1
 40
1
 10
61.782053
 20
194.164830
 30
0.0
 10
61.360096
 20
194.586787
 30
0.0
 10
60.787800
 20
194.823840
 30
0.0
 10
60.191063
 20
194.823840
 30
0.0
  0
LINE
  5
1c6
100
AcDbEntity
  8
Layer_1
 62
4
100
AcDbLine
 10
60.191063
 20
194.823840
 30
0.0
 11
60.191063
 21
194.823840
 31
0.0
  0
SPLINE
  5
1c7
100
AcDbEntity
  8
Layer_1
 62
4
100
AcDbSpline
 70
8
 71
3
 72
8
 73
4
 74
0
 40
0
 40
0
 40
0
 40
0
 40
1
 40
1
 40
1
 40
1
 10
-37.082069
 20
194.823840
 30
0.0
 10
-37.992109
 20
194.823840
 30
0.0
 10
-38.812541
 20
194.275645
 30
0.0
 10
-39.160798
 20
193.434878
 30
0.0
  0
SPLINE
  5
1c8
100
AcDbEntity
  8
Layer_1
 62
4
100
AcDbSpline
 70
8
 71
3
 72
8
 73
4
 74
0
 40
0
 40
0
 40
0
 40
0
 40
1
 40
1
 40
1
 40
1
 10
-39.160798
 20
193.434878
 30
0.0
 10
-39.509055
 20
192.594110
 30
0.0
 10
-39.316555
 20
191.626345
 30
0.0
 10
-38.673059
 20
190.982850
 30
0.0
  0
SPLINE
  5
1c9
100
AcDbEntity
  8
Layer_1
 62
4
100
AcDbSpline
 70
8
 71
3
 72
8
 73
4
 74
0
 40
0
 40
0
 40
0
 40
0
 40
1
 40
1
 40
1
 40
1
 10
-38.673059
 20
190.982850
 30
0.0
 10
-38.029564
 20
190.339354
 30
0.0
 10
-37.061799
 20
190.146854
 30
0.0
 10
-36.221031
 20
190.495111
 30
0.0
  0
SPLINE
  5
1ca
100
AcDbEntity
  8
Layer_1
 62
4
100
AcDbSpline
 70
8
 71
3
 72
8
 73
4
 74
0
 40
0
 40
0
 40
0
 40
0
 40
1
 40
1
 40
1
 40
1
 10
-36.221031
 20
190.495111
 30
0.0
 10
-35.380264
 20
190.843368
 30
0.0
 10
-34.832069
 20
191.663800
 30
0.0
 10
-34.832069
 20
192.573840
 30
0.0
  0
SPLINE
  5
1cb
100
AcDbEntity
  8
Layer_1
 62
4
100
AcDbSpline
 70
8
 71
3
 72
8
 73
4
 74
0
 40
0
 40
0
 40
0
 40
0
 40
1
 40
1
 40
1
 40
1
 10
-34.832069
 20
192.573840
 30
0.0
 10
-34.832069
 20
193.170577
 30
0.0
 10
-35.069122
 20
193.742873
 30
0.0
 10
-35.491079
 20
194.164830
 30
0.0
  0
SPLINE
  5
1cc
100
AcDbEntity
  8
Layer_1
 62
4
100
AcDbSpline
 70
8
 71
3
 72
8
 73
4
 74
0
 40
0
 40
0
 40
0
 40
0
 40
1
 40
1
 40
1
 40
1
 10
-35.491079
 20
194.164830
 30
0.0
 10
-35.913036
 20
194.586787
 30
0.0
 10
-36.485332
 20
194.823840
 30
0.0
 10
-37.082069
 20
194.823840
 30
0.0
  0
LINE
  5
1cd
100
AcDbEntity
  8
Layer_1
 62
4
100
AcDbLine
 10
-37.082069
 20
194.823840
 30
0.0
 11
-37.082069
 21
194.823840
 31
0.0
  0
SPLINE
  5
1ce
100
AcDbEntity
  8
Layer_1
 62
4
100
AcDbSpline
 70
8
 71
3
 72
8
 73
4
 74
0
 40
0
 40
0
 40
0
 40
0
 40
1
 40
1
 40
1
 40
1
 10
209.759290
 20
194.823840
 30
0.0
 10
208.849250
 20
194.823840
 30
0.0
 10
208.028818
 20
194.275645
 30
0.0
 10
207.680561
 20
193.434878
 30
0.0
  0
SPLINE
  5
1cf
100
AcDbEntity
  8
Layer_1
 62
4
100
AcDbSpline
 70
8
 71
3
 72
8
 73
4
 74
0
 40
0
 40
0
 40
0
 40
0
 40
1
 40
1
 40
1
 40
1
 10
207.680561
 20
193.434878
 30
0.0
 10
207.332304
 20
192.594110
 30
0.0
 10
207.524804
 20
191.626345
 30
0.0
 10
208.168300
 20
190.982850
 30
0.0
  0
SPLINE
  5
1d0
100
AcDbEntity
  8
Layer_1
 62
4
100
AcDbSpline
 70
8
 71
3
 72
8
 73
4
 74
0
 40
0
 40
0
 40
0
 40
0
 40
1
 40
1
 40
1
 40
1
 10
208.168300
 20
190.982850
 30
0.0
 10
208.811795
 20
190.339354
 30
0.0
 10
209.779560
 20
190.146854
 30
0.0
 10
210.620328
 20
190.495111
 30
0.0
  0
SPLINE
  5
1d1
100
AcDbEntity
  8
Layer_1
 62
4
100
AcDbSpline
 70
8
 71
3
 72
8
 73
4
 74
0
 40
0
 40
0
 40
0
 40
0
 40
1
 40
1
 40
1
 40
1
 10
210.620328
 20
190.495111
 30
0.0
 10
211.461095
 20
190.843368
 30
0.0
 10
212.009290
 20
191.663800
 30
0.0
 10
212.009290
 20
192.573840
 30
0.0
  0
SPLINE
  5
1d2
100
AcDbEntity
  8
Layer_1
 62
4
100
AcDbSpline
 70
8
 71
3
 72
8
 73
4
 74
0
 40
0
 40
0
 40
0
 40
0
 40
1
 40
1
 40
1
 40
1
 10
212.009290
 20
192.573840
 30
0.0
 10
212.009290
 20
193.816481
 30
0.0
 10
211.001931
 20
194.823840
 30
0.0
 10
209.759290
 20
194.823840
 30
0.0
  0
LINE
  5
1d3
100
AcDbEntity
  8
Layer_1
 62
4
100
AcDbLine
 10
209.759290
 20
194.823840
 30
0.0
 11
209.759290
 21
194.823840
 31
0.0
  0
SPLINE
  5
1d4
100
AcDbEntity
  8
Layer_1
 62
4
100
AcDbSpline
 70
8
 71
3
 72
8
 73
4
 74
0
 40
0
 40
0
 40
0
 40
0
 40
1
 40
1
 40
1
 40
1
 10
112.486160
 20
194.823840
 30
0.0
 10
111.576120
 20
194.823840
 30
0.0
 10
110.755688
 20
194.275645
 30
0.0
 10
110.407431
 20
193.434878
 30
0.0
  0
SPLINE
  5
1d5
100
AcDbEntity
  8
Layer_1
 62
4
100
AcDbSpline
 70
8
 71
3
 72
8
 73
4
 74
0
 40
0
 40
0
 40
0
 40
0
 40
1
 40
1
 40
1
 40
1
 10
110.407431
 20
193.434878
 30
0.0
 10
110.059174
 20
192.594110
 30
0.0
 10
110.251674
 20
191.626345
 30
0.0
 10
110.895170
 20
190.982850
 30
0.0
  0
SPLINE
  5
1d6
100
AcDbEntity
  8
Layer_1
 62
4
100
AcDbSpline
 70
8
 71
3
 72
8
 73
4
 74
0
 40
0
 40
0
 40
0
 40
0
 40
1
 40
1
 40
1
 40
1
 10
110.895170
 20
190.982850
 30
0.0
 10
111.538665
 20
190.339354
 30
0.0
 10
112.506430
 20
190.146854
 30
0.0
 10
113.347198
 20
190.495111
 30
0.0
  0
SPLINE
  5
1d7
100
AcDbEntity
  8
Layer_1
 62
4
100
AcDbSpline
 70
8
 71
3
 72
8
 73
4
 74
0
 40
0
 40
0
 40
0
 40
0
 40
1
 40
1
 40
1
 40
1
 10
113.347198
 20
190.495111
 30
0.0
 10
114.187965
 20
190.843368
 30
0.0
 10
114.736160
 20
191.663800
 30
0.0
 10
114.736160
 20
192.573840
 30
0.0
  0
SPLINE
  5
1d8
100
AcDbEntity
  8
Layer_1
 62
4
100
AcDbSpline
 70
8
 71
3
 72
8
 73
4
 74
0
 40
0
 40
0
 40
0
 40
0
 40
1
 40
1
 40
1
 40
1
 10
114.736160
 20
192.573840
 30
0.0
 10
114.736160
 20
193.816481
 30
0.0
 10
113.728801
 20
194.823840
 30
0.0
 10
112.486160
 20
194.823840
 30
0.0
  0
LINE
  5
1d9
100
AcDbEntity
  8
Layer_1
 62
4
100
AcDbLine
 10
112.486160
 20
194.823840
 30
0.0
 11
112.486160
 21
194.823840
 31
0.0
  0
ENDSEC
  0
SECTION
  2
OBJECTS
  0
DICTIONARY
  5
C
330
0
100
AcDbDictionary
  3
ACAD_GROUP
350
D
  3
ACAD_MLINESTYLE
350
17
  0
DICTIONARY
  5
D
330
C
100
AcDbDictionary
  0
DICTIONARY
  5
1A
330
C
100
AcDbDictionary
  0
DICTIONARY
  5
17
330
C
100
AcDbDictionary
  3
STANDARD
350
18
  0
DICTIONARY
  5
19
330
C
100
AcDbDictionary
  0
ENDSEC
  0
EOF
