  0
SECTION
  2
HEADER
  9
$ACADVER
  1
AC1014
  9
$HANDSEED
  5
FFFF
  9
$INSUNITS
 70
     0
  9
$MEASUREMENT
 70
     1
  0
ENDSEC
  0
SECTION
  2
TABLES
  0
TABLE
  2
VPORT
  5
8
330
0
100
AcDbSymbolTable
 70
     4
  0
VPORT
  5
2E
330
8
100
AcDbSymbolTableRecord
100
AcDbViewportTableRecord
  2
*ACTIVE
 70
     0
 10
0.0
 20
0.0
 11
1.0
 21
1.0
 12
210.0
 22
148.5
 13
0.0
 23
0.0
 14
10.0
 24
10.0
 15
10.0
 25
10.0
 16
0.0
 26
0.0
 36
1.0
 17
0.0
 27
0.0
 37
0.0
 40
341.0
 41
1.24
 42
50.0
 43
0.0
 44
0.0
 50
0.0
 51
0.0
 71
     0
 72
   100
 73
     1
 74
     3
 75
     0
 76
     0
 77
     0
 78
     0
  0
ENDTAB
  0
TABLE
  2
LTYPE
  5
5
330
0
100
AcDbSymbolTable
 70
     1
  0
LTYPE
  5
14
330
5
100
AcDbSymbolTableRecord
100
AcDbLinetypeTableRecord
  2
BYBLOCK
 70
     0
  3

 72
    65
 73
     0
 40
0.0
  0
LTYPE
  5
15
330
5
100
AcDbSymbolTableRecord
100
AcDbLinetypeTableRecord
  2
BYLAYER
 70
     0
  3

 72
    65
 73
     0
 40
0.0
  0
LTYPE
  5
16
330
5
100
AcDbSymbolTableRecord
100
AcDbLinetypeTableRecord
  2
CONTINUOUS
 70
     0
  3
Solid line
 72
    65
 73
     0
 40
0.0
  0
ENDTAB
  0
TABLE
  2
LAYER
  5
2
100
AcDbSymbolTable
 70
2
  0
LAYER
  5
50
100
AcDbSymbolTableRecord
100
AcDbLayerTableRecord
  2
0
 70
0
  6
CONTINUOUS
  0
LAYER
  5
51
100
AcDbSymbolTableRecord
100
AcDbLayerTableRecord
  2
Layer_1
 70
0
  6
CONTINUOUS
  0
ENDTAB
  0
TABLE
  2
STYLE
  5
3
330
0
100
AcDbSymbolTable
 70
     1
  0
STYLE
  5
11
330
3
100
AcDbSymbolTableRecord
100
AcDbTextStyleTableRecord
  2
STANDARD
 70
     0
 40
0.0
 41
1.0
 50
0.0
 71
     0
 42
2.5
  3
txt
  4

  0
ENDTAB
  0
TABLE
  2
VIEW
  5
6
330
0
100
AcDbSymbolTable
 70
     0
  0
ENDTAB
  0
TABLE
  2
UCS
  5
7
330
0
100
AcDbSymbolTable
 70
     0
  0
ENDTAB
  0
TABLE
  2
APPID
  5
9
330
0
100
AcDbSymbolTable
 70
     2
  0
APPID
  5
12
330
9
100
AcDbSymbolTableRecord
100
AcDbRegAppTableRecord
  2
ACAD
 70
     0
  0
ENDTAB
  0
TABLE
  2
DIMSTYLE
  5
A
330
0
100
AcDbSymbolTable
 70
     1
  0
DIMSTYLE
105
27
330
A
100
AcDbSymbolTableRecord
100
AcDbDimStyleTableRecord
  2
ISO-25
 70
     0
  3

  4

  5

  6

  7

 40
1.0
 41
2.5
 42
0.625
 43
3.75
 44
1.25
 45
0.0
 46
0.0
 47
0.0
 48
0.0
140
2.5
141
2.5
142
0.0
143
0.03937007874016
144
1.0
145
0.0
146
1.0
147
0.625
 71
     0
 72
     0
 73
     0
 74
     0
 75
     0
 76
     0
 77
     1
 78
     8
170
     0
171
     3
172
     1
173
     0
174
     0
175
     0
176
     0
177
     0
178
     0
270
     2
271
     2
272
     2
273
     2
274
     3
340
11
275
     0
280
     0
281
     0
282
     0
283
     0
284
     8
285
     0
286
     0
287
     3
288
     0
  0
ENDTAB
  0
TABLE
  2
BLOCK_RECORD
  5
1
330
0
100
AcDbSymbolTable
 70
     1
  0
BLOCK_RECORD
  5
1F
330
1
100
AcDbSymbolTableRecord
100
AcDbBlockTableRecord
  2
*MODEL_SPACE
  0
BLOCK_RECORD
  5
1B
330
1
100
AcDbSymbolTableRecord
100
AcDbBlockTableRecord
  2
*PAPER_SPACE
  0
ENDTAB
  0
ENDSEC
  0
SECTION
  2
BLOCKS
  0
BLOCK
  5
20
330
1F
100
AcDbEntity
  8
0
100
AcDbBlockBegin
  2
*MODEL_SPACE
 70
     0
 10
0.0
 20
0.0
 30
0.0
  3
*MODEL_SPACE
  1

  0
ENDBLK
  5
21
330
1F
100
AcDbEntity
  8
0
100
AcDbBlockEnd
  0
BLOCK
  5
1C
330
1B
100
AcDbEntity
 67
     1
  8
0
100
AcDbBlockBegin
  2
*PAPER_SPACE
  1

  0
ENDBLK
  5
1D
330
1B
100
AcDbEntity
 67
     1
  8
0
100
AcDbBlockEnd
  0
ENDSEC
  0
SECTION
  2
ENTITIES
  0
LINE
  5
100
100
AcDbEntity
  8
Layer_1
 62
1
100
AcDbLine
 10
567.600342
 20
-88.966377
 30
0.0
 11
663.476406
 21
-80.591559
 31
0.0
  0
SPLINE
  5
101
100
AcDbEntity
  8
Layer_1
 62
1
100
AcDbSpline
 70
8
 71
3
 72
8
 73
4
 74
0
 40
0
 40
0
 40
0
 40
0
 40
1
 40
1
 40
1
 40
1
 10
663.476406
 20
-80.591559
 30
0.0
 10
664.179283
 20
-80.530163
 30
0.0
 10
664.882151
 20
-80.468663
 30
0.0
 10
665.585010
 20
-80.407060
 30
0.0
  0
LINE
  5
102
100
AcDbEntity
  8
Layer_1
 62
1
100
AcDbLine
 10
665.585010
 20
-80.407060
 30
0.0
 11
682.533278
 21
-78.921267
 31
0.0
  0
SPLINE
  5
103
100
AcDbEntity
  8
Layer_1
 62
1
100
AcDbSpline
 70
8
 71
3
 72
8
 73
4
 74
0
 40
0
 40
0
 40
0
 40
0
 40
1
 40
1
 40
1
 40
1
 10
682.533278
 20
-78.921267
 30
0.0
 10
683.236136
 20
-78.859662
 30
0.0
 10
683.938995
 20
-78.798053
 30
0.0
 10
684.641853
 20
-78.736439
 30
0.0
  0
LINE
  5
104
100
AcDbEntity
  8
Layer_1
 62
1
100
AcDbLine
 10
684.641853
 20
-78.736439
 30
0.0
 11
700.160262
 21
-77.375743
 31
0.0
  0
SPLINE
  5
105
100
AcDbEntity
  8
Layer_1
 62
1
100
AcDbSpline
 70
8
 71
3
 72
8
 73
4
 74
0
 40
0
 40
0
 40
0
 40
0
 40
1
 40
1
 40
1
 40
1
 10
700.160262
 20
-77.375743
 30
0.0
 10
700.837078
 20
-77.316413
 30
0.0
 10
701.465169
 20
-76.999119
 30
0.0
 10
701.914530
 20
-76.489536
 30
0.0
  0
LINE
  5
106
100
AcDbEntity
  8
Layer_1
 62
1
100
AcDbLine
 10
701.914530
 20
-76.489536
 30
0.0
 11
703.454605
 21
-74.743064
 31
0.0
  0
SPLINE
  5
107
100
AcDbEntity
  8
Layer_1
 62
1
100
AcDbSpline
 70
8
 71
3
 72
8
 73
4
 74
0
 40
0
 40
0
 40
0
 40
0
 40
1
 40
1
 40
1
 40
1
 10
703.454605
 20
-74.743064
 30
0.0
 10
703.901589
 20
-74.236178
 30
0.0
 10
704.121246
 20
-73.568219
 30
0.0
 10
704.062346
 20
-72.894973
 30
0.0
  0
LINE
  5
108
100
AcDbEntity
  8
Layer_1
 62
1
100
AcDbLine
 10
704.062346
 20
-72.894973
 30
0.0
 11
695.284159
 21
27.440163
 31
0.0
  0
SPLINE
  5
109
100
AcDbEntity
  8
Layer_1
 62
1
100
AcDbSpline
 70
8
 71
3
 72
8
 73
4
 74
0
 40
0
 40
0
 40
0
 40
0
 40
1
 40
1
 40
1
 40
1
 10
695.284159
 20
27.440163
 30
0.0
 10
695.225540
 20
28.110167
 30
0.0
 10
694.880590
 20
28.722267
 30
0.0
 10
694.337811
 20
29.119423
 30
0.0
  0
LINE
  5
10a
100
AcDbEntity
  8
Layer_1
 62
1
100
AcDbLine
 10
694.337811
 20
29.119423
 30
0.0
 11
692.584817
 21
30.402111
 31
0.0
  0
SPLINE
  5
10b
100
AcDbEntity
  8
Layer_1
 62
1
100
AcDbSpline
 70
8
 71
3
 72
8
 73
4
 74
0
 40
0
 40
0
 40
0
 40
0
 40
1
 40
1
 40
1
 40
1
 10
692.584817
 20
30.402111
 30
0.0
 10
692.034213
 20
30.804995
 30
0.0
 10
691.356070
 20
30.994290
 30
0.0
 10
690.676406
 20
30.934819
 30
0.0
  0
LINE
  5
10c
100
AcDbEntity
  8
Layer_1
 62
1
100
AcDbLine
 10
690.676406
 20
30.934819
 30
0.0
 11
676.483519
 21
29.692891
 31
0.0
  0
SPLINE
  5
10d
100
AcDbEntity
  8
Layer_1
 62
1
100
AcDbSpline
 70
8
 71
3
 72
8
 73
4
 74
0
 40
0
 40
0
 40
0
 40
0
 40
1
 40
1
 40
1
 40
1
 10
676.483519
 20
29.692891
 30
0.0
 10
675.780651
 20
29.631390
 30
0.0
 10
675.077783
 20
29.569887
 30
0.0
 10
674.374916
 20
29.508382
 30
0.0
  0
LINE
  5
10e
100
AcDbEntity
  8
Layer_1
 62
1
100
AcDbLine
 10
674.374916
 20
29.508382
 30
0.0
 11
657.162761
 21
28.002203
 31
0.0
  0
SPLINE
  5
10f
100
AcDbEntity
  8
Layer_1
 62
1
100
AcDbSpline
 70
8
 71
3
 72
8
 73
4
 74
0
 40
0
 40
0
 40
0
 40
0
 40
1
 40
1
 40
1
 40
1
 10
657.162761
 20
28.002203
 30
0.0
 10
656.459893
 20
27.940697
 30
0.0
 10
655.757026
 20
27.879194
 30
0.0
 10
655.054158
 20
27.817694
 30
0.0
  0
LINE
  5
110
100
AcDbEntity
  8
Layer_1
 62
1
100
AcDbLine
 10
655.054158
 20
27.817694
 30
0.0
 11
560.102810
 21
19.509574
 31
0.0
  0
SPLINE
  5
111
100
AcDbEntity
  8
Layer_1
 62
1
100
AcDbSpline
 70
8
 71
3
 72
8
 73
4
 74
0
 40
0
 40
0
 40
0
 40
0
 40
1
 40
1
 40
1
 40
1
 10
560.102810
 20
19.509574
 30
0.0
 10
559.417715
 20
19.449630
 30
0.0
 10
558.769407
 20
19.173471
 30
0.0
 10
558.251525
 20
18.720983
 30
0.0
  0
LINE
  5
112
100
AcDbEntity
  8
Layer_1
 62
1
100
AcDbLine
 10
558.251525
 20
18.720983
 30
0.0
 11
556.908937
 21
17.547904
 31
0.0
  0
SPLINE
  5
113
100
AcDbEntity
  8
Layer_1
 62
1
100
AcDbSpline
 70
8
 71
3
 72
8
 73
4
 74
0
 40
0
 40
0
 40
0
 40
0
 40
1
 40
1
 40
1
 40
1
 10
556.908937
 20
17.547904
 30
0.0
 10
556.395118
 20
17.098967
 30
0.0
 10
555.735939
 20
16.851576
 30
0.0
 10
555.053623
 20
16.851604
 30
0.0
  0
LINE
  5
114
100
AcDbEntity
  8
Layer_1
 62
1
100
AcDbLine
 10
555.053623
 20
16.851604
 30
0.0
 11
511.179507
 21
16.853229
 31
0.0
  0
SPLINE
  5
115
100
AcDbEntity
  8
Layer_1
 62
1
100
AcDbSpline
 70
8
 71
3
 72
8
 73
4
 74
0
 40
0
 40
0
 40
0
 40
0
 40
1
 40
1
 40
1
 40
1
 10
511.179507
 20
16.853229
 30
0.0
 10
510.497574
 20
16.853256
 30
0.0
 10
509.839173
 20
17.102568
 30
0.0
 10
509.328257
 20
17.554229
 30
0.0
  0
LINE
  5
116
100
AcDbEntity
  8
Layer_1
 62
1
100
AcDbLine
 10
509.328257
 20
17.554229
 30
0.0
 11
508.012331
 21
18.717525
 31
0.0
  0
SPLINE
  5
117
100
AcDbEntity
  8
Layer_1
 62
1
100
AcDbSpline
 70
8
 71
3
 72
8
 73
4
 74
0
 40
0
 40
0
 40
0
 40
0
 40
1
 40
1
 40
1
 40
1
 10
508.012331
 20
18.717525
 30
0.0
 10
507.497337
 20
19.172790
 30
0.0
 10
506.849867
 20
19.450823
 30
0.0
 10
506.165108
 20
19.510748
 30
0.0
  0
LINE
  5
118
100
AcDbEntity
  8
Layer_1
 62
1
100
AcDbLine
 10
506.165108
 20
19.510748
 30
0.0
 11
375.550993
 21
30.940280
 31
0.0
  0
SPLINE
  5
119
100
AcDbEntity
  8
Layer_1
 62
1
100
AcDbSpline
 70
8
 71
3
 72
8
 73
4
 74
0
 40
0
 40
0
 40
0
 40
0
 40
1
 40
1
 40
1
 40
1
 10
375.550993
 20
30.940280
 30
0.0
 10
374.871012
 20
30.999786
 30
0.0
 10
374.192375
 20
30.812120
 30
0.0
 10
373.639577
 20
30.411708
 30
0.0
  0
LINE
  5
11a
100
AcDbEntity
  8
Layer_1
 62
1
100
AcDbLine
 10
373.639577
 20
30.411708
 30
0.0
 11
371.859887
 21
29.122612
 31
0.0
  0
SPLINE
  5
11b
100
AcDbEntity
  8
Layer_1
 62
1
100
AcDbSpline
 70
8
 71
3
 72
8
 73
4
 74
0
 40
0
 40
0
 40
0
 40
0
 40
1
 40
1
 40
1
 40
1
 10
371.859887
 20
29.122612
 30
0.0
 10
371.315512
 20
28.728305
 30
0.0
 10
370.969129
 20
28.117090
 30
0.0
 10
370.910563
 20
27.447469
 30
0.0
  0
LINE
  5
11c
100
AcDbEntity
  8
Layer_1
 62
1
100
AcDbLine
 10
370.910563
 20
27.447469
 30
0.0
 11
362.134700
 21
-72.894881
 31
0.0
  0
SPLINE
  5
11d
100
AcDbEntity
  8
Layer_1
 62
1
100
AcDbSpline
 70
8
 71
3
 72
8
 73
4
 74
0
 40
0
 40
0
 40
0
 40
0
 40
1
 40
1
 40
1
 40
1
 10
362.134700
 20
-72.894881
 30
0.0
 10
362.075835
 20
-73.567918
 30
0.0
 10
362.296438
 20
-74.235532
 30
0.0
 10
362.744720
 20
-74.740989
 30
0.0
  0
LINE
  5
11e
100
AcDbEntity
  8
Layer_1
 62
1
100
AcDbLine
 10
362.744720
 20
-74.740989
 30
0.0
 11
364.316379
 21
-76.513083
 31
0.0
  0
SPLINE
  5
11f
100
AcDbEntity
  8
Layer_1
 62
1
100
AcDbSpline
 70
8
 71
3
 72
8
 73
4
 74
0
 40
0
 40
0
 40
0
 40
0
 40
1
 40
1
 40
1
 40
1
 10
364.316379
 20
-76.513083
 30
0.0
 10
364.704208
 20
-76.950386
 30
0.0
 10
365.490726
 20
-77.345249
 30
0.0
 10
366.073095
 20
-77.395082
 30
0.0
  0
SPLINE
  5
120
100
AcDbEntity
  8
Layer_1
 62
1
100
AcDbSpline
 70
8
 71
3
 72
8
 73
4
 74
0
 40
0
 40
0
 40
0
 40
0
 40
1
 40
1
 40
1
 40
1
 10
366.073095
 20
-77.395082
 30
0.0
 10
379.577912
 20
-78.550677
 30
0.0
 10
392.317986
 20
-79.657247
 30
0.0
 10
404.859797
 20
-80.753287
 30
0.0
  0
SPLINE
  5
121
100
AcDbEntity
  8
Layer_1
 62
1
100
AcDbSpline
 70
8
 71
3
 72
8
 73
4
 74
0
 40
0
 40
0
 40
0
 40
0
 40
1
 40
1
 40
1
 40
1
 10
404.859797
 20
-80.753287
 30
0.0
 10
405.442078
 20
-80.804171
 30
0.0
 10
406.386131
 20
-80.886786
 30
0.0
 10
406.968402
 20
-80.937792
 30
0.0
  0
LINE
  5
122
100
AcDbEntity
  8
Layer_1
 62
1
100
AcDbLine
 10
406.968402
 20
-80.937792
 30
0.0
 11
422.548757
 21
-82.302668
 31
0.0
  0
SPLINE
  5
123
100
AcDbEntity
  8
Layer_1
 62
1
100
AcDbSpline
 70
8
 71
3
 72
8
 73
4
 74
0
 40
0
 40
0
 40
0
 40
0
 40
1
 40
1
 40
1
 40
1
 10
422.548757
 20
-82.302668
 30
0.0
 10
423.131028
 20
-82.353674
 30
0.0
 10
424.075063
 20
-82.436431
 30
0.0
 10
424.657331
 20
-82.487517
 30
0.0
  0
SPLINE
  5
124
100
AcDbEntity
  8
Layer_1
 62
1
100
AcDbSpline
 70
8
 71
3
 72
8
 73
4
 74
0
 40
0
 40
0
 40
0
 40
0
 40
1
 40
1
 40
1
 40
1
 10
424.657331
 20
-82.487517
 30
0.0
 10
440.526212
 20
-83.879791
 30
0.0
 10
456.539644
 20
-85.286201
 30
0.0
 10
473.860258
 20
-86.787804
 30
0.0
  0
SPLINE
  5
125
100
AcDbEntity
  8
Layer_1
 62
1
100
AcDbSpline
 70
8
 71
3
 72
8
 73
4
 74
0
 40
0
 40
0
 40
0
 40
0
 40
1
 40
1
 40
1
 40
1
 10
473.860258
 20
-86.787804
 30
0.0
 10
474.442573
 20
-86.838284
 30
0.0
 10
475.386655
 20
-86.920545
 30
0.0
 10
475.968927
 20
-86.971560
 30
0.0
  0
LINE
  5
126
100
AcDbEntity
  8
Layer_1
 62
1
100
AcDbLine
 10
475.968927
 20
-86.971560
 30
0.0
 11
496.675117
 21
-88.785861
 31
0.0
  0
SPLINE
  5
127
100
AcDbEntity
  8
Layer_1
 62
1
100
AcDbSpline
 70
8
 71
3
 72
8
 73
4
 74
0
 40
0
 40
0
 40
0
 40
0
 40
1
 40
1
 40
1
 40
1
 10
496.675117
 20
-88.785861
 30
0.0
 10
497.377981
 20
-88.847445
 30
0.0
 10
498.080843
 20
-88.909037
 30
0.0
 10
498.783705
 20
-88.970638
 30
0.0
  0
SPLINE
  5
128
100
AcDbEntity
  8
Layer_1
 62
1
100
AcDbSpline
 70
8
 71
3
 72
8
 73
4
 74
0
 40
0
 40
0
 40
0
 40
0
 40
1
 40
1
 40
1
 40
1
 10
498.783705
 20
-88.970638
 30
0.0
 10
499.436196
 20
-89.025618
 30
0.0
 10
500.090776
 20
-89.052088
 30
0.0
 10
500.745575
 20
-89.049972
 30
0.0
  0
LINE
  5
129
100
AcDbEntity
  8
Layer_1
 62
1
100
AcDbLine
 10
500.745575
 20
-89.049972
 30
0.0
 11
565.487697
 21
-89.058326
 31
0.0
  0
SPLINE
  5
12a
100
AcDbEntity
  8
Layer_1
 62
1
100
AcDbSpline
 70
8
 71
3
 72
8
 73
4
 74
0
 40
0
 40
0
 40
0
 40
0
 40
1
 40
1
 40
1
 40
1
 10
565.487697
 20
-89.058326
 30
0.0
 10
566.192914
 20
-89.058410
 30
0.0
 10
566.897798
 20
-89.027721
 30
0.0
 10
567.600340
 20
-88.966347
 30
0.0
  0
LINE
  5
12b
100
AcDbEntity
  8
Layer_1
 62
1
100
AcDbLine
 10
567.600340
 20
-88.966347
 30
0.0
 11
567.600342
 21
-88.966377
 31
0.0
  0
SPLINE
  5
12c
100
AcDbEntity
  8
Layer_1
 62
1
100
AcDbSpline
 70
8
 71
3
 72
8
 73
4
 74
0
 40
0
 40
0
 40
0
 40
0
 40
1
 40
1
 40
1
 40
1
 10
368.027752
 20
-70.891308
 30
0.0
 10
367.644975
 20
-70.857819
 30
0.0
 10
367.279716
 20
-71.058207
 30
0.0
 10
367.102294
 20
-71.399032
 30
0.0
  0
SPLINE
  5
12d
100
AcDbEntity
  8
Layer_1
 62
1
100
AcDbSpline
 70
8
 71
3
 72
8
 73
4
 74
0
 40
0
 40
0
 40
0
 40
0
 40
1
 40
1
 40
1
 40
1
 10
367.102294
 20
-71.399032
 30
0.0
 10
366.924872
 20
-71.739856
 30
0.0
 10
366.970228
 20
-72.153997
 30
0.0
 10
367.217212
 20
-72.448342
 30
0.0
  0
SPLINE
  5
12e
100
AcDbEntity
  8
Layer_1
 62
1
100
AcDbSpline
 70
8
 71
3
 72
8
 73
4
 74
0
 40
0
 40
0
 40
0
 40
0
 40
1
 40
1
 40
1
 40
1
 10
367.217212
 20
-72.448342
 30
0.0
 10
367.464196
 20
-72.742686
 30
0.0
 10
367.864170
 20
-72.859267
 30
0.0
 10
368.230625
 20
-72.743724
 30
0.0
  0
SPLINE
  5
12f
100
AcDbEntity
  8
Layer_1
 62
1
100
AcDbSpline
 70
8
 71
3
 72
8
 73
4
 74
0
 40
0
 40
0
 40
0
 40
0
 40
1
 40
1
 40
1
 40
1
 10
368.230625
 20
-72.743724
 30
0.0
 10
368.597081
 20
-72.628181
 30
0.0
 10
368.857851
 20
-72.303268
 30
0.0
 10
368.891340
 20
-71.920491
 30
0.0
  0
SPLINE
  5
130
100
AcDbEntity
  8
Layer_1
 62
1
100
AcDbSpline
 70
8
 71
3
 72
8
 73
4
 74
0
 40
0
 40
0
 40
0
 40
0
 40
1
 40
1
 40
1
 40
1
 10
368.891340
 20
-71.920491
 30
0.0
 10
368.913299
 20
-71.669494
 30
0.0
 10
368.834651
 20
-71.420054
 30
0.0
 10
368.672697
 20
-71.227045
 30
0.0
  0
SPLINE
  5
131
100
AcDbEntity
  8
Layer_1
 62
1
100
AcDbSpline
 70
8
 71
3
 72
8
 73
4
 74
0
 40
0
 40
0
 40
0
 40
0
 40
1
 40
1
 40
1
 40
1
 10
368.672697
 20
-71.227045
 30
0.0
 10
368.510743
 20
-71.034035
 30
0.0
 10
368.278749
 20
-70.913267
 30
0.0
 10
368.027752
 20
-70.891308
 30
0.0
  0
LINE
  5
132
100
AcDbEntity
  8
Layer_1
 62
1
100
AcDbLine
 10
368.027752
 20
-70.891308
 30
0.0
 11
368.027752
 21
-70.891308
 31
0.0
  0
SPLINE
  5
133
100
AcDbEntity
  8
Layer_1
 62
1
100
AcDbSpline
 70
8
 71
3
 72
8
 73
4
 74
0
 40
0
 40
0
 40
0
 40
0
 40
1
 40
1
 40
1
 40
1
 10
375.770096
 20
17.604151
 30
0.0
 10
375.387319
 20
17.637639
 30
0.0
 10
375.022059
 20
17.437251
 30
0.0
 10
374.844637
 20
17.096427
 30
0.0
  0
SPLINE
  5
134
100
AcDbEntity
  8
Layer_1
 62
1
100
AcDbSpline
 70
8
 71
3
 72
8
 73
4
 74
0
 40
0
 40
0
 40
0
 40
0
 40
1
 40
1
 40
1
 40
1
 10
374.844637
 20
17.096427
 30
0.0
 10
374.667215
 20
16.755602
 30
0.0
 10
374.712571
 20
16.341461
 30
0.0
 10
374.959555
 20
16.047117
 30
0.0
  0
SPLINE
  5
135
100
AcDbEntity
  8
Layer_1
 62
1
100
AcDbSpline
 70
8
 71
3
 72
8
 73
4
 74
0
 40
0
 40
0
 40
0
 40
0
 40
1
 40
1
 40
1
 40
1
 10
374.959555
 20
16.047117
 30
0.0
 10
375.206540
 20
15.752773
 30
0.0
 10
375.606513
 20
15.636191
 30
0.0
 10
375.972968
 20
15.751734
 30
0.0
  0
SPLINE
  5
136
100
AcDbEntity
  8
Layer_1
 62
1
100
AcDbSpline
 70
8
 71
3
 72
8
 73
4
 74
0
 40
0
 40
0
 40
0
 40
0
 40
1
 40
1
 40
1
 40
1
 10
375.972968
 20
15.751734
 30
0.0
 10
376.339424
 20
15.867277
 30
0.0
 10
376.600194
 20
16.192191
 30
0.0
 10
376.633683
 20
16.574968
 30
0.0
  0
SPLINE
  5
137
100
AcDbEntity
  8
Layer_1
 62
1
100
AcDbSpline
 70
8
 71
3
 72
8
 73
4
 74
0
 40
0
 40
0
 40
0
 40
0
 40
1
 40
1
 40
1
 40
1
 10
376.633683
 20
16.574968
 30
0.0
 10
376.655642
 20
16.825965
 30
0.0
 10
376.576994
 20
17.075405
 30
0.0
 10
376.415040
 20
17.268414
 30
0.0
  0
SPLINE
  5
138
100
AcDbEntity
  8
Layer_1
 62
1
100
AcDbSpline
 70
8
 71
3
 72
8
 73
4
 74
0
 40
0
 40
0
 40
0
 40
0
 40
1
 40
1
 40
1
 40
1
 10
376.415040
 20
17.268414
 30
0.0
 10
376.253086
 20
17.461423
 30
0.0
 10
376.021093
 20
17.582191
 30
0.0
 10
375.770096
 20
17.604151
 30
0.0
  0
LINE
  5
139
100
AcDbEntity
  8
Layer_1
 62
1
100
AcDbLine
 10
375.770096
 20
17.604151
 30
0.0
 11
375.770096
 21
17.604151
 31
0.0
  0
SPLINE
  5
13a
100
AcDbEntity
  8
Layer_1
 62
1
100
AcDbSpline
 70
8
 71
3
 72
8
 73
4
 74
0
 40
0
 40
0
 40
0
 40
0
 40
1
 40
1
 40
1
 40
1
 10
504.279060
 20
14.916561
 30
0.0
 10
503.896283
 20
14.950049
 30
0.0
 10
503.531023
 20
14.749661
 30
0.0
 10
503.353601
 20
14.408837
 30
0.0
  0
SPLINE
  5
13b
100
AcDbEntity
  8
Layer_1
 62
1
100
AcDbSpline
 70
8
 71
3
 72
8
 73
4
 74
0
 40
0
 40
0
 40
0
 40
0
 40
1
 40
1
 40
1
 40
1
 10
503.353601
 20
14.408837
 30
0.0
 10
503.176179
 20
14.068012
 30
0.0
 10
503.221535
 20
13.653871
 30
0.0
 10
503.468519
 20
13.359527
 30
0.0
  0
SPLINE
  5
13c
100
AcDbEntity
  8
Layer_1
 62
1
100
AcDbSpline
 70
8
 71
3
 72
8
 73
4
 74
0
 40
0
 40
0
 40
0
 40
0
 40
1
 40
1
 40
1
 40
1
 10
503.468519
 20
13.359527
 30
0.0
 10
503.715504
 20
13.065183
 30
0.0
 10
504.115477
 20
12.948601
 30
0.0
 10
504.481932
 20
13.064144
 30
0.0
  0
SPLINE
  5
13d
100
AcDbEntity
  8
Layer_1
 62
1
100
AcDbSpline
 70
8
 71
3
 72
8
 73
4
 74
0
 40
0
 40
0
 40
0
 40
0
 40
1
 40
1
 40
1
 40
1
 10
504.481932
 20
13.064144
 30
0.0
 10
504.848388
 20
13.179687
 30
0.0
 10
505.109158
 20
13.504601
 30
0.0
 10
505.142647
 20
13.887378
 30
0.0
  0
SPLINE
  5
13e
100
AcDbEntity
  8
Layer_1
 62
1
100
AcDbSpline
 70
8
 71
3
 72
8
 73
4
 74
0
 40
0
 40
0
 40
0
 40
0
 40
1
 40
1
 40
1
 40
1
 10
505.142647
 20
13.887378
 30
0.0
 10
505.164606
 20
14.138375
 30
0.0
 10
505.085958
 20
14.387815
 30
0.0
 10
504.924004
 20
14.580824
 30
0.0
  0
SPLINE
  5
13f
100
AcDbEntity
  8
Layer_1
 62
1
100
AcDbSpline
 70
8
 71
3
 72
8
 73
4
 74
0
 40
0
 40
0
 40
0
 40
0
 40
1
 40
1
 40
1
 40
1
 10
504.924004
 20
14.580824
 30
0.0
 10
504.762050
 20
14.773833
 30
0.0
 10
504.530057
 20
14.894601
 30
0.0
 10
504.279060
 20
14.916561
 30
0.0
  0
LINE
  5
140
100
AcDbEntity
  8
Layer_1
 62
1
100
AcDbLine
 10
504.279060
 20
14.916561
 30
0.0
 11
504.279060
 21
14.916561
 31
0.0
  0
SPLINE
  5
141
100
AcDbEntity
  8
Layer_1
 62
1
100
AcDbSpline
 70
8
 71
3
 72
8
 73
4
 74
0
 40
0
 40
0
 40
0
 40
0
 40
1
 40
1
 40
1
 40
1
 10
495.795709
 20
-82.048657
 30
0.0
 10
495.412932
 20
-82.015169
 30
0.0
 10
495.047673
 20
-82.215557
 30
0.0
 10
494.870251
 20
-82.556381
 30
0.0
  0
SPLINE
  5
142
100
AcDbEntity
  8
Layer_1
 62
1
100
AcDbSpline
 70
8
 71
3
 72
8
 73
4
 74
0
 40
0
 40
0
 40
0
 40
0
 40
1
 40
1
 40
1
 40
1
 10
494.870251
 20
-82.556381
 30
0.0
 10
494.692829
 20
-82.897206
 30
0.0
 10
494.738185
 20
-83.311347
 30
0.0
 10
494.985169
 20
-83.605691
 30
0.0
  0
SPLINE
  5
143
100
AcDbEntity
  8
Layer_1
 62
1
100
AcDbSpline
 70
8
 71
3
 72
8
 73
4
 74
0
 40
0
 40
0
 40
0
 40
0
 40
1
 40
1
 40
1
 40
1
 10
494.985169
 20
-83.605691
 30
0.0
 10
495.232153
 20
-83.900035
 30
0.0
 10
495.632126
 20
-84.016617
 30
0.0
 10
495.998582
 20
-83.901074
 30
0.0
  0
SPLINE
  5
144
100
AcDbEntity
  8
Layer_1
 62
1
100
AcDbSpline
 70
8
 71
3
 72
8
 73
4
 74
0
 40
0
 40
0
 40
0
 40
0
 40
1
 40
1
 40
1
 40
1
 10
495.998582
 20
-83.901074
 30
0.0
 10
496.365037
 20
-83.785531
 30
0.0
 10
496.625808
 20
-83.460618
 30
0.0
 10
496.659296
 20
-83.077840
 30
0.0
  0
SPLINE
  5
145
100
AcDbEntity
  8
Layer_1
 62
1
100
AcDbSpline
 70
8
 71
3
 72
8
 73
4
 74
0
 40
0
 40
0
 40
0
 40
0
 40
1
 40
1
 40
1
 40
1
 10
496.659296
 20
-83.077840
 30
0.0
 10
496.681256
 20
-82.826843
 30
0.0
 10
496.602608
 20
-82.577403
 30
0.0
 10
496.440654
 20
-82.384394
 30
0.0
  0
SPLINE
  5
146
100
AcDbEntity
  8
Layer_1
 62
1
100
AcDbSpline
 70
8
 71
3
 72
8
 73
4
 74
0
 40
0
 40
0
 40
0
 40
0
 40
1
 40
1
 40
1
 40
1
 10
496.440654
 20
-82.384394
 30
0.0
 10
496.278700
 20
-82.191385
 30
0.0
 10
496.046706
 20
-82.070617
 30
0.0
 10
495.795709
 20
-82.048657
 30
0.0
  0
LINE
  5
147
100
AcDbEntity
  8
Layer_1
 62
1
100
AcDbLine
 10
495.795709
 20
-82.048657
 30
0.0
 11
495.795709
 21
-82.048657
 31
0.0
  0
SPLINE
  5
148
100
AcDbEntity
  8
Layer_1
 62
1
100
AcDbSpline
 70
8
 71
3
 72
8
 73
4
 74
0
 40
0
 40
0
 40
0
 40
0
 40
1
 40
1
 40
1
 40
1
 10
500.494987
 20
-28.335626
 30
0.0
 10
500.112210
 20
-28.302137
 30
0.0
 10
499.746950
 20
-28.502526
 30
0.0
 10
499.569528
 20
-28.843350
 30
0.0
  0
SPLINE
  5
149
100
AcDbEntity
  8
Layer_1
 62
1
100
AcDbSpline
 70
8
 71
3
 72
8
 73
4
 74
0
 40
0
 40
0
 40
0
 40
0
 40
1
 40
1
 40
1
 40
1
 10
499.569528
 20
-28.843350
 30
0.0
 10
499.392106
 20
-29.184174
 30
0.0
 10
499.437462
 20
-29.598315
 30
0.0
 10
499.684446
 20
-29.892660
 30
0.0
  0
SPLINE
  5
14a
100
AcDbEntity
  8
Layer_1
 62
1
100
AcDbSpline
 70
8
 71
3
 72
8
 73
4
 74
0
 40
0
 40
0
 40
0
 40
0
 40
1
 40
1
 40
1
 40
1
 10
499.684446
 20
-29.892660
 30
0.0
 10
499.931431
 20
-30.187004
 30
0.0
 10
500.331404
 20
-30.303586
 30
0.0
 10
500.697859
 20
-30.188043
 30
0.0
  0
SPLINE
  5
14b
100
AcDbEntity
  8
Layer_1
 62
1
100
AcDbSpline
 70
8
 71
3
 72
8
 73
4
 74
0
 40
0
 40
0
 40
0
 40
0
 40
1
 40
1
 40
1
 40
1
 10
500.697859
 20
-30.188043
 30
0.0
 10
501.064315
 20
-30.072500
 30
0.0
 10
501.325085
 20
-29.747586
 30
0.0
 10
501.358574
 20
-29.364809
 30
0.0
  0
SPLINE
  5
14c
100
AcDbEntity
  8
Layer_1
 62
1
100
AcDbSpline
 70
8
 71
3
 72
8
 73
4
 74
0
 40
0
 40
0
 40
0
 40
0
 40
1
 40
1
 40
1
 40
1
 10
501.358574
 20
-29.364809
 30
0.0
 10
501.380533
 20
-29.113812
 30
0.0
 10
501.301885
 20
-28.864372
 30
0.0
 10
501.139931
 20
-28.671363
 30
0.0
  0
SPLINE
  5
14d
100
AcDbEntity
  8
Layer_1
 62
1
100
AcDbSpline
 70
8
 71
3
 72
8
 73
4
 74
0
 40
0
 40
0
 40
0
 40
0
 40
1
 40
1
 40
1
 40
1
 10
501.139931
 20
-28.671363
 30
0.0
 10
500.977977
 20
-28.478354
 30
0.0
 10
500.745984
 20
-28.357585
 30
0.0
 10
500.494987
 20
-28.335626
 30
0.0
  0
LINE
  5
14e
100
AcDbEntity
  8
Layer_1
 62
1
100
AcDbLine
 10
500.494987
 20
-28.335626
 30
0.0
 11
500.494987
 21
-28.335626
 31
0.0
  0
SPLINE
  5
14f
100
AcDbEntity
  8
Layer_1
 62
1
100
AcDbSpline
 70
8
 71
3
 72
8
 73
4
 74
0
 40
0
 40
0
 40
0
 40
0
 40
1
 40
1
 40
1
 40
1
 10
698.167090
 20
-70.896295
 30
0.0
 10
698.549867
 20
-70.862806
 30
0.0
 10
698.915126
 20
-71.063195
 30
0.0
 10
699.092548
 20
-71.404019
 30
0.0
  0
SPLINE
  5
150
100
AcDbEntity
  8
Layer_1
 62
1
100
AcDbSpline
 70
8
 71
3
 72
8
 73
4
 74
0
 40
0
 40
0
 40
0
 40
0
 40
1
 40
1
 40
1
 40
1
 10
699.092548
 20
-71.404019
 30
0.0
 10
699.269970
 20
-71.744843
 30
0.0
 10
699.224614
 20
-72.158984
 30
0.0
 10
698.977630
 20
-72.453329
 30
0.0
  0
SPLINE
  5
151
100
AcDbEntity
  8
Layer_1
 62
1
100
AcDbSpline
 70
8
 71
3
 72
8
 73
4
 74
0
 40
0
 40
0
 40
0
 40
0
 40
1
 40
1
 40
1
 40
1
 10
698.977630
 20
-72.453329
 30
0.0
 10
698.730646
 20
-72.747673
 30
0.0
 10
698.330673
 20
-72.864255
 30
0.0
 10
697.964217
 20
-72.748712
 30
0.0
  0
SPLINE
  5
152
100
AcDbEntity
  8
Layer_1
 62
1
100
AcDbSpline
 70
8
 71
3
 72
8
 73
4
 74
0
 40
0
 40
0
 40
0
 40
0
 40
1
 40
1
 40
1
 40
1
 10
697.964217
 20
-72.748712
 30
0.0
 10
697.597762
 20
-72.633169
 30
0.0
 10
697.336991
 20
-72.308255
 30
0.0
 10
697.303502
 20
-71.925478
 30
0.0
  0
SPLINE
  5
153
100
AcDbEntity
  8
Layer_1
 62
1
100
AcDbSpline
 70
8
 71
3
 72
8
 73
4
 74
0
 40
0
 40
0
 40
0
 40
0
 40
1
 40
1
 40
1
 40
1
 10
697.303502
 20
-71.925478
 30
0.0
 10
697.257774
 20
-71.402804
 30
0.0
 10
697.644416
 20
-70.942023
 30
0.0
 10
698.167090
 20
-70.896295
 30
0.0
  0
LINE
  5
154
100
AcDbEntity
  8
Layer_1
 62
1
100
AcDbLine
 10
698.167090
 20
-70.896295
 30
0.0
 11
698.167090
 21
-70.896295
 31
0.0
  0
SPLINE
  5
155
100
AcDbEntity
  8
Layer_1
 62
1
100
AcDbSpline
 70
8
 71
3
 72
8
 73
4
 74
0
 40
0
 40
0
 40
0
 40
0
 40
1
 40
1
 40
1
 40
1
 10
690.424747
 20
17.599164
 30
0.0
 10
690.807524
 20
17.632652
 30
0.0
 10
691.172783
 20
17.432264
 30
0.0
 10
691.350205
 20
17.091440
 30
0.0
  0
SPLINE
  5
156
100
AcDbEntity
  8
Layer_1
 62
1
100
AcDbSpline
 70
8
 71
3
 72
8
 73
4
 74
0
 40
0
 40
0
 40
0
 40
0
 40
1
 40
1
 40
1
 40
1
 10
691.350205
 20
17.091440
 30
0.0
 10
691.527627
 20
16.750615
 30
0.0
 10
691.482271
 20
16.336474
 30
0.0
 10
691.235287
 20
16.042130
 30
0.0
  0
SPLINE
  5
157
100
AcDbEntity
  8
Layer_1
 62
1
100
AcDbSpline
 70
8
 71
3
 72
8
 73
4
 74
0
 40
0
 40
0
 40
0
 40
0
 40
1
 40
1
 40
1
 40
1
 10
691.235287
 20
16.042130
 30
0.0
 10
690.988303
 20
15.747786
 30
0.0
 10
690.588329
 20
15.631204
 30
0.0
 10
690.221874
 20
15.746747
 30
0.0
  0
SPLINE
  5
158
100
AcDbEntity
  8
Layer_1
 62
1
100
AcDbSpline
 70
8
 71
3
 72
8
 73
4
 74
0
 40
0
 40
0
 40
0
 40
0
 40
1
 40
1
 40
1
 40
1
 10
690.221874
 20
15.746747
 30
0.0
 10
689.855418
 20
15.862290
 30
0.0
 10
689.594648
 20
16.187203
 30
0.0
 10
689.561159
 20
16.569981
 30
0.0
  0
SPLINE
  5
159
100
AcDbEntity
  8
Layer_1
 62
1
100
AcDbSpline
 70
8
 71
3
 72
8
 73
4
 74
0
 40
0
 40
0
 40
0
 40
0
 40
1
 40
1
 40
1
 40
1
 10
689.561159
 20
16.569981
 30
0.0
 10
689.515431
 20
17.092655
 30
0.0
 10
689.902072
 20
17.553436
 30
0.0
 10
690.424747
 20
17.599164
 30
0.0
  0
LINE
  5
15a
100
AcDbEntity
  8
Layer_1
 62
1
100
AcDbLine
 10
690.424747
 20
17.599164
 30
0.0
 11
690.424747
 21
17.599164
 31
0.0
  0
SPLINE
  5
15b
100
AcDbEntity
  8
Layer_1
 62
1
100
AcDbSpline
 70
8
 71
3
 72
8
 73
4
 74
0
 40
0
 40
0
 40
0
 40
0
 40
1
 40
1
 40
1
 40
1
 10
561.955640
 20
14.915061
 30
0.0
 10
562.338417
 20
14.948549
 30
0.0
 10
562.703677
 20
14.748161
 30
0.0
 10
562.881099
 20
14.407337
 30
0.0
  0
SPLINE
  5
15c
100
AcDbEntity
  8
Layer_1
 62
1
100
AcDbSpline
 70
8
 71
3
 72
8
 73
4
 74
0
 40
0
 40
0
 40
0
 40
0
 40
1
 40
1
 40
1
 40
1
 10
562.881099
 20
14.407337
 30
0.0
 10
563.058521
 20
14.066512
 30
0.0
 10
563.013165
 20
13.652371
 30
0.0
 10
562.766181
 20
13.358027
 30
0.0
  0
SPLINE
  5
15d
100
AcDbEntity
  8
Layer_1
 62
1
100
AcDbSpline
 70
8
 71
3
 72
8
 73
4
 74
0
 40
0
 40
0
 40
0
 40
0
 40
1
 40
1
 40
1
 40
1
 10
562.766181
 20
13.358027
 30
0.0
 10
562.519196
 20
13.063683
 30
0.0
 10
562.119223
 20
12.947101
 30
0.0
 10
561.752768
 20
13.062644
 30
0.0
  0
SPLINE
  5
15e
100
AcDbEntity
  8
Layer_1
 62
1
100
AcDbSpline
 70
8
 71
3
 72
8
 73
4
 74
0
 40
0
 40
0
 40
0
 40
0
 40
1
 40
1
 40
1
 40
1
 10
561.752768
 20
13.062644
 30
0.0
 10
561.386312
 20
13.178187
 30
0.0
 10
561.125542
 20
13.503101
 30
0.0
 10
561.092053
 20
13.885878
 30
0.0
  0
SPLINE
  5
15f
100
AcDbEntity
  8
Layer_1
 62
1
100
AcDbSpline
 70
8
 71
3
 72
8
 73
4
 74
0
 40
0
 40
0
 40
0
 40
0
 40
1
 40
1
 40
1
 40
1
 10
561.092053
 20
13.885878
 30
0.0
 10
561.070094
 20
14.136875
 30
0.0
 10
561.148742
 20
14.386315
 30
0.0
 10
561.310696
 20
14.579324
 30
0.0
  0
SPLINE
  5
160
100
AcDbEntity
  8
Layer_1
 62
1
100
AcDbSpline
 70
8
 71
3
 72
8
 73
4
 74
0
 40
0
 40
0
 40
0
 40
0
 40
1
 40
1
 40
1
 40
1
 10
561.310696
 20
14.579324
 30
0.0
 10
561.472650
 20
14.772333
 30
0.0
 10
561.704643
 20
14.893101
 30
0.0
 10
561.955640
 20
14.915061
 30
0.0
  0
LINE
  5
161
100
AcDbEntity
  8
Layer_1
 62
1
100
AcDbLine
 10
561.955640
 20
14.915061
 30
0.0
 11
561.955640
 21
14.915061
 31
0.0
  0
SPLINE
  5
162
100
AcDbEntity
  8
Layer_1
 62
1
100
AcDbSpline
 70
8
 71
3
 72
8
 73
4
 74
0
 40
0
 40
0
 40
0
 40
0
 40
1
 40
1
 40
1
 40
1
 10
570.438991
 20
-82.050157
 30
0.0
 10
570.821768
 20
-82.016669
 30
0.0
 10
571.187027
 20
-82.217057
 30
0.0
 10
571.364449
 20
-82.557881
 30
0.0
  0
SPLINE
  5
163
100
AcDbEntity
  8
Layer_1
 62
1
100
AcDbSpline
 70
8
 71
3
 72
8
 73
4
 74
0
 40
0
 40
0
 40
0
 40
0
 40
1
 40
1
 40
1
 40
1
 10
571.364449
 20
-82.557881
 30
0.0
 10
571.541871
 20
-82.898706
 30
0.0
 10
571.496515
 20
-83.312847
 30
0.0
 10
571.249531
 20
-83.607191
 30
0.0
  0
SPLINE
  5
164
100
AcDbEntity
  8
Layer_1
 62
1
100
AcDbSpline
 70
8
 71
3
 72
8
 73
4
 74
0
 40
0
 40
0
 40
0
 40
0
 40
1
 40
1
 40
1
 40
1
 10
571.249531
 20
-83.607191
 30
0.0
 10
571.002547
 20
-83.901535
 30
0.0
 10
570.602574
 20
-84.018117
 30
0.0
 10
570.236118
 20
-83.902574
 30
0.0
  0
SPLINE
  5
165
100
AcDbEntity
  8
Layer_1
 62
1
100
AcDbSpline
 70
8
 71
3
 72
8
 73
4
 74
0
 40
0
 40
0
 40
0
 40
0
 40
1
 40
1
 40
1
 40
1
 10
570.236118
 20
-83.902574
 30
0.0
 10
569.869663
 20
-83.787031
 30
0.0
 10
569.608892
 20
-83.462118
 30
0.0
 10
569.575404
 20
-83.079340
 30
0.0
  0
SPLINE
  5
166
100
AcDbEntity
  8
Layer_1
 62
1
100
AcDbSpline
 70
8
 71
3
 72
8
 73
4
 74
0
 40
0
 40
0
 40
0
 40
0
 40
1
 40
1
 40
1
 40
1
 10
569.575404
 20
-83.079340
 30
0.0
 10
569.553444
 20
-82.828343
 30
0.0
 10
569.632092
 20
-82.578903
 30
0.0
 10
569.794046
 20
-82.385894
 30
0.0
  0
SPLINE
  5
167
100
AcDbEntity
  8
Layer_1
 62
1
100
AcDbSpline
 70
8
 71
3
 72
8
 73
4
 74
0
 40
0
 40
0
 40
0
 40
0
 40
1
 40
1
 40
1
 40
1
 10
569.794046
 20
-82.385894
 30
0.0
 10
569.956000
 20
-82.192885
 30
0.0
 10
570.187994
 20
-82.072117
 30
0.0
 10
570.438991
 20
-82.050157
 30
0.0
  0
LINE
  5
168
100
AcDbEntity
  8
Layer_1
 62
1
100
AcDbLine
 10
570.438991
 20
-82.050157
 30
0.0
 11
570.438991
 21
-82.050157
 31
0.0
  0
SPLINE
  5
169
100
AcDbEntity
  8
Layer_1
 62
1
100
AcDbSpline
 70
8
 71
3
 72
8
 73
4
 74
0
 40
0
 40
0
 40
0
 40
0
 40
1
 40
1
 40
1
 40
1
 10
565.739713
 20
-28.337126
 30
0.0
 10
566.122490
 20
-28.303637
 30
0.0
 10
566.487750
 20
-28.504026
 30
0.0
 10
566.665172
 20
-28.844850
 30
0.0
  0
SPLINE
  5
16a
100
AcDbEntity
  8
Layer_1
 62
1
100
AcDbSpline
 70
8
 71
3
 72
8
 73
4
 74
0
 40
0
 40
0
 40
0
 40
0
 40
1
 40
1
 40
1
 40
1
 10
566.665172
 20
-28.844850
 30
0.0
 10
566.842594
 20
-29.185674
 30
0.0
 10
566.797238
 20
-29.599815
 30
0.0
 10
566.550254
 20
-29.894160
 30
0.0
  0
SPLINE
  5
16b
100
AcDbEntity
  8
Layer_1
 62
1
100
AcDbSpline
 70
8
 71
3
 72
8
 73
4
 74
0
 40
0
 40
0
 40
0
 40
0
 40
1
 40
1
 40
1
 40
1
 10
566.550254
 20
-29.894160
 30
0.0
 10
566.303269
 20
-30.188504
 30
0.0
 10
565.903296
 20
-30.305086
 30
0.0
 10
565.536841
 20
-30.189543
 30
0.0
  0
SPLINE
  5
16c
100
AcDbEntity
  8
Layer_1
 62
1
100
AcDbSpline
 70
8
 71
3
 72
8
 73
4
 74
0
 40
0
 40
0
 40
0
 40
0
 40
1
 40
1
 40
1
 40
1
 10
565.536841
 20
-30.189543
 30
0.0
 10
565.170385
 20
-30.074000
 30
0.0
 10
564.909615
 20
-29.749086
 30
0.0
 10
564.876126
 20
-29.366309
 30
0.0
  0
SPLINE
  5
16d
100
AcDbEntity
  8
Layer_1
 62
1
100
AcDbSpline
 70
8
 71
3
 72
8
 73
4
 74
0
 40
0
 40
0
 40
0
 40
0
 40
1
 40
1
 40
1
 40
1
 10
564.876126
 20
-29.366309
 30
0.0
 10
564.854167
 20
-29.115312
 30
0.0
 10
564.932815
 20
-28.865872
 30
0.0
 10
565.094769
 20
-28.672863
 30
0.0
  0
SPLINE
  5
16e
100
AcDbEntity
  8
Layer_1
 62
1
100
AcDbSpline
 70
8
 71
3
 72
8
 73
4
 74
0
 40
0
 40
0
 40
0
 40
0
 40
1
 40
1
 40
1
 40
1
 10
565.094769
 20
-28.672863
 30
0.0
 10
565.256723
 20
-28.479854
 30
0.0
 10
565.488716
 20
-28.359085
 30
0.0
 10
565.739713
 20
-28.337126
 30
0.0
  0
LINE
  5
16f
100
AcDbEntity
  8
Layer_1
 62
1
100
AcDbLine
 10
565.739713
 20
-28.337126
 30
0.0
 11
565.739713
 21
-28.337126
 31
0.0
  0
SPLINE
  5
170
100
AcDbEntity
  8
Layer_1
 62
1
100
AcDbSpline
 70
8
 71
3
 72
8
 73
4
 74
0
 40
0
 40
0
 40
0
 40
0
 40
1
 40
1
 40
1
 40
1
 10
512.795175
 20
-82.326418
 30
0.0
 10
512.410936
 20
-82.326418
 30
0.0
 10
512.064532
 20
-82.557878
 30
0.0
 10
511.917490
 20
-82.912868
 30
0.0
  0
SPLINE
  5
171
100
AcDbEntity
  8
Layer_1
 62
1
100
AcDbSpline
 70
8
 71
3
 72
8
 73
4
 74
0
 40
0
 40
0
 40
0
 40
0
 40
1
 40
1
 40
1
 40
1
 10
511.917490
 20
-82.912868
 30
0.0
 10
511.770448
 20
-83.267859
 30
0.0
 10
511.851726
 20
-83.676471
 30
0.0
 10
512.123424
 20
-83.948169
 30
0.0
  0
SPLINE
  5
172
100
AcDbEntity
  8
Layer_1
 62
1
100
AcDbSpline
 70
8
 71
3
 72
8
 73
4
 74
0
 40
0
 40
0
 40
0
 40
0
 40
1
 40
1
 40
1
 40
1
 10
512.123424
 20
-83.948169
 30
0.0
 10
512.395122
 20
-84.219867
 30
0.0
 10
512.803734
 20
-84.301145
 30
0.0
 10
513.158724
 20
-84.154103
 30
0.0
  0
SPLINE
  5
173
100
AcDbEntity
  8
Layer_1
 62
1
100
AcDbSpline
 70
8
 71
3
 72
8
 73
4
 74
0
 40
0
 40
0
 40
0
 40
0
 40
1
 40
1
 40
1
 40
1
 10
513.158724
 20
-84.154103
 30
0.0
 10
513.513715
 20
-84.007061
 30
0.0
 10
513.745175
 20
-83.660657
 30
0.0
 10
513.745175
 20
-83.276418
 30
0.0
  0
SPLINE
  5
174
100
AcDbEntity
  8
Layer_1
 62
1
100
AcDbSpline
 70
8
 71
3
 72
8
 73
4
 74
0
 40
0
 40
0
 40
0
 40
0
 40
1
 40
1
 40
1
 40
1
 10
513.745175
 20
-83.276418
 30
0.0
 10
513.745175
 20
-83.024462
 30
0.0
 10
513.645086
 20
-82.782826
 30
0.0
 10
513.466927
 20
-82.604666
 30
0.0
  0
SPLINE
  5
175
100
AcDbEntity
  8
Layer_1
 62
1
100
AcDbSpline
 70
8
 71
3
 72
8
 73
4
 74
0
 40
0
 40
0
 40
0
 40
0
 40
1
 40
1
 40
1
 40
1
 10
513.466927
 20
-82.604666
 30
0.0
 10
513.288767
 20
-82.426507
 30
0.0
 10
513.047131
 20
-82.326418
 30
0.0
 10
512.795175
 20
-82.326418
 30
0.0
  0
LINE
  5
176
100
AcDbEntity
  8
Layer_1
 62
1
100
AcDbLine
 10
512.795175
 20
-82.326418
 30
0.0
 11
512.795175
 21
-82.326418
 31
0.0
  0
SPLINE
  5
177
100
AcDbEntity
  8
Layer_1
 62
1
100
AcDbSpline
 70
8
 71
3
 72
8
 73
4
 74
0
 40
0
 40
0
 40
0
 40
0
 40
1
 40
1
 40
1
 40
1
 10
552.147775
 20
-82.326418
 30
0.0
 10
551.763536
 20
-82.326418
 30
0.0
 10
551.417132
 20
-82.557878
 30
0.0
 10
551.270090
 20
-82.912868
 30
0.0
  0
SPLINE
  5
178
100
AcDbEntity
  8
Layer_1
 62
1
100
AcDbSpline
 70
8
 71
3
 72
8
 73
4
 74
0
 40
0
 40
0
 40
0
 40
0
 40
1
 40
1
 40
1
 40
1
 10
551.270090
 20
-82.912868
 30
0.0
 10
551.123048
 20
-83.267859
 30
0.0
 10
551.204326
 20
-83.676471
 30
0.0
 10
551.476024
 20
-83.948169
 30
0.0
  0
SPLINE
  5
179
100
AcDbEntity
  8
Layer_1
 62
1
100
AcDbSpline
 70
8
 71
3
 72
8
 73
4
 74
0
 40
0
 40
0
 40
0
 40
0
 40
1
 40
1
 40
1
 40
1
 10
551.476024
 20
-83.948169
 30
0.0
 10
551.747722
 20
-84.219867
 30
0.0
 10
552.156334
 20
-84.301145
 30
0.0
 10
552.511324
 20
-84.154103
 30
0.0
  0
SPLINE
  5
17a
100
AcDbEntity
  8
Layer_1
 62
1
100
AcDbSpline
 70
8
 71
3
 72
8
 73
4
 74
0
 40
0
 40
0
 40
0
 40
0
 40
1
 40
1
 40
1
 40
1
 10
552.511324
 20
-84.154103
 30
0.0
 10
552.866315
 20
-84.007061
 30
0.0
 10
553.097775
 20
-83.660657
 30
0.0
 10
553.097775
 20
-83.276418
 30
0.0
  0
SPLINE
  5
17b
100
AcDbEntity
  8
Layer_1
 62
1
100
AcDbSpline
 70
8
 71
3
 72
8
 73
4
 74
0
 40
0
 40
0
 40
0
 40
0
 40
1
 40
1
 40
1
 40
1
 10
553.097775
 20
-83.276418
 30
0.0
 10
553.097775
 20
-83.024462
 30
0.0
 10
552.997686
 20
-82.782826
 30
0.0
 10
552.819527
 20
-82.604666
 30
0.0
  0
SPLINE
  5
17c
100
AcDbEntity
  8
Layer_1
 62
1
100
AcDbSpline
 70
8
 71
3
 72
8
 73
4
 74
0
 40
0
 40
0
 40
0
 40
0
 40
1
 40
1
 40
1
 40
1
 10
552.819527
 20
-82.604666
 30
0.0
 10
552.641367
 20
-82.426507
 30
0.0
 10
552.399731
 20
-82.326418
 30
0.0
 10
552.147775
 20
-82.326418
 30
0.0
  0
LINE
  5
17d
100
AcDbEntity
  8
Layer_1
 62
1
100
AcDbLine
 10
552.147775
 20
-82.326418
 30
0.0
 11
552.147775
 21
-82.326418
 31
0.0
  0
SPLINE
  5
17e
100
AcDbEntity
  8
Layer_1
 62
1
100
AcDbSpline
 70
8
 71
3
 72
8
 73
4
 74
0
 40
0
 40
0
 40
0
 40
0
 40
1
 40
1
 40
1
 40
1
 10
512.795175
 20
9.975192
 30
0.0
 10
512.410936
 20
9.975192
 30
0.0
 10
512.064532
 20
9.743732
 30
0.0
 10
511.917490
 20
9.388742
 30
0.0
  0
SPLINE
  5
17f
100
AcDbEntity
  8
Layer_1
 62
1
100
AcDbSpline
 70
8
 71
3
 72
8
 73
4
 74
0
 40
0
 40
0
 40
0
 40
0
 40
1
 40
1
 40
1
 40
1
 10
511.917490
 20
9.388742
 30
0.0
 10
511.770448
 20
9.033751
 30
0.0
 10
511.851726
 20
8.625139
 30
0.0
 10
512.123424
 20
8.353441
 30
0.0
  0
SPLINE
  5
180
100
AcDbEntity
  8
Layer_1
 62
1
100
AcDbSpline
 70
8
 71
3
 72
8
 73
4
 74
0
 40
0
 40
0
 40
0
 40
0
 40
1
 40
1
 40
1
 40
1
 10
512.123424
 20
8.353441
 30
0.0
 10
512.395122
 20
8.081743
 30
0.0
 10
512.803734
 20
8.000465
 30
0.0
 10
513.158724
 20
8.147507
 30
0.0
  0
SPLINE
  5
181
100
AcDbEntity
  8
Layer_1
 62
1
100
AcDbSpline
 70
8
 71
3
 72
8
 73
4
 74
0
 40
0
 40
0
 40
0
 40
0
 40
1
 40
1
 40
1
 40
1
 10
513.158724
 20
8.147507
 30
0.0
 10
513.513715
 20
8.294549
 30
0.0
 10
513.745175
 20
8.640953
 30
0.0
 10
513.745175
 20
9.025192
 30
0.0
  0
SPLINE
  5
182
100
AcDbEntity
  8
Layer_1
 62
1
100
AcDbSpline
 70
8
 71
3
 72
8
 73
4
 74
0
 40
0
 40
0
 40
0
 40
0
 40
1
 40
1
 40
1
 40
1
 10
513.745175
 20
9.025192
 30
0.0
 10
513.745175
 20
9.277148
 30
0.0
 10
513.645086
 20
9.518784
 30
0.0
 10
513.466927
 20
9.696944
 30
0.0
  0
SPLINE
  5
183
100
AcDbEntity
  8
Layer_1
 62
1
100
AcDbSpline
 70
8
 71
3
 72
8
 73
4
 74
0
 40
0
 40
0
 40
0
 40
0
 40
1
 40
1
 40
1
 40
1
 10
513.466927
 20
9.696944
 30
0.0
 10
513.288767
 20
9.875103
 30
0.0
 10
513.047131
 20
9.975192
 30
0.0
 10
512.795175
 20
9.975192
 30
0.0
  0
LINE
  5
184
100
AcDbEntity
  8
Layer_1
 62
1
100
AcDbLine
 10
512.795175
 20
9.975192
 30
0.0
 11
512.795175
 21
9.975192
 31
0.0
  0
SPLINE
  5
185
100
AcDbEntity
  8
Layer_1
 62
1
100
AcDbSpline
 70
8
 71
3
 72
8
 73
4
 74
0
 40
0
 40
0
 40
0
 40
0
 40
1
 40
1
 40
1
 40
1
 10
552.147775
 20
9.975192
 30
0.0
 10
551.763536
 20
9.975192
 30
0.0
 10
551.417132
 20
9.743732
 30
0.0
 10
551.270090
 20
9.388742
 30
0.0
  0
SPLINE
  5
186
100
AcDbEntity
  8
Layer_1
 62
1
100
AcDbSpline
 70
8
 71
3
 72
8
 73
4
 74
0
 40
0
 40
0
 40
0
 40
0
 40
1
 40
1
 40
1
 40
1
 10
551.270090
 20
9.388742
 30
0.0
 10
551.123048
 20
9.033751
 30
0.0
 10
551.204326
 20
8.625139
 30
0.0
 10
551.476024
 20
8.353441
 30
0.0
  0
SPLINE
  5
187
100
AcDbEntity
  8
Layer_1
 62
1
100
AcDbSpline
 70
8
 71
3
 72
8
 73
4
 74
0
 40
0
 40
0
 40
0
 40
0
 40
1
 40
1
 40
1
 40
1
 10
551.476024
 20
8.353441
 30
0.0
 10
551.747722
 20
8.081743
 30
0.0
 10
552.156334
 20
8.000465
 30
0.0
 10
552.511324
 20
8.147507
 30
0.0
  0
SPLINE
  5
188
100
AcDbEntity
  8
Layer_1
 62
1
100
AcDbSpline
 70
8
 71
3
 72
8
 73
4
 74
0
 40
0
 40
0
 40
0
 40
0
 40
1
 40
1
 40
1
 40
1
 10
552.511324
 20
8.147507
 30
0.0
 10
552.866315
 20
8.294549
 30
0.0
 10
553.097775
 20
8.640953
 30
0.0
 10
553.097775
 20
9.025192
 30
0.0
  0
SPLINE
  5
189
100
AcDbEntity
  8
Layer_1
 62
1
100
AcDbSpline
 70
8
 71
3
 72
8
 73
4
 74
0
 40
0
 40
0
 40
0
 40
0
 40
1
 40
1
 40
1
 40
1
 10
553.097775
 20
9.025192
 30
0.0
 10
553.097775
 20
9.277148
 30
0.0
 10
552.997686
 20
9.518784
 30
0.0
 10
552.819527
 20
9.696944
 30
0.0
  0
SPLINE
  5
18a
100
AcDbEntity
  8
Layer_1
 62
1
100
AcDbSpline
 70
8
 71
3
 72
8
 73
4
 74
0
 40
0
 40
0
 40
0
 40
0
 40
1
 40
1
 40
1
 40
1
 10
552.819527
 20
9.696944
 30
0.0
 10
552.641367
 20
9.875103
 30
0.0
 10
552.399731
 20
9.975192
 30
0.0
 10
552.147775
 20
9.975192
 30
0.0
  0
LINE
  5
18b
100
AcDbEntity
  8
Layer_1
 62
1
100
AcDbLine
 10
552.147775
 20
9.975192
 30
0.0
 11
552.147775
 21
9.975192
 31
0.0
  0
SPLINE
  5
18c
100
AcDbEntity
  8
Layer_1
 62
1
100
AcDbSpline
 70
8
 71
3
 72
8
 73
4
 74
0
 40
0
 40
0
 40
0
 40
0
 40
1
 40
1
 40
1
 40
1
 10
552.147695
 20
-33.695568
 30
0.0
 10
551.622965
 20
-33.695668
 30
0.0
 10
551.197705
 20
-34.121168
 30
0.0
 10
551.197885
 20
-34.645898
 30
0.0
  0
LINE
  5
18d
100
AcDbEntity
  8
Layer_1
 62
1
100
AcDbLine
 10
551.197885
 20
-34.645898
 30
0.0
 11
551.197885
 21
-35.704228
 31
0.0
  0
SPLINE
  5
18e
100
AcDbEntity
  8
Layer_1
 62
1
100
AcDbSpline
 70
8
 71
3
 72
8
 73
4
 74
0
 40
0
 40
0
 40
0
 40
0
 40
1
 40
1
 40
1
 40
1
 10
551.197885
 20
-35.704228
 30
0.0
 10
551.197985
 20
-36.228748
 30
0.0
 10
551.623175
 20
-36.653938
 30
0.0
 10
552.147695
 20
-36.654038
 30
0.0
  0
SPLINE
  5
18f
100
AcDbEntity
  8
Layer_1
 62
1
100
AcDbSpline
 70
8
 71
3
 72
8
 73
4
 74
0
 40
0
 40
0
 40
0
 40
0
 40
1
 40
1
 40
1
 40
1
 10
552.147695
 20
-36.654038
 30
0.0
 10
552.672425
 20
-36.654218
 30
0.0
 10
553.097925
 20
-36.228958
 30
0.0
 10
553.098025
 20
-35.704228
 30
0.0
  0
LINE
  5
190
100
AcDbEntity
  8
Layer_1
 62
1
100
AcDbLine
 10
553.098025
 20
-35.704228
 30
0.0
 11
553.098025
 21
-34.645898
 31
0.0
  0
SPLINE
  5
191
100
AcDbEntity
  8
Layer_1
 62
1
100
AcDbSpline
 70
8
 71
3
 72
8
 73
4
 74
0
 40
0
 40
0
 40
0
 40
0
 40
1
 40
1
 40
1
 40
1
 10
553.098025
 20
-34.645898
 30
0.0
 10
553.098205
 20
-34.120968
 30
0.0
 10
552.672625
 20
-33.695388
 30
0.0
 10
552.147695
 20
-33.695568
 30
0.0
  0
LINE
  5
192
100
AcDbEntity
  8
Layer_1
 62
1
100
AcDbLine
 10
552.147695
 20
-33.695568
 30
0.0
 11
552.147695
 21
-33.695568
 31
0.0
  0
SPLINE
  5
193
100
AcDbEntity
  8
Layer_1
 62
1
100
AcDbSpline
 70
8
 71
3
 72
8
 73
4
 74
0
 40
0
 40
0
 40
0
 40
0
 40
1
 40
1
 40
1
 40
1
 10
512.795065
 20
-37.597138
 30
0.0
 10
512.270335
 20
-37.597238
 30
0.0
 10
511.845065
 20
-38.022738
 30
0.0
 10
511.845245
 20
-38.547468
 30
0.0
  0
LINE
  5
194
100
AcDbEntity
  8
Layer_1
 62
1
100
AcDbLine
 10
511.845245
 20
-38.547468
 30
0.0
 11
511.845245
 21
-39.605798
 31
0.0
  0
SPLINE
  5
195
100
AcDbEntity
  8
Layer_1
 62
1
100
AcDbSpline
 70
8
 71
3
 72
8
 73
4
 74
0
 40
0
 40
0
 40
0
 40
0
 40
1
 40
1
 40
1
 40
1
 10
511.845245
 20
-39.605798
 30
0.0
 10
511.845345
 20
-40.130328
 30
0.0
 10
512.270535
 20
-40.555508
 30
0.0
 10
512.795065
 20
-40.555608
 30
0.0
  0
SPLINE
  5
196
100
AcDbEntity
  8
Layer_1
 62
1
100
AcDbSpline
 70
8
 71
3
 72
8
 73
4
 74
0
 40
0
 40
0
 40
0
 40
0
 40
1
 40
1
 40
1
 40
1
 10
512.795065
 20
-40.555608
 30
0.0
 10
513.319795
 20
-40.555788
 30
0.0
 10
513.745295
 20
-40.130528
 30
0.0
 10
513.745395
 20
-39.605798
 30
0.0
  0
LINE
  5
197
100
AcDbEntity
  8
Layer_1
 62
1
100
AcDbLine
 10
513.745395
 20
-39.605798
 30
0.0
 11
513.745395
 21
-38.547468
 31
0.0
  0
SPLINE
  5
198
100
AcDbEntity
  8
Layer_1
 62
1
100
AcDbSpline
 70
8
 71
3
 72
8
 73
4
 74
0
 40
0
 40
0
 40
0
 40
0
 40
1
 40
1
 40
1
 40
1
 10
513.745395
 20
-38.547468
 30
0.0
 10
513.745575
 20
-38.022538
 30
0.0
 10
513.319995
 20
-37.596958
 30
0.0
 10
512.795065
 20
-37.597138
 30
0.0
  0
LINE
  5
199
100
AcDbEntity
  8
Layer_1
 62
1
100
AcDbLine
 10
512.795065
 20
-37.597138
 30
0.0
 11
512.795065
 21
-37.597138
 31
0.0
  0
SPLINE
  5
19a
100
AcDbEntity
  8
Layer_1
 62
1
100
AcDbSpline
 70
8
 71
3
 72
8
 73
4
 74
0
 40
0
 40
0
 40
0
 40
0
 40
1
 40
1
 40
1
 40
1
 10
577.357383
 20
11.125392
 30
0.0
 10
576.726808
 20
11.070224
 30
0.0
 10
576.191556
 20
10.640639
 30
0.0
 10
576.001215
 20
10.036952
 30
0.0
  0
SPLINE
  5
19b
100
AcDbEntity
  8
Layer_1
 62
1
100
AcDbSpline
 70
8
 71
3
 72
8
 73
4
 74
0
 40
0
 40
0
 40
0
 40
0
 40
1
 40
1
 40
1
 40
1
 10
576.001215
 20
10.036952
 30
0.0
 10
575.810873
 20
9.433265
 30
0.0
 10
576.002926
 20
8.774362
 30
0.0
 10
576.487819
 20
8.367488
 30
0.0
  0
SPLINE
  5
19c
100
AcDbEntity
  8
Layer_1
 62
1
100
AcDbSpline
 70
8
 71
3
 72
8
 73
4
 74
0
 40
0
 40
0
 40
0
 40
0
 40
1
 40
1
 40
1
 40
1
 10
576.487819
 20
8.367488
 30
0.0
 10
576.972712
 20
7.960614
 30
0.0
 10
577.654955
 20
7.885896
 30
0.0
 10
578.216418
 20
8.178176
 30
0.0
  0
SPLINE
  5
19d
100
AcDbEntity
  8
Layer_1
 62
1
100
AcDbSpline
 70
8
 71
3
 72
8
 73
4
 74
0
 40
0
 40
0
 40
0
 40
0
 40
1
 40
1
 40
1
 40
1
 10
578.216418
 20
8.178176
 30
0.0
 10
578.777881
 20
8.470455
 30
0.0
 10
579.107995
 20
9.072172
 30
0.0
 10
579.052826
 20
9.702746
 30
0.0
  0
SPLINE
  5
19e
100
AcDbEntity
  8
Layer_1
 62
1
100
AcDbSpline
 70
8
 71
3
 72
8
 73
4
 74
0
 40
0
 40
0
 40
0
 40
0
 40
1
 40
1
 40
1
 40
1
 10
579.052826
 20
9.702746
 30
0.0
 10
578.977496
 20
10.563783
 30
0.0
 10
578.218420
 20
11.200723
 30
0.0
 10
577.357383
 20
11.125392
 30
0.0
  0
LINE
  5
19f
100
AcDbEntity
  8
Layer_1
 62
1
100
AcDbLine
 10
577.357383
 20
11.125392
 30
0.0
 11
577.357383
 21
11.125392
 31
0.0
  0
SPLINE
  5
1a0
100
AcDbEntity
  8
Layer_1
 62
1
100
AcDbSpline
 70
8
 71
3
 72
8
 73
4
 74
0
 40
0
 40
0
 40
0
 40
0
 40
1
 40
1
 40
1
 40
1
 10
674.260359
 20
19.603304
 30
0.0
 10
673.629785
 20
19.548136
 30
0.0
 10
673.094533
 20
19.118551
 30
0.0
 10
672.904191
 20
18.514864
 30
0.0
  0
SPLINE
  5
1a1
100
AcDbEntity
  8
Layer_1
 62
1
100
AcDbSpline
 70
8
 71
3
 72
8
 73
4
 74
0
 40
0
 40
0
 40
0
 40
0
 40
1
 40
1
 40
1
 40
1
 10
672.904191
 20
18.514864
 30
0.0
 10
672.713849
 20
17.911177
 30
0.0
 10
672.905902
 20
17.252274
 30
0.0
 10
673.390795
 20
16.845400
 30
0.0
  0
SPLINE
  5
1a2
100
AcDbEntity
  8
Layer_1
 62
1
100
AcDbSpline
 70
8
 71
3
 72
8
 73
4
 74
0
 40
0
 40
0
 40
0
 40
0
 40
1
 40
1
 40
1
 40
1
 10
673.390795
 20
16.845400
 30
0.0
 10
673.875689
 20
16.438526
 30
0.0
 10
674.557931
 20
16.363808
 30
0.0
 10
675.119395
 20
16.656087
 30
0.0
  0
SPLINE
  5
1a3
100
AcDbEntity
  8
Layer_1
 62
1
100
AcDbSpline
 70
8
 71
3
 72
8
 73
4
 74
0
 40
0
 40
0
 40
0
 40
0
 40
1
 40
1
 40
1
 40
1
 10
675.119395
 20
16.656087
 30
0.0
 10
675.680858
 20
16.948367
 30
0.0
 10
676.010971
 20
17.550084
 30
0.0
 10
675.955803
 20
18.180658
 30
0.0
  0
SPLINE
  5
1a4
100
AcDbEntity
  8
Layer_1
 62
1
100
AcDbSpline
 70
8
 71
3
 72
8
 73
4
 74
0
 40
0
 40
0
 40
0
 40
0
 40
1
 40
1
 40
1
 40
1
 10
675.955803
 20
18.180658
 30
0.0
 10
675.919628
 20
18.594143
 30
0.0
 10
675.720678
 20
18.976321
 30
0.0
 10
675.402721
 20
19.243119
 30
0.0
  0
SPLINE
  5
1a5
100
AcDbEntity
  8
Layer_1
 62
1
100
AcDbSpline
 70
8
 71
3
 72
8
 73
4
 74
0
 40
0
 40
0
 40
0
 40
0
 40
1
 40
1
 40
1
 40
1
 10
675.402721
 20
19.243119
 30
0.0
 10
675.084763
 20
19.509917
 30
0.0
 10
674.673844
 20
19.639480
 30
0.0
 10
674.260359
 20
19.603304
 30
0.0
  0
LINE
  5
1a6
100
AcDbEntity
  8
Layer_1
 62
1
100
AcDbLine
 10
674.260359
 20
19.603304
 30
0.0
 11
674.260359
 21
19.603304
 31
0.0
  0
SPLINE
  5
1a7
100
AcDbEntity
  8
Layer_1
 62
1
100
AcDbSpline
 70
8
 71
3
 72
8
 73
4
 74
0
 40
0
 40
0
 40
0
 40
0
 40
1
 40
1
 40
1
 40
1
 10
487.943218
 20
11.208925
 30
0.0
 10
487.312643
 20
11.264093
 30
0.0
 10
486.710926
 20
10.933980
 30
0.0
 10
486.418647
 20
10.372517
 30
0.0
  0
SPLINE
  5
1a8
100
AcDbEntity
  8
Layer_1
 62
1
100
AcDbSpline
 70
8
 71
3
 72
8
 73
4
 74
0
 40
0
 40
0
 40
0
 40
0
 40
1
 40
1
 40
1
 40
1
 10
486.418647
 20
10.372517
 30
0.0
 10
486.126368
 20
9.811054
 30
0.0
 10
486.201086
 20
9.128811
 30
0.0
 10
486.607959
 20
8.643918
 30
0.0
  0
SPLINE
  5
1a9
100
AcDbEntity
  8
Layer_1
 62
1
100
AcDbSpline
 70
8
 71
3
 72
8
 73
4
 74
0
 40
0
 40
0
 40
0
 40
0
 40
1
 40
1
 40
1
 40
1
 10
486.607959
 20
8.643918
 30
0.0
 10
487.014833
 20
8.159024
 30
0.0
 10
487.673737
 20
7.966971
 30
0.0
 10
488.277424
 20
8.157313
 30
0.0
  0
SPLINE
  5
1aa
100
AcDbEntity
  8
Layer_1
 62
1
100
AcDbSpline
 70
8
 71
3
 72
8
 73
4
 74
0
 40
0
 40
0
 40
0
 40
0
 40
1
 40
1
 40
1
 40
1
 10
488.277424
 20
8.157313
 30
0.0
 10
488.881111
 20
8.347655
 30
0.0
 10
489.310696
 20
8.882907
 30
0.0
 10
489.365864
 20
9.513482
 30
0.0
  0
SPLINE
  5
1ab
100
AcDbEntity
  8
Layer_1
 62
1
100
AcDbSpline
 70
8
 71
3
 72
8
 73
4
 74
0
 40
0
 40
0
 40
0
 40
0
 40
1
 40
1
 40
1
 40
1
 10
489.365864
 20
9.513482
 30
0.0
 10
489.402039
 20
9.926966
 30
0.0
 10
489.272477
 20
10.337886
 30
0.0
 10
489.005679
 20
10.655843
 30
0.0
  0
SPLINE
  5
1ac
100
AcDbEntity
  8
Layer_1
 62
1
100
AcDbSpline
 70
8
 71
3
 72
8
 73
4
 74
0
 40
0
 40
0
 40
0
 40
0
 40
1
 40
1
 40
1
 40
1
 10
489.005679
 20
10.655843
 30
0.0
 10
488.738881
 20
10.973800
 30
0.0
 10
488.356702
 20
11.172750
 30
0.0
 10
487.943218
 20
11.208925
 30
0.0
  0
LINE
  5
1ad
100
AcDbEntity
  8
Layer_1
 62
1
100
AcDbLine
 10
487.943218
 20
11.208925
 30
0.0
 11
487.943218
 21
11.208925
 31
0.0
  0
SPLINE
  5
1ae
100
AcDbEntity
  8
Layer_1
 62
1
100
AcDbSpline
 70
8
 71
3
 72
8
 73
4
 74
0
 40
0
 40
0
 40
0
 40
0
 40
1
 40
1
 40
1
 40
1
 10
391.040241
 20
19.686837
 30
0.0
 10
390.409667
 20
19.742005
 30
0.0
 10
389.807950
 20
19.411892
 30
0.0
 10
389.515671
 20
18.850429
 30
0.0
  0
SPLINE
  5
1af
100
AcDbEntity
  8
Layer_1
 62
1
100
AcDbSpline
 70
8
 71
3
 72
8
 73
4
 74
0
 40
0
 40
0
 40
0
 40
0
 40
1
 40
1
 40
1
 40
1
 10
389.515671
 20
18.850429
 30
0.0
 10
389.223391
 20
18.288966
 30
0.0
 10
389.298109
 20
17.606723
 30
0.0
 10
389.704983
 20
17.121830
 30
0.0
  0
SPLINE
  5
1b0
100
AcDbEntity
  8
Layer_1
 62
1
100
AcDbSpline
 70
8
 71
3
 72
8
 73
4
 74
0
 40
0
 40
0
 40
0
 40
0
 40
1
 40
1
 40
1
 40
1
 10
389.704983
 20
17.121830
 30
0.0
 10
390.111857
 20
16.636936
 30
0.0
 10
390.770760
 20
16.444883
 30
0.0
 10
391.374447
 20
16.635225
 30
0.0
  0
SPLINE
  5
1b1
100
AcDbEntity
  8
Layer_1
 62
1
100
AcDbSpline
 70
8
 71
3
 72
8
 73
4
 74
0
 40
0
 40
0
 40
0
 40
0
 40
1
 40
1
 40
1
 40
1
 10
391.374447
 20
16.635225
 30
0.0
 10
391.978134
 20
16.825567
 30
0.0
 10
392.407719
 20
17.360819
 30
0.0
 10
392.462888
 20
17.991394
 30
0.0
  0
SPLINE
  5
1b2
100
AcDbEntity
  8
Layer_1
 62
1
100
AcDbSpline
 70
8
 71
3
 72
8
 73
4
 74
0
 40
0
 40
0
 40
0
 40
0
 40
1
 40
1
 40
1
 40
1
 10
392.462888
 20
17.991394
 30
0.0
 10
392.499063
 20
18.404878
 30
0.0
 10
392.369500
 20
18.815798
 30
0.0
 10
392.102702
 20
19.133755
 30
0.0
  0
SPLINE
  5
1b3
100
AcDbEntity
  8
Layer_1
 62
1
100
AcDbSpline
 70
8
 71
3
 72
8
 73
4
 74
0
 40
0
 40
0
 40
0
 40
0
 40
1
 40
1
 40
1
 40
1
 10
392.102702
 20
19.133755
 30
0.0
 10
391.835904
 20
19.451712
 30
0.0
 10
391.453726
 20
19.650662
 30
0.0
 10
391.040241
 20
19.686837
 30
0.0
  0
LINE
  5
1b4
100
AcDbEntity
  8
Layer_1
 62
1
100
AcDbLine
 10
391.040241
 20
19.686837
 30
0.0
 11
391.040241
 21
19.686837
 31
0.0
  0
SPLINE
  5
1b5
100
AcDbEntity
  8
Layer_1
 62
1
100
AcDbSpline
 70
8
 71
3
 72
8
 73
4
 74
0
 40
0
 40
0
 40
0
 40
0
 40
1
 40
1
 40
1
 40
1
 10
524.233523
 20
9.534601
 30
0.0
 10
523.849284
 20
9.534601
 30
0.0
 10
523.502880
 20
9.303141
 30
0.0
 10
523.355838
 20
8.948150
 30
0.0
  0
SPLINE
  5
1b6
100
AcDbEntity
  8
Layer_1
 62
1
100
AcDbSpline
 70
8
 71
3
 72
8
 73
4
 74
0
 40
0
 40
0
 40
0
 40
0
 40
1
 40
1
 40
1
 40
1
 10
523.355838
 20
8.948150
 30
0.0
 10
523.208796
 20
8.593160
 30
0.0
 10
523.290074
 20
8.184548
 30
0.0
 10
523.561772
 20
7.912850
 30
0.0
  0
SPLINE
  5
1b7
100
AcDbEntity
  8
Layer_1
 62
1
100
AcDbSpline
 70
8
 71
3
 72
8
 73
4
 74
0
 40
0
 40
0
 40
0
 40
0
 40
1
 40
1
 40
1
 40
1
 10
523.561772
 20
7.912850
 30
0.0
 10
523.833470
 20
7.641152
 30
0.0
 10
524.242082
 20
7.559874
 30
0.0
 10
524.597073
 20
7.706916
 30
0.0
  0
SPLINE
  5
1b8
100
AcDbEntity
  8
Layer_1
 62
1
100
AcDbSpline
 70
8
 71
3
 72
8
 73
4
 74
0
 40
0
 40
0
 40
0
 40
0
 40
1
 40
1
 40
1
 40
1
 10
524.597073
 20
7.706916
 30
0.0
 10
524.952063
 20
7.853958
 30
0.0
 10
525.183523
 20
8.200362
 30
0.0
 10
525.183523
 20
8.584601
 30
0.0
  0
SPLINE
  5
1b9
100
AcDbEntity
  8
Layer_1
 62
1
100
AcDbSpline
 70
8
 71
3
 72
8
 73
4
 74
0
 40
0
 40
0
 40
0
 40
0
 40
1
 40
1
 40
1
 40
1
 10
525.183523
 20
8.584601
 30
0.0
 10
525.183523
 20
8.836557
 30
0.0
 10
525.083434
 20
9.078193
 30
0.0
 10
524.905275
 20
9.256353
 30
0.0
  0
SPLINE
  5
1ba
100
AcDbEntity
  8
Layer_1
 62
1
100
AcDbSpline
 70
8
 71
3
 72
8
 73
4
 74
0
 40
0
 40
0
 40
0
 40
0
 40
1
 40
1
 40
1
 40
1
 10
524.905275
 20
9.256353
 30
0.0
 10
524.727115
 20
9.434512
 30
0.0
 10
524.485479
 20
9.534601
 30
0.0
 10
524.233523
 20
9.534601
 30
0.0
  0
LINE
  5
1bb
100
AcDbEntity
  8
Layer_1
 62
1
100
AcDbLine
 10
524.233523
 20
9.534601
 30
0.0
 11
524.233523
 21
9.534601
 31
0.0
  0
SPLINE
  5
1bc
100
AcDbEntity
  8
Layer_1
 62
1
100
AcDbSpline
 70
8
 71
3
 72
8
 73
4
 74
0
 40
0
 40
0
 40
0
 40
0
 40
1
 40
1
 40
1
 40
1
 10
542.010933
 20
9.534601
 30
0.0
 10
541.626694
 20
9.534601
 30
0.0
 10
541.280290
 20
9.303141
 30
0.0
 10
541.133248
 20
8.948150
 30
0.0
  0
SPLINE
  5
1bd
100
AcDbEntity
  8
Layer_1
 62
1
100
AcDbSpline
 70
8
 71
3
 72
8
 73
4
 74
0
 40
0
 40
0
 40
0
 40
0
 40
1
 40
1
 40
1
 40
1
 10
541.133248
 20
8.948150
 30
0.0
 10
540.986206
 20
8.593160
 30
0.0
 10
541.067484
 20
8.184548
 30
0.0
 10
541.339182
 20
7.912850
 30
0.0
  0
SPLINE
  5
1be
100
AcDbEntity
  8
Layer_1
 62
1
100
AcDbSpline
 70
8
 71
3
 72
8
 73
4
 74
0
 40
0
 40
0
 40
0
 40
0
 40
1
 40
1
 40
1
 40
1
 10
541.339182
 20
7.912850
 30
0.0
 10
541.610880
 20
7.641152
 30
0.0
 10
542.019492
 20
7.559874
 30
0.0
 10
542.374483
 20
7.706916
 30
0.0
  0
SPLINE
  5
1bf
100
AcDbEntity
  8
Layer_1
 62
1
100
AcDbSpline
 70
8
 71
3
 72
8
 73
4
 74
0
 40
0
 40
0
 40
0
 40
0
 40
1
 40
1
 40
1
 40
1
 10
542.374483
 20
7.706916
 30
0.0
 10
542.729473
 20
7.853958
 30
0.0
 10
542.960933
 20
8.200362
 30
0.0
 10
542.960933
 20
8.584601
 30
0.0
  0
SPLINE
  5
1c0
100
AcDbEntity
  8
Layer_1
 62
1
100
AcDbSpline
 70
8
 71
3
 72
8
 73
4
 74
0
 40
0
 40
0
 40
0
 40
0
 40
1
 40
1
 40
1
 40
1
 10
542.960933
 20
8.584601
 30
0.0
 10
542.960933
 20
8.836557
 30
0.0
 10
542.860844
 20
9.078193
 30
0.0
 10
542.682685
 20
9.256353
 30
0.0
  0
SPLINE
  5
1c1
100
AcDbEntity
  8
Layer_1
 62
1
100
AcDbSpline
 70
8
 71
3
 72
8
 73
4
 74
0
 40
0
 40
0
 40
0
 40
0
 40
1
 40
1
 40
1
 40
1
 10
542.682685
 20
9.256353
 30
0.0
 10
542.504525
 20
9.434512
 30
0.0
 10
542.262889
 20
9.534601
 30
0.0
 10
542.010933
 20
9.534601
 30
0.0
  0
LINE
  5
1c2
100
AcDbEntity
  8
Layer_1
 62
1
100
AcDbLine
 10
542.010933
 20
9.534601
 30
0.0
 11
542.010933
 21
9.534601
 31
0.0
  0
SPLINE
  5
1c3
100
AcDbEntity
  8
Layer_1
 62
1
100
AcDbSpline
 70
8
 71
3
 72
8
 73
4
 74
0
 40
0
 40
0
 40
0
 40
0
 40
1
 40
1
 40
1
 40
1
 10
524.233523
 20
-36.180449
 30
0.0
 10
523.849284
 20
-36.180449
 30
0.0
 10
523.502880
 20
-36.411909
 30
0.0
 10
523.355838
 20
-36.766900
 30
0.0
  0
SPLINE
  5
1c4
100
AcDbEntity
  8
Layer_1
 62
1
100
AcDbSpline
 70
8
 71
3
 72
8
 73
4
 74
0
 40
0
 40
0
 40
0
 40
0
 40
1
 40
1
 40
1
 40
1
 10
523.355838
 20
-36.766900
 30
0.0
 10
523.208796
 20
-37.121890
 30
0.0
 10
523.290074
 20
-37.530502
 30
0.0
 10
523.561772
 20
-37.802200
 30
0.0
  0
SPLINE
  5
1c5
100
AcDbEntity
  8
Layer_1
 62
1
100
AcDbSpline
 70
8
 71
3
 72
8
 73
4
 74
0
 40
0
 40
0
 40
0
 40
0
 40
1
 40
1
 40
1
 40
1
 10
523.561772
 20
-37.802200
 30
0.0
 10
523.833470
 20
-38.073898
 30
0.0
 10
524.242082
 20
-38.155176
 30
0.0
 10
524.597073
 20
-38.008134
 30
0.0
  0
SPLINE
  5
1c6
100
AcDbEntity
  8
Layer_1
 62
1
100
AcDbSpline
 70
8
 71
3
 72
8
 73
4
 74
0
 40
0
 40
0
 40
0
 40
0
 40
1
 40
1
 40
1
 40
1
 10
524.597073
 20
-38.008134
 30
0.0
 10
524.952063
 20
-37.861092
 30
0.0
 10
525.183523
 20
-37.514688
 30
0.0
 10
525.183523
 20
-37.130449
 30
0.0
  0
SPLINE
  5
1c7
100
AcDbEntity
  8
Layer_1
 62
1
100
AcDbSpline
 70
8
 71
3
 72
8
 73
4
 74
0
 40
0
 40
0
 40
0
 40
0
 40
1
 40
1
 40
1
 40
1
 10
525.183523
 20
-37.130449
 30
0.0
 10
525.183523
 20
-36.878493
 30
0.0
 10
525.083434
 20
-36.636857
 30
0.0
 10
524.905275
 20
-36.458697
 30
0.0
  0
SPLINE
  5
1c8
100
AcDbEntity
  8
Layer_1
 62
1
100
AcDbSpline
 70
8
 71
3
 72
8
 73
4
 74
0
 40
0
 40
0
 40
0
 40
0
 40
1
 40
1
 40
1
 40
1
 10
524.905275
 20
-36.458697
 30
0.0
 10
524.727115
 20
-36.280538
 30
0.0
 10
524.485479
 20
-36.180449
 30
0.0
 10
524.233523
 20
-36.180449
 30
0.0
  0
LINE
  5
1c9
100
AcDbEntity
  8
Layer_1
 62
1
100
AcDbLine
 10
524.233523
 20
-36.180449
 30
0.0
 11
524.233523
 21
-36.180449
 31
0.0
  0
SPLINE
  5
1ca
100
AcDbEntity
  8
Layer_1
 62
1
100
AcDbSpline
 70
8
 71
3
 72
8
 73
4
 74
0
 40
0
 40
0
 40
0
 40
0
 40
1
 40
1
 40
1
 40
1
 10
542.010933
 20
-36.180449
 30
0.0
 10
541.626694
 20
-36.180449
 30
0.0
 10
541.280290
 20
-36.411909
 30
0.0
 10
541.133248
 20
-36.766900
 30
0.0
  0
SPLINE
  5
1cb
100
AcDbEntity
  8
Layer_1
 62
1
100
AcDbSpline
 70
8
 71
3
 72
8
 73
4
 74
0
 40
0
 40
0
 40
0
 40
0
 40
1
 40
1
 40
1
 40
1
 10
541.133248
 20
-36.766900
 30
0.0
 10
540.986206
 20
-37.121890
 30
0.0
 10
541.067484
 20
-37.530502
 30
0.0
 10
541.339182
 20
-37.802200
 30
0.0
  0
SPLINE
  5
1cc
100
AcDbEntity
  8
Layer_1
 62
1
100
AcDbSpline
 70
8
 71
3
 72
8
 73
4
 74
0
 40
0
 40
0
 40
0
 40
0
 40
1
 40
1
 40
1
 40
1
 10
541.339182
 20
-37.802200
 30
0.0
 10
541.610880
 20
-38.073898
 30
0.0
 10
542.019492
 20
-38.155176
 30
0.0
 10
542.374483
 20
-38.008134
 30
0.0
  0
SPLINE
  5
1cd
100
AcDbEntity
  8
Layer_1
 62
1
100
AcDbSpline
 70
8
 71
3
 72
8
 73
4
 74
0
 40
0
 40
0
 40
0
 40
0
 40
1
 40
1
 40
1
 40
1
 10
542.374483
 20
-38.008134
 30
0.0
 10
542.729473
 20
-37.861092
 30
0.0
 10
542.960933
 20
-37.514688
 30
0.0
 10
542.960933
 20
-37.130449
 30
0.0
  0
SPLINE
  5
1ce
100
AcDbEntity
  8
Layer_1
 62
1
100
AcDbSpline
 70
8
 71
3
 72
8
 73
4
 74
0
 40
0
 40
0
 40
0
 40
0
 40
1
 40
1
 40
1
 40
1
 10
542.960933
 20
-37.130449
 30
0.0
 10
542.960933
 20
-36.878493
 30
0.0
 10
542.860844
 20
-36.636857
 30
0.0
 10
542.682685
 20
-36.458697
 30
0.0
  0
SPLINE
  5
1cf
100
AcDbEntity
  8
Layer_1
 62
1
100
AcDbSpline
 70
8
 71
3
 72
8
 73
4
 74
0
 40
0
 40
0
 40
0
 40
0
 40
1
 40
1
 40
1
 40
1
 10
542.682685
 20
-36.458697
 30
0.0
 10
542.504525
 20
-36.280538
 30
0.0
 10
542.262889
 20
-36.180449
 30
0.0
 10
542.010933
 20
-36.180449
 30
0.0
  0
LINE
  5
1d0
100
AcDbEntity
  8
Layer_1
 62
1
100
AcDbLine
 10
542.010933
 20
-36.180449
 30
0.0
 11
542.010933
 21
-36.180449
 31
0.0
  0
ENDSEC
  0
SECTION
  2
OBJECTS
  0
DICTIONARY
  5
C
330
0
100
AcDbDictionary
  3
ACAD_GROUP
350
D
  3
ACAD_MLINESTYLE
350
17
  0
DICTIONARY
  5
D
330
C
100
AcDbDictionary
  0
DICTIONARY
  5
1A
330
C
100
AcDbDictionary
  0
DICTIONARY
  5
17
330
C
100
AcDbDictionary
  3
STANDARD
350
18
  0
DICTIONARY
  5
19
330
C
100
AcDbDictionary
  0
ENDSEC
  0
EOF
