  0
SECTION
  2
HEADER
  9
$ACADVER
  1
AC1014
  9
$HANDSEED
  5
FFFF
  9
$INSUNITS
 70
     0
  9
$MEASUREMENT
 70
     1
  0
ENDSEC
  0
SECTION
  2
TABLES
  0
TABLE
  2
VPORT
  5
8
330
0
100
AcDbSymbolTable
 70
     4
  0
VPORT
  5
2E
330
8
100
AcDbSymbolTableRecord
100
AcDbViewportTableRecord
  2
*ACTIVE
 70
     0
 10
0.0
 20
0.0
 11
1.0
 21
1.0
 12
210.0
 22
148.5
 13
0.0
 23
0.0
 14
10.0
 24
10.0
 15
10.0
 25
10.0
 16
0.0
 26
0.0
 36
1.0
 17
0.0
 27
0.0
 37
0.0
 40
341.0
 41
1.24
 42
50.0
 43
0.0
 44
0.0
 50
0.0
 51
0.0
 71
     0
 72
   100
 73
     1
 74
     3
 75
     0
 76
     0
 77
     0
 78
     0
  0
ENDTAB
  0
TABLE
  2
LTYPE
  5
5
330
0
100
AcDbSymbolTable
 70
     1
  0
LTYPE
  5
14
330
5
100
AcDbSymbolTableRecord
100
AcDbLinetypeTableRecord
  2
BYBLOCK
 70
     0
  3

 72
    65
 73
     0
 40
0.0
  0
LTYPE
  5
15
330
5
100
AcDbSymbolTableRecord
100
AcDbLinetypeTableRecord
  2
BYLAYER
 70
     0
  3

 72
    65
 73
     0
 40
0.0
  0
LTYPE
  5
16
330
5
100
AcDbSymbolTableRecord
100
AcDbLinetypeTableRecord
  2
CONTINUOUS
 70
     0
  3
Solid line
 72
    65
 73
     0
 40
0.0
  0
ENDTAB
  0
TABLE
  2
LAYER
  5
2
100
AcDbSymbolTable
 70
2
  0
LAYER
  5
50
100
AcDbSymbolTableRecord
100
AcDbLayerTableRecord
  2
0
 70
0
  6
CONTINUOUS
  0
LAYER
  5
51
100
AcDbSymbolTableRecord
100
AcDbLayerTableRecord
  2
Layer_1
 70
0
  6
CONTINUOUS
  0
ENDTAB
  0
TABLE
  2
STYLE
  5
3
330
0
100
AcDbSymbolTable
 70
     1
  0
STYLE
  5
11
330
3
100
AcDbSymbolTableRecord
100
AcDbTextStyleTableRecord
  2
STANDARD
 70
     0
 40
0.0
 41
1.0
 50
0.0
 71
     0
 42
2.5
  3
txt
  4

  0
ENDTAB
  0
TABLE
  2
VIEW
  5
6
330
0
100
AcDbSymbolTable
 70
     0
  0
ENDTAB
  0
TABLE
  2
UCS
  5
7
330
0
100
AcDbSymbolTable
 70
     0
  0
ENDTAB
  0
TABLE
  2
APPID
  5
9
330
0
100
AcDbSymbolTable
 70
     2
  0
APPID
  5
12
330
9
100
AcDbSymbolTableRecord
100
AcDbRegAppTableRecord
  2
ACAD
 70
     0
  0
ENDTAB
  0
TABLE
  2
DIMSTYLE
  5
A
330
0
100
AcDbSymbolTable
 70
     1
  0
DIMSTYLE
105
27
330
A
100
AcDbSymbolTableRecord
100
AcDbDimStyleTableRecord
  2
ISO-25
 70
     0
  3

  4

  5

  6

  7

 40
1.0
 41
2.5
 42
0.625
 43
3.75
 44
1.25
 45
0.0
 46
0.0
 47
0.0
 48
0.0
140
2.5
141
2.5
142
0.0
143
0.03937007874016
144
1.0
145
0.0
146
1.0
147
0.625
 71
     0
 72
     0
 73
     0
 74
     0
 75
     0
 76
     0
 77
     1
 78
     8
170
     0
171
     3
172
     1
173
     0
174
     0
175
     0
176
     0
177
     0
178
     0
270
     2
271
     2
272
     2
273
     2
274
     3
340
11
275
     0
280
     0
281
     0
282
     0
283
     0
284
     8
285
     0
286
     0
287
     3
288
     0
  0
ENDTAB
  0
TABLE
  2
BLOCK_RECORD
  5
1
330
0
100
AcDbSymbolTable
 70
     1
  0
BLOCK_RECORD
  5
1F
330
1
100
AcDbSymbolTableRecord
100
AcDbBlockTableRecord
  2
*MODEL_SPACE
  0
BLOCK_RECORD
  5
1B
330
1
100
AcDbSymbolTableRecord
100
AcDbBlockTableRecord
  2
*PAPER_SPACE
  0
ENDTAB
  0
ENDSEC
  0
SECTION
  2
BLOCKS
  0
BLOCK
  5
20
330
1F
100
AcDbEntity
  8
0
100
AcDbBlockBegin
  2
*MODEL_SPACE
 70
     0
 10
0.0
 20
0.0
 30
0.0
  3
*MODEL_SPACE
  1

  0
ENDBLK
  5
21
330
1F
100
AcDbEntity
  8
0
100
AcDbBlockEnd
  0
BLOCK
  5
1C
330
1B
100
AcDbEntity
 67
     1
  8
0
100
AcDbBlockBegin
  2
*PAPER_SPACE
  1

  0
ENDBLK
  5
1D
330
1B
100
AcDbEntity
 67
     1
  8
0
100
AcDbBlockEnd
  0
ENDSEC
  0
SECTION
  2
ENTITIES
  0
LINE
  5
100
100
AcDbEntity
  8
Layer_1
 62
3
100
AcDbLine
 10
-51.580020
 20
126.823090
 30
0.0
 11
-51.580020
 21
112.823090
 31
0.0
  0
LINE
  5
101
100
AcDbEntity
  8
Layer_1
 62
3
100
AcDbLine
 10
-51.580020
 20
112.823090
 30
0.0
 11
-37.580020
 21
112.823090
 31
0.0
  0
LINE
  5
102
100
AcDbEntity
  8
Layer_1
 62
3
100
AcDbLine
 10
-37.580020
 20
112.823090
 30
0.0
 11
-37.580020
 21
126.823090
 31
0.0
  0
LINE
  5
103
100
AcDbEntity
  8
Layer_1
 62
3
100
AcDbLine
 10
-37.580020
 20
126.823090
 30
0.0
 11
-51.580020
 21
126.823090
 31
0.0
  0
LINE
  5
104
100
AcDbEntity
  8
Layer_1
 62
3
100
AcDbLine
 10
-30.149020
 20
126.823090
 30
0.0
 11
-30.149020
 21
112.823090
 31
0.0
  0
LINE
  5
105
100
AcDbEntity
  8
Layer_1
 62
3
100
AcDbLine
 10
-30.149020
 20
112.823090
 30
0.0
 11
-16.149020
 21
112.823090
 31
0.0
  0
LINE
  5
106
100
AcDbEntity
  8
Layer_1
 62
3
100
AcDbLine
 10
-16.149020
 20
112.823090
 30
0.0
 11
-16.149020
 21
126.823090
 31
0.0
  0
LINE
  5
107
100
AcDbEntity
  8
Layer_1
 62
3
100
AcDbLine
 10
-16.149020
 20
126.823090
 30
0.0
 11
-30.149020
 21
126.823090
 31
0.0
  0
LINE
  5
108
100
AcDbEntity
  8
Layer_1
 62
3
100
AcDbLine
 10
-8.718020
 20
126.823090
 30
0.0
 11
-8.718020
 21
112.823090
 31
0.0
  0
LINE
  5
109
100
AcDbEntity
  8
Layer_1
 62
3
100
AcDbLine
 10
-8.718020
 20
112.823090
 30
0.0
 11
5.281980
 21
112.823090
 31
0.0
  0
LINE
  5
10a
100
AcDbEntity
  8
Layer_1
 62
3
100
AcDbLine
 10
5.281980
 20
112.823090
 30
0.0
 11
5.281980
 21
126.823090
 31
0.0
  0
LINE
  5
10b
100
AcDbEntity
  8
Layer_1
 62
3
100
AcDbLine
 10
5.281980
 20
126.823090
 30
0.0
 11
-8.718020
 21
126.823090
 31
0.0
  0
LINE
  5
10c
100
AcDbEntity
  8
Layer_1
 62
3
100
AcDbLine
 10
12.712980
 20
126.823090
 30
0.0
 11
12.712980
 21
112.823090
 31
0.0
  0
LINE
  5
10d
100
AcDbEntity
  8
Layer_1
 62
3
100
AcDbLine
 10
12.712980
 20
112.823090
 30
0.0
 11
26.712980
 21
112.823090
 31
0.0
  0
LINE
  5
10e
100
AcDbEntity
  8
Layer_1
 62
3
100
AcDbLine
 10
26.712980
 20
112.823090
 30
0.0
 11
26.712980
 21
126.823090
 31
0.0
  0
LINE
  5
10f
100
AcDbEntity
  8
Layer_1
 62
3
100
AcDbLine
 10
26.712980
 20
126.823090
 30
0.0
 11
12.712980
 21
126.823090
 31
0.0
  0
LINE
  5
110
100
AcDbEntity
  8
Layer_1
 62
3
100
AcDbLine
 10
38.906980
 20
126.823090
 30
0.0
 11
38.906980
 21
112.823090
 31
0.0
  0
LINE
  5
111
100
AcDbEntity
  8
Layer_1
 62
3
100
AcDbLine
 10
38.906980
 20
112.823090
 30
0.0
 11
52.906980
 21
112.823090
 31
0.0
  0
LINE
  5
112
100
AcDbEntity
  8
Layer_1
 62
3
100
AcDbLine
 10
52.906980
 20
112.823090
 30
0.0
 11
52.906980
 21
126.823090
 31
0.0
  0
LINE
  5
113
100
AcDbEntity
  8
Layer_1
 62
3
100
AcDbLine
 10
52.906980
 20
126.823090
 30
0.0
 11
38.906980
 21
126.823090
 31
0.0
  0
LINE
  5
114
100
AcDbEntity
  8
Layer_1
 62
3
100
AcDbLine
 10
-46.818020
 20
145.873090
 30
0.0
 11
-46.818020
 21
131.873090
 31
0.0
  0
LINE
  5
115
100
AcDbEntity
  8
Layer_1
 62
3
100
AcDbLine
 10
-46.818020
 20
131.873090
 30
0.0
 11
-32.818020
 21
131.873090
 31
0.0
  0
LINE
  5
116
100
AcDbEntity
  8
Layer_1
 62
3
100
AcDbLine
 10
-32.818020
 20
131.873090
 30
0.0
 11
-32.818020
 21
145.873090
 31
0.0
  0
LINE
  5
117
100
AcDbEntity
  8
Layer_1
 62
3
100
AcDbLine
 10
-32.818020
 20
145.873090
 30
0.0
 11
-46.818020
 21
145.873090
 31
0.0
  0
LINE
  5
118
100
AcDbEntity
  8
Layer_1
 62
3
100
AcDbLine
 10
-20.624020
 20
145.873090
 30
0.0
 11
-20.624020
 21
131.873090
 31
0.0
  0
LINE
  5
119
100
AcDbEntity
  8
Layer_1
 62
3
100
AcDbLine
 10
-20.624020
 20
131.873090
 30
0.0
 11
-6.625020
 21
131.873090
 31
0.0
  0
LINE
  5
11a
100
AcDbEntity
  8
Layer_1
 62
3
100
AcDbLine
 10
-6.625020
 20
131.873090
 30
0.0
 11
-6.625020
 21
145.873090
 31
0.0
  0
LINE
  5
11b
100
AcDbEntity
  8
Layer_1
 62
3
100
AcDbLine
 10
-6.625020
 20
145.873090
 30
0.0
 11
-20.624020
 21
145.873090
 31
0.0
  0
LINE
  5
11c
100
AcDbEntity
  8
Layer_1
 62
3
100
AcDbLine
 10
-1.574020
 20
145.873090
 30
0.0
 11
-1.574020
 21
131.873090
 31
0.0
  0
LINE
  5
11d
100
AcDbEntity
  8
Layer_1
 62
3
100
AcDbLine
 10
-1.574020
 20
131.873090
 30
0.0
 11
12.425980
 21
131.873090
 31
0.0
  0
LINE
  5
11e
100
AcDbEntity
  8
Layer_1
 62
3
100
AcDbLine
 10
12.425980
 20
131.873090
 30
0.0
 11
12.425980
 21
145.873090
 31
0.0
  0
LINE
  5
11f
100
AcDbEntity
  8
Layer_1
 62
3
100
AcDbLine
 10
12.425980
 20
145.873090
 30
0.0
 11
-1.574020
 21
145.873090
 31
0.0
  0
LINE
  5
120
100
AcDbEntity
  8
Layer_1
 62
3
100
AcDbLine
 10
17.475980
 20
145.873090
 30
0.0
 11
17.475980
 21
131.873090
 31
0.0
  0
LINE
  5
121
100
AcDbEntity
  8
Layer_1
 62
3
100
AcDbLine
 10
17.475980
 20
131.873090
 30
0.0
 11
31.475980
 21
131.873090
 31
0.0
  0
LINE
  5
122
100
AcDbEntity
  8
Layer_1
 62
3
100
AcDbLine
 10
31.475980
 20
131.873090
 30
0.0
 11
31.475980
 21
145.873090
 31
0.0
  0
LINE
  5
123
100
AcDbEntity
  8
Layer_1
 62
3
100
AcDbLine
 10
31.475980
 20
145.873090
 30
0.0
 11
17.475980
 21
145.873090
 31
0.0
  0
LINE
  5
124
100
AcDbEntity
  8
Layer_1
 62
3
100
AcDbLine
 10
36.525980
 20
145.873090
 30
0.0
 11
36.525980
 21
131.873090
 31
0.0
  0
LINE
  5
125
100
AcDbEntity
  8
Layer_1
 62
3
100
AcDbLine
 10
36.525980
 20
131.873090
 30
0.0
 11
50.525980
 21
131.873090
 31
0.0
  0
LINE
  5
126
100
AcDbEntity
  8
Layer_1
 62
3
100
AcDbLine
 10
50.525980
 20
131.873090
 30
0.0
 11
50.525980
 21
145.873090
 31
0.0
  0
LINE
  5
127
100
AcDbEntity
  8
Layer_1
 62
3
100
AcDbLine
 10
50.525980
 20
145.873090
 30
0.0
 11
36.525980
 21
145.873090
 31
0.0
  0
LINE
  5
128
100
AcDbEntity
  8
Layer_1
 62
3
100
AcDbLine
 10
55.575980
 20
145.873090
 30
0.0
 11
55.575980
 21
131.873090
 31
0.0
  0
LINE
  5
129
100
AcDbEntity
  8
Layer_1
 62
3
100
AcDbLine
 10
55.575980
 20
131.873090
 30
0.0
 11
69.575980
 21
131.873090
 31
0.0
  0
LINE
  5
12a
100
AcDbEntity
  8
Layer_1
 62
3
100
AcDbLine
 10
69.575980
 20
131.873090
 30
0.0
 11
69.575980
 21
145.873090
 31
0.0
  0
LINE
  5
12b
100
AcDbEntity
  8
Layer_1
 62
3
100
AcDbLine
 10
69.575980
 20
145.873090
 30
0.0
 11
55.575980
 21
145.873090
 31
0.0
  0
LINE
  5
12c
100
AcDbEntity
  8
Layer_1
 62
3
100
AcDbLine
 10
-51.580020
 20
164.923090
 30
0.0
 11
-51.580020
 21
150.923090
 31
0.0
  0
LINE
  5
12d
100
AcDbEntity
  8
Layer_1
 62
3
100
AcDbLine
 10
-51.580020
 20
150.923090
 30
0.0
 11
-37.580020
 21
150.923090
 31
0.0
  0
LINE
  5
12e
100
AcDbEntity
  8
Layer_1
 62
3
100
AcDbLine
 10
-37.580020
 20
150.923090
 30
0.0
 11
-37.580020
 21
164.923090
 31
0.0
  0
LINE
  5
12f
100
AcDbEntity
  8
Layer_1
 62
3
100
AcDbLine
 10
-37.580020
 20
164.923090
 30
0.0
 11
-51.580020
 21
164.923090
 31
0.0
  0
LINE
  5
130
100
AcDbEntity
  8
Layer_1
 62
3
100
AcDbLine
 10
-30.149020
 20
164.923090
 30
0.0
 11
-30.149020
 21
150.923090
 31
0.0
  0
LINE
  5
131
100
AcDbEntity
  8
Layer_1
 62
3
100
AcDbLine
 10
-30.149020
 20
150.923090
 30
0.0
 11
-16.149020
 21
150.923090
 31
0.0
  0
LINE
  5
132
100
AcDbEntity
  8
Layer_1
 62
3
100
AcDbLine
 10
-16.149020
 20
150.923090
 30
0.0
 11
-16.149020
 21
164.923090
 31
0.0
  0
LINE
  5
133
100
AcDbEntity
  8
Layer_1
 62
3
100
AcDbLine
 10
-16.149020
 20
164.923090
 30
0.0
 11
-30.149020
 21
164.923090
 31
0.0
  0
LINE
  5
134
100
AcDbEntity
  8
Layer_1
 62
3
100
AcDbLine
 10
-11.099020
 20
164.923090
 30
0.0
 11
-11.099020
 21
150.923090
 31
0.0
  0
LINE
  5
135
100
AcDbEntity
  8
Layer_1
 62
3
100
AcDbLine
 10
-11.099020
 20
150.923090
 30
0.0
 11
2.900980
 21
150.923090
 31
0.0
  0
LINE
  5
136
100
AcDbEntity
  8
Layer_1
 62
3
100
AcDbLine
 10
2.900980
 20
150.923090
 30
0.0
 11
2.900980
 21
164.923090
 31
0.0
  0
LINE
  5
137
100
AcDbEntity
  8
Layer_1
 62
3
100
AcDbLine
 10
2.900980
 20
164.923090
 30
0.0
 11
-11.099020
 21
164.923090
 31
0.0
  0
LINE
  5
138
100
AcDbEntity
  8
Layer_1
 62
3
100
AcDbLine
 10
7.950980
 20
164.923090
 30
0.0
 11
7.950980
 21
150.923090
 31
0.0
  0
LINE
  5
139
100
AcDbEntity
  8
Layer_1
 62
3
100
AcDbLine
 10
7.950980
 20
150.923090
 30
0.0
 11
21.950980
 21
150.923090
 31
0.0
  0
LINE
  5
13a
100
AcDbEntity
  8
Layer_1
 62
3
100
AcDbLine
 10
21.950980
 20
150.923090
 30
0.0
 11
21.950980
 21
164.923090
 31
0.0
  0
LINE
  5
13b
100
AcDbEntity
  8
Layer_1
 62
3
100
AcDbLine
 10
21.950980
 20
164.923090
 30
0.0
 11
7.950980
 21
164.923090
 31
0.0
  0
LINE
  5
13c
100
AcDbEntity
  8
Layer_1
 62
3
100
AcDbLine
 10
27.000980
 20
164.923090
 30
0.0
 11
27.000980
 21
150.923090
 31
0.0
  0
LINE
  5
13d
100
AcDbEntity
  8
Layer_1
 62
3
100
AcDbLine
 10
27.000980
 20
150.923090
 30
0.0
 11
41.000980
 21
150.923090
 31
0.0
  0
LINE
  5
13e
100
AcDbEntity
  8
Layer_1
 62
3
100
AcDbLine
 10
41.000980
 20
150.923090
 30
0.0
 11
41.000980
 21
164.923090
 31
0.0
  0
LINE
  5
13f
100
AcDbEntity
  8
Layer_1
 62
3
100
AcDbLine
 10
41.000980
 20
164.923090
 30
0.0
 11
27.000980
 21
164.923090
 31
0.0
  0
LINE
  5
140
100
AcDbEntity
  8
Layer_1
 62
3
100
AcDbLine
 10
46.050980
 20
164.923090
 30
0.0
 11
46.050980
 21
150.923090
 31
0.0
  0
LINE
  5
141
100
AcDbEntity
  8
Layer_1
 62
3
100
AcDbLine
 10
46.050980
 20
150.923090
 30
0.0
 11
60.050980
 21
150.923090
 31
0.0
  0
LINE
  5
142
100
AcDbEntity
  8
Layer_1
 62
3
100
AcDbLine
 10
60.050980
 20
150.923090
 30
0.0
 11
60.050980
 21
164.923090
 31
0.0
  0
LINE
  5
143
100
AcDbEntity
  8
Layer_1
 62
3
100
AcDbLine
 10
60.050980
 20
164.923090
 30
0.0
 11
46.050980
 21
164.923090
 31
0.0
  0
LINE
  5
144
100
AcDbEntity
  8
Layer_1
 62
3
100
AcDbLine
 10
-53.961020
 20
183.973090
 30
0.0
 11
-53.961020
 21
169.973090
 31
0.0
  0
LINE
  5
145
100
AcDbEntity
  8
Layer_1
 62
3
100
AcDbLine
 10
-53.961020
 20
169.973090
 30
0.0
 11
-39.961020
 21
169.973090
 31
0.0
  0
LINE
  5
146
100
AcDbEntity
  8
Layer_1
 62
3
100
AcDbLine
 10
-39.961020
 20
169.973090
 30
0.0
 11
-39.961020
 21
183.973090
 31
0.0
  0
LINE
  5
147
100
AcDbEntity
  8
Layer_1
 62
3
100
AcDbLine
 10
-39.961020
 20
183.973090
 30
0.0
 11
-53.961020
 21
183.973090
 31
0.0
  0
LINE
  5
148
100
AcDbEntity
  8
Layer_1
 62
3
100
AcDbLine
 10
-34.911020
 20
183.973090
 30
0.0
 11
-34.911020
 21
169.973090
 31
0.0
  0
LINE
  5
149
100
AcDbEntity
  8
Layer_1
 62
3
100
AcDbLine
 10
-34.911020
 20
169.973090
 30
0.0
 11
-20.911020
 21
169.973090
 31
0.0
  0
LINE
  5
14a
100
AcDbEntity
  8
Layer_1
 62
3
100
AcDbLine
 10
-20.911020
 20
169.973090
 30
0.0
 11
-20.911020
 21
183.973090
 31
0.0
  0
LINE
  5
14b
100
AcDbEntity
  8
Layer_1
 62
3
100
AcDbLine
 10
-20.911020
 20
183.973090
 30
0.0
 11
-34.911020
 21
183.973090
 31
0.0
  0
LINE
  5
14c
100
AcDbEntity
  8
Layer_1
 62
3
100
AcDbLine
 10
-15.861020
 20
183.973090
 30
0.0
 11
-15.861020
 21
169.973090
 31
0.0
  0
LINE
  5
14d
100
AcDbEntity
  8
Layer_1
 62
3
100
AcDbLine
 10
-15.861020
 20
169.973090
 30
0.0
 11
-1.861020
 21
169.973090
 31
0.0
  0
LINE
  5
14e
100
AcDbEntity
  8
Layer_1
 62
3
100
AcDbLine
 10
-1.861020
 20
169.973090
 30
0.0
 11
-1.861020
 21
183.973090
 31
0.0
  0
LINE
  5
14f
100
AcDbEntity
  8
Layer_1
 62
3
100
AcDbLine
 10
-1.861020
 20
183.973090
 30
0.0
 11
-15.861020
 21
183.973090
 31
0.0
  0
LINE
  5
150
100
AcDbEntity
  8
Layer_1
 62
3
100
AcDbLine
 10
3.188980
 20
183.973090
 30
0.0
 11
3.188980
 21
169.973090
 31
0.0
  0
LINE
  5
151
100
AcDbEntity
  8
Layer_1
 62
3
100
AcDbLine
 10
3.188980
 20
169.973090
 30
0.0
 11
17.188980
 21
169.973090
 31
0.0
  0
LINE
  5
152
100
AcDbEntity
  8
Layer_1
 62
3
100
AcDbLine
 10
17.188980
 20
169.973090
 30
0.0
 11
17.188980
 21
183.973090
 31
0.0
  0
LINE
  5
153
100
AcDbEntity
  8
Layer_1
 62
3
100
AcDbLine
 10
17.188980
 20
183.973090
 30
0.0
 11
3.188980
 21
183.973090
 31
0.0
  0
LINE
  5
154
100
AcDbEntity
  8
Layer_1
 62
3
100
AcDbLine
 10
22.238980
 20
183.973090
 30
0.0
 11
22.238980
 21
169.973090
 31
0.0
  0
LINE
  5
155
100
AcDbEntity
  8
Layer_1
 62
3
100
AcDbLine
 10
22.238980
 20
169.973090
 30
0.0
 11
36.238980
 21
169.973090
 31
0.0
  0
LINE
  5
156
100
AcDbEntity
  8
Layer_1
 62
3
100
AcDbLine
 10
36.238980
 20
169.973090
 30
0.0
 11
36.238980
 21
183.973090
 31
0.0
  0
LINE
  5
157
100
AcDbEntity
  8
Layer_1
 62
3
100
AcDbLine
 10
36.238980
 20
183.973090
 30
0.0
 11
22.238980
 21
183.973090
 31
0.0
  0
LINE
  5
158
100
AcDbEntity
  8
Layer_1
 62
3
100
AcDbLine
 10
41.287980
 20
183.973090
 30
0.0
 11
41.287980
 21
169.973090
 31
0.0
  0
LINE
  5
159
100
AcDbEntity
  8
Layer_1
 62
3
100
AcDbLine
 10
41.287980
 20
169.973090
 30
0.0
 11
55.287980
 21
169.973090
 31
0.0
  0
LINE
  5
15a
100
AcDbEntity
  8
Layer_1
 62
3
100
AcDbLine
 10
55.287980
 20
169.973090
 30
0.0
 11
55.287980
 21
183.973090
 31
0.0
  0
LINE
  5
15b
100
AcDbEntity
  8
Layer_1
 62
3
100
AcDbLine
 10
55.287980
 20
183.973090
 30
0.0
 11
41.287980
 21
183.973090
 31
0.0
  0
LINE
  5
15c
100
AcDbEntity
  8
Layer_1
 62
3
100
AcDbLine
 10
152.513650
 20
112.823090
 30
0.0
 11
166.513650
 21
112.823090
 31
0.0
  0
LINE
  5
15d
100
AcDbEntity
  8
Layer_1
 62
3
100
AcDbLine
 10
166.513650
 20
112.823090
 30
0.0
 11
166.513650
 21
126.823090
 31
0.0
  0
LINE
  5
15e
100
AcDbEntity
  8
Layer_1
 62
3
100
AcDbLine
 10
166.513650
 20
126.823090
 30
0.0
 11
152.513650
 21
126.823090
 31
0.0
  0
LINE
  5
15f
100
AcDbEntity
  8
Layer_1
 62
3
100
AcDbLine
 10
152.513650
 20
126.823090
 30
0.0
 11
152.513650
 21
112.823090
 31
0.0
  0
LINE
  5
160
100
AcDbEntity
  8
Layer_1
 62
3
100
AcDbLine
 10
181.088650
 20
112.823090
 30
0.0
 11
195.088650
 21
112.823090
 31
0.0
  0
LINE
  5
161
100
AcDbEntity
  8
Layer_1
 62
3
100
AcDbLine
 10
195.088650
 20
112.823090
 30
0.0
 11
195.088650
 21
126.823090
 31
0.0
  0
LINE
  5
162
100
AcDbEntity
  8
Layer_1
 62
3
100
AcDbLine
 10
195.088650
 20
126.823090
 30
0.0
 11
181.088650
 21
126.823090
 31
0.0
  0
LINE
  5
163
100
AcDbEntity
  8
Layer_1
 62
3
100
AcDbLine
 10
181.088650
 20
126.823090
 30
0.0
 11
181.088650
 21
112.823090
 31
0.0
  0
LINE
  5
164
100
AcDbEntity
  8
Layer_1
 62
3
100
AcDbLine
 10
204.901650
 20
112.823090
 30
0.0
 11
218.901650
 21
112.823090
 31
0.0
  0
LINE
  5
165
100
AcDbEntity
  8
Layer_1
 62
3
100
AcDbLine
 10
218.901650
 20
112.823090
 30
0.0
 11
218.901650
 21
126.823090
 31
0.0
  0
LINE
  5
166
100
AcDbEntity
  8
Layer_1
 62
3
100
AcDbLine
 10
218.901650
 20
126.823090
 30
0.0
 11
204.901650
 21
126.823090
 31
0.0
  0
LINE
  5
167
100
AcDbEntity
  8
Layer_1
 62
3
100
AcDbLine
 10
204.901650
 20
126.823090
 30
0.0
 11
204.901650
 21
112.823090
 31
0.0
  0
LINE
  5
168
100
AcDbEntity
  8
Layer_1
 62
3
100
AcDbLine
 10
226.332650
 20
112.823090
 30
0.0
 11
240.332650
 21
112.823090
 31
0.0
  0
LINE
  5
169
100
AcDbEntity
  8
Layer_1
 62
3
100
AcDbLine
 10
240.332650
 20
112.823090
 30
0.0
 11
240.332650
 21
126.823090
 31
0.0
  0
LINE
  5
16a
100
AcDbEntity
  8
Layer_1
 62
3
100
AcDbLine
 10
240.332650
 20
126.823090
 30
0.0
 11
226.332650
 21
126.823090
 31
0.0
  0
LINE
  5
16b
100
AcDbEntity
  8
Layer_1
 62
3
100
AcDbLine
 10
226.332650
 20
126.823090
 30
0.0
 11
226.332650
 21
112.823090
 31
0.0
  0
LINE
  5
16c
100
AcDbEntity
  8
Layer_1
 62
3
100
AcDbLine
 10
247.763650
 20
112.823090
 30
0.0
 11
261.763650
 21
112.823090
 31
0.0
  0
LINE
  5
16d
100
AcDbEntity
  8
Layer_1
 62
3
100
AcDbLine
 10
261.763650
 20
112.823090
 30
0.0
 11
261.763650
 21
126.823090
 31
0.0
  0
LINE
  5
16e
100
AcDbEntity
  8
Layer_1
 62
3
100
AcDbLine
 10
261.763650
 20
126.823090
 30
0.0
 11
247.763650
 21
126.823090
 31
0.0
  0
LINE
  5
16f
100
AcDbEntity
  8
Layer_1
 62
3
100
AcDbLine
 10
247.763650
 20
126.823090
 30
0.0
 11
247.763650
 21
112.823090
 31
0.0
  0
LINE
  5
170
100
AcDbEntity
  8
Layer_1
 62
3
100
AcDbLine
 10
154.895650
 20
131.873090
 30
0.0
 11
168.895650
 21
131.873090
 31
0.0
  0
LINE
  5
171
100
AcDbEntity
  8
Layer_1
 62
3
100
AcDbLine
 10
168.895650
 20
131.873090
 30
0.0
 11
168.895650
 21
145.873090
 31
0.0
  0
LINE
  5
172
100
AcDbEntity
  8
Layer_1
 62
3
100
AcDbLine
 10
168.895650
 20
145.873090
 30
0.0
 11
154.895650
 21
145.873090
 31
0.0
  0
LINE
  5
173
100
AcDbEntity
  8
Layer_1
 62
3
100
AcDbLine
 10
154.895650
 20
145.873090
 30
0.0
 11
154.895650
 21
131.873090
 31
0.0
  0
LINE
  5
174
100
AcDbEntity
  8
Layer_1
 62
3
100
AcDbLine
 10
173.945650
 20
131.873090
 30
0.0
 11
187.945650
 21
131.873090
 31
0.0
  0
LINE
  5
175
100
AcDbEntity
  8
Layer_1
 62
3
100
AcDbLine
 10
187.945650
 20
131.873090
 30
0.0
 11
187.945650
 21
145.873090
 31
0.0
  0
LINE
  5
176
100
AcDbEntity
  8
Layer_1
 62
3
100
AcDbLine
 10
187.945650
 20
145.873090
 30
0.0
 11
173.945650
 21
145.873090
 31
0.0
  0
LINE
  5
177
100
AcDbEntity
  8
Layer_1
 62
3
100
AcDbLine
 10
173.945650
 20
145.873090
 30
0.0
 11
173.945650
 21
131.873090
 31
0.0
  0
LINE
  5
178
100
AcDbEntity
  8
Layer_1
 62
3
100
AcDbLine
 10
192.995650
 20
131.873090
 30
0.0
 11
206.995650
 21
131.873090
 31
0.0
  0
LINE
  5
179
100
AcDbEntity
  8
Layer_1
 62
3
100
AcDbLine
 10
206.995650
 20
131.873090
 30
0.0
 11
206.995650
 21
145.873090
 31
0.0
  0
LINE
  5
17a
100
AcDbEntity
  8
Layer_1
 62
3
100
AcDbLine
 10
206.995650
 20
145.873090
 30
0.0
 11
192.995650
 21
145.873090
 31
0.0
  0
LINE
  5
17b
100
AcDbEntity
  8
Layer_1
 62
3
100
AcDbLine
 10
192.995650
 20
145.873090
 30
0.0
 11
192.995650
 21
131.873090
 31
0.0
  0
LINE
  5
17c
100
AcDbEntity
  8
Layer_1
 62
3
100
AcDbLine
 10
212.045650
 20
131.873090
 30
0.0
 11
226.045650
 21
131.873090
 31
0.0
  0
LINE
  5
17d
100
AcDbEntity
  8
Layer_1
 62
3
100
AcDbLine
 10
226.045650
 20
131.873090
 30
0.0
 11
226.045650
 21
145.873090
 31
0.0
  0
LINE
  5
17e
100
AcDbEntity
  8
Layer_1
 62
3
100
AcDbLine
 10
226.045650
 20
145.873090
 30
0.0
 11
212.045650
 21
145.873090
 31
0.0
  0
LINE
  5
17f
100
AcDbEntity
  8
Layer_1
 62
3
100
AcDbLine
 10
212.045650
 20
145.873090
 30
0.0
 11
212.045650
 21
131.873090
 31
0.0
  0
LINE
  5
180
100
AcDbEntity
  8
Layer_1
 62
3
100
AcDbLine
 10
231.095650
 20
131.873090
 30
0.0
 11
245.095650
 21
131.873090
 31
0.0
  0
LINE
  5
181
100
AcDbEntity
  8
Layer_1
 62
3
100
AcDbLine
 10
245.095650
 20
131.873090
 30
0.0
 11
245.095650
 21
145.873090
 31
0.0
  0
LINE
  5
182
100
AcDbEntity
  8
Layer_1
 62
3
100
AcDbLine
 10
245.095650
 20
145.873090
 30
0.0
 11
231.095650
 21
145.873090
 31
0.0
  0
LINE
  5
183
100
AcDbEntity
  8
Layer_1
 62
3
100
AcDbLine
 10
231.095650
 20
145.873090
 30
0.0
 11
231.095650
 21
131.873090
 31
0.0
  0
LINE
  5
184
100
AcDbEntity
  8
Layer_1
 62
3
100
AcDbLine
 10
250.145650
 20
131.873090
 30
0.0
 11
264.145650
 21
131.873090
 31
0.0
  0
LINE
  5
185
100
AcDbEntity
  8
Layer_1
 62
3
100
AcDbLine
 10
264.145650
 20
131.873090
 30
0.0
 11
264.145650
 21
145.873090
 31
0.0
  0
LINE
  5
186
100
AcDbEntity
  8
Layer_1
 62
3
100
AcDbLine
 10
264.145650
 20
145.873090
 30
0.0
 11
250.145650
 21
145.873090
 31
0.0
  0
LINE
  5
187
100
AcDbEntity
  8
Layer_1
 62
3
100
AcDbLine
 10
250.145650
 20
145.873090
 30
0.0
 11
250.145650
 21
131.873090
 31
0.0
  0
LINE
  5
188
100
AcDbEntity
  8
Layer_1
 62
3
100
AcDbLine
 10
145.370650
 20
150.923090
 30
0.0
 11
159.370650
 21
150.923090
 31
0.0
  0
LINE
  5
189
100
AcDbEntity
  8
Layer_1
 62
3
100
AcDbLine
 10
159.370650
 20
150.923090
 30
0.0
 11
159.370650
 21
164.923090
 31
0.0
  0
LINE
  5
18a
100
AcDbEntity
  8
Layer_1
 62
3
100
AcDbLine
 10
159.370650
 20
164.923090
 30
0.0
 11
145.370650
 21
164.923090
 31
0.0
  0
LINE
  5
18b
100
AcDbEntity
  8
Layer_1
 62
3
100
AcDbLine
 10
145.370650
 20
164.923090
 30
0.0
 11
145.370650
 21
150.923090
 31
0.0
  0
LINE
  5
18c
100
AcDbEntity
  8
Layer_1
 62
3
100
AcDbLine
 10
183.470650
 20
150.923090
 30
0.0
 11
197.470650
 21
150.923090
 31
0.0
  0
LINE
  5
18d
100
AcDbEntity
  8
Layer_1
 62
3
100
AcDbLine
 10
197.470650
 20
150.923090
 30
0.0
 11
197.470650
 21
164.923090
 31
0.0
  0
LINE
  5
18e
100
AcDbEntity
  8
Layer_1
 62
3
100
AcDbLine
 10
197.470650
 20
164.923090
 30
0.0
 11
183.470650
 21
164.923090
 31
0.0
  0
LINE
  5
18f
100
AcDbEntity
  8
Layer_1
 62
3
100
AcDbLine
 10
183.470650
 20
164.923090
 30
0.0
 11
183.470650
 21
150.923090
 31
0.0
  0
LINE
  5
190
100
AcDbEntity
  8
Layer_1
 62
3
100
AcDbLine
 10
202.520650
 20
150.923090
 30
0.0
 11
216.520650
 21
150.923090
 31
0.0
  0
LINE
  5
191
100
AcDbEntity
  8
Layer_1
 62
3
100
AcDbLine
 10
216.520650
 20
150.923090
 30
0.0
 11
216.520650
 21
164.923090
 31
0.0
  0
LINE
  5
192
100
AcDbEntity
  8
Layer_1
 62
3
100
AcDbLine
 10
216.520650
 20
164.923090
 30
0.0
 11
202.520650
 21
164.923090
 31
0.0
  0
LINE
  5
193
100
AcDbEntity
  8
Layer_1
 62
3
100
AcDbLine
 10
202.520650
 20
164.923090
 30
0.0
 11
202.520650
 21
150.923090
 31
0.0
  0
LINE
  5
194
100
AcDbEntity
  8
Layer_1
 62
3
100
AcDbLine
 10
221.570650
 20
150.923090
 30
0.0
 11
235.570650
 21
150.923090
 31
0.0
  0
LINE
  5
195
100
AcDbEntity
  8
Layer_1
 62
3
100
AcDbLine
 10
235.570650
 20
150.923090
 30
0.0
 11
235.570650
 21
164.923090
 31
0.0
  0
LINE
  5
196
100
AcDbEntity
  8
Layer_1
 62
3
100
AcDbLine
 10
235.570650
 20
164.923090
 30
0.0
 11
221.570650
 21
164.923090
 31
0.0
  0
LINE
  5
197
100
AcDbEntity
  8
Layer_1
 62
3
100
AcDbLine
 10
221.570650
 20
164.923090
 30
0.0
 11
221.570650
 21
150.923090
 31
0.0
  0
LINE
  5
198
100
AcDbEntity
  8
Layer_1
 62
3
100
AcDbLine
 10
178.420550
 20
150.923090
 30
0.0
 11
178.420550
 21
164.923090
 31
0.0
  0
LINE
  5
199
100
AcDbEntity
  8
Layer_1
 62
3
100
AcDbLine
 10
178.420550
 20
164.923090
 30
0.0
 11
164.420550
 21
164.923090
 31
0.0
  0
LINE
  5
19a
100
AcDbEntity
  8
Layer_1
 62
3
100
AcDbLine
 10
164.420550
 20
164.923090
 30
0.0
 11
164.420550
 21
150.923090
 31
0.0
  0
LINE
  5
19b
100
AcDbEntity
  8
Layer_1
 62
3
100
AcDbLine
 10
164.420550
 20
150.923090
 30
0.0
 11
178.420550
 21
150.923090
 31
0.0
  0
LINE
  5
19c
100
AcDbEntity
  8
Layer_1
 62
3
100
AcDbLine
 10
245.382650
 20
150.923090
 30
0.0
 11
259.382650
 21
150.923090
 31
0.0
  0
LINE
  5
19d
100
AcDbEntity
  8
Layer_1
 62
3
100
AcDbLine
 10
259.382650
 20
150.923090
 30
0.0
 11
259.382650
 21
164.923090
 31
0.0
  0
LINE
  5
19e
100
AcDbEntity
  8
Layer_1
 62
3
100
AcDbLine
 10
259.382650
 20
164.923090
 30
0.0
 11
245.382650
 21
164.923090
 31
0.0
  0
LINE
  5
19f
100
AcDbEntity
  8
Layer_1
 62
3
100
AcDbLine
 10
245.382650
 20
164.923090
 30
0.0
 11
245.382650
 21
150.923090
 31
0.0
  0
LINE
  5
1a0
100
AcDbEntity
  8
Layer_1
 62
3
100
AcDbLine
 10
140.607650
 20
169.973090
 30
0.0
 11
154.607650
 21
169.973090
 31
0.0
  0
LINE
  5
1a1
100
AcDbEntity
  8
Layer_1
 62
3
100
AcDbLine
 10
154.607650
 20
169.973090
 30
0.0
 11
154.607650
 21
183.973090
 31
0.0
  0
LINE
  5
1a2
100
AcDbEntity
  8
Layer_1
 62
3
100
AcDbLine
 10
154.607650
 20
183.973090
 30
0.0
 11
140.607650
 21
183.973090
 31
0.0
  0
LINE
  5
1a3
100
AcDbEntity
  8
Layer_1
 62
3
100
AcDbLine
 10
140.607650
 20
183.973090
 30
0.0
 11
140.607650
 21
169.973090
 31
0.0
  0
LINE
  5
1a4
100
AcDbEntity
  8
Layer_1
 62
3
100
AcDbLine
 10
159.657650
 20
169.973090
 30
0.0
 11
173.657650
 21
169.973090
 31
0.0
  0
LINE
  5
1a5
100
AcDbEntity
  8
Layer_1
 62
3
100
AcDbLine
 10
173.657650
 20
169.973090
 30
0.0
 11
173.657650
 21
183.973090
 31
0.0
  0
LINE
  5
1a6
100
AcDbEntity
  8
Layer_1
 62
3
100
AcDbLine
 10
173.657650
 20
183.973090
 30
0.0
 11
159.657650
 21
183.973090
 31
0.0
  0
LINE
  5
1a7
100
AcDbEntity
  8
Layer_1
 62
3
100
AcDbLine
 10
159.657650
 20
183.973090
 30
0.0
 11
159.657650
 21
169.973090
 31
0.0
  0
LINE
  5
1a8
100
AcDbEntity
  8
Layer_1
 62
3
100
AcDbLine
 10
178.707650
 20
169.973090
 30
0.0
 11
192.707650
 21
169.973090
 31
0.0
  0
LINE
  5
1a9
100
AcDbEntity
  8
Layer_1
 62
3
100
AcDbLine
 10
192.707650
 20
169.973090
 30
0.0
 11
192.707650
 21
183.973090
 31
0.0
  0
LINE
  5
1aa
100
AcDbEntity
  8
Layer_1
 62
3
100
AcDbLine
 10
192.707650
 20
183.973090
 30
0.0
 11
178.707650
 21
183.973090
 31
0.0
  0
LINE
  5
1ab
100
AcDbEntity
  8
Layer_1
 62
3
100
AcDbLine
 10
178.707650
 20
183.973090
 30
0.0
 11
178.707650
 21
169.973090
 31
0.0
  0
LINE
  5
1ac
100
AcDbEntity
  8
Layer_1
 62
3
100
AcDbLine
 10
197.756650
 20
169.973090
 30
0.0
 11
211.757650
 21
169.973090
 31
0.0
  0
LINE
  5
1ad
100
AcDbEntity
  8
Layer_1
 62
3
100
AcDbLine
 10
211.757650
 20
169.973090
 30
0.0
 11
211.757650
 21
183.973090
 31
0.0
  0
LINE
  5
1ae
100
AcDbEntity
  8
Layer_1
 62
3
100
AcDbLine
 10
211.757650
 20
183.973090
 30
0.0
 11
197.756650
 21
183.973090
 31
0.0
  0
LINE
  5
1af
100
AcDbEntity
  8
Layer_1
 62
3
100
AcDbLine
 10
197.756650
 20
183.973090
 30
0.0
 11
197.756650
 21
169.973090
 31
0.0
  0
LINE
  5
1b0
100
AcDbEntity
  8
Layer_1
 62
3
100
AcDbLine
 10
216.807650
 20
169.973090
 30
0.0
 11
230.807650
 21
169.973090
 31
0.0
  0
LINE
  5
1b1
100
AcDbEntity
  8
Layer_1
 62
3
100
AcDbLine
 10
230.807650
 20
169.973090
 30
0.0
 11
230.807650
 21
183.973090
 31
0.0
  0
LINE
  5
1b2
100
AcDbEntity
  8
Layer_1
 62
3
100
AcDbLine
 10
230.807650
 20
183.973090
 30
0.0
 11
216.807650
 21
183.973090
 31
0.0
  0
LINE
  5
1b3
100
AcDbEntity
  8
Layer_1
 62
3
100
AcDbLine
 10
216.807650
 20
183.973090
 30
0.0
 11
216.807650
 21
169.973090
 31
0.0
  0
LINE
  5
1b4
100
AcDbEntity
  8
Layer_1
 62
3
100
AcDbLine
 10
243.001650
 20
169.973090
 30
0.0
 11
257.001650
 21
169.973090
 31
0.0
  0
LINE
  5
1b5
100
AcDbEntity
  8
Layer_1
 62
3
100
AcDbLine
 10
257.001650
 20
169.973090
 30
0.0
 11
257.001650
 21
183.973090
 31
0.0
  0
LINE
  5
1b6
100
AcDbEntity
  8
Layer_1
 62
3
100
AcDbLine
 10
257.001650
 20
183.973090
 30
0.0
 11
243.001650
 21
183.973090
 31
0.0
  0
LINE
  5
1b7
100
AcDbEntity
  8
Layer_1
 62
3
100
AcDbLine
 10
243.001650
 20
183.973090
 30
0.0
 11
243.001650
 21
169.973090
 31
0.0
  0
LINE
  5
1b8
100
AcDbEntity
  8
Layer_1
 62
3
100
AcDbLine
 10
19.879650
 20
187.042430
 30
0.0
 11
19.880390
 21
189.975690
 31
0.0
  0
SPLINE
  5
1b9
100
AcDbEntity
  8
Layer_1
 62
3
100
AcDbSpline
 70
8
 71
3
 72
8
 73
4
 74
0
 40
0
 40
0
 40
0
 40
0
 40
1
 40
1
 40
1
 40
1
 10
19.880390
 20
189.975690
 30
0.0
 10
19.880461
 20
190.267964
 30
0.0
 10
20.117416
 20
190.504860
 30
0.0
 10
20.409690
 20
190.504860
 30
0.0
  0
LINE
  5
1ba
100
AcDbEntity
  8
Layer_1
 62
3
100
AcDbLine
 10
20.409690
 20
190.504860
 30
0.0
 11
54.759700
 21
190.504870
 31
0.0
  0
SPLINE
  5
1bb
100
AcDbEntity
  8
Layer_1
 62
3
100
AcDbSpline
 70
8
 71
3
 72
8
 73
4
 74
0
 40
0
 40
0
 40
0
 40
0
 40
1
 40
1
 40
1
 40
1
 10
54.759700
 20
190.504870
 30
0.0
 10
54.900021
 20
190.504872
 30
0.0
 10
55.034592
 20
190.449113
 30
0.0
 10
55.133790
 20
190.349866
 30
0.0
  0
SPLINE
  5
1bc
100
AcDbEntity
  8
Layer_1
 62
3
100
AcDbSpline
 70
8
 71
3
 72
8
 73
4
 74
0
 40
0
 40
0
 40
0
 40
0
 40
1
 40
1
 40
1
 40
1
 10
55.133790
 20
190.349866
 30
0.0
 10
55.232988
 20
190.250620
 30
0.0
 10
55.288681
 20
190.116021
 30
0.0
 10
55.288610
 20
189.975700
 30
0.0
  0
LINE
  5
1bd
100
AcDbEntity
  8
Layer_1
 62
3
100
AcDbLine
 10
55.288610
 20
189.975700
 30
0.0
 11
55.287610
 21
187.030420
 31
0.0
  0
SPLINE
  5
1be
100
AcDbEntity
  8
Layer_1
 62
3
100
AcDbSpline
 70
8
 71
3
 72
8
 73
4
 74
0
 40
0
 40
0
 40
0
 40
0
 40
1
 40
1
 40
1
 40
1
 10
55.287610
 20
187.030420
 30
0.0
 10
55.287540
 20
186.890078
 30
0.0
 10
55.343226
 20
186.755456
 30
0.0
 10
55.442417
 20
186.656173
 30
0.0
  0
SPLINE
  5
1bf
100
AcDbEntity
  8
Layer_1
 62
3
100
AcDbSpline
 70
8
 71
3
 72
8
 73
4
 74
0
 40
0
 40
0
 40
0
 40
0
 40
1
 40
1
 40
1
 40
1
 10
55.442417
 20
186.656173
 30
0.0
 10
55.541608
 20
186.556890
 30
0.0
 10
55.676178
 20
186.501080
 30
0.0
 10
55.816520
 20
186.501020
 30
0.0
  0
SPLINE
  5
1c0
100
AcDbEntity
  8
Layer_1
 62
3
100
AcDbSpline
 70
8
 71
3
 72
8
 73
4
 74
0
 40
0
 40
0
 40
0
 40
0
 40
1
 40
1
 40
1
 40
1
 10
55.816520
 20
186.501020
 30
0.0
 10
56.150887
 20
186.500875
 30
0.0
 10
56.485253
 20
186.500768
 30
0.0
 10
56.819620
 20
186.500700
 30
0.0
  0
LINE
  5
1c1
100
AcDbEntity
  8
Layer_1
 62
3
100
AcDbLine
 10
56.819620
 20
186.500700
 30
0.0
 11
57.283780
 21
186.500600
 31
0.0
  0
SPLINE
  5
1c2
100
AcDbEntity
  8
Layer_1
 62
3
100
AcDbSpline
 70
8
 71
3
 72
8
 73
4
 74
0
 40
0
 40
0
 40
0
 40
0
 40
1
 40
1
 40
1
 40
1
 10
57.283780
 20
186.500600
 30
0.0
 10
57.576051
 20
186.500540
 30
0.0
 10
57.812951
 20
186.263591
 30
0.0
 10
57.812950
 20
185.971320
 30
0.0
  0
LINE
  5
1c3
100
AcDbEntity
  8
Layer_1
 62
3
100
AcDbLine
 10
57.812950
 20
185.971320
 30
0.0
 11
57.812950
 21
167.978660
 31
0.0
  0
SPLINE
  5
1c4
100
AcDbEntity
  8
Layer_1
 62
3
100
AcDbSpline
 70
8
 71
3
 72
8
 73
4
 74
0
 40
0
 40
0
 40
0
 40
0
 40
1
 40
1
 40
1
 40
1
 10
57.812950
 20
167.978660
 30
0.0
 10
57.812949
 20
167.838315
 30
0.0
 10
57.868701
 20
167.703718
 30
0.0
 10
57.967939
 20
167.604479
 30
0.0
  0
SPLINE
  5
1c5
100
AcDbEntity
  8
Layer_1
 62
3
100
AcDbSpline
 70
8
 71
3
 72
8
 73
4
 74
0
 40
0
 40
0
 40
0
 40
0
 40
1
 40
1
 40
1
 40
1
 10
57.967939
 20
167.604479
 30
0.0
 10
58.067178
 20
167.505241
 30
0.0
 10
58.201775
 20
167.449489
 30
0.0
 10
58.342120
 20
167.449490
 30
0.0
  0
LINE
  5
1c6
100
AcDbEntity
  8
Layer_1
 62
3
100
AcDbLine
 10
58.342120
 20
167.449490
 30
0.0
 11
62.046780
 21
167.449490
 31
0.0
  0
SPLINE
  5
1c7
100
AcDbEntity
  8
Layer_1
 62
3
100
AcDbSpline
 70
8
 71
3
 72
8
 73
4
 74
0
 40
0
 40
0
 40
0
 40
0
 40
1
 40
1
 40
1
 40
1
 10
62.046780
 20
167.449490
 30
0.0
 10
62.187125
 20
167.449491
 30
0.0
 10
62.321722
 20
167.393739
 30
0.0
 10
62.420961
 20
167.294501
 30
0.0
  0
SPLINE
  5
1c8
100
AcDbEntity
  8
Layer_1
 62
3
100
AcDbSpline
 70
8
 71
3
 72
8
 73
4
 74
0
 40
0
 40
0
 40
0
 40
0
 40
1
 40
1
 40
1
 40
1
 10
62.420961
 20
167.294501
 30
0.0
 10
62.520199
 20
167.195262
 30
0.0
 10
62.575951
 20
167.060665
 30
0.0
 10
62.575950
 20
166.920320
 30
0.0
  0
LINE
  5
1c9
100
AcDbEntity
  8
Layer_1
 62
3
100
AcDbLine
 10
62.575950
 20
166.920320
 30
0.0
 11
62.575950
 21
148.928660
 31
0.0
  0
SPLINE
  5
1ca
100
AcDbEntity
  8
Layer_1
 62
3
100
AcDbSpline
 70
8
 71
3
 72
8
 73
4
 74
0
 40
0
 40
0
 40
0
 40
0
 40
1
 40
1
 40
1
 40
1
 10
62.575950
 20
148.928660
 30
0.0
 10
62.575949
 20
148.788315
 30
0.0
 10
62.631701
 20
148.653718
 30
0.0
 10
62.730939
 20
148.554479
 30
0.0
  0
SPLINE
  5
1cb
100
AcDbEntity
  8
Layer_1
 62
3
100
AcDbSpline
 70
8
 71
3
 72
8
 73
4
 74
0
 40
0
 40
0
 40
0
 40
0
 40
1
 40
1
 40
1
 40
1
 10
62.730939
 20
148.554479
 30
0.0
 10
62.830178
 20
148.455241
 30
0.0
 10
62.964775
 20
148.399489
 30
0.0
 10
63.105120
 20
148.399490
 30
0.0
  0
LINE
  5
1cc
100
AcDbEntity
  8
Layer_1
 62
3
100
AcDbLine
 10
63.105120
 20
148.399490
 30
0.0
 11
71.571780
 21
148.399490
 31
0.0
  0
SPLINE
  5
1cd
100
AcDbEntity
  8
Layer_1
 62
3
100
AcDbSpline
 70
8
 71
3
 72
8
 73
4
 74
0
 40
0
 40
0
 40
0
 40
0
 40
1
 40
1
 40
1
 40
1
 10
71.571780
 20
148.399490
 30
0.0
 10
71.712125
 20
148.399491
 30
0.0
 10
71.846722
 20
148.343739
 30
0.0
 10
71.945961
 20
148.244501
 30
0.0
  0
SPLINE
  5
1ce
100
AcDbEntity
  8
Layer_1
 62
3
100
AcDbSpline
 70
8
 71
3
 72
8
 73
4
 74
0
 40
0
 40
0
 40
0
 40
0
 40
1
 40
1
 40
1
 40
1
 10
71.945961
 20
148.244501
 30
0.0
 10
72.045199
 20
148.145262
 30
0.0
 10
72.100951
 20
148.010665
 30
0.0
 10
72.100950
 20
147.870320
 30
0.0
  0
LINE
  5
1cf
100
AcDbEntity
  8
Layer_1
 62
3
100
AcDbLine
 10
72.100950
 20
147.870320
 30
0.0
 11
72.100950
 21
129.876660
 31
0.0
  0
SPLINE
  5
1d0
100
AcDbEntity
  8
Layer_1
 62
3
100
AcDbSpline
 70
8
 71
3
 72
8
 73
4
 74
0
 40
0
 40
0
 40
0
 40
0
 40
1
 40
1
 40
1
 40
1
 10
72.100950
 20
129.876660
 30
0.0
 10
72.100951
 20
129.736315
 30
0.0
 10
72.045199
 20
129.601718
 30
0.0
 10
71.945961
 20
129.502479
 30
0.0
  0
SPLINE
  5
1d1
100
AcDbEntity
  8
Layer_1
 62
3
100
AcDbSpline
 70
8
 71
3
 72
8
 73
4
 74
0
 40
0
 40
0
 40
0
 40
0
 40
1
 40
1
 40
1
 40
1
 10
71.945961
 20
129.502479
 30
0.0
 10
71.846722
 20
129.403241
 30
0.0
 10
71.712125
 20
129.347489
 30
0.0
 10
71.571780
 20
129.347490
 30
0.0
  0
LINE
  5
1d2
100
AcDbEntity
  8
Layer_1
 62
3
100
AcDbLine
 10
71.571780
 20
129.347490
 30
0.0
 11
63.105120
 21
129.347490
 31
0.0
  0
SPLINE
  5
1d3
100
AcDbEntity
  8
Layer_1
 62
3
100
AcDbSpline
 70
8
 71
3
 72
8
 73
4
 74
0
 40
0
 40
0
 40
0
 40
0
 40
1
 40
1
 40
1
 40
1
 10
63.105120
 20
129.347490
 30
0.0
 10
62.964775
 20
129.347491
 30
0.0
 10
62.830178
 20
129.291739
 30
0.0
 10
62.730939
 20
129.192501
 30
0.0
  0
SPLINE
  5
1d4
100
AcDbEntity
  8
Layer_1
 62
3
100
AcDbSpline
 70
8
 71
3
 72
8
 73
4
 74
0
 40
0
 40
0
 40
0
 40
0
 40
1
 40
1
 40
1
 40
1
 10
62.730939
 20
129.192501
 30
0.0
 10
62.631701
 20
129.093262
 30
0.0
 10
62.575949
 20
128.958665
 30
0.0
 10
62.575950
 20
128.818320
 30
0.0
  0
LINE
  5
1d5
100
AcDbEntity
  8
Layer_1
 62
3
100
AcDbLine
 10
62.575950
 20
128.818320
 30
0.0
 11
62.575950
 21
110.826660
 31
0.0
  0
SPLINE
  5
1d6
100
AcDbEntity
  8
Layer_1
 62
3
100
AcDbSpline
 70
8
 71
3
 72
8
 73
4
 74
0
 40
0
 40
0
 40
0
 40
0
 40
1
 40
1
 40
1
 40
1
 10
62.575950
 20
110.826660
 30
0.0
 10
62.575951
 20
110.686316
 30
0.0
 10
62.520199
 20
110.551720
 30
0.0
 10
62.420960
 20
110.452483
 30
0.0
  0
SPLINE
  5
1d7
100
AcDbEntity
  8
Layer_1
 62
3
100
AcDbSpline
 70
8
 71
3
 72
8
 73
4
 74
0
 40
0
 40
0
 40
0
 40
0
 40
1
 40
1
 40
1
 40
1
 10
62.420960
 20
110.452483
 30
0.0
 10
62.321721
 20
110.353246
 30
0.0
 10
62.187124
 20
110.297497
 30
0.0
 10
62.046780
 20
110.297500
 30
0.0
  0
LINE
  5
1d8
100
AcDbEntity
  8
Layer_1
 62
3
100
AcDbLine
 10
62.046780
 20
110.297500
 30
0.0
 11
58.104800
 21
110.297570
 31
0.0
  0
SPLINE
  5
1d9
100
AcDbEntity
  8
Layer_1
 62
3
100
AcDbSpline
 70
8
 71
3
 72
8
 73
4
 74
0
 40
0
 40
0
 40
0
 40
0
 40
1
 40
1
 40
1
 40
1
 10
58.104800
 20
110.297570
 30
0.0
 10
57.812528
 20
110.297576
 30
0.0
 10
57.575571
 20
110.060682
 30
0.0
 10
57.575500
 20
109.768410
 30
0.0
  0
LINE
  5
1da
100
AcDbEntity
  8
Layer_1
 62
3
100
AcDbLine
 10
57.575500
 20
109.768410
 30
0.0
 11
57.574760
 21
106.822550
 31
0.0
  0
SPLINE
  5
1db
100
AcDbEntity
  8
Layer_1
 62
3
100
AcDbSpline
 70
8
 71
3
 72
8
 73
4
 74
0
 40
0
 40
0
 40
0
 40
0
 40
1
 40
1
 40
1
 40
1
 10
57.574760
 20
106.822550
 30
0.0
 10
57.574690
 20
106.530277
 30
0.0
 10
57.337733
 20
106.293382
 30
0.0
 10
57.045460
 20
106.293390
 30
0.0
  0
LINE
  5
1dc
100
AcDbEntity
  8
Layer_1
 62
3
100
AcDbLine
 10
57.045460
 20
106.293390
 30
0.0
 11
22.696150
 21
106.294210
 31
0.0
  0
SPLINE
  5
1dd
100
AcDbEntity
  8
Layer_1
 62
3
100
AcDbSpline
 70
8
 71
3
 72
8
 73
4
 74
0
 40
0
 40
0
 40
0
 40
0
 40
1
 40
1
 40
1
 40
1
 10
22.696150
 20
106.294210
 30
0.0
 10
22.403874
 20
106.294214
 30
0.0
 10
22.166920
 20
106.531114
 30
0.0
 10
22.166850
 20
106.823390
 30
0.0
  0
LINE
  5
1de
100
AcDbEntity
  8
Layer_1
 62
3
100
AcDbLine
 10
22.166850
 20
106.823390
 30
0.0
 11
22.166150
 21
109.757020
 31
0.0
  0
SPLINE
  5
1df
100
AcDbEntity
  8
Layer_1
 62
3
100
AcDbSpline
 70
8
 71
3
 72
8
 73
4
 74
0
 40
0
 40
0
 40
0
 40
0
 40
1
 40
1
 40
1
 40
1
 10
22.166150
 20
109.757020
 30
0.0
 10
22.166084
 20
110.049394
 30
0.0
 10
21.929224
 20
110.286468
 30
0.0
 10
21.636850
 20
110.286800
 30
0.0
  0
LINE
  5
1e0
100
AcDbEntity
  8
Layer_1
 62
3
100
AcDbLine
 10
21.636850
 20
110.286800
 30
0.0
 11
13.183450
 21
110.296800
 31
0.0
  0
SPLINE
  5
1e1
100
AcDbEntity
  8
Layer_1
 62
3
100
AcDbSpline
 70
8
 71
3
 72
8
 73
4
 74
0
 40
0
 40
0
 40
0
 40
0
 40
1
 40
1
 40
1
 40
1
 10
13.183450
 20
110.296800
 30
0.0
 10
12.830670
 20
110.297205
 30
0.0
 10
12.477890
 20
110.297408
 30
0.0
 10
12.125110
 20
110.297410
 30
0.0
  0
LINE
  5
1e2
100
AcDbEntity
  8
Layer_1
 62
3
100
AcDbLine
 10
12.125110
 20
110.297410
 30
0.0
 11
-15.614430
 21
110.297520
 31
0.0
  0
SPLINE
  5
1e3
100
AcDbEntity
  8
Layer_1
 62
3
100
AcDbSpline
 70
8
 71
3
 72
8
 73
4
 74
0
 40
0
 40
0
 40
0
 40
0
 40
1
 40
1
 40
1
 40
1
 10
-15.614430
 20
110.297520
 30
0.0
 10
-15.906725
 20
110.297521
 30
0.0
 10
-16.143717
 20
110.060645
 30
0.0
 10
-16.143860
 20
109.768350
 30
0.0
  0
LINE
  5
1e4
100
AcDbEntity
  8
Layer_1
 62
3
100
AcDbLine
 10
-16.143860
 20
109.768350
 30
0.0
 11
-16.144860
 21
106.823000
 31
0.0
  0
SPLINE
  5
1e5
100
AcDbEntity
  8
Layer_1
 62
3
100
AcDbSpline
 70
8
 71
3
 72
8
 73
4
 74
0
 40
0
 40
0
 40
0
 40
0
 40
1
 40
1
 40
1
 40
1
 10
-16.144860
 20
106.823000
 30
0.0
 10
-16.145005
 20
106.530719
 30
0.0
 10
-16.382009
 20
106.293867
 30
0.0
 10
-16.674290
 20
106.293910
 30
0.0
  0
LINE
  5
1e6
100
AcDbEntity
  8
Layer_1
 62
3
100
AcDbLine
 10
-16.674290
 20
106.293910
 30
0.0
 11
-49.475310
 21
106.298910
 31
0.0
  0
SPLINE
  5
1e7
100
AcDbEntity
  8
Layer_1
 62
3
100
AcDbSpline
 70
8
 71
3
 72
8
 73
4
 74
0
 40
0
 40
0
 40
0
 40
0
 40
1
 40
1
 40
1
 40
1
 10
-49.475310
 20
106.298910
 30
0.0
 10
-49.767591
 20
106.298951
 30
0.0
 10
-50.004523
 20
106.535879
 30
0.0
 10
-50.004570
 20
106.828160
 30
0.0
  0
LINE
  5
1e8
100
AcDbEntity
  8
Layer_1
 62
3
100
AcDbLine
 10
-50.004570
 20
106.828160
 30
0.0
 11
-50.005070
 21
109.768360
 31
0.0
  0
SPLINE
  5
1e9
100
AcDbEntity
  8
Layer_1
 62
3
100
AcDbSpline
 70
8
 71
3
 72
8
 73
4
 74
0
 40
0
 40
0
 40
0
 40
0
 40
1
 40
1
 40
1
 40
1
 10
-50.005070
 20
109.768360
 30
0.0
 10
-50.005120
 20
110.060625
 30
0.0
 10
-50.242065
 20
110.297525
 30
0.0
 10
-50.534330
 20
110.297520
 30
0.0
  0
LINE
  5
1ea
100
AcDbEntity
  8
Layer_1
 62
3
100
AcDbLine
 10
-50.534330
 20
110.297520
 30
0.0
 11
-54.339870
 21
110.297490
 31
0.0
  0
SPLINE
  5
1eb
100
AcDbEntity
  8
Layer_1
 62
3
100
AcDbSpline
 70
8
 71
3
 72
8
 73
4
 74
0
 40
0
 40
0
 40
0
 40
0
 40
1
 40
1
 40
1
 40
1
 10
-54.339870
 20
110.297490
 30
0.0
 10
-54.692650
 20
110.297484
 30
0.0
 10
-55.045430
 20
110.297524
 30
0.0
 10
-55.398210
 20
110.297610
 30
0.0
  0
LINE
  5
1ec
100
AcDbEntity
  8
Layer_1
 62
3
100
AcDbLine
 10
-55.398210
 20
110.297610
 30
0.0
 11
-55.958400
 21
110.297760
 31
0.0
  0
SPLINE
  5
1ed
100
AcDbEntity
  8
Layer_1
 62
3
100
AcDbSpline
 70
8
 71
3
 72
8
 73
4
 74
0
 40
0
 40
0
 40
0
 40
0
 40
1
 40
1
 40
1
 40
1
 10
-55.958400
 20
110.297760
 30
0.0
 10
-56.250673
 20
110.297832
 30
0.0
 10
-56.487570
 20
110.534787
 30
0.0
 10
-56.487570
 20
110.827060
 30
0.0
  0
LINE
  5
1ee
100
AcDbEntity
  8
Layer_1
 62
3
100
AcDbLine
 10
-56.487570
 20
110.827060
 30
0.0
 11
-56.487570
 21
128.818720
 31
0.0
  0
SPLINE
  5
1ef
100
AcDbEntity
  8
Layer_1
 62
3
100
AcDbSpline
 70
8
 71
3
 72
8
 73
4
 74
0
 40
0
 40
0
 40
0
 40
0
 40
1
 40
1
 40
1
 40
1
 10
-56.487570
 20
128.818720
 30
0.0
 10
-56.487571
 20
129.171500
 30
0.0
 10
-56.487581
 20
129.524280
 30
0.0
 10
-56.487600
 20
129.877060
 30
0.0
  0
LINE
  5
1f0
100
AcDbEntity
  8
Layer_1
 62
3
100
AcDbLine
 10
-56.487600
 20
129.877060
 30
0.0
 11
-56.488540
 21
147.870720
 31
0.0
  0
SPLINE
  5
1f1
100
AcDbEntity
  8
Layer_1
 62
3
100
AcDbSpline
 70
8
 71
3
 72
8
 73
4
 74
0
 40
0
 40
0
 40
0
 40
0
 40
1
 40
1
 40
1
 40
1
 10
-56.488540
 20
147.870720
 30
0.0
 10
-56.488559
 20
148.223500
 30
0.0
 10
-56.488559
 20
148.576280
 30
0.0
 10
-56.488540
 20
148.929060
 30
0.0
  0
LINE
  5
1f2
100
AcDbEntity
  8
Layer_1
 62
3
100
AcDbLine
 10
-56.488540
 20
148.929060
 30
0.0
 11
-56.487600
 21
166.918720
 31
0.0
  0
SPLINE
  5
1f3
100
AcDbEntity
  8
Layer_1
 62
3
100
AcDbSpline
 70
8
 71
3
 72
8
 73
4
 74
0
 40
0
 40
0
 40
0
 40
0
 40
1
 40
1
 40
1
 40
1
 10
-56.487600
 20
166.918720
 30
0.0
 10
-56.487581
 20
167.271500
 30
0.0
 10
-56.487581
 20
167.624280
 30
0.0
 10
-56.487600
 20
167.977060
 30
0.0
  0
LINE
  5
1f4
100
AcDbEntity
  8
Layer_1
 62
3
100
AcDbLine
 10
-56.487600
 20
167.977060
 30
0.0
 11
-56.488540
 21
185.971720
 31
0.0
  0
SPLINE
  5
1f5
100
AcDbEntity
  8
Layer_1
 62
3
100
AcDbSpline
 70
8
 71
3
 72
8
 73
4
 74
0
 40
0
 40
0
 40
0
 40
0
 40
1
 40
1
 40
1
 40
1
 10
-56.488540
 20
185.971720
 30
0.0
 10
-56.488549
 20
186.112058
 30
0.0
 10
-56.432803
 20
186.246649
 30
0.0
 10
-56.333567
 20
186.345881
 30
0.0
  0
SPLINE
  5
1f6
100
AcDbEntity
  8
Layer_1
 62
3
100
AcDbSpline
 70
8
 71
3
 72
8
 73
4
 74
0
 40
0
 40
0
 40
0
 40
0
 40
1
 40
1
 40
1
 40
1
 10
-56.333567
 20
186.345881
 30
0.0
 10
-56.234332
 20
186.445113
 30
0.0
 10
-56.099738
 20
186.500854
 30
0.0
 10
-55.959400
 20
186.500840
 30
0.0
  0
LINE
  5
1f7
100
AcDbEntity
  8
Layer_1
 62
3
100
AcDbLine
 10
-55.959400
 20
186.500840
 30
0.0
 11
-50.535020
 21
186.500300
 31
0.0
  0
SPLINE
  5
1f8
100
AcDbEntity
  8
Layer_1
 62
3
100
AcDbSpline
 70
8
 71
3
 72
8
 73
4
 74
0
 40
0
 40
0
 40
0
 40
0
 40
1
 40
1
 40
1
 40
1
 10
-50.535020
 20
186.500300
 30
0.0
 10
-50.394680
 20
186.500286
 30
0.0
 10
-50.260083
 20
186.556027
 30
0.0
 10
-50.160843
 20
186.655258
 30
0.0
  0
SPLINE
  5
1f9
100
AcDbEntity
  8
Layer_1
 62
3
100
AcDbSpline
 70
8
 71
3
 72
8
 73
4
 74
0
 40
0
 40
0
 40
0
 40
0
 40
1
 40
1
 40
1
 40
1
 10
-50.160843
 20
186.655258
 30
0.0
 10
-50.061603
 20
186.754488
 30
0.0
 10
-50.005850
 20
186.889080
 30
0.0
 10
-50.005850
 20
187.029420
 30
0.0
  0
LINE
  5
1fa
100
AcDbEntity
  8
Layer_1
 62
3
100
AcDbLine
 10
-50.005850
 20
187.029420
 30
0.0
 11
-50.005820
 21
189.973690
 31
0.0
  0
SPLINE
  5
1fb
100
AcDbEntity
  8
Layer_1
 62
3
100
AcDbSpline
 70
8
 71
3
 72
8
 73
4
 74
0
 40
0
 40
0
 40
0
 40
0
 40
1
 40
1
 40
1
 40
1
 10
-50.005820
 20
189.973690
 30
0.0
 10
-50.005819
 20
190.265947
 30
0.0
 10
-49.768907
 20
190.502872
 30
0.0
 10
-49.476650
 20
190.502890
 30
0.0
  0
LINE
  5
1fc
100
AcDbEntity
  8
Layer_1
 62
3
100
AcDbLine
 10
-49.476650
 20
190.502890
 30
0.0
 11
-16.697370
 21
190.504890
 31
0.0
  0
SPLINE
  5
1fd
100
AcDbEntity
  8
Layer_1
 62
3
100
AcDbSpline
 70
8
 71
3
 72
8
 73
4
 74
0
 40
0
 40
0
 40
0
 40
0
 40
1
 40
1
 40
1
 40
1
 10
-16.697370
 20
190.504890
 30
0.0
 10
-16.405056
 20
190.504911
 30
0.0
 10
-16.168016
 20
190.268064
 30
0.0
 10
-16.167800
 20
189.975750
 30
0.0
  0
LINE
  5
1fe
100
AcDbEntity
  8
Layer_1
 62
3
100
AcDbLine
 10
-16.167800
 20
189.975750
 30
0.0
 11
-16.165800
 21
187.027460
 31
0.0
  0
SPLINE
  5
1ff
100
AcDbEntity
  8
Layer_1
 62
3
100
AcDbSpline
 70
8
 71
3
 72
8
 73
4
 74
0
 40
0
 40
0
 40
0
 40
0
 40
1
 40
1
 40
1
 40
1
 10
-16.165800
 20
187.027460
 30
0.0
 10
-16.165582
 20
186.735151
 30
0.0
 10
-15.928539
 20
186.498314
 30
0.0
 10
-15.636230
 20
186.498350
 30
0.0
  0
LINE
  5
200
100
AcDbEntity
  8
Layer_1
 62
3
100
AcDbLine
 10
-15.636230
 20
186.498350
 30
0.0
 11
10.325460
 21
186.501350
 31
0.0
  0
SPLINE
  5
201
100
AcDbEntity
  8
Layer_1
 62
3
100
AcDbSpline
 70
8
 71
3
 72
8
 73
4
 74
0
 40
0
 40
0
 40
0
 40
0
 40
1
 40
1
 40
1
 40
1
 10
10.325460
 20
186.501350
 30
0.0
 10
10.678240
 20
186.501388
 30
0.0
 10
11.031020
 20
186.501652
 30
0.0
 10
11.383800
 20
186.502140
 30
0.0
  0
LINE
  5
202
100
AcDbEntity
  8
Layer_1
 62
3
100
AcDbLine
 10
11.383800
 20
186.502140
 30
0.0
 11
19.351110
 21
186.513240
 31
0.0
  0
SPLINE
  5
203
100
AcDbEntity
  8
Layer_1
 62
3
100
AcDbSpline
 70
8
 71
3
 72
8
 73
4
 74
0
 40
0
 40
0
 40
0
 40
0
 40
1
 40
1
 40
1
 40
1
 10
19.351110
 20
186.513240
 30
0.0
 10
19.643501
 20
186.513645
 30
0.0
 10
19.880337
 20
186.750749
 30
0.0
 10
19.880410
 20
187.043140
 30
0.0
  0
LINE
  5
204
100
AcDbEntity
  8
Layer_1
 62
3
100
AcDbLine
 10
19.880410
 20
187.043140
 30
0.0
 11
19.879650
 21
187.042430
 31
0.0
  0
LINE
  5
205
100
AcDbEntity
  8
Layer_1
 62
3
100
AcDbLine
 10
266.679250
 20
110.826590
 30
0.0
 11
266.679250
 21
128.818250
 31
0.0
  0
SPLINE
  5
206
100
AcDbEntity
  8
Layer_1
 62
3
100
AcDbSpline
 70
8
 71
3
 72
8
 73
4
 74
0
 40
0
 40
0
 40
0
 40
0
 40
1
 40
1
 40
1
 40
1
 10
266.679250
 20
128.818250
 30
0.0
 10
266.679251
 20
129.171030
 30
0.0
 10
266.679258
 20
129.523810
 30
0.0
 10
266.679270
 20
129.876590
 30
0.0
  0
LINE
  5
207
100
AcDbEntity
  8
Layer_1
 62
3
100
AcDbLine
 10
266.679270
 20
129.876590
 30
0.0
 11
266.680230
 21
160.644820
 31
0.0
  0
SPLINE
  5
208
100
AcDbEntity
  8
Layer_1
 62
3
100
AcDbSpline
 70
8
 71
3
 72
8
 73
4
 74
0
 40
0
 40
0
 40
0
 40
0
 40
1
 40
1
 40
1
 40
1
 10
266.680230
 20
160.644820
 30
0.0
 10
266.680242
 20
160.997600
 30
0.0
 10
266.680249
 20
161.350380
 30
0.0
 10
266.680250
 20
161.703160
 30
0.0
  0
LINE
  5
209
100
AcDbEntity
  8
Layer_1
 62
3
100
AcDbLine
 10
266.680250
 20
161.703160
 30
0.0
 11
266.680250
 21
185.971250
 31
0.0
  0
SPLINE
  5
20a
100
AcDbEntity
  8
Layer_1
 62
3
100
AcDbSpline
 70
8
 71
3
 72
8
 73
4
 74
0
 40
0
 40
0
 40
0
 40
0
 40
1
 40
1
 40
1
 40
1
 10
266.680250
 20
185.971250
 30
0.0
 10
266.680251
 20
186.111593
 30
0.0
 10
266.624499
 20
186.246188
 30
0.0
 10
266.525259
 20
186.345423
 30
0.0
  0
SPLINE
  5
20b
100
AcDbEntity
  8
Layer_1
 62
3
100
AcDbSpline
 70
8
 71
3
 72
8
 73
4
 74
0
 40
0
 40
0
 40
0
 40
0
 40
1
 40
1
 40
1
 40
1
 10
266.525259
 20
186.345423
 30
0.0
 10
266.426020
 20
186.444659
 30
0.0
 10
266.291423
 20
186.500406
 30
0.0
 10
266.151080
 20
186.500400
 30
0.0
  0
LINE
  5
20c
100
AcDbEntity
  8
Layer_1
 62
3
100
AcDbLine
 10
266.151080
 20
186.500400
 30
0.0
 11
260.733430
 21
186.500200
 31
0.0
  0
SPLINE
  5
20d
100
AcDbEntity
  8
Layer_1
 62
3
100
AcDbSpline
 70
8
 71
3
 72
8
 73
4
 74
0
 40
0
 40
0
 40
0
 40
0
 40
1
 40
1
 40
1
 40
1
 10
260.733430
 20
186.500200
 30
0.0
 10
260.593090
 20
186.500193
 30
0.0
 10
260.458497
 20
186.555941
 30
0.0
 10
260.359264
 20
186.655178
 30
0.0
  0
SPLINE
  5
20e
100
AcDbEntity
  8
Layer_1
 62
3
100
AcDbSpline
 70
8
 71
3
 72
8
 73
4
 74
0
 40
0
 40
0
 40
0
 40
0
 40
1
 40
1
 40
1
 40
1
 10
260.359264
 20
186.655178
 30
0.0
 10
260.260031
 20
186.754415
 30
0.0
 10
260.204288
 20
186.889010
 30
0.0
 10
260.204300
 20
187.029350
 30
0.0
  0
LINE
  5
20f
100
AcDbEntity
  8
Layer_1
 62
3
100
AcDbLine
 10
260.204300
 20
187.029350
 30
0.0
 11
260.204550
 21
189.975420
 31
0.0
  0
SPLINE
  5
210
100
AcDbEntity
  8
Layer_1
 62
3
100
AcDbSpline
 70
8
 71
3
 72
8
 73
4
 74
0
 40
0
 40
0
 40
0
 40
0
 40
1
 40
1
 40
1
 40
1
 10
260.204550
 20
189.975420
 30
0.0
 10
260.204563
 20
190.115762
 30
0.0
 10
260.148821
 20
190.250360
 30
0.0
 10
260.049588
 20
190.349600
 30
0.0
  0
SPLINE
  5
211
100
AcDbEntity
  8
Layer_1
 62
3
100
AcDbSpline
 70
8
 71
3
 72
8
 73
4
 74
0
 40
0
 40
0
 40
0
 40
0
 40
1
 40
1
 40
1
 40
1
 10
260.049588
 20
190.349600
 30
0.0
 10
259.950355
 20
190.448840
 30
0.0
 10
259.815762
 20
190.504592
 30
0.0
 10
259.675420
 20
190.504590
 30
0.0
  0
LINE
  5
212
100
AcDbEntity
  8
Layer_1
 62
3
100
AcDbLine
 10
259.675420
 20
190.504590
 30
0.0
 11
229.649320
 21
190.504450
 31
0.0
  0
SPLINE
  5
213
100
AcDbEntity
  8
Layer_1
 62
3
100
AcDbSpline
 70
8
 71
3
 72
8
 73
4
 74
0
 40
0
 40
0
 40
0
 40
0
 40
1
 40
1
 40
1
 40
1
 10
229.649320
 20
190.504450
 30
0.0
 10
229.508983
 20
190.504450
 30
0.0
 10
229.374394
 20
190.448696
 30
0.0
 10
229.275169
 20
190.349455
 30
0.0
  0
SPLINE
  5
214
100
AcDbEntity
  8
Layer_1
 62
3
100
AcDbSpline
 70
8
 71
3
 72
8
 73
4
 74
0
 40
0
 40
0
 40
0
 40
0
 40
1
 40
1
 40
1
 40
1
 10
229.275169
 20
190.349455
 30
0.0
 10
229.175943
 20
190.250214
 30
0.0
 10
229.120209
 20
190.115617
 30
0.0
 10
229.120230
 20
189.975280
 30
0.0
  0
LINE
  5
215
100
AcDbEntity
  8
Layer_1
 62
3
100
AcDbLine
 10
229.120230
 20
189.975280
 30
0.0
 11
229.120670
 21
187.028460
 31
0.0
  0
SPLINE
  5
216
100
AcDbEntity
  8
Layer_1
 62
3
100
AcDbSpline
 70
8
 71
3
 72
8
 73
4
 74
0
 40
0
 40
0
 40
0
 40
0
 40
1
 40
1
 40
1
 40
1
 10
229.120670
 20
187.028460
 30
0.0
 10
229.120692
 20
186.888125
 30
0.0
 10
229.064957
 20
186.753531
 30
0.0
 10
228.965730
 20
186.654295
 30
0.0
  0
SPLINE
  5
217
100
AcDbEntity
  8
Layer_1
 62
3
100
AcDbSpline
 70
8
 71
3
 72
8
 73
4
 74
0
 40
0
 40
0
 40
0
 40
0
 40
1
 40
1
 40
1
 40
1
 10
228.965730
 20
186.654295
 30
0.0
 10
228.866503
 20
186.555059
 30
0.0
 10
228.731915
 20
186.499312
 30
0.0
 10
228.591580
 20
186.499320
 30
0.0
  0
LINE
  5
218
100
AcDbEntity
  8
Layer_1
 62
3
100
AcDbLine
 10
228.591580
 20
186.499320
 30
0.0
 11
193.600240
 21
186.501320
 31
0.0
  0
SPLINE
  5
219
100
AcDbEntity
  8
Layer_1
 62
3
100
AcDbSpline
 70
8
 71
3
 72
8
 73
4
 74
0
 40
0
 40
0
 40
0
 40
0
 40
1
 40
1
 40
1
 40
1
 10
193.600240
 20
186.501320
 30
0.0
 10
193.247460
 20
186.501340
 30
0.0
 10
192.894680
 20
186.501350
 30
0.0
 10
192.541900
 20
186.501350
 30
0.0
  0
LINE
  5
21a
100
AcDbEntity
  8
Layer_1
 62
3
100
AcDbLine
 10
192.541900
 20
186.501350
 30
0.0
 11
176.539780
 21
186.501350
 31
0.0
  0
SPLINE
  5
21b
100
AcDbEntity
  8
Layer_1
 62
3
100
AcDbSpline
 70
8
 71
3
 72
8
 73
4
 74
0
 40
0
 40
0
 40
0
 40
0
 40
1
 40
1
 40
1
 40
1
 10
176.539780
 20
186.501350
 30
0.0
 10
176.399459
 20
186.501348
 30
0.0
 10
176.264888
 20
186.557107
 30
0.0
 10
176.165690
 20
186.656354
 30
0.0
  0
SPLINE
  5
21c
100
AcDbEntity
  8
Layer_1
 62
3
100
AcDbSpline
 70
8
 71
3
 72
8
 73
4
 74
0
 40
0
 40
0
 40
0
 40
0
 40
1
 40
1
 40
1
 40
1
 10
176.165690
 20
186.656354
 30
0.0
 10
176.066492
 20
186.755600
 30
0.0
 10
176.010799
 20
186.890199
 30
0.0
 10
176.010870
 20
187.030520
 30
0.0
  0
LINE
  5
21d
100
AcDbEntity
  8
Layer_1
 62
3
100
AcDbLine
 10
176.010870
 20
187.030520
 30
0.0
 11
176.011870
 21
189.975640
 31
0.0
  0
SPLINE
  5
21e
100
AcDbEntity
  8
Layer_1
 62
3
100
AcDbSpline
 70
8
 71
3
 72
8
 73
4
 74
0
 40
0
 40
0
 40
0
 40
0
 40
1
 40
1
 40
1
 40
1
 10
176.011870
 20
189.975640
 30
0.0
 10
176.011942
 20
190.115963
 30
0.0
 10
175.956249
 20
190.250562
 30
0.0
 10
175.857052
 20
190.349811
 30
0.0
  0
SPLINE
  5
21f
100
AcDbEntity
  8
Layer_1
 62
3
100
AcDbSpline
 70
8
 71
3
 72
8
 73
4
 74
0
 40
0
 40
0
 40
0
 40
0
 40
1
 40
1
 40
1
 40
1
 10
175.857052
 20
190.349811
 30
0.0
 10
175.757854
 20
190.449059
 30
0.0
 10
175.623283
 20
190.504820
 30
0.0
 10
175.482960
 20
190.504820
 30
0.0
  0
LINE
  5
220
100
AcDbEntity
  8
Layer_1
 62
3
100
AcDbLine
 10
175.482960
 20
190.504820
 30
0.0
 11
141.134210
 21
190.505210
 31
0.0
  0
SPLINE
  5
221
100
AcDbEntity
  8
Layer_1
 62
3
100
AcDbSpline
 70
8
 71
3
 72
8
 73
4
 74
0
 40
0
 40
0
 40
0
 40
0
 40
1
 40
1
 40
1
 40
1
 10
141.134210
 20
190.505210
 30
0.0
 10
140.993870
 20
190.505212
 30
0.0
 10
140.859278
 20
190.449461
 30
0.0
 10
140.760046
 20
190.350223
 30
0.0
  0
SPLINE
  5
222
100
AcDbEntity
  8
Layer_1
 62
3
100
AcDbSpline
 70
8
 71
3
 72
8
 73
4
 74
0
 40
0
 40
0
 40
0
 40
0
 40
1
 40
1
 40
1
 40
1
 10
140.760046
 20
190.350223
 30
0.0
 10
140.660814
 20
190.250985
 30
0.0
 10
140.605070
 20
190.116390
 30
0.0
 10
140.605080
 20
189.976050
 30
0.0
  0
LINE
  5
223
100
AcDbEntity
  8
Layer_1
 62
3
100
AcDbLine
 10
140.605080
 20
189.976050
 30
0.0
 11
140.605280
 21
187.027680
 31
0.0
  0
SPLINE
  5
224
100
AcDbEntity
  8
Layer_1
 62
3
100
AcDbSpline
 70
8
 71
3
 72
8
 73
4
 74
0
 40
0
 40
0
 40
0
 40
0
 40
1
 40
1
 40
1
 40
1
 10
140.605280
 20
187.027680
 30
0.0
 10
140.605290
 20
186.887378
 30
0.0
 10
140.549534
 20
186.752824
 30
0.0
 10
140.450290
 20
186.653651
 30
0.0
  0
SPLINE
  5
225
100
AcDbEntity
  8
Layer_1
 62
3
100
AcDbSpline
 70
8
 71
3
 72
8
 73
4
 74
0
 40
0
 40
0
 40
0
 40
0
 40
1
 40
1
 40
1
 40
1
 10
140.450290
 20
186.653651
 30
0.0
 10
140.351046
 20
186.554478
 30
0.0
 10
140.216452
 20
186.498819
 30
0.0
 10
140.076150
 20
186.498930
 30
0.0
  0
LINE
  5
226
100
AcDbEntity
  8
Layer_1
 62
3
100
AcDbLine
 10
140.076150
 20
186.498930
 30
0.0
 11
138.609260
 21
186.499930
 31
0.0
  0
SPLINE
  5
227
100
AcDbEntity
  8
Layer_1
 62
3
100
AcDbSpline
 70
8
 71
3
 72
8
 73
4
 74
0
 40
0
 40
0
 40
0
 40
0
 40
1
 40
1
 40
1
 40
1
 10
138.609260
 20
186.499930
 30
0.0
 10
138.468954
 20
186.500042
 30
0.0
 10
138.334356
 20
186.444384
 30
0.0
 10
138.235105
 20
186.345212
 30
0.0
  0
SPLINE
  5
228
100
AcDbEntity
  8
Layer_1
 62
3
100
AcDbSpline
 70
8
 71
3
 72
8
 73
4
 74
0
 40
0
 40
0
 40
0
 40
0
 40
1
 40
1
 40
1
 40
1
 10
138.235105
 20
186.345212
 30
0.0
 10
138.135854
 20
186.246040
 30
0.0
 10
138.080089
 20
186.111486
 30
0.0
 10
138.080090
 20
185.971180
 30
0.0
  0
LINE
  5
229
100
AcDbEntity
  8
Layer_1
 62
3
100
AcDbLine
 10
138.080090
 20
185.971180
 30
0.0
 11
138.080090
 21
167.976520
 31
0.0
  0
SPLINE
  5
22a
100
AcDbEntity
  8
Layer_1
 62
3
100
AcDbSpline
 70
8
 71
3
 72
8
 73
4
 74
0
 40
0
 40
0
 40
0
 40
0
 40
1
 40
1
 40
1
 40
1
 10
138.080090
 20
167.976520
 30
0.0
 10
138.080089
 20
167.836175
 30
0.0
 10
138.135841
 20
167.701578
 30
0.0
 10
138.235079
 20
167.602339
 30
0.0
  0
SPLINE
  5
22b
100
AcDbEntity
  8
Layer_1
 62
3
100
AcDbSpline
 70
8
 71
3
 72
8
 73
4
 74
0
 40
0
 40
0
 40
0
 40
0
 40
1
 40
1
 40
1
 40
1
 10
138.235079
 20
167.602339
 30
0.0
 10
138.334318
 20
167.503101
 30
0.0
 10
138.468915
 20
167.447349
 30
0.0
 10
138.609260
 20
167.447350
 30
0.0
  0
LINE
  5
22c
100
AcDbEntity
  8
Layer_1
 62
3
100
AcDbLine
 10
138.609260
 20
167.447350
 30
0.0
 11
142.313920
 21
167.447350
 31
0.0
  0
SPLINE
  5
22d
100
AcDbEntity
  8
Layer_1
 62
3
100
AcDbSpline
 70
8
 71
3
 72
8
 73
4
 74
0
 40
0
 40
0
 40
0
 40
0
 40
1
 40
1
 40
1
 40
1
 10
142.313920
 20
167.447350
 30
0.0
 10
142.454265
 20
167.447351
 30
0.0
 10
142.588862
 20
167.391599
 30
0.0
 10
142.688101
 20
167.292361
 30
0.0
  0
SPLINE
  5
22e
100
AcDbEntity
  8
Layer_1
 62
3
100
AcDbSpline
 70
8
 71
3
 72
8
 73
4
 74
0
 40
0
 40
0
 40
0
 40
0
 40
1
 40
1
 40
1
 40
1
 10
142.688101
 20
167.292361
 30
0.0
 10
142.787339
 20
167.193122
 30
0.0
 10
142.843091
 20
167.058525
 30
0.0
 10
142.843090
 20
166.918180
 30
0.0
  0
LINE
  5
22f
100
AcDbEntity
  8
Layer_1
 62
3
100
AcDbLine
 10
142.843090
 20
166.918180
 30
0.0
 11
142.843090
 21
148.926520
 31
0.0
  0
SPLINE
  5
230
100
AcDbEntity
  8
Layer_1
 62
3
100
AcDbSpline
 70
8
 71
3
 72
8
 73
4
 74
0
 40
0
 40
0
 40
0
 40
0
 40
1
 40
1
 40
1
 40
1
 10
142.843090
 20
148.926520
 30
0.0
 10
142.843089
 20
148.786175
 30
0.0
 10
142.898841
 20
148.651578
 30
0.0
 10
142.998079
 20
148.552339
 30
0.0
  0
SPLINE
  5
231
100
AcDbEntity
  8
Layer_1
 62
3
100
AcDbSpline
 70
8
 71
3
 72
8
 73
4
 74
0
 40
0
 40
0
 40
0
 40
0
 40
1
 40
1
 40
1
 40
1
 10
142.998079
 20
148.552339
 30
0.0
 10
143.097318
 20
148.453101
 30
0.0
 10
143.231915
 20
148.397349
 30
0.0
 10
143.372260
 20
148.397350
 30
0.0
  0
LINE
  5
232
100
AcDbEntity
  8
Layer_1
 62
3
100
AcDbLine
 10
143.372260
 20
148.397350
 30
0.0
 11
151.838920
 21
148.397350
 31
0.0
  0
SPLINE
  5
233
100
AcDbEntity
  8
Layer_1
 62
3
100
AcDbSpline
 70
8
 71
3
 72
8
 73
4
 74
0
 40
0
 40
0
 40
0
 40
0
 40
1
 40
1
 40
1
 40
1
 10
151.838920
 20
148.397350
 30
0.0
 10
151.979265
 20
148.397351
 30
0.0
 10
152.113862
 20
148.341599
 30
0.0
 10
152.213101
 20
148.242361
 30
0.0
  0
SPLINE
  5
234
100
AcDbEntity
  8
Layer_1
 62
3
100
AcDbSpline
 70
8
 71
3
 72
8
 73
4
 74
0
 40
0
 40
0
 40
0
 40
0
 40
1
 40
1
 40
1
 40
1
 10
152.213101
 20
148.242361
 30
0.0
 10
152.312339
 20
148.143122
 30
0.0
 10
152.368091
 20
148.008525
 30
0.0
 10
152.368090
 20
147.868180
 30
0.0
  0
LINE
  5
235
100
AcDbEntity
  8
Layer_1
 62
3
100
AcDbLine
 10
152.368090
 20
147.868180
 30
0.0
 11
152.368090
 21
129.878520
 31
0.0
  0
SPLINE
  5
236
100
AcDbEntity
  8
Layer_1
 62
3
100
AcDbSpline
 70
8
 71
3
 72
8
 73
4
 74
0
 40
0
 40
0
 40
0
 40
0
 40
1
 40
1
 40
1
 40
1
 10
152.368090
 20
129.878520
 30
0.0
 10
152.368091
 20
129.738175
 30
0.0
 10
152.312339
 20
129.603578
 30
0.0
 10
152.213101
 20
129.504339
 30
0.0
  0
SPLINE
  5
237
100
AcDbEntity
  8
Layer_1
 62
3
100
AcDbSpline
 70
8
 71
3
 72
8
 73
4
 74
0
 40
0
 40
0
 40
0
 40
0
 40
1
 40
1
 40
1
 40
1
 10
152.213101
 20
129.504339
 30
0.0
 10
152.113862
 20
129.405101
 30
0.0
 10
151.979265
 20
129.349349
 30
0.0
 10
151.838920
 20
129.349350
 30
0.0
  0
LINE
  5
238
100
AcDbEntity
  8
Layer_1
 62
3
100
AcDbLine
 10
151.838920
 20
129.349350
 30
0.0
 11
143.372260
 21
129.349350
 31
0.0
  0
SPLINE
  5
239
100
AcDbEntity
  8
Layer_1
 62
3
100
AcDbSpline
 70
8
 71
3
 72
8
 73
4
 74
0
 40
0
 40
0
 40
0
 40
0
 40
1
 40
1
 40
1
 40
1
 10
143.372260
 20
129.349350
 30
0.0
 10
143.231915
 20
129.349351
 30
0.0
 10
143.097318
 20
129.293599
 30
0.0
 10
142.998079
 20
129.194361
 30
0.0
  0
SPLINE
  5
23a
100
AcDbEntity
  8
Layer_1
 62
3
100
AcDbSpline
 70
8
 71
3
 72
8
 73
4
 74
0
 40
0
 40
0
 40
0
 40
0
 40
1
 40
1
 40
1
 40
1
 10
142.998079
 20
129.194361
 30
0.0
 10
142.898841
 20
129.095122
 30
0.0
 10
142.843089
 20
128.960525
 30
0.0
 10
142.843090
 20
128.820180
 30
0.0
  0
LINE
  5
23b
100
AcDbEntity
  8
Layer_1
 62
3
100
AcDbLine
 10
142.843090
 20
128.820180
 30
0.0
 11
142.843090
 21
110.826520
 31
0.0
  0
SPLINE
  5
23c
100
AcDbEntity
  8
Layer_1
 62
3
100
AcDbSpline
 70
8
 71
3
 72
8
 73
4
 74
0
 40
0
 40
0
 40
0
 40
0
 40
1
 40
1
 40
1
 40
1
 10
142.843090
 20
110.826520
 30
0.0
 10
142.843088
 20
110.534262
 30
0.0
 10
143.080002
 20
110.297335
 30
0.0
 10
143.372260
 20
110.297320
 30
0.0
  0
LINE
  5
23d
100
AcDbEntity
  8
Layer_1
 62
3
100
AcDbLine
 10
143.372260
 20
110.297320
 30
0.0
 11
147.319710
 21
110.297100
 31
0.0
  0
SPLINE
  5
23e
100
AcDbEntity
  8
Layer_1
 62
3
100
AcDbSpline
 70
8
 71
3
 72
8
 73
4
 74
0
 40
0
 40
0
 40
0
 40
0
 40
1
 40
1
 40
1
 40
1
 10
147.319710
 20
110.297100
 30
0.0
 10
147.611971
 20
110.297085
 30
0.0
 10
147.848890
 20
110.060161
 30
0.0
 10
147.848900
 20
109.767900
 30
0.0
  0
LINE
  5
23f
100
AcDbEntity
  8
Layer_1
 62
3
100
AcDbLine
 10
147.848900
 20
109.767900
 30
0.0
 11
147.849020
 21
106.822550
 31
0.0
  0
SPLINE
  5
240
100
AcDbEntity
  8
Layer_1
 62
3
100
AcDbSpline
 70
8
 71
3
 72
8
 73
4
 74
0
 40
0
 40
0
 40
0
 40
0
 40
1
 40
1
 40
1
 40
1
 10
147.849020
 20
106.822550
 30
0.0
 10
147.849031
 20
106.530296
 30
0.0
 10
148.085956
 20
106.293384
 30
0.0
 10
148.378210
 20
106.293390
 30
0.0
  0
LINE
  5
241
100
AcDbEntity
  8
Layer_1
 62
3
100
AcDbLine
 10
148.378210
 20
106.293390
 30
0.0
 11
182.726960
 21
106.293910
 31
0.0
  0
SPLINE
  5
242
100
AcDbEntity
  8
Layer_1
 62
3
100
AcDbSpline
 70
8
 71
3
 72
8
 73
4
 74
0
 40
0
 40
0
 40
0
 40
0
 40
1
 40
1
 40
1
 40
1
 10
182.726960
 20
106.293910
 30
0.0
 10
182.867282
 20
106.293910
 30
0.0
 10
183.001854
 20
106.349671
 30
0.0
 10
183.101051
 20
106.448920
 30
0.0
  0
SPLINE
  5
243
100
AcDbEntity
  8
Layer_1
 62
3
100
AcDbSpline
 70
8
 71
3
 72
8
 73
4
 74
0
 40
0
 40
0
 40
0
 40
0
 40
1
 40
1
 40
1
 40
1
 10
183.101051
 20
106.448920
 30
0.0
 10
183.200249
 20
106.548168
 30
0.0
 10
183.255942
 20
106.682768
 30
0.0
 10
183.255870
 20
106.823090
 30
0.0
  0
LINE
  5
244
100
AcDbEntity
  8
Layer_1
 62
3
100
AcDbLine
 10
183.255870
 20
106.823090
 30
0.0
 11
183.254870
 21
109.764980
 31
0.0
  0
SPLINE
  5
245
100
AcDbEntity
  8
Layer_1
 62
3
100
AcDbSpline
 70
8
 71
3
 72
8
 73
4
 74
0
 40
0
 40
0
 40
0
 40
0
 40
1
 40
1
 40
1
 40
1
 10
183.254870
 20
109.764980
 30
0.0
 10
183.254800
 20
109.905312
 30
0.0
 10
183.310490
 20
110.039922
 30
0.0
 10
183.409684
 20
110.139187
 30
0.0
  0
SPLINE
  5
246
100
AcDbEntity
  8
Layer_1
 62
3
100
AcDbSpline
 70
8
 71
3
 72
8
 73
4
 74
0
 40
0
 40
0
 40
0
 40
0
 40
1
 40
1
 40
1
 40
1
 10
183.409684
 20
110.139187
 30
0.0
 10
183.508878
 20
110.238453
 30
0.0
 10
183.643448
 20
110.294239
 30
0.0
 10
183.783780
 20
110.294270
 30
0.0
  0
LINE
  5
247
100
AcDbEntity
  8
Layer_1
 62
3
100
AcDbLine
 10
183.783780
 20
110.294270
 30
0.0
 11
195.442280
 21
110.297270
 31
0.0
  0
SPLINE
  5
248
100
AcDbEntity
  8
Layer_1
 62
3
100
AcDbSpline
 70
8
 71
3
 72
8
 73
4
 74
0
 40
0
 40
0
 40
0
 40
0
 40
1
 40
1
 40
1
 40
1
 10
195.442280
 20
110.297270
 30
0.0
 10
195.795060
 20
110.297353
 30
0.0
 10
196.147840
 20
110.297393
 30
0.0
 10
196.500620
 20
110.297390
 30
0.0
  0
LINE
  5
249
100
AcDbEntity
  8
Layer_1
 62
3
100
AcDbLine
 10
196.500620
 20
110.297390
 30
0.0
 11
222.985780
 21
110.297160
 31
0.0
  0
SPLINE
  5
24a
100
AcDbEntity
  8
Layer_1
 62
3
100
AcDbSpline
 70
8
 71
3
 72
8
 73
4
 74
0
 40
0
 40
0
 40
0
 40
0
 40
1
 40
1
 40
1
 40
1
 10
222.985780
 20
110.297160
 30
0.0
 10
223.338560
 20
110.297212
 30
0.0
 10
223.691340
 20
110.296879
 30
0.0
 10
224.044120
 20
110.296160
 30
0.0
  0
LINE
  5
24b
100
AcDbEntity
  8
Layer_1
 62
3
100
AcDbLine
 10
224.044120
 20
110.296160
 30
0.0
 11
228.591580
 21
110.286160
 31
0.0
  0
SPLINE
  5
24c
100
AcDbEntity
  8
Layer_1
 62
3
100
AcDbSpline
 70
8
 71
3
 72
8
 73
4
 74
0
 40
0
 40
0
 40
0
 40
0
 40
1
 40
1
 40
1
 40
1
 10
228.591580
 20
110.286160
 30
0.0
 10
228.884008
 20
110.285521
 30
0.0
 10
229.120716
 20
110.048258
 30
0.0
 10
229.120670
 20
109.755830
 30
0.0
  0
LINE
  5
24d
100
AcDbEntity
  8
Layer_1
 62
3
100
AcDbLine
 10
229.120670
 20
109.755830
 30
0.0
 11
229.120220
 21
106.822770
 31
0.0
  0
SPLINE
  5
24e
100
AcDbEntity
  8
Layer_1
 62
3
100
AcDbSpline
 70
8
 71
3
 72
8
 73
4
 74
0
 40
0
 40
0
 40
0
 40
0
 40
1
 40
1
 40
1
 40
1
 10
229.120220
 20
106.822770
 30
0.0
 10
229.120197
 20
106.682431
 30
0.0
 10
229.175930
 20
106.547833
 30
0.0
 10
229.275156
 20
106.448590
 30
0.0
  0
SPLINE
  5
24f
100
AcDbEntity
  8
Layer_1
 62
3
100
AcDbSpline
 70
8
 71
3
 72
8
 73
4
 74
0
 40
0
 40
0
 40
0
 40
0
 40
1
 40
1
 40
1
 40
1
 10
229.275156
 20
106.448590
 30
0.0
 10
229.374382
 20
106.349347
 30
0.0
 10
229.508971
 20
106.293591
 30
0.0
 10
229.649310
 20
106.293590
 30
0.0
  0
LINE
  5
250
100
AcDbEntity
  8
Layer_1
 62
3
100
AcDbLine
 10
229.649310
 20
106.293590
 30
0.0
 11
259.675570
 21
106.293150
 31
0.0
  0
SPLINE
  5
251
100
AcDbEntity
  8
Layer_1
 62
3
100
AcDbSpline
 70
8
 71
3
 72
8
 73
4
 74
0
 40
0
 40
0
 40
0
 40
0
 40
1
 40
1
 40
1
 40
1
 10
259.675570
 20
106.293150
 30
0.0
 10
259.967843
 20
106.293143
 30
0.0
 10
260.204800
 20
106.530037
 30
0.0
 10
260.204870
 20
106.822310
 30
0.0
  0
LINE
  5
252
100
AcDbEntity
  8
Layer_1
 62
3
100
AcDbLine
 10
260.204870
 20
106.822310
 30
0.0
 11
260.205580
 21
109.768490
 31
0.0
  0
SPLINE
  5
253
100
AcDbEntity
  8
Layer_1
 62
3
100
AcDbSpline
 70
8
 71
3
 72
8
 73
4
 74
0
 40
0
 40
0
 40
0
 40
0
 40
1
 40
1
 40
1
 40
1
 10
260.205580
 20
109.768490
 30
0.0
 10
260.205647
 20
110.060764
 30
0.0
 10
260.442606
 20
110.297660
 30
0.0
 10
260.734880
 20
110.297650
 30
0.0
  0
LINE
  5
254
100
AcDbEntity
  8
Layer_1
 62
3
100
AcDbLine
 10
260.734880
 20
110.297650
 30
0.0
 11
264.504030
 21
110.297550
 31
0.0
  0
SPLINE
  5
255
100
AcDbEntity
  8
Layer_1
 62
3
100
AcDbSpline
 70
8
 71
3
 72
8
 73
4
 74
0
 40
0
 40
0
 40
0
 40
0
 40
1
 40
1
 40
1
 40
1
 10
264.504030
 20
110.297550
 30
0.0
 10
264.856810
 20
110.297542
 30
0.0
 10
265.209590
 20
110.297555
 30
0.0
 10
265.562370
 20
110.297590
 30
0.0
  0
LINE
  5
256
100
AcDbEntity
  8
Layer_1
 62
3
100
AcDbLine
 10
265.562370
 20
110.297590
 30
0.0
 11
266.150080
 21
110.297650
 31
0.0
  0
SPLINE
  5
257
100
AcDbEntity
  8
Layer_1
 62
3
100
AcDbSpline
 70
8
 71
3
 72
8
 73
4
 74
0
 40
0
 40
0
 40
0
 40
0
 40
1
 40
1
 40
1
 40
1
 10
266.150080
 20
110.297650
 30
0.0
 10
266.442341
 20
110.297677
 30
0.0
 10
266.679251
 20
110.534609
 30
0.0
 10
266.679250
 20
110.826870
 30
0.0
  0
LINE
  5
258
100
AcDbEntity
  8
Layer_1
 62
3
100
AcDbLine
 10
266.679250
 20
110.826870
 30
0.0
 11
266.679250
 21
110.826590
 31
0.0
  0
SPLINE
  5
259
100
AcDbEntity
  8
Layer_1
 62
3
100
AcDbSpline
 70
8
 71
3
 72
8
 73
4
 74
0
 40
0
 40
0
 40
0
 40
0
 40
1
 40
1
 40
1
 40
1
 10
130.946680
 20
115.646010
 30
0.0
 10
130.946680
 20
115.394054
 30
0.0
 10
131.046769
 20
115.152418
 30
0.0
 10
131.224929
 20
114.974259
 30
0.0
  0
SPLINE
  5
25a
100
AcDbEntity
  8
Layer_1
 62
3
100
AcDbSpline
 70
8
 71
3
 72
8
 73
4
 74
0
 40
0
 40
0
 40
0
 40
0
 40
1
 40
1
 40
1
 40
1
 10
131.224929
 20
114.974259
 30
0.0
 10
131.403088
 20
114.796099
 30
0.0
 10
131.644724
 20
114.696010
 30
0.0
 10
131.896680
 20
114.696010
 30
0.0
  0
SPLINE
  5
25b
100
AcDbEntity
  8
Layer_1
 62
3
100
AcDbSpline
 70
8
 71
3
 72
8
 73
4
 74
0
 40
0
 40
0
 40
0
 40
0
 40
1
 40
1
 40
1
 40
1
 10
131.896680
 20
114.696010
 30
0.0
 10
132.148636
 20
114.696010
 30
0.0
 10
132.390272
 20
114.796099
 30
0.0
 10
132.568431
 20
114.974259
 30
0.0
  0
SPLINE
  5
25c
100
AcDbEntity
  8
Layer_1
 62
3
100
AcDbSpline
 70
8
 71
3
 72
8
 73
4
 74
0
 40
0
 40
0
 40
0
 40
0
 40
1
 40
1
 40
1
 40
1
 10
132.568431
 20
114.974259
 30
0.0
 10
132.746591
 20
115.152418
 30
0.0
 10
132.846680
 20
115.394054
 30
0.0
 10
132.846680
 20
115.646010
 30
0.0
  0
SPLINE
  5
25d
100
AcDbEntity
  8
Layer_1
 62
3
100
AcDbSpline
 70
8
 71
3
 72
8
 73
4
 74
0
 40
0
 40
0
 40
0
 40
0
 40
1
 40
1
 40
1
 40
1
 10
132.846680
 20
115.646010
 30
0.0
 10
132.846680
 20
115.897966
 30
0.0
 10
132.746591
 20
116.139602
 30
0.0
 10
132.568431
 20
116.317761
 30
0.0
  0
SPLINE
  5
25e
100
AcDbEntity
  8
Layer_1
 62
3
100
AcDbSpline
 70
8
 71
3
 72
8
 73
4
 74
0
 40
0
 40
0
 40
0
 40
0
 40
1
 40
1
 40
1
 40
1
 10
132.568431
 20
116.317761
 30
0.0
 10
132.390272
 20
116.495921
 30
0.0
 10
132.148636
 20
116.596010
 30
0.0
 10
131.896680
 20
116.596010
 30
0.0
  0
SPLINE
  5
25f
100
AcDbEntity
  8
Layer_1
 62
3
100
AcDbSpline
 70
8
 71
3
 72
8
 73
4
 74
0
 40
0
 40
0
 40
0
 40
0
 40
1
 40
1
 40
1
 40
1
 10
131.896680
 20
116.596010
 30
0.0
 10
131.644724
 20
116.596010
 30
0.0
 10
131.403088
 20
116.495921
 30
0.0
 10
131.224929
 20
116.317761
 30
0.0
  0
SPLINE
  5
260
100
AcDbEntity
  8
Layer_1
 62
3
100
AcDbSpline
 70
8
 71
3
 72
8
 73
4
 74
0
 40
0
 40
0
 40
0
 40
0
 40
1
 40
1
 40
1
 40
1
 10
131.224929
 20
116.317761
 30
0.0
 10
131.046769
 20
116.139602
 30
0.0
 10
130.946680
 20
115.897966
 30
0.0
 10
130.946680
 20
115.646010
 30
0.0
  0
LINE
  5
261
100
AcDbEntity
  8
Layer_1
 62
3
100
AcDbLine
 10
130.946680
 20
115.646010
 30
0.0
 11
130.946680
 21
115.646010
 31
0.0
  0
SPLINE
  5
262
100
AcDbEntity
  8
Layer_1
 62
3
100
AcDbSpline
 70
8
 71
3
 72
8
 73
4
 74
0
 40
0
 40
0
 40
0
 40
0
 40
1
 40
1
 40
1
 40
1
 10
75.001773
 20
115.646010
 30
0.0
 10
75.001773
 20
115.394054
 30
0.0
 10
74.901684
 20
115.152418
 30
0.0
 10
74.723524
 20
114.974259
 30
0.0
  0
SPLINE
  5
263
100
AcDbEntity
  8
Layer_1
 62
3
100
AcDbSpline
 70
8
 71
3
 72
8
 73
4
 74
0
 40
0
 40
0
 40
0
 40
0
 40
1
 40
1
 40
1
 40
1
 10
74.723524
 20
114.974259
 30
0.0
 10
74.545365
 20
114.796099
 30
0.0
 10
74.303729
 20
114.696010
 30
0.0
 10
74.051773
 20
114.696010
 30
0.0
  0
SPLINE
  5
264
100
AcDbEntity
  8
Layer_1
 62
3
100
AcDbSpline
 70
8
 71
3
 72
8
 73
4
 74
0
 40
0
 40
0
 40
0
 40
0
 40
1
 40
1
 40
1
 40
1
 10
74.051773
 20
114.696010
 30
0.0
 10
73.799817
 20
114.696010
 30
0.0
 10
73.558181
 20
114.796099
 30
0.0
 10
73.380022
 20
114.974259
 30
0.0
  0
SPLINE
  5
265
100
AcDbEntity
  8
Layer_1
 62
3
100
AcDbSpline
 70
8
 71
3
 72
8
 73
4
 74
0
 40
0
 40
0
 40
0
 40
0
 40
1
 40
1
 40
1
 40
1
 10
73.380022
 20
114.974259
 30
0.0
 10
73.201862
 20
115.152418
 30
0.0
 10
73.101773
 20
115.394054
 30
0.0
 10
73.101773
 20
115.646010
 30
0.0
  0
SPLINE
  5
266
100
AcDbEntity
  8
Layer_1
 62
3
100
AcDbSpline
 70
8
 71
3
 72
8
 73
4
 74
0
 40
0
 40
0
 40
0
 40
0
 40
1
 40
1
 40
1
 40
1
 10
73.101773
 20
115.646010
 30
0.0
 10
73.101773
 20
115.897966
 30
0.0
 10
73.201862
 20
116.139602
 30
0.0
 10
73.380022
 20
116.317761
 30
0.0
  0
SPLINE
  5
267
100
AcDbEntity
  8
Layer_1
 62
3
100
AcDbSpline
 70
8
 71
3
 72
8
 73
4
 74
0
 40
0
 40
0
 40
0
 40
0
 40
1
 40
1
 40
1
 40
1
 10
73.380022
 20
116.317761
 30
0.0
 10
73.558181
 20
116.495921
 30
0.0
 10
73.799817
 20
116.596010
 30
0.0
 10
74.051773
 20
116.596010
 30
0.0
  0
SPLINE
  5
268
100
AcDbEntity
  8
Layer_1
 62
3
100
AcDbSpline
 70
8
 71
3
 72
8
 73
4
 74
0
 40
0
 40
0
 40
0
 40
0
 40
1
 40
1
 40
1
 40
1
 10
74.051773
 20
116.596010
 30
0.0
 10
74.303729
 20
116.596010
 30
0.0
 10
74.545365
 20
116.495921
 30
0.0
 10
74.723524
 20
116.317761
 30
0.0
  0
SPLINE
  5
269
100
AcDbEntity
  8
Layer_1
 62
3
100
AcDbSpline
 70
8
 71
3
 72
8
 73
4
 74
0
 40
0
 40
0
 40
0
 40
0
 40
1
 40
1
 40
1
 40
1
 10
74.723524
 20
116.317761
 30
0.0
 10
74.901684
 20
116.139602
 30
0.0
 10
75.001773
 20
115.897966
 30
0.0
 10
75.001773
 20
115.646010
 30
0.0
  0
LINE
  5
26a
100
AcDbEntity
  8
Layer_1
 62
3
100
AcDbLine
 10
75.001773
 20
115.646010
 30
0.0
 11
75.001773
 21
115.646010
 31
0.0
  0
SPLINE
  5
26b
100
AcDbEntity
  8
Layer_1
 62
3
100
AcDbSpline
 70
8
 71
3
 72
8
 73
4
 74
0
 40
0
 40
0
 40
0
 40
0
 40
1
 40
1
 40
1
 40
1
 10
75.001773
 20
169.564190
 30
0.0
 10
75.001773
 20
169.312234
 30
0.0
 10
74.901684
 20
169.070598
 30
0.0
 10
74.723524
 20
168.892439
 30
0.0
  0
SPLINE
  5
26c
100
AcDbEntity
  8
Layer_1
 62
3
100
AcDbSpline
 70
8
 71
3
 72
8
 73
4
 74
0
 40
0
 40
0
 40
0
 40
0
 40
1
 40
1
 40
1
 40
1
 10
74.723524
 20
168.892439
 30
0.0
 10
74.545365
 20
168.714279
 30
0.0
 10
74.303729
 20
168.614190
 30
0.0
 10
74.051773
 20
168.614190
 30
0.0
  0
SPLINE
  5
26d
100
AcDbEntity
  8
Layer_1
 62
3
100
AcDbSpline
 70
8
 71
3
 72
8
 73
4
 74
0
 40
0
 40
0
 40
0
 40
0
 40
1
 40
1
 40
1
 40
1
 10
74.051773
 20
168.614190
 30
0.0
 10
73.799817
 20
168.614190
 30
0.0
 10
73.558181
 20
168.714279
 30
0.0
 10
73.380022
 20
168.892439
 30
0.0
  0
SPLINE
  5
26e
100
AcDbEntity
  8
Layer_1
 62
3
100
AcDbSpline
 70
8
 71
3
 72
8
 73
4
 74
0
 40
0
 40
0
 40
0
 40
0
 40
1
 40
1
 40
1
 40
1
 10
73.380022
 20
168.892439
 30
0.0
 10
73.201862
 20
169.070598
 30
0.0
 10
73.101773
 20
169.312234
 30
0.0
 10
73.101773
 20
169.564190
 30
0.0
  0
SPLINE
  5
26f
100
AcDbEntity
  8
Layer_1
 62
3
100
AcDbSpline
 70
8
 71
3
 72
8
 73
4
 74
0
 40
0
 40
0
 40
0
 40
0
 40
1
 40
1
 40
1
 40
1
 10
73.101773
 20
169.564190
 30
0.0
 10
73.101773
 20
169.816146
 30
0.0
 10
73.201862
 20
170.057782
 30
0.0
 10
73.380022
 20
170.235941
 30
0.0
  0
SPLINE
  5
270
100
AcDbEntity
  8
Layer_1
 62
3
100
AcDbSpline
 70
8
 71
3
 72
8
 73
4
 74
0
 40
0
 40
0
 40
0
 40
0
 40
1
 40
1
 40
1
 40
1
 10
73.380022
 20
170.235941
 30
0.0
 10
73.558181
 20
170.414101
 30
0.0
 10
73.799817
 20
170.514190
 30
0.0
 10
74.051773
 20
170.514190
 30
0.0
  0
SPLINE
  5
271
100
AcDbEntity
  8
Layer_1
 62
3
100
AcDbSpline
 70
8
 71
3
 72
8
 73
4
 74
0
 40
0
 40
0
 40
0
 40
0
 40
1
 40
1
 40
1
 40
1
 10
74.051773
 20
170.514190
 30
0.0
 10
74.303729
 20
170.514190
 30
0.0
 10
74.545365
 20
170.414101
 30
0.0
 10
74.723524
 20
170.235941
 30
0.0
  0
SPLINE
  5
272
100
AcDbEntity
  8
Layer_1
 62
3
100
AcDbSpline
 70
8
 71
3
 72
8
 73
4
 74
0
 40
0
 40
0
 40
0
 40
0
 40
1
 40
1
 40
1
 40
1
 10
74.723524
 20
170.235941
 30
0.0
 10
74.901684
 20
170.057782
 30
0.0
 10
75.001773
 20
169.816146
 30
0.0
 10
75.001773
 20
169.564190
 30
0.0
  0
LINE
  5
273
100
AcDbEntity
  8
Layer_1
 62
3
100
AcDbLine
 10
75.001773
 20
169.564190
 30
0.0
 11
75.001773
 21
169.564190
 31
0.0
  0
SPLINE
  5
274
100
AcDbEntity
  8
Layer_1
 62
3
100
AcDbSpline
 70
8
 71
3
 72
8
 73
4
 74
0
 40
0
 40
0
 40
0
 40
0
 40
1
 40
1
 40
1
 40
1
 10
130.946680
 20
169.564190
 30
0.0
 10
130.946680
 20
169.312234
 30
0.0
 10
131.046769
 20
169.070598
 30
0.0
 10
131.224929
 20
168.892439
 30
0.0
  0
SPLINE
  5
275
100
AcDbEntity
  8
Layer_1
 62
3
100
AcDbSpline
 70
8
 71
3
 72
8
 73
4
 74
0
 40
0
 40
0
 40
0
 40
0
 40
1
 40
1
 40
1
 40
1
 10
131.224929
 20
168.892439
 30
0.0
 10
131.403088
 20
168.714279
 30
0.0
 10
131.644724
 20
168.614190
 30
0.0
 10
131.896680
 20
168.614190
 30
0.0
  0
SPLINE
  5
276
100
AcDbEntity
  8
Layer_1
 62
3
100
AcDbSpline
 70
8
 71
3
 72
8
 73
4
 74
0
 40
0
 40
0
 40
0
 40
0
 40
1
 40
1
 40
1
 40
1
 10
131.896680
 20
168.614190
 30
0.0
 10
132.148636
 20
168.614190
 30
0.0
 10
132.390272
 20
168.714279
 30
0.0
 10
132.568431
 20
168.892439
 30
0.0
  0
SPLINE
  5
277
100
AcDbEntity
  8
Layer_1
 62
3
100
AcDbSpline
 70
8
 71
3
 72
8
 73
4
 74
0
 40
0
 40
0
 40
0
 40
0
 40
1
 40
1
 40
1
 40
1
 10
132.568431
 20
168.892439
 30
0.0
 10
132.746591
 20
169.070598
 30
0.0
 10
132.846680
 20
169.312234
 30
0.0
 10
132.846680
 20
169.564190
 30
0.0
  0
SPLINE
  5
278
100
AcDbEntity
  8
Layer_1
 62
3
100
AcDbSpline
 70
8
 71
3
 72
8
 73
4
 74
0
 40
0
 40
0
 40
0
 40
0
 40
1
 40
1
 40
1
 40
1
 10
132.846680
 20
169.564190
 30
0.0
 10
132.846680
 20
169.816146
 30
0.0
 10
132.746591
 20
170.057782
 30
0.0
 10
132.568431
 20
170.235941
 30
0.0
  0
SPLINE
  5
279
100
AcDbEntity
  8
Layer_1
 62
3
100
AcDbSpline
 70
8
 71
3
 72
8
 73
4
 74
0
 40
0
 40
0
 40
0
 40
0
 40
1
 40
1
 40
1
 40
1
 10
132.568431
 20
170.235941
 30
0.0
 10
132.390272
 20
170.414101
 30
0.0
 10
132.148636
 20
170.514190
 30
0.0
 10
131.896680
 20
170.514190
 30
0.0
  0
SPLINE
  5
27a
100
AcDbEntity
  8
Layer_1
 62
3
100
AcDbSpline
 70
8
 71
3
 72
8
 73
4
 74
0
 40
0
 40
0
 40
0
 40
0
 40
1
 40
1
 40
1
 40
1
 10
131.896680
 20
170.514190
 30
0.0
 10
131.644724
 20
170.514190
 30
0.0
 10
131.403088
 20
170.414101
 30
0.0
 10
131.224929
 20
170.235941
 30
0.0
  0
SPLINE
  5
27b
100
AcDbEntity
  8
Layer_1
 62
3
100
AcDbSpline
 70
8
 71
3
 72
8
 73
4
 74
0
 40
0
 40
0
 40
0
 40
0
 40
1
 40
1
 40
1
 40
1
 10
131.224929
 20
170.235941
 30
0.0
 10
131.046769
 20
170.057782
 30
0.0
 10
130.946680
 20
169.816146
 30
0.0
 10
130.946680
 20
169.564190
 30
0.0
  0
LINE
  5
27c
100
AcDbEntity
  8
Layer_1
 62
3
100
AcDbLine
 10
130.946680
 20
169.564190
 30
0.0
 11
130.946680
 21
169.564190
 31
0.0
  0
LINE
  5
27d
100
AcDbEntity
  8
Layer_1
 62
3
100
AcDbLine
 10
96.660270
 20
113.813440
 30
0.0
 11
118.329100
 21
113.813440
 31
0.0
  0
SPLINE
  5
27e
100
AcDbEntity
  8
Layer_1
 62
3
100
AcDbSpline
 70
8
 71
3
 72
8
 73
4
 74
0
 40
0
 40
0
 40
0
 40
0
 40
1
 40
1
 40
1
 40
1
 10
118.329100
 20
113.813440
 30
0.0
 10
118.858267
 20
113.813440
 30
0.0
 10
119.387433
 20
113.813223
 30
0.0
 10
119.916600
 20
113.812790
 30
0.0
  0
LINE
  5
27f
100
AcDbEntity
  8
Layer_1
 62
3
100
AcDbLine
 10
119.916600
 20
113.812790
 30
0.0
 11
125.650820
 21
113.807790
 31
0.0
  0
SPLINE
  5
280
100
AcDbEntity
  8
Layer_1
 62
3
100
AcDbSpline
 70
8
 71
3
 72
8
 73
4
 74
0
 40
0
 40
0
 40
0
 40
0
 40
1
 40
1
 40
1
 40
1
 10
125.650820
 20
113.807790
 30
0.0
 10
126.160247
 20
113.807373
 30
0.0
 10
126.649876
 20
113.610440
 30
0.0
 10
127.017720
 20
113.258010
 30
0.0
  0
LINE
  5
281
100
AcDbEntity
  8
Layer_1
 62
3
100
AcDbLine
 10
127.017720
 20
113.258010
 30
0.0
 11
128.820170
 21
111.531090
 31
0.0
  0
SPLINE
  5
282
100
AcDbEntity
  8
Layer_1
 62
3
100
AcDbSpline
 70
8
 71
3
 72
8
 73
4
 74
0
 40
0
 40
0
 40
0
 40
0
 40
1
 40
1
 40
1
 40
1
 10
128.820170
 20
111.531090
 30
0.0
 10
129.187967
 20
111.178702
 30
0.0
 10
129.677706
 20
110.982065
 30
0.0
 10
130.187070
 20
110.982260
 30
0.0
  0
LINE
  5
283
100
AcDbEntity
  8
Layer_1
 62
3
100
AcDbLine
 10
130.187070
 20
110.982260
 30
0.0
 11
139.024140
 21
110.985260
 31
0.0
  0
SPLINE
  5
284
100
AcDbEntity
  8
Layer_1
 62
3
100
AcDbSpline
 70
8
 71
3
 72
8
 73
4
 74
0
 40
0
 40
0
 40
0
 40
0
 40
1
 40
1
 40
1
 40
1
 10
139.024140
 20
110.985260
 30
0.0
 10
139.234650
 20
110.985341
 30
0.0
 10
139.436504
 20
111.069047
 30
0.0
 10
139.585295
 20
111.217962
 30
0.0
  0
SPLINE
  5
285
100
AcDbEntity
  8
Layer_1
 62
3
100
AcDbSpline
 70
8
 71
3
 72
8
 73
4
 74
0
 40
0
 40
0
 40
0
 40
0
 40
1
 40
1
 40
1
 40
1
 10
139.585295
 20
111.217962
 30
0.0
 10
139.734086
 20
111.366876
 30
0.0
 10
139.817624
 20
111.568800
 30
0.0
 10
139.817530
 20
111.779310
 30
0.0
  0
LINE
  5
286
100
AcDbEntity
  8
Layer_1
 62
3
100
AcDbLine
 10
139.817530
 20
111.779310
 30
0.0
 11
139.815530
 21
116.847380
 31
0.0
  0
SPLINE
  5
287
100
AcDbEntity
  8
Layer_1
 62
3
100
AcDbSpline
 70
8
 71
3
 72
8
 73
4
 74
0
 40
0
 40
0
 40
0
 40
0
 40
1
 40
1
 40
1
 40
1
 10
139.815530
 20
116.847380
 30
0.0
 10
139.815303
 20
117.352480
 30
0.0
 10
139.600056
 20
117.833597
 30
0.0
 10
139.223630
 20
118.170390
 30
0.0
  0
LINE
  5
288
100
AcDbEntity
  8
Layer_1
 62
3
100
AcDbLine
 10
139.223630
 20
118.170390
 30
0.0
 11
125.795190
 21
130.184950
 31
0.0
  0
SPLINE
  5
289
100
AcDbEntity
  8
Layer_1
 62
3
100
AcDbSpline
 70
8
 71
3
 72
8
 73
4
 74
0
 40
0
 40
0
 40
0
 40
0
 40
1
 40
1
 40
1
 40
1
 10
125.795190
 20
130.184950
 30
0.0
 10
125.418952
 20
130.521575
 30
0.0
 10
125.204742
 20
131.003106
 30
0.0
 10
125.206650
 20
131.507950
 30
0.0
  0
LINE
  5
28a
100
AcDbEntity
  8
Layer_1
 62
3
100
AcDbLine
 10
125.206650
 20
131.507950
 30
0.0
 11
125.212650
 21
133.041870
 31
0.0
  0
SPLINE
  5
28b
100
AcDbEntity
  8
Layer_1
 62
3
100
AcDbSpline
 70
8
 71
3
 72
8
 73
4
 74
0
 40
0
 40
0
 40
0
 40
0
 40
1
 40
1
 40
1
 40
1
 10
125.212650
 20
133.041870
 30
0.0
 10
125.214656
 20
133.571031
 30
0.0
 10
125.215656
 20
134.100195
 30
0.0
 10
125.215650
 20
134.629360
 30
0.0
  0
LINE
  5
28c
100
AcDbEntity
  8
Layer_1
 62
3
100
AcDbLine
 10
125.215650
 20
134.629360
 30
0.0
 11
125.215180
 21
154.986950
 31
0.0
  0
SPLINE
  5
28d
100
AcDbEntity
  8
Layer_1
 62
3
100
AcDbSpline
 70
8
 71
3
 72
8
 73
4
 74
0
 40
0
 40
0
 40
0
 40
0
 40
1
 40
1
 40
1
 40
1
 10
125.215180
 20
154.986950
 30
0.0
 10
125.215170
 20
155.491424
 30
0.0
 10
125.432672
 20
155.971407
 30
0.0
 10
125.811990
 20
156.303990
 30
0.0
  0
LINE
  5
28e
100
AcDbEntity
  8
Layer_1
 62
3
100
AcDbLine
 10
125.811990
 20
156.303990
 30
0.0
 11
134.253240
 21
163.705240
 31
0.0
  0
SPLINE
  5
28f
100
AcDbEntity
  8
Layer_1
 62
3
100
AcDbSpline
 70
8
 71
3
 72
8
 73
4
 74
0
 40
0
 40
0
 40
0
 40
0
 40
1
 40
1
 40
1
 40
1
 10
134.253240
 20
163.705240
 30
0.0
 10
134.632515
 20
164.037783
 30
0.0
 10
134.849774
 20
164.517866
 30
0.0
 10
134.849260
 20
165.022280
 30
0.0
  0
LINE
  5
290
100
AcDbEntity
  8
Layer_1
 62
3
100
AcDbLine
 10
134.849260
 20
165.022280
 30
0.0
 11
134.840260
 21
174.186240
 31
0.0
  0
SPLINE
  5
291
100
AcDbEntity
  8
Layer_1
 62
3
100
AcDbSpline
 70
8
 71
3
 72
8
 73
4
 74
0
 40
0
 40
0
 40
0
 40
0
 40
1
 40
1
 40
1
 40
1
 10
134.840260
 20
174.186240
 30
0.0
 10
134.839812
 20
174.624746
 30
0.0
 10
134.484207
 20
174.979989
 30
0.0
 10
134.045700
 20
174.979990
 30
0.0
  0
LINE
  5
292
100
AcDbEntity
  8
Layer_1
 62
3
100
AcDbLine
 10
134.045700
 20
174.979990
 30
0.0
 11
130.454580
 21
174.979990
 31
0.0
  0
SPLINE
  5
293
100
AcDbEntity
  8
Layer_1
 62
3
100
AcDbSpline
 70
8
 71
3
 72
8
 73
4
 74
0
 40
0
 40
0
 40
0
 40
0
 40
1
 40
1
 40
1
 40
1
 10
130.454580
 20
174.979990
 30
0.0
 10
129.774518
 20
174.979989
 30
0.0
 10
129.119825
 20
174.721771
 30
0.0
 10
128.622860
 20
174.257540
 30
0.0
  0
LINE
  5
294
100
AcDbEntity
  8
Layer_1
 62
3
100
AcDbLine
 10
128.622860
 20
174.257540
 30
0.0
 11
127.240530
 21
172.966260
 31
0.0
  0
SPLINE
  5
295
100
AcDbEntity
  8
Layer_1
 62
3
100
AcDbSpline
 70
8
 71
3
 72
8
 73
4
 74
0
 40
0
 40
0
 40
0
 40
0
 40
1
 40
1
 40
1
 40
1
 10
127.240530
 20
172.966260
 30
0.0
 10
126.743565
 20
172.502030
 30
0.0
 10
126.088871
 20
172.243815
 30
0.0
 10
125.408810
 20
172.243820
 30
0.0
  0
LINE
  5
296
100
AcDbEntity
  8
Layer_1
 62
3
100
AcDbLine
 10
125.408810
 20
172.243820
 30
0.0
 11
80.579340
 21
172.244140
 31
0.0
  0
SPLINE
  5
297
100
AcDbEntity
  8
Layer_1
 62
3
100
AcDbSpline
 70
8
 71
3
 72
8
 73
4
 74
0
 40
0
 40
0
 40
0
 40
0
 40
1
 40
1
 40
1
 40
1
 10
80.579340
 20
172.244140
 30
0.0
 10
79.899067
 20
172.244147
 30
0.0
 10
79.243956
 20
172.501385
 30
0.0
 10
78.745430
 20
172.964250
 30
0.0
  0
LINE
  5
298
100
AcDbEntity
  8
Layer_1
 62
3
100
AcDbLine
 10
78.745430
 20
172.964250
 30
0.0
 11
77.349970
 21
174.259880
 31
0.0
  0
SPLINE
  5
299
100
AcDbEntity
  8
Layer_1
 62
3
100
AcDbSpline
 70
8
 71
3
 72
8
 73
4
 74
0
 40
0
 40
0
 40
0
 40
0
 40
1
 40
1
 40
1
 40
1
 10
77.349970
 20
174.259880
 30
0.0
 10
76.851444
 20
174.722744
 30
0.0
 10
76.196333
 20
174.979979
 30
0.0
 10
75.516060
 20
174.979980
 30
0.0
  0
LINE
  5
29a
100
AcDbEntity
  8
Layer_1
 62
3
100
AcDbLine
 10
75.516060
 20
174.979980
 30
0.0
 11
71.919940
 21
174.979980
 31
0.0
  0
SPLINE
  5
29b
100
AcDbEntity
  8
Layer_1
 62
3
100
AcDbSpline
 70
8
 71
3
 72
8
 73
4
 74
0
 40
0
 40
0
 40
0
 40
0
 40
1
 40
1
 40
1
 40
1
 10
71.919940
 20
174.979980
 30
0.0
 10
71.481433
 20
174.979979
 30
0.0
 10
71.125828
 20
174.624736
 30
0.0
 10
71.125380
 20
174.186230
 30
0.0
  0
LINE
  5
29c
100
AcDbEntity
  8
Layer_1
 62
3
100
AcDbLine
 10
71.125380
 20
174.186230
 30
0.0
 11
71.116380
 21
165.022270
 31
0.0
  0
SPLINE
  5
29d
100
AcDbEntity
  8
Layer_1
 62
3
100
AcDbSpline
 70
8
 71
3
 72
8
 73
4
 74
0
 40
0
 40
0
 40
0
 40
0
 40
1
 40
1
 40
1
 40
1
 10
71.116380
 20
165.022270
 30
0.0
 10
71.115866
 20
164.517856
 30
0.0
 10
71.333125
 20
164.037773
 30
0.0
 10
71.712400
 20
163.705230
 30
0.0
  0
LINE
  5
29e
100
AcDbEntity
  8
Layer_1
 62
3
100
AcDbLine
 10
71.712400
 20
163.705230
 30
0.0
 11
80.153650
 21
156.303980
 31
0.0
  0
SPLINE
  5
29f
100
AcDbEntity
  8
Layer_1
 62
3
100
AcDbSpline
 70
8
 71
3
 72
8
 73
4
 74
0
 40
0
 40
0
 40
0
 40
0
 40
1
 40
1
 40
1
 40
1
 10
80.153650
 20
156.303980
 30
0.0
 10
80.532968
 20
155.971397
 30
0.0
 10
80.750470
 20
155.491414
 30
0.0
 10
80.750460
 20
154.986940
 30
0.0
  0
LINE
  5
2a0
100
AcDbEntity
  8
Layer_1
 62
3
100
AcDbLine
 10
80.750460
 20
154.986940
 30
0.0
 11
80.749990
 21
134.629350
 31
0.0
  0
SPLINE
  5
2a1
100
AcDbEntity
  8
Layer_1
 62
3
100
AcDbSpline
 70
8
 71
3
 72
8
 73
4
 74
0
 40
0
 40
0
 40
0
 40
0
 40
1
 40
1
 40
1
 40
1
 10
80.749990
 20
134.629350
 30
0.0
 10
80.749984
 20
134.100185
 30
0.0
 10
80.750984
 20
133.571021
 30
0.0
 10
80.752990
 20
133.041860
 30
0.0
  0
LINE
  5
2a2
100
AcDbEntity
  8
Layer_1
 62
3
100
AcDbLine
 10
80.752990
 20
133.041860
 30
0.0
 11
80.758990
 21
131.507940
 31
0.0
  0
SPLINE
  5
2a3
100
AcDbEntity
  8
Layer_1
 62
3
100
AcDbSpline
 70
8
 71
3
 72
8
 73
4
 74
0
 40
0
 40
0
 40
0
 40
0
 40
1
 40
1
 40
1
 40
1
 10
80.758990
 20
131.507940
 30
0.0
 10
80.760898
 20
131.003096
 30
0.0
 10
80.546688
 20
130.521565
 30
0.0
 10
80.170450
 20
130.184940
 30
0.0
  0
LINE
  5
2a4
100
AcDbEntity
  8
Layer_1
 62
3
100
AcDbLine
 10
80.170450
 20
130.184940
 30
0.0
 11
66.740530
 21
118.171080
 31
0.0
  0
SPLINE
  5
2a5
100
AcDbEntity
  8
Layer_1
 62
3
100
AcDbSpline
 70
8
 71
3
 72
8
 73
4
 74
0
 40
0
 40
0
 40
0
 40
0
 40
1
 40
1
 40
1
 40
1
 10
66.740530
 20
118.171080
 30
0.0
 10
66.364104
 20
117.834287
 30
0.0
 10
66.148857
 20
117.353170
 30
0.0
 10
66.148630
 20
116.848070
 30
0.0
  0
LINE
  5
2a6
100
AcDbEntity
  8
Layer_1
 62
3
100
AcDbLine
 10
66.148630
 20
116.848070
 30
0.0
 11
66.146630
 21
111.780000
 31
0.0
  0
SPLINE
  5
2a7
100
AcDbEntity
  8
Layer_1
 62
3
100
AcDbSpline
 70
8
 71
3
 72
8
 73
4
 74
0
 40
0
 40
0
 40
0
 40
0
 40
1
 40
1
 40
1
 40
1
 10
66.146630
 20
111.780000
 30
0.0
 10
66.146536
 20
111.569490
 30
0.0
 10
66.230074
 20
111.367566
 30
0.0
 10
66.378865
 20
111.218652
 30
0.0
  0
SPLINE
  5
2a8
100
AcDbEntity
  8
Layer_1
 62
3
100
AcDbSpline
 70
8
 71
3
 72
8
 73
4
 74
0
 40
0
 40
0
 40
0
 40
0
 40
1
 40
1
 40
1
 40
1
 10
66.378865
 20
111.218652
 30
0.0
 10
66.527656
 20
111.069737
 30
0.0
 10
66.729510
 20
110.986031
 30
0.0
 10
66.940020
 20
110.985950
 30
0.0
  0
LINE
  5
2a9
100
AcDbEntity
  8
Layer_1
 62
3
100
AcDbLine
 10
66.940020
 20
110.985950
 30
0.0
 11
75.777090
 21
110.982950
 31
0.0
  0
SPLINE
  5
2aa
100
AcDbEntity
  8
Layer_1
 62
3
100
AcDbSpline
 70
8
 71
3
 72
8
 73
4
 74
0
 40
0
 40
0
 40
0
 40
0
 40
1
 40
1
 40
1
 40
1
 10
75.777090
 20
110.982950
 30
0.0
 10
76.286454
 20
110.982755
 30
0.0
 10
76.776193
 20
111.179392
 30
0.0
 10
77.143990
 20
111.531780
 30
0.0
  0
LINE
  5
2ab
100
AcDbEntity
  8
Layer_1
 62
3
100
AcDbLine
 10
77.143990
 20
111.531780
 30
0.0
 11
78.946440
 21
113.258700
 31
0.0
  0
SPLINE
  5
2ac
100
AcDbEntity
  8
Layer_1
 62
3
100
AcDbSpline
 70
8
 71
3
 72
8
 73
4
 74
0
 40
0
 40
0
 40
0
 40
0
 40
1
 40
1
 40
1
 40
1
 10
78.946440
 20
113.258700
 30
0.0
 10
79.314282
 20
113.611127
 30
0.0
 10
79.803916
 20
113.808045
 30
0.0
 10
80.313340
 20
113.808430
 30
0.0
  0
LINE
  5
2ad
100
AcDbEntity
  8
Layer_1
 62
3
100
AcDbLine
 10
80.313340
 20
113.808430
 30
0.0
 11
86.642870
 21
113.813430
 31
0.0
  0
SPLINE
  5
2ae
100
AcDbEntity
  8
Layer_1
 62
3
100
AcDbSpline
 70
8
 71
3
 72
8
 73
4
 74
0
 40
0
 40
0
 40
0
 40
0
 40
1
 40
1
 40
1
 40
1
 10
86.642870
 20
113.813430
 30
0.0
 10
87.172037
 20
113.813830
 30
0.0
 10
87.701203
 20
113.814030
 30
0.0
 10
88.230370
 20
113.814030
 30
0.0
  0
LINE
  5
2af
100
AcDbEntity
  8
Layer_1
 62
3
100
AcDbLine
 10
88.230370
 20
113.814030
 30
0.0
 11
95.073050
 21
113.814040
 31
0.0
  0
SPLINE
  5
2b0
100
AcDbEntity
  8
Layer_1
 62
3
100
AcDbSpline
 70
8
 71
3
 72
8
 73
4
 74
0
 40
0
 40
0
 40
0
 40
0
 40
1
 40
1
 40
1
 40
1
 10
95.073050
 20
113.814040
 30
0.0
 10
95.602217
 20
113.814040
 30
0.0
 10
96.131383
 20
113.814040
 30
0.0
 10
96.660550
 20
113.814040
 30
0.0
  0
LINE
  5
2b1
100
AcDbEntity
  8
Layer_1
 62
3
100
AcDbLine
 10
96.660550
 20
113.814040
 30
0.0
 11
96.660270
 21
113.813440
 31
0.0
  0
SPLINE
  5
2b2
100
AcDbEntity
  8
Layer_1
 62
3
100
AcDbSpline
 70
8
 71
3
 72
8
 73
4
 74
0
 40
0
 40
0
 40
0
 40
0
 40
1
 40
1
 40
1
 40
1
 10
69.841747
 20
183.878140
 30
0.0
 10
69.841747
 20
183.626184
 30
0.0
 10
69.741658
 20
183.384548
 30
0.0
 10
69.563498
 20
183.206389
 30
0.0
  0
SPLINE
  5
2b3
100
AcDbEntity
  8
Layer_1
 62
3
100
AcDbSpline
 70
8
 71
3
 72
8
 73
4
 74
0
 40
0
 40
0
 40
0
 40
0
 40
1
 40
1
 40
1
 40
1
 10
69.563498
 20
183.206389
 30
0.0
 10
69.385339
 20
183.028229
 30
0.0
 10
69.143703
 20
182.928140
 30
0.0
 10
68.891747
 20
182.928140
 30
0.0
  0
SPLINE
  5
2b4
100
AcDbEntity
  8
Layer_1
 62
3
100
AcDbSpline
 70
8
 71
3
 72
8
 73
4
 74
0
 40
0
 40
0
 40
0
 40
0
 40
1
 40
1
 40
1
 40
1
 10
68.891747
 20
182.928140
 30
0.0
 10
68.639791
 20
182.928140
 30
0.0
 10
68.398155
 20
183.028229
 30
0.0
 10
68.219996
 20
183.206389
 30
0.0
  0
SPLINE
  5
2b5
100
AcDbEntity
  8
Layer_1
 62
3
100
AcDbSpline
 70
8
 71
3
 72
8
 73
4
 74
0
 40
0
 40
0
 40
0
 40
0
 40
1
 40
1
 40
1
 40
1
 10
68.219996
 20
183.206389
 30
0.0
 10
68.041836
 20
183.384548
 30
0.0
 10
67.941747
 20
183.626184
 30
0.0
 10
67.941747
 20
183.878140
 30
0.0
  0
SPLINE
  5
2b6
100
AcDbEntity
  8
Layer_1
 62
3
100
AcDbSpline
 70
8
 71
3
 72
8
 73
4
 74
0
 40
0
 40
0
 40
0
 40
0
 40
1
 40
1
 40
1
 40
1
 10
67.941747
 20
183.878140
 30
0.0
 10
67.941747
 20
184.130096
 30
0.0
 10
68.041836
 20
184.371732
 30
0.0
 10
68.219996
 20
184.549891
 30
0.0
  0
SPLINE
  5
2b7
100
AcDbEntity
  8
Layer_1
 62
3
100
AcDbSpline
 70
8
 71
3
 72
8
 73
4
 74
0
 40
0
 40
0
 40
0
 40
0
 40
1
 40
1
 40
1
 40
1
 10
68.219996
 20
184.549891
 30
0.0
 10
68.398155
 20
184.728051
 30
0.0
 10
68.639791
 20
184.828140
 30
0.0
 10
68.891747
 20
184.828140
 30
0.0
  0
SPLINE
  5
2b8
100
AcDbEntity
  8
Layer_1
 62
3
100
AcDbSpline
 70
8
 71
3
 72
8
 73
4
 74
0
 40
0
 40
0
 40
0
 40
0
 40
1
 40
1
 40
1
 40
1
 10
68.891747
 20
184.828140
 30
0.0
 10
69.143703
 20
184.828140
 30
0.0
 10
69.385339
 20
184.728051
 30
0.0
 10
69.563498
 20
184.549891
 30
0.0
  0
SPLINE
  5
2b9
100
AcDbEntity
  8
Layer_1
 62
3
100
AcDbSpline
 70
8
 71
3
 72
8
 73
4
 74
0
 40
0
 40
0
 40
0
 40
0
 40
1
 40
1
 40
1
 40
1
 10
69.563498
 20
184.549891
 30
0.0
 10
69.741658
 20
184.371732
 30
0.0
 10
69.841747
 20
184.130096
 30
0.0
 10
69.841747
 20
183.878140
 30
0.0
  0
LINE
  5
2ba
100
AcDbEntity
  8
Layer_1
 62
3
100
AcDbLine
 10
69.841747
 20
183.878140
 30
0.0
 11
69.841747
 21
183.878140
 31
0.0
  0
SPLINE
  5
2bb
100
AcDbEntity
  8
Layer_1
 62
3
100
AcDbSpline
 70
8
 71
3
 72
8
 73
4
 74
0
 40
0
 40
0
 40
0
 40
0
 40
1
 40
1
 40
1
 40
1
 10
125.786660
 20
183.878140
 30
0.0
 10
125.786660
 20
183.626184
 30
0.0
 10
125.886749
 20
183.384548
 30
0.0
 10
126.064909
 20
183.206389
 30
0.0
  0
SPLINE
  5
2bc
100
AcDbEntity
  8
Layer_1
 62
3
100
AcDbSpline
 70
8
 71
3
 72
8
 73
4
 74
0
 40
0
 40
0
 40
0
 40
0
 40
1
 40
1
 40
1
 40
1
 10
126.064909
 20
183.206389
 30
0.0
 10
126.243068
 20
183.028229
 30
0.0
 10
126.484704
 20
182.928140
 30
0.0
 10
126.736660
 20
182.928140
 30
0.0
  0
SPLINE
  5
2bd
100
AcDbEntity
  8
Layer_1
 62
3
100
AcDbSpline
 70
8
 71
3
 72
8
 73
4
 74
0
 40
0
 40
0
 40
0
 40
0
 40
1
 40
1
 40
1
 40
1
 10
126.736660
 20
182.928140
 30
0.0
 10
126.988616
 20
182.928140
 30
0.0
 10
127.230252
 20
183.028229
 30
0.0
 10
127.408411
 20
183.206389
 30
0.0
  0
SPLINE
  5
2be
100
AcDbEntity
  8
Layer_1
 62
3
100
AcDbSpline
 70
8
 71
3
 72
8
 73
4
 74
0
 40
0
 40
0
 40
0
 40
0
 40
1
 40
1
 40
1
 40
1
 10
127.408411
 20
183.206389
 30
0.0
 10
127.586571
 20
183.384548
 30
0.0
 10
127.686660
 20
183.626184
 30
0.0
 10
127.686660
 20
183.878140
 30
0.0
  0
SPLINE
  5
2bf
100
AcDbEntity
  8
Layer_1
 62
3
100
AcDbSpline
 70
8
 71
3
 72
8
 73
4
 74
0
 40
0
 40
0
 40
0
 40
0
 40
1
 40
1
 40
1
 40
1
 10
127.686660
 20
183.878140
 30
0.0
 10
127.686660
 20
184.130096
 30
0.0
 10
127.586571
 20
184.371732
 30
0.0
 10
127.408411
 20
184.549891
 30
0.0
  0
SPLINE
  5
2c0
100
AcDbEntity
  8
Layer_1
 62
3
100
AcDbSpline
 70
8
 71
3
 72
8
 73
4
 74
0
 40
0
 40
0
 40
0
 40
0
 40
1
 40
1
 40
1
 40
1
 10
127.408411
 20
184.549891
 30
0.0
 10
127.230252
 20
184.728051
 30
0.0
 10
126.988616
 20
184.828140
 30
0.0
 10
126.736660
 20
184.828140
 30
0.0
  0
SPLINE
  5
2c1
100
AcDbEntity
  8
Layer_1
 62
3
100
AcDbSpline
 70
8
 71
3
 72
8
 73
4
 74
0
 40
0
 40
0
 40
0
 40
0
 40
1
 40
1
 40
1
 40
1
 10
126.736660
 20
184.828140
 30
0.0
 10
126.484704
 20
184.828140
 30
0.0
 10
126.243068
 20
184.728051
 30
0.0
 10
126.064909
 20
184.549891
 30
0.0
  0
SPLINE
  5
2c2
100
AcDbEntity
  8
Layer_1
 62
3
100
AcDbSpline
 70
8
 71
3
 72
8
 73
4
 74
0
 40
0
 40
0
 40
0
 40
0
 40
1
 40
1
 40
1
 40
1
 10
126.064909
 20
184.549891
 30
0.0
 10
125.886749
 20
184.371732
 30
0.0
 10
125.786660
 20
184.130096
 30
0.0
 10
125.786660
 20
183.878140
 30
0.0
  0
LINE
  5
2c3
100
AcDbEntity
  8
Layer_1
 62
3
100
AcDbLine
 10
125.786660
 20
183.878140
 30
0.0
 11
125.786660
 21
183.878140
 31
0.0
  0
LINE
  5
2c4
100
AcDbEntity
  8
Layer_1
 62
3
100
AcDbLine
 10
84.591680
 20
180.676250
 30
0.0
 11
83.533340
 21
180.675750
 31
0.0
  0
SPLINE
  5
2c5
100
AcDbEntity
  8
Layer_1
 62
3
100
AcDbSpline
 70
8
 71
3
 72
8
 73
4
 74
0
 40
0
 40
0
 40
0
 40
0
 40
1
 40
1
 40
1
 40
1
 10
83.533340
 20
180.675750
 30
0.0
 10
82.827787
 20
180.675534
 30
0.0
 10
82.122233
 20
180.675201
 30
0.0
 10
81.416680
 20
180.674750
 30
0.0
  0
LINE
  5
2c6
100
AcDbEntity
  8
Layer_1
 62
3
100
AcDbLine
 10
81.416680
 20
180.674750
 30
0.0
 11
78.568270
 21
180.672750
 31
0.0
  0
SPLINE
  5
2c7
100
AcDbEntity
  8
Layer_1
 62
3
100
AcDbSpline
 70
8
 71
3
 72
8
 73
4
 74
0
 40
0
 40
0
 40
0
 40
0
 40
1
 40
1
 40
1
 40
1
 10
78.568270
 20
180.672750
 30
0.0
 10
77.983770
 20
180.672280
 30
0.0
 10
77.016290
 20
180.688350
 30
0.0
 10
76.477240
 20
180.471660
 30
0.0
  0
SPLINE
  5
2c8
100
AcDbEntity
  8
Layer_1
 62
3
100
AcDbSpline
 70
8
 71
3
 72
8
 73
4
 74
0
 40
0
 40
0
 40
0
 40
0
 40
1
 40
1
 40
1
 40
1
 10
76.477240
 20
180.471660
 30
0.0
 10
75.985730
 20
180.274080
 30
0.0
 10
75.309290
 20
179.649650
 30
0.0
 10
74.873570
 20
179.260050
 30
0.0
  0
LINE
  5
2c9
100
AcDbEntity
  8
Layer_1
 62
3
100
AcDbLine
 10
74.873570
 20
179.260050
 30
0.0
 11
74.869570
 21
179.256050
 31
0.0
  0
SPLINE
  5
2ca
100
AcDbEntity
  8
Layer_1
 62
3
100
AcDbSpline
 70
8
 71
3
 72
8
 73
4
 74
0
 40
0
 40
0
 40
0
 40
0
 40
1
 40
1
 40
1
 40
1
 10
74.869570
 20
179.256050
 30
0.0
 10
74.433850
 20
178.866450
 30
0.0
 10
73.723810
 20
178.208990
 30
0.0
 10
73.177560
 20
178.011200
 30
0.0
  0
SPLINE
  5
2cb
100
AcDbEntity
  8
Layer_1
 62
3
100
AcDbSpline
 70
8
 71
3
 72
8
 73
4
 74
0
 40
0
 40
0
 40
0
 40
0
 40
1
 40
1
 40
1
 40
1
 10
73.177560
 20
178.011200
 30
0.0
 10
72.679950
 20
177.831030
 30
0.0
 10
71.759890
 20
177.845890
 30
0.0
 10
71.175390
 20
177.846070
 30
0.0
  0
LINE
  5
2cc
100
AcDbEntity
  8
Layer_1
 62
3
100
AcDbLine
 10
71.175390
 20
177.846070
 30
0.0
 11
66.734830
 21
177.847070
 31
0.0
  0
SPLINE
  5
2cd
100
AcDbEntity
  8
Layer_1
 62
3
100
AcDbSpline
 70
8
 71
3
 72
8
 73
4
 74
0
 40
0
 40
0
 40
0
 40
0
 40
1
 40
1
 40
1
 40
1
 10
66.734830
 20
177.847070
 30
0.0
 10
66.052994
 20
177.847278
 30
0.0
 10
65.394849
 20
178.097229
 30
0.0
 10
64.884770
 20
178.549690
 30
0.0
  0
LINE
  5
2ce
100
AcDbEntity
  8
Layer_1
 62
3
100
AcDbLine
 10
64.884770
 20
178.549690
 30
0.0
 11
62.570270
 21
180.602760
 31
0.0
  0
SPLINE
  5
2cf
100
AcDbEntity
  8
Layer_1
 62
3
100
AcDbSpline
 70
8
 71
3
 72
8
 73
4
 74
0
 40
0
 40
0
 40
0
 40
0
 40
1
 40
1
 40
1
 40
1
 10
62.570270
 20
180.602760
 30
0.0
 10
62.133010
 20
180.990630
 30
0.0
 10
61.391870
 20
181.624140
 30
0.0
 10
61.168420
 20
182.158930
 30
0.0
  0
SPLINE
  5
2d0
100
AcDbEntity
  8
Layer_1
 62
3
100
AcDbSpline
 70
8
 71
3
 72
8
 73
4
 74
0
 40
0
 40
0
 40
0
 40
0
 40
1
 40
1
 40
1
 40
1
 10
61.168420
 20
182.158930
 30
0.0
 10
60.971500
 20
182.630230
 30
0.0
 10
60.986020
 20
183.539500
 30
0.0
 10
60.985610
 20
184.124000
 30
0.0
  0
LINE
  5
2d1
100
AcDbEntity
  8
Layer_1
 62
3
100
AcDbLine
 10
60.985610
 20
184.124000
 30
0.0
 11
60.983610
 21
186.386400
 31
0.0
  0
SPLINE
  5
2d2
100
AcDbEntity
  8
Layer_1
 62
3
100
AcDbSpline
 70
8
 71
3
 72
8
 73
4
 74
0
 40
0
 40
0
 40
0
 40
0
 40
1
 40
1
 40
1
 40
1
 10
60.983610
 20
186.386400
 30
0.0
 10
60.983200
 20
186.970900
 30
0.0
 10
60.997510
 20
188.032060
 30
0.0
 10
61.468640
 20
188.335590
 30
0.0
  0
SPLINE
  5
2d3
100
AcDbEntity
  8
Layer_1
 62
3
100
AcDbSpline
 70
8
 71
3
 72
8
 73
4
 74
0
 40
0
 40
0
 40
0
 40
0
 40
1
 40
1
 40
1
 40
1
 10
61.468640
 20
188.335590
 30
0.0
 10
61.745210
 20
188.513790
 30
0.0
 10
62.514010
 20
188.503750
 30
0.0
 10
63.098510
 20
188.503960
 30
0.0
  0
LINE
  5
2d4
100
AcDbEntity
  8
Layer_1
 62
3
100
AcDbLine
 10
63.098510
 20
188.503960
 30
0.0
 11
69.322430
 21
188.505960
 31
0.0
  0
SPLINE
  5
2d5
100
AcDbEntity
  8
Layer_1
 62
3
100
AcDbSpline
 70
8
 71
3
 72
8
 73
4
 74
0
 40
0
 40
0
 40
0
 40
0
 40
1
 40
1
 40
1
 40
1
 10
69.322430
 20
188.505960
 30
0.0
 10
69.906930
 20
188.506170
 30
0.0
 10
70.874470
 20
188.523360
 30
0.0
 10
71.413590
 20
188.306920
 30
0.0
  0
SPLINE
  5
2d6
100
AcDbEntity
  8
Layer_1
 62
3
100
AcDbSpline
 70
8
 71
3
 72
8
 73
4
 74
0
 40
0
 40
0
 40
0
 40
0
 40
1
 40
1
 40
1
 40
1
 10
71.413590
 20
188.306920
 30
0.0
 10
71.904710
 20
188.109740
 30
0.0
 10
72.580890
 20
187.485640
 30
0.0
 10
73.016610
 20
187.096030
 30
0.0
  0
LINE
  5
2d7
100
AcDbEntity
  8
Layer_1
 62
3
100
AcDbLine
 10
73.016610
 20
187.096030
 30
0.0
 11
73.020610
 21
187.092030
 31
0.0
  0
SPLINE
  5
2d8
100
AcDbEntity
  8
Layer_1
 62
3
100
AcDbSpline
 70
8
 71
3
 72
8
 73
4
 74
0
 40
0
 40
0
 40
0
 40
0
 40
1
 40
1
 40
1
 40
1
 10
73.020610
 20
187.092030
 30
0.0
 10
73.456330
 20
186.702420
 30
0.0
 10
74.166290
 20
186.044980
 30
0.0
 10
74.712380
 20
185.846730
 30
0.0
  0
SPLINE
  5
2d9
100
AcDbEntity
  8
Layer_1
 62
3
100
AcDbSpline
 70
8
 71
3
 72
8
 73
4
 74
0
 40
0
 40
0
 40
0
 40
0
 40
1
 40
1
 40
1
 40
1
 10
74.712380
 20
185.846730
 30
0.0
 10
75.210330
 20
185.665960
 30
0.0
 10
76.130810
 20
185.679800
 30
0.0
 10
76.715310
 20
185.679330
 30
0.0
  0
LINE
  5
2da
100
AcDbEntity
  8
Layer_1
 62
3
100
AcDbLine
 10
76.715310
 20
185.679330
 30
0.0
 11
79.563720
 21
185.677330
 31
0.0
  0
SPLINE
  5
2db
100
AcDbEntity
  8
Layer_1
 62
3
100
AcDbSpline
 70
8
 71
3
 72
8
 73
4
 74
0
 40
0
 40
0
 40
0
 40
0
 40
1
 40
1
 40
1
 40
1
 10
79.563720
 20
185.677330
 30
0.0
 10
80.269273
 20
185.676879
 30
0.0
 10
80.974827
 20
185.676546
 30
0.0
 10
81.680380
 20
185.676330
 30
0.0
  0
LINE
  5
2dc
100
AcDbEntity
  8
Layer_1
 62
3
100
AcDbLine
 10
81.680380
 20
185.676330
 30
0.0
 11
81.680390
 21
185.676330
 31
0.0
  0
SPLINE
  5
2dd
100
AcDbEntity
  8
Layer_1
 62
3
100
AcDbSpline
 70
8
 71
3
 72
8
 73
4
 74
0
 40
0
 40
0
 40
0
 40
0
 40
1
 40
1
 40
1
 40
1
 10
81.680390
 20
185.676330
 30
0.0
 10
82.385943
 20
185.675995
 30
0.0
 10
83.091497
 20
185.675812
 30
0.0
 10
83.797050
 20
185.675780
 30
0.0
  0
LINE
  5
2de
100
AcDbEntity
  8
Layer_1
 62
3
100
AcDbLine
 10
83.797050
 20
185.675780
 30
0.0
 11
93.142810
 21
185.675390
 31
0.0
  0
SPLINE
  5
2df
100
AcDbEntity
  8
Layer_1
 62
3
100
AcDbSpline
 70
8
 71
3
 72
8
 73
4
 74
0
 40
0
 40
0
 40
0
 40
0
 40
1
 40
1
 40
1
 40
1
 10
93.142810
 20
185.675390
 30
0.0
 10
93.848363
 20
185.675358
 30
0.0
 10
94.553917
 20
185.675342
 30
0.0
 10
95.259470
 20
185.675340
 30
0.0
  0
LINE
  5
2e0
100
AcDbEntity
  8
Layer_1
 62
3
100
AcDbLine
 10
95.259470
 20
185.675340
 30
0.0
 11
111.846000
 21
185.675340
 31
0.0
  0
SPLINE
  5
2e1
100
AcDbEntity
  8
Layer_1
 62
3
100
AcDbSpline
 70
8
 71
3
 72
8
 73
4
 74
0
 40
0
 40
0
 40
0
 40
0
 40
1
 40
1
 40
1
 40
1
 10
111.846000
 20
185.675340
 30
0.0
 10
112.551553
 20
185.675340
 30
0.0
 10
113.257107
 20
185.675507
 30
0.0
 10
113.962660
 20
185.675840
 30
0.0
  0
LINE
  5
2e2
100
AcDbEntity
  8
Layer_1
 62
3
100
AcDbLine
 10
113.962660
 20
185.675840
 30
0.0
 11
113.962670
 21
185.675840
 31
0.0
  0
SPLINE
  5
2e3
100
AcDbEntity
  8
Layer_1
 62
3
100
AcDbSpline
 70
8
 71
3
 72
8
 73
4
 74
0
 40
0
 40
0
 40
0
 40
0
 40
1
 40
1
 40
1
 40
1
 10
113.962670
 20
185.675840
 30
0.0
 10
114.668223
 20
185.676056
 30
0.0
 10
115.373777
 20
185.676389
 30
0.0
 10
116.079330
 20
185.676840
 30
0.0
  0
LINE
  5
2e4
100
AcDbEntity
  8
Layer_1
 62
3
100
AcDbLine
 10
116.079330
 20
185.676840
 30
0.0
 11
118.927740
 21
185.678840
 31
0.0
  0
SPLINE
  5
2e5
100
AcDbEntity
  8
Layer_1
 62
3
100
AcDbSpline
 70
8
 71
3
 72
8
 73
4
 74
0
 40
0
 40
0
 40
0
 40
0
 40
1
 40
1
 40
1
 40
1
 10
118.927740
 20
185.678840
 30
0.0
 10
119.512240
 20
185.679310
 30
0.0
 10
120.479720
 20
185.663240
 30
0.0
 10
121.018770
 20
185.879930
 30
0.0
  0
SPLINE
  5
2e6
100
AcDbEntity
  8
Layer_1
 62
3
100
AcDbSpline
 70
8
 71
3
 72
8
 73
4
 74
0
 40
0
 40
0
 40
0
 40
0
 40
1
 40
1
 40
1
 40
1
 10
121.018770
 20
185.879930
 30
0.0
 10
121.510280
 20
186.077510
 30
0.0
 10
122.186720
 20
186.701930
 30
0.0
 10
122.622440
 20
187.091540
 30
0.0
  0
LINE
  5
2e7
100
AcDbEntity
  8
Layer_1
 62
3
100
AcDbLine
 10
122.622440
 20
187.091540
 30
0.0
 11
122.626440
 21
187.095540
 31
0.0
  0
SPLINE
  5
2e8
100
AcDbEntity
  8
Layer_1
 62
3
100
AcDbSpline
 70
8
 71
3
 72
8
 73
4
 74
0
 40
0
 40
0
 40
0
 40
0
 40
1
 40
1
 40
1
 40
1
 10
122.626440
 20
187.095540
 30
0.0
 10
123.062160
 20
187.485150
 30
0.0
 10
123.772200
 20
188.142610
 30
0.0
 10
124.318450
 20
188.340400
 30
0.0
  0
SPLINE
  5
2e9
100
AcDbEntity
  8
Layer_1
 62
3
100
AcDbSpline
 70
8
 71
3
 72
8
 73
4
 74
0
 40
0
 40
0
 40
0
 40
0
 40
1
 40
1
 40
1
 40
1
 10
124.318450
 20
188.340400
 30
0.0
 10
124.816060
 20
188.520570
 30
0.0
 10
125.736120
 20
188.505680
 30
0.0
 10
126.320620
 20
188.505470
 30
0.0
  0
LINE
  5
2ea
100
AcDbEntity
  8
Layer_1
 62
3
100
AcDbLine
 10
126.320620
 20
188.505470
 30
0.0
 11
132.544540
 21
188.503470
 31
0.0
  0
SPLINE
  5
2eb
100
AcDbEntity
  8
Layer_1
 62
3
100
AcDbSpline
 70
8
 71
3
 72
8
 73
4
 74
0
 40
0
 40
0
 40
0
 40
0
 40
1
 40
1
 40
1
 40
1
 10
132.544540
 20
188.503470
 30
0.0
 10
133.129040
 20
188.503260
 30
0.0
 10
134.190180
 20
188.487570
 30
0.0
 10
134.493010
 20
188.016030
 30
0.0
  0
SPLINE
  5
2ec
100
AcDbEntity
  8
Layer_1
 62
3
100
AcDbSpline
 70
8
 71
3
 72
8
 73
4
 74
0
 40
0
 40
0
 40
0
 40
0
 40
1
 40
1
 40
1
 40
1
 10
134.493010
 20
188.016030
 30
0.0
 10
134.670810
 20
187.739190
 30
0.0
 10
134.659850
 20
186.970410
 30
0.0
 10
134.659440
 20
186.385910
 30
0.0
  0
LINE
  5
2ed
100
AcDbEntity
  8
Layer_1
 62
3
100
AcDbLine
 10
134.659440
 20
186.385910
 30
0.0
 11
134.657440
 21
184.123510
 31
0.0
  0
SPLINE
  5
2ee
100
AcDbEntity
  8
Layer_1
 62
3
100
AcDbSpline
 70
8
 71
3
 72
8
 73
4
 74
0
 40
0
 40
0
 40
0
 40
0
 40
1
 40
1
 40
1
 40
1
 10
134.657440
 20
184.123510
 30
0.0
 10
134.657030
 20
183.539010
 30
0.0
 10
134.674340
 20
182.564160
 30
0.0
 10
134.422350
 20
182.042230
 30
0.0
  0
SPLINE
  5
2ef
100
AcDbEntity
  8
Layer_1
 62
3
100
AcDbSpline
 70
8
 71
3
 72
8
 73
4
 74
0
 40
0
 40
0
 40
0
 40
0
 40
1
 40
1
 40
1
 40
1
 10
134.422350
 20
182.042230
 30
0.0
 10
134.200240
 20
181.582270
 30
0.0
 10
133.510040
 20
180.990140
 30
0.0
 10
133.072780
 20
180.602270
 30
0.0
  0
LINE
  5
2f0
100
AcDbEntity
  8
Layer_1
 62
3
100
AcDbLine
 10
133.072780
 20
180.602270
 30
0.0
 11
130.758280
 21
178.549200
 31
0.0
  0
SPLINE
  5
2f1
100
AcDbEntity
  8
Layer_1
 62
3
100
AcDbSpline
 70
8
 71
3
 72
8
 73
4
 74
0
 40
0
 40
0
 40
0
 40
0
 40
1
 40
1
 40
1
 40
1
 10
130.758280
 20
178.549200
 30
0.0
 10
130.248201
 20
178.096739
 30
0.0
 10
129.590056
 20
177.846788
 30
0.0
 10
128.908220
 20
177.846580
 30
0.0
  0
LINE
  5
2f2
100
AcDbEntity
  8
Layer_1
 62
3
100
AcDbLine
 10
128.908220
 20
177.846580
 30
0.0
 11
124.467660
 21
177.845580
 31
0.0
  0
SPLINE
  5
2f3
100
AcDbEntity
  8
Layer_1
 62
3
100
AcDbSpline
 70
8
 71
3
 72
8
 73
4
 74
0
 40
0
 40
0
 40
0
 40
0
 40
1
 40
1
 40
1
 40
1
 10
124.467660
 20
177.845580
 30
0.0
 10
123.883160
 20
177.845400
 30
0.0
 10
122.915620
 20
177.828180
 30
0.0
 10
122.376500
 20
178.044680
 30
0.0
  0
SPLINE
  5
2f4
100
AcDbEntity
  8
Layer_1
 62
3
100
AcDbSpline
 70
8
 71
3
 72
8
 73
4
 74
0
 40
0
 40
0
 40
0
 40
0
 40
1
 40
1
 40
1
 40
1
 10
122.376500
 20
178.044680
 30
0.0
 10
121.885380
 20
178.241860
 30
0.0
 10
121.209200
 20
178.865960
 30
0.0
 10
120.773480
 20
179.255560
 30
0.0
  0
LINE
  5
2f5
100
AcDbEntity
  8
Layer_1
 62
3
100
AcDbLine
 10
120.773480
 20
179.255560
 30
0.0
 11
120.769480
 21
179.259560
 31
0.0
  0
SPLINE
  5
2f6
100
AcDbEntity
  8
Layer_1
 62
3
100
AcDbSpline
 70
8
 71
3
 72
8
 73
4
 74
0
 40
0
 40
0
 40
0
 40
0
 40
1
 40
1
 40
1
 40
1
 10
120.769480
 20
179.259560
 30
0.0
 10
120.333760
 20
179.649160
 30
0.0
 10
119.623800
 20
180.306610
 30
0.0
 10
119.077710
 20
180.504860
 30
0.0
  0
SPLINE
  5
2f7
100
AcDbEntity
  8
Layer_1
 62
3
100
AcDbSpline
 70
8
 71
3
 72
8
 73
4
 74
0
 40
0
 40
0
 40
0
 40
0
 40
1
 40
1
 40
1
 40
1
 10
119.077710
 20
180.504860
 30
0.0
 10
118.579760
 20
180.685630
 30
0.0
 10
117.659280
 20
180.671790
 30
0.0
 10
117.074780
 20
180.672260
 30
0.0
  0
LINE
  5
2f8
100
AcDbEntity
  8
Layer_1
 62
3
100
AcDbLine
 10
117.074780
 20
180.672260
 30
0.0
 11
114.226370
 21
180.674260
 31
0.0
  0
SPLINE
  5
2f9
100
AcDbEntity
  8
Layer_1
 62
3
100
AcDbSpline
 70
8
 71
3
 72
8
 73
4
 74
0
 40
0
 40
0
 40
0
 40
0
 40
1
 40
1
 40
1
 40
1
 10
114.226370
 20
180.674260
 30
0.0
 10
113.520817
 20
180.674711
 30
0.0
 10
112.815263
 20
180.675044
 30
0.0
 10
112.109710
 20
180.675260
 30
0.0
  0
LINE
  5
2fa
100
AcDbEntity
  8
Layer_1
 62
3
100
AcDbLine
 10
112.109710
 20
180.675260
 30
0.0
 11
112.109700
 21
180.675260
 31
0.0
  0
SPLINE
  5
2fb
100
AcDbEntity
  8
Layer_1
 62
3
100
AcDbSpline
 70
8
 71
3
 72
8
 73
4
 74
0
 40
0
 40
0
 40
0
 40
0
 40
1
 40
1
 40
1
 40
1
 10
112.109700
 20
180.675260
 30
0.0
 10
111.404147
 20
180.675593
 30
0.0
 10
110.698593
 20
180.675760
 30
0.0
 10
109.993040
 20
180.675760
 30
0.0
  0
LINE
  5
2fc
100
AcDbEntity
  8
Layer_1
 62
3
100
AcDbLine
 10
109.993040
 20
180.675760
 30
0.0
 11
93.406960
 21
180.675760
 31
0.0
  0
SPLINE
  5
2fd
100
AcDbEntity
  8
Layer_1
 62
3
100
AcDbSpline
 70
8
 71
3
 72
8
 73
4
 74
0
 40
0
 40
0
 40
0
 40
0
 40
1
 40
1
 40
1
 40
1
 10
93.406960
 20
180.675760
 30
0.0
 10
92.701407
 20
180.675761
 30
0.0
 10
91.995853
 20
180.675784
 30
0.0
 10
91.290300
 20
180.675830
 30
0.0
  0
LINE
  5
2fe
100
AcDbEntity
  8
Layer_1
 62
3
100
AcDbLine
 10
91.290300
 20
180.675830
 30
0.0
 11
84.591680
 21
180.676250
 31
0.0
  0
ENDSEC
  0
SECTION
  2
OBJECTS
  0
DICTIONARY
  5
C
330
0
100
AcDbDictionary
  3
ACAD_GROUP
350
D
  3
ACAD_MLINESTYLE
350
17
  0
DICTIONARY
  5
D
330
C
100
AcDbDictionary
  0
DICTIONARY
  5
1A
330
C
100
AcDbDictionary
  0
DICTIONARY
  5
17
330
C
100
AcDbDictionary
  3
STANDARD
350
18
  0
DICTIONARY
  5
19
330
C
100
AcDbDictionary
  0
ENDSEC
  0
EOF
