  0
SECTION
  2
HEADER
  9
$ACADVER
  1
AC1014
  9
$HANDSEED
  5
FFFF
  9
$INSUNITS
 70
     0
  9
$MEASUREMENT
 70
     1
  0
ENDSEC
  0
SECTION
  2
TABLES
  0
TABLE
  2
VPORT
  5
8
330
0
100
AcDbSymbolTable
 70
     4
  0
VPORT
  5
2E
330
8
100
AcDbSymbolTableRecord
100
AcDbViewportTableRecord
  2
*ACTIVE
 70
     0
 10
0.0
 20
0.0
 11
1.0
 21
1.0
 12
210.0
 22
148.5
 13
0.0
 23
0.0
 14
10.0
 24
10.0
 15
10.0
 25
10.0
 16
0.0
 26
0.0
 36
1.0
 17
0.0
 27
0.0
 37
0.0
 40
341.0
 41
1.24
 42
50.0
 43
0.0
 44
0.0
 50
0.0
 51
0.0
 71
     0
 72
   100
 73
     1
 74
     3
 75
     0
 76
     0
 77
     0
 78
     0
  0
ENDTAB
  0
TABLE
  2
LTYPE
  5
5
330
0
100
AcDbSymbolTable
 70
     1
  0
LTYPE
  5
14
330
5
100
AcDbSymbolTableRecord
100
AcDbLinetypeTableRecord
  2
BYBLOCK
 70
     0
  3

 72
    65
 73
     0
 40
0.0
  0
LTYPE
  5
15
330
5
100
AcDbSymbolTableRecord
100
AcDbLinetypeTableRecord
  2
BYLAYER
 70
     0
  3

 72
    65
 73
     0
 40
0.0
  0
LTYPE
  5
16
330
5
100
AcDbSymbolTableRecord
100
AcDbLinetypeTableRecord
  2
CONTINUOUS
 70
     0
  3
Solid line
 72
    65
 73
     0
 40
0.0
  0
ENDTAB
  0
TABLE
  2
LAYER
  5
2
100
AcDbSymbolTable
 70
2
  0
LAYER
  5
50
100
AcDbSymbolTableRecord
100
AcDbLayerTableRecord
  2
0
 70
0
  6
CONTINUOUS
  0
LAYER
  5
51
100
AcDbSymbolTableRecord
100
AcDbLayerTableRecord
  2
Layer_1
 70
0
  6
CONTINUOUS
  0
ENDTAB
  0
TABLE
  2
STYLE
  5
3
330
0
100
AcDbSymbolTable
 70
     1
  0
STYLE
  5
11
330
3
100
AcDbSymbolTableRecord
100
AcDbTextStyleTableRecord
  2
STANDARD
 70
     0
 40
0.0
 41
1.0
 50
0.0
 71
     0
 42
2.5
  3
txt
  4

  0
ENDTAB
  0
TABLE
  2
VIEW
  5
6
330
0
100
AcDbSymbolTable
 70
     0
  0
ENDTAB
  0
TABLE
  2
UCS
  5
7
330
0
100
AcDbSymbolTable
 70
     0
  0
ENDTAB
  0
TABLE
  2
APPID
  5
9
330
0
100
AcDbSymbolTable
 70
     2
  0
APPID
  5
12
330
9
100
AcDbSymbolTableRecord
100
AcDbRegAppTableRecord
  2
ACAD
 70
     0
  0
ENDTAB
  0
TABLE
  2
DIMSTYLE
  5
A
330
0
100
AcDbSymbolTable
 70
     1
  0
DIMSTYLE
105
27
330
A
100
AcDbSymbolTableRecord
100
AcDbDimStyleTableRecord
  2
ISO-25
 70
     0
  3

  4

  5

  6

  7

 40
1.0
 41
2.5
 42
0.625
 43
3.75
 44
1.25
 45
0.0
 46
0.0
 47
0.0
 48
0.0
140
2.5
141
2.5
142
0.0
143
0.03937007874016
144
1.0
145
0.0
146
1.0
147
0.625
 71
     0
 72
     0
 73
     0
 74
     0
 75
     0
 76
     0
 77
     1
 78
     8
170
     0
171
     3
172
     1
173
     0
174
     0
175
     0
176
     0
177
     0
178
     0
270
     2
271
     2
272
     2
273
     2
274
     3
340
11
275
     0
280
     0
281
     0
282
     0
283
     0
284
     8
285
     0
286
     0
287
     3
288
     0
  0
ENDTAB
  0
TABLE
  2
BLOCK_RECORD
  5
1
330
0
100
AcDbSymbolTable
 70
     1
  0
BLOCK_RECORD
  5
1F
330
1
100
AcDbSymbolTableRecord
100
AcDbBlockTableRecord
  2
*MODEL_SPACE
  0
BLOCK_RECORD
  5
1B
330
1
100
AcDbSymbolTableRecord
100
AcDbBlockTableRecord
  2
*PAPER_SPACE
  0
ENDTAB
  0
ENDSEC
  0
SECTION
  2
BLOCKS
  0
BLOCK
  5
20
330
1F
100
AcDbEntity
  8
0
100
AcDbBlockBegin
  2
*MODEL_SPACE
 70
     0
 10
0.0
 20
0.0
 30
0.0
  3
*MODEL_SPACE
  1

  0
ENDBLK
  5
21
330
1F
100
AcDbEntity
  8
0
100
AcDbBlockEnd
  0
BLOCK
  5
1C
330
1B
100
AcDbEntity
 67
     1
  8
0
100
AcDbBlockBegin
  2
*PAPER_SPACE
  1

  0
ENDBLK
  5
1D
330
1B
100
AcDbEntity
 67
     1
  8
0
100
AcDbBlockEnd
  0
ENDSEC
  0
SECTION
  2
ENTITIES
  0
LINE
  5
100
100
AcDbEntity
  8
Layer_1
 62
6
100
AcDbLine
 10
144.223959
 20
90.166927
 30
0.0
 11
240.100023
 21
98.541745
 31
0.0
  0
SPLINE
  5
101
100
AcDbEntity
  8
Layer_1
 62
6
100
AcDbSpline
 70
8
 71
3
 72
8
 73
4
 74
0
 40
0
 40
0
 40
0
 40
0
 40
1
 40
1
 40
1
 40
1
 10
240.100023
 20
98.541745
 30
0.0
 10
240.802900
 20
98.603141
 30
0.0
 10
241.505767
 20
98.664641
 30
0.0
 10
242.208626
 20
98.726244
 30
0.0
  0
LINE
  5
102
100
AcDbEntity
  8
Layer_1
 62
6
100
AcDbLine
 10
242.208626
 20
98.726244
 30
0.0
 11
259.156894
 21
100.212037
 31
0.0
  0
SPLINE
  5
103
100
AcDbEntity
  8
Layer_1
 62
6
100
AcDbSpline
 70
8
 71
3
 72
8
 73
4
 74
0
 40
0
 40
0
 40
0
 40
0
 40
1
 40
1
 40
1
 40
1
 10
259.156894
 20
100.212037
 30
0.0
 10
259.859753
 20
100.273642
 30
0.0
 10
260.562611
 20
100.335251
 30
0.0
 10
261.265469
 20
100.396865
 30
0.0
  0
LINE
  5
104
100
AcDbEntity
  8
Layer_1
 62
6
100
AcDbLine
 10
261.265469
 20
100.396865
 30
0.0
 11
276.783879
 21
101.757561
 31
0.0
  0
SPLINE
  5
105
100
AcDbEntity
  8
Layer_1
 62
6
100
AcDbSpline
 70
8
 71
3
 72
8
 73
4
 74
0
 40
0
 40
0
 40
0
 40
0
 40
1
 40
1
 40
1
 40
1
 10
276.783879
 20
101.757561
 30
0.0
 10
277.460694
 20
101.816891
 30
0.0
 10
278.088786
 20
102.134185
 30
0.0
 10
278.538146
 20
102.643768
 30
0.0
  0
LINE
  5
106
100
AcDbEntity
  8
Layer_1
 62
6
100
AcDbLine
 10
278.538146
 20
102.643768
 30
0.0
 11
280.078222
 21
104.390240
 31
0.0
  0
SPLINE
  5
107
100
AcDbEntity
  8
Layer_1
 62
6
100
AcDbSpline
 70
8
 71
3
 72
8
 73
4
 74
0
 40
0
 40
0
 40
0
 40
0
 40
1
 40
1
 40
1
 40
1
 10
280.078222
 20
104.390240
 30
0.0
 10
280.525206
 20
104.897126
 30
0.0
 10
280.744863
 20
105.565085
 30
0.0
 10
280.685963
 20
106.238331
 30
0.0
  0
LINE
  5
108
100
AcDbEntity
  8
Layer_1
 62
6
100
AcDbLine
 10
280.685963
 20
106.238331
 30
0.0
 11
271.907776
 21
206.573467
 31
0.0
  0
SPLINE
  5
109
100
AcDbEntity
  8
Layer_1
 62
6
100
AcDbSpline
 70
8
 71
3
 72
8
 73
4
 74
0
 40
0
 40
0
 40
0
 40
0
 40
1
 40
1
 40
1
 40
1
 10
271.907776
 20
206.573467
 30
0.0
 10
271.849156
 20
207.243471
 30
0.0
 10
271.504207
 20
207.855571
 30
0.0
 10
270.961427
 20
208.252727
 30
0.0
  0
LINE
  5
10a
100
AcDbEntity
  8
Layer_1
 62
6
100
AcDbLine
 10
270.961427
 20
208.252727
 30
0.0
 11
269.208433
 21
209.535415
 31
0.0
  0
SPLINE
  5
10b
100
AcDbEntity
  8
Layer_1
 62
6
100
AcDbSpline
 70
8
 71
3
 72
8
 73
4
 74
0
 40
0
 40
0
 40
0
 40
0
 40
1
 40
1
 40
1
 40
1
 10
269.208433
 20
209.535415
 30
0.0
 10
268.657830
 20
209.938299
 30
0.0
 10
267.979687
 20
210.127594
 30
0.0
 10
267.300023
 20
210.068123
 30
0.0
  0
LINE
  5
10c
100
AcDbEntity
  8
Layer_1
 62
6
100
AcDbLine
 10
267.300023
 20
210.068123
 30
0.0
 11
253.107135
 21
208.826195
 31
0.0
  0
SPLINE
  5
10d
100
AcDbEntity
  8
Layer_1
 62
6
100
AcDbSpline
 70
8
 71
3
 72
8
 73
4
 74
0
 40
0
 40
0
 40
0
 40
0
 40
1
 40
1
 40
1
 40
1
 10
253.107135
 20
208.826195
 30
0.0
 10
252.404268
 20
208.764694
 30
0.0
 10
251.701400
 20
208.703191
 30
0.0
 10
250.998533
 20
208.641686
 30
0.0
  0
LINE
  5
10e
100
AcDbEntity
  8
Layer_1
 62
6
100
AcDbLine
 10
250.998533
 20
208.641686
 30
0.0
 11
233.786377
 21
207.135507
 31
0.0
  0
SPLINE
  5
10f
100
AcDbEntity
  8
Layer_1
 62
6
100
AcDbSpline
 70
8
 71
3
 72
8
 73
4
 74
0
 40
0
 40
0
 40
0
 40
0
 40
1
 40
1
 40
1
 40
1
 10
233.786377
 20
207.135507
 30
0.0
 10
233.083510
 20
207.074001
 30
0.0
 10
232.380642
 20
207.012498
 30
0.0
 10
231.677774
 20
206.950998
 30
0.0
  0
LINE
  5
110
100
AcDbEntity
  8
Layer_1
 62
6
100
AcDbLine
 10
231.677774
 20
206.950998
 30
0.0
 11
136.726426
 21
198.642878
 31
0.0
  0
SPLINE
  5
111
100
AcDbEntity
  8
Layer_1
 62
6
100
AcDbSpline
 70
8
 71
3
 72
8
 73
4
 74
0
 40
0
 40
0
 40
0
 40
0
 40
1
 40
1
 40
1
 40
1
 10
136.726426
 20
198.642878
 30
0.0
 10
136.041332
 20
198.582934
 30
0.0
 10
135.393024
 20
198.306775
 30
0.0
 10
134.875142
 20
197.854287
 30
0.0
  0
LINE
  5
112
100
AcDbEntity
  8
Layer_1
 62
6
100
AcDbLine
 10
134.875142
 20
197.854287
 30
0.0
 11
133.532553
 21
196.681208
 31
0.0
  0
SPLINE
  5
113
100
AcDbEntity
  8
Layer_1
 62
6
100
AcDbSpline
 70
8
 71
3
 72
8
 73
4
 74
0
 40
0
 40
0
 40
0
 40
0
 40
1
 40
1
 40
1
 40
1
 10
133.532553
 20
196.681208
 30
0.0
 10
133.018735
 20
196.232271
 30
0.0
 10
132.359555
 20
195.984880
 30
0.0
 10
131.677240
 20
195.984908
 30
0.0
  0
LINE
  5
114
100
AcDbEntity
  8
Layer_1
 62
6
100
AcDbLine
 10
131.677240
 20
195.984908
 30
0.0
 11
87.803124
 21
195.986533
 31
0.0
  0
SPLINE
  5
115
100
AcDbEntity
  8
Layer_1
 62
6
100
AcDbSpline
 70
8
 71
3
 72
8
 73
4
 74
0
 40
0
 40
0
 40
0
 40
0
 40
1
 40
1
 40
1
 40
1
 10
87.803124
 20
195.986533
 30
0.0
 10
87.121191
 20
195.986560
 30
0.0
 10
86.462789
 20
196.235872
 30
0.0
 10
85.951873
 20
196.687533
 30
0.0
  0
LINE
  5
116
100
AcDbEntity
  8
Layer_1
 62
6
100
AcDbLine
 10
85.951873
 20
196.687533
 30
0.0
 11
84.635948
 21
197.850829
 31
0.0
  0
SPLINE
  5
117
100
AcDbEntity
  8
Layer_1
 62
6
100
AcDbSpline
 70
8
 71
3
 72
8
 73
4
 74
0
 40
0
 40
0
 40
0
 40
0
 40
1
 40
1
 40
1
 40
1
 10
84.635948
 20
197.850829
 30
0.0
 10
84.120953
 20
198.306094
 30
0.0
 10
83.473484
 20
198.584127
 30
0.0
 10
82.788725
 20
198.644052
 30
0.0
  0
LINE
  5
118
100
AcDbEntity
  8
Layer_1
 62
6
100
AcDbLine
 10
82.788725
 20
198.644052
 30
0.0
 11
-47.825391
 21
210.073584
 31
0.0
  0
SPLINE
  5
119
100
AcDbEntity
  8
Layer_1
 62
6
100
AcDbSpline
 70
8
 71
3
 72
8
 73
4
 74
0
 40
0
 40
0
 40
0
 40
0
 40
1
 40
1
 40
1
 40
1
 10
-47.825391
 20
210.073584
 30
0.0
 10
-48.505371
 20
210.133090
 30
0.0
 10
-49.184009
 20
209.945424
 30
0.0
 10
-49.736806
 20
209.545012
 30
0.0
  0
LINE
  5
11a
100
AcDbEntity
  8
Layer_1
 62
6
100
AcDbLine
 10
-49.736806
 20
209.545012
 30
0.0
 11
-51.516496
 21
208.255916
 31
0.0
  0
SPLINE
  5
11b
100
AcDbEntity
  8
Layer_1
 62
6
100
AcDbSpline
 70
8
 71
3
 72
8
 73
4
 74
0
 40
0
 40
0
 40
0
 40
0
 40
1
 40
1
 40
1
 40
1
 10
-51.516496
 20
208.255916
 30
0.0
 10
-52.060872
 20
207.861609
 30
0.0
 10
-52.407255
 20
207.250394
 30
0.0
 10
-52.465820
 20
206.580773
 30
0.0
  0
LINE
  5
11c
100
AcDbEntity
  8
Layer_1
 62
6
100
AcDbLine
 10
-52.465820
 20
206.580773
 30
0.0
 11
-61.241683
 21
106.238423
 31
0.0
  0
SPLINE
  5
11d
100
AcDbEntity
  8
Layer_1
 62
6
100
AcDbSpline
 70
8
 71
3
 72
8
 73
4
 74
0
 40
0
 40
0
 40
0
 40
0
 40
1
 40
1
 40
1
 40
1
 10
-61.241683
 20
106.238423
 30
0.0
 10
-61.300549
 20
105.565386
 30
0.0
 10
-61.079945
 20
104.897772
 30
0.0
 10
-60.631663
 20
104.392315
 30
0.0
  0
LINE
  5
11e
100
AcDbEntity
  8
Layer_1
 62
6
100
AcDbLine
 10
-60.631663
 20
104.392315
 30
0.0
 11
-59.060004
 21
102.620221
 31
0.0
  0
SPLINE
  5
11f
100
AcDbEntity
  8
Layer_1
 62
6
100
AcDbSpline
 70
8
 71
3
 72
8
 73
4
 74
0
 40
0
 40
0
 40
0
 40
0
 40
1
 40
1
 40
1
 40
1
 10
-59.060004
 20
102.620221
 30
0.0
 10
-58.672175
 20
102.182918
 30
0.0
 10
-57.885657
 20
101.788055
 30
0.0
 10
-57.303288
 20
101.738222
 30
0.0
  0
SPLINE
  5
120
100
AcDbEntity
  8
Layer_1
 62
6
100
AcDbSpline
 70
8
 71
3
 72
8
 73
4
 74
0
 40
0
 40
0
 40
0
 40
0
 40
1
 40
1
 40
1
 40
1
 10
-57.303288
 20
101.738222
 30
0.0
 10
-43.798471
 20
100.582627
 30
0.0
 10
-31.058398
 20
99.476057
 30
0.0
 10
-18.516586
 20
98.380017
 30
0.0
  0
SPLINE
  5
121
100
AcDbEntity
  8
Layer_1
 62
6
100
AcDbSpline
 70
8
 71
3
 72
8
 73
4
 74
0
 40
0
 40
0
 40
0
 40
0
 40
1
 40
1
 40
1
 40
1
 10
-18.516586
 20
98.380017
 30
0.0
 10
-17.934306
 20
98.329133
 30
0.0
 10
-16.990253
 20
98.246518
 30
0.0
 10
-16.407982
 20
98.195512
 30
0.0
  0
LINE
  5
122
100
AcDbEntity
  8
Layer_1
 62
6
100
AcDbLine
 10
-16.407982
 20
98.195512
 30
0.0
 11
-0.827627
 21
96.830636
 31
0.0
  0
SPLINE
  5
123
100
AcDbEntity
  8
Layer_1
 62
6
100
AcDbSpline
 70
8
 71
3
 72
8
 73
4
 74
0
 40
0
 40
0
 40
0
 40
0
 40
1
 40
1
 40
1
 40
1
 10
-0.827627
 20
96.830636
 30
0.0
 10
-0.245356
 20
96.779630
 30
0.0
 10
0.698679
 20
96.696873
 30
0.0
 10
1.280948
 20
96.645787
 30
0.0
  0
SPLINE
  5
124
100
AcDbEntity
  8
Layer_1
 62
6
100
AcDbSpline
 70
8
 71
3
 72
8
 73
4
 74
0
 40
0
 40
0
 40
0
 40
0
 40
1
 40
1
 40
1
 40
1
 10
1.280948
 20
96.645787
 30
0.0
 10
17.149828
 20
95.253513
 30
0.0
 10
33.163261
 20
93.847103
 30
0.0
 10
50.483874
 20
92.345500
 30
0.0
  0
SPLINE
  5
125
100
AcDbEntity
  8
Layer_1
 62
6
100
AcDbSpline
 70
8
 71
3
 72
8
 73
4
 74
0
 40
0
 40
0
 40
0
 40
0
 40
1
 40
1
 40
1
 40
1
 10
50.483874
 20
92.345500
 30
0.0
 10
51.066190
 20
92.295020
 30
0.0
 10
52.010272
 20
92.212759
 30
0.0
 10
52.592544
 20
92.161744
 30
0.0
  0
LINE
  5
126
100
AcDbEntity
  8
Layer_1
 62
6
100
AcDbLine
 10
52.592544
 20
92.161744
 30
0.0
 11
73.298734
 21
90.347443
 31
0.0
  0
SPLINE
  5
127
100
AcDbEntity
  8
Layer_1
 62
6
100
AcDbSpline
 70
8
 71
3
 72
8
 73
4
 74
0
 40
0
 40
0
 40
0
 40
0
 40
1
 40
1
 40
1
 40
1
 10
73.298734
 20
90.347443
 30
0.0
 10
74.001597
 20
90.285859
 30
0.0
 10
74.704460
 20
90.224267
 30
0.0
 10
75.407322
 20
90.162666
 30
0.0
  0
SPLINE
  5
128
100
AcDbEntity
  8
Layer_1
 62
6
100
AcDbSpline
 70
8
 71
3
 72
8
 73
4
 74
0
 40
0
 40
0
 40
0
 40
0
 40
1
 40
1
 40
1
 40
1
 10
75.407322
 20
90.162666
 30
0.0
 10
76.059813
 20
90.107686
 30
0.0
 10
76.714392
 20
90.081216
 30
0.0
 10
77.369192
 20
90.083332
 30
0.0
  0
LINE
  5
129
100
AcDbEntity
  8
Layer_1
 62
6
100
AcDbLine
 10
77.369192
 20
90.083332
 30
0.0
 11
142.111313
 21
90.074978
 31
0.0
  0
SPLINE
  5
12a
100
AcDbEntity
  8
Layer_1
 62
6
100
AcDbSpline
 70
8
 71
3
 72
8
 73
4
 74
0
 40
0
 40
0
 40
0
 40
0
 40
1
 40
1
 40
1
 40
1
 10
142.111313
 20
90.074978
 30
0.0
 10
142.816530
 20
90.074894
 30
0.0
 10
143.521415
 20
90.105583
 30
0.0
 10
144.223956
 20
90.166957
 30
0.0
  0
LINE
  5
12b
100
AcDbEntity
  8
Layer_1
 62
6
100
AcDbLine
 10
144.223956
 20
90.166957
 30
0.0
 11
144.223959
 21
90.166927
 31
0.0
  0
SPLINE
  5
12c
100
AcDbEntity
  8
Layer_1
 62
6
100
AcDbSpline
 70
8
 71
3
 72
8
 73
4
 74
0
 40
0
 40
0
 40
0
 40
0
 40
1
 40
1
 40
1
 40
1
 10
-55.348948
 20
108.241992
 30
0.0
 10
-55.731725
 20
108.275481
 30
0.0
 10
-56.096984
 20
108.075093
 30
0.0
 10
-56.274406
 20
107.734268
 30
0.0
  0
SPLINE
  5
12d
100
AcDbEntity
  8
Layer_1
 62
6
100
AcDbSpline
 70
8
 71
3
 72
8
 73
4
 74
0
 40
0
 40
0
 40
0
 40
0
 40
1
 40
1
 40
1
 40
1
 10
-56.274406
 20
107.734268
 30
0.0
 10
-56.451828
 20
107.393444
 30
0.0
 10
-56.406472
 20
106.979303
 30
0.0
 10
-56.159488
 20
106.684958
 30
0.0
  0
SPLINE
  5
12e
100
AcDbEntity
  8
Layer_1
 62
6
100
AcDbSpline
 70
8
 71
3
 72
8
 73
4
 74
0
 40
0
 40
0
 40
0
 40
0
 40
1
 40
1
 40
1
 40
1
 10
-56.159488
 20
106.684958
 30
0.0
 10
-55.912504
 20
106.390614
 30
0.0
 10
-55.512530
 20
106.274033
 30
0.0
 10
-55.146075
 20
106.389576
 30
0.0
  0
SPLINE
  5
12f
100
AcDbEntity
  8
Layer_1
 62
6
100
AcDbSpline
 70
8
 71
3
 72
8
 73
4
 74
0
 40
0
 40
0
 40
0
 40
0
 40
1
 40
1
 40
1
 40
1
 10
-55.146075
 20
106.389576
 30
0.0
 10
-54.779619
 20
106.505119
 30
0.0
 10
-54.518849
 20
106.830032
 30
0.0
 10
-54.485360
 20
107.212809
 30
0.0
  0
SPLINE
  5
130
100
AcDbEntity
  8
Layer_1
 62
6
100
AcDbSpline
 70
8
 71
3
 72
8
 73
4
 74
0
 40
0
 40
0
 40
0
 40
0
 40
1
 40
1
 40
1
 40
1
 10
-54.485360
 20
107.212809
 30
0.0
 10
-54.463401
 20
107.463806
 30
0.0
 10
-54.542049
 20
107.713246
 30
0.0
 10
-54.704003
 20
107.906255
 30
0.0
  0
SPLINE
  5
131
100
AcDbEntity
  8
Layer_1
 62
6
100
AcDbSpline
 70
8
 71
3
 72
8
 73
4
 74
0
 40
0
 40
0
 40
0
 40
0
 40
1
 40
1
 40
1
 40
1
 10
-54.704003
 20
107.906255
 30
0.0
 10
-54.865957
 20
108.099265
 30
0.0
 10
-55.097951
 20
108.220033
 30
0.0
 10
-55.348948
 20
108.241992
 30
0.0
  0
LINE
  5
132
100
AcDbEntity
  8
Layer_1
 62
6
100
AcDbLine
 10
-55.348948
 20
108.241992
 30
0.0
 11
-55.348948
 21
108.241992
 31
0.0
  0
SPLINE
  5
133
100
AcDbEntity
  8
Layer_1
 62
6
100
AcDbSpline
 70
8
 71
3
 72
8
 73
4
 74
0
 40
0
 40
0
 40
0
 40
0
 40
1
 40
1
 40
1
 40
1
 10
-47.606604
 20
196.737451
 30
0.0
 10
-47.989381
 20
196.770939
 30
0.0
 10
-48.354641
 20
196.570551
 30
0.0
 10
-48.532063
 20
196.229727
 30
0.0
  0
SPLINE
  5
134
100
AcDbEntity
  8
Layer_1
 62
6
100
AcDbSpline
 70
8
 71
3
 72
8
 73
4
 74
0
 40
0
 40
0
 40
0
 40
0
 40
1
 40
1
 40
1
 40
1
 10
-48.532063
 20
196.229727
 30
0.0
 10
-48.709485
 20
195.888902
 30
0.0
 10
-48.664129
 20
195.474761
 30
0.0
 10
-48.417145
 20
195.180417
 30
0.0
  0
SPLINE
  5
135
100
AcDbEntity
  8
Layer_1
 62
6
100
AcDbSpline
 70
8
 71
3
 72
8
 73
4
 74
0
 40
0
 40
0
 40
0
 40
0
 40
1
 40
1
 40
1
 40
1
 10
-48.417145
 20
195.180417
 30
0.0
 10
-48.170160
 20
194.886073
 30
0.0
 10
-47.770187
 20
194.769491
 30
0.0
 10
-47.403732
 20
194.885034
 30
0.0
  0
SPLINE
  5
136
100
AcDbEntity
  8
Layer_1
 62
6
100
AcDbSpline
 70
8
 71
3
 72
8
 73
4
 74
0
 40
0
 40
0
 40
0
 40
0
 40
1
 40
1
 40
1
 40
1
 10
-47.403732
 20
194.885034
 30
0.0
 10
-47.037276
 20
195.000577
 30
0.0
 10
-46.776506
 20
195.325491
 30
0.0
 10
-46.743017
 20
195.708268
 30
0.0
  0
SPLINE
  5
137
100
AcDbEntity
  8
Layer_1
 62
6
100
AcDbSpline
 70
8
 71
3
 72
8
 73
4
 74
0
 40
0
 40
0
 40
0
 40
0
 40
1
 40
1
 40
1
 40
1
 10
-46.743017
 20
195.708268
 30
0.0
 10
-46.721058
 20
195.959265
 30
0.0
 10
-46.799706
 20
196.208705
 30
0.0
 10
-46.961660
 20
196.401714
 30
0.0
  0
SPLINE
  5
138
100
AcDbEntity
  8
Layer_1
 62
6
100
AcDbSpline
 70
8
 71
3
 72
8
 73
4
 74
0
 40
0
 40
0
 40
0
 40
0
 40
1
 40
1
 40
1
 40
1
 10
-46.961660
 20
196.401714
 30
0.0
 10
-47.123614
 20
196.594723
 30
0.0
 10
-47.355607
 20
196.715491
 30
0.0
 10
-47.606604
 20
196.737451
 30
0.0
  0
LINE
  5
139
100
AcDbEntity
  8
Layer_1
 62
6
100
AcDbLine
 10
-47.606604
 20
196.737451
 30
0.0
 11
-47.606604
 21
196.737451
 31
0.0
  0
SPLINE
  5
13a
100
AcDbEntity
  8
Layer_1
 62
6
100
AcDbSpline
 70
8
 71
3
 72
8
 73
4
 74
0
 40
0
 40
0
 40
0
 40
0
 40
1
 40
1
 40
1
 40
1
 10
80.902360
 20
194.049861
 30
0.0
 10
80.519583
 20
194.083349
 30
0.0
 10
80.154323
 20
193.882961
 30
0.0
 10
79.976901
 20
193.542137
 30
0.0
  0
SPLINE
  5
13b
100
AcDbEntity
  8
Layer_1
 62
6
100
AcDbSpline
 70
8
 71
3
 72
8
 73
4
 74
0
 40
0
 40
0
 40
0
 40
0
 40
1
 40
1
 40
1
 40
1
 10
79.976901
 20
193.542137
 30
0.0
 10
79.799479
 20
193.201312
 30
0.0
 10
79.844835
 20
192.787171
 30
0.0
 10
80.091819
 20
192.492827
 30
0.0
  0
SPLINE
  5
13c
100
AcDbEntity
  8
Layer_1
 62
6
100
AcDbSpline
 70
8
 71
3
 72
8
 73
4
 74
0
 40
0
 40
0
 40
0
 40
0
 40
1
 40
1
 40
1
 40
1
 10
80.091819
 20
192.492827
 30
0.0
 10
80.338804
 20
192.198483
 30
0.0
 10
80.738777
 20
192.081901
 30
0.0
 10
81.105232
 20
192.197444
 30
0.0
  0
SPLINE
  5
13d
100
AcDbEntity
  8
Layer_1
 62
6
100
AcDbSpline
 70
8
 71
3
 72
8
 73
4
 74
0
 40
0
 40
0
 40
0
 40
0
 40
1
 40
1
 40
1
 40
1
 10
81.105232
 20
192.197444
 30
0.0
 10
81.471688
 20
192.312987
 30
0.0
 10
81.732458
 20
192.637901
 30
0.0
 10
81.765947
 20
193.020678
 30
0.0
  0
SPLINE
  5
13e
100
AcDbEntity
  8
Layer_1
 62
6
100
AcDbSpline
 70
8
 71
3
 72
8
 73
4
 74
0
 40
0
 40
0
 40
0
 40
0
 40
1
 40
1
 40
1
 40
1
 10
81.765947
 20
193.020678
 30
0.0
 10
81.787906
 20
193.271675
 30
0.0
 10
81.709258
 20
193.521115
 30
0.0
 10
81.547304
 20
193.714124
 30
0.0
  0
SPLINE
  5
13f
100
AcDbEntity
  8
Layer_1
 62
6
100
AcDbSpline
 70
8
 71
3
 72
8
 73
4
 74
0
 40
0
 40
0
 40
0
 40
0
 40
1
 40
1
 40
1
 40
1
 10
81.547304
 20
193.714124
 30
0.0
 10
81.385350
 20
193.907133
 30
0.0
 10
81.153357
 20
194.027901
 30
0.0
 10
80.902360
 20
194.049861
 30
0.0
  0
LINE
  5
140
100
AcDbEntity
  8
Layer_1
 62
6
100
AcDbLine
 10
80.902360
 20
194.049861
 30
0.0
 11
80.902360
 21
194.049861
 31
0.0
  0
SPLINE
  5
141
100
AcDbEntity
  8
Layer_1
 62
6
100
AcDbSpline
 70
8
 71
3
 72
8
 73
4
 74
0
 40
0
 40
0
 40
0
 40
0
 40
1
 40
1
 40
1
 40
1
 10
72.419009
 20
97.084643
 30
0.0
 10
72.036232
 20
97.118131
 30
0.0
 10
71.670973
 20
96.917743
 30
0.0
 10
71.493551
 20
96.576919
 30
0.0
  0
SPLINE
  5
142
100
AcDbEntity
  8
Layer_1
 62
6
100
AcDbSpline
 70
8
 71
3
 72
8
 73
4
 74
0
 40
0
 40
0
 40
0
 40
0
 40
1
 40
1
 40
1
 40
1
 10
71.493551
 20
96.576919
 30
0.0
 10
71.316129
 20
96.236094
 30
0.0
 10
71.361485
 20
95.821953
 30
0.0
 10
71.608469
 20
95.527609
 30
0.0
  0
SPLINE
  5
143
100
AcDbEntity
  8
Layer_1
 62
6
100
AcDbSpline
 70
8
 71
3
 72
8
 73
4
 74
0
 40
0
 40
0
 40
0
 40
0
 40
1
 40
1
 40
1
 40
1
 10
71.608469
 20
95.527609
 30
0.0
 10
71.855453
 20
95.233265
 30
0.0
 10
72.255426
 20
95.116683
 30
0.0
 10
72.621882
 20
95.232226
 30
0.0
  0
SPLINE
  5
144
100
AcDbEntity
  8
Layer_1
 62
6
100
AcDbSpline
 70
8
 71
3
 72
8
 73
4
 74
0
 40
0
 40
0
 40
0
 40
0
 40
1
 40
1
 40
1
 40
1
 10
72.621882
 20
95.232226
 30
0.0
 10
72.988337
 20
95.347769
 30
0.0
 10
73.249108
 20
95.672682
 30
0.0
 10
73.282596
 20
96.055460
 30
0.0
  0
SPLINE
  5
145
100
AcDbEntity
  8
Layer_1
 62
6
100
AcDbSpline
 70
8
 71
3
 72
8
 73
4
 74
0
 40
0
 40
0
 40
0
 40
0
 40
1
 40
1
 40
1
 40
1
 10
73.282596
 20
96.055460
 30
0.0
 10
73.304556
 20
96.306457
 30
0.0
 10
73.225908
 20
96.555897
 30
0.0
 10
73.063954
 20
96.748906
 30
0.0
  0
SPLINE
  5
146
100
AcDbEntity
  8
Layer_1
 62
6
100
AcDbSpline
 70
8
 71
3
 72
8
 73
4
 74
0
 40
0
 40
0
 40
0
 40
0
 40
1
 40
1
 40
1
 40
1
 10
73.063954
 20
96.748906
 30
0.0
 10
72.902000
 20
96.941915
 30
0.0
 10
72.670006
 20
97.062683
 30
0.0
 10
72.419009
 20
97.084643
 30
0.0
  0
LINE
  5
147
100
AcDbEntity
  8
Layer_1
 62
6
100
AcDbLine
 10
72.419009
 20
97.084643
 30
0.0
 11
72.419009
 21
97.084643
 31
0.0
  0
SPLINE
  5
148
100
AcDbEntity
  8
Layer_1
 62
6
100
AcDbSpline
 70
8
 71
3
 72
8
 73
4
 74
0
 40
0
 40
0
 40
0
 40
0
 40
1
 40
1
 40
1
 40
1
 10
77.118287
 20
150.797674
 30
0.0
 10
76.735510
 20
150.831163
 30
0.0
 10
76.370250
 20
150.630774
 30
0.0
 10
76.192828
 20
150.289950
 30
0.0
  0
SPLINE
  5
149
100
AcDbEntity
  8
Layer_1
 62
6
100
AcDbSpline
 70
8
 71
3
 72
8
 73
4
 74
0
 40
0
 40
0
 40
0
 40
0
 40
1
 40
1
 40
1
 40
1
 10
76.192828
 20
150.289950
 30
0.0
 10
76.015406
 20
149.949126
 30
0.0
 10
76.060762
 20
149.534985
 30
0.0
 10
76.307746
 20
149.240640
 30
0.0
  0
SPLINE
  5
14a
100
AcDbEntity
  8
Layer_1
 62
6
100
AcDbSpline
 70
8
 71
3
 72
8
 73
4
 74
0
 40
0
 40
0
 40
0
 40
0
 40
1
 40
1
 40
1
 40
1
 10
76.307746
 20
149.240640
 30
0.0
 10
76.554731
 20
148.946296
 30
0.0
 10
76.954704
 20
148.829714
 30
0.0
 10
77.321159
 20
148.945257
 30
0.0
  0
SPLINE
  5
14b
100
AcDbEntity
  8
Layer_1
 62
6
100
AcDbSpline
 70
8
 71
3
 72
8
 73
4
 74
0
 40
0
 40
0
 40
0
 40
0
 40
1
 40
1
 40
1
 40
1
 10
77.321159
 20
148.945257
 30
0.0
 10
77.687615
 20
149.060800
 30
0.0
 10
77.948385
 20
149.385714
 30
0.0
 10
77.981874
 20
149.768491
 30
0.0
  0
SPLINE
  5
14c
100
AcDbEntity
  8
Layer_1
 62
6
100
AcDbSpline
 70
8
 71
3
 72
8
 73
4
 74
0
 40
0
 40
0
 40
0
 40
0
 40
1
 40
1
 40
1
 40
1
 10
77.981874
 20
149.768491
 30
0.0
 10
78.003833
 20
150.019488
 30
0.0
 10
77.925185
 20
150.268928
 30
0.0
 10
77.763231
 20
150.461937
 30
0.0
  0
SPLINE
  5
14d
100
AcDbEntity
  8
Layer_1
 62
6
100
AcDbSpline
 70
8
 71
3
 72
8
 73
4
 74
0
 40
0
 40
0
 40
0
 40
0
 40
1
 40
1
 40
1
 40
1
 10
77.763231
 20
150.461937
 30
0.0
 10
77.601277
 20
150.654946
 30
0.0
 10
77.369284
 20
150.775715
 30
0.0
 10
77.118287
 20
150.797674
 30
0.0
  0
LINE
  5
14e
100
AcDbEntity
  8
Layer_1
 62
6
100
AcDbLine
 10
77.118287
 20
150.797674
 30
0.0
 11
77.118287
 21
150.797674
 31
0.0
  0
SPLINE
  5
14f
100
AcDbEntity
  8
Layer_1
 62
6
100
AcDbSpline
 70
8
 71
3
 72
8
 73
4
 74
0
 40
0
 40
0
 40
0
 40
0
 40
1
 40
1
 40
1
 40
1
 10
274.794090
 20
108.237505
 30
0.0
 10
275.176867
 20
108.270994
 30
0.0
 10
275.542126
 20
108.070605
 30
0.0
 10
275.719548
 20
107.729781
 30
0.0
  0
SPLINE
  5
150
100
AcDbEntity
  8
Layer_1
 62
6
100
AcDbSpline
 70
8
 71
3
 72
8
 73
4
 74
0
 40
0
 40
0
 40
0
 40
0
 40
1
 40
1
 40
1
 40
1
 10
275.719548
 20
107.729781
 30
0.0
 10
275.896970
 20
107.388957
 30
0.0
 10
275.851614
 20
106.974816
 30
0.0
 10
275.604630
 20
106.680471
 30
0.0
  0
SPLINE
  5
151
100
AcDbEntity
  8
Layer_1
 62
6
100
AcDbSpline
 70
8
 71
3
 72
8
 73
4
 74
0
 40
0
 40
0
 40
0
 40
0
 40
1
 40
1
 40
1
 40
1
 10
275.604630
 20
106.680471
 30
0.0
 10
275.357646
 20
106.386127
 30
0.0
 10
274.957673
 20
106.269545
 30
0.0
 10
274.591217
 20
106.385088
 30
0.0
  0
SPLINE
  5
152
100
AcDbEntity
  8
Layer_1
 62
6
100
AcDbSpline
 70
8
 71
3
 72
8
 73
4
 74
0
 40
0
 40
0
 40
0
 40
0
 40
1
 40
1
 40
1
 40
1
 10
274.591217
 20
106.385088
 30
0.0
 10
274.224762
 20
106.500631
 30
0.0
 10
273.963991
 20
106.825545
 30
0.0
 10
273.930502
 20
107.208322
 30
0.0
  0
SPLINE
  5
153
100
AcDbEntity
  8
Layer_1
 62
6
100
AcDbSpline
 70
8
 71
3
 72
8
 73
4
 74
0
 40
0
 40
0
 40
0
 40
0
 40
1
 40
1
 40
1
 40
1
 10
273.930502
 20
107.208322
 30
0.0
 10
273.884774
 20
107.730996
 30
0.0
 10
274.271416
 20
108.191777
 30
0.0
 10
274.794090
 20
108.237505
 30
0.0
  0
LINE
  5
154
100
AcDbEntity
  8
Layer_1
 62
6
100
AcDbLine
 10
274.794090
 20
108.237505
 30
0.0
 11
274.794090
 21
108.237505
 31
0.0
  0
SPLINE
  5
155
100
AcDbEntity
  8
Layer_1
 62
6
100
AcDbSpline
 70
8
 71
3
 72
8
 73
4
 74
0
 40
0
 40
0
 40
0
 40
0
 40
1
 40
1
 40
1
 40
1
 10
267.051747
 20
196.732964
 30
0.0
 10
267.434524
 20
196.766452
 30
0.0
 10
267.799783
 20
196.566064
 30
0.0
 10
267.977205
 20
196.225240
 30
0.0
  0
SPLINE
  5
156
100
AcDbEntity
  8
Layer_1
 62
6
100
AcDbSpline
 70
8
 71
3
 72
8
 73
4
 74
0
 40
0
 40
0
 40
0
 40
0
 40
1
 40
1
 40
1
 40
1
 10
267.977205
 20
196.225240
 30
0.0
 10
268.154627
 20
195.884415
 30
0.0
 10
268.109271
 20
195.470274
 30
0.0
 10
267.862287
 20
195.175930
 30
0.0
  0
SPLINE
  5
157
100
AcDbEntity
  8
Layer_1
 62
6
100
AcDbSpline
 70
8
 71
3
 72
8
 73
4
 74
0
 40
0
 40
0
 40
0
 40
0
 40
1
 40
1
 40
1
 40
1
 10
267.862287
 20
195.175930
 30
0.0
 10
267.615303
 20
194.881586
 30
0.0
 10
267.215329
 20
194.765004
 30
0.0
 10
266.848874
 20
194.880547
 30
0.0
  0
SPLINE
  5
158
100
AcDbEntity
  8
Layer_1
 62
6
100
AcDbSpline
 70
8
 71
3
 72
8
 73
4
 74
0
 40
0
 40
0
 40
0
 40
0
 40
1
 40
1
 40
1
 40
1
 10
266.848874
 20
194.880547
 30
0.0
 10
266.482418
 20
194.996090
 30
0.0
 10
266.221648
 20
195.321003
 30
0.0
 10
266.188159
 20
195.703781
 30
0.0
  0
SPLINE
  5
159
100
AcDbEntity
  8
Layer_1
 62
6
100
AcDbSpline
 70
8
 71
3
 72
8
 73
4
 74
0
 40
0
 40
0
 40
0
 40
0
 40
1
 40
1
 40
1
 40
1
 10
266.188159
 20
195.703781
 30
0.0
 10
266.142431
 20
196.226455
 30
0.0
 10
266.529072
 20
196.687236
 30
0.0
 10
267.051747
 20
196.732964
 30
0.0
  0
LINE
  5
15a
100
AcDbEntity
  8
Layer_1
 62
6
100
AcDbLine
 10
267.051747
 20
196.732964
 30
0.0
 11
267.051747
 21
196.732964
 31
0.0
  0
SPLINE
  5
15b
100
AcDbEntity
  8
Layer_1
 62
6
100
AcDbSpline
 70
8
 71
3
 72
8
 73
4
 74
0
 40
0
 40
0
 40
0
 40
0
 40
1
 40
1
 40
1
 40
1
 10
138.582640
 20
194.048861
 30
0.0
 10
138.965417
 20
194.082349
 30
0.0
 10
139.330677
 20
193.881961
 30
0.0
 10
139.508099
 20
193.541137
 30
0.0
  0
SPLINE
  5
15c
100
AcDbEntity
  8
Layer_1
 62
6
100
AcDbSpline
 70
8
 71
3
 72
8
 73
4
 74
0
 40
0
 40
0
 40
0
 40
0
 40
1
 40
1
 40
1
 40
1
 10
139.508099
 20
193.541137
 30
0.0
 10
139.685521
 20
193.200312
 30
0.0
 10
139.640165
 20
192.786171
 30
0.0
 10
139.393181
 20
192.491827
 30
0.0
  0
SPLINE
  5
15d
100
AcDbEntity
  8
Layer_1
 62
6
100
AcDbSpline
 70
8
 71
3
 72
8
 73
4
 74
0
 40
0
 40
0
 40
0
 40
0
 40
1
 40
1
 40
1
 40
1
 10
139.393181
 20
192.491827
 30
0.0
 10
139.146196
 20
192.197483
 30
0.0
 10
138.746223
 20
192.080901
 30
0.0
 10
138.379768
 20
192.196444
 30
0.0
  0
SPLINE
  5
15e
100
AcDbEntity
  8
Layer_1
 62
6
100
AcDbSpline
 70
8
 71
3
 72
8
 73
4
 74
0
 40
0
 40
0
 40
0
 40
0
 40
1
 40
1
 40
1
 40
1
 10
138.379768
 20
192.196444
 30
0.0
 10
138.013312
 20
192.311987
 30
0.0
 10
137.752542
 20
192.636901
 30
0.0
 10
137.719053
 20
193.019678
 30
0.0
  0
SPLINE
  5
15f
100
AcDbEntity
  8
Layer_1
 62
6
100
AcDbSpline
 70
8
 71
3
 72
8
 73
4
 74
0
 40
0
 40
0
 40
0
 40
0
 40
1
 40
1
 40
1
 40
1
 10
137.719053
 20
193.019678
 30
0.0
 10
137.697094
 20
193.270675
 30
0.0
 10
137.775742
 20
193.520115
 30
0.0
 10
137.937696
 20
193.713124
 30
0.0
  0
SPLINE
  5
160
100
AcDbEntity
  8
Layer_1
 62
6
100
AcDbSpline
 70
8
 71
3
 72
8
 73
4
 74
0
 40
0
 40
0
 40
0
 40
0
 40
1
 40
1
 40
1
 40
1
 10
137.937696
 20
193.713124
 30
0.0
 10
138.099650
 20
193.906133
 30
0.0
 10
138.331643
 20
194.026901
 30
0.0
 10
138.582640
 20
194.048861
 30
0.0
  0
LINE
  5
161
100
AcDbEntity
  8
Layer_1
 62
6
100
AcDbLine
 10
138.582640
 20
194.048861
 30
0.0
 11
138.582640
 21
194.048861
 31
0.0
  0
SPLINE
  5
162
100
AcDbEntity
  8
Layer_1
 62
6
100
AcDbSpline
 70
8
 71
3
 72
8
 73
4
 74
0
 40
0
 40
0
 40
0
 40
0
 40
1
 40
1
 40
1
 40
1
 10
147.065991
 20
97.083643
 30
0.0
 10
147.448768
 20
97.117131
 30
0.0
 10
147.814027
 20
96.916743
 30
0.0
 10
147.991449
 20
96.575919
 30
0.0
  0
SPLINE
  5
163
100
AcDbEntity
  8
Layer_1
 62
6
100
AcDbSpline
 70
8
 71
3
 72
8
 73
4
 74
0
 40
0
 40
0
 40
0
 40
0
 40
1
 40
1
 40
1
 40
1
 10
147.991449
 20
96.575919
 30
0.0
 10
148.168871
 20
96.235094
 30
0.0
 10
148.123515
 20
95.820953
 30
0.0
 10
147.876531
 20
95.526609
 30
0.0
  0
SPLINE
  5
164
100
AcDbEntity
  8
Layer_1
 62
6
100
AcDbSpline
 70
8
 71
3
 72
8
 73
4
 74
0
 40
0
 40
0
 40
0
 40
0
 40
1
 40
1
 40
1
 40
1
 10
147.876531
 20
95.526609
 30
0.0
 10
147.629547
 20
95.232265
 30
0.0
 10
147.229574
 20
95.115683
 30
0.0
 10
146.863118
 20
95.231226
 30
0.0
  0
SPLINE
  5
165
100
AcDbEntity
  8
Layer_1
 62
6
100
AcDbSpline
 70
8
 71
3
 72
8
 73
4
 74
0
 40
0
 40
0
 40
0
 40
0
 40
1
 40
1
 40
1
 40
1
 10
146.863118
 20
95.231226
 30
0.0
 10
146.496663
 20
95.346769
 30
0.0
 10
146.235892
 20
95.671682
 30
0.0
 10
146.202404
 20
96.054460
 30
0.0
  0
SPLINE
  5
166
100
AcDbEntity
  8
Layer_1
 62
6
100
AcDbSpline
 70
8
 71
3
 72
8
 73
4
 74
0
 40
0
 40
0
 40
0
 40
0
 40
1
 40
1
 40
1
 40
1
 10
146.202404
 20
96.054460
 30
0.0
 10
146.180444
 20
96.305457
 30
0.0
 10
146.259092
 20
96.554897
 30
0.0
 10
146.421046
 20
96.747906
 30
0.0
  0
SPLINE
  5
167
100
AcDbEntity
  8
Layer_1
 62
6
100
AcDbSpline
 70
8
 71
3
 72
8
 73
4
 74
0
 40
0
 40
0
 40
0
 40
0
 40
1
 40
1
 40
1
 40
1
 10
146.421046
 20
96.747906
 30
0.0
 10
146.583000
 20
96.940915
 30
0.0
 10
146.814994
 20
97.061683
 30
0.0
 10
147.065991
 20
97.083643
 30
0.0
  0
LINE
  5
168
100
AcDbEntity
  8
Layer_1
 62
6
100
AcDbLine
 10
147.065991
 20
97.083643
 30
0.0
 11
147.065991
 21
97.083643
 31
0.0
  0
SPLINE
  5
169
100
AcDbEntity
  8
Layer_1
 62
6
100
AcDbSpline
 70
8
 71
3
 72
8
 73
4
 74
0
 40
0
 40
0
 40
0
 40
0
 40
1
 40
1
 40
1
 40
1
 10
142.366713
 20
150.796674
 30
0.0
 10
142.749490
 20
150.830163
 30
0.0
 10
143.114750
 20
150.629774
 30
0.0
 10
143.292172
 20
150.288950
 30
0.0
  0
SPLINE
  5
16a
100
AcDbEntity
  8
Layer_1
 62
6
100
AcDbSpline
 70
8
 71
3
 72
8
 73
4
 74
0
 40
0
 40
0
 40
0
 40
0
 40
1
 40
1
 40
1
 40
1
 10
143.292172
 20
150.288950
 30
0.0
 10
143.469594
 20
149.948126
 30
0.0
 10
143.424238
 20
149.533985
 30
0.0
 10
143.177254
 20
149.239640
 30
0.0
  0
SPLINE
  5
16b
100
AcDbEntity
  8
Layer_1
 62
6
100
AcDbSpline
 70
8
 71
3
 72
8
 73
4
 74
0
 40
0
 40
0
 40
0
 40
0
 40
1
 40
1
 40
1
 40
1
 10
143.177254
 20
149.239640
 30
0.0
 10
142.930269
 20
148.945296
 30
0.0
 10
142.530296
 20
148.828714
 30
0.0
 10
142.163841
 20
148.944257
 30
0.0
  0
SPLINE
  5
16c
100
AcDbEntity
  8
Layer_1
 62
6
100
AcDbSpline
 70
8
 71
3
 72
8
 73
4
 74
0
 40
0
 40
0
 40
0
 40
0
 40
1
 40
1
 40
1
 40
1
 10
142.163841
 20
148.944257
 30
0.0
 10
141.797385
 20
149.059800
 30
0.0
 10
141.536615
 20
149.384714
 30
0.0
 10
141.503126
 20
149.767491
 30
0.0
  0
SPLINE
  5
16d
100
AcDbEntity
  8
Layer_1
 62
6
100
AcDbSpline
 70
8
 71
3
 72
8
 73
4
 74
0
 40
0
 40
0
 40
0
 40
0
 40
1
 40
1
 40
1
 40
1
 10
141.503126
 20
149.767491
 30
0.0
 10
141.481167
 20
150.018488
 30
0.0
 10
141.559815
 20
150.267928
 30
0.0
 10
141.721769
 20
150.460937
 30
0.0
  0
SPLINE
  5
16e
100
AcDbEntity
  8
Layer_1
 62
6
100
AcDbSpline
 70
8
 71
3
 72
8
 73
4
 74
0
 40
0
 40
0
 40
0
 40
0
 40
1
 40
1
 40
1
 40
1
 10
141.721769
 20
150.460937
 30
0.0
 10
141.883723
 20
150.653946
 30
0.0
 10
142.115716
 20
150.774715
 30
0.0
 10
142.366713
 20
150.796674
 30
0.0
  0
LINE
  5
16f
100
AcDbEntity
  8
Layer_1
 62
6
100
AcDbLine
 10
142.366713
 20
150.796674
 30
0.0
 11
142.366713
 21
150.796674
 31
0.0
  0
SPLINE
  5
170
100
AcDbEntity
  8
Layer_1
 62
6
100
AcDbSpline
 70
8
 71
3
 72
8
 73
4
 74
0
 40
0
 40
0
 40
0
 40
0
 40
1
 40
1
 40
1
 40
1
 10
89.419170
 20
96.806570
 30
0.0
 10
89.034931
 20
96.806570
 30
0.0
 10
88.688526
 20
96.575110
 30
0.0
 10
88.541484
 20
96.220119
 30
0.0
  0
SPLINE
  5
171
100
AcDbEntity
  8
Layer_1
 62
6
100
AcDbSpline
 70
8
 71
3
 72
8
 73
4
 74
0
 40
0
 40
0
 40
0
 40
0
 40
1
 40
1
 40
1
 40
1
 10
88.541484
 20
96.220119
 30
0.0
 10
88.394443
 20
95.865129
 30
0.0
 10
88.475720
 20
95.456517
 30
0.0
 10
88.747419
 20
95.184819
 30
0.0
  0
SPLINE
  5
172
100
AcDbEntity
  8
Layer_1
 62
6
100
AcDbSpline
 70
8
 71
3
 72
8
 73
4
 74
0
 40
0
 40
0
 40
0
 40
0
 40
1
 40
1
 40
1
 40
1
 10
88.747419
 20
95.184819
 30
0.0
 10
89.019117
 20
94.913120
 30
0.0
 10
89.427729
 20
94.831843
 30
0.0
 10
89.782719
 20
94.978884
 30
0.0
  0
SPLINE
  5
173
100
AcDbEntity
  8
Layer_1
 62
6
100
AcDbSpline
 70
8
 71
3
 72
8
 73
4
 74
0
 40
0
 40
0
 40
0
 40
0
 40
1
 40
1
 40
1
 40
1
 10
89.782719
 20
94.978884
 30
0.0
 10
90.137710
 20
95.125926
 30
0.0
 10
90.369170
 20
95.472331
 30
0.0
 10
90.369170
 20
95.856570
 30
0.0
  0
SPLINE
  5
174
100
AcDbEntity
  8
Layer_1
 62
6
100
AcDbSpline
 70
8
 71
3
 72
8
 73
4
 74
0
 40
0
 40
0
 40
0
 40
0
 40
1
 40
1
 40
1
 40
1
 10
90.369170
 20
95.856570
 30
0.0
 10
90.369170
 20
96.108526
 30
0.0
 10
90.269081
 20
96.350162
 30
0.0
 10
90.090921
 20
96.528321
 30
0.0
  0
SPLINE
  5
175
100
AcDbEntity
  8
Layer_1
 62
6
100
AcDbSpline
 70
8
 71
3
 72
8
 73
4
 74
0
 40
0
 40
0
 40
0
 40
0
 40
1
 40
1
 40
1
 40
1
 10
90.090921
 20
96.528321
 30
0.0
 10
89.912762
 20
96.706481
 30
0.0
 10
89.671126
 20
96.806570
 30
0.0
 10
89.419170
 20
96.806570
 30
0.0
  0
LINE
  5
176
100
AcDbEntity
  8
Layer_1
 62
6
100
AcDbLine
 10
89.419170
 20
96.806570
 30
0.0
 11
89.419170
 21
96.806570
 31
0.0
  0
SPLINE
  5
177
100
AcDbEntity
  8
Layer_1
 62
6
100
AcDbSpline
 70
8
 71
3
 72
8
 73
4
 74
0
 40
0
 40
0
 40
0
 40
0
 40
1
 40
1
 40
1
 40
1
 10
128.771770
 20
96.806570
 30
0.0
 10
128.387531
 20
96.806570
 30
0.0
 10
128.041126
 20
96.575110
 30
0.0
 10
127.894084
 20
96.220119
 30
0.0
  0
SPLINE
  5
178
100
AcDbEntity
  8
Layer_1
 62
6
100
AcDbSpline
 70
8
 71
3
 72
8
 73
4
 74
0
 40
0
 40
0
 40
0
 40
0
 40
1
 40
1
 40
1
 40
1
 10
127.894084
 20
96.220119
 30
0.0
 10
127.747043
 20
95.865129
 30
0.0
 10
127.828320
 20
95.456517
 30
0.0
 10
128.100019
 20
95.184819
 30
0.0
  0
SPLINE
  5
179
100
AcDbEntity
  8
Layer_1
 62
6
100
AcDbSpline
 70
8
 71
3
 72
8
 73
4
 74
0
 40
0
 40
0
 40
0
 40
0
 40
1
 40
1
 40
1
 40
1
 10
128.100019
 20
95.184819
 30
0.0
 10
128.371717
 20
94.913120
 30
0.0
 10
128.780329
 20
94.831843
 30
0.0
 10
129.135319
 20
94.978884
 30
0.0
  0
SPLINE
  5
17a
100
AcDbEntity
  8
Layer_1
 62
6
100
AcDbSpline
 70
8
 71
3
 72
8
 73
4
 74
0
 40
0
 40
0
 40
0
 40
0
 40
1
 40
1
 40
1
 40
1
 10
129.135319
 20
94.978884
 30
0.0
 10
129.490310
 20
95.125926
 30
0.0
 10
129.721770
 20
95.472331
 30
0.0
 10
129.721770
 20
95.856570
 30
0.0
  0
SPLINE
  5
17b
100
AcDbEntity
  8
Layer_1
 62
6
100
AcDbSpline
 70
8
 71
3
 72
8
 73
4
 74
0
 40
0
 40
0
 40
0
 40
0
 40
1
 40
1
 40
1
 40
1
 10
129.721770
 20
95.856570
 30
0.0
 10
129.721770
 20
96.108526
 30
0.0
 10
129.621681
 20
96.350162
 30
0.0
 10
129.443521
 20
96.528321
 30
0.0
  0
SPLINE
  5
17c
100
AcDbEntity
  8
Layer_1
 62
6
100
AcDbSpline
 70
8
 71
3
 72
8
 73
4
 74
0
 40
0
 40
0
 40
0
 40
0
 40
1
 40
1
 40
1
 40
1
 10
129.443521
 20
96.528321
 30
0.0
 10
129.265362
 20
96.706481
 30
0.0
 10
129.023726
 20
96.806570
 30
0.0
 10
128.771770
 20
96.806570
 30
0.0
  0
LINE
  5
17d
100
AcDbEntity
  8
Layer_1
 62
6
100
AcDbLine
 10
128.771770
 20
96.806570
 30
0.0
 11
128.771770
 21
96.806570
 31
0.0
  0
SPLINE
  5
17e
100
AcDbEntity
  8
Layer_1
 62
6
100
AcDbSpline
 70
8
 71
3
 72
8
 73
4
 74
0
 40
0
 40
0
 40
0
 40
0
 40
1
 40
1
 40
1
 40
1
 10
89.419170
 20
189.108180
 30
0.0
 10
89.034931
 20
189.108180
 30
0.0
 10
88.688526
 20
188.876720
 30
0.0
 10
88.541484
 20
188.521729
 30
0.0
  0
SPLINE
  5
17f
100
AcDbEntity
  8
Layer_1
 62
6
100
AcDbSpline
 70
8
 71
3
 72
8
 73
4
 74
0
 40
0
 40
0
 40
0
 40
0
 40
1
 40
1
 40
1
 40
1
 10
88.541484
 20
188.521729
 30
0.0
 10
88.394443
 20
188.166739
 30
0.0
 10
88.475720
 20
187.758127
 30
0.0
 10
88.747419
 20
187.486429
 30
0.0
  0
SPLINE
  5
180
100
AcDbEntity
  8
Layer_1
 62
6
100
AcDbSpline
 70
8
 71
3
 72
8
 73
4
 74
0
 40
0
 40
0
 40
0
 40
0
 40
1
 40
1
 40
1
 40
1
 10
88.747419
 20
187.486429
 30
0.0
 10
89.019117
 20
187.214730
 30
0.0
 10
89.427729
 20
187.133453
 30
0.0
 10
89.782719
 20
187.280494
 30
0.0
  0
SPLINE
  5
181
100
AcDbEntity
  8
Layer_1
 62
6
100
AcDbSpline
 70
8
 71
3
 72
8
 73
4
 74
0
 40
0
 40
0
 40
0
 40
0
 40
1
 40
1
 40
1
 40
1
 10
89.782719
 20
187.280494
 30
0.0
 10
90.137710
 20
187.427536
 30
0.0
 10
90.369170
 20
187.773941
 30
0.0
 10
90.369170
 20
188.158180
 30
0.0
  0
SPLINE
  5
182
100
AcDbEntity
  8
Layer_1
 62
6
100
AcDbSpline
 70
8
 71
3
 72
8
 73
4
 74
0
 40
0
 40
0
 40
0
 40
0
 40
1
 40
1
 40
1
 40
1
 10
90.369170
 20
188.158180
 30
0.0
 10
90.369170
 20
188.410136
 30
0.0
 10
90.269081
 20
188.651772
 30
0.0
 10
90.090921
 20
188.829931
 30
0.0
  0
SPLINE
  5
183
100
AcDbEntity
  8
Layer_1
 62
6
100
AcDbSpline
 70
8
 71
3
 72
8
 73
4
 74
0
 40
0
 40
0
 40
0
 40
0
 40
1
 40
1
 40
1
 40
1
 10
90.090921
 20
188.829931
 30
0.0
 10
89.912762
 20
189.008091
 30
0.0
 10
89.671126
 20
189.108180
 30
0.0
 10
89.419170
 20
189.108180
 30
0.0
  0
LINE
  5
184
100
AcDbEntity
  8
Layer_1
 62
6
100
AcDbLine
 10
89.419170
 20
189.108180
 30
0.0
 11
89.419170
 21
189.108180
 31
0.0
  0
SPLINE
  5
185
100
AcDbEntity
  8
Layer_1
 62
6
100
AcDbSpline
 70
8
 71
3
 72
8
 73
4
 74
0
 40
0
 40
0
 40
0
 40
0
 40
1
 40
1
 40
1
 40
1
 10
128.771770
 20
189.108180
 30
0.0
 10
128.387531
 20
189.108180
 30
0.0
 10
128.041126
 20
188.876720
 30
0.0
 10
127.894084
 20
188.521729
 30
0.0
  0
SPLINE
  5
186
100
AcDbEntity
  8
Layer_1
 62
6
100
AcDbSpline
 70
8
 71
3
 72
8
 73
4
 74
0
 40
0
 40
0
 40
0
 40
0
 40
1
 40
1
 40
1
 40
1
 10
127.894084
 20
188.521729
 30
0.0
 10
127.747043
 20
188.166739
 30
0.0
 10
127.828320
 20
187.758127
 30
0.0
 10
128.100019
 20
187.486429
 30
0.0
  0
SPLINE
  5
187
100
AcDbEntity
  8
Layer_1
 62
6
100
AcDbSpline
 70
8
 71
3
 72
8
 73
4
 74
0
 40
0
 40
0
 40
0
 40
0
 40
1
 40
1
 40
1
 40
1
 10
128.100019
 20
187.486429
 30
0.0
 10
128.371717
 20
187.214730
 30
0.0
 10
128.780329
 20
187.133453
 30
0.0
 10
129.135319
 20
187.280494
 30
0.0
  0
SPLINE
  5
188
100
AcDbEntity
  8
Layer_1
 62
6
100
AcDbSpline
 70
8
 71
3
 72
8
 73
4
 74
0
 40
0
 40
0
 40
0
 40
0
 40
1
 40
1
 40
1
 40
1
 10
129.135319
 20
187.280494
 30
0.0
 10
129.490310
 20
187.427536
 30
0.0
 10
129.721770
 20
187.773941
 30
0.0
 10
129.721770
 20
188.158180
 30
0.0
  0
SPLINE
  5
189
100
AcDbEntity
  8
Layer_1
 62
6
100
AcDbSpline
 70
8
 71
3
 72
8
 73
4
 74
0
 40
0
 40
0
 40
0
 40
0
 40
1
 40
1
 40
1
 40
1
 10
129.721770
 20
188.158180
 30
0.0
 10
129.721770
 20
188.410136
 30
0.0
 10
129.621681
 20
188.651772
 30
0.0
 10
129.443521
 20
188.829931
 30
0.0
  0
SPLINE
  5
18a
100
AcDbEntity
  8
Layer_1
 62
6
100
AcDbSpline
 70
8
 71
3
 72
8
 73
4
 74
0
 40
0
 40
0
 40
0
 40
0
 40
1
 40
1
 40
1
 40
1
 10
129.443521
 20
188.829931
 30
0.0
 10
129.265362
 20
189.008091
 30
0.0
 10
129.023726
 20
189.108180
 30
0.0
 10
128.771770
 20
189.108180
 30
0.0
  0
LINE
  5
18b
100
AcDbEntity
  8
Layer_1
 62
6
100
AcDbLine
 10
128.771770
 20
189.108180
 30
0.0
 11
128.771770
 21
189.108180
 31
0.0
  0
SPLINE
  5
18c
100
AcDbEntity
  8
Layer_1
 62
6
100
AcDbSpline
 70
8
 71
3
 72
8
 73
4
 74
0
 40
0
 40
0
 40
0
 40
0
 40
1
 40
1
 40
1
 40
1
 10
128.771690
 20
145.437420
 30
0.0
 10
128.246960
 20
145.437320
 30
0.0
 10
127.821700
 20
145.011820
 30
0.0
 10
127.821880
 20
144.487090
 30
0.0
  0
LINE
  5
18d
100
AcDbEntity
  8
Layer_1
 62
6
100
AcDbLine
 10
127.821880
 20
144.487090
 30
0.0
 11
127.821880
 21
143.428760
 31
0.0
  0
SPLINE
  5
18e
100
AcDbEntity
  8
Layer_1
 62
6
100
AcDbSpline
 70
8
 71
3
 72
8
 73
4
 74
0
 40
0
 40
0
 40
0
 40
0
 40
1
 40
1
 40
1
 40
1
 10
127.821880
 20
143.428760
 30
0.0
 10
127.821980
 20
142.904240
 30
0.0
 10
128.247170
 20
142.479050
 30
0.0
 10
128.771690
 20
142.478950
 30
0.0
  0
SPLINE
  5
18f
100
AcDbEntity
  8
Layer_1
 62
6
100
AcDbSpline
 70
8
 71
3
 72
8
 73
4
 74
0
 40
0
 40
0
 40
0
 40
0
 40
1
 40
1
 40
1
 40
1
 10
128.771690
 20
142.478950
 30
0.0
 10
129.296420
 20
142.478770
 30
0.0
 10
129.721920
 20
142.904030
 30
0.0
 10
129.722020
 20
143.428760
 30
0.0
  0
LINE
  5
190
100
AcDbEntity
  8
Layer_1
 62
6
100
AcDbLine
 10
129.722020
 20
143.428760
 30
0.0
 11
129.722020
 21
144.487090
 31
0.0
  0
SPLINE
  5
191
100
AcDbEntity
  8
Layer_1
 62
6
100
AcDbSpline
 70
8
 71
3
 72
8
 73
4
 74
0
 40
0
 40
0
 40
0
 40
0
 40
1
 40
1
 40
1
 40
1
 10
129.722020
 20
144.487090
 30
0.0
 10
129.722200
 20
145.012020
 30
0.0
 10
129.296620
 20
145.437600
 30
0.0
 10
128.771690
 20
145.437420
 30
0.0
  0
LINE
  5
192
100
AcDbEntity
  8
Layer_1
 62
6
100
AcDbLine
 10
128.771690
 20
145.437420
 30
0.0
 11
128.771690
 21
145.437420
 31
0.0
  0
SPLINE
  5
193
100
AcDbEntity
  8
Layer_1
 62
6
100
AcDbSpline
 70
8
 71
3
 72
8
 73
4
 74
0
 40
0
 40
0
 40
0
 40
0
 40
1
 40
1
 40
1
 40
1
 10
89.419060
 20
141.535850
 30
0.0
 10
88.894330
 20
141.535750
 30
0.0
 10
88.469060
 20
141.110250
 30
0.0
 10
88.469240
 20
140.585520
 30
0.0
  0
LINE
  5
194
100
AcDbEntity
  8
Layer_1
 62
6
100
AcDbLine
 10
88.469240
 20
140.585520
 30
0.0
 11
88.469240
 21
139.527190
 31
0.0
  0
SPLINE
  5
195
100
AcDbEntity
  8
Layer_1
 62
6
100
AcDbSpline
 70
8
 71
3
 72
8
 73
4
 74
0
 40
0
 40
0
 40
0
 40
0
 40
1
 40
1
 40
1
 40
1
 10
88.469240
 20
139.527190
 30
0.0
 10
88.469340
 20
139.002660
 30
0.0
 10
88.894530
 20
138.577480
 30
0.0
 10
89.419060
 20
138.577380
 30
0.0
  0
SPLINE
  5
196
100
AcDbEntity
  8
Layer_1
 62
6
100
AcDbSpline
 70
8
 71
3
 72
8
 73
4
 74
0
 40
0
 40
0
 40
0
 40
0
 40
1
 40
1
 40
1
 40
1
 10
89.419060
 20
138.577380
 30
0.0
 10
89.943790
 20
138.577200
 30
0.0
 10
90.369290
 20
139.002460
 30
0.0
 10
90.369390
 20
139.527190
 30
0.0
  0
LINE
  5
197
100
AcDbEntity
  8
Layer_1
 62
6
100
AcDbLine
 10
90.369390
 20
139.527190
 30
0.0
 11
90.369390
 21
140.585520
 31
0.0
  0
SPLINE
  5
198
100
AcDbEntity
  8
Layer_1
 62
6
100
AcDbSpline
 70
8
 71
3
 72
8
 73
4
 74
0
 40
0
 40
0
 40
0
 40
0
 40
1
 40
1
 40
1
 40
1
 10
90.369390
 20
140.585520
 30
0.0
 10
90.369570
 20
141.110450
 30
0.0
 10
89.943990
 20
141.536030
 30
0.0
 10
89.419060
 20
141.535850
 30
0.0
  0
LINE
  5
199
100
AcDbEntity
  8
Layer_1
 62
6
100
AcDbLine
 10
89.419060
 20
141.535850
 30
0.0
 11
89.419060
 21
141.535850
 31
0.0
  0
SPLINE
  5
19a
100
AcDbEntity
  8
Layer_1
 62
6
100
AcDbSpline
 70
8
 71
3
 72
8
 73
4
 74
0
 40
0
 40
0
 40
0
 40
0
 40
1
 40
1
 40
1
 40
1
 10
153.981010
 20
190.258717
 30
0.0
 10
153.350435
 20
190.203548
 30
0.0
 10
152.815183
 20
189.773963
 30
0.0
 10
152.624842
 20
189.170276
 30
0.0
  0
SPLINE
  5
19b
100
AcDbEntity
  8
Layer_1
 62
6
100
AcDbSpline
 70
8
 71
3
 72
8
 73
4
 74
0
 40
0
 40
0
 40
0
 40
0
 40
1
 40
1
 40
1
 40
1
 10
152.624842
 20
189.170276
 30
0.0
 10
152.434500
 20
188.566589
 30
0.0
 10
152.626553
 20
187.907686
 30
0.0
 10
153.111446
 20
187.500812
 30
0.0
  0
SPLINE
  5
19c
100
AcDbEntity
  8
Layer_1
 62
6
100
AcDbSpline
 70
8
 71
3
 72
8
 73
4
 74
0
 40
0
 40
0
 40
0
 40
0
 40
1
 40
1
 40
1
 40
1
 10
153.111446
 20
187.500812
 30
0.0
 10
153.596340
 20
187.093938
 30
0.0
 10
154.278582
 20
187.019221
 30
0.0
 10
154.840045
 20
187.311500
 30
0.0
  0
SPLINE
  5
19d
100
AcDbEntity
  8
Layer_1
 62
6
100
AcDbSpline
 70
8
 71
3
 72
8
 73
4
 74
0
 40
0
 40
0
 40
0
 40
0
 40
1
 40
1
 40
1
 40
1
 10
154.840045
 20
187.311500
 30
0.0
 10
155.401509
 20
187.603779
 30
0.0
 10
155.731622
 20
188.205496
 30
0.0
 10
155.676454
 20
188.836071
 30
0.0
  0
SPLINE
  5
19e
100
AcDbEntity
  8
Layer_1
 62
6
100
AcDbSpline
 70
8
 71
3
 72
8
 73
4
 74
0
 40
0
 40
0
 40
0
 40
0
 40
1
 40
1
 40
1
 40
1
 10
155.676454
 20
188.836071
 30
0.0
 10
155.640278
 20
189.249555
 30
0.0
 10
155.441329
 20
189.631734
 30
0.0
 10
155.123371
 20
189.898531
 30
0.0
  0
SPLINE
  5
19f
100
AcDbEntity
  8
Layer_1
 62
6
100
AcDbSpline
 70
8
 71
3
 72
8
 73
4
 74
0
 40
0
 40
0
 40
0
 40
0
 40
1
 40
1
 40
1
 40
1
 10
155.123371
 20
189.898531
 30
0.0
 10
154.805414
 20
190.165329
 30
0.0
 10
154.394494
 20
190.294892
 30
0.0
 10
153.981010
 20
190.258717
 30
0.0
  0
LINE
  5
1a0
100
AcDbEntity
  8
Layer_1
 62
6
100
AcDbLine
 10
153.981010
 20
190.258717
 30
0.0
 11
153.981010
 21
190.258717
 31
0.0
  0
SPLINE
  5
1a1
100
AcDbEntity
  8
Layer_1
 62
6
100
AcDbSpline
 70
8
 71
3
 72
8
 73
4
 74
0
 40
0
 40
0
 40
0
 40
0
 40
1
 40
1
 40
1
 40
1
 10
250.883986
 20
198.736628
 30
0.0
 10
250.253412
 20
198.681460
 30
0.0
 10
249.718160
 20
198.251875
 30
0.0
 10
249.527818
 20
197.648188
 30
0.0
  0
SPLINE
  5
1a2
100
AcDbEntity
  8
Layer_1
 62
6
100
AcDbSpline
 70
8
 71
3
 72
8
 73
4
 74
0
 40
0
 40
0
 40
0
 40
0
 40
1
 40
1
 40
1
 40
1
 10
249.527818
 20
197.648188
 30
0.0
 10
249.337476
 20
197.044501
 30
0.0
 10
249.529529
 20
196.385598
 30
0.0
 10
250.014423
 20
195.978724
 30
0.0
  0
SPLINE
  5
1a3
100
AcDbEntity
  8
Layer_1
 62
6
100
AcDbSpline
 70
8
 71
3
 72
8
 73
4
 74
0
 40
0
 40
0
 40
0
 40
0
 40
1
 40
1
 40
1
 40
1
 10
250.014423
 20
195.978724
 30
0.0
 10
250.499316
 20
195.571850
 30
0.0
 10
251.181559
 20
195.497132
 30
0.0
 10
251.743022
 20
195.789412
 30
0.0
  0
SPLINE
  5
1a4
100
AcDbEntity
  8
Layer_1
 62
6
100
AcDbSpline
 70
8
 71
3
 72
8
 73
4
 74
0
 40
0
 40
0
 40
0
 40
0
 40
1
 40
1
 40
1
 40
1
 10
251.743022
 20
195.789412
 30
0.0
 10
252.304485
 20
196.081691
 30
0.0
 10
252.634598
 20
196.683408
 30
0.0
 10
252.579430
 20
197.313982
 30
0.0
  0
SPLINE
  5
1a5
100
AcDbEntity
  8
Layer_1
 62
6
100
AcDbSpline
 70
8
 71
3
 72
8
 73
4
 74
0
 40
0
 40
0
 40
0
 40
0
 40
1
 40
1
 40
1
 40
1
 10
252.579430
 20
197.313982
 30
0.0
 10
252.543255
 20
197.727467
 30
0.0
 10
252.344305
 20
198.109645
 30
0.0
 10
252.026348
 20
198.376443
 30
0.0
  0
SPLINE
  5
1a6
100
AcDbEntity
  8
Layer_1
 62
6
100
AcDbSpline
 70
8
 71
3
 72
8
 73
4
 74
0
 40
0
 40
0
 40
0
 40
0
 40
1
 40
1
 40
1
 40
1
 10
252.026348
 20
198.376443
 30
0.0
 10
251.708391
 20
198.643241
 30
0.0
 10
251.297471
 20
198.772804
 30
0.0
 10
250.883986
 20
198.736628
 30
0.0
  0
LINE
  5
1a7
100
AcDbEntity
  8
Layer_1
 62
6
100
AcDbLine
 10
250.883986
 20
198.736628
 30
0.0
 11
250.883986
 21
198.736628
 31
0.0
  0
SPLINE
  5
1a8
100
AcDbEntity
  8
Layer_1
 62
6
100
AcDbSpline
 70
8
 71
3
 72
8
 73
4
 74
0
 40
0
 40
0
 40
0
 40
0
 40
1
 40
1
 40
1
 40
1
 10
64.566841
 20
190.342224
 30
0.0
 10
63.936266
 20
190.397392
 30
0.0
 10
63.334549
 20
190.067279
 30
0.0
 10
63.042270
 20
189.505816
 30
0.0
  0
SPLINE
  5
1a9
100
AcDbEntity
  8
Layer_1
 62
6
100
AcDbSpline
 70
8
 71
3
 72
8
 73
4
 74
0
 40
0
 40
0
 40
0
 40
0
 40
1
 40
1
 40
1
 40
1
 10
63.042270
 20
189.505816
 30
0.0
 10
62.749991
 20
188.944353
 30
0.0
 10
62.824708
 20
188.262110
 30
0.0
 10
63.231582
 20
187.777217
 30
0.0
  0
SPLINE
  5
1aa
100
AcDbEntity
  8
Layer_1
 62
6
100
AcDbSpline
 70
8
 71
3
 72
8
 73
4
 74
0
 40
0
 40
0
 40
0
 40
0
 40
1
 40
1
 40
1
 40
1
 10
63.231582
 20
187.777217
 30
0.0
 10
63.638456
 20
187.292323
 30
0.0
 10
64.297359
 20
187.100270
 30
0.0
 10
64.901047
 20
187.290612
 30
0.0
  0
SPLINE
  5
1ab
100
AcDbEntity
  8
Layer_1
 62
6
100
AcDbSpline
 70
8
 71
3
 72
8
 73
4
 74
0
 40
0
 40
0
 40
0
 40
0
 40
1
 40
1
 40
1
 40
1
 10
64.901047
 20
187.290612
 30
0.0
 10
65.504734
 20
187.480954
 30
0.0
 10
65.934319
 20
188.016206
 30
0.0
 10
65.989487
 20
188.646781
 30
0.0
  0
SPLINE
  5
1ac
100
AcDbEntity
  8
Layer_1
 62
6
100
AcDbSpline
 70
8
 71
3
 72
8
 73
4
 74
0
 40
0
 40
0
 40
0
 40
0
 40
1
 40
1
 40
1
 40
1
 10
65.989487
 20
188.646781
 30
0.0
 10
66.025662
 20
189.060265
 30
0.0
 10
65.896099
 20
189.471185
 30
0.0
 10
65.629302
 20
189.789142
 30
0.0
  0
SPLINE
  5
1ad
100
AcDbEntity
  8
Layer_1
 62
6
100
AcDbSpline
 70
8
 71
3
 72
8
 73
4
 74
0
 40
0
 40
0
 40
0
 40
0
 40
1
 40
1
 40
1
 40
1
 10
65.629302
 20
189.789142
 30
0.0
 10
65.362504
 20
190.107099
 30
0.0
 10
64.980325
 20
190.306049
 30
0.0
 10
64.566841
 20
190.342224
 30
0.0
  0
LINE
  5
1ae
100
AcDbEntity
  8
Layer_1
 62
6
100
AcDbLine
 10
64.566841
 20
190.342224
 30
0.0
 11
64.566841
 21
190.342224
 31
0.0
  0
SPLINE
  5
1af
100
AcDbEntity
  8
Layer_1
 62
6
100
AcDbSpline
 70
8
 71
3
 72
8
 73
4
 74
0
 40
0
 40
0
 40
0
 40
0
 40
1
 40
1
 40
1
 40
1
 10
-32.336139
 20
198.820136
 30
0.0
 10
-32.966713
 20
198.875304
 30
0.0
 10
-33.568430
 20
198.545191
 30
0.0
 10
-33.860710
 20
197.983728
 30
0.0
  0
SPLINE
  5
1b0
100
AcDbEntity
  8
Layer_1
 62
6
100
AcDbSpline
 70
8
 71
3
 72
8
 73
4
 74
0
 40
0
 40
0
 40
0
 40
0
 40
1
 40
1
 40
1
 40
1
 10
-33.860710
 20
197.983728
 30
0.0
 10
-34.152989
 20
197.422265
 30
0.0
 10
-34.078271
 20
196.740022
 30
0.0
 10
-33.671397
 20
196.255129
 30
0.0
  0
SPLINE
  5
1b1
100
AcDbEntity
  8
Layer_1
 62
6
100
AcDbSpline
 70
8
 71
3
 72
8
 73
4
 74
0
 40
0
 40
0
 40
0
 40
0
 40
1
 40
1
 40
1
 40
1
 10
-33.671397
 20
196.255129
 30
0.0
 10
-33.264523
 20
195.770235
 30
0.0
 10
-32.605620
 20
195.578183
 30
0.0
 10
-32.001933
 20
195.768524
 30
0.0
  0
SPLINE
  5
1b2
100
AcDbEntity
  8
Layer_1
 62
6
100
AcDbSpline
 70
8
 71
3
 72
8
 73
4
 74
0
 40
0
 40
0
 40
0
 40
0
 40
1
 40
1
 40
1
 40
1
 10
-32.001933
 20
195.768524
 30
0.0
 10
-31.398246
 20
195.958866
 30
0.0
 10
-30.968661
 20
196.494118
 30
0.0
 10
-30.913493
 20
197.124693
 30
0.0
  0
SPLINE
  5
1b3
100
AcDbEntity
  8
Layer_1
 62
6
100
AcDbSpline
 70
8
 71
3
 72
8
 73
4
 74
0
 40
0
 40
0
 40
0
 40
0
 40
1
 40
1
 40
1
 40
1
 10
-30.913493
 20
197.124693
 30
0.0
 10
-30.877317
 20
197.538177
 30
0.0
 10
-31.006880
 20
197.949097
 30
0.0
 10
-31.273678
 20
198.267054
 30
0.0
  0
SPLINE
  5
1b4
100
AcDbEntity
  8
Layer_1
 62
6
100
AcDbSpline
 70
8
 71
3
 72
8
 73
4
 74
0
 40
0
 40
0
 40
0
 40
0
 40
1
 40
1
 40
1
 40
1
 10
-31.273678
 20
198.267054
 30
0.0
 10
-31.540476
 20
198.585011
 30
0.0
 10
-31.922654
 20
198.783961
 30
0.0
 10
-32.336139
 20
198.820136
 30
0.0
  0
LINE
  5
1b5
100
AcDbEntity
  8
Layer_1
 62
6
100
AcDbLine
 10
-32.336139
 20
198.820136
 30
0.0
 11
-32.336139
 21
198.820136
 31
0.0
  0
ENDSEC
  0
SECTION
  2
OBJECTS
  0
DICTIONARY
  5
C
330
0
100
AcDbDictionary
  3
ACAD_GROUP
350
D
  3
ACAD_MLINESTYLE
350
17
  0
DICTIONARY
  5
D
330
C
100
AcDbDictionary
  0
DICTIONARY
  5
1A
330
C
100
AcDbDictionary
  0
DICTIONARY
  5
17
330
C
100
AcDbDictionary
  3
STANDARD
350
18
  0
DICTIONARY
  5
19
330
C
100
AcDbDictionary
  0
ENDSEC
  0
EOF
