  0
SECTION
  2
HEADER
  9
$ACADVER
  1
AC1014
  9
$HANDSEED
  5
FFFF
  9
$INSUNITS
 70
     0
  9
$MEASUREMENT
 70
     1
  0
ENDSEC
  0
SECTION
  2
TABLES
  0
TABLE
  2
VPORT
  5
8
330
0
100
AcDbSymbolTable
 70
     4
  0
VPORT
  5
2E
330
8
100
AcDbSymbolTableRecord
100
AcDbViewportTableRecord
  2
*ACTIVE
 70
     0
 10
0.0
 20
0.0
 11
1.0
 21
1.0
 12
210.0
 22
148.5
 13
0.0
 23
0.0
 14
10.0
 24
10.0
 15
10.0
 25
10.0
 16
0.0
 26
0.0
 36
1.0
 17
0.0
 27
0.0
 37
0.0
 40
341.0
 41
1.24
 42
50.0
 43
0.0
 44
0.0
 50
0.0
 51
0.0
 71
     0
 72
   100
 73
     1
 74
     3
 75
     0
 76
     0
 77
     0
 78
     0
  0
ENDTAB
  0
TABLE
  2
LTYPE
  5
5
330
0
100
AcDbSymbolTable
 70
     1
  0
LTYPE
  5
14
330
5
100
AcDbSymbolTableRecord
100
AcDbLinetypeTableRecord
  2
BYBLOCK
 70
     0
  3

 72
    65
 73
     0
 40
0.0
  0
LTYPE
  5
15
330
5
100
AcDbSymbolTableRecord
100
AcDbLinetypeTableRecord
  2
BYLAYER
 70
     0
  3

 72
    65
 73
     0
 40
0.0
  0
LTYPE
  5
16
330
5
100
AcDbSymbolTableRecord
100
AcDbLinetypeTableRecord
  2
CONTINUOUS
 70
     0
  3
Solid line
 72
    65
 73
     0
 40
0.0
  0
ENDTAB
  0
TABLE
  2
LAYER
  5
2
100
AcDbSymbolTable
 70
2
  0
LAYER
  5
50
100
AcDbSymbolTableRecord
100
AcDbLayerTableRecord
  2
0
 70
0
  6
CONTINUOUS
  0
LAYER
  5
51
100
AcDbSymbolTableRecord
100
AcDbLayerTableRecord
  2
Layer_1
 70
0
  6
CONTINUOUS
  0
ENDTAB
  0
TABLE
  2
STYLE
  5
3
330
0
100
AcDbSymbolTable
 70
     1
  0
STYLE
  5
11
330
3
100
AcDbSymbolTableRecord
100
AcDbTextStyleTableRecord
  2
STANDARD
 70
     0
 40
0.0
 41
1.0
 50
0.0
 71
     0
 42
2.5
  3
txt
  4

  0
ENDTAB
  0
TABLE
  2
VIEW
  5
6
330
0
100
AcDbSymbolTable
 70
     0
  0
ENDTAB
  0
TABLE
  2
UCS
  5
7
330
0
100
AcDbSymbolTable
 70
     0
  0
ENDTAB
  0
TABLE
  2
APPID
  5
9
330
0
100
AcDbSymbolTable
 70
     2
  0
APPID
  5
12
330
9
100
AcDbSymbolTableRecord
100
AcDbRegAppTableRecord
  2
ACAD
 70
     0
  0
ENDTAB
  0
TABLE
  2
DIMSTYLE
  5
A
330
0
100
AcDbSymbolTable
 70
     1
  0
DIMSTYLE
105
27
330
A
100
AcDbSymbolTableRecord
100
AcDbDimStyleTableRecord
  2
ISO-25
 70
     0
  3

  4

  5

  6

  7

 40
1.0
 41
2.5
 42
0.625
 43
3.75
 44
1.25
 45
0.0
 46
0.0
 47
0.0
 48
0.0
140
2.5
141
2.5
142
0.0
143
0.03937007874016
144
1.0
145
0.0
146
1.0
147
0.625
 71
     0
 72
     0
 73
     0
 74
     0
 75
     0
 76
     0
 77
     1
 78
     8
170
     0
171
     3
172
     1
173
     0
174
     0
175
     0
176
     0
177
     0
178
     0
270
     2
271
     2
272
     2
273
     2
274
     3
340
11
275
     0
280
     0
281
     0
282
     0
283
     0
284
     8
285
     0
286
     0
287
     3
288
     0
  0
ENDTAB
  0
TABLE
  2
BLOCK_RECORD
  5
1
330
0
100
AcDbSymbolTable
 70
     1
  0
BLOCK_RECORD
  5
1F
330
1
100
AcDbSymbolTableRecord
100
AcDbBlockTableRecord
  2
*MODEL_SPACE
  0
BLOCK_RECORD
  5
1B
330
1
100
AcDbSymbolTableRecord
100
AcDbBlockTableRecord
  2
*PAPER_SPACE
  0
ENDTAB
  0
ENDSEC
  0
SECTION
  2
BLOCKS
  0
BLOCK
  5
20
330
1F
100
AcDbEntity
  8
0
100
AcDbBlockBegin
  2
*MODEL_SPACE
 70
     0
 10
0.0
 20
0.0
 30
0.0
  3
*MODEL_SPACE
  1

  0
ENDBLK
  5
21
330
1F
100
AcDbEntity
  8
0
100
AcDbBlockEnd
  0
BLOCK
  5
1C
330
1B
100
AcDbEntity
 67
     1
  8
0
100
AcDbBlockBegin
  2
*PAPER_SPACE
  1

  0
ENDBLK
  5
1D
330
1B
100
AcDbEntity
 67
     1
  8
0
100
AcDbBlockEnd
  0
ENDSEC
  0
SECTION
  2
ENTITIES
  0
LINE
  5
100
100
AcDbEntity
  8
Layer_1
 62
3
100
AcDbLine
 10
-75.534593
 20
123.654764
 30
0.0
 11
-73.723972
 21
144.360932
 31
0.0
  0
SPLINE
  5
101
100
AcDbEntity
  8
Layer_1
 62
3
100
AcDbSpline
 70
8
 71
3
 72
8
 73
4
 74
0
 40
0
 40
0
 40
0
 40
0
 40
1
 40
1
 40
1
 40
1
 10
-73.723972
 20
144.360932
 30
0.0
 10
-73.694695
 20
144.695745
 30
0.0
 10
-73.521505
 20
145.001356
 30
0.0
 10
-73.249316
 20
145.198510
 30
0.0
  0
LINE
  5
102
100
AcDbEntity
  8
Layer_1
 62
3
100
AcDbLine
 10
-73.249316
 20
145.198510
 30
0.0
 11
-70.612511
 21
147.108435
 31
0.0
  0
SPLINE
  5
103
100
AcDbEntity
  8
Layer_1
 62
3
100
AcDbSpline
 70
8
 71
3
 72
8
 73
4
 74
0
 40
0
 40
0
 40
0
 40
0
 40
1
 40
1
 40
1
 40
1
 10
-70.612511
 20
147.108435
 30
0.0
 10
-70.336112
 20
147.308644
 30
0.0
 10
-69.996792
 20
147.402479
 30
0.0
 10
-69.656800
 20
147.372725
 30
0.0
  0
LINE
  5
104
100
AcDbEntity
  8
Layer_1
 62
3
100
AcDbLine
 10
-69.656800
 20
147.372725
 30
0.0
 11
42.507010
 21
137.556652
 31
0.0
  0
SPLINE
  5
105
100
AcDbEntity
  8
Layer_1
 62
3
100
AcDbSpline
 70
8
 71
3
 72
8
 73
4
 74
0
 40
0
 40
0
 40
0
 40
0
 40
1
 40
1
 40
1
 40
1
 10
42.507010
 20
137.556652
 30
0.0
 10
42.846470
 20
137.526947
 30
0.0
 10
43.163049
 20
137.373086
 30
0.0
 10
43.396141
 20
137.124524
 30
0.0
  0
LINE
  5
106
100
AcDbEntity
  8
Layer_1
 62
3
100
AcDbLine
 10
43.396141
 20
137.124524
 30
0.0
 11
45.573959
 21
134.802138
 31
0.0
  0
SPLINE
  5
107
100
AcDbEntity
  8
Layer_1
 62
3
100
AcDbSpline
 70
8
 71
3
 72
8
 73
4
 74
0
 40
0
 40
0
 40
0
 40
0
 40
1
 40
1
 40
1
 40
1
 10
45.573959
 20
134.802138
 30
0.0
 10
45.804298
 20
134.556512
 30
0.0
 10
45.919162
 20
134.224434
 30
0.0
 10
45.889815
 20
133.888984
 30
0.0
  0
LINE
  5
108
100
AcDbEntity
  8
Layer_1
 62
3
100
AcDbLine
 10
45.889815
 20
133.888984
 30
0.0
 11
44.946740
 21
123.109590
 31
0.0
  0
SPLINE
  5
109
100
AcDbEntity
  8
Layer_1
 62
3
100
AcDbSpline
 70
8
 71
3
 72
8
 73
4
 74
0
 40
0
 40
0
 40
0
 40
0
 40
1
 40
1
 40
1
 40
1
 10
44.946740
 20
123.109590
 30
0.0
 10
44.921268
 20
122.818452
 30
0.0
 10
44.663704
 20
122.582502
 30
0.0
 10
44.371449
 20
122.582584
 30
0.0
  0
SPLINE
  5
10a
100
AcDbEntity
  8
Layer_1
 62
3
100
AcDbSpline
 70
8
 71
3
 72
8
 73
4
 74
0
 40
0
 40
0
 40
0
 40
0
 40
1
 40
1
 40
1
 40
1
 10
44.371449
 20
122.582584
 30
0.0
 10
1.697461
 20
122.594392
 30
0.0
 10
-32.703069
 20
122.598462
 30
0.0
 10
-74.568452
 20
122.600387
 30
0.0
  0
SPLINE
  5
10b
100
AcDbEntity
  8
Layer_1
 62
3
100
AcDbSpline
 70
8
 71
3
 72
8
 73
4
 74
0
 40
0
 40
0
 40
0
 40
0
 40
1
 40
1
 40
1
 40
1
 10
-74.568452
 20
122.600387
 30
0.0
 10
-75.152952
 20
122.600430
 30
0.0
 10
-75.585507
 20
123.072466
 30
0.0
 10
-75.534595
 20
123.654745
 30
0.0
  0
LINE
  5
10c
100
AcDbEntity
  8
Layer_1
 62
3
100
AcDbLine
 10
-75.534595
 20
123.654745
 30
0.0
 11
-75.534593
 21
123.654764
 31
0.0
  0
SPLINE
  5
10d
100
AcDbEntity
  8
Layer_1
 62
3
100
AcDbSpline
 70
8
 71
3
 72
8
 73
4
 74
0
 40
0
 40
0
 40
0
 40
0
 40
1
 40
1
 40
1
 40
1
 10
232.363864
 20
122.599022
 30
0.0
 10
180.216451
 20
122.597942
 30
0.0
 10
155.965109
 20
122.598620
 30
0.0
 10
113.950115
 20
122.598893
 30
0.0
  0
SPLINE
  5
10e
100
AcDbEntity
  8
Layer_1
 62
3
100
AcDbSpline
 70
8
 71
3
 72
8
 73
4
 74
0
 40
0
 40
0
 40
0
 40
0
 40
1
 40
1
 40
1
 40
1
 10
113.950115
 20
122.598893
 30
0.0
 10
113.365606
 20
122.598950
 30
0.0
 10
112.850460
 20
123.070928
 30
0.0
 10
112.799497
 20
123.653202
 30
0.0
  0
LINE
  5
10f
100
AcDbEntity
  8
Layer_1
 62
3
100
AcDbLine
 10
112.799497
 20
123.653202
 30
0.0
 11
111.947824
 21
133.383059
 31
0.0
  0
SPLINE
  5
110
100
AcDbEntity
  8
Layer_1
 62
3
100
AcDbSpline
 70
8
 71
3
 72
8
 73
4
 74
0
 40
0
 40
0
 40
0
 40
0
 40
1
 40
1
 40
1
 40
1
 10
111.947824
 20
133.383059
 30
0.0
 10
111.889215
 20
134.052673
 30
0.0
 10
112.124195
 20
134.714749
 30
0.0
 10
112.591827
 20
135.197593
 30
0.0
  0
LINE
  5
111
100
AcDbEntity
  8
Layer_1
 62
3
100
AcDbLine
 10
112.591827
 20
135.197593
 30
0.0
 11
114.120634
 21
136.776154
 31
0.0
  0
SPLINE
  5
112
100
AcDbEntity
  8
Layer_1
 62
3
100
AcDbSpline
 70
8
 71
3
 72
8
 73
4
 74
0
 40
0
 40
0
 40
0
 40
0
 40
1
 40
1
 40
1
 40
1
 10
114.120634
 20
136.776154
 30
0.0
 10
114.595483
 20
137.266453
 30
0.0
 10
115.231282
 20
137.568975
 30
0.0
 10
115.911261
 20
137.628159
 30
0.0
  0
LINE
  5
113
100
AcDbEntity
  8
Layer_1
 62
3
100
AcDbLine
 10
115.911261
 20
137.628159
 30
0.0
 11
227.016843
 21
147.298648
 31
0.0
  0
SPLINE
  5
114
100
AcDbEntity
  8
Layer_1
 62
3
100
AcDbSpline
 70
8
 71
3
 72
8
 73
4
 74
0
 40
0
 40
0
 40
0
 40
0
 40
1
 40
1
 40
1
 40
1
 10
227.016843
 20
147.298648
 30
0.0
 10
227.695811
 20
147.357745
 30
0.0
 10
228.372740
 20
147.164500
 30
0.0
 10
228.918184
 20
146.755865
 30
0.0
  0
LINE
  5
115
100
AcDbEntity
  8
Layer_1
 62
3
100
AcDbLine
 10
228.918184
 20
146.755865
 30
0.0
 11
230.619206
 21
145.481490
 31
0.0
  0
SPLINE
  5
116
100
AcDbEntity
  8
Layer_1
 62
3
100
AcDbSpline
 70
8
 71
3
 72
8
 73
4
 74
0
 40
0
 40
0
 40
0
 40
0
 40
1
 40
1
 40
1
 40
1
 10
230.619206
 20
145.481490
 30
0.0
 10
231.158183
 20
145.077698
 30
0.0
 10
231.499747
 20
144.463527
 30
0.0
 10
231.558444
 20
143.792633
 30
0.0
  0
LINE
  5
117
100
AcDbEntity
  8
Layer_1
 62
3
100
AcDbLine
 10
231.558444
 20
143.792633
 30
0.0
 11
232.409280
 21
134.067532
 31
0.0
  0
SPLINE
  5
118
100
AcDbEntity
  8
Layer_1
 62
3
100
AcDbSpline
 70
8
 71
3
 72
8
 73
4
 74
0
 40
0
 40
0
 40
0
 40
0
 40
1
 40
1
 40
1
 40
1
 10
232.409280
 20
134.067532
 30
0.0
 10
232.470772
 20
133.364663
 30
0.0
 10
232.532584
 20
132.661822
 30
0.0
 10
232.594716
 20
131.959010
 30
0.0
  0
LINE
  5
119
100
AcDbEntity
  8
Layer_1
 62
3
100
AcDbLine
 10
232.594716
 20
131.959010
 30
0.0
 11
233.329405
 21
123.653256
 31
0.0
  0
SPLINE
  5
11a
100
AcDbEntity
  8
Layer_1
 62
3
100
AcDbSpline
 70
8
 71
3
 72
8
 73
4
 74
0
 40
0
 40
0
 40
0
 40
0
 40
1
 40
1
 40
1
 40
1
 10
233.329405
 20
123.653256
 30
0.0
 10
233.380876
 20
123.071027
 30
0.0
 10
232.948769
 20
122.599030
 30
0.0
 10
232.364266
 20
122.599017
 30
0.0
  0
LINE
  5
11b
100
AcDbEntity
  8
Layer_1
 62
3
100
AcDbLine
 10
232.364266
 20
122.599017
 30
0.0
 11
232.363864
 21
122.599022
 31
0.0
  0
SPLINE
  5
11c
100
AcDbEntity
  8
Layer_1
 62
3
100
AcDbSpline
 70
8
 71
3
 72
8
 73
4
 74
0
 40
0
 40
0
 40
0
 40
0
 40
1
 40
1
 40
1
 40
1
 10
33.667469
 20
130.238750
 30
0.0
 10
33.144795
 20
130.284478
 30
0.0
 10
32.684014
 20
129.897837
 30
0.0
 10
32.638286
 20
129.375163
 30
0.0
  0
SPLINE
  5
11d
100
AcDbEntity
  8
Layer_1
 62
3
100
AcDbSpline
 70
8
 71
3
 72
8
 73
4
 74
0
 40
0
 40
0
 40
0
 40
0
 40
1
 40
1
 40
1
 40
1
 10
32.638286
 20
129.375163
 30
0.0
 10
32.592558
 20
128.852489
 30
0.0
 10
32.979199
 20
128.391708
 30
0.0
 10
33.501873
 20
128.345980
 30
0.0
  0
SPLINE
  5
11e
100
AcDbEntity
  8
Layer_1
 62
3
100
AcDbSpline
 70
8
 71
3
 72
8
 73
4
 74
0
 40
0
 40
0
 40
0
 40
0
 40
1
 40
1
 40
1
 40
1
 10
33.501873
 20
128.345980
 30
0.0
 10
34.024547
 20
128.300252
 30
0.0
 10
34.485328
 20
128.686893
 30
0.0
 10
34.531056
 20
129.209567
 30
0.0
  0
SPLINE
  5
11f
100
AcDbEntity
  8
Layer_1
 62
3
100
AcDbSpline
 70
8
 71
3
 72
8
 73
4
 74
0
 40
0
 40
0
 40
0
 40
0
 40
1
 40
1
 40
1
 40
1
 10
34.531056
 20
129.209567
 30
0.0
 10
34.553016
 20
129.460564
 30
0.0
 10
34.474367
 20
129.710004
 30
0.0
 10
34.312414
 20
129.903013
 30
0.0
  0
SPLINE
  5
120
100
AcDbEntity
  8
Layer_1
 62
3
100
AcDbSpline
 70
8
 71
3
 72
8
 73
4
 74
0
 40
0
 40
0
 40
0
 40
0
 40
1
 40
1
 40
1
 40
1
 10
34.312414
 20
129.903013
 30
0.0
 10
34.150460
 20
130.096022
 30
0.0
 10
33.918466
 20
130.216790
 30
0.0
 10
33.667469
 20
130.238750
 30
0.0
  0
LINE
  5
121
100
AcDbEntity
  8
Layer_1
 62
3
100
AcDbLine
 10
33.667469
 20
130.238750
 30
0.0
 11
33.667469
 21
130.238750
 31
0.0
  0
SPLINE
  5
122
100
AcDbEntity
  8
Layer_1
 62
3
100
AcDbSpline
 70
8
 71
3
 72
8
 73
4
 74
0
 40
0
 40
0
 40
0
 40
0
 40
1
 40
1
 40
1
 40
1
 10
-63.235509
 20
138.716662
 30
0.0
 10
-63.618286
 20
138.750151
 30
0.0
 10
-63.983545
 20
138.549762
 30
0.0
 10
-64.160967
 20
138.208938
 30
0.0
  0
SPLINE
  5
123
100
AcDbEntity
  8
Layer_1
 62
3
100
AcDbSpline
 70
8
 71
3
 72
8
 73
4
 74
0
 40
0
 40
0
 40
0
 40
0
 40
1
 40
1
 40
1
 40
1
 10
-64.160967
 20
138.208938
 30
0.0
 10
-64.338389
 20
137.868114
 30
0.0
 10
-64.293033
 20
137.453973
 30
0.0
 10
-64.046049
 20
137.159629
 30
0.0
  0
SPLINE
  5
124
100
AcDbEntity
  8
Layer_1
 62
3
100
AcDbSpline
 70
8
 71
3
 72
8
 73
4
 74
0
 40
0
 40
0
 40
0
 40
0
 40
1
 40
1
 40
1
 40
1
 10
-64.046049
 20
137.159629
 30
0.0
 10
-63.799065
 20
136.865284
 30
0.0
 10
-63.399092
 20
136.748703
 30
0.0
 10
-63.032637
 20
136.864246
 30
0.0
  0
SPLINE
  5
125
100
AcDbEntity
  8
Layer_1
 62
3
100
AcDbSpline
 70
8
 71
3
 72
8
 73
4
 74
0
 40
0
 40
0
 40
0
 40
0
 40
1
 40
1
 40
1
 40
1
 10
-63.032637
 20
136.864246
 30
0.0
 10
-62.666181
 20
136.979789
 30
0.0
 10
-62.405411
 20
137.304702
 30
0.0
 10
-62.371922
 20
137.687479
 30
0.0
  0
SPLINE
  5
126
100
AcDbEntity
  8
Layer_1
 62
3
100
AcDbSpline
 70
8
 71
3
 72
8
 73
4
 74
0
 40
0
 40
0
 40
0
 40
0
 40
1
 40
1
 40
1
 40
1
 10
-62.371922
 20
137.687479
 30
0.0
 10
-62.349963
 20
137.938476
 30
0.0
 10
-62.428611
 20
138.187916
 30
0.0
 10
-62.590565
 20
138.380925
 30
0.0
  0
SPLINE
  5
127
100
AcDbEntity
  8
Layer_1
 62
3
100
AcDbSpline
 70
8
 71
3
 72
8
 73
4
 74
0
 40
0
 40
0
 40
0
 40
0
 40
1
 40
1
 40
1
 40
1
 10
-62.590565
 20
138.380925
 30
0.0
 10
-62.752519
 20
138.573934
 30
0.0
 10
-62.984512
 20
138.694702
 30
0.0
 10
-63.235509
 20
138.716662
 30
0.0
  0
LINE
  5
128
100
AcDbEntity
  8
Layer_1
 62
3
100
AcDbLine
 10
-63.235509
 20
138.716662
 30
0.0
 11
-63.235509
 21
138.716662
 31
0.0
  0
SPLINE
  5
129
100
AcDbEntity
  8
Layer_1
 62
3
100
AcDbSpline
 70
8
 71
3
 72
8
 73
4
 74
0
 40
0
 40
0
 40
0
 40
0
 40
1
 40
1
 40
1
 40
1
 10
220.114252
 20
138.650935
 30
0.0
 10
219.731475
 20
138.617446
 30
0.0
 10
219.406561
 20
138.356676
 30
0.0
 10
219.291018
 20
137.990221
 30
0.0
  0
SPLINE
  5
12a
100
AcDbEntity
  8
Layer_1
 62
3
100
AcDbSpline
 70
8
 71
3
 72
8
 73
4
 74
0
 40
0
 40
0
 40
0
 40
0
 40
1
 40
1
 40
1
 40
1
 10
219.291018
 20
137.990221
 30
0.0
 10
219.175475
 20
137.623765
 30
0.0
 10
219.292057
 20
137.223792
 30
0.0
 10
219.586401
 20
136.976808
 30
0.0
  0
SPLINE
  5
12b
100
AcDbEntity
  8
Layer_1
 62
3
100
AcDbSpline
 70
8
 71
3
 72
8
 73
4
 74
0
 40
0
 40
0
 40
0
 40
0
 40
1
 40
1
 40
1
 40
1
 10
219.586401
 20
136.976808
 30
0.0
 10
219.880746
 20
136.729824
 30
0.0
 10
220.294886
 20
136.684468
 30
0.0
 10
220.635711
 20
136.861890
 30
0.0
  0
SPLINE
  5
12c
100
AcDbEntity
  8
Layer_1
 62
3
100
AcDbSpline
 70
8
 71
3
 72
8
 73
4
 74
0
 40
0
 40
0
 40
0
 40
0
 40
1
 40
1
 40
1
 40
1
 10
220.635711
 20
136.861890
 30
0.0
 10
220.976535
 20
137.039312
 30
0.0
 10
221.176923
 20
137.404571
 30
0.0
 10
221.143434
 20
137.787348
 30
0.0
  0
SPLINE
  5
12d
100
AcDbEntity
  8
Layer_1
 62
3
100
AcDbSpline
 70
8
 71
3
 72
8
 73
4
 74
0
 40
0
 40
0
 40
0
 40
0
 40
1
 40
1
 40
1
 40
1
 10
221.143434
 20
137.787348
 30
0.0
 10
221.121475
 20
138.038345
 30
0.0
 10
221.000707
 20
138.270338
 30
0.0
 10
220.807698
 20
138.432292
 30
0.0
  0
SPLINE
  5
12e
100
AcDbEntity
  8
Layer_1
 62
3
100
AcDbSpline
 70
8
 71
3
 72
8
 73
4
 74
0
 40
0
 40
0
 40
0
 40
0
 40
1
 40
1
 40
1
 40
1
 10
220.807698
 20
138.432292
 30
0.0
 10
220.614688
 20
138.594246
 30
0.0
 10
220.365248
 20
138.672894
 30
0.0
 10
220.114252
 20
138.650935
 30
0.0
  0
LINE
  5
12f
100
AcDbEntity
  8
Layer_1
 62
3
100
AcDbLine
 10
220.114252
 20
138.650935
 30
0.0
 11
220.114252
 21
138.650935
 31
0.0
  0
SPLINE
  5
130
100
AcDbEntity
  8
Layer_1
 62
3
100
AcDbSpline
 70
8
 71
3
 72
8
 73
4
 74
0
 40
0
 40
0
 40
0
 40
0
 40
1
 40
1
 40
1
 40
1
 10
123.211265
 20
130.173022
 30
0.0
 10
122.828488
 20
130.139534
 30
0.0
 10
122.503575
 20
129.878763
 30
0.0
 10
122.388032
 20
129.512308
 30
0.0
  0
SPLINE
  5
131
100
AcDbEntity
  8
Layer_1
 62
3
100
AcDbSpline
 70
8
 71
3
 72
8
 73
4
 74
0
 40
0
 40
0
 40
0
 40
0
 40
1
 40
1
 40
1
 40
1
 10
122.388032
 20
129.512308
 30
0.0
 10
122.272489
 20
129.145852
 30
0.0
 10
122.389071
 20
128.745879
 30
0.0
 10
122.683415
 20
128.498895
 30
0.0
  0
SPLINE
  5
132
100
AcDbEntity
  8
Layer_1
 62
3
100
AcDbSpline
 70
8
 71
3
 72
8
 73
4
 74
0
 40
0
 40
0
 40
0
 40
0
 40
1
 40
1
 40
1
 40
1
 10
122.683415
 20
128.498895
 30
0.0
 10
122.977759
 20
128.251911
 30
0.0
 10
123.391900
 20
128.206555
 30
0.0
 10
123.732724
 20
128.383977
 30
0.0
  0
SPLINE
  5
133
100
AcDbEntity
  8
Layer_1
 62
3
100
AcDbSpline
 70
8
 71
3
 72
8
 73
4
 74
0
 40
0
 40
0
 40
0
 40
0
 40
1
 40
1
 40
1
 40
1
 10
123.732724
 20
128.383977
 30
0.0
 10
124.073549
 20
128.561399
 30
0.0
 10
124.273937
 20
128.926658
 30
0.0
 10
124.240448
 20
129.309435
 30
0.0
  0
SPLINE
  5
134
100
AcDbEntity
  8
Layer_1
 62
3
100
AcDbSpline
 70
8
 71
3
 72
8
 73
4
 74
0
 40
0
 40
0
 40
0
 40
0
 40
1
 40
1
 40
1
 40
1
 10
124.240448
 20
129.309435
 30
0.0
 10
124.218489
 20
129.560432
 30
0.0
 10
124.097721
 20
129.792426
 30
0.0
 10
123.904711
 20
129.954380
 30
0.0
  0
SPLINE
  5
135
100
AcDbEntity
  8
Layer_1
 62
3
100
AcDbSpline
 70
8
 71
3
 72
8
 73
4
 74
0
 40
0
 40
0
 40
0
 40
0
 40
1
 40
1
 40
1
 40
1
 10
123.904711
 20
129.954380
 30
0.0
 10
123.711702
 20
130.116334
 30
0.0
 10
123.462262
 20
130.194982
 30
0.0
 10
123.211265
 20
130.173022
 30
0.0
  0
LINE
  5
136
100
AcDbEntity
  8
Layer_1
 62
3
100
AcDbLine
 10
123.211265
 20
130.173022
 30
0.0
 11
123.211265
 21
130.173022
 31
0.0
  0
ENDSEC
  0
SECTION
  2
OBJECTS
  0
DICTIONARY
  5
C
330
0
100
AcDbDictionary
  3
ACAD_GROUP
350
D
  3
ACAD_MLINESTYLE
350
17
  0
DICTIONARY
  5
D
330
C
100
AcDbDictionary
  0
DICTIONARY
  5
1A
330
C
100
AcDbDictionary
  0
DICTIONARY
  5
17
330
C
100
AcDbDictionary
  3
STANDARD
350
18
  0
DICTIONARY
  5
19
330
C
100
AcDbDictionary
  0
ENDSEC
  0
EOF
