  0
SECTION
  2
HEADER
  9
$ACADVER
  1
AC1014
  9
$HANDSEED
  5
FFFF
  9
$INSUNITS
 70
     0
  9
$MEASUREMENT
 70
     1
  0
ENDSEC
  0
SECTION
  2
TABLES
  0
TABLE
  2
VPORT
  5
8
330
0
100
AcDbSymbolTable
 70
     4
  0
VPORT
  5
2E
330
8
100
AcDbSymbolTableRecord
100
AcDbViewportTableRecord
  2
*ACTIVE
 70
     0
 10
0.0
 20
0.0
 11
1.0
 21
1.0
 12
210.0
 22
148.5
 13
0.0
 23
0.0
 14
10.0
 24
10.0
 15
10.0
 25
10.0
 16
0.0
 26
0.0
 36
1.0
 17
0.0
 27
0.0
 37
0.0
 40
341.0
 41
1.24
 42
50.0
 43
0.0
 44
0.0
 50
0.0
 51
0.0
 71
     0
 72
   100
 73
     1
 74
     3
 75
     0
 76
     0
 77
     0
 78
     0
  0
ENDTAB
  0
TABLE
  2
LTYPE
  5
5
330
0
100
AcDbSymbolTable
 70
     1
  0
LTYPE
  5
14
330
5
100
AcDbSymbolTableRecord
100
AcDbLinetypeTableRecord
  2
BYBLOCK
 70
     0
  3

 72
    65
 73
     0
 40
0.0
  0
LTYPE
  5
15
330
5
100
AcDbSymbolTableRecord
100
AcDbLinetypeTableRecord
  2
BYLAYER
 70
     0
  3

 72
    65
 73
     0
 40
0.0
  0
LTYPE
  5
16
330
5
100
AcDbSymbolTableRecord
100
AcDbLinetypeTableRecord
  2
CONTINUOUS
 70
     0
  3
Solid line
 72
    65
 73
     0
 40
0.0
  0
ENDTAB
  0
TABLE
  2
LAYER
  5
2
100
AcDbSymbolTable
 70
2
  0
LAYER
  5
50
100
AcDbSymbolTableRecord
100
AcDbLayerTableRecord
  2
0
 70
0
  6
CONTINUOUS
  0
LAYER
  5
51
100
AcDbSymbolTableRecord
100
AcDbLayerTableRecord
  2
Layer_1
 70
0
  6
CONTINUOUS
  0
ENDTAB
  0
TABLE
  2
STYLE
  5
3
330
0
100
AcDbSymbolTable
 70
     1
  0
STYLE
  5
11
330
3
100
AcDbSymbolTableRecord
100
AcDbTextStyleTableRecord
  2
STANDARD
 70
     0
 40
0.0
 41
1.0
 50
0.0
 71
     0
 42
2.5
  3
txt
  4

  0
ENDTAB
  0
TABLE
  2
VIEW
  5
6
330
0
100
AcDbSymbolTable
 70
     0
  0
ENDTAB
  0
TABLE
  2
UCS
  5
7
330
0
100
AcDbSymbolTable
 70
     0
  0
ENDTAB
  0
TABLE
  2
APPID
  5
9
330
0
100
AcDbSymbolTable
 70
     2
  0
APPID
  5
12
330
9
100
AcDbSymbolTableRecord
100
AcDbRegAppTableRecord
  2
ACAD
 70
     0
  0
ENDTAB
  0
TABLE
  2
DIMSTYLE
  5
A
330
0
100
AcDbSymbolTable
 70
     1
  0
DIMSTYLE
105
27
330
A
100
AcDbSymbolTableRecord
100
AcDbDimStyleTableRecord
  2
ISO-25
 70
     0
  3

  4

  5

  6

  7

 40
1.0
 41
2.5
 42
0.625
 43
3.75
 44
1.25
 45
0.0
 46
0.0
 47
0.0
 48
0.0
140
2.5
141
2.5
142
0.0
143
0.03937007874016
144
1.0
145
0.0
146
1.0
147
0.625
 71
     0
 72
     0
 73
     0
 74
     0
 75
     0
 76
     0
 77
     1
 78
     8
170
     0
171
     3
172
     1
173
     0
174
     0
175
     0
176
     0
177
     0
178
     0
270
     2
271
     2
272
     2
273
     2
274
     3
340
11
275
     0
280
     0
281
     0
282
     0
283
     0
284
     8
285
     0
286
     0
287
     3
288
     0
  0
ENDTAB
  0
TABLE
  2
BLOCK_RECORD
  5
1
330
0
100
AcDbSymbolTable
 70
     1
  0
BLOCK_RECORD
  5
1F
330
1
100
AcDbSymbolTableRecord
100
AcDbBlockTableRecord
  2
*MODEL_SPACE
  0
BLOCK_RECORD
  5
1B
330
1
100
AcDbSymbolTableRecord
100
AcDbBlockTableRecord
  2
*PAPER_SPACE
  0
ENDTAB
  0
ENDSEC
  0
SECTION
  2
BLOCKS
  0
BLOCK
  5
20
330
1F
100
AcDbEntity
  8
0
100
AcDbBlockBegin
  2
*MODEL_SPACE
 70
     0
 10
0.0
 20
0.0
 30
0.0
  3
*MODEL_SPACE
  1

  0
ENDBLK
  5
21
330
1F
100
AcDbEntity
  8
0
100
AcDbBlockEnd
  0
BLOCK
  5
1C
330
1B
100
AcDbEntity
 67
     1
  8
0
100
AcDbBlockBegin
  2
*PAPER_SPACE
  1

  0
ENDBLK
  5
1D
330
1B
100
AcDbEntity
 67
     1
  8
0
100
AcDbBlockEnd
  0
ENDSEC
  0
SECTION
  2
ENTITIES
  0
SPLINE
  5
100
100
AcDbEntity
  8
Layer_1
 62
1
100
AcDbSpline
 70
8
 71
3
 72
8
 73
4
 74
0
 40
0
 40
0
 40
0
 40
0
 40
1
 40
1
 40
1
 40
1
 10
-50.895852
 20
112.387630
 30
0.0
 10
-50.895852
 20
112.003391
 30
0.0
 10
-51.127312
 20
111.656986
 30
0.0
 10
-51.482303
 20
111.509944
 30
0.0
  0
SPLINE
  5
101
100
AcDbEntity
  8
Layer_1
 62
1
100
AcDbSpline
 70
8
 71
3
 72
8
 73
4
 74
0
 40
0
 40
0
 40
0
 40
0
 40
1
 40
1
 40
1
 40
1
 10
-51.482303
 20
111.509944
 30
0.0
 10
-51.837293
 20
111.362903
 30
0.0
 10
-52.245905
 20
111.444180
 30
0.0
 10
-52.517603
 20
111.715879
 30
0.0
  0
SPLINE
  5
102
100
AcDbEntity
  8
Layer_1
 62
1
100
AcDbSpline
 70
8
 71
3
 72
8
 73
4
 74
0
 40
0
 40
0
 40
0
 40
0
 40
1
 40
1
 40
1
 40
1
 10
-52.517603
 20
111.715879
 30
0.0
 10
-52.789302
 20
111.987577
 30
0.0
 10
-52.870579
 20
112.396189
 30
0.0
 10
-52.723538
 20
112.751179
 30
0.0
  0
SPLINE
  5
103
100
AcDbEntity
  8
Layer_1
 62
1
100
AcDbSpline
 70
8
 71
3
 72
8
 73
4
 74
0
 40
0
 40
0
 40
0
 40
0
 40
1
 40
1
 40
1
 40
1
 10
-52.723538
 20
112.751179
 30
0.0
 10
-52.576496
 20
113.106170
 30
0.0
 10
-52.230091
 20
113.337630
 30
0.0
 10
-51.845852
 20
113.337630
 30
0.0
  0
SPLINE
  5
104
100
AcDbEntity
  8
Layer_1
 62
1
100
AcDbSpline
 70
8
 71
3
 72
8
 73
4
 74
0
 40
0
 40
0
 40
0
 40
0
 40
1
 40
1
 40
1
 40
1
 10
-51.845852
 20
113.337630
 30
0.0
 10
-51.321181
 20
113.337630
 30
0.0
 10
-50.895852
 20
112.912301
 30
0.0
 10
-50.895852
 20
112.387630
 30
0.0
  0
LINE
  5
105
100
AcDbEntity
  8
Layer_1
 62
1
100
AcDbLine
 10
-50.895852
 20
112.387630
 30
0.0
 11
-50.895852
 21
112.387630
 31
0.0
  0
SPLINE
  5
106
100
AcDbEntity
  8
Layer_1
 62
1
100
AcDbSpline
 70
8
 71
3
 72
8
 73
4
 74
0
 40
0
 40
0
 40
0
 40
0
 40
1
 40
1
 40
1
 40
1
 10
-50.895852
 20
170.232560
 30
0.0
 10
-50.895852
 20
170.616799
 30
0.0
 10
-51.127312
 20
170.963204
 30
0.0
 10
-51.482303
 20
171.110246
 30
0.0
  0
SPLINE
  5
107
100
AcDbEntity
  8
Layer_1
 62
1
100
AcDbSpline
 70
8
 71
3
 72
8
 73
4
 74
0
 40
0
 40
0
 40
0
 40
0
 40
1
 40
1
 40
1
 40
1
 10
-51.482303
 20
171.110246
 30
0.0
 10
-51.837293
 20
171.257287
 30
0.0
 10
-52.245905
 20
171.176010
 30
0.0
 10
-52.517603
 20
170.904311
 30
0.0
  0
SPLINE
  5
108
100
AcDbEntity
  8
Layer_1
 62
1
100
AcDbSpline
 70
8
 71
3
 72
8
 73
4
 74
0
 40
0
 40
0
 40
0
 40
0
 40
1
 40
1
 40
1
 40
1
 10
-52.517603
 20
170.904311
 30
0.0
 10
-52.789302
 20
170.632613
 30
0.0
 10
-52.870579
 20
170.224001
 30
0.0
 10
-52.723538
 20
169.869011
 30
0.0
  0
SPLINE
  5
109
100
AcDbEntity
  8
Layer_1
 62
1
100
AcDbSpline
 70
8
 71
3
 72
8
 73
4
 74
0
 40
0
 40
0
 40
0
 40
0
 40
1
 40
1
 40
1
 40
1
 10
-52.723538
 20
169.869011
 30
0.0
 10
-52.576496
 20
169.514020
 30
0.0
 10
-52.230091
 20
169.282560
 30
0.0
 10
-51.845852
 20
169.282560
 30
0.0
  0
SPLINE
  5
10a
100
AcDbEntity
  8
Layer_1
 62
1
100
AcDbSpline
 70
8
 71
3
 72
8
 73
4
 74
0
 40
0
 40
0
 40
0
 40
0
 40
1
 40
1
 40
1
 40
1
 10
-51.845852
 20
169.282560
 30
0.0
 10
-51.321181
 20
169.282560
 30
0.0
 10
-50.895852
 20
169.707889
 30
0.0
 10
-50.895852
 20
170.232560
 30
0.0
  0
LINE
  5
10b
100
AcDbEntity
  8
Layer_1
 62
1
100
AcDbLine
 10
-50.895852
 20
170.232560
 30
0.0
 11
-50.895852
 21
170.232560
 31
0.0
  0
SPLINE
  5
10c
100
AcDbEntity
  8
Layer_1
 62
1
100
AcDbSpline
 70
8
 71
3
 72
8
 73
4
 74
0
 40
0
 40
0
 40
0
 40
0
 40
1
 40
1
 40
1
 40
1
 10
46.439719
 20
170.232560
 30
0.0
 10
46.439719
 20
170.616799
 30
0.0
 10
46.208259
 20
170.963204
 30
0.0
 10
45.853268
 20
171.110246
 30
0.0
  0
SPLINE
  5
10d
100
AcDbEntity
  8
Layer_1
 62
1
100
AcDbSpline
 70
8
 71
3
 72
8
 73
4
 74
0
 40
0
 40
0
 40
0
 40
0
 40
1
 40
1
 40
1
 40
1
 10
45.853268
 20
171.110246
 30
0.0
 10
45.498278
 20
171.257287
 30
0.0
 10
45.089666
 20
171.176010
 30
0.0
 10
44.817968
 20
170.904311
 30
0.0
  0
SPLINE
  5
10e
100
AcDbEntity
  8
Layer_1
 62
1
100
AcDbSpline
 70
8
 71
3
 72
8
 73
4
 74
0
 40
0
 40
0
 40
0
 40
0
 40
1
 40
1
 40
1
 40
1
 10
44.817968
 20
170.904311
 30
0.0
 10
44.546269
 20
170.632613
 30
0.0
 10
44.464992
 20
170.224001
 30
0.0
 10
44.612033
 20
169.869011
 30
0.0
  0
SPLINE
  5
10f
100
AcDbEntity
  8
Layer_1
 62
1
100
AcDbSpline
 70
8
 71
3
 72
8
 73
4
 74
0
 40
0
 40
0
 40
0
 40
0
 40
1
 40
1
 40
1
 40
1
 10
44.612033
 20
169.869011
 30
0.0
 10
44.759075
 20
169.514020
 30
0.0
 10
45.105480
 20
169.282560
 30
0.0
 10
45.489719
 20
169.282560
 30
0.0
  0
SPLINE
  5
110
100
AcDbEntity
  8
Layer_1
 62
1
100
AcDbSpline
 70
8
 71
3
 72
8
 73
4
 74
0
 40
0
 40
0
 40
0
 40
0
 40
1
 40
1
 40
1
 40
1
 10
45.489719
 20
169.282560
 30
0.0
 10
46.014390
 20
169.282560
 30
0.0
 10
46.439719
 20
169.707889
 30
0.0
 10
46.439719
 20
170.232560
 30
0.0
  0
LINE
  5
111
100
AcDbEntity
  8
Layer_1
 62
1
100
AcDbLine
 10
46.439719
 20
170.232560
 30
0.0
 11
46.439719
 21
170.232560
 31
0.0
  0
SPLINE
  5
112
100
AcDbEntity
  8
Layer_1
 62
1
100
AcDbSpline
 70
8
 71
3
 72
8
 73
4
 74
0
 40
0
 40
0
 40
0
 40
0
 40
1
 40
1
 40
1
 40
1
 10
46.439719
 20
112.387630
 30
0.0
 10
46.439719
 20
112.003391
 30
0.0
 10
46.208259
 20
111.656986
 30
0.0
 10
45.853268
 20
111.509944
 30
0.0
  0
SPLINE
  5
113
100
AcDbEntity
  8
Layer_1
 62
1
100
AcDbSpline
 70
8
 71
3
 72
8
 73
4
 74
0
 40
0
 40
0
 40
0
 40
0
 40
1
 40
1
 40
1
 40
1
 10
45.853268
 20
111.509944
 30
0.0
 10
45.498278
 20
111.362903
 30
0.0
 10
45.089666
 20
111.444180
 30
0.0
 10
44.817968
 20
111.715879
 30
0.0
  0
SPLINE
  5
114
100
AcDbEntity
  8
Layer_1
 62
1
100
AcDbSpline
 70
8
 71
3
 72
8
 73
4
 74
0
 40
0
 40
0
 40
0
 40
0
 40
1
 40
1
 40
1
 40
1
 10
44.817968
 20
111.715879
 30
0.0
 10
44.546269
 20
111.987577
 30
0.0
 10
44.464992
 20
112.396189
 30
0.0
 10
44.612033
 20
112.751179
 30
0.0
  0
SPLINE
  5
115
100
AcDbEntity
  8
Layer_1
 62
1
100
AcDbSpline
 70
8
 71
3
 72
8
 73
4
 74
0
 40
0
 40
0
 40
0
 40
0
 40
1
 40
1
 40
1
 40
1
 10
44.612033
 20
112.751179
 30
0.0
 10
44.759075
 20
113.106170
 30
0.0
 10
45.105480
 20
113.337630
 30
0.0
 10
45.489719
 20
113.337630
 30
0.0
  0
SPLINE
  5
116
100
AcDbEntity
  8
Layer_1
 62
1
100
AcDbSpline
 70
8
 71
3
 72
8
 73
4
 74
0
 40
0
 40
0
 40
0
 40
0
 40
1
 40
1
 40
1
 40
1
 10
45.489719
 20
113.337630
 30
0.0
 10
46.014390
 20
113.337630
 30
0.0
 10
46.439719
 20
112.912301
 30
0.0
 10
46.439719
 20
112.387630
 30
0.0
  0
LINE
  5
117
100
AcDbEntity
  8
Layer_1
 62
1
100
AcDbLine
 10
46.439719
 20
112.387630
 30
0.0
 11
46.439719
 21
112.387630
 31
0.0
  0
LINE
  5
118
100
AcDbEntity
  8
Layer_1
 62
1
100
AcDbLine
 10
-53.678410
 20
148.417810
 30
0.0
 11
-53.678410
 21
126.219810
 31
0.0
  0
SPLINE
  5
119
100
AcDbEntity
  8
Layer_1
 62
1
100
AcDbSpline
 70
8
 71
3
 72
8
 73
4
 74
0
 40
0
 40
0
 40
0
 40
0
 40
1
 40
1
 40
1
 40
1
 10
-53.678410
 20
126.219810
 30
0.0
 10
-53.678411
 20
125.514257
 30
0.0
 10
-53.678701
 20
124.808703
 30
0.0
 10
-53.679280
 20
124.103150
 30
0.0
  0
LINE
  5
11a
100
AcDbEntity
  8
Layer_1
 62
1
100
AcDbLine
 10
-53.679280
 20
124.103150
 30
0.0
 11
-53.683280
 21
118.898090
 31
0.0
  0
SPLINE
  5
11b
100
AcDbEntity
  8
Layer_1
 62
1
100
AcDbSpline
 70
8
 71
3
 72
8
 73
4
 74
0
 40
0
 40
0
 40
0
 40
0
 40
1
 40
1
 40
1
 40
1
 10
-53.683280
 20
118.898090
 30
0.0
 10
-53.683837
 20
118.218855
 30
0.0
 10
-53.946414
 20
117.566018
 30
0.0
 10
-54.416320
 20
117.075560
 30
0.0
  0
LINE
  5
11c
100
AcDbEntity
  8
Layer_1
 62
1
100
AcDbLine
 10
-54.416320
 20
117.075560
 30
0.0
 11
-55.777160
 21
115.655210
 31
0.0
  0
SPLINE
  5
11d
100
AcDbEntity
  8
Layer_1
 62
1
100
AcDbSpline
 70
8
 71
3
 72
8
 73
4
 74
0
 40
0
 40
0
 40
0
 40
0
 40
1
 40
1
 40
1
 40
1
 10
-55.777160
 20
115.655210
 30
0.0
 10
-56.247005
 20
115.164812
 30
0.0
 10
-56.509182
 20
114.511829
 30
0.0
 10
-56.508920
 20
113.832680
 30
0.0
  0
LINE
  5
11e
100
AcDbEntity
  8
Layer_1
 62
1
100
AcDbLine
 10
-56.508920
 20
113.832680
 30
0.0
 11
-56.505920
 21
105.524770
 31
0.0
  0
SPLINE
  5
11f
100
AcDbEntity
  8
Layer_1
 62
1
100
AcDbSpline
 70
8
 71
3
 72
8
 73
4
 74
0
 40
0
 40
0
 40
0
 40
0
 40
1
 40
1
 40
1
 40
1
 10
-56.505920
 20
105.524770
 30
0.0
 10
-56.505811
 20
105.244090
 30
0.0
 10
-56.394202
 20
104.974950
 30
0.0
 10
-56.195647
 20
104.776563
 30
0.0
  0
SPLINE
  5
120
100
AcDbEntity
  8
Layer_1
 62
1
100
AcDbSpline
 70
8
 71
3
 72
8
 73
4
 74
0
 40
0
 40
0
 40
0
 40
0
 40
1
 40
1
 40
1
 40
1
 10
-56.195647
 20
104.776563
 30
0.0
 10
-55.997093
 20
104.578176
 30
0.0
 10
-55.727860
 20
104.466793
 30
0.0
 10
-55.447180
 20
104.466920
 30
0.0
  0
LINE
  5
121
100
AcDbEntity
  8
Layer_1
 62
1
100
AcDbLine
 10
-55.447180
 20
104.466920
 30
0.0
 11
-50.908270
 21
104.468920
 31
0.0
  0
SPLINE
  5
122
100
AcDbEntity
  8
Layer_1
 62
1
100
AcDbSpline
 70
8
 71
3
 72
8
 73
4
 74
0
 40
0
 40
0
 40
0
 40
0
 40
1
 40
1
 40
1
 40
1
 10
-50.908270
 20
104.468920
 30
0.0
 10
-50.234805
 20
104.469224
 30
0.0
 10
-49.593316
 20
104.756220
 30
0.0
 10
-49.144260
 20
105.258120
 30
0.0
  0
LINE
  5
123
100
AcDbEntity
  8
Layer_1
 62
1
100
AcDbLine
 10
-49.144260
 20
105.258120
 30
0.0
 11
-37.482540
 21
118.292200
 31
0.0
  0
SPLINE
  5
124
100
AcDbEntity
  8
Layer_1
 62
1
100
AcDbSpline
 70
8
 71
3
 72
8
 73
4
 74
0
 40
0
 40
0
 40
0
 40
0
 40
1
 40
1
 40
1
 40
1
 10
-37.482540
 20
118.292200
 30
0.0
 10
-37.033704
 20
118.793853
 30
0.0
 10
-36.391659
 20
119.079467
 30
0.0
 10
-35.718530
 20
119.076920
 30
0.0
  0
LINE
  5
125
100
AcDbEntity
  8
Layer_1
 62
1
100
AcDbLine
 10
-35.718530
 20
119.076920
 30
0.0
 11
-34.713790
 21
119.072920
 31
0.0
  0
SPLINE
  5
126
100
AcDbEntity
  8
Layer_1
 62
1
100
AcDbSpline
 70
8
 71
3
 72
8
 73
4
 74
0
 40
0
 40
0
 40
0
 40
0
 40
1
 40
1
 40
1
 40
1
 10
-34.713790
 20
119.072920
 30
0.0
 10
-34.008240
 20
119.070245
 30
0.0
 10
-33.302685
 20
119.068912
 30
0.0
 10
-32.597130
 20
119.068920
 30
0.0
  0
LINE
  5
127
100
AcDbEntity
  8
Layer_1
 62
1
100
AcDbLine
 10
-32.597130
 20
119.068920
 30
0.0
 11
-12.768700
 21
119.069390
 31
0.0
  0
SPLINE
  5
128
100
AcDbEntity
  8
Layer_1
 62
1
100
AcDbSpline
 70
8
 71
3
 72
8
 73
4
 74
0
 40
0
 40
0
 40
0
 40
0
 40
1
 40
1
 40
1
 40
1
 10
-12.768700
 20
119.069390
 30
0.0
 10
-12.096065
 20
119.069405
 30
0.0
 10
-11.456085
 20
118.779401
 30
0.0
 10
-11.012640
 20
118.273640
 30
0.0
  0
LINE
  5
129
100
AcDbEntity
  8
Layer_1
 62
1
100
AcDbLine
 10
-11.012640
 20
118.273640
 30
0.0
 11
-3.960270
 21
110.230270
 31
0.0
  0
SPLINE
  5
12a
100
AcDbEntity
  8
Layer_1
 62
1
100
AcDbSpline
 70
8
 71
3
 72
8
 73
4
 74
0
 40
0
 40
0
 40
0
 40
0
 40
1
 40
1
 40
1
 40
1
 10
-3.960270
 20
110.230270
 30
0.0
 10
-3.516877
 20
109.724570
 30
0.0
 10
-2.876764
 20
109.434892
 30
0.0
 10
-2.204210
 20
109.435580
 30
0.0
  0
LINE
  5
12b
100
AcDbEntity
  8
Layer_1
 62
1
100
AcDbLine
 10
-2.204210
 20
109.435580
 30
0.0
 11
6.430590
 21
109.444580
 31
0.0
  0
SPLINE
  5
12c
100
AcDbEntity
  8
Layer_1
 62
1
100
AcDbSpline
 70
8
 71
3
 72
8
 73
4
 74
0
 40
0
 40
0
 40
0
 40
0
 40
1
 40
1
 40
1
 40
1
 10
6.430590
 20
109.444580
 30
0.0
 10
7.104412
 20
109.445269
 30
0.0
 10
7.746448
 20
109.731186
 30
0.0
 10
8.197750
 20
110.231550
 30
0.0
  0
LINE
  5
12d
100
AcDbEntity
  8
Layer_1
 62
1
100
AcDbLine
 10
8.197750
 20
110.231550
 30
0.0
 11
15.460690
 21
118.284120
 31
0.0
  0
SPLINE
  5
12e
100
AcDbEntity
  8
Layer_1
 62
1
100
AcDbSpline
 70
8
 71
3
 72
8
 73
4
 74
0
 40
0
 40
0
 40
0
 40
0
 40
1
 40
1
 40
1
 40
1
 10
15.460690
 20
118.284120
 30
0.0
 10
15.911938
 20
118.784427
 30
0.0
 10
16.554105
 20
119.070019
 30
0.0
 10
17.227850
 20
119.070030
 30
0.0
  0
LINE
  5
12f
100
AcDbEntity
  8
Layer_1
 62
1
100
AcDbLine
 10
17.227850
 20
119.070030
 30
0.0
 11
25.495210
 21
119.070150
 31
0.0
  0
SPLINE
  5
130
100
AcDbEntity
  8
Layer_1
 62
1
100
AcDbSpline
 70
8
 71
3
 72
8
 73
4
 74
0
 40
0
 40
0
 40
0
 40
0
 40
1
 40
1
 40
1
 40
1
 10
25.495210
 20
119.070150
 30
0.0
 10
26.200763
 20
119.070161
 30
0.0
 10
26.906317
 20
119.070425
 30
0.0
 10
27.611870
 20
119.070940
 30
0.0
  0
LINE
  5
131
100
AcDbEntity
  8
Layer_1
 62
1
100
AcDbLine
 10
27.611870
 20
119.070940
 30
0.0
 11
29.604780
 21
119.071940
 31
0.0
  0
SPLINE
  5
132
100
AcDbEntity
  8
Layer_1
 62
1
100
AcDbSpline
 70
8
 71
3
 72
8
 73
4
 74
0
 40
0
 40
0
 40
0
 40
0
 40
1
 40
1
 40
1
 40
1
 10
29.604780
 20
119.071940
 30
0.0
 10
30.277814
 20
119.072431
 30
0.0
 10
30.918793
 20
118.784477
 30
0.0
 10
31.365420
 20
118.280990
 30
0.0
  0
LINE
  5
133
100
AcDbEntity
  8
Layer_1
 62
1
100
AcDbLine
 10
31.365420
 20
118.280990
 30
0.0
 11
42.916910
 21
105.258840
 31
0.0
  0
SPLINE
  5
134
100
AcDbEntity
  8
Layer_1
 62
1
100
AcDbSpline
 70
8
 71
3
 72
8
 73
4
 74
0
 40
0
 40
0
 40
0
 40
0
 40
1
 40
1
 40
1
 40
1
 10
42.916910
 20
105.258840
 30
0.0
 10
43.363609
 20
104.755274
 30
0.0
 10
44.004410
 20
104.466884
 30
0.0
 10
44.677550
 20
104.466470
 30
0.0
  0
LINE
  5
135
100
AcDbEntity
  8
Layer_1
 62
1
100
AcDbLine
 10
44.677550
 20
104.466470
 30
0.0
 11
49.056570
 21
104.463470
 31
0.0
  0
SPLINE
  5
136
100
AcDbEntity
  8
Layer_1
 62
1
100
AcDbSpline
 70
8
 71
3
 72
8
 73
4
 74
0
 40
0
 40
0
 40
0
 40
0
 40
1
 40
1
 40
1
 40
1
 10
49.056570
 20
104.463470
 30
0.0
 10
49.337233
 20
104.463299
 30
0.0
 10
49.606465
 20
104.574645
 30
0.0
 10
49.805022
 20
104.773005
 30
0.0
  0
SPLINE
  5
137
100
AcDbEntity
  8
Layer_1
 62
1
100
AcDbSpline
 70
8
 71
3
 72
8
 73
4
 74
0
 40
0
 40
0
 40
0
 40
0
 40
1
 40
1
 40
1
 40
1
 10
49.805022
 20
104.773005
 30
0.0
 10
50.003580
 20
104.971365
 30
0.0
 10
50.115192
 20
105.240487
 30
0.0
 10
50.115300
 20
105.521150
 30
0.0
  0
LINE
  5
138
100
AcDbEntity
  8
Layer_1
 62
1
100
AcDbLine
 10
50.115300
 20
105.521150
 30
0.0
 11
50.118300
 21
113.861310
 31
0.0
  0
SPLINE
  5
139
100
AcDbEntity
  8
Layer_1
 62
1
100
AcDbSpline
 70
8
 71
3
 72
8
 73
4
 74
0
 40
0
 40
0
 40
0
 40
0
 40
1
 40
1
 40
1
 40
1
 10
50.118300
 20
113.861310
 30
0.0
 10
50.118558
 20
114.542837
 30
0.0
 10
49.867538
 20
115.200534
 30
0.0
 10
49.413260
 20
115.708580
 30
0.0
  0
LINE
  5
13a
100
AcDbEntity
  8
Layer_1
 62
1
100
AcDbLine
 10
49.413260
 20
115.708580
 30
0.0
 11
47.998960
 21
117.290290
 31
0.0
  0
SPLINE
  5
13b
100
AcDbEntity
  8
Layer_1
 62
1
100
AcDbSpline
 70
8
 71
3
 72
8
 73
4
 74
0
 40
0
 40
0
 40
0
 40
0
 40
1
 40
1
 40
1
 40
1
 10
47.998960
 20
117.290290
 30
0.0
 10
47.544628
 20
117.798398
 30
0.0
 10
47.293199
 20
118.455951
 30
0.0
 10
47.292620
 20
119.137560
 30
0.0
  0
LINE
  5
13c
100
AcDbEntity
  8
Layer_1
 62
1
100
AcDbLine
 10
47.292620
 20
119.137560
 30
0.0
 11
47.288620
 21
124.102840
 31
0.0
  0
SPLINE
  5
13d
100
AcDbEntity
  8
Layer_1
 62
1
100
AcDbSpline
 70
8
 71
3
 72
8
 73
4
 74
0
 40
0
 40
0
 40
0
 40
0
 40
1
 40
1
 40
1
 40
1
 10
47.288620
 20
124.102840
 30
0.0
 10
47.288021
 20
124.808393
 30
0.0
 10
47.287721
 20
125.513947
 30
0.0
 10
47.287720
 20
126.219500
 30
0.0
  0
LINE
  5
13e
100
AcDbEntity
  8
Layer_1
 62
1
100
AcDbLine
 10
47.287720
 20
126.219500
 30
0.0
 11
47.287720
 21
144.922230
 31
0.0
  0
LINE
  5
13f
100
AcDbEntity
  8
Layer_1
 62
1
100
AcDbLine
 10
47.287720
 20
144.922230
 30
0.0
 11
47.287710
 21
155.788250
 31
0.0
  0
SPLINE
  5
140
100
AcDbEntity
  8
Layer_1
 62
1
100
AcDbSpline
 70
8
 71
3
 72
8
 73
4
 74
0
 40
0
 40
0
 40
0
 40
0
 40
1
 40
1
 40
1
 40
1
 10
47.287710
 20
155.788250
 30
0.0
 10
47.287711
 20
156.493803
 30
0.0
 10
47.287987
 20
157.199357
 30
0.0
 10
47.288540
 20
157.904910
 30
0.0
  0
LINE
  5
141
100
AcDbEntity
  8
Layer_1
 62
1
100
AcDbLine
 10
47.288540
 20
157.904910
 30
0.0
 11
47.292540
 21
163.465500
 31
0.0
  0
SPLINE
  5
142
100
AcDbEntity
  8
Layer_1
 62
1
100
AcDbSpline
 70
8
 71
3
 72
8
 73
4
 74
0
 40
0
 40
0
 40
0
 40
0
 40
1
 40
1
 40
1
 40
1
 10
47.292540
 20
163.465500
 30
0.0
 10
47.293075
 20
164.147105
 30
0.0
 10
47.544481
 20
164.804665
 30
0.0
 10
47.998810
 20
165.312770
 30
0.0
  0
LINE
  5
143
100
AcDbEntity
  8
Layer_1
 62
1
100
AcDbLine
 10
47.998810
 20
165.312770
 30
0.0
 11
49.413110
 21
166.894480
 31
0.0
  0
SPLINE
  5
144
100
AcDbEntity
  8
Layer_1
 62
1
100
AcDbSpline
 70
8
 71
3
 72
8
 73
4
 74
0
 40
0
 40
0
 40
0
 40
0
 40
1
 40
1
 40
1
 40
1
 10
49.413110
 20
166.894480
 30
0.0
 10
49.867388
 20
167.402526
 30
0.0
 10
50.118408
 20
168.060223
 30
0.0
 10
50.118150
 20
168.741750
 30
0.0
  0
LINE
  5
145
100
AcDbEntity
  8
Layer_1
 62
1
100
AcDbLine
 10
50.118150
 20
168.741750
 30
0.0
 11
50.115150
 21
177.081910
 31
0.0
  0
SPLINE
  5
146
100
AcDbEntity
  8
Layer_1
 62
1
100
AcDbSpline
 70
8
 71
3
 72
8
 73
4
 74
0
 40
0
 40
0
 40
0
 40
0
 40
1
 40
1
 40
1
 40
1
 10
50.115150
 20
177.081910
 30
0.0
 10
50.115042
 20
177.362573
 30
0.0
 10
50.003430
 20
177.631695
 30
0.0
 10
49.804872
 20
177.830055
 30
0.0
  0
SPLINE
  5
147
100
AcDbEntity
  8
Layer_1
 62
1
100
AcDbSpline
 70
8
 71
3
 72
8
 73
4
 74
0
 40
0
 40
0
 40
0
 40
0
 40
1
 40
1
 40
1
 40
1
 10
49.804872
 20
177.830055
 30
0.0
 10
49.606315
 20
178.028415
 30
0.0
 10
49.337083
 20
178.139761
 30
0.0
 10
49.056420
 20
178.139590
 30
0.0
  0
LINE
  5
148
100
AcDbEntity
  8
Layer_1
 62
1
100
AcDbLine
 10
49.056420
 20
178.139590
 30
0.0
 11
44.677400
 21
178.136590
 31
0.0
  0
SPLINE
  5
149
100
AcDbEntity
  8
Layer_1
 62
1
100
AcDbSpline
 70
8
 71
3
 72
8
 73
4
 74
0
 40
0
 40
0
 40
0
 40
0
 40
1
 40
1
 40
1
 40
1
 10
44.677400
 20
178.136590
 30
0.0
 10
44.004260
 20
178.136176
 30
0.0
 10
43.363459
 20
177.847786
 30
0.0
 10
42.916760
 20
177.344220
 30
0.0
  0
LINE
  5
14a
100
AcDbEntity
  8
Layer_1
 62
1
100
AcDbLine
 10
42.916760
 20
177.344220
 30
0.0
 11
31.365270
 21
164.322070
 31
0.0
  0
SPLINE
  5
14b
100
AcDbEntity
  8
Layer_1
 62
1
100
AcDbSpline
 70
8
 71
3
 72
8
 73
4
 74
0
 40
0
 40
0
 40
0
 40
0
 40
1
 40
1
 40
1
 40
1
 10
31.365270
 20
164.322070
 30
0.0
 10
30.918643
 20
163.818583
 30
0.0
 10
30.277664
 20
163.530629
 30
0.0
 10
29.604630
 20
163.531120
 30
0.0
  0
LINE
  5
14c
100
AcDbEntity
  8
Layer_1
 62
1
100
AcDbLine
 10
29.604630
 20
163.531120
 30
0.0
 11
27.611720
 21
163.532120
 31
0.0
  0
SPLINE
  5
14d
100
AcDbEntity
  8
Layer_1
 62
1
100
AcDbSpline
 70
8
 71
3
 72
8
 73
4
 74
0
 40
0
 40
0
 40
0
 40
0
 40
1
 40
1
 40
1
 40
1
 10
27.611720
 20
163.532120
 30
0.0
 10
26.906167
 20
163.532635
 30
0.0
 10
26.200613
 20
163.532899
 30
0.0
 10
25.495060
 20
163.532910
 30
0.0
  0
LINE
  5
14e
100
AcDbEntity
  8
Layer_1
 62
1
100
AcDbLine
 10
25.495060
 20
163.532910
 30
0.0
 11
17.227700
 21
163.533030
 31
0.0
  0
SPLINE
  5
14f
100
AcDbEntity
  8
Layer_1
 62
1
100
AcDbSpline
 70
8
 71
3
 72
8
 73
4
 74
0
 40
0
 40
0
 40
0
 40
0
 40
1
 40
1
 40
1
 40
1
 10
17.227700
 20
163.533030
 30
0.0
 10
16.553955
 20
163.533041
 30
0.0
 10
15.911788
 20
163.818633
 30
0.0
 10
15.460540
 20
164.318940
 30
0.0
  0
LINE
  5
150
100
AcDbEntity
  8
Layer_1
 62
1
100
AcDbLine
 10
15.460540
 20
164.318940
 30
0.0
 11
8.197600
 21
172.371510
 31
0.0
  0
SPLINE
  5
151
100
AcDbEntity
  8
Layer_1
 62
1
100
AcDbSpline
 70
8
 71
3
 72
8
 73
4
 74
0
 40
0
 40
0
 40
0
 40
0
 40
1
 40
1
 40
1
 40
1
 10
8.197600
 20
172.371510
 30
0.0
 10
7.746298
 20
172.871874
 30
0.0
 10
7.104262
 20
173.157791
 30
0.0
 10
6.430440
 20
173.158480
 30
0.0
  0
LINE
  5
152
100
AcDbEntity
  8
Layer_1
 62
1
100
AcDbLine
 10
6.430440
 20
173.158480
 30
0.0
 11
-2.204360
 21
173.167480
 31
0.0
  0
SPLINE
  5
153
100
AcDbEntity
  8
Layer_1
 62
1
100
AcDbSpline
 70
8
 71
3
 72
8
 73
4
 74
0
 40
0
 40
0
 40
0
 40
0
 40
1
 40
1
 40
1
 40
1
 10
-2.204360
 20
173.167480
 30
0.0
 10
-2.876914
 20
173.168168
 30
0.0
 10
-3.517027
 20
172.878490
 30
0.0
 10
-3.960420
 20
172.372790
 30
0.0
  0
LINE
  5
154
100
AcDbEntity
  8
Layer_1
 62
1
100
AcDbLine
 10
-3.960420
 20
172.372790
 30
0.0
 11
-11.012790
 21
164.329420
 31
0.0
  0
SPLINE
  5
155
100
AcDbEntity
  8
Layer_1
 62
1
100
AcDbSpline
 70
8
 71
3
 72
8
 73
4
 74
0
 40
0
 40
0
 40
0
 40
0
 40
1
 40
1
 40
1
 40
1
 10
-11.012790
 20
164.329420
 30
0.0
 10
-11.456235
 20
163.823659
 30
0.0
 10
-12.096215
 20
163.533655
 30
0.0
 10
-12.768850
 20
163.533670
 30
0.0
  0
LINE
  5
156
100
AcDbEntity
  8
Layer_1
 62
1
100
AcDbLine
 10
-12.768850
 20
163.533670
 30
0.0
 11
-32.597280
 21
163.534140
 31
0.0
  0
SPLINE
  5
157
100
AcDbEntity
  8
Layer_1
 62
1
100
AcDbSpline
 70
8
 71
3
 72
8
 73
4
 74
0
 40
0
 40
0
 40
0
 40
0
 40
1
 40
1
 40
1
 40
1
 10
-32.597280
 20
163.534140
 30
0.0
 10
-33.302835
 20
163.534148
 30
0.0
 10
-34.008390
 20
163.532815
 30
0.0
 10
-34.713940
 20
163.530140
 30
0.0
  0
LINE
  5
158
100
AcDbEntity
  8
Layer_1
 62
1
100
AcDbLine
 10
-34.713940
 20
163.530140
 30
0.0
 11
-35.718680
 21
163.526140
 31
0.0
  0
SPLINE
  5
159
100
AcDbEntity
  8
Layer_1
 62
1
100
AcDbSpline
 70
8
 71
3
 72
8
 73
4
 74
0
 40
0
 40
0
 40
0
 40
0
 40
1
 40
1
 40
1
 40
1
 10
-35.718680
 20
163.526140
 30
0.0
 10
-36.391809
 20
163.523593
 30
0.0
 10
-37.033854
 20
163.809207
 30
0.0
 10
-37.482690
 20
164.310860
 30
0.0
  0
LINE
  5
15a
100
AcDbEntity
  8
Layer_1
 62
1
100
AcDbLine
 10
-37.482690
 20
164.310860
 30
0.0
 11
-49.144410
 21
177.344940
 31
0.0
  0
SPLINE
  5
15b
100
AcDbEntity
  8
Layer_1
 62
1
100
AcDbSpline
 70
8
 71
3
 72
8
 73
4
 74
0
 40
0
 40
0
 40
0
 40
0
 40
1
 40
1
 40
1
 40
1
 10
-49.144410
 20
177.344940
 30
0.0
 10
-49.593466
 20
177.846840
 30
0.0
 10
-50.234955
 20
178.133836
 30
0.0
 10
-50.908420
 20
178.134140
 30
0.0
  0
LINE
  5
15c
100
AcDbEntity
  8
Layer_1
 62
1
100
AcDbLine
 10
-50.908420
 20
178.134140
 30
0.0
 11
-55.447330
 21
178.136140
 31
0.0
  0
SPLINE
  5
15d
100
AcDbEntity
  8
Layer_1
 62
1
100
AcDbSpline
 70
8
 71
3
 72
8
 73
4
 74
0
 40
0
 40
0
 40
0
 40
0
 40
1
 40
1
 40
1
 40
1
 10
-55.447330
 20
178.136140
 30
0.0
 10
-55.728010
 20
178.136267
 30
0.0
 10
-55.997243
 20
178.024884
 30
0.0
 10
-56.195797
 20
177.826497
 30
0.0
  0
SPLINE
  5
15e
100
AcDbEntity
  8
Layer_1
 62
1
100
AcDbSpline
 70
8
 71
3
 72
8
 73
4
 74
0
 40
0
 40
0
 40
0
 40
0
 40
1
 40
1
 40
1
 40
1
 10
-56.195797
 20
177.826497
 30
0.0
 10
-56.394352
 20
177.628110
 30
0.0
 10
-56.505961
 20
177.358970
 30
0.0
 10
-56.506070
 20
177.078290
 30
0.0
  0
LINE
  5
15f
100
AcDbEntity
  8
Layer_1
 62
1
100
AcDbLine
 10
-56.506070
 20
177.078290
 30
0.0
 11
-56.509070
 21
168.770380
 31
0.0
  0
SPLINE
  5
160
100
AcDbEntity
  8
Layer_1
 62
1
100
AcDbSpline
 70
8
 71
3
 72
8
 73
4
 74
0
 40
0
 40
0
 40
0
 40
0
 40
1
 40
1
 40
1
 40
1
 10
-56.509070
 20
168.770380
 30
0.0
 10
-56.509332
 20
168.091231
 30
0.0
 10
-56.247155
 20
167.438248
 30
0.0
 10
-55.777310
 20
166.947850
 30
0.0
  0
LINE
  5
161
100
AcDbEntity
  8
Layer_1
 62
1
100
AcDbLine
 10
-55.777310
 20
166.947850
 30
0.0
 11
-54.416470
 21
165.527500
 31
0.0
  0
SPLINE
  5
162
100
AcDbEntity
  8
Layer_1
 62
1
100
AcDbSpline
 70
8
 71
3
 72
8
 73
4
 74
0
 40
0
 40
0
 40
0
 40
0
 40
1
 40
1
 40
1
 40
1
 10
-54.416470
 20
165.527500
 30
0.0
 10
-53.946569
 20
165.037044
 30
0.0
 10
-53.684013
 20
164.384200
 30
0.0
 10
-53.683500
 20
163.704970
 30
0.0
  0
LINE
  5
163
100
AcDbEntity
  8
Layer_1
 62
1
100
AcDbLine
 10
-53.683500
 20
163.704970
 30
0.0
 11
-53.679500
 21
157.904600
 31
0.0
  0
SPLINE
  5
164
100
AcDbEntity
  8
Layer_1
 62
1
100
AcDbSpline
 70
8
 71
3
 72
8
 73
4
 74
0
 40
0
 40
0
 40
0
 40
0
 40
1
 40
1
 40
1
 40
1
 10
-53.679500
 20
157.904600
 30
0.0
 10
-53.678966
 20
157.199047
 30
0.0
 10
-53.678700
 20
156.493493
 30
0.0
 10
-53.678700
 20
155.787940
 30
0.0
  0
LINE
  5
165
100
AcDbEntity
  8
Layer_1
 62
1
100
AcDbLine
 10
-53.678700
 20
155.787940
 30
0.0
 11
-53.678410
 21
148.417810
 31
0.0
  0
SPLINE
  5
166
100
AcDbEntity
  8
Layer_1
 62
1
100
AcDbSpline
 70
8
 71
3
 72
8
 73
4
 74
0
 40
0
 40
0
 40
0
 40
0
 40
1
 40
1
 40
1
 40
1
 10
3.022338
 20
170.232560
 30
0.0
 10
3.022338
 20
170.616799
 30
0.0
 10
2.790878
 20
170.963204
 30
0.0
 10
2.435887
 20
171.110246
 30
0.0
  0
SPLINE
  5
167
100
AcDbEntity
  8
Layer_1
 62
1
100
AcDbSpline
 70
8
 71
3
 72
8
 73
4
 74
0
 40
0
 40
0
 40
0
 40
0
 40
1
 40
1
 40
1
 40
1
 10
2.435887
 20
171.110246
 30
0.0
 10
2.080897
 20
171.257287
 30
0.0
 10
1.672285
 20
171.176010
 30
0.0
 10
1.400587
 20
170.904311
 30
0.0
  0
SPLINE
  5
168
100
AcDbEntity
  8
Layer_1
 62
1
100
AcDbSpline
 70
8
 71
3
 72
8
 73
4
 74
0
 40
0
 40
0
 40
0
 40
0
 40
1
 40
1
 40
1
 40
1
 10
1.400587
 20
170.904311
 30
0.0
 10
1.128889
 20
170.632613
 30
0.0
 10
1.047611
 20
170.224001
 30
0.0
 10
1.194653
 20
169.869011
 30
0.0
  0
SPLINE
  5
169
100
AcDbEntity
  8
Layer_1
 62
1
100
AcDbSpline
 70
8
 71
3
 72
8
 73
4
 74
0
 40
0
 40
0
 40
0
 40
0
 40
1
 40
1
 40
1
 40
1
 10
1.194653
 20
169.869011
 30
0.0
 10
1.341695
 20
169.514020
 30
0.0
 10
1.688099
 20
169.282560
 30
0.0
 10
2.072338
 20
169.282560
 30
0.0
  0
SPLINE
  5
16a
100
AcDbEntity
  8
Layer_1
 62
1
100
AcDbSpline
 70
8
 71
3
 72
8
 73
4
 74
0
 40
0
 40
0
 40
0
 40
0
 40
1
 40
1
 40
1
 40
1
 10
2.072338
 20
169.282560
 30
0.0
 10
2.597009
 20
169.282560
 30
0.0
 10
3.022338
 20
169.707889
 30
0.0
 10
3.022338
 20
170.232560
 30
0.0
  0
LINE
  5
16b
100
AcDbEntity
  8
Layer_1
 62
1
100
AcDbLine
 10
3.022338
 20
170.232560
 30
0.0
 11
3.022338
 21
170.232560
 31
0.0
  0
SPLINE
  5
16c
100
AcDbEntity
  8
Layer_1
 62
1
100
AcDbSpline
 70
8
 71
3
 72
8
 73
4
 74
0
 40
0
 40
0
 40
0
 40
0
 40
1
 40
1
 40
1
 40
1
 10
3.022338
 20
112.387630
 30
0.0
 10
3.022338
 20
112.003391
 30
0.0
 10
2.790878
 20
111.656986
 30
0.0
 10
2.435887
 20
111.509944
 30
0.0
  0
SPLINE
  5
16d
100
AcDbEntity
  8
Layer_1
 62
1
100
AcDbSpline
 70
8
 71
3
 72
8
 73
4
 74
0
 40
0
 40
0
 40
0
 40
0
 40
1
 40
1
 40
1
 40
1
 10
2.435887
 20
111.509944
 30
0.0
 10
2.080897
 20
111.362903
 30
0.0
 10
1.672285
 20
111.444180
 30
0.0
 10
1.400587
 20
111.715879
 30
0.0
  0
SPLINE
  5
16e
100
AcDbEntity
  8
Layer_1
 62
1
100
AcDbSpline
 70
8
 71
3
 72
8
 73
4
 74
0
 40
0
 40
0
 40
0
 40
0
 40
1
 40
1
 40
1
 40
1
 10
1.400587
 20
111.715879
 30
0.0
 10
1.128889
 20
111.987577
 30
0.0
 10
1.047611
 20
112.396189
 30
0.0
 10
1.194653
 20
112.751179
 30
0.0
  0
SPLINE
  5
16f
100
AcDbEntity
  8
Layer_1
 62
1
100
AcDbSpline
 70
8
 71
3
 72
8
 73
4
 74
0
 40
0
 40
0
 40
0
 40
0
 40
1
 40
1
 40
1
 40
1
 10
1.194653
 20
112.751179
 30
0.0
 10
1.341695
 20
113.106170
 30
0.0
 10
1.688099
 20
113.337630
 30
0.0
 10
2.072338
 20
113.337630
 30
0.0
  0
SPLINE
  5
170
100
AcDbEntity
  8
Layer_1
 62
1
100
AcDbSpline
 70
8
 71
3
 72
8
 73
4
 74
0
 40
0
 40
0
 40
0
 40
0
 40
1
 40
1
 40
1
 40
1
 10
2.072338
 20
113.337630
 30
0.0
 10
2.597009
 20
113.337630
 30
0.0
 10
3.022338
 20
112.912301
 30
0.0
 10
3.022338
 20
112.387630
 30
0.0
  0
LINE
  5
171
100
AcDbEntity
  8
Layer_1
 62
1
100
AcDbLine
 10
3.022338
 20
112.387630
 30
0.0
 11
3.022338
 21
112.387630
 31
0.0
  0
SPLINE
  5
172
100
AcDbEntity
  8
Layer_1
 62
1
100
AcDbSpline
 70
8
 71
3
 72
8
 73
4
 74
0
 40
0
 40
0
 40
0
 40
0
 40
1
 40
1
 40
1
 40
1
 10
102.255770
 20
112.694110
 30
0.0
 10
102.255770
 20
112.309871
 30
0.0
 10
102.024310
 20
111.963466
 30
0.0
 10
101.669319
 20
111.816424
 30
0.0
  0
SPLINE
  5
173
100
AcDbEntity
  8
Layer_1
 62
1
100
AcDbSpline
 70
8
 71
3
 72
8
 73
4
 74
0
 40
0
 40
0
 40
0
 40
0
 40
1
 40
1
 40
1
 40
1
 10
101.669319
 20
111.816424
 30
0.0
 10
101.314329
 20
111.669383
 30
0.0
 10
100.905717
 20
111.750660
 30
0.0
 10
100.634019
 20
112.022359
 30
0.0
  0
SPLINE
  5
174
100
AcDbEntity
  8
Layer_1
 62
1
100
AcDbSpline
 70
8
 71
3
 72
8
 73
4
 74
0
 40
0
 40
0
 40
0
 40
0
 40
1
 40
1
 40
1
 40
1
 10
100.634019
 20
112.022359
 30
0.0
 10
100.362320
 20
112.294057
 30
0.0
 10
100.281043
 20
112.702669
 30
0.0
 10
100.428084
 20
113.057659
 30
0.0
  0
SPLINE
  5
175
100
AcDbEntity
  8
Layer_1
 62
1
100
AcDbSpline
 70
8
 71
3
 72
8
 73
4
 74
0
 40
0
 40
0
 40
0
 40
0
 40
1
 40
1
 40
1
 40
1
 10
100.428084
 20
113.057659
 30
0.0
 10
100.575126
 20
113.412650
 30
0.0
 10
100.921531
 20
113.644110
 30
0.0
 10
101.305770
 20
113.644110
 30
0.0
  0
SPLINE
  5
176
100
AcDbEntity
  8
Layer_1
 62
1
100
AcDbSpline
 70
8
 71
3
 72
8
 73
4
 74
0
 40
0
 40
0
 40
0
 40
0
 40
1
 40
1
 40
1
 40
1
 10
101.305770
 20
113.644110
 30
0.0
 10
101.557726
 20
113.644110
 30
0.0
 10
101.799362
 20
113.544021
 30
0.0
 10
101.977521
 20
113.365861
 30
0.0
  0
SPLINE
  5
177
100
AcDbEntity
  8
Layer_1
 62
1
100
AcDbSpline
 70
8
 71
3
 72
8
 73
4
 74
0
 40
0
 40
0
 40
0
 40
0
 40
1
 40
1
 40
1
 40
1
 10
101.977521
 20
113.365861
 30
0.0
 10
102.155681
 20
113.187702
 30
0.0
 10
102.255770
 20
112.946066
 30
0.0
 10
102.255770
 20
112.694110
 30
0.0
  0
LINE
  5
178
100
AcDbEntity
  8
Layer_1
 62
1
100
AcDbLine
 10
102.255770
 20
112.694110
 30
0.0
 11
102.255770
 21
112.694110
 31
0.0
  0
SPLINE
  5
179
100
AcDbEntity
  8
Layer_1
 62
1
100
AcDbSpline
 70
8
 71
3
 72
8
 73
4
 74
0
 40
0
 40
0
 40
0
 40
0
 40
1
 40
1
 40
1
 40
1
 10
102.255770
 20
170.539030
 30
0.0
 10
102.255770
 20
170.923269
 30
0.0
 10
102.024310
 20
171.269674
 30
0.0
 10
101.669319
 20
171.416716
 30
0.0
  0
SPLINE
  5
17a
100
AcDbEntity
  8
Layer_1
 62
1
100
AcDbSpline
 70
8
 71
3
 72
8
 73
4
 74
0
 40
0
 40
0
 40
0
 40
0
 40
1
 40
1
 40
1
 40
1
 10
101.669319
 20
171.416716
 30
0.0
 10
101.314329
 20
171.563757
 30
0.0
 10
100.905717
 20
171.482480
 30
0.0
 10
100.634019
 20
171.210781
 30
0.0
  0
SPLINE
  5
17b
100
AcDbEntity
  8
Layer_1
 62
1
100
AcDbSpline
 70
8
 71
3
 72
8
 73
4
 74
0
 40
0
 40
0
 40
0
 40
0
 40
1
 40
1
 40
1
 40
1
 10
100.634019
 20
171.210781
 30
0.0
 10
100.362320
 20
170.939083
 30
0.0
 10
100.281043
 20
170.530471
 30
0.0
 10
100.428084
 20
170.175481
 30
0.0
  0
SPLINE
  5
17c
100
AcDbEntity
  8
Layer_1
 62
1
100
AcDbSpline
 70
8
 71
3
 72
8
 73
4
 74
0
 40
0
 40
0
 40
0
 40
0
 40
1
 40
1
 40
1
 40
1
 10
100.428084
 20
170.175481
 30
0.0
 10
100.575126
 20
169.820490
 30
0.0
 10
100.921531
 20
169.589030
 30
0.0
 10
101.305770
 20
169.589030
 30
0.0
  0
SPLINE
  5
17d
100
AcDbEntity
  8
Layer_1
 62
1
100
AcDbSpline
 70
8
 71
3
 72
8
 73
4
 74
0
 40
0
 40
0
 40
0
 40
0
 40
1
 40
1
 40
1
 40
1
 10
101.305770
 20
169.589030
 30
0.0
 10
101.557726
 20
169.589030
 30
0.0
 10
101.799362
 20
169.689119
 30
0.0
 10
101.977521
 20
169.867279
 30
0.0
  0
SPLINE
  5
17e
100
AcDbEntity
  8
Layer_1
 62
1
100
AcDbSpline
 70
8
 71
3
 72
8
 73
4
 74
0
 40
0
 40
0
 40
0
 40
0
 40
1
 40
1
 40
1
 40
1
 10
101.977521
 20
169.867279
 30
0.0
 10
102.155681
 20
170.045438
 30
0.0
 10
102.255770
 20
170.287074
 30
0.0
 10
102.255770
 20
170.539030
 30
0.0
  0
LINE
  5
17f
100
AcDbEntity
  8
Layer_1
 62
1
100
AcDbLine
 10
102.255770
 20
170.539030
 30
0.0
 11
102.255770
 21
170.539030
 31
0.0
  0
SPLINE
  5
180
100
AcDbEntity
  8
Layer_1
 62
1
100
AcDbSpline
 70
8
 71
3
 72
8
 73
4
 74
0
 40
0
 40
0
 40
0
 40
0
 40
1
 40
1
 40
1
 40
1
 10
199.591360
 20
170.539030
 30
0.0
 10
199.591360
 20
170.923269
 30
0.0
 10
199.359900
 20
171.269674
 30
0.0
 10
199.004909
 20
171.416716
 30
0.0
  0
SPLINE
  5
181
100
AcDbEntity
  8
Layer_1
 62
1
100
AcDbSpline
 70
8
 71
3
 72
8
 73
4
 74
0
 40
0
 40
0
 40
0
 40
0
 40
1
 40
1
 40
1
 40
1
 10
199.004909
 20
171.416716
 30
0.0
 10
198.649919
 20
171.563757
 30
0.0
 10
198.241307
 20
171.482480
 30
0.0
 10
197.969609
 20
171.210781
 30
0.0
  0
SPLINE
  5
182
100
AcDbEntity
  8
Layer_1
 62
1
100
AcDbSpline
 70
8
 71
3
 72
8
 73
4
 74
0
 40
0
 40
0
 40
0
 40
0
 40
1
 40
1
 40
1
 40
1
 10
197.969609
 20
171.210781
 30
0.0
 10
197.697910
 20
170.939083
 30
0.0
 10
197.616633
 20
170.530471
 30
0.0
 10
197.763674
 20
170.175481
 30
0.0
  0
SPLINE
  5
183
100
AcDbEntity
  8
Layer_1
 62
1
100
AcDbSpline
 70
8
 71
3
 72
8
 73
4
 74
0
 40
0
 40
0
 40
0
 40
0
 40
1
 40
1
 40
1
 40
1
 10
197.763674
 20
170.175481
 30
0.0
 10
197.910716
 20
169.820490
 30
0.0
 10
198.257121
 20
169.589030
 30
0.0
 10
198.641360
 20
169.589030
 30
0.0
  0
SPLINE
  5
184
100
AcDbEntity
  8
Layer_1
 62
1
100
AcDbSpline
 70
8
 71
3
 72
8
 73
4
 74
0
 40
0
 40
0
 40
0
 40
0
 40
1
 40
1
 40
1
 40
1
 10
198.641360
 20
169.589030
 30
0.0
 10
198.893316
 20
169.589030
 30
0.0
 10
199.134952
 20
169.689119
 30
0.0
 10
199.313111
 20
169.867279
 30
0.0
  0
SPLINE
  5
185
100
AcDbEntity
  8
Layer_1
 62
1
100
AcDbSpline
 70
8
 71
3
 72
8
 73
4
 74
0
 40
0
 40
0
 40
0
 40
0
 40
1
 40
1
 40
1
 40
1
 10
199.313111
 20
169.867279
 30
0.0
 10
199.491271
 20
170.045438
 30
0.0
 10
199.591360
 20
170.287074
 30
0.0
 10
199.591360
 20
170.539030
 30
0.0
  0
LINE
  5
186
100
AcDbEntity
  8
Layer_1
 62
1
100
AcDbLine
 10
199.591360
 20
170.539030
 30
0.0
 11
199.591360
 21
170.539030
 31
0.0
  0
SPLINE
  5
187
100
AcDbEntity
  8
Layer_1
 62
1
100
AcDbSpline
 70
8
 71
3
 72
8
 73
4
 74
0
 40
0
 40
0
 40
0
 40
0
 40
1
 40
1
 40
1
 40
1
 10
199.591360
 20
112.694110
 30
0.0
 10
199.591360
 20
112.309871
 30
0.0
 10
199.359900
 20
111.963466
 30
0.0
 10
199.004909
 20
111.816424
 30
0.0
  0
SPLINE
  5
188
100
AcDbEntity
  8
Layer_1
 62
1
100
AcDbSpline
 70
8
 71
3
 72
8
 73
4
 74
0
 40
0
 40
0
 40
0
 40
0
 40
1
 40
1
 40
1
 40
1
 10
199.004909
 20
111.816424
 30
0.0
 10
198.649919
 20
111.669383
 30
0.0
 10
198.241307
 20
111.750660
 30
0.0
 10
197.969609
 20
112.022359
 30
0.0
  0
SPLINE
  5
189
100
AcDbEntity
  8
Layer_1
 62
1
100
AcDbSpline
 70
8
 71
3
 72
8
 73
4
 74
0
 40
0
 40
0
 40
0
 40
0
 40
1
 40
1
 40
1
 40
1
 10
197.969609
 20
112.022359
 30
0.0
 10
197.697910
 20
112.294057
 30
0.0
 10
197.616633
 20
112.702669
 30
0.0
 10
197.763674
 20
113.057659
 30
0.0
  0
SPLINE
  5
18a
100
AcDbEntity
  8
Layer_1
 62
1
100
AcDbSpline
 70
8
 71
3
 72
8
 73
4
 74
0
 40
0
 40
0
 40
0
 40
0
 40
1
 40
1
 40
1
 40
1
 10
197.763674
 20
113.057659
 30
0.0
 10
197.910716
 20
113.412650
 30
0.0
 10
198.257121
 20
113.644110
 30
0.0
 10
198.641360
 20
113.644110
 30
0.0
  0
SPLINE
  5
18b
100
AcDbEntity
  8
Layer_1
 62
1
100
AcDbSpline
 70
8
 71
3
 72
8
 73
4
 74
0
 40
0
 40
0
 40
0
 40
0
 40
1
 40
1
 40
1
 40
1
 10
198.641360
 20
113.644110
 30
0.0
 10
198.893316
 20
113.644110
 30
0.0
 10
199.134952
 20
113.544021
 30
0.0
 10
199.313111
 20
113.365861
 30
0.0
  0
SPLINE
  5
18c
100
AcDbEntity
  8
Layer_1
 62
1
100
AcDbSpline
 70
8
 71
3
 72
8
 73
4
 74
0
 40
0
 40
0
 40
0
 40
0
 40
1
 40
1
 40
1
 40
1
 10
199.313111
 20
113.365861
 30
0.0
 10
199.491271
 20
113.187702
 30
0.0
 10
199.591360
 20
112.946066
 30
0.0
 10
199.591360
 20
112.694110
 30
0.0
  0
LINE
  5
18d
100
AcDbEntity
  8
Layer_1
 62
1
100
AcDbLine
 10
199.591360
 20
112.694110
 30
0.0
 11
199.591360
 21
112.694110
 31
0.0
  0
SPLINE
  5
18e
100
AcDbEntity
  8
Layer_1
 62
1
100
AcDbSpline
 70
8
 71
3
 72
8
 73
4
 74
0
 40
0
 40
0
 40
0
 40
0
 40
1
 40
1
 40
1
 40
1
 10
156.173970
 20
170.539030
 30
0.0
 10
156.173970
 20
170.923269
 30
0.0
 10
155.942510
 20
171.269674
 30
0.0
 10
155.587519
 20
171.416716
 30
0.0
  0
SPLINE
  5
18f
100
AcDbEntity
  8
Layer_1
 62
1
100
AcDbSpline
 70
8
 71
3
 72
8
 73
4
 74
0
 40
0
 40
0
 40
0
 40
0
 40
1
 40
1
 40
1
 40
1
 10
155.587519
 20
171.416716
 30
0.0
 10
155.232529
 20
171.563757
 30
0.0
 10
154.823917
 20
171.482480
 30
0.0
 10
154.552219
 20
171.210781
 30
0.0
  0
SPLINE
  5
190
100
AcDbEntity
  8
Layer_1
 62
1
100
AcDbSpline
 70
8
 71
3
 72
8
 73
4
 74
0
 40
0
 40
0
 40
0
 40
0
 40
1
 40
1
 40
1
 40
1
 10
154.552219
 20
171.210781
 30
0.0
 10
154.280520
 20
170.939083
 30
0.0
 10
154.199243
 20
170.530471
 30
0.0
 10
154.346284
 20
170.175481
 30
0.0
  0
SPLINE
  5
191
100
AcDbEntity
  8
Layer_1
 62
1
100
AcDbSpline
 70
8
 71
3
 72
8
 73
4
 74
0
 40
0
 40
0
 40
0
 40
0
 40
1
 40
1
 40
1
 40
1
 10
154.346284
 20
170.175481
 30
0.0
 10
154.493326
 20
169.820490
 30
0.0
 10
154.839731
 20
169.589030
 30
0.0
 10
155.223970
 20
169.589030
 30
0.0
  0
SPLINE
  5
192
100
AcDbEntity
  8
Layer_1
 62
1
100
AcDbSpline
 70
8
 71
3
 72
8
 73
4
 74
0
 40
0
 40
0
 40
0
 40
0
 40
1
 40
1
 40
1
 40
1
 10
155.223970
 20
169.589030
 30
0.0
 10
155.475926
 20
169.589030
 30
0.0
 10
155.717562
 20
169.689119
 30
0.0
 10
155.895721
 20
169.867279
 30
0.0
  0
SPLINE
  5
193
100
AcDbEntity
  8
Layer_1
 62
1
100
AcDbSpline
 70
8
 71
3
 72
8
 73
4
 74
0
 40
0
 40
0
 40
0
 40
0
 40
1
 40
1
 40
1
 40
1
 10
155.895721
 20
169.867279
 30
0.0
 10
156.073881
 20
170.045438
 30
0.0
 10
156.173970
 20
170.287074
 30
0.0
 10
156.173970
 20
170.539030
 30
0.0
  0
LINE
  5
194
100
AcDbEntity
  8
Layer_1
 62
1
100
AcDbLine
 10
156.173970
 20
170.539030
 30
0.0
 11
156.173970
 21
170.539030
 31
0.0
  0
SPLINE
  5
195
100
AcDbEntity
  8
Layer_1
 62
1
100
AcDbSpline
 70
8
 71
3
 72
8
 73
4
 74
0
 40
0
 40
0
 40
0
 40
0
 40
1
 40
1
 40
1
 40
1
 10
156.173970
 20
112.694110
 30
0.0
 10
156.173970
 20
112.309871
 30
0.0
 10
155.942510
 20
111.963466
 30
0.0
 10
155.587519
 20
111.816424
 30
0.0
  0
SPLINE
  5
196
100
AcDbEntity
  8
Layer_1
 62
1
100
AcDbSpline
 70
8
 71
3
 72
8
 73
4
 74
0
 40
0
 40
0
 40
0
 40
0
 40
1
 40
1
 40
1
 40
1
 10
155.587519
 20
111.816424
 30
0.0
 10
155.232529
 20
111.669383
 30
0.0
 10
154.823917
 20
111.750660
 30
0.0
 10
154.552219
 20
112.022359
 30
0.0
  0
SPLINE
  5
197
100
AcDbEntity
  8
Layer_1
 62
1
100
AcDbSpline
 70
8
 71
3
 72
8
 73
4
 74
0
 40
0
 40
0
 40
0
 40
0
 40
1
 40
1
 40
1
 40
1
 10
154.552219
 20
112.022359
 30
0.0
 10
154.280520
 20
112.294057
 30
0.0
 10
154.199243
 20
112.702669
 30
0.0
 10
154.346284
 20
113.057659
 30
0.0
  0
SPLINE
  5
198
100
AcDbEntity
  8
Layer_1
 62
1
100
AcDbSpline
 70
8
 71
3
 72
8
 73
4
 74
0
 40
0
 40
0
 40
0
 40
0
 40
1
 40
1
 40
1
 40
1
 10
154.346284
 20
113.057659
 30
0.0
 10
154.493326
 20
113.412650
 30
0.0
 10
154.839731
 20
113.644110
 30
0.0
 10
155.223970
 20
113.644110
 30
0.0
  0
SPLINE
  5
199
100
AcDbEntity
  8
Layer_1
 62
1
100
AcDbSpline
 70
8
 71
3
 72
8
 73
4
 74
0
 40
0
 40
0
 40
0
 40
0
 40
1
 40
1
 40
1
 40
1
 10
155.223970
 20
113.644110
 30
0.0
 10
155.475926
 20
113.644110
 30
0.0
 10
155.717562
 20
113.544021
 30
0.0
 10
155.895721
 20
113.365861
 30
0.0
  0
SPLINE
  5
19a
100
AcDbEntity
  8
Layer_1
 62
1
100
AcDbSpline
 70
8
 71
3
 72
8
 73
4
 74
0
 40
0
 40
0
 40
0
 40
0
 40
1
 40
1
 40
1
 40
1
 10
155.895721
 20
113.365861
 30
0.0
 10
156.073881
 20
113.187702
 30
0.0
 10
156.173970
 20
112.946066
 30
0.0
 10
156.173970
 20
112.694110
 30
0.0
  0
LINE
  5
19b
100
AcDbEntity
  8
Layer_1
 62
1
100
AcDbLine
 10
156.173970
 20
112.694110
 30
0.0
 11
156.173970
 21
112.694110
 31
0.0
  0
LINE
  5
19c
100
AcDbEntity
  8
Layer_1
 62
1
100
AcDbLine
 10
99.473210
 20
148.724280
 30
0.0
 11
99.473210
 21
126.526280
 31
0.0
  0
SPLINE
  5
19d
100
AcDbEntity
  8
Layer_1
 62
1
100
AcDbSpline
 70
8
 71
3
 72
8
 73
4
 74
0
 40
0
 40
0
 40
0
 40
0
 40
1
 40
1
 40
1
 40
1
 10
99.473210
 20
126.526280
 30
0.0
 10
99.473209
 20
125.820727
 30
0.0
 10
99.472919
 20
125.115173
 30
0.0
 10
99.472340
 20
124.409620
 30
0.0
  0
LINE
  5
19e
100
AcDbEntity
  8
Layer_1
 62
1
100
AcDbLine
 10
99.472340
 20
124.409620
 30
0.0
 11
99.468340
 21
119.204560
 31
0.0
  0
SPLINE
  5
19f
100
AcDbEntity
  8
Layer_1
 62
1
100
AcDbSpline
 70
8
 71
3
 72
8
 73
4
 74
0
 40
0
 40
0
 40
0
 40
0
 40
1
 40
1
 40
1
 40
1
 10
99.468340
 20
119.204560
 30
0.0
 10
99.467783
 20
118.525325
 30
0.0
 10
99.205206
 20
117.872488
 30
0.0
 10
98.735300
 20
117.382030
 30
0.0
  0
LINE
  5
1a0
100
AcDbEntity
  8
Layer_1
 62
1
100
AcDbLine
 10
98.735300
 20
117.382030
 30
0.0
 11
97.374460
 21
115.961680
 31
0.0
  0
SPLINE
  5
1a1
100
AcDbEntity
  8
Layer_1
 62
1
100
AcDbSpline
 70
8
 71
3
 72
8
 73
4
 74
0
 40
0
 40
0
 40
0
 40
0
 40
1
 40
1
 40
1
 40
1
 10
97.374460
 20
115.961680
 30
0.0
 10
96.904615
 20
115.471282
 30
0.0
 10
96.642438
 20
114.818299
 30
0.0
 10
96.642700
 20
114.139150
 30
0.0
  0
LINE
  5
1a2
100
AcDbEntity
  8
Layer_1
 62
1
100
AcDbLine
 10
96.642700
 20
114.139150
 30
0.0
 11
96.645700
 21
105.831240
 31
0.0
  0
SPLINE
  5
1a3
100
AcDbEntity
  8
Layer_1
 62
1
100
AcDbSpline
 70
8
 71
3
 72
8
 73
4
 74
0
 40
0
 40
0
 40
0
 40
0
 40
1
 40
1
 40
1
 40
1
 10
96.645700
 20
105.831240
 30
0.0
 10
96.645809
 20
105.550560
 30
0.0
 10
96.757418
 20
105.281420
 30
0.0
 10
96.955973
 20
105.083033
 30
0.0
  0
SPLINE
  5
1a4
100
AcDbEntity
  8
Layer_1
 62
1
100
AcDbSpline
 70
8
 71
3
 72
8
 73
4
 74
0
 40
0
 40
0
 40
0
 40
0
 40
1
 40
1
 40
1
 40
1
 10
96.955973
 20
105.083033
 30
0.0
 10
97.154527
 20
104.884646
 30
0.0
 10
97.423760
 20
104.773263
 30
0.0
 10
97.704440
 20
104.773390
 30
0.0
  0
LINE
  5
1a5
100
AcDbEntity
  8
Layer_1
 62
1
100
AcDbLine
 10
97.704440
 20
104.773390
 30
0.0
 11
102.243350
 21
104.775390
 31
0.0
  0
SPLINE
  5
1a6
100
AcDbEntity
  8
Layer_1
 62
1
100
AcDbSpline
 70
8
 71
3
 72
8
 73
4
 74
0
 40
0
 40
0
 40
0
 40
0
 40
1
 40
1
 40
1
 40
1
 10
102.243350
 20
104.775390
 30
0.0
 10
102.916815
 20
104.775694
 30
0.0
 10
103.558304
 20
105.062690
 30
0.0
 10
104.007360
 20
105.564590
 30
0.0
  0
LINE
  5
1a7
100
AcDbEntity
  8
Layer_1
 62
1
100
AcDbLine
 10
104.007360
 20
105.564590
 30
0.0
 11
115.669080
 21
118.598670
 31
0.0
  0
SPLINE
  5
1a8
100
AcDbEntity
  8
Layer_1
 62
1
100
AcDbSpline
 70
8
 71
3
 72
8
 73
4
 74
0
 40
0
 40
0
 40
0
 40
0
 40
1
 40
1
 40
1
 40
1
 10
115.669080
 20
118.598670
 30
0.0
 10
116.117916
 20
119.100323
 30
0.0
 10
116.759961
 20
119.385937
 30
0.0
 10
117.433090
 20
119.383390
 30
0.0
  0
LINE
  5
1a9
100
AcDbEntity
  8
Layer_1
 62
1
100
AcDbLine
 10
117.433090
 20
119.383390
 30
0.0
 11
118.437830
 21
119.379390
 31
0.0
  0
SPLINE
  5
1aa
100
AcDbEntity
  8
Layer_1
 62
1
100
AcDbSpline
 70
8
 71
3
 72
8
 73
4
 74
0
 40
0
 40
0
 40
0
 40
0
 40
1
 40
1
 40
1
 40
1
 10
118.437830
 20
119.379390
 30
0.0
 10
119.143380
 20
119.376715
 30
0.0
 10
119.848935
 20
119.375382
 30
0.0
 10
120.554490
 20
119.375390
 30
0.0
  0
LINE
  5
1ab
100
AcDbEntity
  8
Layer_1
 62
1
100
AcDbLine
 10
120.554490
 20
119.375390
 30
0.0
 11
140.382920
 21
119.375860
 31
0.0
  0
SPLINE
  5
1ac
100
AcDbEntity
  8
Layer_1
 62
1
100
AcDbSpline
 70
8
 71
3
 72
8
 73
4
 74
0
 40
0
 40
0
 40
0
 40
0
 40
1
 40
1
 40
1
 40
1
 10
140.382920
 20
119.375860
 30
0.0
 10
141.055555
 20
119.375875
 30
0.0
 10
141.695535
 20
119.085871
 30
0.0
 10
142.138980
 20
118.580110
 30
0.0
  0
LINE
  5
1ad
100
AcDbEntity
  8
Layer_1
 62
1
100
AcDbLine
 10
142.138980
 20
118.580110
 30
0.0
 11
149.191350
 21
110.536740
 31
0.0
  0
SPLINE
  5
1ae
100
AcDbEntity
  8
Layer_1
 62
1
100
AcDbSpline
 70
8
 71
3
 72
8
 73
4
 74
0
 40
0
 40
0
 40
0
 40
0
 40
1
 40
1
 40
1
 40
1
 10
149.191350
 20
110.536740
 30
0.0
 10
149.634743
 20
110.031040
 30
0.0
 10
150.274856
 20
109.741362
 30
0.0
 10
150.947410
 20
109.742050
 30
0.0
  0
LINE
  5
1af
100
AcDbEntity
  8
Layer_1
 62
1
100
AcDbLine
 10
150.947410
 20
109.742050
 30
0.0
 11
159.582210
 21
109.751050
 31
0.0
  0
SPLINE
  5
1b0
100
AcDbEntity
  8
Layer_1
 62
1
100
AcDbSpline
 70
8
 71
3
 72
8
 73
4
 74
0
 40
0
 40
0
 40
0
 40
0
 40
1
 40
1
 40
1
 40
1
 10
159.582210
 20
109.751050
 30
0.0
 10
160.256032
 20
109.751739
 30
0.0
 10
160.898068
 20
110.037656
 30
0.0
 10
161.349370
 20
110.538020
 30
0.0
  0
LINE
  5
1b1
100
AcDbEntity
  8
Layer_1
 62
1
100
AcDbLine
 10
161.349370
 20
110.538020
 30
0.0
 11
168.612310
 21
118.590590
 31
0.0
  0
SPLINE
  5
1b2
100
AcDbEntity
  8
Layer_1
 62
1
100
AcDbSpline
 70
8
 71
3
 72
8
 73
4
 74
0
 40
0
 40
0
 40
0
 40
0
 40
1
 40
1
 40
1
 40
1
 10
168.612310
 20
118.590590
 30
0.0
 10
169.063558
 20
119.090897
 30
0.0
 10
169.705725
 20
119.376489
 30
0.0
 10
170.379470
 20
119.376500
 30
0.0
  0
LINE
  5
1b3
100
AcDbEntity
  8
Layer_1
 62
1
100
AcDbLine
 10
170.379470
 20
119.376500
 30
0.0
 11
178.646830
 21
119.376620
 31
0.0
  0
SPLINE
  5
1b4
100
AcDbEntity
  8
Layer_1
 62
1
100
AcDbSpline
 70
8
 71
3
 72
8
 73
4
 74
0
 40
0
 40
0
 40
0
 40
0
 40
1
 40
1
 40
1
 40
1
 10
178.646830
 20
119.376620
 30
0.0
 10
179.352383
 20
119.376631
 30
0.0
 10
180.057937
 20
119.376895
 30
0.0
 10
180.763490
 20
119.377410
 30
0.0
  0
LINE
  5
1b5
100
AcDbEntity
  8
Layer_1
 62
1
100
AcDbLine
 10
180.763490
 20
119.377410
 30
0.0
 11
182.756400
 21
119.378410
 31
0.0
  0
SPLINE
  5
1b6
100
AcDbEntity
  8
Layer_1
 62
1
100
AcDbSpline
 70
8
 71
3
 72
8
 73
4
 74
0
 40
0
 40
0
 40
0
 40
0
 40
1
 40
1
 40
1
 40
1
 10
182.756400
 20
119.378410
 30
0.0
 10
183.429434
 20
119.378901
 30
0.0
 10
184.070413
 20
119.090947
 30
0.0
 10
184.517040
 20
118.587460
 30
0.0
  0
LINE
  5
1b7
100
AcDbEntity
  8
Layer_1
 62
1
100
AcDbLine
 10
184.517040
 20
118.587460
 30
0.0
 11
196.068530
 21
105.565310
 31
0.0
  0
SPLINE
  5
1b8
100
AcDbEntity
  8
Layer_1
 62
1
100
AcDbSpline
 70
8
 71
3
 72
8
 73
4
 74
0
 40
0
 40
0
 40
0
 40
0
 40
1
 40
1
 40
1
 40
1
 10
196.068530
 20
105.565310
 30
0.0
 10
196.515229
 20
105.061744
 30
0.0
 10
197.156030
 20
104.773354
 30
0.0
 10
197.829170
 20
104.772940
 30
0.0
  0
LINE
  5
1b9
100
AcDbEntity
  8
Layer_1
 62
1
100
AcDbLine
 10
197.829170
 20
104.772940
 30
0.0
 11
202.208190
 21
104.769940
 31
0.0
  0
SPLINE
  5
1ba
100
AcDbEntity
  8
Layer_1
 62
1
100
AcDbSpline
 70
8
 71
3
 72
8
 73
4
 74
0
 40
0
 40
0
 40
0
 40
0
 40
1
 40
1
 40
1
 40
1
 10
202.208190
 20
104.769940
 30
0.0
 10
202.488853
 20
104.769769
 30
0.0
 10
202.758085
 20
104.881115
 30
0.0
 10
202.956642
 20
105.079475
 30
0.0
  0
SPLINE
  5
1bb
100
AcDbEntity
  8
Layer_1
 62
1
100
AcDbSpline
 70
8
 71
3
 72
8
 73
4
 74
0
 40
0
 40
0
 40
0
 40
0
 40
1
 40
1
 40
1
 40
1
 10
202.956642
 20
105.079475
 30
0.0
 10
203.155200
 20
105.277835
 30
0.0
 10
203.266812
 20
105.546957
 30
0.0
 10
203.266920
 20
105.827620
 30
0.0
  0
LINE
  5
1bc
100
AcDbEntity
  8
Layer_1
 62
1
100
AcDbLine
 10
203.266920
 20
105.827620
 30
0.0
 11
203.269920
 21
114.167780
 31
0.0
  0
SPLINE
  5
1bd
100
AcDbEntity
  8
Layer_1
 62
1
100
AcDbSpline
 70
8
 71
3
 72
8
 73
4
 74
0
 40
0
 40
0
 40
0
 40
0
 40
1
 40
1
 40
1
 40
1
 10
203.269920
 20
114.167780
 30
0.0
 10
203.270178
 20
114.849307
 30
0.0
 10
203.019158
 20
115.507004
 30
0.0
 10
202.564880
 20
116.015050
 30
0.0
  0
LINE
  5
1be
100
AcDbEntity
  8
Layer_1
 62
1
100
AcDbLine
 10
202.564880
 20
116.015050
 30
0.0
 11
201.150580
 21
117.596760
 31
0.0
  0
SPLINE
  5
1bf
100
AcDbEntity
  8
Layer_1
 62
1
100
AcDbSpline
 70
8
 71
3
 72
8
 73
4
 74
0
 40
0
 40
0
 40
0
 40
0
 40
1
 40
1
 40
1
 40
1
 10
201.150580
 20
117.596760
 30
0.0
 10
200.696248
 20
118.104868
 30
0.0
 10
200.444819
 20
118.762421
 30
0.0
 10
200.444240
 20
119.444030
 30
0.0
  0
LINE
  5
1c0
100
AcDbEntity
  8
Layer_1
 62
1
100
AcDbLine
 10
200.444240
 20
119.444030
 30
0.0
 11
200.440240
 21
124.409310
 31
0.0
  0
SPLINE
  5
1c1
100
AcDbEntity
  8
Layer_1
 62
1
100
AcDbSpline
 70
8
 71
3
 72
8
 73
4
 74
0
 40
0
 40
0
 40
0
 40
0
 40
1
 40
1
 40
1
 40
1
 10
200.440240
 20
124.409310
 30
0.0
 10
200.439641
 20
125.114863
 30
0.0
 10
200.439341
 20
125.820417
 30
0.0
 10
200.439340
 20
126.525970
 30
0.0
  0
LINE
  5
1c2
100
AcDbEntity
  8
Layer_1
 62
1
100
AcDbLine
 10
200.439340
 20
126.525970
 30
0.0
 11
200.439340
 21
145.228700
 31
0.0
  0
LINE
  5
1c3
100
AcDbEntity
  8
Layer_1
 62
1
100
AcDbLine
 10
200.439340
 20
145.228700
 30
0.0
 11
200.439330
 21
156.094720
 31
0.0
  0
SPLINE
  5
1c4
100
AcDbEntity
  8
Layer_1
 62
1
100
AcDbSpline
 70
8
 71
3
 72
8
 73
4
 74
0
 40
0
 40
0
 40
0
 40
0
 40
1
 40
1
 40
1
 40
1
 10
200.439330
 20
156.094720
 30
0.0
 10
200.439331
 20
156.800273
 30
0.0
 10
200.439607
 20
157.505827
 30
0.0
 10
200.440160
 20
158.211380
 30
0.0
  0
LINE
  5
1c5
100
AcDbEntity
  8
Layer_1
 62
1
100
AcDbLine
 10
200.440160
 20
158.211380
 30
0.0
 11
200.444160
 21
163.771970
 31
0.0
  0
SPLINE
  5
1c6
100
AcDbEntity
  8
Layer_1
 62
1
100
AcDbSpline
 70
8
 71
3
 72
8
 73
4
 74
0
 40
0
 40
0
 40
0
 40
0
 40
1
 40
1
 40
1
 40
1
 10
200.444160
 20
163.771970
 30
0.0
 10
200.444695
 20
164.453575
 30
0.0
 10
200.696101
 20
165.111135
 30
0.0
 10
201.150430
 20
165.619240
 30
0.0
  0
LINE
  5
1c7
100
AcDbEntity
  8
Layer_1
 62
1
100
AcDbLine
 10
201.150430
 20
165.619240
 30
0.0
 11
202.564730
 21
167.200950
 31
0.0
  0
SPLINE
  5
1c8
100
AcDbEntity
  8
Layer_1
 62
1
100
AcDbSpline
 70
8
 71
3
 72
8
 73
4
 74
0
 40
0
 40
0
 40
0
 40
0
 40
1
 40
1
 40
1
 40
1
 10
202.564730
 20
167.200950
 30
0.0
 10
203.019008
 20
167.708996
 30
0.0
 10
203.270028
 20
168.366693
 30
0.0
 10
203.269770
 20
169.048220
 30
0.0
  0
LINE
  5
1c9
100
AcDbEntity
  8
Layer_1
 62
1
100
AcDbLine
 10
203.269770
 20
169.048220
 30
0.0
 11
203.266770
 21
177.388380
 31
0.0
  0
SPLINE
  5
1ca
100
AcDbEntity
  8
Layer_1
 62
1
100
AcDbSpline
 70
8
 71
3
 72
8
 73
4
 74
0
 40
0
 40
0
 40
0
 40
0
 40
1
 40
1
 40
1
 40
1
 10
203.266770
 20
177.388380
 30
0.0
 10
203.266662
 20
177.669043
 30
0.0
 10
203.155050
 20
177.938165
 30
0.0
 10
202.956492
 20
178.136525
 30
0.0
  0
SPLINE
  5
1cb
100
AcDbEntity
  8
Layer_1
 62
1
100
AcDbSpline
 70
8
 71
3
 72
8
 73
4
 74
0
 40
0
 40
0
 40
0
 40
0
 40
1
 40
1
 40
1
 40
1
 10
202.956492
 20
178.136525
 30
0.0
 10
202.757935
 20
178.334885
 30
0.0
 10
202.488703
 20
178.446231
 30
0.0
 10
202.208040
 20
178.446060
 30
0.0
  0
LINE
  5
1cc
100
AcDbEntity
  8
Layer_1
 62
1
100
AcDbLine
 10
202.208040
 20
178.446060
 30
0.0
 11
197.829020
 21
178.443060
 31
0.0
  0
SPLINE
  5
1cd
100
AcDbEntity
  8
Layer_1
 62
1
100
AcDbSpline
 70
8
 71
3
 72
8
 73
4
 74
0
 40
0
 40
0
 40
0
 40
0
 40
1
 40
1
 40
1
 40
1
 10
197.829020
 20
178.443060
 30
0.0
 10
197.155880
 20
178.442646
 30
0.0
 10
196.515079
 20
178.154256
 30
0.0
 10
196.068380
 20
177.650690
 30
0.0
  0
LINE
  5
1ce
100
AcDbEntity
  8
Layer_1
 62
1
100
AcDbLine
 10
196.068380
 20
177.650690
 30
0.0
 11
184.516890
 21
164.628540
 31
0.0
  0
SPLINE
  5
1cf
100
AcDbEntity
  8
Layer_1
 62
1
100
AcDbSpline
 70
8
 71
3
 72
8
 73
4
 74
0
 40
0
 40
0
 40
0
 40
0
 40
1
 40
1
 40
1
 40
1
 10
184.516890
 20
164.628540
 30
0.0
 10
184.070263
 20
164.125053
 30
0.0
 10
183.429284
 20
163.837099
 30
0.0
 10
182.756250
 20
163.837590
 30
0.0
  0
LINE
  5
1d0
100
AcDbEntity
  8
Layer_1
 62
1
100
AcDbLine
 10
182.756250
 20
163.837590
 30
0.0
 11
180.763340
 21
163.838590
 31
0.0
  0
SPLINE
  5
1d1
100
AcDbEntity
  8
Layer_1
 62
1
100
AcDbSpline
 70
8
 71
3
 72
8
 73
4
 74
0
 40
0
 40
0
 40
0
 40
0
 40
1
 40
1
 40
1
 40
1
 10
180.763340
 20
163.838590
 30
0.0
 10
180.057787
 20
163.839105
 30
0.0
 10
179.352233
 20
163.839369
 30
0.0
 10
178.646680
 20
163.839380
 30
0.0
  0
LINE
  5
1d2
100
AcDbEntity
  8
Layer_1
 62
1
100
AcDbLine
 10
178.646680
 20
163.839380
 30
0.0
 11
170.379320
 21
163.839500
 31
0.0
  0
SPLINE
  5
1d3
100
AcDbEntity
  8
Layer_1
 62
1
100
AcDbSpline
 70
8
 71
3
 72
8
 73
4
 74
0
 40
0
 40
0
 40
0
 40
0
 40
1
 40
1
 40
1
 40
1
 10
170.379320
 20
163.839500
 30
0.0
 10
169.705575
 20
163.839511
 30
0.0
 10
169.063408
 20
164.125103
 30
0.0
 10
168.612160
 20
164.625410
 30
0.0
  0
LINE
  5
1d4
100
AcDbEntity
  8
Layer_1
 62
1
100
AcDbLine
 10
168.612160
 20
164.625410
 30
0.0
 11
161.349220
 21
172.677980
 31
0.0
  0
SPLINE
  5
1d5
100
AcDbEntity
  8
Layer_1
 62
1
100
AcDbSpline
 70
8
 71
3
 72
8
 73
4
 74
0
 40
0
 40
0
 40
0
 40
0
 40
1
 40
1
 40
1
 40
1
 10
161.349220
 20
172.677980
 30
0.0
 10
160.897918
 20
173.178344
 30
0.0
 10
160.255882
 20
173.464261
 30
0.0
 10
159.582060
 20
173.464950
 30
0.0
  0
LINE
  5
1d6
100
AcDbEntity
  8
Layer_1
 62
1
100
AcDbLine
 10
159.582060
 20
173.464950
 30
0.0
 11
150.947260
 21
173.473950
 31
0.0
  0
SPLINE
  5
1d7
100
AcDbEntity
  8
Layer_1
 62
1
100
AcDbSpline
 70
8
 71
3
 72
8
 73
4
 74
0
 40
0
 40
0
 40
0
 40
0
 40
1
 40
1
 40
1
 40
1
 10
150.947260
 20
173.473950
 30
0.0
 10
150.274706
 20
173.474638
 30
0.0
 10
149.634593
 20
173.184960
 30
0.0
 10
149.191200
 20
172.679260
 30
0.0
  0
LINE
  5
1d8
100
AcDbEntity
  8
Layer_1
 62
1
100
AcDbLine
 10
149.191200
 20
172.679260
 30
0.0
 11
142.138830
 21
164.635890
 31
0.0
  0
SPLINE
  5
1d9
100
AcDbEntity
  8
Layer_1
 62
1
100
AcDbSpline
 70
8
 71
3
 72
8
 73
4
 74
0
 40
0
 40
0
 40
0
 40
0
 40
1
 40
1
 40
1
 40
1
 10
142.138830
 20
164.635890
 30
0.0
 10
141.695385
 20
164.130129
 30
0.0
 10
141.055405
 20
163.840125
 30
0.0
 10
140.382770
 20
163.840140
 30
0.0
  0
LINE
  5
1da
100
AcDbEntity
  8
Layer_1
 62
1
100
AcDbLine
 10
140.382770
 20
163.840140
 30
0.0
 11
120.554340
 21
163.840610
 31
0.0
  0
SPLINE
  5
1db
100
AcDbEntity
  8
Layer_1
 62
1
100
AcDbSpline
 70
8
 71
3
 72
8
 73
4
 74
0
 40
0
 40
0
 40
0
 40
0
 40
1
 40
1
 40
1
 40
1
 10
120.554340
 20
163.840610
 30
0.0
 10
119.848785
 20
163.840618
 30
0.0
 10
119.143230
 20
163.839285
 30
0.0
 10
118.437680
 20
163.836610
 30
0.0
  0
LINE
  5
1dc
100
AcDbEntity
  8
Layer_1
 62
1
100
AcDbLine
 10
118.437680
 20
163.836610
 30
0.0
 11
117.432940
 21
163.832610
 31
0.0
  0
SPLINE
  5
1dd
100
AcDbEntity
  8
Layer_1
 62
1
100
AcDbSpline
 70
8
 71
3
 72
8
 73
4
 74
0
 40
0
 40
0
 40
0
 40
0
 40
1
 40
1
 40
1
 40
1
 10
117.432940
 20
163.832610
 30
0.0
 10
116.759811
 20
163.830063
 30
0.0
 10
116.117766
 20
164.115677
 30
0.0
 10
115.668930
 20
164.617330
 30
0.0
  0
LINE
  5
1de
100
AcDbEntity
  8
Layer_1
 62
1
100
AcDbLine
 10
115.668930
 20
164.617330
 30
0.0
 11
104.007210
 21
177.651410
 31
0.0
  0
SPLINE
  5
1df
100
AcDbEntity
  8
Layer_1
 62
1
100
AcDbSpline
 70
8
 71
3
 72
8
 73
4
 74
0
 40
0
 40
0
 40
0
 40
0
 40
1
 40
1
 40
1
 40
1
 10
104.007210
 20
177.651410
 30
0.0
 10
103.558154
 20
178.153310
 30
0.0
 10
102.916665
 20
178.440306
 30
0.0
 10
102.243200
 20
178.440610
 30
0.0
  0
LINE
  5
1e0
100
AcDbEntity
  8
Layer_1
 62
1
100
AcDbLine
 10
102.243200
 20
178.440610
 30
0.0
 11
97.704290
 21
178.442610
 31
0.0
  0
SPLINE
  5
1e1
100
AcDbEntity
  8
Layer_1
 62
1
100
AcDbSpline
 70
8
 71
3
 72
8
 73
4
 74
0
 40
0
 40
0
 40
0
 40
0
 40
1
 40
1
 40
1
 40
1
 10
97.704290
 20
178.442610
 30
0.0
 10
97.423610
 20
178.442737
 30
0.0
 10
97.154377
 20
178.331354
 30
0.0
 10
96.955823
 20
178.132967
 30
0.0
  0
SPLINE
  5
1e2
100
AcDbEntity
  8
Layer_1
 62
1
100
AcDbSpline
 70
8
 71
3
 72
8
 73
4
 74
0
 40
0
 40
0
 40
0
 40
0
 40
1
 40
1
 40
1
 40
1
 10
96.955823
 20
178.132967
 30
0.0
 10
96.757268
 20
177.934580
 30
0.0
 10
96.645659
 20
177.665440
 30
0.0
 10
96.645550
 20
177.384760
 30
0.0
  0
LINE
  5
1e3
100
AcDbEntity
  8
Layer_1
 62
1
100
AcDbLine
 10
96.645550
 20
177.384760
 30
0.0
 11
96.642550
 21
169.076850
 31
0.0
  0
SPLINE
  5
1e4
100
AcDbEntity
  8
Layer_1
 62
1
100
AcDbSpline
 70
8
 71
3
 72
8
 73
4
 74
0
 40
0
 40
0
 40
0
 40
0
 40
1
 40
1
 40
1
 40
1
 10
96.642550
 20
169.076850
 30
0.0
 10
96.642288
 20
168.397701
 30
0.0
 10
96.904465
 20
167.744718
 30
0.0
 10
97.374310
 20
167.254320
 30
0.0
  0
LINE
  5
1e5
100
AcDbEntity
  8
Layer_1
 62
1
100
AcDbLine
 10
97.374310
 20
167.254320
 30
0.0
 11
98.735150
 21
165.833970
 31
0.0
  0
SPLINE
  5
1e6
100
AcDbEntity
  8
Layer_1
 62
1
100
AcDbSpline
 70
8
 71
3
 72
8
 73
4
 74
0
 40
0
 40
0
 40
0
 40
0
 40
1
 40
1
 40
1
 40
1
 10
98.735150
 20
165.833970
 30
0.0
 10
99.205051
 20
165.343514
 30
0.0
 10
99.467607
 20
164.690670
 30
0.0
 10
99.468120
 20
164.011440
 30
0.0
  0
LINE
  5
1e7
100
AcDbEntity
  8
Layer_1
 62
1
100
AcDbLine
 10
99.468120
 20
164.011440
 30
0.0
 11
99.472120
 21
158.211070
 31
0.0
  0
SPLINE
  5
1e8
100
AcDbEntity
  8
Layer_1
 62
1
100
AcDbSpline
 70
8
 71
3
 72
8
 73
4
 74
0
 40
0
 40
0
 40
0
 40
0
 40
1
 40
1
 40
1
 40
1
 10
99.472120
 20
158.211070
 30
0.0
 10
99.472654
 20
157.505517
 30
0.0
 10
99.472920
 20
156.799963
 30
0.0
 10
99.472920
 20
156.094410
 30
0.0
  0
LINE
  5
1e9
100
AcDbEntity
  8
Layer_1
 62
1
100
AcDbLine
 10
99.472920
 20
156.094410
 30
0.0
 11
99.473210
 21
148.724280
 31
0.0
  0
LINE
  5
1ea
100
AcDbEntity
  8
Layer_1
 62
1
100
AcDbLine
 10
189.995186
 20
143.389942
 30
0.0
 11
186.893343
 21
139.566027
 31
0.0
  0
SPLINE
  5
1eb
100
AcDbEntity
  8
Layer_1
 62
1
100
AcDbSpline
 70
8
 71
3
 72
8
 73
4
 74
0
 40
0
 40
0
 40
0
 40
0
 40
1
 40
1
 40
1
 40
1
 10
186.893343
 20
139.566027
 30
0.0
 10
186.662346
 20
139.281257
 30
0.0
 10
186.315397
 20
139.115641
 30
0.0
 10
185.948717
 20
139.115111
 30
0.0
  0
LINE
  5
1ec
100
AcDbEntity
  8
Layer_1
 62
1
100
AcDbLine
 10
185.948717
 20
139.115111
 30
0.0
 11
182.760637
 21
139.110511
 31
0.0
  0
SPLINE
  5
1ed
100
AcDbEntity
  8
Layer_1
 62
1
100
AcDbSpline
 70
8
 71
3
 72
8
 73
4
 74
0
 40
0
 40
0
 40
0
 40
0
 40
1
 40
1
 40
1
 40
1
 10
182.760637
 20
139.110511
 30
0.0
 10
182.653452
 20
139.110356
 30
0.0
 10
182.555653
 20
139.171618
 30
0.0
 10
182.509018
 20
139.268127
 30
0.0
  0
SPLINE
  5
1ee
100
AcDbEntity
  8
Layer_1
 62
1
100
AcDbSpline
 70
8
 71
3
 72
8
 73
4
 74
0
 40
0
 40
0
 40
0
 40
0
 40
1
 40
1
 40
1
 40
1
 10
182.509018
 20
139.268127
 30
0.0
 10
182.462383
 20
139.364636
 30
0.0
 10
182.475158
 20
139.479329
 30
0.0
 10
182.541885
 20
139.563211
 30
0.0
  0
LINE
  5
1ef
100
AcDbEntity
  8
Layer_1
 62
1
100
AcDbLine
 10
182.541885
 20
139.563211
 30
0.0
 11
185.583241
 21
143.386487
 31
0.0
  0
SPLINE
  5
1f0
100
AcDbEntity
  8
Layer_1
 62
1
100
AcDbSpline
 70
8
 71
3
 72
8
 73
4
 74
0
 40
0
 40
0
 40
0
 40
0
 40
1
 40
1
 40
1
 40
1
 10
185.583241
 20
143.386487
 30
0.0
 10
185.811198
 20
143.673050
 30
0.0
 10
186.157386
 20
143.840025
 30
0.0
 10
186.523559
 20
143.840026
 30
0.0
  0
LINE
  5
1f1
100
AcDbEntity
  8
Layer_1
 62
1
100
AcDbLine
 10
186.523559
 20
143.840026
 30
0.0
 11
189.780742
 21
143.840032
 31
0.0
  0
SPLINE
  5
1f2
100
AcDbEntity
  8
Layer_1
 62
1
100
AcDbSpline
 70
8
 71
3
 72
8
 73
4
 74
0
 40
0
 40
0
 40
0
 40
0
 40
1
 40
1
 40
1
 40
1
 10
189.780742
 20
143.840032
 30
0.0
 10
189.887224
 20
143.840032
 30
0.0
 10
189.984217
 20
143.778805
 30
0.0
 10
190.030018
 20
143.682677
 30
0.0
  0
SPLINE
  5
1f3
100
AcDbEntity
  8
Layer_1
 62
1
100
AcDbSpline
 70
8
 71
3
 72
8
 73
4
 74
0
 40
0
 40
0
 40
0
 40
0
 40
1
 40
1
 40
1
 40
1
 10
190.030018
 20
143.682677
 30
0.0
 10
190.075819
 20
143.586548
 30
0.0
 10
190.062266
 20
143.472650
 30
0.0
 10
189.995186
 20
143.389954
 30
0.0
  0
LINE
  5
1f4
100
AcDbEntity
  8
Layer_1
 62
1
100
AcDbLine
 10
189.995186
 20
143.389954
 30
0.0
 11
189.995186
 21
143.389942
 31
0.0
  0
LINE
  5
1f5
100
AcDbEntity
  8
Layer_1
 62
1
100
AcDbLine
 10
175.393734
 20
139.109547
 30
0.0
 11
178.864963
 21
139.114084
 31
0.0
  0
SPLINE
  5
1f6
100
AcDbEntity
  8
Layer_1
 62
1
100
AcDbSpline
 70
8
 71
3
 72
8
 73
4
 74
0
 40
0
 40
0
 40
0
 40
0
 40
1
 40
1
 40
1
 40
1
 10
178.864963
 20
139.114084
 30
0.0
 10
179.284019
 20
139.114634
 30
0.0
 10
179.680543
 20
139.303882
 30
0.0
 10
179.944535
 20
139.629329
 30
0.0
  0
LINE
  5
1f7
100
AcDbEntity
  8
Layer_1
 62
1
100
AcDbLine
 10
179.944535
 20
139.629329
 30
0.0
 11
182.942065
 21
143.324651
 31
0.0
  0
SPLINE
  5
1f8
100
AcDbEntity
  8
Layer_1
 62
1
100
AcDbSpline
 70
8
 71
3
 72
8
 73
4
 74
0
 40
0
 40
0
 40
0
 40
0
 40
1
 40
1
 40
1
 40
1
 10
182.942065
 20
143.324651
 30
0.0
 10
183.018729
 20
143.419161
 30
0.0
 10
183.034218
 20
143.549330
 30
0.0
 10
182.981873
 20
143.659191
 30
0.0
  0
SPLINE
  5
1f9
100
AcDbEntity
  8
Layer_1
 62
1
100
AcDbSpline
 70
8
 71
3
 72
8
 73
4
 74
0
 40
0
 40
0
 40
0
 40
0
 40
1
 40
1
 40
1
 40
1
 10
182.981873
 20
143.659191
 30
0.0
 10
182.929529
 20
143.769052
 30
0.0
 10
182.818679
 20
143.839025
 30
0.0
 10
182.696985
 20
143.839025
 30
0.0
  0
LINE
  5
1fa
100
AcDbEntity
  8
Layer_1
 62
1
100
AcDbLine
 10
182.696985
 20
143.839025
 30
0.0
 11
178.377612
 21
143.839018
 31
0.0
  0
SPLINE
  5
1fb
100
AcDbEntity
  8
Layer_1
 62
1
100
AcDbSpline
 70
8
 71
3
 72
8
 73
4
 74
0
 40
0
 40
0
 40
0
 40
0
 40
1
 40
1
 40
1
 40
1
 10
178.377612
 20
143.839018
 30
0.0
 10
177.956874
 20
143.839017
 30
0.0
 10
177.556780
 20
144.021339
 30
0.0
 10
177.280736
 20
144.338861
 30
0.0
  0
LINE
  5
1fc
100
AcDbEntity
  8
Layer_1
 62
1
100
AcDbLine
 10
177.280736
 20
144.338861
 30
0.0
 11
174.949345
 21
147.020569
 31
0.0
  0
SPLINE
  5
1fd
100
AcDbEntity
  8
Layer_1
 62
1
100
AcDbSpline
 70
8
 71
3
 72
8
 73
4
 74
0
 40
0
 40
0
 40
0
 40
0
 40
1
 40
1
 40
1
 40
1
 10
174.949345
 20
147.020569
 30
0.0
 10
174.838749
 20
147.147783
 30
0.0
 10
174.679191
 20
147.221850
 30
0.0
 10
174.510640
 20
147.224215
 30
0.0
  0
SPLINE
  5
1fe
100
AcDbEntity
  8
Layer_1
 62
1
100
AcDbSpline
 70
8
 71
3
 72
8
 73
4
 74
0
 40
0
 40
0
 40
0
 40
0
 40
1
 40
1
 40
1
 40
1
 10
174.510640
 20
147.224215
 30
0.0
 10
174.342090
 20
147.226580
 30
0.0
 10
174.180516
 20
147.157020
 30
0.0
 10
174.066394
 20
147.032960
 30
0.0
  0
LINE
  5
1ff
100
AcDbEntity
  8
Layer_1
 62
1
100
AcDbLine
 10
174.066394
 20
147.032960
 30
0.0
 11
171.339265
 21
144.068333
 31
0.0
  0
SPLINE
  5
200
100
AcDbEntity
  8
Layer_1
 62
1
100
AcDbSpline
 70
8
 71
3
 72
8
 73
4
 74
0
 40
0
 40
0
 40
0
 40
0
 40
1
 40
1
 40
1
 40
1
 10
171.339265
 20
144.068333
 30
0.0
 10
171.083539
 20
143.790335
 30
0.0
 10
171.076279
 20
143.364967
 30
0.0
 10
171.322368
 20
143.078404
 30
0.0
  0
LINE
  5
201
100
AcDbEntity
  8
Layer_1
 62
1
100
AcDbLine
 10
171.322368
 20
143.078404
 30
0.0
 11
174.299909
 21
139.611139
 31
0.0
  0
SPLINE
  5
202
100
AcDbEntity
  8
Layer_1
 62
1
100
AcDbSpline
 70
8
 71
3
 72
8
 73
4
 74
0
 40
0
 40
0
 40
0
 40
0
 40
1
 40
1
 40
1
 40
1
 10
174.299909
 20
139.611139
 30
0.0
 10
174.573776
 20
139.292230
 30
0.0
 10
174.973373
 20
139.108984
 30
0.0
 10
175.393737
 20
139.109535
 30
0.0
  0
LINE
  5
203
100
AcDbEntity
  8
Layer_1
 62
1
100
AcDbLine
 10
175.393737
 20
139.109535
 30
0.0
 11
175.393734
 21
139.109547
 31
0.0
  0
LINE
  5
204
100
AcDbEntity
  8
Layer_1
 62
1
100
AcDbLine
 10
163.442310
 20
129.616044
 30
0.0
 11
169.397259
 21
129.621176
 31
0.0
  0
SPLINE
  5
205
100
AcDbEntity
  8
Layer_1
 62
1
100
AcDbSpline
 70
8
 71
3
 72
8
 73
4
 74
0
 40
0
 40
0
 40
0
 40
0
 40
1
 40
1
 40
1
 40
1
 10
169.397259
 20
129.621176
 30
0.0
 10
169.816292
 20
129.621537
 30
0.0
 10
170.212855
 20
129.810694
 30
0.0
 10
170.476834
 20
130.136123
 30
0.0
  0
LINE
  5
206
100
AcDbEntity
  8
Layer_1
 62
1
100
AcDbLine
 10
170.476834
 20
130.136123
 30
0.0
 11
173.474364
 21
133.831445
 31
0.0
  0
SPLINE
  5
207
100
AcDbEntity
  8
Layer_1
 62
1
100
AcDbSpline
 70
8
 71
3
 72
8
 73
4
 74
0
 40
0
 40
0
 40
0
 40
0
 40
1
 40
1
 40
1
 40
1
 10
173.474364
 20
133.831445
 30
0.0
 10
173.551028
 20
133.925955
 30
0.0
 10
173.566517
 20
134.056124
 30
0.0
 10
173.514172
 20
134.165985
 30
0.0
  0
SPLINE
  5
208
100
AcDbEntity
  8
Layer_1
 62
1
100
AcDbSpline
 70
8
 71
3
 72
8
 73
4
 74
0
 40
0
 40
0
 40
0
 40
0
 40
1
 40
1
 40
1
 40
1
 10
173.514172
 20
134.165985
 30
0.0
 10
173.461827
 20
134.275847
 30
0.0
 10
173.350977
 20
134.345820
 30
0.0
 10
173.229283
 20
134.345820
 30
0.0
  0
LINE
  5
209
100
AcDbEntity
  8
Layer_1
 62
1
100
AcDbLine
 10
173.229283
 20
134.345820
 30
0.0
 11
166.426185
 21
134.345812
 31
0.0
  0
SPLINE
  5
20a
100
AcDbEntity
  8
Layer_1
 62
1
100
AcDbSpline
 70
8
 71
3
 72
8
 73
4
 74
0
 40
0
 40
0
 40
0
 40
0
 40
1
 40
1
 40
1
 40
1
 10
166.426185
 20
134.345812
 30
0.0
 10
166.013908
 20
134.345812
 30
0.0
 10
165.630451
 20
134.134322
 30
0.0
 10
165.410494
 20
133.785623
 30
0.0
  0
LINE
  5
20b
100
AcDbEntity
  8
Layer_1
 62
1
100
AcDbLine
 10
165.410494
 20
133.785623
 30
0.0
 11
163.133346
 21
130.175646
 31
0.0
  0
SPLINE
  5
20c
100
AcDbEntity
  8
Layer_1
 62
1
100
AcDbSpline
 70
8
 71
3
 72
8
 73
4
 74
0
 40
0
 40
0
 40
0
 40
0
 40
1
 40
1
 40
1
 40
1
 10
163.133346
 20
130.175646
 30
0.0
 10
163.062395
 20
130.063168
 30
0.0
 10
163.058250
 20
129.920997
 30
0.0
 10
163.122527
 20
129.804576
 30
0.0
  0
SPLINE
  5
20d
100
AcDbEntity
  8
Layer_1
 62
1
100
AcDbSpline
 70
8
 71
3
 72
8
 73
4
 74
0
 40
0
 40
0
 40
0
 40
0
 40
1
 40
1
 40
1
 40
1
 10
163.122527
 20
129.804576
 30
0.0
 10
163.186803
 20
129.688154
 30
0.0
 10
163.309324
 20
129.615916
 30
0.0
 10
163.442310
 20
129.616031
 30
0.0
  0
LINE
  5
20e
100
AcDbEntity
  8
Layer_1
 62
1
100
AcDbLine
 10
163.442310
 20
129.616031
 30
0.0
 11
163.442310
 21
129.616044
 31
0.0
  0
LINE
  5
20f
100
AcDbEntity
  8
Layer_1
 62
1
100
AcDbLine
 10
126.606737
 20
129.616044
 30
0.0
 11
132.561685
 21
129.621176
 31
0.0
  0
SPLINE
  5
210
100
AcDbEntity
  8
Layer_1
 62
1
100
AcDbSpline
 70
8
 71
3
 72
8
 73
4
 74
0
 40
0
 40
0
 40
0
 40
0
 40
1
 40
1
 40
1
 40
1
 10
132.561685
 20
129.621176
 30
0.0
 10
132.980718
 20
129.621537
 30
0.0
 10
133.377282
 20
129.810694
 30
0.0
 10
133.641260
 20
130.136123
 30
0.0
  0
LINE
  5
211
100
AcDbEntity
  8
Layer_1
 62
1
100
AcDbLine
 10
133.641260
 20
130.136123
 30
0.0
 11
136.638791
 21
133.831445
 31
0.0
  0
SPLINE
  5
212
100
AcDbEntity
  8
Layer_1
 62
1
100
AcDbSpline
 70
8
 71
3
 72
8
 73
4
 74
0
 40
0
 40
0
 40
0
 40
0
 40
1
 40
1
 40
1
 40
1
 10
136.638791
 20
133.831445
 30
0.0
 10
136.715454
 20
133.925955
 30
0.0
 10
136.730944
 20
134.056124
 30
0.0
 10
136.678599
 20
134.165985
 30
0.0
  0
SPLINE
  5
213
100
AcDbEntity
  8
Layer_1
 62
1
100
AcDbSpline
 70
8
 71
3
 72
8
 73
4
 74
0
 40
0
 40
0
 40
0
 40
0
 40
1
 40
1
 40
1
 40
1
 10
136.678599
 20
134.165985
 30
0.0
 10
136.626254
 20
134.275847
 30
0.0
 10
136.515404
 20
134.345820
 30
0.0
 10
136.393710
 20
134.345820
 30
0.0
  0
LINE
  5
214
100
AcDbEntity
  8
Layer_1
 62
1
100
AcDbLine
 10
136.393710
 20
134.345820
 30
0.0
 11
129.590612
 21
134.345812
 31
0.0
  0
SPLINE
  5
215
100
AcDbEntity
  8
Layer_1
 62
1
100
AcDbSpline
 70
8
 71
3
 72
8
 73
4
 74
0
 40
0
 40
0
 40
0
 40
0
 40
1
 40
1
 40
1
 40
1
 10
129.590612
 20
134.345812
 30
0.0
 10
129.178334
 20
134.345812
 30
0.0
 10
128.794878
 20
134.134322
 30
0.0
 10
128.574921
 20
133.785623
 30
0.0
  0
LINE
  5
216
100
AcDbEntity
  8
Layer_1
 62
1
100
AcDbLine
 10
128.574921
 20
133.785623
 30
0.0
 11
126.297772
 21
130.175646
 31
0.0
  0
SPLINE
  5
217
100
AcDbEntity
  8
Layer_1
 62
1
100
AcDbSpline
 70
8
 71
3
 72
8
 73
4
 74
0
 40
0
 40
0
 40
0
 40
0
 40
1
 40
1
 40
1
 40
1
 10
126.297772
 20
130.175646
 30
0.0
 10
126.226822
 20
130.063168
 30
0.0
 10
126.222677
 20
129.920997
 30
0.0
 10
126.286954
 20
129.804576
 30
0.0
  0
SPLINE
  5
218
100
AcDbEntity
  8
Layer_1
 62
1
100
AcDbSpline
 70
8
 71
3
 72
8
 73
4
 74
0
 40
0
 40
0
 40
0
 40
0
 40
1
 40
1
 40
1
 40
1
 10
126.286954
 20
129.804576
 30
0.0
 10
126.351230
 20
129.688154
 30
0.0
 10
126.473750
 20
129.615916
 30
0.0
 10
126.606737
 20
129.616031
 30
0.0
  0
LINE
  5
219
100
AcDbEntity
  8
Layer_1
 62
1
100
AcDbLine
 10
126.606737
 20
129.616031
 30
0.0
 11
126.606737
 21
129.616044
 31
0.0
  0
LINE
  5
21a
100
AcDbEntity
  8
Layer_1
 62
1
100
AcDbLine
 10
171.575277
 20
139.621732
 30
0.0
 11
168.577746
 21
143.317053
 31
0.0
  0
SPLINE
  5
21b
100
AcDbEntity
  8
Layer_1
 62
1
100
AcDbSpline
 70
8
 71
3
 72
8
 73
4
 74
0
 40
0
 40
0
 40
0
 40
0
 40
1
 40
1
 40
1
 40
1
 10
168.577746
 20
143.317053
 30
0.0
 10
168.313749
 20
143.642505
 30
0.0
 10
167.917237
 20
143.831779
 30
0.0
 10
167.498175
 20
143.832385
 30
0.0
  0
LINE
  5
21c
100
AcDbEntity
  8
Layer_1
 62
1
100
AcDbLine
 10
167.498175
 20
143.832385
 30
0.0
 11
164.475674
 21
143.836766
 31
0.0
  0
SPLINE
  5
21d
100
AcDbEntity
  8
Layer_1
 62
1
100
AcDbSpline
 70
8
 71
3
 72
8
 73
4
 74
0
 40
0
 40
0
 40
0
 40
0
 40
1
 40
1
 40
1
 40
1
 10
164.475674
 20
143.836766
 30
0.0
 10
164.353176
 20
143.836942
 30
0.0
 10
164.241407
 20
143.766928
 30
0.0
 10
164.188111
 20
143.656632
 30
0.0
  0
SPLINE
  5
21e
100
AcDbEntity
  8
Layer_1
 62
1
100
AcDbSpline
 70
8
 71
3
 72
8
 73
4
 74
0
 40
0
 40
0
 40
0
 40
0
 40
1
 40
1
 40
1
 40
1
 10
164.188111
 20
143.656632
 30
0.0
 10
164.134815
 20
143.546336
 30
0.0
 10
164.149415
 20
143.415259
 30
0.0
 10
164.225674
 20
143.319394
 30
0.0
  0
LINE
  5
21f
100
AcDbEntity
  8
Layer_1
 62
1
100
AcDbLine
 10
164.225674
 20
143.319394
 30
0.0
 11
167.163946
 21
139.625701
 31
0.0
  0
SPLINE
  5
220
100
AcDbEntity
  8
Layer_1
 62
1
100
AcDbSpline
 70
8
 71
3
 72
8
 73
4
 74
0
 40
0
 40
0
 40
0
 40
0
 40
1
 40
1
 40
1
 40
1
 10
167.163946
 20
139.625701
 30
0.0
 10
167.424468
 20
139.298199
 30
0.0
 10
167.820114
 20
139.107370
 30
0.0
 10
168.238599
 20
139.107370
 30
0.0
  0
LINE
  5
221
100
AcDbEntity
  8
Layer_1
 62
1
100
AcDbLine
 10
168.238599
 20
139.107370
 30
0.0
 11
171.330196
 21
139.107364
 31
0.0
  0
SPLINE
  5
222
100
AcDbEntity
  8
Layer_1
 62
1
100
AcDbSpline
 70
8
 71
3
 72
8
 73
4
 74
0
 40
0
 40
0
 40
0
 40
0
 40
1
 40
1
 40
1
 40
1
 10
171.330196
 20
139.107364
 30
0.0
 10
171.451890
 20
139.107364
 30
0.0
 10
171.562740
 20
139.177337
 30
0.0
 10
171.615085
 20
139.287198
 30
0.0
  0
SPLINE
  5
223
100
AcDbEntity
  8
Layer_1
 62
1
100
AcDbSpline
 70
8
 71
3
 72
8
 73
4
 74
0
 40
0
 40
0
 40
0
 40
0
 40
1
 40
1
 40
1
 40
1
 10
171.615085
 20
139.287198
 30
0.0
 10
171.667429
 20
139.397059
 30
0.0
 10
171.651940
 20
139.527229
 30
0.0
 10
171.575277
 20
139.621739
 30
0.0
  0
LINE
  5
224
100
AcDbEntity
  8
Layer_1
 62
1
100
AcDbLine
 10
171.575277
 20
139.621739
 30
0.0
 11
171.575277
 21
139.621732
 31
0.0
  0
LINE
  5
225
100
AcDbEntity
  8
Layer_1
 62
1
100
AcDbLine
 10
157.025991
 20
143.837820
 30
0.0
 11
160.497221
 21
143.833283
 31
0.0
  0
SPLINE
  5
226
100
AcDbEntity
  8
Layer_1
 62
1
100
AcDbSpline
 70
8
 71
3
 72
8
 73
4
 74
0
 40
0
 40
0
 40
0
 40
0
 40
1
 40
1
 40
1
 40
1
 10
160.497221
 20
143.833283
 30
0.0
 10
160.916276
 20
143.832733
 30
0.0
 10
161.312800
 20
143.643485
 30
0.0
 10
161.576792
 20
143.318039
 30
0.0
  0
LINE
  5
227
100
AcDbEntity
  8
Layer_1
 62
1
100
AcDbLine
 10
161.576792
 20
143.318039
 30
0.0
 11
164.574323
 21
139.622717
 31
0.0
  0
SPLINE
  5
228
100
AcDbEntity
  8
Layer_1
 62
1
100
AcDbSpline
 70
8
 71
3
 72
8
 73
4
 74
0
 40
0
 40
0
 40
0
 40
0
 40
1
 40
1
 40
1
 40
1
 10
164.574323
 20
139.622717
 30
0.0
 10
164.650986
 20
139.528207
 30
0.0
 10
164.666475
 20
139.398037
 30
0.0
 10
164.614131
 20
139.288176
 30
0.0
  0
SPLINE
  5
229
100
AcDbEntity
  8
Layer_1
 62
1
100
AcDbSpline
 70
8
 71
3
 72
8
 73
4
 74
0
 40
0
 40
0
 40
0
 40
0
 40
1
 40
1
 40
1
 40
1
 10
164.614131
 20
139.288176
 30
0.0
 10
164.561786
 20
139.178315
 30
0.0
 10
164.450936
 20
139.108342
 30
0.0
 10
164.329242
 20
139.108342
 30
0.0
  0
LINE
  5
22a
100
AcDbEntity
  8
Layer_1
 62
1
100
AcDbLine
 10
164.329242
 20
139.108342
 30
0.0
 11
160.009869
 21
139.108349
 31
0.0
  0
SPLINE
  5
22b
100
AcDbEntity
  8
Layer_1
 62
1
100
AcDbSpline
 70
8
 71
3
 72
8
 73
4
 74
0
 40
0
 40
0
 40
0
 40
0
 40
1
 40
1
 40
1
 40
1
 10
160.009869
 20
139.108349
 30
0.0
 10
159.589131
 20
139.108350
 30
0.0
 10
159.189037
 20
138.926028
 30
0.0
 10
158.912993
 20
138.608506
 30
0.0
  0
LINE
  5
22c
100
AcDbEntity
  8
Layer_1
 62
1
100
AcDbLine
 10
158.912993
 20
138.608506
 30
0.0
 11
156.581602
 21
135.926799
 31
0.0
  0
SPLINE
  5
22d
100
AcDbEntity
  8
Layer_1
 62
1
100
AcDbSpline
 70
8
 71
3
 72
8
 73
4
 74
0
 40
0
 40
0
 40
0
 40
0
 40
1
 40
1
 40
1
 40
1
 10
156.581602
 20
135.926799
 30
0.0
 10
156.471006
 20
135.799585
 30
0.0
 10
156.311448
 20
135.725518
 30
0.0
 10
156.142897
 20
135.723152
 30
0.0
  0
SPLINE
  5
22e
100
AcDbEntity
  8
Layer_1
 62
1
100
AcDbSpline
 70
8
 71
3
 72
8
 73
4
 74
0
 40
0
 40
0
 40
0
 40
0
 40
1
 40
1
 40
1
 40
1
 10
156.142897
 20
135.723152
 30
0.0
 10
155.974347
 20
135.720787
 30
0.0
 10
155.812773
 20
135.790347
 30
0.0
 10
155.698651
 20
135.914408
 30
0.0
  0
LINE
  5
22f
100
AcDbEntity
  8
Layer_1
 62
1
100
AcDbLine
 10
155.698651
 20
135.914408
 30
0.0
 11
152.971522
 21
138.879035
 31
0.0
  0
SPLINE
  5
230
100
AcDbEntity
  8
Layer_1
 62
1
100
AcDbSpline
 70
8
 71
3
 72
8
 73
4
 74
0
 40
0
 40
0
 40
0
 40
0
 40
1
 40
1
 40
1
 40
1
 10
152.971522
 20
138.879035
 30
0.0
 10
152.715796
 20
139.157032
 30
0.0
 10
152.708536
 20
139.582400
 30
0.0
 10
152.954625
 20
139.868963
 30
0.0
  0
LINE
  5
231
100
AcDbEntity
  8
Layer_1
 62
1
100
AcDbLine
 10
152.954625
 20
139.868963
 30
0.0
 11
155.932166
 21
143.336228
 31
0.0
  0
SPLINE
  5
232
100
AcDbEntity
  8
Layer_1
 62
1
100
AcDbSpline
 70
8
 71
3
 72
8
 73
4
 74
0
 40
0
 40
0
 40
0
 40
0
 40
1
 40
1
 40
1
 40
1
 10
155.932166
 20
143.336228
 30
0.0
 10
156.206033
 20
143.655137
 30
0.0
 10
156.605630
 20
143.838383
 30
0.0
 10
157.025994
 20
143.837832
 30
0.0
  0
LINE
  5
233
100
AcDbEntity
  8
Layer_1
 62
1
100
AcDbLine
 10
157.025994
 20
143.837832
 30
0.0
 11
157.025991
 21
143.837820
 31
0.0
  0
LINE
  5
234
100
AcDbEntity
  8
Layer_1
 62
1
100
AcDbLine
 10
153.027374
 20
143.389942
 30
0.0
 11
149.925532
 21
139.566027
 31
0.0
  0
SPLINE
  5
235
100
AcDbEntity
  8
Layer_1
 62
1
100
AcDbSpline
 70
8
 71
3
 72
8
 73
4
 74
0
 40
0
 40
0
 40
0
 40
0
 40
1
 40
1
 40
1
 40
1
 10
149.925532
 20
139.566027
 30
0.0
 10
149.694534
 20
139.281257
 30
0.0
 10
149.347585
 20
139.115641
 30
0.0
 10
148.980905
 20
139.115111
 30
0.0
  0
LINE
  5
236
100
AcDbEntity
  8
Layer_1
 62
1
100
AcDbLine
 10
148.980905
 20
139.115111
 30
0.0
 11
145.792825
 21
139.110511
 31
0.0
  0
SPLINE
  5
237
100
AcDbEntity
  8
Layer_1
 62
1
100
AcDbSpline
 70
8
 71
3
 72
8
 73
4
 74
0
 40
0
 40
0
 40
0
 40
0
 40
1
 40
1
 40
1
 40
1
 10
145.792825
 20
139.110511
 30
0.0
 10
145.685640
 20
139.110356
 30
0.0
 10
145.587841
 20
139.171618
 30
0.0
 10
145.541206
 20
139.268127
 30
0.0
  0
SPLINE
  5
238
100
AcDbEntity
  8
Layer_1
 62
1
100
AcDbSpline
 70
8
 71
3
 72
8
 73
4
 74
0
 40
0
 40
0
 40
0
 40
0
 40
1
 40
1
 40
1
 40
1
 10
145.541206
 20
139.268127
 30
0.0
 10
145.494571
 20
139.364636
 30
0.0
 10
145.507346
 20
139.479329
 30
0.0
 10
145.574073
 20
139.563211
 30
0.0
  0
LINE
  5
239
100
AcDbEntity
  8
Layer_1
 62
1
100
AcDbLine
 10
145.574073
 20
139.563211
 30
0.0
 11
148.615429
 21
143.386487
 31
0.0
  0
SPLINE
  5
23a
100
AcDbEntity
  8
Layer_1
 62
1
100
AcDbSpline
 70
8
 71
3
 72
8
 73
4
 74
0
 40
0
 40
0
 40
0
 40
0
 40
1
 40
1
 40
1
 40
1
 10
148.615429
 20
143.386487
 30
0.0
 10
148.843386
 20
143.673050
 30
0.0
 10
149.189574
 20
143.840025
 30
0.0
 10
149.555747
 20
143.840026
 30
0.0
  0
LINE
  5
23b
100
AcDbEntity
  8
Layer_1
 62
1
100
AcDbLine
 10
149.555747
 20
143.840026
 30
0.0
 11
152.812930
 21
143.840032
 31
0.0
  0
SPLINE
  5
23c
100
AcDbEntity
  8
Layer_1
 62
1
100
AcDbSpline
 70
8
 71
3
 72
8
 73
4
 74
0
 40
0
 40
0
 40
0
 40
0
 40
1
 40
1
 40
1
 40
1
 10
152.812930
 20
143.840032
 30
0.0
 10
152.919412
 20
143.840032
 30
0.0
 10
153.016405
 20
143.778805
 30
0.0
 10
153.062206
 20
143.682677
 30
0.0
  0
SPLINE
  5
23d
100
AcDbEntity
  8
Layer_1
 62
1
100
AcDbSpline
 70
8
 71
3
 72
8
 73
4
 74
0
 40
0
 40
0
 40
0
 40
0
 40
1
 40
1
 40
1
 40
1
 10
153.062206
 20
143.682677
 30
0.0
 10
153.108008
 20
143.586548
 30
0.0
 10
153.094454
 20
143.472650
 30
0.0
 10
153.027374
 20
143.389954
 30
0.0
  0
LINE
  5
23e
100
AcDbEntity
  8
Layer_1
 62
1
100
AcDbLine
 10
153.027374
 20
143.389954
 30
0.0
 11
153.027374
 21
143.389942
 31
0.0
  0
LINE
  5
23f
100
AcDbEntity
  8
Layer_1
 62
1
100
AcDbLine
 10
138.425932
 20
139.109547
 30
0.0
 11
141.897162
 21
139.114084
 31
0.0
  0
SPLINE
  5
240
100
AcDbEntity
  8
Layer_1
 62
1
100
AcDbSpline
 70
8
 71
3
 72
8
 73
4
 74
0
 40
0
 40
0
 40
0
 40
0
 40
1
 40
1
 40
1
 40
1
 10
141.897162
 20
139.114084
 30
0.0
 10
142.316217
 20
139.114634
 30
0.0
 10
142.712741
 20
139.303882
 30
0.0
 10
142.976733
 20
139.629329
 30
0.0
  0
LINE
  5
241
100
AcDbEntity
  8
Layer_1
 62
1
100
AcDbLine
 10
142.976733
 20
139.629329
 30
0.0
 11
145.974264
 21
143.324651
 31
0.0
  0
SPLINE
  5
242
100
AcDbEntity
  8
Layer_1
 62
1
100
AcDbSpline
 70
8
 71
3
 72
8
 73
4
 74
0
 40
0
 40
0
 40
0
 40
0
 40
1
 40
1
 40
1
 40
1
 10
145.974264
 20
143.324651
 30
0.0
 10
146.050927
 20
143.419161
 30
0.0
 10
146.066416
 20
143.549330
 30
0.0
 10
146.014072
 20
143.659191
 30
0.0
  0
SPLINE
  5
243
100
AcDbEntity
  8
Layer_1
 62
1
100
AcDbSpline
 70
8
 71
3
 72
8
 73
4
 74
0
 40
0
 40
0
 40
0
 40
0
 40
1
 40
1
 40
1
 40
1
 10
146.014072
 20
143.659191
 30
0.0
 10
145.961727
 20
143.769052
 30
0.0
 10
145.850877
 20
143.839025
 30
0.0
 10
145.729183
 20
143.839025
 30
0.0
  0
LINE
  5
244
100
AcDbEntity
  8
Layer_1
 62
1
100
AcDbLine
 10
145.729183
 20
143.839025
 30
0.0
 11
141.409810
 21
143.839018
 31
0.0
  0
SPLINE
  5
245
100
AcDbEntity
  8
Layer_1
 62
1
100
AcDbSpline
 70
8
 71
3
 72
8
 73
4
 74
0
 40
0
 40
0
 40
0
 40
0
 40
1
 40
1
 40
1
 40
1
 10
141.409810
 20
143.839018
 30
0.0
 10
140.989072
 20
143.839017
 30
0.0
 10
140.588978
 20
144.021339
 30
0.0
 10
140.312935
 20
144.338861
 30
0.0
  0
LINE
  5
246
100
AcDbEntity
  8
Layer_1
 62
1
100
AcDbLine
 10
140.312935
 20
144.338861
 30
0.0
 11
137.981543
 21
147.020569
 31
0.0
  0
SPLINE
  5
247
100
AcDbEntity
  8
Layer_1
 62
1
100
AcDbSpline
 70
8
 71
3
 72
8
 73
4
 74
0
 40
0
 40
0
 40
0
 40
0
 40
1
 40
1
 40
1
 40
1
 10
137.981543
 20
147.020569
 30
0.0
 10
137.870948
 20
147.147783
 30
0.0
 10
137.711389
 20
147.221850
 30
0.0
 10
137.542839
 20
147.224215
 30
0.0
  0
SPLINE
  5
248
100
AcDbEntity
  8
Layer_1
 62
1
100
AcDbSpline
 70
8
 71
3
 72
8
 73
4
 74
0
 40
0
 40
0
 40
0
 40
0
 40
1
 40
1
 40
1
 40
1
 10
137.542839
 20
147.224215
 30
0.0
 10
137.374288
 20
147.226580
 30
0.0
 10
137.212714
 20
147.157020
 30
0.0
 10
137.098592
 20
147.032960
 30
0.0
  0
LINE
  5
249
100
AcDbEntity
  8
Layer_1
 62
1
100
AcDbLine
 10
137.098592
 20
147.032960
 30
0.0
 11
134.371463
 21
144.068333
 31
0.0
  0
SPLINE
  5
24a
100
AcDbEntity
  8
Layer_1
 62
1
100
AcDbSpline
 70
8
 71
3
 72
8
 73
4
 74
0
 40
0
 40
0
 40
0
 40
0
 40
1
 40
1
 40
1
 40
1
 10
134.371463
 20
144.068333
 30
0.0
 10
134.115738
 20
143.790335
 30
0.0
 10
134.108477
 20
143.364967
 30
0.0
 10
134.354566
 20
143.078404
 30
0.0
  0
LINE
  5
24b
100
AcDbEntity
  8
Layer_1
 62
1
100
AcDbLine
 10
134.354566
 20
143.078404
 30
0.0
 11
137.332107
 21
139.611139
 31
0.0
  0
SPLINE
  5
24c
100
AcDbEntity
  8
Layer_1
 62
1
100
AcDbSpline
 70
8
 71
3
 72
8
 73
4
 74
0
 40
0
 40
0
 40
0
 40
0
 40
1
 40
1
 40
1
 40
1
 10
137.332107
 20
139.611139
 30
0.0
 10
137.605974
 20
139.292230
 30
0.0
 10
138.005571
 20
139.108984
 30
0.0
 10
138.425935
 20
139.109535
 30
0.0
  0
LINE
  5
24d
100
AcDbEntity
  8
Layer_1
 62
1
100
AcDbLine
 10
138.425935
 20
139.109535
 30
0.0
 11
138.425932
 21
139.109547
 31
0.0
  0
LINE
  5
24e
100
AcDbEntity
  8
Layer_1
 62
1
100
AcDbLine
 10
134.607465
 20
139.621732
 30
0.0
 11
131.609934
 21
143.317053
 31
0.0
  0
SPLINE
  5
24f
100
AcDbEntity
  8
Layer_1
 62
1
100
AcDbSpline
 70
8
 71
3
 72
8
 73
4
 74
0
 40
0
 40
0
 40
0
 40
0
 40
1
 40
1
 40
1
 40
1
 10
131.609934
 20
143.317053
 30
0.0
 10
131.345937
 20
143.642505
 30
0.0
 10
130.949425
 20
143.831779
 30
0.0
 10
130.530363
 20
143.832385
 30
0.0
  0
LINE
  5
250
100
AcDbEntity
  8
Layer_1
 62
1
100
AcDbLine
 10
130.530363
 20
143.832385
 30
0.0
 11
127.507862
 21
143.836766
 31
0.0
  0
SPLINE
  5
251
100
AcDbEntity
  8
Layer_1
 62
1
100
AcDbSpline
 70
8
 71
3
 72
8
 73
4
 74
0
 40
0
 40
0
 40
0
 40
0
 40
1
 40
1
 40
1
 40
1
 10
127.507862
 20
143.836766
 30
0.0
 10
127.385365
 20
143.836942
 30
0.0
 10
127.273595
 20
143.766928
 30
0.0
 10
127.220299
 20
143.656632
 30
0.0
  0
SPLINE
  5
252
100
AcDbEntity
  8
Layer_1
 62
1
100
AcDbSpline
 70
8
 71
3
 72
8
 73
4
 74
0
 40
0
 40
0
 40
0
 40
0
 40
1
 40
1
 40
1
 40
1
 10
127.220299
 20
143.656632
 30
0.0
 10
127.167003
 20
143.546336
 30
0.0
 10
127.181603
 20
143.415259
 30
0.0
 10
127.257862
 20
143.319394
 30
0.0
  0
LINE
  5
253
100
AcDbEntity
  8
Layer_1
 62
1
100
AcDbLine
 10
127.257862
 20
143.319394
 30
0.0
 11
130.196134
 21
139.625701
 31
0.0
  0
SPLINE
  5
254
100
AcDbEntity
  8
Layer_1
 62
1
100
AcDbSpline
 70
8
 71
3
 72
8
 73
4
 74
0
 40
0
 40
0
 40
0
 40
0
 40
1
 40
1
 40
1
 40
1
 10
130.196134
 20
139.625701
 30
0.0
 10
130.456656
 20
139.298199
 30
0.0
 10
130.852302
 20
139.107370
 30
0.0
 10
131.270787
 20
139.107370
 30
0.0
  0
LINE
  5
255
100
AcDbEntity
  8
Layer_1
 62
1
100
AcDbLine
 10
131.270787
 20
139.107370
 30
0.0
 11
134.362384
 21
139.107364
 31
0.0
  0
SPLINE
  5
256
100
AcDbEntity
  8
Layer_1
 62
1
100
AcDbSpline
 70
8
 71
3
 72
8
 73
4
 74
0
 40
0
 40
0
 40
0
 40
0
 40
1
 40
1
 40
1
 40
1
 10
134.362384
 20
139.107364
 30
0.0
 10
134.484078
 20
139.107364
 30
0.0
 10
134.594928
 20
139.177337
 30
0.0
 10
134.647273
 20
139.287198
 30
0.0
  0
SPLINE
  5
257
100
AcDbEntity
  8
Layer_1
 62
1
100
AcDbSpline
 70
8
 71
3
 72
8
 73
4
 74
0
 40
0
 40
0
 40
0
 40
0
 40
1
 40
1
 40
1
 40
1
 10
134.647273
 20
139.287198
 30
0.0
 10
134.699617
 20
139.397059
 30
0.0
 10
134.684128
 20
139.527229
 30
0.0
 10
134.607465
 20
139.621739
 30
0.0
  0
LINE
  5
258
100
AcDbEntity
  8
Layer_1
 62
1
100
AcDbLine
 10
134.607465
 20
139.621739
 30
0.0
 11
134.607465
 21
139.621732
 31
0.0
  0
LINE
  5
259
100
AcDbEntity
  8
Layer_1
 62
1
100
AcDbLine
 10
120.058169
 20
143.837820
 30
0.0
 11
123.529398
 21
143.833283
 31
0.0
  0
SPLINE
  5
25a
100
AcDbEntity
  8
Layer_1
 62
1
100
AcDbSpline
 70
8
 71
3
 72
8
 73
4
 74
0
 40
0
 40
0
 40
0
 40
0
 40
1
 40
1
 40
1
 40
1
 10
123.529398
 20
143.833283
 30
0.0
 10
123.948454
 20
143.832733
 30
0.0
 10
124.344978
 20
143.643485
 30
0.0
 10
124.608970
 20
143.318039
 30
0.0
  0
LINE
  5
25b
100
AcDbEntity
  8
Layer_1
 62
1
100
AcDbLine
 10
124.608970
 20
143.318039
 30
0.0
 11
127.606500
 21
139.622717
 31
0.0
  0
SPLINE
  5
25c
100
AcDbEntity
  8
Layer_1
 62
1
100
AcDbSpline
 70
8
 71
3
 72
8
 73
4
 74
0
 40
0
 40
0
 40
0
 40
0
 40
1
 40
1
 40
1
 40
1
 10
127.606500
 20
139.622717
 30
0.0
 10
127.683164
 20
139.528207
 30
0.0
 10
127.698653
 20
139.398037
 30
0.0
 10
127.646308
 20
139.288176
 30
0.0
  0
SPLINE
  5
25d
100
AcDbEntity
  8
Layer_1
 62
1
100
AcDbSpline
 70
8
 71
3
 72
8
 73
4
 74
0
 40
0
 40
0
 40
0
 40
0
 40
1
 40
1
 40
1
 40
1
 10
127.646308
 20
139.288176
 30
0.0
 10
127.593964
 20
139.178315
 30
0.0
 10
127.483114
 20
139.108342
 30
0.0
 10
127.361420
 20
139.108342
 30
0.0
  0
LINE
  5
25e
100
AcDbEntity
  8
Layer_1
 62
1
100
AcDbLine
 10
127.361420
 20
139.108342
 30
0.0
 11
123.042047
 21
139.108349
 31
0.0
  0
SPLINE
  5
25f
100
AcDbEntity
  8
Layer_1
 62
1
100
AcDbSpline
 70
8
 71
3
 72
8
 73
4
 74
0
 40
0
 40
0
 40
0
 40
0
 40
1
 40
1
 40
1
 40
1
 10
123.042047
 20
139.108349
 30
0.0
 10
122.621309
 20
139.108350
 30
0.0
 10
122.221215
 20
138.926028
 30
0.0
 10
121.945171
 20
138.608506
 30
0.0
  0
LINE
  5
260
100
AcDbEntity
  8
Layer_1
 62
1
100
AcDbLine
 10
121.945171
 20
138.608506
 30
0.0
 11
119.613780
 21
135.926799
 31
0.0
  0
SPLINE
  5
261
100
AcDbEntity
  8
Layer_1
 62
1
100
AcDbSpline
 70
8
 71
3
 72
8
 73
4
 74
0
 40
0
 40
0
 40
0
 40
0
 40
1
 40
1
 40
1
 40
1
 10
119.613780
 20
135.926799
 30
0.0
 10
119.503184
 20
135.799585
 30
0.0
 10
119.343626
 20
135.725518
 30
0.0
 10
119.175075
 20
135.723152
 30
0.0
  0
SPLINE
  5
262
100
AcDbEntity
  8
Layer_1
 62
1
100
AcDbSpline
 70
8
 71
3
 72
8
 73
4
 74
0
 40
0
 40
0
 40
0
 40
0
 40
1
 40
1
 40
1
 40
1
 10
119.175075
 20
135.723152
 30
0.0
 10
119.006525
 20
135.720787
 30
0.0
 10
118.844951
 20
135.790347
 30
0.0
 10
118.730829
 20
135.914408
 30
0.0
  0
LINE
  5
263
100
AcDbEntity
  8
Layer_1
 62
1
100
AcDbLine
 10
118.730829
 20
135.914408
 30
0.0
 11
116.003700
 21
138.879035
 31
0.0
  0
SPLINE
  5
264
100
AcDbEntity
  8
Layer_1
 62
1
100
AcDbSpline
 70
8
 71
3
 72
8
 73
4
 74
0
 40
0
 40
0
 40
0
 40
0
 40
1
 40
1
 40
1
 40
1
 10
116.003700
 20
138.879035
 30
0.0
 10
115.747974
 20
139.157032
 30
0.0
 10
115.740714
 20
139.582400
 30
0.0
 10
115.986803
 20
139.868963
 30
0.0
  0
LINE
  5
265
100
AcDbEntity
  8
Layer_1
 62
1
100
AcDbLine
 10
115.986803
 20
139.868963
 30
0.0
 11
118.964344
 21
143.336228
 31
0.0
  0
SPLINE
  5
266
100
AcDbEntity
  8
Layer_1
 62
1
100
AcDbSpline
 70
8
 71
3
 72
8
 73
4
 74
0
 40
0
 40
0
 40
0
 40
0
 40
1
 40
1
 40
1
 40
1
 10
118.964344
 20
143.336228
 30
0.0
 10
119.238211
 20
143.655137
 30
0.0
 10
119.637808
 20
143.838383
 30
0.0
 10
120.058172
 20
143.837832
 30
0.0
  0
LINE
  5
267
100
AcDbEntity
  8
Layer_1
 62
1
100
AcDbLine
 10
120.058172
 20
143.837832
 30
0.0
 11
120.058169
 21
143.837820
 31
0.0
  0
LINE
  5
268
100
AcDbEntity
  8
Layer_1
 62
1
100
AcDbLine
 10
187.015641
 20
135.302296
 30
0.0
 11
189.430725
 21
132.586437
 31
0.0
  0
SPLINE
  5
269
100
AcDbEntity
  8
Layer_1
 62
1
100
AcDbSpline
 70
8
 71
3
 72
8
 73
4
 74
0
 40
0
 40
0
 40
0
 40
0
 40
1
 40
1
 40
1
 40
1
 10
189.430725
 20
132.586437
 30
0.0
 10
189.652112
 20
132.337487
 30
0.0
 10
189.641883
 20
131.966041
 30
0.0
 10
189.407135
 20
131.729753
 30
0.0
  0
LINE
  5
26a
100
AcDbEntity
  8
Layer_1
 62
1
100
AcDbLine
 10
189.407135
 20
131.729753
 30
0.0
 11
186.485848
 21
128.789423
 31
0.0
  0
SPLINE
  5
26b
100
AcDbEntity
  8
Layer_1
 62
1
100
AcDbSpline
 70
8
 71
3
 72
8
 73
4
 74
0
 40
0
 40
0
 40
0
 40
0
 40
1
 40
1
 40
1
 40
1
 10
186.485848
 20
128.789423
 30
0.0
 10
186.379522
 20
128.682403
 30
0.0
 10
186.231652
 20
128.623852
 30
0.0
 10
186.078433
 20
128.628102
 30
0.0
  0
SPLINE
  5
26c
100
AcDbEntity
  8
Layer_1
 62
1
100
AcDbSpline
 70
8
 71
3
 72
8
 73
4
 74
0
 40
0
 40
0
 40
0
 40
0
 40
1
 40
1
 40
1
 40
1
 10
186.078433
 20
128.628102
 30
0.0
 10
185.925215
 20
128.632352
 30
0.0
 10
185.780790
 20
128.699011
 30
0.0
 10
185.680511
 20
128.811762
 30
0.0
  0
LINE
  5
26d
100
AcDbEntity
  8
Layer_1
 62
1
100
AcDbLine
 10
185.680511
 20
128.811762
 30
0.0
 11
183.303215
 21
131.484732
 31
0.0
  0
SPLINE
  5
26e
100
AcDbEntity
  8
Layer_1
 62
1
100
AcDbSpline
 70
8
 71
3
 72
8
 73
4
 74
0
 40
0
 40
0
 40
0
 40
0
 40
1
 40
1
 40
1
 40
1
 10
183.303215
 20
131.484732
 30
0.0
 10
183.081200
 20
131.734360
 30
0.0
 10
183.089387
 20
132.106299
 30
0.0
 10
183.322166
 20
132.345672
 30
0.0
  0
LINE
  5
26f
100
AcDbEntity
  8
Layer_1
 62
1
100
AcDbLine
 10
183.322166
 20
132.345672
 30
0.0
 11
186.214951
 21
135.320380
 31
0.0
  0
SPLINE
  5
270
100
AcDbEntity
  8
Layer_1
 62
1
100
AcDbSpline
 70
8
 71
3
 72
8
 73
4
 74
0
 40
0
 40
0
 40
0
 40
0
 40
1
 40
1
 40
1
 40
1
 10
186.214951
 20
135.320380
 30
0.0
 10
186.319656
 20
135.428049
 30
0.0
 10
186.466502
 20
135.487530
 30
0.0
 10
186.619105
 20
135.484082
 30
0.0
  0
SPLINE
  5
271
100
AcDbEntity
  8
Layer_1
 62
1
100
AcDbSpline
 70
8
 71
3
 72
8
 73
4
 74
0
 40
0
 40
0
 40
0
 40
0
 40
1
 40
1
 40
1
 40
1
 10
186.619105
 20
135.484082
 30
0.0
 10
186.771707
 20
135.480635
 30
0.0
 10
186.915785
 20
135.414583
 30
0.0
 10
187.015638
 20
135.302292
 30
0.0
  0
LINE
  5
272
100
AcDbEntity
  8
Layer_1
 62
1
100
AcDbLine
 10
187.015638
 20
135.302292
 30
0.0
 11
187.015641
 21
135.302296
 31
0.0
  0
LINE
  5
273
100
AcDbEntity
  8
Layer_1
 62
1
100
AcDbLine
 10
150.177822
 20
135.294271
 30
0.0
 11
152.592905
 21
132.578412
 31
0.0
  0
SPLINE
  5
274
100
AcDbEntity
  8
Layer_1
 62
1
100
AcDbSpline
 70
8
 71
3
 72
8
 73
4
 74
0
 40
0
 40
0
 40
0
 40
0
 40
1
 40
1
 40
1
 40
1
 10
152.592905
 20
132.578412
 30
0.0
 10
152.814292
 20
132.329462
 30
0.0
 10
152.804064
 20
131.958016
 30
0.0
 10
152.569316
 20
131.721728
 30
0.0
  0
LINE
  5
275
100
AcDbEntity
  8
Layer_1
 62
1
100
AcDbLine
 10
152.569316
 20
131.721728
 30
0.0
 11
149.648029
 21
128.781398
 31
0.0
  0
SPLINE
  5
276
100
AcDbEntity
  8
Layer_1
 62
1
100
AcDbSpline
 70
8
 71
3
 72
8
 73
4
 74
0
 40
0
 40
0
 40
0
 40
0
 40
1
 40
1
 40
1
 40
1
 10
149.648029
 20
128.781398
 30
0.0
 10
149.541703
 20
128.674378
 30
0.0
 10
149.393833
 20
128.615827
 30
0.0
 10
149.240614
 20
128.620077
 30
0.0
  0
SPLINE
  5
277
100
AcDbEntity
  8
Layer_1
 62
1
100
AcDbSpline
 70
8
 71
3
 72
8
 73
4
 74
0
 40
0
 40
0
 40
0
 40
0
 40
1
 40
1
 40
1
 40
1
 10
149.240614
 20
128.620077
 30
0.0
 10
149.087395
 20
128.624327
 30
0.0
 10
148.942970
 20
128.690986
 30
0.0
 10
148.842691
 20
128.803737
 30
0.0
  0
LINE
  5
278
100
AcDbEntity
  8
Layer_1
 62
1
100
AcDbLine
 10
148.842691
 20
128.803737
 30
0.0
 11
146.465396
 21
131.476707
 31
0.0
  0
SPLINE
  5
279
100
AcDbEntity
  8
Layer_1
 62
1
100
AcDbSpline
 70
8
 71
3
 72
8
 73
4
 74
0
 40
0
 40
0
 40
0
 40
0
 40
1
 40
1
 40
1
 40
1
 10
146.465396
 20
131.476707
 30
0.0
 10
146.243380
 20
131.726335
 30
0.0
 10
146.251567
 20
132.098274
 30
0.0
 10
146.484347
 20
132.337647
 30
0.0
  0
LINE
  5
27a
100
AcDbEntity
  8
Layer_1
 62
1
100
AcDbLine
 10
146.484347
 20
132.337647
 30
0.0
 11
149.377132
 21
135.312355
 31
0.0
  0
SPLINE
  5
27b
100
AcDbEntity
  8
Layer_1
 62
1
100
AcDbSpline
 70
8
 71
3
 72
8
 73
4
 74
0
 40
0
 40
0
 40
0
 40
0
 40
1
 40
1
 40
1
 40
1
 10
149.377132
 20
135.312355
 30
0.0
 10
149.481836
 20
135.420024
 30
0.0
 10
149.628683
 20
135.479505
 30
0.0
 10
149.781285
 20
135.476057
 30
0.0
  0
SPLINE
  5
27c
100
AcDbEntity
  8
Layer_1
 62
1
100
AcDbSpline
 70
8
 71
3
 72
8
 73
4
 74
0
 40
0
 40
0
 40
0
 40
0
 40
1
 40
1
 40
1
 40
1
 10
149.781285
 20
135.476057
 30
0.0
 10
149.933887
 20
135.472610
 30
0.0
 10
150.077965
 20
135.406558
 30
0.0
 10
150.177819
 20
135.294267
 30
0.0
  0
LINE
  5
27d
100
AcDbEntity
  8
Layer_1
 62
1
100
AcDbLine
 10
150.177819
 20
135.294267
 30
0.0
 11
150.177822
 21
135.294271
 31
0.0
  0
LINE
  5
27e
100
AcDbEntity
  8
Layer_1
 62
1
100
AcDbLine
 10
181.944834
 20
153.612055
 30
0.0
 11
187.899783
 21
153.606923
 31
0.0
  0
SPLINE
  5
27f
100
AcDbEntity
  8
Layer_1
 62
1
100
AcDbSpline
 70
8
 71
3
 72
8
 73
4
 74
0
 40
0
 40
0
 40
0
 40
0
 40
1
 40
1
 40
1
 40
1
 10
187.899783
 20
153.606923
 30
0.0
 10
188.318815
 20
153.606562
 30
0.0
 10
188.715379
 20
153.417405
 30
0.0
 10
188.979357
 20
153.091976
 30
0.0
  0
LINE
  5
280
100
AcDbEntity
  8
Layer_1
 62
1
100
AcDbLine
 10
188.979357
 20
153.091976
 30
0.0
 11
191.976888
 21
149.396654
 31
0.0
  0
SPLINE
  5
281
100
AcDbEntity
  8
Layer_1
 62
1
100
AcDbSpline
 70
8
 71
3
 72
8
 73
4
 74
0
 40
0
 40
0
 40
0
 40
0
 40
1
 40
1
 40
1
 40
1
 10
191.976888
 20
149.396654
 30
0.0
 10
192.053551
 20
149.302144
 30
0.0
 10
192.069041
 20
149.171974
 30
0.0
 10
192.016696
 20
149.062113
 30
0.0
  0
SPLINE
  5
282
100
AcDbEntity
  8
Layer_1
 62
1
100
AcDbSpline
 70
8
 71
3
 72
8
 73
4
 74
0
 40
0
 40
0
 40
0
 40
0
 40
1
 40
1
 40
1
 40
1
 10
192.016696
 20
149.062113
 30
0.0
 10
191.964351
 20
148.952252
 30
0.0
 10
191.853501
 20
148.882279
 30
0.0
 10
191.731807
 20
148.882279
 30
0.0
  0
LINE
  5
283
100
AcDbEntity
  8
Layer_1
 62
1
100
AcDbLine
 10
191.731807
 20
148.882279
 30
0.0
 11
184.928709
 21
148.882287
 31
0.0
  0
SPLINE
  5
284
100
AcDbEntity
  8
Layer_1
 62
1
100
AcDbSpline
 70
8
 71
3
 72
8
 73
4
 74
0
 40
0
 40
0
 40
0
 40
0
 40
1
 40
1
 40
1
 40
1
 10
184.928709
 20
148.882287
 30
0.0
 10
184.516431
 20
148.882287
 30
0.0
 10
184.132975
 20
149.093777
 30
0.0
 10
183.913018
 20
149.442476
 30
0.0
  0
LINE
  5
285
100
AcDbEntity
  8
Layer_1
 62
1
100
AcDbLine
 10
183.913018
 20
149.442476
 30
0.0
 11
181.635869
 21
153.052452
 31
0.0
  0
SPLINE
  5
286
100
AcDbEntity
  8
Layer_1
 62
1
100
AcDbSpline
 70
8
 71
3
 72
8
 73
4
 74
0
 40
0
 40
0
 40
0
 40
0
 40
1
 40
1
 40
1
 40
1
 10
181.635869
 20
153.052452
 30
0.0
 10
181.564919
 20
153.164931
 30
0.0
 10
181.560774
 20
153.307101
 30
0.0
 10
181.625051
 20
153.423523
 30
0.0
  0
SPLINE
  5
287
100
AcDbEntity
  8
Layer_1
 62
1
100
AcDbSpline
 70
8
 71
3
 72
8
 73
4
 74
0
 40
0
 40
0
 40
0
 40
0
 40
1
 40
1
 40
1
 40
1
 10
181.625051
 20
153.423523
 30
0.0
 10
181.689327
 20
153.539944
 30
0.0
 10
181.811847
 20
153.612182
 30
0.0
 10
181.944834
 20
153.612067
 30
0.0
  0
LINE
  5
288
100
AcDbEntity
  8
Layer_1
 62
1
100
AcDbLine
 10
181.944834
 20
153.612067
 30
0.0
 11
181.944834
 21
153.612055
 31
0.0
  0
LINE
  5
289
100
AcDbEntity
  8
Layer_1
 62
1
100
AcDbLine
 10
145.109240
 20
153.612055
 30
0.0
 11
151.064189
 21
153.606923
 31
0.0
  0
SPLINE
  5
28a
100
AcDbEntity
  8
Layer_1
 62
1
100
AcDbSpline
 70
8
 71
3
 72
8
 73
4
 74
0
 40
0
 40
0
 40
0
 40
0
 40
1
 40
1
 40
1
 40
1
 10
151.064189
 20
153.606923
 30
0.0
 10
151.483222
 20
153.606562
 30
0.0
 10
151.879785
 20
153.417405
 30
0.0
 10
152.143764
 20
153.091976
 30
0.0
  0
LINE
  5
28b
100
AcDbEntity
  8
Layer_1
 62
1
100
AcDbLine
 10
152.143764
 20
153.091976
 30
0.0
 11
155.141294
 21
149.396654
 31
0.0
  0
SPLINE
  5
28c
100
AcDbEntity
  8
Layer_1
 62
1
100
AcDbSpline
 70
8
 71
3
 72
8
 73
4
 74
0
 40
0
 40
0
 40
0
 40
0
 40
1
 40
1
 40
1
 40
1
 10
155.141294
 20
149.396654
 30
0.0
 10
155.217958
 20
149.302144
 30
0.0
 10
155.233447
 20
149.171974
 30
0.0
 10
155.181102
 20
149.062113
 30
0.0
  0
SPLINE
  5
28d
100
AcDbEntity
  8
Layer_1
 62
1
100
AcDbSpline
 70
8
 71
3
 72
8
 73
4
 74
0
 40
0
 40
0
 40
0
 40
0
 40
1
 40
1
 40
1
 40
1
 10
155.181102
 20
149.062113
 30
0.0
 10
155.128757
 20
148.952252
 30
0.0
 10
155.017907
 20
148.882279
 30
0.0
 10
154.896213
 20
148.882279
 30
0.0
  0
LINE
  5
28e
100
AcDbEntity
  8
Layer_1
 62
1
100
AcDbLine
 10
154.896213
 20
148.882279
 30
0.0
 11
148.093115
 21
148.882287
 31
0.0
  0
SPLINE
  5
28f
100
AcDbEntity
  8
Layer_1
 62
1
100
AcDbSpline
 70
8
 71
3
 72
8
 73
4
 74
0
 40
0
 40
0
 40
0
 40
0
 40
1
 40
1
 40
1
 40
1
 10
148.093115
 20
148.882287
 30
0.0
 10
147.680838
 20
148.882287
 30
0.0
 10
147.297381
 20
149.093777
 30
0.0
 10
147.077424
 20
149.442476
 30
0.0
  0
LINE
  5
290
100
AcDbEntity
  8
Layer_1
 62
1
100
AcDbLine
 10
147.077424
 20
149.442476
 30
0.0
 11
144.800276
 21
153.052452
 31
0.0
  0
SPLINE
  5
291
100
AcDbEntity
  8
Layer_1
 62
1
100
AcDbSpline
 70
8
 71
3
 72
8
 73
4
 74
0
 40
0
 40
0
 40
0
 40
0
 40
1
 40
1
 40
1
 40
1
 10
144.800276
 20
153.052452
 30
0.0
 10
144.729325
 20
153.164931
 30
0.0
 10
144.725180
 20
153.307101
 30
0.0
 10
144.789457
 20
153.423523
 30
0.0
  0
SPLINE
  5
292
100
AcDbEntity
  8
Layer_1
 62
1
100
AcDbSpline
 70
8
 71
3
 72
8
 73
4
 74
0
 40
0
 40
0
 40
0
 40
0
 40
1
 40
1
 40
1
 40
1
 10
144.789457
 20
153.423523
 30
0.0
 10
144.853733
 20
153.539944
 30
0.0
 10
144.976254
 20
153.612182
 30
0.0
 10
145.109240
 20
153.612067
 30
0.0
  0
LINE
  5
293
100
AcDbEntity
  8
Layer_1
 62
1
100
AcDbLine
 10
145.109240
 20
153.612067
 30
0.0
 11
145.109240
 21
153.612055
 31
0.0
  0
LINE
  5
294
100
AcDbEntity
  8
Layer_1
 62
1
100
AcDbLine
 10
168.680346
 20
147.933848
 30
0.0
 11
171.095429
 21
150.649707
 31
0.0
  0
SPLINE
  5
295
100
AcDbEntity
  8
Layer_1
 62
1
100
AcDbSpline
 70
8
 71
3
 72
8
 73
4
 74
0
 40
0
 40
0
 40
0
 40
0
 40
1
 40
1
 40
1
 40
1
 10
171.095429
 20
150.649707
 30
0.0
 10
171.316816
 20
150.898658
 30
0.0
 10
171.306588
 20
151.270103
 30
0.0
 10
171.071839
 20
151.506391
 30
0.0
  0
LINE
  5
296
100
AcDbEntity
  8
Layer_1
 62
1
100
AcDbLine
 10
171.071839
 20
151.506391
 30
0.0
 11
168.150553
 21
154.446721
 31
0.0
  0
SPLINE
  5
297
100
AcDbEntity
  8
Layer_1
 62
1
100
AcDbSpline
 70
8
 71
3
 72
8
 73
4
 74
0
 40
0
 40
0
 40
0
 40
0
 40
1
 40
1
 40
1
 40
1
 10
168.150553
 20
154.446721
 30
0.0
 10
168.044227
 20
154.553741
 30
0.0
 10
167.896356
 20
154.612292
 30
0.0
 10
167.743138
 20
154.608042
 30
0.0
  0
SPLINE
  5
298
100
AcDbEntity
  8
Layer_1
 62
1
100
AcDbSpline
 70
8
 71
3
 72
8
 73
4
 74
0
 40
0
 40
0
 40
0
 40
0
 40
1
 40
1
 40
1
 40
1
 10
167.743138
 20
154.608042
 30
0.0
 10
167.589919
 20
154.603792
 30
0.0
 10
167.445494
 20
154.537133
 30
0.0
 10
167.345215
 20
154.424382
 30
0.0
  0
LINE
  5
299
100
AcDbEntity
  8
Layer_1
 62
1
100
AcDbLine
 10
167.345215
 20
154.424382
 30
0.0
 11
164.967920
 21
151.751412
 31
0.0
  0
SPLINE
  5
29a
100
AcDbEntity
  8
Layer_1
 62
1
100
AcDbSpline
 70
8
 71
3
 72
8
 73
4
 74
0
 40
0
 40
0
 40
0
 40
0
 40
1
 40
1
 40
1
 40
1
 10
164.967920
 20
151.751412
 30
0.0
 10
164.745904
 20
151.501785
 30
0.0
 10
164.754091
 20
151.129845
 30
0.0
 10
164.986871
 20
150.890472
 30
0.0
  0
LINE
  5
29b
100
AcDbEntity
  8
Layer_1
 62
1
100
AcDbLine
 10
164.986871
 20
150.890472
 30
0.0
 11
167.879655
 21
147.915765
 31
0.0
  0
SPLINE
  5
29c
100
AcDbEntity
  8
Layer_1
 62
1
100
AcDbSpline
 70
8
 71
3
 72
8
 73
4
 74
0
 40
0
 40
0
 40
0
 40
0
 40
1
 40
1
 40
1
 40
1
 10
167.879655
 20
147.915765
 30
0.0
 10
167.984360
 20
147.808095
 30
0.0
 10
168.131207
 20
147.748615
 30
0.0
 10
168.283809
 20
147.752062
 30
0.0
  0
SPLINE
  5
29d
100
AcDbEntity
  8
Layer_1
 62
1
100
AcDbSpline
 70
8
 71
3
 72
8
 73
4
 74
0
 40
0
 40
0
 40
0
 40
0
 40
1
 40
1
 40
1
 40
1
 10
168.283809
 20
147.752062
 30
0.0
 10
168.436411
 20
147.755509
 30
0.0
 10
168.580489
 20
147.821561
 30
0.0
 10
168.680343
 20
147.933852
 30
0.0
  0
LINE
  5
29e
100
AcDbEntity
  8
Layer_1
 62
1
100
AcDbLine
 10
168.680343
 20
147.933852
 30
0.0
 11
168.680346
 21
147.933848
 31
0.0
  0
LINE
  5
29f
100
AcDbEntity
  8
Layer_1
 62
1
100
AcDbLine
 10
131.840903
 20
147.933848
 30
0.0
 11
134.255986
 21
150.649707
 31
0.0
  0
SPLINE
  5
2a0
100
AcDbEntity
  8
Layer_1
 62
1
100
AcDbSpline
 70
8
 71
3
 72
8
 73
4
 74
0
 40
0
 40
0
 40
0
 40
0
 40
1
 40
1
 40
1
 40
1
 10
134.255986
 20
150.649707
 30
0.0
 10
134.477373
 20
150.898658
 30
0.0
 10
134.467145
 20
151.270103
 30
0.0
 10
134.232396
 20
151.506391
 30
0.0
  0
LINE
  5
2a1
100
AcDbEntity
  8
Layer_1
 62
1
100
AcDbLine
 10
134.232396
 20
151.506391
 30
0.0
 11
131.311110
 21
154.446721
 31
0.0
  0
SPLINE
  5
2a2
100
AcDbEntity
  8
Layer_1
 62
1
100
AcDbSpline
 70
8
 71
3
 72
8
 73
4
 74
0
 40
0
 40
0
 40
0
 40
0
 40
1
 40
1
 40
1
 40
1
 10
131.311110
 20
154.446721
 30
0.0
 10
131.204784
 20
154.553741
 30
0.0
 10
131.056913
 20
154.612292
 30
0.0
 10
130.903695
 20
154.608042
 30
0.0
  0
SPLINE
  5
2a3
100
AcDbEntity
  8
Layer_1
 62
1
100
AcDbSpline
 70
8
 71
3
 72
8
 73
4
 74
0
 40
0
 40
0
 40
0
 40
0
 40
1
 40
1
 40
1
 40
1
 10
130.903695
 20
154.608042
 30
0.0
 10
130.750476
 20
154.603792
 30
0.0
 10
130.606051
 20
154.537133
 30
0.0
 10
130.505772
 20
154.424382
 30
0.0
  0
LINE
  5
2a4
100
AcDbEntity
  8
Layer_1
 62
1
100
AcDbLine
 10
130.505772
 20
154.424382
 30
0.0
 11
128.128477
 21
151.751412
 31
0.0
  0
SPLINE
  5
2a5
100
AcDbEntity
  8
Layer_1
 62
1
100
AcDbSpline
 70
8
 71
3
 72
8
 73
4
 74
0
 40
0
 40
0
 40
0
 40
0
 40
1
 40
1
 40
1
 40
1
 10
128.128477
 20
151.751412
 30
0.0
 10
127.906461
 20
151.501785
 30
0.0
 10
127.914648
 20
151.129845
 30
0.0
 10
128.147428
 20
150.890472
 30
0.0
  0
LINE
  5
2a6
100
AcDbEntity
  8
Layer_1
 62
1
100
AcDbLine
 10
128.147428
 20
150.890472
 30
0.0
 11
131.040212
 21
147.915765
 31
0.0
  0
SPLINE
  5
2a7
100
AcDbEntity
  8
Layer_1
 62
1
100
AcDbSpline
 70
8
 71
3
 72
8
 73
4
 74
0
 40
0
 40
0
 40
0
 40
0
 40
1
 40
1
 40
1
 40
1
 10
131.040212
 20
147.915765
 30
0.0
 10
131.144917
 20
147.808095
 30
0.0
 10
131.291764
 20
147.748615
 30
0.0
 10
131.444366
 20
147.752062
 30
0.0
  0
SPLINE
  5
2a8
100
AcDbEntity
  8
Layer_1
 62
1
100
AcDbSpline
 70
8
 71
3
 72
8
 73
4
 74
0
 40
0
 40
0
 40
0
 40
0
 40
1
 40
1
 40
1
 40
1
 10
131.444366
 20
147.752062
 30
0.0
 10
131.596968
 20
147.755509
 30
0.0
 10
131.741046
 20
147.821561
 30
0.0
 10
131.840900
 20
147.933852
 30
0.0
  0
LINE
  5
2a9
100
AcDbEntity
  8
Layer_1
 62
1
100
AcDbLine
 10
131.840900
 20
147.933852
 30
0.0
 11
131.840903
 21
147.933848
 31
0.0
  0
LINE
  5
2aa
100
AcDbEntity
  8
Layer_1
 62
1
100
AcDbLine
 10
180.663372
 20
128.116447
 30
0.0
 11
182.185803
 21
126.873452
 31
0.0
  0
SPLINE
  5
2ab
100
AcDbEntity
  8
Layer_1
 62
1
100
AcDbSpline
 70
8
 71
3
 72
8
 73
4
 74
0
 40
0
 40
0
 40
0
 40
0
 40
1
 40
1
 40
1
 40
1
 10
182.185803
 20
126.873452
 30
0.0
 10
182.310717
 20
126.771465
 30
0.0
 10
182.382642
 20
126.618332
 30
0.0
 10
182.381369
 20
126.457077
 30
0.0
  0
SPLINE
  5
2ac
100
AcDbEntity
  8
Layer_1
 62
1
100
AcDbSpline
 70
8
 71
3
 72
8
 73
4
 74
0
 40
0
 40
0
 40
0
 40
0
 40
1
 40
1
 40
1
 40
1
 10
182.381369
 20
126.457077
 30
0.0
 10
182.380097
 20
126.295821
 30
0.0
 10
182.305765
 20
126.143842
 30
0.0
 10
182.179256
 20
126.043839
 30
0.0
  0
LINE
  5
2ad
100
AcDbEntity
  8
Layer_1
 62
1
100
AcDbLine
 10
182.179256
 20
126.043839
 30
0.0
 11
180.236283
 21
124.507935
 31
0.0
  0
SPLINE
  5
2ae
100
AcDbEntity
  8
Layer_1
 62
1
100
AcDbSpline
 70
8
 71
3
 72
8
 73
4
 74
0
 40
0
 40
0
 40
0
 40
0
 40
1
 40
1
 40
1
 40
1
 10
180.236283
 20
124.507935
 30
0.0
 10
179.899761
 20
124.241917
 30
0.0
 10
179.483330
 20
124.097219
 30
0.0
 10
179.054364
 20
124.097252
 30
0.0
  0
LINE
  5
2af
100
AcDbEntity
  8
Layer_1
 62
1
100
AcDbLine
 10
179.054364
 20
124.097252
 30
0.0
 11
172.304714
 21
124.097878
 31
0.0
  0
SPLINE
  5
2b0
100
AcDbEntity
  8
Layer_1
 62
1
100
AcDbSpline
 70
8
 71
3
 72
8
 73
4
 74
0
 40
0
 40
0
 40
0
 40
0
 40
1
 40
1
 40
1
 40
1
 10
172.304714
 20
124.097878
 30
0.0
 10
172.206301
 20
124.097887
 30
0.0
 10
172.118650
 20
124.160112
 30
0.0
 10
172.086184
 20
124.253015
 30
0.0
  0
SPLINE
  5
2b1
100
AcDbEntity
  8
Layer_1
 62
1
100
AcDbSpline
 70
8
 71
3
 72
8
 73
4
 74
0
 40
0
 40
0
 40
0
 40
0
 40
1
 40
1
 40
1
 40
1
 10
172.086184
 20
124.253015
 30
0.0
 10
172.053718
 20
124.345919
 30
0.0
 10
172.083534
 20
124.449194
 30
0.0
 10
172.160521
 20
124.510497
 30
0.0
  0
LINE
  5
2b2
100
AcDbEntity
  8
Layer_1
 62
1
100
AcDbLine
 10
172.160521
 20
124.510497
 30
0.0
 11
174.002857
 21
125.977483
 31
0.0
  0
SPLINE
  5
2b3
100
AcDbEntity
  8
Layer_1
 62
1
100
AcDbSpline
 70
8
 71
3
 72
8
 73
4
 74
0
 40
0
 40
0
 40
0
 40
0
 40
1
 40
1
 40
1
 40
1
 10
174.002857
 20
125.977483
 30
0.0
 10
174.338162
 20
126.244473
 30
0.0
 10
174.754696
 20
126.388755
 30
0.0
 10
175.183308
 20
126.386376
 30
0.0
  0
LINE
  5
2b4
100
AcDbEntity
  8
Layer_1
 62
1
100
AcDbLine
 10
175.183308
 20
126.386376
 30
0.0
 11
176.762056
 21
126.377614
 31
0.0
  0
SPLINE
  5
2b5
100
AcDbEntity
  8
Layer_1
 62
1
100
AcDbSpline
 70
8
 71
3
 72
8
 73
4
 74
0
 40
0
 40
0
 40
0
 40
0
 40
1
 40
1
 40
1
 40
1
 10
176.762056
 20
126.377614
 30
0.0
 10
177.190747
 20
126.375235
 30
0.0
 10
177.607436
 20
126.519095
 30
0.0
 10
177.943348
 20
126.785449
 30
0.0
  0
LINE
  5
2b6
100
AcDbEntity
  8
Layer_1
 62
1
100
AcDbLine
 10
177.943348
 20
126.785449
 30
0.0
 11
179.631350
 21
128.123916
 31
0.0
  0
SPLINE
  5
2b7
100
AcDbEntity
  8
Layer_1
 62
1
100
AcDbSpline
 70
8
 71
3
 72
8
 73
4
 74
0
 40
0
 40
0
 40
0
 40
0
 40
1
 40
1
 40
1
 40
1
 10
179.631350
 20
128.123916
 30
0.0
 10
179.934380
 20
128.364191
 30
0.0
 10
180.363810
 20
128.361118
 30
0.0
 10
180.663371
 20
128.116532
 30
0.0
  0
LINE
  5
2b8
100
AcDbEntity
  8
Layer_1
 62
1
100
AcDbLine
 10
180.663371
 20
128.116532
 30
0.0
 11
180.663372
 21
128.116447
 31
0.0
  0
LINE
  5
2b9
100
AcDbEntity
  8
Layer_1
 62
1
100
AcDbLine
 10
164.842081
 20
126.428268
 30
0.0
 11
158.988875
 21
126.480878
 31
0.0
  0
SPLINE
  5
2ba
100
AcDbEntity
  8
Layer_1
 62
1
100
AcDbSpline
 70
8
 71
3
 72
8
 73
4
 74
0
 40
0
 40
0
 40
0
 40
0
 40
1
 40
1
 40
1
 40
1
 10
158.988875
 20
126.480878
 30
0.0
 10
158.560065
 20
126.484733
 30
0.0
 10
158.142631
 20
126.343004
 30
0.0
 10
157.804813
 20
126.078860
 30
0.0
  0
LINE
  5
2bb
100
AcDbEntity
  8
Layer_1
 62
1
100
AcDbLine
 10
157.804813
 20
126.078860
 30
0.0
 11
155.815918
 21
124.523708
 31
0.0
  0
SPLINE
  5
2bc
100
AcDbEntity
  8
Layer_1
 62
1
100
AcDbSpline
 70
8
 71
3
 72
8
 73
4
 74
0
 40
0
 40
0
 40
0
 40
0
 40
1
 40
1
 40
1
 40
1
 10
155.815918
 20
124.523708
 30
0.0
 10
155.738957
 20
124.463531
 30
0.0
 10
155.708598
 20
124.361185
 30
0.0
 10
155.740297
 20
124.268776
 30
0.0
  0
SPLINE
  5
2bd
100
AcDbEntity
  8
Layer_1
 62
1
100
AcDbSpline
 70
8
 71
3
 72
8
 73
4
 74
0
 40
0
 40
0
 40
0
 40
0
 40
1
 40
1
 40
1
 40
1
 10
155.740297
 20
124.268776
 30
0.0
 10
155.771996
 20
124.176366
 30
0.0
 10
155.858785
 20
124.114206
 30
0.0
 10
155.956480
 20
124.113940
 30
0.0
  0
LINE
  5
2be
100
AcDbEntity
  8
Layer_1
 62
1
100
AcDbLine
 10
155.956480
 20
124.113940
 30
0.0
 11
162.051585
 21
124.097418
 31
0.0
  0
SPLINE
  5
2bf
100
AcDbEntity
  8
Layer_1
 62
1
100
AcDbSpline
 70
8
 71
3
 72
8
 73
4
 74
0
 40
0
 40
0
 40
0
 40
0
 40
1
 40
1
 40
1
 40
1
 10
162.051585
 20
124.097418
 30
0.0
 10
162.479422
 20
124.096259
 30
0.0
 10
162.894005
 20
124.245788
 30
0.0
 10
163.222604
 20
124.519775
 30
0.0
  0
LINE
  5
2c0
100
AcDbEntity
  8
Layer_1
 62
1
100
AcDbLine
 10
163.222604
 20
124.519775
 30
0.0
 11
164.995686
 21
125.998167
 31
0.0
  0
SPLINE
  5
2c1
100
AcDbEntity
  8
Layer_1
 62
1
100
AcDbSpline
 70
8
 71
3
 72
8
 73
4
 74
0
 40
0
 40
0
 40
0
 40
0
 40
1
 40
1
 40
1
 40
1
 10
164.995686
 20
125.998167
 30
0.0
 10
165.074036
 20
126.063493
 30
0.0
 10
165.103307
 20
126.170763
 30
0.0
 10
165.068999
 20
126.266831
 30
0.0
  0
SPLINE
  5
2c2
100
AcDbEntity
  8
Layer_1
 62
1
100
AcDbSpline
 70
8
 71
3
 72
8
 73
4
 74
0
 40
0
 40
0
 40
0
 40
0
 40
1
 40
1
 40
1
 40
1
 10
165.068999
 20
126.266831
 30
0.0
 10
165.034690
 20
126.362900
 30
0.0
 10
164.944088
 20
126.427359
 30
0.0
 10
164.842081
 20
126.428274
 30
0.0
  0
LINE
  5
2c3
100
AcDbEntity
  8
Layer_1
 62
1
100
AcDbLine
 10
164.842081
 20
126.428274
 30
0.0
 11
164.842081
 21
126.428268
 31
0.0
  0
LINE
  5
2c4
100
AcDbEntity
  8
Layer_1
 62
1
100
AcDbLine
 10
143.774592
 20
128.116447
 30
0.0
 11
145.297020
 21
126.873452
 31
0.0
  0
SPLINE
  5
2c5
100
AcDbEntity
  8
Layer_1
 62
1
100
AcDbSpline
 70
8
 71
3
 72
8
 73
4
 74
0
 40
0
 40
0
 40
0
 40
0
 40
1
 40
1
 40
1
 40
1
 10
145.297020
 20
126.873452
 30
0.0
 10
145.421935
 20
126.771466
 30
0.0
 10
145.493861
 20
126.618334
 30
0.0
 10
145.492589
 20
126.457078
 30
0.0
  0
SPLINE
  5
2c6
100
AcDbEntity
  8
Layer_1
 62
1
100
AcDbSpline
 70
8
 71
3
 72
8
 73
4
 74
0
 40
0
 40
0
 40
0
 40
0
 40
1
 40
1
 40
1
 40
1
 10
145.492589
 20
126.457078
 30
0.0
 10
145.491318
 20
126.295822
 30
0.0
 10
145.416987
 20
126.143843
 30
0.0
 10
145.290480
 20
126.043839
 30
0.0
  0
LINE
  5
2c7
100
AcDbEntity
  8
Layer_1
 62
1
100
AcDbLine
 10
145.290480
 20
126.043839
 30
0.0
 11
143.347504
 21
124.507935
 31
0.0
  0
SPLINE
  5
2c8
100
AcDbEntity
  8
Layer_1
 62
1
100
AcDbSpline
 70
8
 71
3
 72
8
 73
4
 74
0
 40
0
 40
0
 40
0
 40
0
 40
1
 40
1
 40
1
 40
1
 10
143.347504
 20
124.507935
 30
0.0
 10
143.010983
 20
124.241917
 30
0.0
 10
142.594552
 20
124.097219
 30
0.0
 10
142.165586
 20
124.097252
 30
0.0
  0
LINE
  5
2c9
100
AcDbEntity
  8
Layer_1
 62
1
100
AcDbLine
 10
142.165586
 20
124.097252
 30
0.0
 11
135.415939
 21
124.097878
 31
0.0
  0
SPLINE
  5
2ca
100
AcDbEntity
  8
Layer_1
 62
1
100
AcDbSpline
 70
8
 71
3
 72
8
 73
4
 74
0
 40
0
 40
0
 40
0
 40
0
 40
1
 40
1
 40
1
 40
1
 10
135.415939
 20
124.097878
 30
0.0
 10
135.317526
 20
124.097886
 30
0.0
 10
135.229874
 20
124.160111
 30
0.0
 10
135.197407
 20
124.253014
 30
0.0
  0
SPLINE
  5
2cb
100
AcDbEntity
  8
Layer_1
 62
1
100
AcDbSpline
 70
8
 71
3
 72
8
 73
4
 74
0
 40
0
 40
0
 40
0
 40
0
 40
1
 40
1
 40
1
 40
1
 10
135.197407
 20
124.253014
 30
0.0
 10
135.164941
 20
124.345918
 30
0.0
 10
135.194757
 20
124.449193
 30
0.0
 10
135.271744
 20
124.510497
 30
0.0
  0
LINE
  5
2cc
100
AcDbEntity
  8
Layer_1
 62
1
100
AcDbLine
 10
135.271744
 20
124.510497
 30
0.0
 11
137.114081
 21
125.977483
 31
0.0
  0
SPLINE
  5
2cd
100
AcDbEntity
  8
Layer_1
 62
1
100
AcDbSpline
 70
8
 71
3
 72
8
 73
4
 74
0
 40
0
 40
0
 40
0
 40
0
 40
1
 40
1
 40
1
 40
1
 10
137.114081
 20
125.977483
 30
0.0
 10
137.449386
 20
126.244473
 30
0.0
 10
137.865919
 20
126.388755
 30
0.0
 10
138.294529
 20
126.386376
 30
0.0
  0
LINE
  5
2ce
100
AcDbEntity
  8
Layer_1
 62
1
100
AcDbLine
 10
138.294529
 20
126.386376
 30
0.0
 11
139.873280
 21
126.377614
 31
0.0
  0
SPLINE
  5
2cf
100
AcDbEntity
  8
Layer_1
 62
1
100
AcDbSpline
 70
8
 71
3
 72
8
 73
4
 74
0
 40
0
 40
0
 40
0
 40
0
 40
1
 40
1
 40
1
 40
1
 10
139.873280
 20
126.377614
 30
0.0
 10
140.301970
 20
126.375235
 30
0.0
 10
140.718659
 20
126.519095
 30
0.0
 10
141.054570
 20
126.785449
 30
0.0
  0
LINE
  5
2d0
100
AcDbEntity
  8
Layer_1
 62
1
100
AcDbLine
 10
141.054570
 20
126.785449
 30
0.0
 11
142.742574
 21
128.123916
 31
0.0
  0
SPLINE
  5
2d1
100
AcDbEntity
  8
Layer_1
 62
1
100
AcDbSpline
 70
8
 71
3
 72
8
 73
4
 74
0
 40
0
 40
0
 40
0
 40
0
 40
1
 40
1
 40
1
 40
1
 10
142.742574
 20
128.123916
 30
0.0
 10
143.045604
 20
128.364191
 30
0.0
 10
143.475034
 20
128.361118
 30
0.0
 10
143.774595
 20
128.116532
 30
0.0
  0
LINE
  5
2d2
100
AcDbEntity
  8
Layer_1
 62
1
100
AcDbLine
 10
143.774595
 20
128.116532
 30
0.0
 11
143.774592
 21
128.116447
 31
0.0
  0
LINE
  5
2d3
100
AcDbEntity
  8
Layer_1
 62
1
100
AcDbLine
 10
127.953301
 20
126.428268
 30
0.0
 11
122.100095
 21
126.480878
 31
0.0
  0
SPLINE
  5
2d4
100
AcDbEntity
  8
Layer_1
 62
1
100
AcDbSpline
 70
8
 71
3
 72
8
 73
4
 74
0
 40
0
 40
0
 40
0
 40
0
 40
1
 40
1
 40
1
 40
1
 10
122.100095
 20
126.480878
 30
0.0
 10
121.671285
 20
126.484733
 30
0.0
 10
121.253851
 20
126.343004
 30
0.0
 10
120.916033
 20
126.078860
 30
0.0
  0
LINE
  5
2d5
100
AcDbEntity
  8
Layer_1
 62
1
100
AcDbLine
 10
120.916033
 20
126.078860
 30
0.0
 11
118.927138
 21
124.523708
 31
0.0
  0
SPLINE
  5
2d6
100
AcDbEntity
  8
Layer_1
 62
1
100
AcDbSpline
 70
8
 71
3
 72
8
 73
4
 74
0
 40
0
 40
0
 40
0
 40
0
 40
1
 40
1
 40
1
 40
1
 10
118.927138
 20
124.523708
 30
0.0
 10
118.850177
 20
124.463531
 30
0.0
 10
118.819818
 20
124.361185
 30
0.0
 10
118.851517
 20
124.268776
 30
0.0
  0
SPLINE
  5
2d7
100
AcDbEntity
  8
Layer_1
 62
1
100
AcDbSpline
 70
8
 71
3
 72
8
 73
4
 74
0
 40
0
 40
0
 40
0
 40
0
 40
1
 40
1
 40
1
 40
1
 10
118.851517
 20
124.268776
 30
0.0
 10
118.883216
 20
124.176366
 30
0.0
 10
118.970005
 20
124.114206
 30
0.0
 10
119.067700
 20
124.113940
 30
0.0
  0
LINE
  5
2d8
100
AcDbEntity
  8
Layer_1
 62
1
100
AcDbLine
 10
119.067700
 20
124.113940
 30
0.0
 11
125.162805
 21
124.097418
 31
0.0
  0
SPLINE
  5
2d9
100
AcDbEntity
  8
Layer_1
 62
1
100
AcDbSpline
 70
8
 71
3
 72
8
 73
4
 74
0
 40
0
 40
0
 40
0
 40
0
 40
1
 40
1
 40
1
 40
1
 10
125.162805
 20
124.097418
 30
0.0
 10
125.590642
 20
124.096259
 30
0.0
 10
126.005225
 20
124.245788
 30
0.0
 10
126.333824
 20
124.519775
 30
0.0
  0
LINE
  5
2da
100
AcDbEntity
  8
Layer_1
 62
1
100
AcDbLine
 10
126.333824
 20
124.519775
 30
0.0
 11
128.106906
 21
125.998167
 31
0.0
  0
SPLINE
  5
2db
100
AcDbEntity
  8
Layer_1
 62
1
100
AcDbSpline
 70
8
 71
3
 72
8
 73
4
 74
0
 40
0
 40
0
 40
0
 40
0
 40
1
 40
1
 40
1
 40
1
 10
128.106906
 20
125.998167
 30
0.0
 10
128.185256
 20
126.063493
 30
0.0
 10
128.214527
 20
126.170763
 30
0.0
 10
128.180219
 20
126.266831
 30
0.0
  0
SPLINE
  5
2dc
100
AcDbEntity
  8
Layer_1
 62
1
100
AcDbSpline
 70
8
 71
3
 72
8
 73
4
 74
0
 40
0
 40
0
 40
0
 40
0
 40
1
 40
1
 40
1
 40
1
 10
128.180219
 20
126.266831
 30
0.0
 10
128.145910
 20
126.362900
 30
0.0
 10
128.055308
 20
126.427359
 30
0.0
 10
127.953301
 20
126.428274
 30
0.0
  0
LINE
  5
2dd
100
AcDbEntity
  8
Layer_1
 62
1
100
AcDbLine
 10
127.953301
 20
126.428274
 30
0.0
 11
127.953301
 21
126.428268
 31
0.0
  0
LINE
  5
2de
100
AcDbEntity
  8
Layer_1
 62
1
100
AcDbLine
 10
183.346817
 20
156.764118
 30
0.0
 11
177.493612
 21
156.711505
 31
0.0
  0
SPLINE
  5
2df
100
AcDbEntity
  8
Layer_1
 62
1
100
AcDbSpline
 70
8
 71
3
 72
8
 73
4
 74
0
 40
0
 40
0
 40
0
 40
0
 40
1
 40
1
 40
1
 40
1
 10
177.493612
 20
156.711505
 30
0.0
 10
177.064802
 20
156.707651
 30
0.0
 10
176.647368
 20
156.849380
 30
0.0
 10
176.309551
 20
157.113525
 30
0.0
  0
LINE
  5
2e0
100
AcDbEntity
  8
Layer_1
 62
1
100
AcDbLine
 10
176.309551
 20
157.113525
 30
0.0
 11
174.320653
 21
158.668675
 31
0.0
  0
SPLINE
  5
2e1
100
AcDbEntity
  8
Layer_1
 62
1
100
AcDbSpline
 70
8
 71
3
 72
8
 73
4
 74
0
 40
0
 40
0
 40
0
 40
0
 40
1
 40
1
 40
1
 40
1
 10
174.320653
 20
158.668675
 30
0.0
 10
174.243692
 20
158.728853
 30
0.0
 10
174.213332
 20
158.831199
 30
0.0
 10
174.245032
 20
158.923609
 30
0.0
  0
SPLINE
  5
2e2
100
AcDbEntity
  8
Layer_1
 62
1
100
AcDbSpline
 70
8
 71
3
 72
8
 73
4
 74
0
 40
0
 40
0
 40
0
 40
0
 40
1
 40
1
 40
1
 40
1
 10
174.245032
 20
158.923609
 30
0.0
 10
174.276731
 20
159.016019
 30
0.0
 10
174.363521
 20
159.078180
 30
0.0
 10
174.461217
 20
159.078444
 30
0.0
  0
LINE
  5
2e3
100
AcDbEntity
  8
Layer_1
 62
1
100
AcDbLine
 10
174.461217
 20
159.078444
 30
0.0
 11
180.556322
 21
159.094972
 31
0.0
  0
SPLINE
  5
2e4
100
AcDbEntity
  8
Layer_1
 62
1
100
AcDbSpline
 70
8
 71
3
 72
8
 73
4
 74
0
 40
0
 40
0
 40
0
 40
0
 40
1
 40
1
 40
1
 40
1
 10
180.556322
 20
159.094972
 30
0.0
 10
180.984159
 20
159.096132
 30
0.0
 10
181.398743
 20
158.946603
 30
0.0
 10
181.727342
 20
158.672617
 30
0.0
  0
LINE
  5
2e5
100
AcDbEntity
  8
Layer_1
 62
1
100
AcDbLine
 10
181.727342
 20
158.672617
 30
0.0
 11
183.500421
 21
157.194223
 31
0.0
  0
SPLINE
  5
2e6
100
AcDbEntity
  8
Layer_1
 62
1
100
AcDbSpline
 70
8
 71
3
 72
8
 73
4
 74
0
 40
0
 40
0
 40
0
 40
0
 40
1
 40
1
 40
1
 40
1
 10
183.500421
 20
157.194223
 30
0.0
 10
183.578769
 20
157.128896
 30
0.0
 10
183.608039
 20
157.021628
 30
0.0
 10
183.573731
 20
156.925561
 30
0.0
  0
SPLINE
  5
2e7
100
AcDbEntity
  8
Layer_1
 62
1
100
AcDbSpline
 70
8
 71
3
 72
8
 73
4
 74
0
 40
0
 40
0
 40
0
 40
0
 40
1
 40
1
 40
1
 40
1
 10
183.573731
 20
156.925561
 30
0.0
 10
183.539422
 20
156.829494
 30
0.0
 10
183.448822
 20
156.765035
 30
0.0
 10
183.346817
 20
156.764118
 30
0.0
  0
LINE
  5
2e8
100
AcDbEntity
  8
Layer_1
 62
1
100
AcDbLine
 10
183.346817
 20
156.764118
 30
0.0
 11
183.346817
 21
156.764118
 31
0.0
  0
LINE
  5
2e9
100
AcDbEntity
  8
Layer_1
 62
1
100
AcDbLine
 10
162.279330
 20
155.075936
 30
0.0
 11
163.801758
 21
156.318933
 31
0.0
  0
SPLINE
  5
2ea
100
AcDbEntity
  8
Layer_1
 62
1
100
AcDbSpline
 70
8
 71
3
 72
8
 73
4
 74
0
 40
0
 40
0
 40
0
 40
0
 40
1
 40
1
 40
1
 40
1
 10
163.801758
 20
156.318933
 30
0.0
 10
163.926672
 20
156.420920
 30
0.0
 10
163.998598
 20
156.574051
 30
0.0
 10
163.997327
 20
156.735307
 30
0.0
  0
SPLINE
  5
2eb
100
AcDbEntity
  8
Layer_1
 62
1
100
AcDbSpline
 70
8
 71
3
 72
8
 73
4
 74
0
 40
0
 40
0
 40
0
 40
0
 40
1
 40
1
 40
1
 40
1
 10
163.997327
 20
156.735307
 30
0.0
 10
163.996056
 20
156.896562
 30
0.0
 10
163.921725
 20
157.048541
 30
0.0
 10
163.795218
 20
157.148546
 30
0.0
  0
LINE
  5
2ec
100
AcDbEntity
  8
Layer_1
 62
1
100
AcDbLine
 10
163.795218
 20
157.148546
 30
0.0
 11
161.852242
 21
158.684449
 31
0.0
  0
SPLINE
  5
2ed
100
AcDbEntity
  8
Layer_1
 62
1
100
AcDbSpline
 70
8
 71
3
 72
8
 73
4
 74
0
 40
0
 40
0
 40
0
 40
0
 40
1
 40
1
 40
1
 40
1
 10
161.852242
 20
158.684449
 30
0.0
 10
161.515721
 20
158.950467
 30
0.0
 10
161.099290
 20
159.095164
 30
0.0
 10
160.670324
 20
159.095131
 30
0.0
  0
LINE
  5
2ee
100
AcDbEntity
  8
Layer_1
 62
1
100
AcDbLine
 10
160.670324
 20
159.095131
 30
0.0
 11
153.920677
 21
159.094599
 31
0.0
  0
SPLINE
  5
2ef
100
AcDbEntity
  8
Layer_1
 62
1
100
AcDbSpline
 70
8
 71
3
 72
8
 73
4
 74
0
 40
0
 40
0
 40
0
 40
0
 40
1
 40
1
 40
1
 40
1
 10
153.920677
 20
159.094599
 30
0.0
 10
153.822262
 20
159.094592
 30
0.0
 10
153.734608
 20
159.032367
 30
0.0
 10
153.702142
 20
158.939462
 30
0.0
  0
SPLINE
  5
2f0
100
AcDbEntity
  8
Layer_1
 62
1
100
AcDbSpline
 70
8
 71
3
 72
8
 73
4
 74
0
 40
0
 40
0
 40
0
 40
0
 40
1
 40
1
 40
1
 40
1
 10
153.702142
 20
158.939462
 30
0.0
 10
153.669675
 20
158.846557
 30
0.0
 10
153.699493
 20
158.743281
 30
0.0
 10
153.776481
 20
158.681977
 30
0.0
  0
LINE
  5
2f1
100
AcDbEntity
  8
Layer_1
 62
1
100
AcDbLine
 10
153.776481
 20
158.681977
 30
0.0
 11
155.618819
 21
157.214994
 31
0.0
  0
SPLINE
  5
2f2
100
AcDbEntity
  8
Layer_1
 62
1
100
AcDbSpline
 70
8
 71
3
 72
8
 73
4
 74
0
 40
0
 40
0
 40
0
 40
0
 40
1
 40
1
 40
1
 40
1
 10
155.618819
 20
157.214994
 30
0.0
 10
155.954123
 20
156.948003
 30
0.0
 10
156.370656
 20
156.803721
 30
0.0
 10
156.799267
 20
156.806099
 30
0.0
  0
LINE
  5
2f3
100
AcDbEntity
  8
Layer_1
 62
1
100
AcDbLine
 10
156.799267
 20
156.806099
 30
0.0
 11
158.378018
 21
156.814861
 31
0.0
  0
SPLINE
  5
2f4
100
AcDbEntity
  8
Layer_1
 62
1
100
AcDbSpline
 70
8
 71
3
 72
8
 73
4
 74
0
 40
0
 40
0
 40
0
 40
0
 40
1
 40
1
 40
1
 40
1
 10
158.378018
 20
156.814861
 30
0.0
 10
158.806708
 20
156.817240
 30
0.0
 10
159.223396
 20
156.673380
 30
0.0
 10
159.559307
 20
156.407026
 30
0.0
  0
LINE
  5
2f5
100
AcDbEntity
  8
Layer_1
 62
1
100
AcDbLine
 10
159.559307
 20
156.407026
 30
0.0
 11
161.247311
 21
155.068558
 31
0.0
  0
SPLINE
  5
2f6
100
AcDbEntity
  8
Layer_1
 62
1
100
AcDbSpline
 70
8
 71
3
 72
8
 73
4
 74
0
 40
0
 40
0
 40
0
 40
0
 40
1
 40
1
 40
1
 40
1
 10
161.247311
 20
155.068558
 30
0.0
 10
161.550338
 20
154.828279
 30
0.0
 10
161.979769
 20
154.831345
 30
0.0
 10
162.279333
 20
155.075927
 30
0.0
  0
LINE
  5
2f7
100
AcDbEntity
  8
Layer_1
 62
1
100
AcDbLine
 10
162.279333
 20
155.075927
 30
0.0
 11
162.279330
 21
155.075936
 31
0.0
  0
LINE
  5
2f8
100
AcDbEntity
  8
Layer_1
 62
1
100
AcDbLine
 10
146.458039
 20
156.764118
 30
0.0
 11
140.604833
 21
156.711505
 31
0.0
  0
SPLINE
  5
2f9
100
AcDbEntity
  8
Layer_1
 62
1
100
AcDbSpline
 70
8
 71
3
 72
8
 73
4
 74
0
 40
0
 40
0
 40
0
 40
0
 40
1
 40
1
 40
1
 40
1
 10
140.604833
 20
156.711505
 30
0.0
 10
140.176023
 20
156.707650
 30
0.0
 10
139.758589
 20
156.849380
 30
0.0
 10
139.420771
 20
157.113525
 30
0.0
  0
LINE
  5
2fa
100
AcDbEntity
  8
Layer_1
 62
1
100
AcDbLine
 10
139.420771
 20
157.113525
 30
0.0
 11
137.431876
 21
158.668675
 31
0.0
  0
SPLINE
  5
2fb
100
AcDbEntity
  8
Layer_1
 62
1
100
AcDbSpline
 70
8
 71
3
 72
8
 73
4
 74
0
 40
0
 40
0
 40
0
 40
0
 40
1
 40
1
 40
1
 40
1
 10
137.431876
 20
158.668675
 30
0.0
 10
137.354914
 20
158.728853
 30
0.0
 10
137.324555
 20
158.831199
 30
0.0
 10
137.356254
 20
158.923609
 30
0.0
  0
SPLINE
  5
2fc
100
AcDbEntity
  8
Layer_1
 62
1
100
AcDbSpline
 70
8
 71
3
 72
8
 73
4
 74
0
 40
0
 40
0
 40
0
 40
0
 40
1
 40
1
 40
1
 40
1
 10
137.356254
 20
158.923609
 30
0.0
 10
137.387954
 20
159.016019
 30
0.0
 10
137.474743
 20
159.078179
 30
0.0
 10
137.572438
 20
159.078444
 30
0.0
  0
LINE
  5
2fd
100
AcDbEntity
  8
Layer_1
 62
1
100
AcDbLine
 10
137.572438
 20
159.078444
 30
0.0
 11
143.667543
 21
159.094972
 31
0.0
  0
SPLINE
  5
2fe
100
AcDbEntity
  8
Layer_1
 62
1
100
AcDbSpline
 70
8
 71
3
 72
8
 73
4
 74
0
 40
0
 40
0
 40
0
 40
0
 40
1
 40
1
 40
1
 40
1
 10
143.667543
 20
159.094972
 30
0.0
 10
144.095380
 20
159.096132
 30
0.0
 10
144.509963
 20
158.946603
 30
0.0
 10
144.838562
 20
158.672617
 30
0.0
  0
LINE
  5
2ff
100
AcDbEntity
  8
Layer_1
 62
1
100
AcDbLine
 10
144.838562
 20
158.672617
 30
0.0
 11
146.611643
 21
157.194223
 31
0.0
  0
SPLINE
  5
300
100
AcDbEntity
  8
Layer_1
 62
1
100
AcDbSpline
 70
8
 71
3
 72
8
 73
4
 74
0
 40
0
 40
0
 40
0
 40
0
 40
1
 40
1
 40
1
 40
1
 10
146.611643
 20
157.194223
 30
0.0
 10
146.689991
 20
157.128896
 30
0.0
 10
146.719262
 20
157.021627
 30
0.0
 10
146.684953
 20
156.925560
 30
0.0
  0
SPLINE
  5
301
100
AcDbEntity
  8
Layer_1
 62
1
100
AcDbSpline
 70
8
 71
3
 72
8
 73
4
 74
0
 40
0
 40
0
 40
0
 40
0
 40
1
 40
1
 40
1
 40
1
 10
146.684953
 20
156.925560
 30
0.0
 10
146.650644
 20
156.829493
 30
0.0
 10
146.560044
 20
156.765034
 30
0.0
 10
146.458039
 20
156.764118
 30
0.0
  0
LINE
  5
302
100
AcDbEntity
  8
Layer_1
 62
1
100
AcDbLine
 10
146.458039
 20
156.764118
 30
0.0
 11
146.458039
 21
156.764118
 31
0.0
  0
LINE
  5
303
100
AcDbEntity
  8
Layer_1
 62
1
100
AcDbLine
 10
125.372655
 20
155.075936
 30
0.0
 11
126.895083
 21
156.318933
 31
0.0
  0
SPLINE
  5
304
100
AcDbEntity
  8
Layer_1
 62
1
100
AcDbSpline
 70
8
 71
3
 72
8
 73
4
 74
0
 40
0
 40
0
 40
0
 40
0
 40
1
 40
1
 40
1
 40
1
 10
126.895083
 20
156.318933
 30
0.0
 10
127.019997
 20
156.420920
 30
0.0
 10
127.091923
 20
156.574051
 30
0.0
 10
127.090652
 20
156.735307
 30
0.0
  0
SPLINE
  5
305
100
AcDbEntity
  8
Layer_1
 62
1
100
AcDbSpline
 70
8
 71
3
 72
8
 73
4
 74
0
 40
0
 40
0
 40
0
 40
0
 40
1
 40
1
 40
1
 40
1
 10
127.090652
 20
156.735307
 30
0.0
 10
127.089381
 20
156.896562
 30
0.0
 10
127.015050
 20
157.048541
 30
0.0
 10
126.888543
 20
157.148546
 30
0.0
  0
LINE
  5
306
100
AcDbEntity
  8
Layer_1
 62
1
100
AcDbLine
 10
126.888543
 20
157.148546
 30
0.0
 11
124.945567
 21
158.684449
 31
0.0
  0
SPLINE
  5
307
100
AcDbEntity
  8
Layer_1
 62
1
100
AcDbSpline
 70
8
 71
3
 72
8
 73
4
 74
0
 40
0
 40
0
 40
0
 40
0
 40
1
 40
1
 40
1
 40
1
 10
124.945567
 20
158.684449
 30
0.0
 10
124.609046
 20
158.950467
 30
0.0
 10
124.192615
 20
159.095164
 30
0.0
 10
123.763649
 20
159.095131
 30
0.0
  0
LINE
  5
308
100
AcDbEntity
  8
Layer_1
 62
1
100
AcDbLine
 10
123.763649
 20
159.095131
 30
0.0
 11
117.014002
 21
159.094599
 31
0.0
  0
SPLINE
  5
309
100
AcDbEntity
  8
Layer_1
 62
1
100
AcDbSpline
 70
8
 71
3
 72
8
 73
4
 74
0
 40
0
 40
0
 40
0
 40
0
 40
1
 40
1
 40
1
 40
1
 10
117.014002
 20
159.094599
 30
0.0
 10
116.915587
 20
159.094592
 30
0.0
 10
116.827933
 20
159.032367
 30
0.0
 10
116.795467
 20
158.939462
 30
0.0
  0
SPLINE
  5
30a
100
AcDbEntity
  8
Layer_1
 62
1
100
AcDbSpline
 70
8
 71
3
 72
8
 73
4
 74
0
 40
0
 40
0
 40
0
 40
0
 40
1
 40
1
 40
1
 40
1
 10
116.795467
 20
158.939462
 30
0.0
 10
116.763000
 20
158.846557
 30
0.0
 10
116.792818
 20
158.743281
 30
0.0
 10
116.869806
 20
158.681977
 30
0.0
  0
LINE
  5
30b
100
AcDbEntity
  8
Layer_1
 62
1
100
AcDbLine
 10
116.869806
 20
158.681977
 30
0.0
 11
118.712144
 21
157.214994
 31
0.0
  0
SPLINE
  5
30c
100
AcDbEntity
  8
Layer_1
 62
1
100
AcDbSpline
 70
8
 71
3
 72
8
 73
4
 74
0
 40
0
 40
0
 40
0
 40
0
 40
1
 40
1
 40
1
 40
1
 10
118.712144
 20
157.214994
 30
0.0
 10
119.047448
 20
156.948003
 30
0.0
 10
119.463981
 20
156.803721
 30
0.0
 10
119.892592
 20
156.806099
 30
0.0
  0
LINE
  5
30d
100
AcDbEntity
  8
Layer_1
 62
1
100
AcDbLine
 10
119.892592
 20
156.806099
 30
0.0
 11
121.471343
 21
156.814861
 31
0.0
  0
SPLINE
  5
30e
100
AcDbEntity
  8
Layer_1
 62
1
100
AcDbSpline
 70
8
 71
3
 72
8
 73
4
 74
0
 40
0
 40
0
 40
0
 40
0
 40
1
 40
1
 40
1
 40
1
 10
121.471343
 20
156.814861
 30
0.0
 10
121.900033
 20
156.817240
 30
0.0
 10
122.316721
 20
156.673380
 30
0.0
 10
122.652632
 20
156.407026
 30
0.0
  0
LINE
  5
30f
100
AcDbEntity
  8
Layer_1
 62
1
100
AcDbLine
 10
122.652632
 20
156.407026
 30
0.0
 11
124.340636
 21
155.068558
 31
0.0
  0
SPLINE
  5
310
100
AcDbEntity
  8
Layer_1
 62
1
100
AcDbSpline
 70
8
 71
3
 72
8
 73
4
 74
0
 40
0
 40
0
 40
0
 40
0
 40
1
 40
1
 40
1
 40
1
 10
124.340636
 20
155.068558
 30
0.0
 10
124.643663
 20
154.828279
 30
0.0
 10
125.073094
 20
154.831345
 30
0.0
 10
125.372658
 20
155.075927
 30
0.0
  0
LINE
  5
311
100
AcDbEntity
  8
Layer_1
 62
1
100
AcDbLine
 10
125.372658
 20
155.075927
 30
0.0
 11
125.372655
 21
155.075936
 31
0.0
  0
LINE
  5
312
100
AcDbEntity
  8
Layer_1
 62
1
100
AcDbLine
 10
116.140851
 20
143.389943
 30
0.0
 11
113.039009
 21
139.566029
 31
0.0
  0
SPLINE
  5
313
100
AcDbEntity
  8
Layer_1
 62
1
100
AcDbSpline
 70
8
 71
3
 72
8
 73
4
 74
0
 40
0
 40
0
 40
0
 40
0
 40
1
 40
1
 40
1
 40
1
 10
113.039009
 20
139.566029
 30
0.0
 10
112.808011
 20
139.281258
 30
0.0
 10
112.461062
 20
139.115643
 30
0.0
 10
112.094383
 20
139.115112
 30
0.0
  0
LINE
  5
314
100
AcDbEntity
  8
Layer_1
 62
1
100
AcDbLine
 10
112.094383
 20
139.115112
 30
0.0
 11
108.906303
 21
139.110513
 31
0.0
  0
SPLINE
  5
315
100
AcDbEntity
  8
Layer_1
 62
1
100
AcDbSpline
 70
8
 71
3
 72
8
 73
4
 74
0
 40
0
 40
0
 40
0
 40
0
 40
1
 40
1
 40
1
 40
1
 10
108.906303
 20
139.110513
 30
0.0
 10
108.799117
 20
139.110358
 30
0.0
 10
108.701318
 20
139.171619
 30
0.0
 10
108.654683
 20
139.268128
 30
0.0
  0
SPLINE
  5
316
100
AcDbEntity
  8
Layer_1
 62
1
100
AcDbSpline
 70
8
 71
3
 72
8
 73
4
 74
0
 40
0
 40
0
 40
0
 40
0
 40
1
 40
1
 40
1
 40
1
 10
108.654683
 20
139.268128
 30
0.0
 10
108.608049
 20
139.364637
 30
0.0
 10
108.620823
 20
139.479330
 30
0.0
 10
108.687550
 20
139.563212
 30
0.0
  0
LINE
  5
317
100
AcDbEntity
  8
Layer_1
 62
1
100
AcDbLine
 10
108.687550
 20
139.563212
 30
0.0
 11
111.728906
 21
143.386488
 31
0.0
  0
SPLINE
  5
318
100
AcDbEntity
  8
Layer_1
 62
1
100
AcDbSpline
 70
8
 71
3
 72
8
 73
4
 74
0
 40
0
 40
0
 40
0
 40
0
 40
1
 40
1
 40
1
 40
1
 10
111.728906
 20
143.386488
 30
0.0
 10
111.956863
 20
143.673051
 30
0.0
 10
112.303051
 20
143.840026
 30
0.0
 10
112.669224
 20
143.840027
 30
0.0
  0
LINE
  5
319
100
AcDbEntity
  8
Layer_1
 62
1
100
AcDbLine
 10
112.669224
 20
143.840027
 30
0.0
 11
115.926407
 21
143.840033
 31
0.0
  0
SPLINE
  5
31a
100
AcDbEntity
  8
Layer_1
 62
1
100
AcDbSpline
 70
8
 71
3
 72
8
 73
4
 74
0
 40
0
 40
0
 40
0
 40
0
 40
1
 40
1
 40
1
 40
1
 10
115.926407
 20
143.840033
 30
0.0
 10
116.032889
 20
143.840033
 30
0.0
 10
116.129882
 20
143.778806
 30
0.0
 10
116.175683
 20
143.682678
 30
0.0
  0
SPLINE
  5
31b
100
AcDbEntity
  8
Layer_1
 62
1
100
AcDbSpline
 70
8
 71
3
 72
8
 73
4
 74
0
 40
0
 40
0
 40
0
 40
0
 40
1
 40
1
 40
1
 40
1
 10
116.175683
 20
143.682678
 30
0.0
 10
116.221484
 20
143.586549
 30
0.0
 10
116.207931
 20
143.472651
 30
0.0
 10
116.140851
 20
143.389955
 30
0.0
  0
LINE
  5
31c
100
AcDbEntity
  8
Layer_1
 62
1
100
AcDbLine
 10
116.140851
 20
143.389955
 30
0.0
 11
116.140851
 21
143.389943
 31
0.0
  0
LINE
  5
31d
100
AcDbEntity
  8
Layer_1
 62
1
100
AcDbLine
 10
113.291309
 20
135.294271
 30
0.0
 11
115.706393
 21
132.578412
 31
0.0
  0
SPLINE
  5
31e
100
AcDbEntity
  8
Layer_1
 62
1
100
AcDbSpline
 70
8
 71
3
 72
8
 73
4
 74
0
 40
0
 40
0
 40
0
 40
0
 40
1
 40
1
 40
1
 40
1
 10
115.706393
 20
132.578412
 30
0.0
 10
115.927780
 20
132.329462
 30
0.0
 10
115.917551
 20
131.958016
 30
0.0
 10
115.682803
 20
131.721728
 30
0.0
  0
LINE
  5
31f
100
AcDbEntity
  8
Layer_1
 62
1
100
AcDbLine
 10
115.682803
 20
131.721728
 30
0.0
 11
112.761516
 21
128.781398
 31
0.0
  0
SPLINE
  5
320
100
AcDbEntity
  8
Layer_1
 62
1
100
AcDbSpline
 70
8
 71
3
 72
8
 73
4
 74
0
 40
0
 40
0
 40
0
 40
0
 40
1
 40
1
 40
1
 40
1
 10
112.761516
 20
128.781398
 30
0.0
 10
112.655190
 20
128.674378
 30
0.0
 10
112.507320
 20
128.615827
 30
0.0
 10
112.354101
 20
128.620077
 30
0.0
  0
SPLINE
  5
321
100
AcDbEntity
  8
Layer_1
 62
1
100
AcDbSpline
 70
8
 71
3
 72
8
 73
4
 74
0
 40
0
 40
0
 40
0
 40
0
 40
1
 40
1
 40
1
 40
1
 10
112.354101
 20
128.620077
 30
0.0
 10
112.200883
 20
128.624327
 30
0.0
 10
112.056458
 20
128.690986
 30
0.0
 10
111.956179
 20
128.803737
 30
0.0
  0
LINE
  5
322
100
AcDbEntity
  8
Layer_1
 62
1
100
AcDbLine
 10
111.956179
 20
128.803737
 30
0.0
 11
109.578884
 21
131.476707
 31
0.0
  0
SPLINE
  5
323
100
AcDbEntity
  8
Layer_1
 62
1
100
AcDbSpline
 70
8
 71
3
 72
8
 73
4
 74
0
 40
0
 40
0
 40
0
 40
0
 40
1
 40
1
 40
1
 40
1
 10
109.578884
 20
131.476707
 30
0.0
 10
109.356868
 20
131.726335
 30
0.0
 10
109.365055
 20
132.098274
 30
0.0
 10
109.597835
 20
132.337647
 30
0.0
  0
LINE
  5
324
100
AcDbEntity
  8
Layer_1
 62
1
100
AcDbLine
 10
109.597835
 20
132.337647
 30
0.0
 11
112.490619
 21
135.312355
 31
0.0
  0
SPLINE
  5
325
100
AcDbEntity
  8
Layer_1
 62
1
100
AcDbSpline
 70
8
 71
3
 72
8
 73
4
 74
0
 40
0
 40
0
 40
0
 40
0
 40
1
 40
1
 40
1
 40
1
 10
112.490619
 20
135.312355
 30
0.0
 10
112.595324
 20
135.420024
 30
0.0
 10
112.742171
 20
135.479505
 30
0.0
 10
112.894773
 20
135.476057
 30
0.0
  0
SPLINE
  5
326
100
AcDbEntity
  8
Layer_1
 62
1
100
AcDbSpline
 70
8
 71
3
 72
8
 73
4
 74
0
 40
0
 40
0
 40
0
 40
0
 40
1
 40
1
 40
1
 40
1
 10
112.894773
 20
135.476057
 30
0.0
 10
113.047375
 20
135.472610
 30
0.0
 10
113.191453
 20
135.406558
 30
0.0
 10
113.291306
 20
135.294267
 30
0.0
  0
LINE
  5
327
100
AcDbEntity
  8
Layer_1
 62
1
100
AcDbLine
 10
113.291306
 20
135.294267
 30
0.0
 11
113.291309
 21
135.294271
 31
0.0
  0
LINE
  5
328
100
AcDbEntity
  8
Layer_1
 62
1
100
AcDbLine
 10
108.222728
 20
153.612043
 30
0.0
 11
114.177676
 21
153.606912
 31
0.0
  0
SPLINE
  5
329
100
AcDbEntity
  8
Layer_1
 62
1
100
AcDbSpline
 70
8
 71
3
 72
8
 73
4
 74
0
 40
0
 40
0
 40
0
 40
0
 40
1
 40
1
 40
1
 40
1
 10
114.177676
 20
153.606912
 30
0.0
 10
114.596709
 20
153.606551
 30
0.0
 10
114.993272
 20
153.417394
 30
0.0
 10
115.257251
 20
153.091965
 30
0.0
  0
LINE
  5
32a
100
AcDbEntity
  8
Layer_1
 62
1
100
AcDbLine
 10
115.257251
 20
153.091965
 30
0.0
 11
118.254781
 21
149.396643
 31
0.0
  0
SPLINE
  5
32b
100
AcDbEntity
  8
Layer_1
 62
1
100
AcDbSpline
 70
8
 71
3
 72
8
 73
4
 74
0
 40
0
 40
0
 40
0
 40
0
 40
1
 40
1
 40
1
 40
1
 10
118.254781
 20
149.396643
 30
0.0
 10
118.331445
 20
149.302133
 30
0.0
 10
118.346934
 20
149.171963
 30
0.0
 10
118.294589
 20
149.062102
 30
0.0
  0
SPLINE
  5
32c
100
AcDbEntity
  8
Layer_1
 62
1
100
AcDbSpline
 70
8
 71
3
 72
8
 73
4
 74
0
 40
0
 40
0
 40
0
 40
0
 40
1
 40
1
 40
1
 40
1
 10
118.294589
 20
149.062102
 30
0.0
 10
118.242245
 20
148.952241
 30
0.0
 10
118.131395
 20
148.882268
 30
0.0
 10
118.009701
 20
148.882268
 30
0.0
  0
LINE
  5
32d
100
AcDbEntity
  8
Layer_1
 62
1
100
AcDbLine
 10
118.009701
 20
148.882268
 30
0.0
 11
111.206603
 21
148.882276
 31
0.0
  0
SPLINE
  5
32e
100
AcDbEntity
  8
Layer_1
 62
1
100
AcDbSpline
 70
8
 71
3
 72
8
 73
4
 74
0
 40
0
 40
0
 40
0
 40
0
 40
1
 40
1
 40
1
 40
1
 10
111.206603
 20
148.882276
 30
0.0
 10
110.794325
 20
148.882276
 30
0.0
 10
110.410869
 20
149.093765
 30
0.0
 10
110.190911
 20
149.442465
 30
0.0
  0
LINE
  5
32f
100
AcDbEntity
  8
Layer_1
 62
1
100
AcDbLine
 10
110.190911
 20
149.442465
 30
0.0
 11
107.913763
 21
153.052441
 31
0.0
  0
SPLINE
  5
330
100
AcDbEntity
  8
Layer_1
 62
1
100
AcDbSpline
 70
8
 71
3
 72
8
 73
4
 74
0
 40
0
 40
0
 40
0
 40
0
 40
1
 40
1
 40
1
 40
1
 10
107.913763
 20
153.052441
 30
0.0
 10
107.842813
 20
153.164920
 30
0.0
 10
107.838668
 20
153.307090
 30
0.0
 10
107.902945
 20
153.423512
 30
0.0
  0
SPLINE
  5
331
100
AcDbEntity
  8
Layer_1
 62
1
100
AcDbSpline
 70
8
 71
3
 72
8
 73
4
 74
0
 40
0
 40
0
 40
0
 40
0
 40
1
 40
1
 40
1
 40
1
 10
107.902945
 20
153.423512
 30
0.0
 10
107.967221
 20
153.539933
 30
0.0
 10
108.089741
 20
153.612171
 30
0.0
 10
108.222728
 20
153.612056
 30
0.0
  0
LINE
  5
332
100
AcDbEntity
  8
Layer_1
 62
1
100
AcDbLine
 10
108.222728
 20
153.612056
 30
0.0
 11
108.222728
 21
153.612043
 31
0.0
  0
ENDSEC
  0
SECTION
  2
OBJECTS
  0
DICTIONARY
  5
C
330
0
100
AcDbDictionary
  3
ACAD_GROUP
350
D
  3
ACAD_MLINESTYLE
350
17
  0
DICTIONARY
  5
D
330
C
100
AcDbDictionary
  0
DICTIONARY
  5
1A
330
C
100
AcDbDictionary
  0
DICTIONARY
  5
17
330
C
100
AcDbDictionary
  3
STANDARD
350
18
  0
DICTIONARY
  5
19
330
C
100
AcDbDictionary
  0
ENDSEC
  0
EOF
