  0
SECTION
  2
HEADER
  9
$ACADVER
  1
AC1014
  9
$HANDSEED
  5
FFFF
  9
$INSUNITS
 70
     0
  9
$MEASUREMENT
 70
     1
  0
ENDSEC
  0
SECTION
  2
TABLES
  0
TABLE
  2
VPORT
  5
8
330
0
100
AcDbSymbolTable
 70
     4
  0
VPORT
  5
2E
330
8
100
AcDbSymbolTableRecord
100
AcDbViewportTableRecord
  2
*ACTIVE
 70
     0
 10
0.0
 20
0.0
 11
1.0
 21
1.0
 12
210.0
 22
148.5
 13
0.0
 23
0.0
 14
10.0
 24
10.0
 15
10.0
 25
10.0
 16
0.0
 26
0.0
 36
1.0
 17
0.0
 27
0.0
 37
0.0
 40
341.0
 41
1.24
 42
50.0
 43
0.0
 44
0.0
 50
0.0
 51
0.0
 71
     0
 72
   100
 73
     1
 74
     3
 75
     0
 76
     0
 77
     0
 78
     0
  0
ENDTAB
  0
TABLE
  2
LTYPE
  5
5
330
0
100
AcDbSymbolTable
 70
     1
  0
LTYPE
  5
14
330
5
100
AcDbSymbolTableRecord
100
AcDbLinetypeTableRecord
  2
BYBLOCK
 70
     0
  3

 72
    65
 73
     0
 40
0.0
  0
LTYPE
  5
15
330
5
100
AcDbSymbolTableRecord
100
AcDbLinetypeTableRecord
  2
BYLAYER
 70
     0
  3

 72
    65
 73
     0
 40
0.0
  0
LTYPE
  5
16
330
5
100
AcDbSymbolTableRecord
100
AcDbLinetypeTableRecord
  2
CONTINUOUS
 70
     0
  3
Solid line
 72
    65
 73
     0
 40
0.0
  0
ENDTAB
  0
TABLE
  2
LAYER
  5
2
100
AcDbSymbolTable
 70
2
  0
LAYER
  5
50
100
AcDbSymbolTableRecord
100
AcDbLayerTableRecord
  2
0
 70
0
  6
CONTINUOUS
  0
LAYER
  5
51
100
AcDbSymbolTableRecord
100
AcDbLayerTableRecord
  2
Layer_1
 70
0
  6
CONTINUOUS
  0
ENDTAB
  0
TABLE
  2
STYLE
  5
3
330
0
100
AcDbSymbolTable
 70
     1
  0
STYLE
  5
11
330
3
100
AcDbSymbolTableRecord
100
AcDbTextStyleTableRecord
  2
STANDARD
 70
     0
 40
0.0
 41
1.0
 50
0.0
 71
     0
 42
2.5
  3
txt
  4

  0
ENDTAB
  0
TABLE
  2
VIEW
  5
6
330
0
100
AcDbSymbolTable
 70
     0
  0
ENDTAB
  0
TABLE
  2
UCS
  5
7
330
0
100
AcDbSymbolTable
 70
     0
  0
ENDTAB
  0
TABLE
  2
APPID
  5
9
330
0
100
AcDbSymbolTable
 70
     2
  0
APPID
  5
12
330
9
100
AcDbSymbolTableRecord
100
AcDbRegAppTableRecord
  2
ACAD
 70
     0
  0
ENDTAB
  0
TABLE
  2
DIMSTYLE
  5
A
330
0
100
AcDbSymbolTable
 70
     1
  0
DIMSTYLE
105
27
330
A
100
AcDbSymbolTableRecord
100
AcDbDimStyleTableRecord
  2
ISO-25
 70
     0
  3

  4

  5

  6

  7

 40
1.0
 41
2.5
 42
0.625
 43
3.75
 44
1.25
 45
0.0
 46
0.0
 47
0.0
 48
0.0
140
2.5
141
2.5
142
0.0
143
0.03937007874016
144
1.0
145
0.0
146
1.0
147
0.625
 71
     0
 72
     0
 73
     0
 74
     0
 75
     0
 76
     0
 77
     1
 78
     8
170
     0
171
     3
172
     1
173
     0
174
     0
175
     0
176
     0
177
     0
178
     0
270
     2
271
     2
272
     2
273
     2
274
     3
340
11
275
     0
280
     0
281
     0
282
     0
283
     0
284
     8
285
     0
286
     0
287
     3
288
     0
  0
ENDTAB
  0
TABLE
  2
BLOCK_RECORD
  5
1
330
0
100
AcDbSymbolTable
 70
     1
  0
BLOCK_RECORD
  5
1F
330
1
100
AcDbSymbolTableRecord
100
AcDbBlockTableRecord
  2
*MODEL_SPACE
  0
BLOCK_RECORD
  5
1B
330
1
100
AcDbSymbolTableRecord
100
AcDbBlockTableRecord
  2
*PAPER_SPACE
  0
ENDTAB
  0
ENDSEC
  0
SECTION
  2
BLOCKS
  0
BLOCK
  5
20
330
1F
100
AcDbEntity
  8
0
100
AcDbBlockBegin
  2
*MODEL_SPACE
 70
     0
 10
0.0
 20
0.0
 30
0.0
  3
*MODEL_SPACE
  1

  0
ENDBLK
  5
21
330
1F
100
AcDbEntity
  8
0
100
AcDbBlockEnd
  0
BLOCK
  5
1C
330
1B
100
AcDbEntity
 67
     1
  8
0
100
AcDbBlockBegin
  2
*PAPER_SPACE
  1

  0
ENDBLK
  5
1D
330
1B
100
AcDbEntity
 67
     1
  8
0
100
AcDbBlockEnd
  0
ENDSEC
  0
SECTION
  2
ENTITIES
  0
SPLINE
  5
100
100
AcDbEntity
  8
Layer_1
 62
1
100
AcDbSpline
 70
8
 71
3
 72
8
 73
4
 74
0
 40
0
 40
0
 40
0
 40
0
 40
1
 40
1
 40
1
 40
1
 10
139.692240
 20
81.603301
 30
0.0
 10
140.075017
 20
81.636789
 30
0.0
 10
140.440276
 20
81.436401
 30
0.0
 10
140.617698
 20
81.095577
 30
0.0
  0
SPLINE
  5
101
100
AcDbEntity
  8
Layer_1
 62
1
100
AcDbSpline
 70
8
 71
3
 72
8
 73
4
 74
0
 40
0
 40
0
 40
0
 40
0
 40
1
 40
1
 40
1
 40
1
 10
140.617698
 20
81.095577
 30
0.0
 10
140.795120
 20
80.754753
 30
0.0
 10
140.749764
 20
80.340612
 30
0.0
 10
140.502780
 20
80.046268
 30
0.0
  0
SPLINE
  5
102
100
AcDbEntity
  8
Layer_1
 62
1
100
AcDbSpline
 70
8
 71
3
 72
8
 73
4
 74
0
 40
0
 40
0
 40
0
 40
0
 40
1
 40
1
 40
1
 40
1
 10
140.502780
 20
80.046268
 30
0.0
 10
140.255796
 20
79.751923
 30
0.0
 10
139.855823
 20
79.635342
 30
0.0
 10
139.489367
 20
79.750885
 30
0.0
  0
SPLINE
  5
103
100
AcDbEntity
  8
Layer_1
 62
1
100
AcDbSpline
 70
8
 71
3
 72
8
 73
4
 74
0
 40
0
 40
0
 40
0
 40
0
 40
1
 40
1
 40
1
 40
1
 10
139.489367
 20
79.750885
 30
0.0
 10
139.122912
 20
79.866428
 30
0.0
 10
138.862142
 20
80.191341
 30
0.0
 10
138.828653
 20
80.574118
 30
0.0
  0
SPLINE
  5
104
100
AcDbEntity
  8
Layer_1
 62
1
100
AcDbSpline
 70
8
 71
3
 72
8
 73
4
 74
0
 40
0
 40
0
 40
0
 40
0
 40
1
 40
1
 40
1
 40
1
 10
138.828653
 20
80.574118
 30
0.0
 10
138.782925
 20
81.096792
 30
0.0
 10
139.169566
 20
81.557573
 30
0.0
 10
139.692240
 20
81.603301
 30
0.0
  0
LINE
  5
105
100
AcDbEntity
  8
Layer_1
 62
1
100
AcDbLine
 10
139.692240
 20
81.603301
 30
0.0
 11
139.692240
 21
81.603301
 31
0.0
  0
SPLINE
  5
106
100
AcDbEntity
  8
Layer_1
 62
1
100
AcDbSpline
 70
8
 71
3
 72
8
 73
4
 74
0
 40
0
 40
0
 40
0
 40
0
 40
1
 40
1
 40
1
 40
1
 10
65.028174
 20
81.596415
 30
0.0
 10
64.645397
 20
81.629904
 30
0.0
 10
64.280138
 20
81.429516
 30
0.0
 10
64.102716
 20
81.088692
 30
0.0
  0
SPLINE
  5
107
100
AcDbEntity
  8
Layer_1
 62
1
100
AcDbSpline
 70
8
 71
3
 72
8
 73
4
 74
0
 40
0
 40
0
 40
0
 40
0
 40
1
 40
1
 40
1
 40
1
 10
64.102716
 20
81.088692
 30
0.0
 10
63.925294
 20
80.747867
 30
0.0
 10
63.970650
 20
80.333727
 30
0.0
 10
64.217634
 20
80.039382
 30
0.0
  0
SPLINE
  5
108
100
AcDbEntity
  8
Layer_1
 62
1
100
AcDbSpline
 70
8
 71
3
 72
8
 73
4
 74
0
 40
0
 40
0
 40
0
 40
0
 40
1
 40
1
 40
1
 40
1
 10
64.217634
 20
80.039382
 30
0.0
 10
64.464618
 20
79.745038
 30
0.0
 10
64.864592
 20
79.628456
 30
0.0
 10
65.231047
 20
79.743999
 30
0.0
  0
SPLINE
  5
109
100
AcDbEntity
  8
Layer_1
 62
1
100
AcDbSpline
 70
8
 71
3
 72
8
 73
4
 74
0
 40
0
 40
0
 40
0
 40
0
 40
1
 40
1
 40
1
 40
1
 10
65.231047
 20
79.743999
 30
0.0
 10
65.597502
 20
79.859542
 30
0.0
 10
65.858273
 20
80.184456
 30
0.0
 10
65.891761
 20
80.567233
 30
0.0
  0
SPLINE
  5
10a
100
AcDbEntity
  8
Layer_1
 62
1
100
AcDbSpline
 70
8
 71
3
 72
8
 73
4
 74
0
 40
0
 40
0
 40
0
 40
0
 40
1
 40
1
 40
1
 40
1
 10
65.891761
 20
80.567233
 30
0.0
 10
65.913721
 20
80.818229
 30
0.0
 10
65.835073
 20
81.067670
 30
0.0
 10
65.673119
 20
81.260679
 30
0.0
  0
SPLINE
  5
10b
100
AcDbEntity
  8
Layer_1
 62
1
100
AcDbSpline
 70
8
 71
3
 72
8
 73
4
 74
0
 40
0
 40
0
 40
0
 40
0
 40
1
 40
1
 40
1
 40
1
 10
65.673119
 20
81.260679
 30
0.0
 10
65.511165
 20
81.453688
 30
0.0
 10
65.279171
 20
81.574456
 30
0.0
 10
65.028174
 20
81.596415
 30
0.0
  0
LINE
  5
10c
100
AcDbEntity
  8
Layer_1
 62
1
100
AcDbLine
 10
65.028174
 20
81.596415
 30
0.0
 11
65.028174
 21
81.596415
 31
0.0
  0
SPLINE
  5
10d
100
AcDbEntity
  8
Layer_1
 62
1
100
AcDbSpline
 70
8
 71
3
 72
8
 73
4
 74
0
 40
0
 40
0
 40
0
 40
0
 40
1
 40
1
 40
1
 40
1
 10
73.511527
 20
178.561584
 30
0.0
 10
73.128750
 20
178.595073
 30
0.0
 10
72.763491
 20
178.394685
 30
0.0
 10
72.586069
 20
178.053861
 30
0.0
  0
SPLINE
  5
10e
100
AcDbEntity
  8
Layer_1
 62
1
100
AcDbSpline
 70
8
 71
3
 72
8
 73
4
 74
0
 40
0
 40
0
 40
0
 40
0
 40
1
 40
1
 40
1
 40
1
 10
72.586069
 20
178.053861
 30
0.0
 10
72.408647
 20
177.713036
 30
0.0
 10
72.454003
 20
177.298895
 30
0.0
 10
72.700987
 20
177.004551
 30
0.0
  0
SPLINE
  5
10f
100
AcDbEntity
  8
Layer_1
 62
1
100
AcDbSpline
 70
8
 71
3
 72
8
 73
4
 74
0
 40
0
 40
0
 40
0
 40
0
 40
1
 40
1
 40
1
 40
1
 10
72.700987
 20
177.004551
 30
0.0
 10
72.947971
 20
176.710207
 30
0.0
 10
73.347945
 20
176.593625
 30
0.0
 10
73.714400
 20
176.709168
 30
0.0
  0
SPLINE
  5
110
100
AcDbEntity
  8
Layer_1
 62
1
100
AcDbSpline
 70
8
 71
3
 72
8
 73
4
 74
0
 40
0
 40
0
 40
0
 40
0
 40
1
 40
1
 40
1
 40
1
 10
73.714400
 20
176.709168
 30
0.0
 10
74.080855
 20
176.824711
 30
0.0
 10
74.341626
 20
177.149624
 30
0.0
 10
74.375114
 20
177.532401
 30
0.0
  0
SPLINE
  5
111
100
AcDbEntity
  8
Layer_1
 62
1
100
AcDbSpline
 70
8
 71
3
 72
8
 73
4
 74
0
 40
0
 40
0
 40
0
 40
0
 40
1
 40
1
 40
1
 40
1
 10
74.375114
 20
177.532401
 30
0.0
 10
74.397074
 20
177.783398
 30
0.0
 10
74.318426
 20
178.032838
 30
0.0
 10
74.156472
 20
178.225848
 30
0.0
  0
SPLINE
  5
112
100
AcDbEntity
  8
Layer_1
 62
1
100
AcDbSpline
 70
8
 71
3
 72
8
 73
4
 74
0
 40
0
 40
0
 40
0
 40
0
 40
1
 40
1
 40
1
 40
1
 10
74.156472
 20
178.225848
 30
0.0
 10
73.994518
 20
178.418857
 30
0.0
 10
73.762524
 20
178.539625
 30
0.0
 10
73.511527
 20
178.561584
 30
0.0
  0
LINE
  5
113
100
AcDbEntity
  8
Layer_1
 62
1
100
AcDbLine
 10
73.511527
 20
178.561584
 30
0.0
 11
73.511527
 21
178.561584
 31
0.0
  0
SPLINE
  5
114
100
AcDbEntity
  8
Layer_1
 62
1
100
AcDbSpline
 70
8
 71
3
 72
8
 73
4
 74
0
 40
0
 40
0
 40
0
 40
0
 40
1
 40
1
 40
1
 40
1
 10
131.208886
 20
178.568480
 30
0.0
 10
131.591663
 20
178.601968
 30
0.0
 10
131.956923
 20
178.401580
 30
0.0
 10
132.134345
 20
178.060756
 30
0.0
  0
SPLINE
  5
115
100
AcDbEntity
  8
Layer_1
 62
1
100
AcDbSpline
 70
8
 71
3
 72
8
 73
4
 74
0
 40
0
 40
0
 40
0
 40
0
 40
1
 40
1
 40
1
 40
1
 10
132.134345
 20
178.060756
 30
0.0
 10
132.311766
 20
177.719932
 30
0.0
 10
132.266411
 20
177.305791
 30
0.0
 10
132.019427
 20
177.011447
 30
0.0
  0
SPLINE
  5
116
100
AcDbEntity
  8
Layer_1
 62
1
100
AcDbSpline
 70
8
 71
3
 72
8
 73
4
 74
0
 40
0
 40
0
 40
0
 40
0
 40
1
 40
1
 40
1
 40
1
 10
132.019427
 20
177.011447
 30
0.0
 10
131.772442
 20
176.717102
 30
0.0
 10
131.372469
 20
176.600521
 30
0.0
 10
131.006014
 20
176.716064
 30
0.0
  0
SPLINE
  5
117
100
AcDbEntity
  8
Layer_1
 62
1
100
AcDbSpline
 70
8
 71
3
 72
8
 73
4
 74
0
 40
0
 40
0
 40
0
 40
0
 40
1
 40
1
 40
1
 40
1
 10
131.006014
 20
176.716064
 30
0.0
 10
130.639558
 20
176.831607
 30
0.0
 10
130.378788
 20
177.156520
 30
0.0
 10
130.345299
 20
177.539297
 30
0.0
  0
SPLINE
  5
118
100
AcDbEntity
  8
Layer_1
 62
1
100
AcDbSpline
 70
8
 71
3
 72
8
 73
4
 74
0
 40
0
 40
0
 40
0
 40
0
 40
1
 40
1
 40
1
 40
1
 10
130.345299
 20
177.539297
 30
0.0
 10
130.299571
 20
178.061971
 30
0.0
 10
130.686212
 20
178.522752
 30
0.0
 10
131.208886
 20
178.568480
 30
0.0
  0
LINE
  5
119
100
AcDbEntity
  8
Layer_1
 62
1
100
AcDbLine
 10
131.208886
 20
178.568480
 30
0.0
 11
131.208886
 21
178.568480
 31
0.0
  0
LINE
  5
11a
100
AcDbEntity
  8
Layer_1
 62
1
100
AcDbLine
 10
135.329027
 20
77.687387
 30
0.0
 11
136.862578
 21
76.455517
 31
0.0
  0
SPLINE
  5
11b
100
AcDbEntity
  8
Layer_1
 62
1
100
AcDbSpline
 70
8
 71
3
 72
8
 73
4
 74
0
 40
0
 40
0
 40
0
 40
0
 40
1
 40
1
 40
1
 40
1
 10
136.862578
 20
76.455517
 30
0.0
 10
137.392059
 20
76.030201
 30
0.0
 10
138.065407
 20
75.825932
 30
0.0
 10
138.741949
 20
75.885386
 30
0.0
  0
LINE
  5
11c
100
AcDbEntity
  8
Layer_1
 62
1
100
AcDbLine
 10
138.741949
 20
75.885386
 30
0.0
 11
147.017984
 21
76.612456
 31
0.0
  0
SPLINE
  5
11d
100
AcDbEntity
  8
Layer_1
 62
1
100
AcDbSpline
 70
8
 71
3
 72
8
 73
4
 74
0
 40
0
 40
0
 40
0
 40
0
 40
1
 40
1
 40
1
 40
1
 10
147.017984
 20
76.612456
 30
0.0
 10
147.297586
 20
76.637028
 30
0.0
 10
147.555974
 20
76.771669
 30
0.0
 10
147.736301
 20
76.986759
 30
0.0
  0
SPLINE
  5
11e
100
AcDbEntity
  8
Layer_1
 62
1
100
AcDbSpline
 70
8
 71
3
 72
8
 73
4
 74
0
 40
0
 40
0
 40
0
 40
0
 40
1
 40
1
 40
1
 40
1
 10
147.736301
 20
76.986759
 30
0.0
 10
147.916629
 20
77.201848
 30
0.0
 10
148.004122
 20
77.479764
 30
0.0
 10
147.979533
 20
77.759365
 30
0.0
  0
LINE
  5
11f
100
AcDbEntity
  8
Layer_1
 62
1
100
AcDbLine
 10
147.979533
 20
77.759365
 30
0.0
 11
147.581949
 21
82.280829
 31
0.0
  0
SPLINE
  5
120
100
AcDbEntity
  8
Layer_1
 62
1
100
AcDbSpline
 70
8
 71
3
 72
8
 73
4
 74
0
 40
0
 40
0
 40
0
 40
0
 40
1
 40
1
 40
1
 40
1
 10
147.581949
 20
82.280829
 30
0.0
 10
147.522949
 20
82.951705
 30
0.0
 10
147.181136
 20
83.565739
 30
0.0
 10
146.642008
 20
83.969343
 30
0.0
  0
LINE
  5
121
100
AcDbEntity
  8
Layer_1
 62
1
100
AcDbLine
 10
146.642008
 20
83.969343
 30
0.0
 11
132.641141
 21
94.450692
 31
0.0
  0
SPLINE
  5
122
100
AcDbEntity
  8
Layer_1
 62
1
100
AcDbSpline
 70
8
 71
3
 72
8
 73
4
 74
0
 40
0
 40
0
 40
0
 40
0
 40
1
 40
1
 40
1
 40
1
 10
132.641141
 20
94.450692
 30
0.0
 10
132.102279
 20
94.854097
 30
0.0
 10
131.761793
 20
95.468807
 30
0.0
 10
131.705663
 20
96.139596
 30
0.0
  0
LINE
  5
123
100
AcDbEntity
  8
Layer_1
 62
1
100
AcDbLine
 10
131.705663
 20
96.139596
 30
0.0
 11
131.622079
 21
97.140862
 31
0.0
  0
SPLINE
  5
124
100
AcDbEntity
  8
Layer_1
 62
1
100
AcDbSpline
 70
8
 71
3
 72
8
 73
4
 74
0
 40
0
 40
0
 40
0
 40
0
 40
1
 40
1
 40
1
 40
1
 10
131.622079
 20
97.140862
 30
0.0
 10
131.563252
 20
97.843960
 30
0.0
 10
131.503087
 20
98.546946
 30
0.0
 10
131.441585
 20
99.249816
 30
0.0
  0
LINE
  5
125
100
AcDbEntity
  8
Layer_1
 62
1
100
AcDbLine
 10
131.441585
 20
99.249816
 30
0.0
 11
129.712955
 21
119.002752
 31
0.0
  0
SPLINE
  5
126
100
AcDbEntity
  8
Layer_1
 62
1
100
AcDbSpline
 70
8
 71
3
 72
8
 73
4
 74
0
 40
0
 40
0
 40
0
 40
0
 40
1
 40
1
 40
1
 40
1
 10
129.712955
 20
119.002752
 30
0.0
 10
129.654317
 20
119.672825
 30
0.0
 10
129.887439
 20
120.335646
 30
0.0
 10
130.352627
 20
120.821483
 30
0.0
  0
LINE
  5
127
100
AcDbEntity
  8
Layer_1
 62
1
100
AcDbLine
 10
130.352627
 20
120.821483
 30
0.0
 11
137.750735
 21
128.548043
 31
0.0
  0
SPLINE
  5
128
100
AcDbEntity
  8
Layer_1
 62
1
100
AcDbSpline
 70
8
 71
3
 72
8
 73
4
 74
0
 40
0
 40
0
 40
0
 40
0
 40
1
 40
1
 40
1
 40
1
 10
137.750735
 20
128.548043
 30
0.0
 10
138.215866
 20
129.033823
 30
0.0
 10
138.448652
 20
129.696747
 30
0.0
 10
138.389350
 20
130.366682
 30
0.0
  0
LINE
  5
129
100
AcDbEntity
  8
Layer_1
 62
1
100
AcDbLine
 10
138.389350
 20
130.366682
 30
0.0
 11
137.627812
 21
138.967840
 31
0.0
  0
SPLINE
  5
12a
100
AcDbEntity
  8
Layer_1
 62
1
100
AcDbSpline
 70
8
 71
3
 72
8
 73
4
 74
0
 40
0
 40
0
 40
0
 40
0
 40
1
 40
1
 40
1
 40
1
 10
137.627812
 20
138.967840
 30
0.0
 10
137.568398
 20
139.639038
 30
0.0
 10
137.227611
 20
140.253711
 30
0.0
 10
136.689818
 20
140.659686
 30
0.0
  0
LINE
  5
12b
100
AcDbEntity
  8
Layer_1
 62
1
100
AcDbLine
 10
136.689818
 20
140.659686
 30
0.0
 11
128.034884
 21
147.193161
 31
0.0
  0
SPLINE
  5
12c
100
AcDbEntity
  8
Layer_1
 62
1
100
AcDbSpline
 70
8
 71
3
 72
8
 73
4
 74
0
 40
0
 40
0
 40
0
 40
0
 40
1
 40
1
 40
1
 40
1
 10
128.034884
 20
147.193161
 30
0.0
 10
127.497152
 20
147.599087
 30
0.0
 10
127.156678
 20
148.213920
 30
0.0
 10
127.097946
 20
148.885100
 30
0.0
  0
LINE
  5
12d
100
AcDbEntity
  8
Layer_1
 62
1
100
AcDbLine
 10
127.097946
 20
148.885100
 30
0.0
 11
126.377279
 21
157.120990
 31
0.0
  0
SPLINE
  5
12e
100
AcDbEntity
  8
Layer_1
 62
1
100
AcDbSpline
 70
8
 71
3
 72
8
 73
4
 74
0
 40
0
 40
0
 40
0
 40
0
 40
1
 40
1
 40
1
 40
1
 10
126.377279
 20
157.120990
 30
0.0
 10
126.315775
 20
157.823857
 30
0.0
 10
126.254019
 20
158.526703
 30
0.0
 10
126.192013
 20
159.229526
 30
0.0
  0
LINE
  5
12f
100
AcDbEntity
  8
Layer_1
 62
1
100
AcDbLine
 10
126.192013
 20
159.229526
 30
0.0
 11
126.017323
 21
161.214766
 31
0.0
  0
SPLINE
  5
130
100
AcDbEntity
  8
Layer_1
 62
1
100
AcDbSpline
 70
8
 71
3
 72
8
 73
4
 74
0
 40
0
 40
0
 40
0
 40
0
 40
1
 40
1
 40
1
 40
1
 10
126.017323
 20
161.214766
 30
0.0
 10
125.958176
 20
161.885196
 30
0.0
 10
126.189168
 20
162.548832
 30
0.0
 10
126.651813
 20
163.037642
 30
0.0
  0
LINE
  5
131
100
AcDbEntity
  8
Layer_1
 62
1
100
AcDbLine
 10
126.651813
 20
163.037642
 30
0.0
 11
138.617632
 21
175.680130
 31
0.0
  0
SPLINE
  5
132
100
AcDbEntity
  8
Layer_1
 62
1
100
AcDbSpline
 70
8
 71
3
 72
8
 73
4
 74
0
 40
0
 40
0
 40
0
 40
0
 40
1
 40
1
 40
1
 40
1
 10
138.617632
 20
175.680130
 30
0.0
 10
139.080348
 20
176.169017
 30
0.0
 10
139.311792
 20
176.832515
 30
0.0
 10
139.253536
 20
177.503130
 30
0.0
  0
LINE
  5
133
100
AcDbEntity
  8
Layer_1
 62
1
100
AcDbLine
 10
139.253536
 20
177.503130
 30
0.0
 11
138.874868
 21
181.865748
 31
0.0
  0
SPLINE
  5
134
100
AcDbEntity
  8
Layer_1
 62
1
100
AcDbSpline
 70
8
 71
3
 72
8
 73
4
 74
0
 40
0
 40
0
 40
0
 40
0
 40
1
 40
1
 40
1
 40
1
 10
138.874868
 20
181.865748
 30
0.0
 10
138.850577
 20
182.145358
 30
0.0
 10
138.716190
 20
182.403861
 30
0.0
 10
138.501279
 20
182.584374
 30
0.0
  0
SPLINE
  5
135
100
AcDbEntity
  8
Layer_1
 62
1
100
AcDbSpline
 70
8
 71
3
 72
8
 73
4
 74
0
 40
0
 40
0
 40
0
 40
0
 40
1
 40
1
 40
1
 40
1
 10
138.501279
 20
182.584374
 30
0.0
 10
138.286368
 20
182.764888
 30
0.0
 10
138.008543
 20
182.852620
 30
0.0
 10
137.728939
 20
182.828266
 30
0.0
  0
LINE
  5
136
100
AcDbEntity
  8
Layer_1
 62
1
100
AcDbLine
 10
137.728939
 20
182.828266
 30
0.0
 11
129.420254
 21
182.104362
 31
0.0
  0
SPLINE
  5
137
100
AcDbEntity
  8
Layer_1
 62
1
100
AcDbSpline
 70
8
 71
3
 72
8
 73
4
 74
0
 40
0
 40
0
 40
0
 40
0
 40
1
 40
1
 40
1
 40
1
 10
129.420254
 20
182.104362
 30
0.0
 10
128.741298
 20
182.045220
 30
0.0
 10
128.107981
 20
181.737832
 30
0.0
 10
127.641462
 20
181.241004
 30
0.0
  0
LINE
  5
138
100
AcDbEntity
  8
Layer_1
 62
1
100
AcDbLine
 10
127.641462
 20
181.241004
 30
0.0
 11
126.189035
 21
179.694231
 31
0.0
  0
SPLINE
  5
139
100
AcDbEntity
  8
Layer_1
 62
1
100
AcDbSpline
 70
8
 71
3
 72
8
 73
4
 74
0
 40
0
 40
0
 40
0
 40
0
 40
1
 40
1
 40
1
 40
1
 10
126.189035
 20
179.694231
 30
0.0
 10
125.726771
 20
179.201938
 30
0.0
 10
125.081557
 20
178.922647
 30
0.0
 10
124.406250
 20
178.922525
 30
0.0
  0
LINE
  5
13a
100
AcDbEntity
  8
Layer_1
 62
1
100
AcDbLine
 10
124.406250
 20
178.922525
 30
0.0
 11
80.331367
 21
178.914656
 31
0.0
  0
SPLINE
  5
13b
100
AcDbEntity
  8
Layer_1
 62
1
100
AcDbSpline
 70
8
 71
3
 72
8
 73
4
 74
0
 40
0
 40
0
 40
0
 40
0
 40
1
 40
1
 40
1
 40
1
 10
80.331367
 20
178.914656
 30
0.0
 10
79.656086
 20
178.914535
 30
0.0
 10
79.010824
 20
179.193707
 30
0.0
 10
78.548578
 20
179.685980
 30
0.0
  0
LINE
  5
13c
100
AcDbEntity
  8
Layer_1
 62
1
100
AcDbLine
 10
78.548578
 20
179.685980
 30
0.0
 11
77.096161
 21
181.232750
 31
0.0
  0
SPLINE
  5
13d
100
AcDbEntity
  8
Layer_1
 62
1
100
AcDbSpline
 70
8
 71
3
 72
8
 73
4
 74
0
 40
0
 40
0
 40
0
 40
0
 40
1
 40
1
 40
1
 40
1
 10
77.096161
 20
181.232750
 30
0.0
 10
76.629637
 20
181.729579
 30
0.0
 10
75.996315
 20
182.036965
 30
0.0
 10
75.317356
 20
182.096102
 30
0.0
  0
LINE
  5
13e
100
AcDbEntity
  8
Layer_1
 62
1
100
AcDbLine
 10
75.317356
 20
182.096102
 30
0.0
 11
67.008673
 21
182.819817
 31
0.0
  0
SPLINE
  5
13f
100
AcDbEntity
  8
Layer_1
 62
1
100
AcDbSpline
 70
8
 71
3
 72
8
 73
4
 74
0
 40
0
 40
0
 40
0
 40
0
 40
1
 40
1
 40
1
 40
1
 10
67.008673
 20
182.819817
 30
0.0
 10
66.729065
 20
182.844174
 30
0.0
 10
66.451236
 20
182.756441
 30
0.0
 10
66.236322
 20
182.575926
 30
0.0
  0
SPLINE
  5
140
100
AcDbEntity
  8
Layer_1
 62
1
100
AcDbSpline
 70
8
 71
3
 72
8
 73
4
 74
0
 40
0
 40
0
 40
0
 40
0
 40
1
 40
1
 40
1
 40
1
 10
66.236322
 20
182.575926
 30
0.0
 10
66.021409
 20
182.395410
 30
0.0
 10
65.887021
 20
182.136902
 30
0.0
 10
65.862732
 20
181.857289
 30
0.0
  0
LINE
  5
141
100
AcDbEntity
  8
Layer_1
 62
1
100
AcDbLine
 10
65.862732
 20
181.857289
 30
0.0
 11
65.483764
 21
177.494709
 31
0.0
  0
SPLINE
  5
142
100
AcDbEntity
  8
Layer_1
 62
1
100
AcDbSpline
 70
8
 71
3
 72
8
 73
4
 74
0
 40
0
 40
0
 40
0
 40
0
 40
1
 40
1
 40
1
 40
1
 10
65.483764
 20
177.494709
 30
0.0
 10
65.425507
 20
176.824092
 30
0.0
 10
65.656950
 20
176.160592
 30
0.0
 10
66.119669
 20
175.671704
 30
0.0
  0
LINE
  5
143
100
AcDbEntity
  8
Layer_1
 62
1
100
AcDbLine
 10
66.119669
 20
175.671704
 30
0.0
 11
78.085488
 21
163.029216
 31
0.0
  0
SPLINE
  5
144
100
AcDbEntity
  8
Layer_1
 62
1
100
AcDbSpline
 70
8
 71
3
 72
8
 73
4
 74
0
 40
0
 40
0
 40
0
 40
0
 40
1
 40
1
 40
1
 40
1
 10
78.085488
 20
163.029216
 30
0.0
 10
78.548134
 20
162.540406
 30
0.0
 10
78.779126
 20
161.876769
 30
0.0
 10
78.719977
 20
161.206338
 30
0.0
  0
LINE
  5
145
100
AcDbEntity
  8
Layer_1
 62
1
100
AcDbLine
 10
78.719977
 20
161.206338
 30
0.0
 11
78.544832
 21
159.221139
 31
0.0
  0
SPLINE
  5
146
100
AcDbEntity
  8
Layer_1
 62
1
100
AcDbSpline
 70
8
 71
3
 72
8
 73
4
 74
0
 40
0
 40
0
 40
0
 40
0
 40
1
 40
1
 40
1
 40
1
 10
78.544832
 20
159.221139
 30
0.0
 10
78.482826
 20
158.518314
 30
0.0
 10
78.421071
 20
157.815468
 30
0.0
 10
78.359568
 20
157.112599
 30
0.0
  0
LINE
  5
147
100
AcDbEntity
  8
Layer_1
 62
1
100
AcDbLine
 10
78.359568
 20
157.112599
 30
0.0
 11
77.638890
 21
148.876717
 31
0.0
  0
SPLINE
  5
148
100
AcDbEntity
  8
Layer_1
 62
1
100
AcDbSpline
 70
8
 71
3
 72
8
 73
4
 74
0
 40
0
 40
0
 40
0
 40
0
 40
1
 40
1
 40
1
 40
1
 10
77.638890
 20
148.876717
 30
0.0
 10
77.580159
 20
148.205539
 30
0.0
 10
77.239687
 20
147.590707
 30
0.0
 10
76.701957
 20
147.184780
 30
0.0
  0
LINE
  5
149
100
AcDbEntity
  8
Layer_1
 62
1
100
AcDbLine
 10
76.701957
 20
147.184780
 30
0.0
 11
68.047023
 21
140.651291
 31
0.0
  0
SPLINE
  5
14a
100
AcDbEntity
  8
Layer_1
 62
1
100
AcDbSpline
 70
8
 71
3
 72
8
 73
4
 74
0
 40
0
 40
0
 40
0
 40
0
 40
1
 40
1
 40
1
 40
1
 10
68.047023
 20
140.651291
 30
0.0
 10
67.509229
 20
140.245315
 30
0.0
 10
67.168441
 20
139.630641
 30
0.0
 10
67.109028
 20
138.959441
 30
0.0
  0
LINE
  5
14b
100
AcDbEntity
  8
Layer_1
 62
1
100
AcDbLine
 10
67.109028
 20
138.959441
 30
0.0
 11
66.347651
 21
130.358283
 31
0.0
  0
SPLINE
  5
14c
100
AcDbEntity
  8
Layer_1
 62
1
100
AcDbSpline
 70
8
 71
3
 72
8
 73
4
 74
0
 40
0
 40
0
 40
0
 40
0
 40
1
 40
1
 40
1
 40
1
 10
66.347651
 20
130.358283
 30
0.0
 10
66.288349
 20
129.688347
 30
0.0
 10
66.521135
 20
129.025422
 30
0.0
 10
66.986267
 20
128.539641
 30
0.0
  0
LINE
  5
14d
100
AcDbEntity
  8
Layer_1
 62
1
100
AcDbLine
 10
66.986267
 20
128.539641
 30
0.0
 11
74.384373
 21
120.813077
 31
0.0
  0
SPLINE
  5
14e
100
AcDbEntity
  8
Layer_1
 62
1
100
AcDbSpline
 70
8
 71
3
 72
8
 73
4
 74
0
 40
0
 40
0
 40
0
 40
0
 40
1
 40
1
 40
1
 40
1
 10
74.384373
 20
120.813077
 30
0.0
 10
74.849558
 20
120.327239
 30
0.0
 10
75.082679
 20
119.664419
 30
0.0
 10
75.024040
 20
118.994347
 30
0.0
  0
LINE
  5
14f
100
AcDbEntity
  8
Layer_1
 62
1
100
AcDbLine
 10
75.024040
 20
118.994347
 30
0.0
 11
73.295424
 21
99.241412
 31
0.0
  0
SPLINE
  5
150
100
AcDbEntity
  8
Layer_1
 62
1
100
AcDbSpline
 70
8
 71
3
 72
8
 73
4
 74
0
 40
0
 40
0
 40
0
 40
0
 40
1
 40
1
 40
1
 40
1
 10
73.295424
 20
99.241412
 30
0.0
 10
73.233914
 20
98.538544
 30
0.0
 10
73.173741
 20
97.835560
 30
0.0
 10
73.114904
 20
97.132463
 30
0.0
  0
LINE
  5
151
100
AcDbEntity
  8
Layer_1
 62
1
100
AcDbLine
 10
73.114904
 20
97.132463
 30
0.0
 11
73.031120
 21
96.131211
 31
0.0
  0
SPLINE
  5
152
100
AcDbEntity
  8
Layer_1
 62
1
100
AcDbSpline
 70
8
 71
3
 72
8
 73
4
 74
0
 40
0
 40
0
 40
0
 40
0
 40
1
 40
1
 40
1
 40
1
 10
73.031120
 20
96.131211
 30
0.0
 10
72.974986
 20
95.460423
 30
0.0
 10
72.634500
 20
94.845716
 30
0.0
 10
72.095637
 20
94.442312
 30
0.0
  0
LINE
  5
153
100
AcDbEntity
  8
Layer_1
 62
1
100
AcDbLine
 10
72.095637
 20
94.442312
 30
0.0
 11
58.094780
 21
83.960962
 31
0.0
  0
SPLINE
  5
154
100
AcDbEntity
  8
Layer_1
 62
1
100
AcDbSpline
 70
8
 71
3
 72
8
 73
4
 74
0
 40
0
 40
0
 40
0
 40
0
 40
1
 40
1
 40
1
 40
1
 10
58.094780
 20
83.960962
 30
0.0
 10
57.555650
 20
83.557358
 30
0.0
 10
57.213836
 20
82.943322
 30
0.0
 10
57.154837
 20
82.272445
 30
0.0
  0
LINE
  5
155
100
AcDbEntity
  8
Layer_1
 62
1
100
AcDbLine
 10
57.154837
 20
82.272445
 30
0.0
 11
56.757215
 21
77.750985
 31
0.0
  0
SPLINE
  5
156
100
AcDbEntity
  8
Layer_1
 62
1
100
AcDbSpline
 70
8
 71
3
 72
8
 73
4
 74
0
 40
0
 40
0
 40
0
 40
0
 40
1
 40
1
 40
1
 40
1
 10
56.757215
 20
77.750985
 30
0.0
 10
56.732625
 20
77.471384
 30
0.0
 10
56.820119
 20
77.193467
 30
0.0
 10
57.000446
 20
76.978378
 30
0.0
  0
SPLINE
  5
157
100
AcDbEntity
  8
Layer_1
 62
1
100
AcDbSpline
 70
8
 71
3
 72
8
 73
4
 74
0
 40
0
 40
0
 40
0
 40
0
 40
1
 40
1
 40
1
 40
1
 10
57.000446
 20
76.978378
 30
0.0
 10
57.180773
 20
76.763288
 30
0.0
 10
57.439161
 20
76.628647
 30
0.0
 10
57.718764
 20
76.604075
 30
0.0
  0
LINE
  5
158
100
AcDbEntity
  8
Layer_1
 62
1
100
AcDbLine
 10
57.718764
 20
76.604075
 30
0.0
 11
65.994780
 21
75.876830
 31
0.0
  0
SPLINE
  5
159
100
AcDbEntity
  8
Layer_1
 62
1
100
AcDbSpline
 70
8
 71
3
 72
8
 73
4
 74
0
 40
0
 40
0
 40
0
 40
0
 40
1
 40
1
 40
1
 40
1
 10
65.994780
 20
75.876830
 30
0.0
 10
66.671323
 20
75.817379
 30
0.0
 10
67.344670
 20
76.021650
 30
0.0
 10
67.874151
 20
76.446967
 30
0.0
  0
LINE
  5
15a
100
AcDbEntity
  8
Layer_1
 62
1
100
AcDbLine
 10
67.874151
 20
76.446967
 30
0.0
 11
69.407703
 21
77.678823
 31
0.0
  0
SPLINE
  5
15b
100
AcDbEntity
  8
Layer_1
 62
1
100
AcDbSpline
 70
8
 71
3
 72
8
 73
4
 74
0
 40
0
 40
0
 40
0
 40
0
 40
1
 40
1
 40
1
 40
1
 10
69.407703
 20
77.678823
 30
0.0
 10
69.941727
 20
78.107793
 30
0.0
 10
70.606163
 20
78.341658
 30
0.0
 10
71.291143
 20
78.341748
 30
0.0
  0
LINE
  5
15c
100
AcDbEntity
  8
Layer_1
 62
1
100
AcDbLine
 10
71.291143
 20
78.341748
 30
0.0
 11
133.446477
 21
78.349722
 31
0.0
  0
SPLINE
  5
15d
100
AcDbEntity
  8
Layer_1
 62
1
100
AcDbSpline
 70
8
 71
3
 72
8
 73
4
 74
0
 40
0
 40
0
 40
0
 40
0
 40
1
 40
1
 40
1
 40
1
 10
133.446477
 20
78.349722
 30
0.0
 10
134.131439
 20
78.349813
 30
0.0
 10
134.795904
 20
78.116039
 30
0.0
 10
135.329917
 20
77.687083
 30
0.0
  0
LINE
  5
15e
100
AcDbEntity
  8
Layer_1
 62
1
100
AcDbLine
 10
135.329917
 20
77.687083
 30
0.0
 11
135.329027
 21
77.687387
 31
0.0
  0
SPLINE
  5
15f
100
AcDbEntity
  8
Layer_1
 62
1
100
AcDbSpline
 70
8
 71
3
 72
8
 73
4
 74
0
 40
0
 40
0
 40
0
 40
0
 40
1
 40
1
 40
1
 40
1
 10
69.727453
 20
135.309421
 30
0.0
 10
69.344676
 20
135.342909
 30
0.0
 10
68.979417
 20
135.142521
 30
0.0
 10
68.801995
 20
134.801697
 30
0.0
  0
SPLINE
  5
160
100
AcDbEntity
  8
Layer_1
 62
1
100
AcDbSpline
 70
8
 71
3
 72
8
 73
4
 74
0
 40
0
 40
0
 40
0
 40
0
 40
1
 40
1
 40
1
 40
1
 10
68.801995
 20
134.801697
 30
0.0
 10
68.624573
 20
134.460872
 30
0.0
 10
68.669929
 20
134.046732
 30
0.0
 10
68.916913
 20
133.752387
 30
0.0
  0
SPLINE
  5
161
100
AcDbEntity
  8
Layer_1
 62
1
100
AcDbSpline
 70
8
 71
3
 72
8
 73
4
 74
0
 40
0
 40
0
 40
0
 40
0
 40
1
 40
1
 40
1
 40
1
 10
68.916913
 20
133.752387
 30
0.0
 10
69.163897
 20
133.458043
 30
0.0
 10
69.563871
 20
133.341462
 30
0.0
 10
69.930326
 20
133.457004
 30
0.0
  0
SPLINE
  5
162
100
AcDbEntity
  8
Layer_1
 62
1
100
AcDbSpline
 70
8
 71
3
 72
8
 73
4
 74
0
 40
0
 40
0
 40
0
 40
0
 40
1
 40
1
 40
1
 40
1
 10
69.930326
 20
133.457004
 30
0.0
 10
70.296781
 20
133.572547
 30
0.0
 10
70.557552
 20
133.897461
 30
0.0
 10
70.591040
 20
134.280238
 30
0.0
  0
SPLINE
  5
163
100
AcDbEntity
  8
Layer_1
 62
1
100
AcDbSpline
 70
8
 71
3
 72
8
 73
4
 74
0
 40
0
 40
0
 40
0
 40
0
 40
1
 40
1
 40
1
 40
1
 10
70.591040
 20
134.280238
 30
0.0
 10
70.613000
 20
134.531235
 30
0.0
 10
70.534352
 20
134.780675
 30
0.0
 10
70.372398
 20
134.973684
 30
0.0
  0
SPLINE
  5
164
100
AcDbEntity
  8
Layer_1
 62
1
100
AcDbSpline
 70
8
 71
3
 72
8
 73
4
 74
0
 40
0
 40
0
 40
0
 40
0
 40
1
 40
1
 40
1
 40
1
 10
70.372398
 20
134.973684
 30
0.0
 10
70.210444
 20
135.166693
 30
0.0
 10
69.978450
 20
135.287461
 30
0.0
 10
69.727453
 20
135.309421
 30
0.0
  0
LINE
  5
165
100
AcDbEntity
  8
Layer_1
 62
1
100
AcDbLine
 10
69.727453
 20
135.309421
 30
0.0
 11
69.727453
 21
135.309421
 31
0.0
  0
SPLINE
  5
166
100
AcDbEntity
  8
Layer_1
 62
1
100
AcDbSpline
 70
8
 71
3
 72
8
 73
4
 74
0
 40
0
 40
0
 40
0
 40
0
 40
1
 40
1
 40
1
 40
1
 10
134.992960
 20
135.316316
 30
0.0
 10
135.375737
 20
135.349804
 30
0.0
 10
135.740997
 20
135.149416
 30
0.0
 10
135.918418
 20
134.808592
 30
0.0
  0
SPLINE
  5
167
100
AcDbEntity
  8
Layer_1
 62
1
100
AcDbSpline
 70
8
 71
3
 72
8
 73
4
 74
0
 40
0
 40
0
 40
0
 40
0
 40
1
 40
1
 40
1
 40
1
 10
135.918418
 20
134.808592
 30
0.0
 10
136.095840
 20
134.467768
 30
0.0
 10
136.050485
 20
134.053627
 30
0.0
 10
135.803500
 20
133.759283
 30
0.0
  0
SPLINE
  5
168
100
AcDbEntity
  8
Layer_1
 62
1
100
AcDbSpline
 70
8
 71
3
 72
8
 73
4
 74
0
 40
0
 40
0
 40
0
 40
0
 40
1
 40
1
 40
1
 40
1
 10
135.803500
 20
133.759283
 30
0.0
 10
135.556516
 20
133.464938
 30
0.0
 10
135.156543
 20
133.348357
 30
0.0
 10
134.790088
 20
133.463900
 30
0.0
  0
SPLINE
  5
169
100
AcDbEntity
  8
Layer_1
 62
1
100
AcDbSpline
 70
8
 71
3
 72
8
 73
4
 74
0
 40
0
 40
0
 40
0
 40
0
 40
1
 40
1
 40
1
 40
1
 10
134.790088
 20
133.463900
 30
0.0
 10
134.423632
 20
133.579443
 30
0.0
 10
134.162862
 20
133.904356
 30
0.0
 10
134.129373
 20
134.287133
 30
0.0
  0
SPLINE
  5
16a
100
AcDbEntity
  8
Layer_1
 62
1
100
AcDbSpline
 70
8
 71
3
 72
8
 73
4
 74
0
 40
0
 40
0
 40
0
 40
0
 40
1
 40
1
 40
1
 40
1
 10
134.129373
 20
134.287133
 30
0.0
 10
134.083645
 20
134.809807
 30
0.0
 10
134.470286
 20
135.270588
 30
0.0
 10
134.992960
 20
135.316316
 30
0.0
  0
LINE
  5
16b
100
AcDbEntity
  8
Layer_1
 62
1
100
AcDbLine
 10
134.992960
 20
135.316316
 30
0.0
 11
134.992960
 21
135.316316
 31
0.0
  0
ENDSEC
  0
SECTION
  2
OBJECTS
  0
DICTIONARY
  5
C
330
0
100
AcDbDictionary
  3
ACAD_GROUP
350
D
  3
ACAD_MLINESTYLE
350
17
  0
DICTIONARY
  5
D
330
C
100
AcDbDictionary
  0
DICTIONARY
  5
1A
330
C
100
AcDbDictionary
  0
DICTIONARY
  5
17
330
C
100
AcDbDictionary
  3
STANDARD
350
18
  0
DICTIONARY
  5
19
330
C
100
AcDbDictionary
  0
ENDSEC
  0
EOF
