  0
SECTION
  2
HEADER
  9
$ACADVER
  1
AC1014
  9
$HANDSEED
  5
FFFF
  9
$INSUNITS
 70
     0
  9
$MEASUREMENT
 70
     1
  0
ENDSEC
  0
SECTION
  2
TABLES
  0
TABLE
  2
VPORT
  5
8
330
0
100
AcDbSymbolTable
 70
     4
  0
VPORT
  5
2E
330
8
100
AcDbSymbolTableRecord
100
AcDbViewportTableRecord
  2
*ACTIVE
 70
     0
 10
0.0
 20
0.0
 11
1.0
 21
1.0
 12
210.0
 22
148.5
 13
0.0
 23
0.0
 14
10.0
 24
10.0
 15
10.0
 25
10.0
 16
0.0
 26
0.0
 36
1.0
 17
0.0
 27
0.0
 37
0.0
 40
341.0
 41
1.24
 42
50.0
 43
0.0
 44
0.0
 50
0.0
 51
0.0
 71
     0
 72
   100
 73
     1
 74
     3
 75
     0
 76
     0
 77
     0
 78
     0
  0
ENDTAB
  0
TABLE
  2
LTYPE
  5
5
330
0
100
AcDbSymbolTable
 70
     1
  0
LTYPE
  5
14
330
5
100
AcDbSymbolTableRecord
100
AcDbLinetypeTableRecord
  2
BYBLOCK
 70
     0
  3

 72
    65
 73
     0
 40
0.0
  0
LTYPE
  5
15
330
5
100
AcDbSymbolTableRecord
100
AcDbLinetypeTableRecord
  2
BYLAYER
 70
     0
  3

 72
    65
 73
     0
 40
0.0
  0
LTYPE
  5
16
330
5
100
AcDbSymbolTableRecord
100
AcDbLinetypeTableRecord
  2
CONTINUOUS
 70
     0
  3
Solid line
 72
    65
 73
     0
 40
0.0
  0
ENDTAB
  0
TABLE
  2
LAYER
  5
2
100
AcDbSymbolTable
 70
2
  0
LAYER
  5
50
100
AcDbSymbolTableRecord
100
AcDbLayerTableRecord
  2
0
 70
0
  6
CONTINUOUS
  0
LAYER
  5
51
100
AcDbSymbolTableRecord
100
AcDbLayerTableRecord
  2
Layer_1
 70
0
  6
CONTINUOUS
  0
ENDTAB
  0
TABLE
  2
STYLE
  5
3
330
0
100
AcDbSymbolTable
 70
     1
  0
STYLE
  5
11
330
3
100
AcDbSymbolTableRecord
100
AcDbTextStyleTableRecord
  2
STANDARD
 70
     0
 40
0.0
 41
1.0
 50
0.0
 71
     0
 42
2.5
  3
txt
  4

  0
ENDTAB
  0
TABLE
  2
VIEW
  5
6
330
0
100
AcDbSymbolTable
 70
     0
  0
ENDTAB
  0
TABLE
  2
UCS
  5
7
330
0
100
AcDbSymbolTable
 70
     0
  0
ENDTAB
  0
TABLE
  2
APPID
  5
9
330
0
100
AcDbSymbolTable
 70
     2
  0
APPID
  5
12
330
9
100
AcDbSymbolTableRecord
100
AcDbRegAppTableRecord
  2
ACAD
 70
     0
  0
ENDTAB
  0
TABLE
  2
DIMSTYLE
  5
A
330
0
100
AcDbSymbolTable
 70
     1
  0
DIMSTYLE
105
27
330
A
100
AcDbSymbolTableRecord
100
AcDbDimStyleTableRecord
  2
ISO-25
 70
     0
  3

  4

  5

  6

  7

 40
1.0
 41
2.5
 42
0.625
 43
3.75
 44
1.25
 45
0.0
 46
0.0
 47
0.0
 48
0.0
140
2.5
141
2.5
142
0.0
143
0.03937007874016
144
1.0
145
0.0
146
1.0
147
0.625
 71
     0
 72
     0
 73
     0
 74
     0
 75
     0
 76
     0
 77
     1
 78
     8
170
     0
171
     3
172
     1
173
     0
174
     0
175
     0
176
     0
177
     0
178
     0
270
     2
271
     2
272
     2
273
     2
274
     3
340
11
275
     0
280
     0
281
     0
282
     0
283
     0
284
     8
285
     0
286
     0
287
     3
288
     0
  0
ENDTAB
  0
TABLE
  2
BLOCK_RECORD
  5
1
330
0
100
AcDbSymbolTable
 70
     1
  0
BLOCK_RECORD
  5
1F
330
1
100
AcDbSymbolTableRecord
100
AcDbBlockTableRecord
  2
*MODEL_SPACE
  0
BLOCK_RECORD
  5
1B
330
1
100
AcDbSymbolTableRecord
100
AcDbBlockTableRecord
  2
*PAPER_SPACE
  0
ENDTAB
  0
ENDSEC
  0
SECTION
  2
BLOCKS
  0
BLOCK
  5
20
330
1F
100
AcDbEntity
  8
0
100
AcDbBlockBegin
  2
*MODEL_SPACE
 70
     0
 10
0.0
 20
0.0
 30
0.0
  3
*MODEL_SPACE
  1

  0
ENDBLK
  5
21
330
1F
100
AcDbEntity
  8
0
100
AcDbBlockEnd
  0
BLOCK
  5
1C
330
1B
100
AcDbEntity
 67
     1
  8
0
100
AcDbBlockBegin
  2
*PAPER_SPACE
  1

  0
ENDBLK
  5
1D
330
1B
100
AcDbEntity
 67
     1
  8
0
100
AcDbBlockEnd
  0
ENDSEC
  0
SECTION
  2
ENTITIES
  0
SPLINE
  5
100
100
AcDbEntity
  8
Layer_1
 62
1
100
AcDbSpline
 70
8
 71
3
 72
8
 73
4
 74
0
 40
0
 40
0
 40
0
 40
0
 40
1
 40
1
 40
1
 40
1
 10
570.461337
 20
-82.046045
 30
0.0
 10
570.844114
 20
-82.012557
 30
0.0
 10
571.209373
 20
-82.212945
 30
0.0
 10
571.386795
 20
-82.553769
 30
0.0
  0
SPLINE
  5
101
100
AcDbEntity
  8
Layer_1
 62
1
100
AcDbSpline
 70
8
 71
3
 72
8
 73
4
 74
0
 40
0
 40
0
 40
0
 40
0
 40
1
 40
1
 40
1
 40
1
 10
571.386795
 20
-82.553769
 30
0.0
 10
571.564217
 20
-82.894593
 30
0.0
 10
571.518861
 20
-83.308734
 30
0.0
 10
571.271877
 20
-83.603079
 30
0.0
  0
SPLINE
  5
102
100
AcDbEntity
  8
Layer_1
 62
1
100
AcDbSpline
 70
8
 71
3
 72
8
 73
4
 74
0
 40
0
 40
0
 40
0
 40
0
 40
1
 40
1
 40
1
 40
1
 10
571.271877
 20
-83.603079
 30
0.0
 10
571.024893
 20
-83.897423
 30
0.0
 10
570.624920
 20
-84.014004
 30
0.0
 10
570.258464
 20
-83.898461
 30
0.0
  0
SPLINE
  5
103
100
AcDbEntity
  8
Layer_1
 62
1
100
AcDbSpline
 70
8
 71
3
 72
8
 73
4
 74
0
 40
0
 40
0
 40
0
 40
0
 40
1
 40
1
 40
1
 40
1
 10
570.258464
 20
-83.898461
 30
0.0
 10
569.892009
 20
-83.782919
 30
0.0
 10
569.631239
 20
-83.458005
 30
0.0
 10
569.597750
 20
-83.075228
 30
0.0
  0
SPLINE
  5
104
100
AcDbEntity
  8
Layer_1
 62
1
100
AcDbSpline
 70
8
 71
3
 72
8
 73
4
 74
0
 40
0
 40
0
 40
0
 40
0
 40
1
 40
1
 40
1
 40
1
 10
569.597750
 20
-83.075228
 30
0.0
 10
569.575790
 20
-82.824231
 30
0.0
 10
569.654439
 20
-82.574791
 30
0.0
 10
569.816393
 20
-82.381782
 30
0.0
  0
SPLINE
  5
105
100
AcDbEntity
  8
Layer_1
 62
1
100
AcDbSpline
 70
8
 71
3
 72
8
 73
4
 74
0
 40
0
 40
0
 40
0
 40
0
 40
1
 40
1
 40
1
 40
1
 10
569.816393
 20
-82.381782
 30
0.0
 10
569.978347
 20
-82.188773
 30
0.0
 10
570.210340
 20
-82.068005
 30
0.0
 10
570.461337
 20
-82.046045
 30
0.0
  0
LINE
  5
106
100
AcDbEntity
  8
Layer_1
 62
1
100
AcDbLine
 10
570.461337
 20
-82.046045
 30
0.0
 11
570.461337
 21
-82.046045
 31
0.0
  0
SPLINE
  5
107
100
AcDbEntity
  8
Layer_1
 62
1
100
AcDbSpline
 70
8
 71
3
 72
8
 73
4
 74
0
 40
0
 40
0
 40
0
 40
0
 40
1
 40
1
 40
1
 40
1
 10
495.797286
 20
-82.052962
 30
0.0
 10
495.414509
 20
-82.019473
 30
0.0
 10
495.049250
 20
-82.219861
 30
0.0
 10
494.871828
 20
-82.560685
 30
0.0
  0
SPLINE
  5
108
100
AcDbEntity
  8
Layer_1
 62
1
100
AcDbSpline
 70
8
 71
3
 72
8
 73
4
 74
0
 40
0
 40
0
 40
0
 40
0
 40
1
 40
1
 40
1
 40
1
 10
494.871828
 20
-82.560685
 30
0.0
 10
494.694406
 20
-82.901510
 30
0.0
 10
494.739762
 20
-83.315651
 30
0.0
 10
494.986746
 20
-83.609995
 30
0.0
  0
SPLINE
  5
109
100
AcDbEntity
  8
Layer_1
 62
1
100
AcDbSpline
 70
8
 71
3
 72
8
 73
4
 74
0
 40
0
 40
0
 40
0
 40
0
 40
1
 40
1
 40
1
 40
1
 10
494.986746
 20
-83.609995
 30
0.0
 10
495.233730
 20
-83.904339
 30
0.0
 10
495.633703
 20
-84.020921
 30
0.0
 10
496.000158
 20
-83.905378
 30
0.0
  0
SPLINE
  5
10a
100
AcDbEntity
  8
Layer_1
 62
1
100
AcDbSpline
 70
8
 71
3
 72
8
 73
4
 74
0
 40
0
 40
0
 40
0
 40
0
 40
1
 40
1
 40
1
 40
1
 10
496.000158
 20
-83.905378
 30
0.0
 10
496.366614
 20
-83.789835
 30
0.0
 10
496.627384
 20
-83.464922
 30
0.0
 10
496.660873
 20
-83.082145
 30
0.0
  0
SPLINE
  5
10b
100
AcDbEntity
  8
Layer_1
 62
1
100
AcDbSpline
 70
8
 71
3
 72
8
 73
4
 74
0
 40
0
 40
0
 40
0
 40
0
 40
1
 40
1
 40
1
 40
1
 10
496.660873
 20
-83.082145
 30
0.0
 10
496.682832
 20
-82.831148
 30
0.0
 10
496.604184
 20
-82.581708
 30
0.0
 10
496.442230
 20
-82.388698
 30
0.0
  0
SPLINE
  5
10c
100
AcDbEntity
  8
Layer_1
 62
1
100
AcDbSpline
 70
8
 71
3
 72
8
 73
4
 74
0
 40
0
 40
0
 40
0
 40
0
 40
1
 40
1
 40
1
 40
1
 10
496.442230
 20
-82.388698
 30
0.0
 10
496.280276
 20
-82.195689
 30
0.0
 10
496.048283
 20
-82.074921
 30
0.0
 10
495.797286
 20
-82.052962
 30
0.0
  0
LINE
  5
10d
100
AcDbEntity
  8
Layer_1
 62
1
100
AcDbLine
 10
495.797286
 20
-82.052962
 30
0.0
 11
495.797286
 21
-82.052962
 31
0.0
  0
SPLINE
  5
10e
100
AcDbEntity
  8
Layer_1
 62
1
100
AcDbSpline
 70
8
 71
3
 72
8
 73
4
 74
0
 40
0
 40
0
 40
0
 40
0
 40
1
 40
1
 40
1
 40
1
 10
504.280639
 20
14.912207
 30
0.0
 10
503.897862
 20
14.945696
 30
0.0
 10
503.532603
 20
14.745308
 30
0.0
 10
503.355181
 20
14.404483
 30
0.0
  0
SPLINE
  5
10f
100
AcDbEntity
  8
Layer_1
 62
1
100
AcDbSpline
 70
8
 71
3
 72
8
 73
4
 74
0
 40
0
 40
0
 40
0
 40
0
 40
1
 40
1
 40
1
 40
1
 10
503.355181
 20
14.404483
 30
0.0
 10
503.177759
 20
14.063659
 30
0.0
 10
503.223115
 20
13.649518
 30
0.0
 10
503.470099
 20
13.355174
 30
0.0
  0
SPLINE
  5
110
100
AcDbEntity
  8
Layer_1
 62
1
100
AcDbSpline
 70
8
 71
3
 72
8
 73
4
 74
0
 40
0
 40
0
 40
0
 40
0
 40
1
 40
1
 40
1
 40
1
 10
503.470099
 20
13.355174
 30
0.0
 10
503.717083
 20
13.060830
 30
0.0
 10
504.117056
 20
12.944248
 30
0.0
 10
504.483512
 20
13.059791
 30
0.0
  0
SPLINE
  5
111
100
AcDbEntity
  8
Layer_1
 62
1
100
AcDbSpline
 70
8
 71
3
 72
8
 73
4
 74
0
 40
0
 40
0
 40
0
 40
0
 40
1
 40
1
 40
1
 40
1
 10
504.483512
 20
13.059791
 30
0.0
 10
504.849967
 20
13.175334
 30
0.0
 10
505.110737
 20
13.500247
 30
0.0
 10
505.144226
 20
13.883024
 30
0.0
  0
SPLINE
  5
112
100
AcDbEntity
  8
Layer_1
 62
1
100
AcDbSpline
 70
8
 71
3
 72
8
 73
4
 74
0
 40
0
 40
0
 40
0
 40
0
 40
1
 40
1
 40
1
 40
1
 10
505.144226
 20
13.883024
 30
0.0
 10
505.166185
 20
14.134021
 30
0.0
 10
505.087537
 20
14.383461
 30
0.0
 10
504.925583
 20
14.576470
 30
0.0
  0
SPLINE
  5
113
100
AcDbEntity
  8
Layer_1
 62
1
100
AcDbSpline
 70
8
 71
3
 72
8
 73
4
 74
0
 40
0
 40
0
 40
0
 40
0
 40
1
 40
1
 40
1
 40
1
 10
504.925583
 20
14.576470
 30
0.0
 10
504.763629
 20
14.769480
 30
0.0
 10
504.531636
 20
14.890248
 30
0.0
 10
504.280639
 20
14.912207
 30
0.0
  0
LINE
  5
114
100
AcDbEntity
  8
Layer_1
 62
1
100
AcDbLine
 10
504.280639
 20
14.912207
 30
0.0
 11
504.280639
 21
14.912207
 31
0.0
  0
SPLINE
  5
115
100
AcDbEntity
  8
Layer_1
 62
1
100
AcDbSpline
 70
8
 71
3
 72
8
 73
4
 74
0
 40
0
 40
0
 40
0
 40
0
 40
1
 40
1
 40
1
 40
1
 10
561.977983
 20
14.919134
 30
0.0
 10
562.360760
 20
14.952622
 30
0.0
 10
562.726020
 20
14.752234
 30
0.0
 10
562.903441
 20
14.411410
 30
0.0
  0
SPLINE
  5
116
100
AcDbEntity
  8
Layer_1
 62
1
100
AcDbSpline
 70
8
 71
3
 72
8
 73
4
 74
0
 40
0
 40
0
 40
0
 40
0
 40
1
 40
1
 40
1
 40
1
 10
562.903441
 20
14.411410
 30
0.0
 10
563.080863
 20
14.070586
 30
0.0
 10
563.035508
 20
13.656445
 30
0.0
 10
562.788523
 20
13.362100
 30
0.0
  0
SPLINE
  5
117
100
AcDbEntity
  8
Layer_1
 62
1
100
AcDbSpline
 70
8
 71
3
 72
8
 73
4
 74
0
 40
0
 40
0
 40
0
 40
0
 40
1
 40
1
 40
1
 40
1
 10
562.788523
 20
13.362100
 30
0.0
 10
562.541539
 20
13.067756
 30
0.0
 10
562.141566
 20
12.951175
 30
0.0
 10
561.775111
 20
13.066718
 30
0.0
  0
SPLINE
  5
118
100
AcDbEntity
  8
Layer_1
 62
1
100
AcDbSpline
 70
8
 71
3
 72
8
 73
4
 74
0
 40
0
 40
0
 40
0
 40
0
 40
1
 40
1
 40
1
 40
1
 10
561.775111
 20
13.066718
 30
0.0
 10
561.408655
 20
13.182260
 30
0.0
 10
561.147885
 20
13.507174
 30
0.0
 10
561.114396
 20
13.889951
 30
0.0
  0
SPLINE
  5
119
100
AcDbEntity
  8
Layer_1
 62
1
100
AcDbSpline
 70
8
 71
3
 72
8
 73
4
 74
0
 40
0
 40
0
 40
0
 40
0
 40
1
 40
1
 40
1
 40
1
 10
561.114396
 20
13.889951
 30
0.0
 10
561.092437
 20
14.140948
 30
0.0
 10
561.171085
 20
14.390388
 30
0.0
 10
561.333039
 20
14.583397
 30
0.0
  0
SPLINE
  5
11a
100
AcDbEntity
  8
Layer_1
 62
1
100
AcDbSpline
 70
8
 71
3
 72
8
 73
4
 74
0
 40
0
 40
0
 40
0
 40
0
 40
1
 40
1
 40
1
 40
1
 10
561.333039
 20
14.583397
 30
0.0
 10
561.494993
 20
14.776406
 30
0.0
 10
561.726986
 20
14.897174
 30
0.0
 10
561.977983
 20
14.919134
 30
0.0
  0
LINE
  5
11b
100
AcDbEntity
  8
Layer_1
 62
1
100
AcDbLine
 10
561.977983
 20
14.919134
 30
0.0
 11
561.977983
 21
14.919134
 31
0.0
  0
SPLINE
  5
11c
100
AcDbEntity
  8
Layer_1
 62
1
100
AcDbSpline
 70
8
 71
3
 72
8
 73
4
 74
0
 40
0
 40
0
 40
0
 40
0
 40
1
 40
1
 40
1
 40
1
 10
500.496565
 20
-28.339957
 30
0.0
 10
500.113788
 20
-28.306468
 30
0.0
 10
499.748529
 20
-28.506856
 30
0.0
 10
499.571107
 20
-28.847680
 30
0.0
  0
SPLINE
  5
11d
100
AcDbEntity
  8
Layer_1
 62
1
100
AcDbSpline
 70
8
 71
3
 72
8
 73
4
 74
0
 40
0
 40
0
 40
0
 40
0
 40
1
 40
1
 40
1
 40
1
 10
499.571107
 20
-28.847680
 30
0.0
 10
499.393685
 20
-29.188505
 30
0.0
 10
499.439041
 20
-29.602646
 30
0.0
 10
499.686025
 20
-29.896990
 30
0.0
  0
SPLINE
  5
11e
100
AcDbEntity
  8
Layer_1
 62
1
100
AcDbSpline
 70
8
 71
3
 72
8
 73
4
 74
0
 40
0
 40
0
 40
0
 40
0
 40
1
 40
1
 40
1
 40
1
 10
499.686025
 20
-29.896990
 30
0.0
 10
499.933009
 20
-30.191334
 30
0.0
 10
500.332982
 20
-30.307916
 30
0.0
 10
500.699438
 20
-30.192373
 30
0.0
  0
SPLINE
  5
11f
100
AcDbEntity
  8
Layer_1
 62
1
100
AcDbSpline
 70
8
 71
3
 72
8
 73
4
 74
0
 40
0
 40
0
 40
0
 40
0
 40
1
 40
1
 40
1
 40
1
 10
500.699438
 20
-30.192373
 30
0.0
 10
501.065893
 20
-30.076830
 30
0.0
 10
501.326663
 20
-29.751917
 30
0.0
 10
501.360152
 20
-29.369140
 30
0.0
  0
SPLINE
  5
120
100
AcDbEntity
  8
Layer_1
 62
1
100
AcDbSpline
 70
8
 71
3
 72
8
 73
4
 74
0
 40
0
 40
0
 40
0
 40
0
 40
1
 40
1
 40
1
 40
1
 10
501.360152
 20
-29.369140
 30
0.0
 10
501.382111
 20
-29.118143
 30
0.0
 10
501.303463
 20
-28.868703
 30
0.0
 10
501.141509
 20
-28.675693
 30
0.0
  0
SPLINE
  5
121
100
AcDbEntity
  8
Layer_1
 62
1
100
AcDbSpline
 70
8
 71
3
 72
8
 73
4
 74
0
 40
0
 40
0
 40
0
 40
0
 40
1
 40
1
 40
1
 40
1
 10
501.141509
 20
-28.675693
 30
0.0
 10
500.979555
 20
-28.482684
 30
0.0
 10
500.747562
 20
-28.361916
 30
0.0
 10
500.496565
 20
-28.339957
 30
0.0
  0
LINE
  5
122
100
AcDbEntity
  8
Layer_1
 62
1
100
AcDbLine
 10
500.496565
 20
-28.339957
 30
0.0
 11
500.496565
 21
-28.339957
 31
0.0
  0
SPLINE
  5
123
100
AcDbEntity
  8
Layer_1
 62
1
100
AcDbSpline
 70
8
 71
3
 72
8
 73
4
 74
0
 40
0
 40
0
 40
0
 40
0
 40
1
 40
1
 40
1
 40
1
 10
565.762058
 20
-28.333040
 30
0.0
 10
566.144835
 20
-28.299552
 30
0.0
 10
566.510094
 20
-28.499940
 30
0.0
 10
566.687516
 20
-28.840764
 30
0.0
  0
SPLINE
  5
124
100
AcDbEntity
  8
Layer_1
 62
1
100
AcDbSpline
 70
8
 71
3
 72
8
 73
4
 74
0
 40
0
 40
0
 40
0
 40
0
 40
1
 40
1
 40
1
 40
1
 10
566.687516
 20
-28.840764
 30
0.0
 10
566.864938
 20
-29.181588
 30
0.0
 10
566.819582
 20
-29.595729
 30
0.0
 10
566.572598
 20
-29.890073
 30
0.0
  0
SPLINE
  5
125
100
AcDbEntity
  8
Layer_1
 62
1
100
AcDbSpline
 70
8
 71
3
 72
8
 73
4
 74
0
 40
0
 40
0
 40
0
 40
0
 40
1
 40
1
 40
1
 40
1
 10
566.572598
 20
-29.890073
 30
0.0
 10
566.325614
 20
-30.184418
 30
0.0
 10
565.925641
 20
-30.300999
 30
0.0
 10
565.559185
 20
-30.185456
 30
0.0
  0
SPLINE
  5
126
100
AcDbEntity
  8
Layer_1
 62
1
100
AcDbSpline
 70
8
 71
3
 72
8
 73
4
 74
0
 40
0
 40
0
 40
0
 40
0
 40
1
 40
1
 40
1
 40
1
 10
565.559185
 20
-30.185456
 30
0.0
 10
565.192730
 20
-30.069913
 30
0.0
 10
564.931960
 20
-29.745000
 30
0.0
 10
564.898471
 20
-29.362223
 30
0.0
  0
SPLINE
  5
127
100
AcDbEntity
  8
Layer_1
 62
1
100
AcDbSpline
 70
8
 71
3
 72
8
 73
4
 74
0
 40
0
 40
0
 40
0
 40
0
 40
1
 40
1
 40
1
 40
1
 10
564.898471
 20
-29.362223
 30
0.0
 10
564.876512
 20
-29.111226
 30
0.0
 10
564.955160
 20
-28.861786
 30
0.0
 10
565.117114
 20
-28.668777
 30
0.0
  0
SPLINE
  5
128
100
AcDbEntity
  8
Layer_1
 62
1
100
AcDbSpline
 70
8
 71
3
 72
8
 73
4
 74
0
 40
0
 40
0
 40
0
 40
0
 40
1
 40
1
 40
1
 40
1
 10
565.117114
 20
-28.668777
 30
0.0
 10
565.279068
 20
-28.475768
 30
0.0
 10
565.511061
 20
-28.355000
 30
0.0
 10
565.762058
 20
-28.333040
 30
0.0
  0
LINE
  5
129
100
AcDbEntity
  8
Layer_1
 62
1
100
AcDbLine
 10
565.762058
 20
-28.333040
 30
0.0
 11
565.762058
 21
-28.333040
 31
0.0
  0
LINE
  5
12a
100
AcDbEntity
  8
Layer_1
 62
1
100
AcDbLine
 10
566.097235
 20
-85.961683
 30
0.0
 11
567.630786
 21
-87.193553
 31
0.0
  0
SPLINE
  5
12b
100
AcDbEntity
  8
Layer_1
 62
1
100
AcDbSpline
 70
8
 71
3
 72
8
 73
4
 74
0
 40
0
 40
0
 40
0
 40
0
 40
1
 40
1
 40
1
 40
1
 10
567.630786
 20
-87.193553
 30
0.0
 10
568.160267
 20
-87.618869
 30
0.0
 10
568.833615
 20
-87.823138
 30
0.0
 10
569.510157
 20
-87.763684
 30
0.0
  0
LINE
  5
12c
100
AcDbEntity
  8
Layer_1
 62
1
100
AcDbLine
 10
569.510157
 20
-87.763684
 30
0.0
 11
577.786192
 21
-87.036614
 31
0.0
  0
SPLINE
  5
12d
100
AcDbEntity
  8
Layer_1
 62
1
100
AcDbSpline
 70
8
 71
3
 72
8
 73
4
 74
0
 40
0
 40
0
 40
0
 40
0
 40
1
 40
1
 40
1
 40
1
 10
577.786192
 20
-87.036614
 30
0.0
 10
578.065794
 20
-87.012042
 30
0.0
 10
578.324182
 20
-86.877401
 30
0.0
 10
578.504509
 20
-86.662311
 30
0.0
  0
SPLINE
  5
12e
100
AcDbEntity
  8
Layer_1
 62
1
100
AcDbSpline
 70
8
 71
3
 72
8
 73
4
 74
0
 40
0
 40
0
 40
0
 40
0
 40
1
 40
1
 40
1
 40
1
 10
578.504509
 20
-86.662311
 30
0.0
 10
578.684837
 20
-86.447222
 30
0.0
 10
578.772330
 20
-86.169306
 30
0.0
 10
578.747741
 20
-85.889705
 30
0.0
  0
LINE
  5
12f
100
AcDbEntity
  8
Layer_1
 62
1
100
AcDbLine
 10
578.747741
 20
-85.889705
 30
0.0
 11
578.350157
 21
-81.368241
 31
0.0
  0
SPLINE
  5
130
100
AcDbEntity
  8
Layer_1
 62
1
100
AcDbSpline
 70
8
 71
3
 72
8
 73
4
 74
0
 40
0
 40
0
 40
0
 40
0
 40
1
 40
1
 40
1
 40
1
 10
578.350157
 20
-81.368241
 30
0.0
 10
578.291157
 20
-80.697366
 30
0.0
 10
577.949344
 20
-80.083331
 30
0.0
 10
577.410216
 20
-79.679727
 30
0.0
  0
LINE
  5
131
100
AcDbEntity
  8
Layer_1
 62
1
100
AcDbLine
 10
577.410216
 20
-79.679727
 30
0.0
 11
566.089498
 21
-71.204793
 31
0.0
  0
SPLINE
  5
132
100
AcDbEntity
  8
Layer_1
 62
1
100
AcDbSpline
 70
8
 71
3
 72
8
 73
4
 74
0
 40
0
 40
0
 40
0
 40
0
 40
1
 40
1
 40
1
 40
1
 10
566.089498
 20
-71.204793
 30
0.0
 10
565.550411
 20
-70.801218
 30
0.0
 10
565.208793
 20
-70.187084
 30
0.0
 10
565.150215
 20
-69.516221
 30
0.0
  0
LINE
  5
133
100
AcDbEntity
  8
Layer_1
 62
1
100
AcDbLine
 10
565.150215
 20
-69.516221
 30
0.0
 11
562.770222
 21
-42.255406
 31
0.0
  0
SPLINE
  5
134
100
AcDbEntity
  8
Layer_1
 62
1
100
AcDbSpline
 70
8
 71
3
 72
8
 73
4
 74
0
 40
0
 40
0
 40
0
 40
0
 40
1
 40
1
 40
1
 40
1
 10
562.770222
 20
-42.255406
 30
0.0
 10
562.711711
 20
-41.585306
 30
0.0
 10
562.944896
 20
-40.922506
 30
0.0
 10
563.410093
 20
-40.436656
 30
0.0
  0
LINE
  5
135
100
AcDbEntity
  8
Layer_1
 62
1
100
AcDbLine
 10
563.410093
 20
-40.436656
 30
0.0
 11
568.518903
 21
-35.101031
 31
0.0
  0
SPLINE
  5
136
100
AcDbEntity
  8
Layer_1
 62
1
100
AcDbSpline
 70
8
 71
3
 72
8
 73
4
 74
0
 40
0
 40
0
 40
0
 40
0
 40
1
 40
1
 40
1
 40
1
 10
568.518903
 20
-35.101031
 30
0.0
 10
568.984034
 20
-34.615250
 30
0.0
 10
569.216820
 20
-33.952326
 30
0.0
 10
569.157518
 20
-33.282391
 30
0.0
  0
LINE
  5
137
100
AcDbEntity
  8
Layer_1
 62
1
100
AcDbLine
 10
569.157518
 20
-33.282391
 30
0.0
 11
568.395980
 21
-24.681234
 31
0.0
  0
SPLINE
  5
138
100
AcDbEntity
  8
Layer_1
 62
1
100
AcDbSpline
 70
8
 71
3
 72
8
 73
4
 74
0
 40
0
 40
0
 40
0
 40
0
 40
1
 40
1
 40
1
 40
1
 10
568.395980
 20
-24.681234
 30
0.0
 10
568.336566
 20
-24.010035
 30
0.0
 10
567.995779
 20
-23.395362
 30
0.0
 10
567.457986
 20
-22.989387
 30
0.0
  0
LINE
  5
139
100
AcDbEntity
  8
Layer_1
 62
1
100
AcDbLine
 10
567.457986
 20
-22.989387
 30
0.0
 11
561.477465
 21
-18.474784
 31
0.0
  0
SPLINE
  5
13a
100
AcDbEntity
  8
Layer_1
 62
1
100
AcDbSpline
 70
8
 71
3
 72
8
 73
4
 74
0
 40
0
 40
0
 40
0
 40
0
 40
1
 40
1
 40
1
 40
1
 10
561.477465
 20
-18.474784
 30
0.0
 10
560.939735
 20
-18.068859
 30
0.0
 10
560.599271
 20
-17.454022
 30
0.0
 10
560.540558
 20
-16.782843
 30
0.0
  0
LINE
  5
13b
100
AcDbEntity
  8
Layer_1
 62
1
100
AcDbLine
 10
560.540558
 20
-16.782843
 30
0.0
 11
559.073788
 21
-0.015405
 31
0.0
  0
SPLINE
  5
13c
100
AcDbEntity
  8
Layer_1
 62
1
100
AcDbSpline
 70
8
 71
3
 72
8
 73
4
 74
0
 40
0
 40
0
 40
0
 40
0
 40
1
 40
1
 40
1
 40
1
 10
559.073788
 20
-0.015405
 30
0.0
 10
559.015131
 20
0.655127
 30
0.0
 10
559.246371
 20
1.318686
 30
0.0
 10
559.709055
 20
1.807539
 30
0.0
  0
LINE
  5
13d
100
AcDbEntity
  8
Layer_1
 62
1
100
AcDbLine
 10
559.709055
 20
1.807539
 30
0.0
 11
569.385341
 21
12.031016
 31
0.0
  0
SPLINE
  5
13e
100
AcDbEntity
  8
Layer_1
 62
1
100
AcDbSpline
 70
8
 71
3
 72
8
 73
4
 74
0
 40
0
 40
0
 40
0
 40
0
 40
1
 40
1
 40
1
 40
1
 10
569.385341
 20
12.031016
 30
0.0
 10
569.848058
 20
12.519904
 30
0.0
 10
570.079502
 20
13.183401
 30
0.0
 10
570.021246
 20
13.854016
 30
0.0
  0
LINE
  5
13f
100
AcDbEntity
  8
Layer_1
 62
1
100
AcDbLine
 10
570.021246
 20
13.854016
 30
0.0
 11
569.642578
 21
18.216634
 31
0.0
  0
SPLINE
  5
140
100
AcDbEntity
  8
Layer_1
 62
1
100
AcDbSpline
 70
8
 71
3
 72
8
 73
4
 74
0
 40
0
 40
0
 40
0
 40
0
 40
1
 40
1
 40
1
 40
1
 10
569.642578
 20
18.216634
 30
0.0
 10
569.618287
 20
18.496244
 30
0.0
 10
569.483900
 20
18.754747
 30
0.0
 10
569.268989
 20
18.935261
 30
0.0
  0
SPLINE
  5
141
100
AcDbEntity
  8
Layer_1
 62
1
100
AcDbSpline
 70
8
 71
3
 72
8
 73
4
 74
0
 40
0
 40
0
 40
0
 40
0
 40
1
 40
1
 40
1
 40
1
 10
569.268989
 20
18.935261
 30
0.0
 10
569.054078
 20
19.115774
 30
0.0
 10
568.776253
 20
19.203506
 30
0.0
 10
568.496649
 20
19.179152
 30
0.0
  0
LINE
  5
142
100
AcDbEntity
  8
Layer_1
 62
1
100
AcDbLine
 10
568.496649
 20
19.179152
 30
0.0
 11
560.187964
 21
18.455248
 31
0.0
  0
SPLINE
  5
143
100
AcDbEntity
  8
Layer_1
 62
1
100
AcDbSpline
 70
8
 71
3
 72
8
 73
4
 74
0
 40
0
 40
0
 40
0
 40
0
 40
1
 40
1
 40
1
 40
1
 10
560.187964
 20
18.455248
 30
0.0
 10
559.509008
 20
18.396106
 30
0.0
 10
558.875691
 20
18.088719
 30
0.0
 10
558.409172
 20
17.591891
 30
0.0
  0
LINE
  5
144
100
AcDbEntity
  8
Layer_1
 62
1
100
AcDbLine
 10
558.409172
 20
17.591891
 30
0.0
 11
556.956745
 21
16.045118
 31
0.0
  0
SPLINE
  5
145
100
AcDbEntity
  8
Layer_1
 62
1
100
AcDbSpline
 70
8
 71
3
 72
8
 73
4
 74
0
 40
0
 40
0
 40
0
 40
0
 40
1
 40
1
 40
1
 40
1
 10
556.956745
 20
16.045118
 30
0.0
 10
556.494481
 20
15.552824
 30
0.0
 10
555.849267
 20
15.273533
 30
0.0
 10
555.173960
 20
15.273411
 30
0.0
  0
LINE
  5
146
100
AcDbEntity
  8
Layer_1
 62
1
100
AcDbLine
 10
555.173960
 20
15.273411
 30
0.0
 11
511.099077
 21
15.265542
 31
0.0
  0
SPLINE
  5
147
100
AcDbEntity
  8
Layer_1
 62
1
100
AcDbSpline
 70
8
 71
3
 72
8
 73
4
 74
0
 40
0
 40
0
 40
0
 40
0
 40
1
 40
1
 40
1
 40
1
 10
511.099077
 20
15.265542
 30
0.0
 10
510.423796
 20
15.265421
 30
0.0
 10
509.778534
 20
15.544594
 30
0.0
 10
509.316288
 20
16.036867
 30
0.0
  0
LINE
  5
148
100
AcDbEntity
  8
Layer_1
 62
1
100
AcDbLine
 10
509.316288
 20
16.036867
 30
0.0
 11
507.863871
 21
17.583636
 31
0.0
  0
SPLINE
  5
149
100
AcDbEntity
  8
Layer_1
 62
1
100
AcDbSpline
 70
8
 71
3
 72
8
 73
4
 74
0
 40
0
 40
0
 40
0
 40
0
 40
1
 40
1
 40
1
 40
1
 10
507.863871
 20
17.583636
 30
0.0
 10
507.397347
 20
18.080465
 30
0.0
 10
506.764025
 20
18.387851
 30
0.0
 10
506.085066
 20
18.446989
 30
0.0
  0
LINE
  5
14a
100
AcDbEntity
  8
Layer_1
 62
1
100
AcDbLine
 10
506.085066
 20
18.446989
 30
0.0
 11
497.776383
 21
19.170703
 31
0.0
  0
SPLINE
  5
14b
100
AcDbEntity
  8
Layer_1
 62
1
100
AcDbSpline
 70
8
 71
3
 72
8
 73
4
 74
0
 40
0
 40
0
 40
0
 40
0
 40
1
 40
1
 40
1
 40
1
 10
497.776383
 20
19.170703
 30
0.0
 10
497.496775
 20
19.195060
 30
0.0
 10
497.218946
 20
19.107328
 30
0.0
 10
497.004032
 20
18.926812
 30
0.0
  0
SPLINE
  5
14c
100
AcDbEntity
  8
Layer_1
 62
1
100
AcDbSpline
 70
8
 71
3
 72
8
 73
4
 74
0
 40
0
 40
0
 40
0
 40
0
 40
1
 40
1
 40
1
 40
1
 10
497.004032
 20
18.926812
 30
0.0
 10
496.789119
 20
18.746296
 30
0.0
 10
496.654731
 20
18.487789
 30
0.0
 10
496.630442
 20
18.208175
 30
0.0
  0
LINE
  5
14d
100
AcDbEntity
  8
Layer_1
 62
1
100
AcDbLine
 10
496.630442
 20
18.208175
 30
0.0
 11
496.250903
 21
13.845926
 31
0.0
  0
SPLINE
  5
14e
100
AcDbEntity
  8
Layer_1
 62
1
100
AcDbSpline
 70
8
 71
3
 72
8
 73
4
 74
0
 40
0
 40
0
 40
0
 40
0
 40
1
 40
1
 40
1
 40
1
 10
496.250903
 20
13.845926
 30
0.0
 10
496.192646
 20
13.175310
 30
0.0
 10
496.424089
 20
12.511810
 30
0.0
 10
496.886808
 20
12.022922
 30
0.0
  0
LINE
  5
14f
100
AcDbEntity
  8
Layer_1
 62
1
100
AcDbLine
 10
496.886808
 20
12.022922
 30
0.0
 11
506.549822
 21
1.813459
 31
0.0
  0
SPLINE
  5
150
100
AcDbEntity
  8
Layer_1
 62
1
100
AcDbSpline
 70
8
 71
3
 72
8
 73
4
 74
0
 40
0
 40
0
 40
0
 40
0
 40
1
 40
1
 40
1
 40
1
 10
506.549822
 20
1.813459
 30
0.0
 10
507.012518
 20
1.324596
 30
0.0
 10
507.243823
 20
0.661056
 30
0.0
 10
507.185292
 20
-0.009503
 30
0.0
  0
LINE
  5
151
100
AcDbEntity
  8
Layer_1
 62
1
100
AcDbLine
 10
507.185292
 20
-0.009503
 30
0.0
 11
505.719719
 21
-16.799728
 31
0.0
  0
SPLINE
  5
152
100
AcDbEntity
  8
Layer_1
 62
1
100
AcDbSpline
 70
8
 71
3
 72
8
 73
4
 74
0
 40
0
 40
0
 40
0
 40
0
 40
1
 40
1
 40
1
 40
1
 10
505.719719
 20
-16.799728
 30
0.0
 10
505.661133
 20
-17.470903
 30
0.0
 10
505.320727
 20
-18.085770
 30
0.0
 10
504.783009
 20
-18.491686
 30
0.0
  0
LINE
  5
153
100
AcDbEntity
  8
Layer_1
 62
1
100
AcDbLine
 10
504.783009
 20
-18.491686
 30
0.0
 11
498.814162
 21
-22.997491
 31
0.0
  0
SPLINE
  5
154
100
AcDbEntity
  8
Layer_1
 62
1
100
AcDbSpline
 70
8
 71
3
 72
8
 73
4
 74
0
 40
0
 40
0
 40
0
 40
0
 40
1
 40
1
 40
1
 40
1
 10
498.814162
 20
-22.997491
 30
0.0
 10
498.276368
 20
-23.403467
 30
0.0
 10
497.935580
 20
-24.018141
 30
0.0
 10
497.876167
 20
-24.689341
 30
0.0
  0
LINE
  5
155
100
AcDbEntity
  8
Layer_1
 62
1
100
AcDbLine
 10
497.876167
 20
-24.689341
 30
0.0
 11
497.114790
 21
-33.290499
 31
0.0
  0
SPLINE
  5
156
100
AcDbEntity
  8
Layer_1
 62
1
100
AcDbSpline
 70
8
 71
3
 72
8
 73
4
 74
0
 40
0
 40
0
 40
0
 40
0
 40
1
 40
1
 40
1
 40
1
 10
497.114790
 20
-33.290499
 30
0.0
 10
497.055488
 20
-33.960435
 30
0.0
 10
497.288274
 20
-34.623360
 30
0.0
 10
497.753405
 20
-35.109141
 30
0.0
  0
LINE
  5
157
100
AcDbEntity
  8
Layer_1
 62
1
100
AcDbLine
 10
497.753405
 20
-35.109141
 30
0.0
 11
502.852352
 21
-40.434473
 31
0.0
  0
SPLINE
  5
158
100
AcDbEntity
  8
Layer_1
 62
1
100
AcDbSpline
 70
8
 71
3
 72
8
 73
4
 74
0
 40
0
 40
0
 40
0
 40
0
 40
1
 40
1
 40
1
 40
1
 10
502.852352
 20
-40.434473
 30
0.0
 10
503.317545
 20
-40.920321
 30
0.0
 10
503.550720
 20
-41.583123
 30
0.0
 10
503.492191
 20
-42.253218
 30
0.0
  0
LINE
  5
159
100
AcDbEntity
  8
Layer_1
 62
1
100
AcDbLine
 10
503.492191
 20
-42.253218
 30
0.0
 11
501.109404
 21
-69.533702
 31
0.0
  0
SPLINE
  5
15a
100
AcDbEntity
  8
Layer_1
 62
1
100
AcDbSpline
 70
8
 71
3
 72
8
 73
4
 74
0
 40
0
 40
0
 40
0
 40
0
 40
1
 40
1
 40
1
 40
1
 10
501.109404
 20
-69.533702
 30
0.0
 10
501.050808
 20
-70.204568
 30
0.0
 10
500.709181
 20
-70.818698
 30
0.0
 10
500.170089
 20
-71.222274
 30
0.0
  0
LINE
  5
15b
100
AcDbEntity
  8
Layer_1
 62
1
100
AcDbLine
 10
500.170089
 20
-71.222274
 30
0.0
 11
488.861918
 21
-79.687820
 31
0.0
  0
SPLINE
  5
15c
100
AcDbEntity
  8
Layer_1
 62
1
100
AcDbSpline
 70
8
 71
3
 72
8
 73
4
 74
0
 40
0
 40
0
 40
0
 40
0
 40
1
 40
1
 40
1
 40
1
 10
488.861918
 20
-79.687820
 30
0.0
 10
488.322789
 20
-80.091424
 30
0.0
 10
487.980975
 20
-80.705460
 30
0.0
 10
487.921976
 20
-81.376337
 30
0.0
  0
LINE
  5
15d
100
AcDbEntity
  8
Layer_1
 62
1
100
AcDbLine
 10
487.921976
 20
-81.376337
 30
0.0
 11
487.524354
 21
-85.897798
 31
0.0
  0
SPLINE
  5
15e
100
AcDbEntity
  8
Layer_1
 62
1
100
AcDbSpline
 70
8
 71
3
 72
8
 73
4
 74
0
 40
0
 40
0
 40
0
 40
0
 40
1
 40
1
 40
1
 40
1
 10
487.524354
 20
-85.897798
 30
0.0
 10
487.499764
 20
-86.177398
 30
0.0
 10
487.587258
 20
-86.455315
 30
0.0
 10
487.767585
 20
-86.670405
 30
0.0
  0
SPLINE
  5
15f
100
AcDbEntity
  8
Layer_1
 62
1
100
AcDbSpline
 70
8
 71
3
 72
8
 73
4
 74
0
 40
0
 40
0
 40
0
 40
0
 40
1
 40
1
 40
1
 40
1
 10
487.767585
 20
-86.670405
 30
0.0
 10
487.947912
 20
-86.885494
 30
0.0
 10
488.206300
 20
-87.020136
 30
0.0
 10
488.485903
 20
-87.044707
 30
0.0
  0
LINE
  5
160
100
AcDbEntity
  8
Layer_1
 62
1
100
AcDbLine
 10
488.485903
 20
-87.044707
 30
0.0
 11
496.761919
 21
-87.771952
 31
0.0
  0
SPLINE
  5
161
100
AcDbEntity
  8
Layer_1
 62
1
100
AcDbSpline
 70
8
 71
3
 72
8
 73
4
 74
0
 40
0
 40
0
 40
0
 40
0
 40
1
 40
1
 40
1
 40
1
 10
496.761919
 20
-87.771952
 30
0.0
 10
497.438462
 20
-87.831403
 30
0.0
 10
498.111809
 20
-87.627132
 30
0.0
 10
498.641290
 20
-87.201815
 30
0.0
  0
LINE
  5
162
100
AcDbEntity
  8
Layer_1
 62
1
100
AcDbLine
 10
498.641290
 20
-87.201815
 30
0.0
 11
500.174842
 21
-85.969959
 31
0.0
  0
SPLINE
  5
163
100
AcDbEntity
  8
Layer_1
 62
1
100
AcDbSpline
 70
8
 71
3
 72
8
 73
4
 74
0
 40
0
 40
0
 40
0
 40
0
 40
1
 40
1
 40
1
 40
1
 10
500.174842
 20
-85.969959
 30
0.0
 10
500.708866
 20
-85.540989
 30
0.0
 10
501.373302
 20
-85.307124
 30
0.0
 10
502.058281
 20
-85.307034
 30
0.0
  0
LINE
  5
164
100
AcDbEntity
  8
Layer_1
 62
1
100
AcDbLine
 10
502.058281
 20
-85.307034
 30
0.0
 11
564.213796
 21
-85.299044
 31
0.0
  0
SPLINE
  5
165
100
AcDbEntity
  8
Layer_1
 62
1
100
AcDbSpline
 70
8
 71
3
 72
8
 73
4
 74
0
 40
0
 40
0
 40
0
 40
0
 40
1
 40
1
 40
1
 40
1
 10
564.213796
 20
-85.299044
 30
0.0
 10
564.898758
 20
-85.298953
 30
0.0
 10
565.563222
 20
-85.532727
 30
0.0
 10
566.097235
 20
-85.961683
 30
0.0
  0
LINE
  5
166
100
AcDbEntity
  8
Layer_1
 62
1
100
AcDbLine
 10
566.097235
 20
-85.961683
 30
0.0
 11
566.097235
 21
-85.961683
 31
0.0
  0
SPLINE
  5
167
100
AcDbEntity
  8
Layer_1
 62
1
100
AcDbSpline
 70
8
 71
3
 72
8
 73
4
 74
0
 40
0
 40
0
 40
0
 40
0
 40
1
 40
1
 40
1
 40
1
 10
533.119140
 20
-50.016050
 30
0.0
 10
529.883442
 20
-50.016050
 30
0.0
 10
526.966352
 20
-51.965187
 30
0.0
 10
525.728104
 20
-54.954583
 30
0.0
  0
SPLINE
  5
168
100
AcDbEntity
  8
Layer_1
 62
1
100
AcDbSpline
 70
8
 71
3
 72
8
 73
4
 74
0
 40
0
 40
0
 40
0
 40
0
 40
1
 40
1
 40
1
 40
1
 10
525.728104
 20
-54.954583
 30
0.0
 10
524.489856
 20
-57.943978
 30
0.0
 10
525.174302
 20
-61.384920
 30
0.0
 10
527.462286
 20
-63.672904
 30
0.0
  0
SPLINE
  5
169
100
AcDbEntity
  8
Layer_1
 62
1
100
AcDbSpline
 70
8
 71
3
 72
8
 73
4
 74
0
 40
0
 40
0
 40
0
 40
0
 40
1
 40
1
 40
1
 40
1
 10
527.462286
 20
-63.672904
 30
0.0
 10
529.750270
 20
-65.960888
 30
0.0
 10
533.191212
 20
-66.645334
 30
0.0
 10
536.180607
 20
-65.407086
 30
0.0
  0
SPLINE
  5
16a
100
AcDbEntity
  8
Layer_1
 62
1
100
AcDbSpline
 70
8
 71
3
 72
8
 73
4
 74
0
 40
0
 40
0
 40
0
 40
0
 40
1
 40
1
 40
1
 40
1
 10
536.180607
 20
-65.407086
 30
0.0
 10
539.170003
 20
-64.168838
 30
0.0
 10
541.119140
 20
-61.251748
 30
0.0
 10
541.119140
 20
-58.016050
 30
0.0
  0
SPLINE
  5
16b
100
AcDbEntity
  8
Layer_1
 62
1
100
AcDbSpline
 70
8
 71
3
 72
8
 73
4
 74
0
 40
0
 40
0
 40
0
 40
0
 40
1
 40
1
 40
1
 40
1
 10
541.119140
 20
-58.016050
 30
0.0
 10
541.119140
 20
-55.894318
 30
0.0
 10
540.276285
 20
-53.859487
 30
0.0
 10
538.775994
 20
-52.359196
 30
0.0
  0
SPLINE
  5
16c
100
AcDbEntity
  8
Layer_1
 62
1
100
AcDbSpline
 70
8
 71
3
 72
8
 73
4
 74
0
 40
0
 40
0
 40
0
 40
0
 40
1
 40
1
 40
1
 40
1
 10
538.775994
 20
-52.359196
 30
0.0
 10
537.275703
 20
-50.858905
 30
0.0
 10
535.240872
 20
-50.016050
 30
0.0
 10
533.119140
 20
-50.016050
 30
0.0
  0
LINE
  5
16d
100
AcDbEntity
  8
Layer_1
 62
1
100
AcDbLine
 10
533.119140
 20
-50.016050
 30
0.0
 11
533.119140
 21
-50.016050
 31
0.0
  0
LINE
  5
16e
100
AcDbEntity
  8
Layer_1
 62
1
100
AcDbLine
 10
524.336143
 20
11.127810
 30
0.0
 11
541.904478
 21
11.127810
 31
0.0
  0
SPLINE
  5
16f
100
AcDbEntity
  8
Layer_1
 62
1
100
AcDbSpline
 70
8
 71
3
 72
8
 73
4
 74
0
 40
0
 40
0
 40
0
 40
0
 40
1
 40
1
 40
1
 40
1
 10
541.904478
 20
11.127810
 30
0.0
 10
542.606196
 20
11.127810
 30
0.0
 10
543.279174
 20
10.849053
 30
0.0
 10
543.775364
 20
10.352863
 30
0.0
  0
SPLINE
  5
170
100
AcDbEntity
  8
Layer_1
 62
1
100
AcDbSpline
 70
8
 71
3
 72
8
 73
4
 74
0
 40
0
 40
0
 40
0
 40
0
 40
1
 40
1
 40
1
 40
1
 10
543.775364
 20
10.352863
 30
0.0
 10
544.271554
 20
9.856673
 30
0.0
 10
544.550311
 20
9.183695
 30
0.0
 10
544.550311
 20
8.481977
 30
0.0
  0
LINE
  5
171
100
AcDbEntity
  8
Layer_1
 62
1
100
AcDbLine
 10
544.550311
 20
8.481977
 30
0.0
 11
544.550311
 21
-37.026356
 31
0.0
  0
SPLINE
  5
172
100
AcDbEntity
  8
Layer_1
 62
1
100
AcDbSpline
 70
8
 71
3
 72
8
 73
4
 74
0
 40
0
 40
0
 40
0
 40
0
 40
1
 40
1
 40
1
 40
1
 10
544.550311
 20
-37.026356
 30
0.0
 10
544.550311
 20
-37.728074
 30
0.0
 10
544.271554
 20
-38.401052
 30
0.0
 10
543.775364
 20
-38.897242
 30
0.0
  0
SPLINE
  5
173
100
AcDbEntity
  8
Layer_1
 62
1
100
AcDbSpline
 70
8
 71
3
 72
8
 73
4
 74
0
 40
0
 40
0
 40
0
 40
0
 40
1
 40
1
 40
1
 40
1
 10
543.775364
 20
-38.897242
 30
0.0
 10
543.279174
 20
-39.393432
 30
0.0
 10
542.606196
 20
-39.672189
 30
0.0
 10
541.904478
 20
-39.672189
 30
0.0
  0
LINE
  5
174
100
AcDbEntity
  8
Layer_1
 62
1
100
AcDbLine
 10
541.904478
 20
-39.672189
 30
0.0
 11
524.336143
 21
-39.672189
 31
0.0
  0
SPLINE
  5
175
100
AcDbEntity
  8
Layer_1
 62
1
100
AcDbSpline
 70
8
 71
3
 72
8
 73
4
 74
0
 40
0
 40
0
 40
0
 40
0
 40
1
 40
1
 40
1
 40
1
 10
524.336143
 20
-39.672189
 30
0.0
 10
523.634425
 20
-39.672189
 30
0.0
 10
522.961447
 20
-39.393432
 30
0.0
 10
522.465257
 20
-38.897242
 30
0.0
  0
SPLINE
  5
176
100
AcDbEntity
  8
Layer_1
 62
1
100
AcDbSpline
 70
8
 71
3
 72
8
 73
4
 74
0
 40
0
 40
0
 40
0
 40
0
 40
1
 40
1
 40
1
 40
1
 10
522.465257
 20
-38.897242
 30
0.0
 10
521.969067
 20
-38.401052
 30
0.0
 10
521.690310
 20
-37.728074
 30
0.0
 10
521.690310
 20
-37.026356
 30
0.0
  0
LINE
  5
177
100
AcDbEntity
  8
Layer_1
 62
1
100
AcDbLine
 10
521.690310
 20
-37.026356
 30
0.0
 11
521.690310
 21
8.481977
 31
0.0
  0
SPLINE
  5
178
100
AcDbEntity
  8
Layer_1
 62
1
100
AcDbSpline
 70
8
 71
3
 72
8
 73
4
 74
0
 40
0
 40
0
 40
0
 40
0
 40
1
 40
1
 40
1
 40
1
 10
521.690310
 20
8.481977
 30
0.0
 10
521.690310
 20
9.183695
 30
0.0
 10
521.969067
 20
9.856673
 30
0.0
 10
522.465257
 20
10.352863
 30
0.0
  0
SPLINE
  5
179
100
AcDbEntity
  8
Layer_1
 62
1
100
AcDbSpline
 70
8
 71
3
 72
8
 73
4
 74
0
 40
0
 40
0
 40
0
 40
0
 40
1
 40
1
 40
1
 40
1
 10
522.465257
 20
10.352863
 30
0.0
 10
522.961447
 20
10.849053
 30
0.0
 10
523.634425
 20
11.127810
 30
0.0
 10
524.336143
 20
11.127810
 30
0.0
  0
LINE
  5
17a
100
AcDbEntity
  8
Layer_1
 62
1
100
AcDbLine
 10
524.336143
 20
11.127810
 30
0.0
 11
524.336143
 21
11.127810
 31
0.0
  0
ENDSEC
  0
SECTION
  2
OBJECTS
  0
DICTIONARY
  5
C
330
0
100
AcDbDictionary
  3
ACAD_GROUP
350
D
  3
ACAD_MLINESTYLE
350
17
  0
DICTIONARY
  5
D
330
C
100
AcDbDictionary
  0
DICTIONARY
  5
1A
330
C
100
AcDbDictionary
  0
DICTIONARY
  5
17
330
C
100
AcDbDictionary
  3
STANDARD
350
18
  0
DICTIONARY
  5
19
330
C
100
AcDbDictionary
  0
ENDSEC
  0
EOF
