  0
SECTION
  2
HEADER
  9
$ACADVER
  1
AC1014
  9
$HANDSEED
  5
FFFF
  9
$INSUNITS
 70
     0
  9
$MEASUREMENT
 70
     1
  0
ENDSEC
  0
SECTION
  2
TABLES
  0
TABLE
  2
VPORT
  5
8
330
0
100
AcDbSymbolTable
 70
     4
  0
VPORT
  5
2E
330
8
100
AcDbSymbolTableRecord
100
AcDbViewportTableRecord
  2
*ACTIVE
 70
     0
 10
0.0
 20
0.0
 11
1.0
 21
1.0
 12
210.0
 22
148.5
 13
0.0
 23
0.0
 14
10.0
 24
10.0
 15
10.0
 25
10.0
 16
0.0
 26
0.0
 36
1.0
 17
0.0
 27
0.0
 37
0.0
 40
341.0
 41
1.24
 42
50.0
 43
0.0
 44
0.0
 50
0.0
 51
0.0
 71
     0
 72
   100
 73
     1
 74
     3
 75
     0
 76
     0
 77
     0
 78
     0
  0
ENDTAB
  0
TABLE
  2
LTYPE
  5
5
330
0
100
AcDbSymbolTable
 70
     1
  0
LTYPE
  5
14
330
5
100
AcDbSymbolTableRecord
100
AcDbLinetypeTableRecord
  2
BYBLOCK
 70
     0
  3

 72
    65
 73
     0
 40
0.0
  0
LTYPE
  5
15
330
5
100
AcDbSymbolTableRecord
100
AcDbLinetypeTableRecord
  2
BYLAYER
 70
     0
  3

 72
    65
 73
     0
 40
0.0
  0
LTYPE
  5
16
330
5
100
AcDbSymbolTableRecord
100
AcDbLinetypeTableRecord
  2
CONTINUOUS
 70
     0
  3
Solid line
 72
    65
 73
     0
 40
0.0
  0
ENDTAB
  0
TABLE
  2
LAYER
  5
2
100
AcDbSymbolTable
 70
2
  0
LAYER
  5
50
100
AcDbSymbolTableRecord
100
AcDbLayerTableRecord
  2
0
 70
0
  6
CONTINUOUS
  0
LAYER
  5
51
100
AcDbSymbolTableRecord
100
AcDbLayerTableRecord
  2
Layer_1
 70
0
  6
CONTINUOUS
  0
ENDTAB
  0
TABLE
  2
STYLE
  5
3
330
0
100
AcDbSymbolTable
 70
     1
  0
STYLE
  5
11
330
3
100
AcDbSymbolTableRecord
100
AcDbTextStyleTableRecord
  2
STANDARD
 70
     0
 40
0.0
 41
1.0
 50
0.0
 71
     0
 42
2.5
  3
txt
  4

  0
ENDTAB
  0
TABLE
  2
VIEW
  5
6
330
0
100
AcDbSymbolTable
 70
     0
  0
ENDTAB
  0
TABLE
  2
UCS
  5
7
330
0
100
AcDbSymbolTable
 70
     0
  0
ENDTAB
  0
TABLE
  2
APPID
  5
9
330
0
100
AcDbSymbolTable
 70
     2
  0
APPID
  5
12
330
9
100
AcDbSymbolTableRecord
100
AcDbRegAppTableRecord
  2
ACAD
 70
     0
  0
ENDTAB
  0
TABLE
  2
DIMSTYLE
  5
A
330
0
100
AcDbSymbolTable
 70
     1
  0
DIMSTYLE
105
27
330
A
100
AcDbSymbolTableRecord
100
AcDbDimStyleTableRecord
  2
ISO-25
 70
     0
  3

  4

  5

  6

  7

 40
1.0
 41
2.5
 42
0.625
 43
3.75
 44
1.25
 45
0.0
 46
0.0
 47
0.0
 48
0.0
140
2.5
141
2.5
142
0.0
143
0.03937007874016
144
1.0
145
0.0
146
1.0
147
0.625
 71
     0
 72
     0
 73
     0
 74
     0
 75
     0
 76
     0
 77
     1
 78
     8
170
     0
171
     3
172
     1
173
     0
174
     0
175
     0
176
     0
177
     0
178
     0
270
     2
271
     2
272
     2
273
     2
274
     3
340
11
275
     0
280
     0
281
     0
282
     0
283
     0
284
     8
285
     0
286
     0
287
     3
288
     0
  0
ENDTAB
  0
TABLE
  2
BLOCK_RECORD
  5
1
330
0
100
AcDbSymbolTable
 70
     1
  0
BLOCK_RECORD
  5
1F
330
1
100
AcDbSymbolTableRecord
100
AcDbBlockTableRecord
  2
*MODEL_SPACE
  0
BLOCK_RECORD
  5
1B
330
1
100
AcDbSymbolTableRecord
100
AcDbBlockTableRecord
  2
*PAPER_SPACE
  0
ENDTAB
  0
ENDSEC
  0
SECTION
  2
BLOCKS
  0
BLOCK
  5
20
330
1F
100
AcDbEntity
  8
0
100
AcDbBlockBegin
  2
*MODEL_SPACE
 70
     0
 10
0.0
 20
0.0
 30
0.0
  3
*MODEL_SPACE
  1

  0
ENDBLK
  5
21
330
1F
100
AcDbEntity
  8
0
100
AcDbBlockEnd
  0
BLOCK
  5
1C
330
1B
100
AcDbEntity
 67
     1
  8
0
100
AcDbBlockBegin
  2
*PAPER_SPACE
  1

  0
ENDBLK
  5
1D
330
1B
100
AcDbEntity
 67
     1
  8
0
100
AcDbBlockEnd
  0
ENDSEC
  0
SECTION
  2
ENTITIES
  0
SPLINE
  5
100
100
AcDbEntity
  8
Layer_1
 62
1
100
AcDbSpline
 70
8
 71
3
 72
8
 73
4
 74
0
 40
0
 40
0
 40
0
 40
0
 40
1
 40
1
 40
1
 40
1
 10
570.461337
 20
-82.046045
 30
0.0
 10
570.844114
 20
-82.012557
 30
0.0
 10
571.209373
 20
-82.212945
 30
0.0
 10
571.386795
 20
-82.553769
 30
0.0
  0
SPLINE
  5
101
100
AcDbEntity
  8
Layer_1
 62
1
100
AcDbSpline
 70
8
 71
3
 72
8
 73
4
 74
0
 40
0
 40
0
 40
0
 40
0
 40
1
 40
1
 40
1
 40
1
 10
571.386795
 20
-82.553769
 30
0.0
 10
571.564217
 20
-82.894593
 30
0.0
 10
571.518861
 20
-83.308734
 30
0.0
 10
571.271877
 20
-83.603079
 30
0.0
  0
SPLINE
  5
102
100
AcDbEntity
  8
Layer_1
 62
1
100
AcDbSpline
 70
8
 71
3
 72
8
 73
4
 74
0
 40
0
 40
0
 40
0
 40
0
 40
1
 40
1
 40
1
 40
1
 10
571.271877
 20
-83.603079
 30
0.0
 10
571.024893
 20
-83.897423
 30
0.0
 10
570.624920
 20
-84.014004
 30
0.0
 10
570.258464
 20
-83.898461
 30
0.0
  0
SPLINE
  5
103
100
AcDbEntity
  8
Layer_1
 62
1
100
AcDbSpline
 70
8
 71
3
 72
8
 73
4
 74
0
 40
0
 40
0
 40
0
 40
0
 40
1
 40
1
 40
1
 40
1
 10
570.258464
 20
-83.898461
 30
0.0
 10
569.892009
 20
-83.782919
 30
0.0
 10
569.631239
 20
-83.458005
 30
0.0
 10
569.597750
 20
-83.075228
 30
0.0
  0
SPLINE
  5
104
100
AcDbEntity
  8
Layer_1
 62
1
100
AcDbSpline
 70
8
 71
3
 72
8
 73
4
 74
0
 40
0
 40
0
 40
0
 40
0
 40
1
 40
1
 40
1
 40
1
 10
569.597750
 20
-83.075228
 30
0.0
 10
569.575790
 20
-82.824231
 30
0.0
 10
569.654439
 20
-82.574791
 30
0.0
 10
569.816393
 20
-82.381782
 30
0.0
  0
SPLINE
  5
105
100
AcDbEntity
  8
Layer_1
 62
1
100
AcDbSpline
 70
8
 71
3
 72
8
 73
4
 74
0
 40
0
 40
0
 40
0
 40
0
 40
1
 40
1
 40
1
 40
1
 10
569.816393
 20
-82.381782
 30
0.0
 10
569.978347
 20
-82.188773
 30
0.0
 10
570.210340
 20
-82.068005
 30
0.0
 10
570.461337
 20
-82.046045
 30
0.0
  0
LINE
  5
106
100
AcDbEntity
  8
Layer_1
 62
1
100
AcDbLine
 10
570.461337
 20
-82.046045
 30
0.0
 11
570.461337
 21
-82.046045
 31
0.0
  0
SPLINE
  5
107
100
AcDbEntity
  8
Layer_1
 62
1
100
AcDbSpline
 70
8
 71
3
 72
8
 73
4
 74
0
 40
0
 40
0
 40
0
 40
0
 40
1
 40
1
 40
1
 40
1
 10
495.797286
 20
-82.052962
 30
0.0
 10
495.414509
 20
-82.019473
 30
0.0
 10
495.049250
 20
-82.219861
 30
0.0
 10
494.871828
 20
-82.560685
 30
0.0
  0
SPLINE
  5
108
100
AcDbEntity
  8
Layer_1
 62
1
100
AcDbSpline
 70
8
 71
3
 72
8
 73
4
 74
0
 40
0
 40
0
 40
0
 40
0
 40
1
 40
1
 40
1
 40
1
 10
494.871828
 20
-82.560685
 30
0.0
 10
494.694406
 20
-82.901510
 30
0.0
 10
494.739762
 20
-83.315651
 30
0.0
 10
494.986746
 20
-83.609995
 30
0.0
  0
SPLINE
  5
109
100
AcDbEntity
  8
Layer_1
 62
1
100
AcDbSpline
 70
8
 71
3
 72
8
 73
4
 74
0
 40
0
 40
0
 40
0
 40
0
 40
1
 40
1
 40
1
 40
1
 10
494.986746
 20
-83.609995
 30
0.0
 10
495.233730
 20
-83.904339
 30
0.0
 10
495.633703
 20
-84.020921
 30
0.0
 10
496.000158
 20
-83.905378
 30
0.0
  0
SPLINE
  5
10a
100
AcDbEntity
  8
Layer_1
 62
1
100
AcDbSpline
 70
8
 71
3
 72
8
 73
4
 74
0
 40
0
 40
0
 40
0
 40
0
 40
1
 40
1
 40
1
 40
1
 10
496.000158
 20
-83.905378
 30
0.0
 10
496.366614
 20
-83.789835
 30
0.0
 10
496.627384
 20
-83.464922
 30
0.0
 10
496.660873
 20
-83.082145
 30
0.0
  0
SPLINE
  5
10b
100
AcDbEntity
  8
Layer_1
 62
1
100
AcDbSpline
 70
8
 71
3
 72
8
 73
4
 74
0
 40
0
 40
0
 40
0
 40
0
 40
1
 40
1
 40
1
 40
1
 10
496.660873
 20
-83.082145
 30
0.0
 10
496.682832
 20
-82.831148
 30
0.0
 10
496.604184
 20
-82.581708
 30
0.0
 10
496.442230
 20
-82.388698
 30
0.0
  0
SPLINE
  5
10c
100
AcDbEntity
  8
Layer_1
 62
1
100
AcDbSpline
 70
8
 71
3
 72
8
 73
4
 74
0
 40
0
 40
0
 40
0
 40
0
 40
1
 40
1
 40
1
 40
1
 10
496.442230
 20
-82.388698
 30
0.0
 10
496.280276
 20
-82.195689
 30
0.0
 10
496.048283
 20
-82.074921
 30
0.0
 10
495.797286
 20
-82.052962
 30
0.0
  0
LINE
  5
10d
100
AcDbEntity
  8
Layer_1
 62
1
100
AcDbLine
 10
495.797286
 20
-82.052962
 30
0.0
 11
495.797286
 21
-82.052962
 31
0.0
  0
SPLINE
  5
10e
100
AcDbEntity
  8
Layer_1
 62
1
100
AcDbSpline
 70
8
 71
3
 72
8
 73
4
 74
0
 40
0
 40
0
 40
0
 40
0
 40
1
 40
1
 40
1
 40
1
 10
504.280639
 20
14.912207
 30
0.0
 10
503.897862
 20
14.945696
 30
0.0
 10
503.532603
 20
14.745308
 30
0.0
 10
503.355181
 20
14.404483
 30
0.0
  0
SPLINE
  5
10f
100
AcDbEntity
  8
Layer_1
 62
1
100
AcDbSpline
 70
8
 71
3
 72
8
 73
4
 74
0
 40
0
 40
0
 40
0
 40
0
 40
1
 40
1
 40
1
 40
1
 10
503.355181
 20
14.404483
 30
0.0
 10
503.177759
 20
14.063659
 30
0.0
 10
503.223115
 20
13.649518
 30
0.0
 10
503.470099
 20
13.355174
 30
0.0
  0
SPLINE
  5
110
100
AcDbEntity
  8
Layer_1
 62
1
100
AcDbSpline
 70
8
 71
3
 72
8
 73
4
 74
0
 40
0
 40
0
 40
0
 40
0
 40
1
 40
1
 40
1
 40
1
 10
503.470099
 20
13.355174
 30
0.0
 10
503.717083
 20
13.060830
 30
0.0
 10
504.117056
 20
12.944248
 30
0.0
 10
504.483512
 20
13.059791
 30
0.0
  0
SPLINE
  5
111
100
AcDbEntity
  8
Layer_1
 62
1
100
AcDbSpline
 70
8
 71
3
 72
8
 73
4
 74
0
 40
0
 40
0
 40
0
 40
0
 40
1
 40
1
 40
1
 40
1
 10
504.483512
 20
13.059791
 30
0.0
 10
504.849967
 20
13.175334
 30
0.0
 10
505.110737
 20
13.500247
 30
0.0
 10
505.144226
 20
13.883024
 30
0.0
  0
SPLINE
  5
112
100
AcDbEntity
  8
Layer_1
 62
1
100
AcDbSpline
 70
8
 71
3
 72
8
 73
4
 74
0
 40
0
 40
0
 40
0
 40
0
 40
1
 40
1
 40
1
 40
1
 10
505.144226
 20
13.883024
 30
0.0
 10
505.166185
 20
14.134021
 30
0.0
 10
505.087537
 20
14.383461
 30
0.0
 10
504.925583
 20
14.576470
 30
0.0
  0
SPLINE
  5
113
100
AcDbEntity
  8
Layer_1
 62
1
100
AcDbSpline
 70
8
 71
3
 72
8
 73
4
 74
0
 40
0
 40
0
 40
0
 40
0
 40
1
 40
1
 40
1
 40
1
 10
504.925583
 20
14.576470
 30
0.0
 10
504.763629
 20
14.769480
 30
0.0
 10
504.531636
 20
14.890248
 30
0.0
 10
504.280639
 20
14.912207
 30
0.0
  0
LINE
  5
114
100
AcDbEntity
  8
Layer_1
 62
1
100
AcDbLine
 10
504.280639
 20
14.912207
 30
0.0
 11
504.280639
 21
14.912207
 31
0.0
  0
SPLINE
  5
115
100
AcDbEntity
  8
Layer_1
 62
1
100
AcDbSpline
 70
8
 71
3
 72
8
 73
4
 74
0
 40
0
 40
0
 40
0
 40
0
 40
1
 40
1
 40
1
 40
1
 10
561.977983
 20
14.919134
 30
0.0
 10
562.360760
 20
14.952622
 30
0.0
 10
562.726020
 20
14.752234
 30
0.0
 10
562.903441
 20
14.411410
 30
0.0
  0
SPLINE
  5
116
100
AcDbEntity
  8
Layer_1
 62
1
100
AcDbSpline
 70
8
 71
3
 72
8
 73
4
 74
0
 40
0
 40
0
 40
0
 40
0
 40
1
 40
1
 40
1
 40
1
 10
562.903441
 20
14.411410
 30
0.0
 10
563.080863
 20
14.070586
 30
0.0
 10
563.035508
 20
13.656445
 30
0.0
 10
562.788523
 20
13.362100
 30
0.0
  0
SPLINE
  5
117
100
AcDbEntity
  8
Layer_1
 62
1
100
AcDbSpline
 70
8
 71
3
 72
8
 73
4
 74
0
 40
0
 40
0
 40
0
 40
0
 40
1
 40
1
 40
1
 40
1
 10
562.788523
 20
13.362100
 30
0.0
 10
562.541539
 20
13.067756
 30
0.0
 10
562.141566
 20
12.951175
 30
0.0
 10
561.775111
 20
13.066718
 30
0.0
  0
SPLINE
  5
118
100
AcDbEntity
  8
Layer_1
 62
1
100
AcDbSpline
 70
8
 71
3
 72
8
 73
4
 74
0
 40
0
 40
0
 40
0
 40
0
 40
1
 40
1
 40
1
 40
1
 10
561.775111
 20
13.066718
 30
0.0
 10
561.408655
 20
13.182260
 30
0.0
 10
561.147885
 20
13.507174
 30
0.0
 10
561.114396
 20
13.889951
 30
0.0
  0
SPLINE
  5
119
100
AcDbEntity
  8
Layer_1
 62
1
100
AcDbSpline
 70
8
 71
3
 72
8
 73
4
 74
0
 40
0
 40
0
 40
0
 40
0
 40
1
 40
1
 40
1
 40
1
 10
561.114396
 20
13.889951
 30
0.0
 10
561.092437
 20
14.140948
 30
0.0
 10
561.171085
 20
14.390388
 30
0.0
 10
561.333039
 20
14.583397
 30
0.0
  0
SPLINE
  5
11a
100
AcDbEntity
  8
Layer_1
 62
1
100
AcDbSpline
 70
8
 71
3
 72
8
 73
4
 74
0
 40
0
 40
0
 40
0
 40
0
 40
1
 40
1
 40
1
 40
1
 10
561.333039
 20
14.583397
 30
0.0
 10
561.494993
 20
14.776406
 30
0.0
 10
561.726986
 20
14.897174
 30
0.0
 10
561.977983
 20
14.919134
 30
0.0
  0
LINE
  5
11b
100
AcDbEntity
  8
Layer_1
 62
1
100
AcDbLine
 10
561.977983
 20
14.919134
 30
0.0
 11
561.977983
 21
14.919134
 31
0.0
  0
SPLINE
  5
11c
100
AcDbEntity
  8
Layer_1
 62
1
100
AcDbSpline
 70
8
 71
3
 72
8
 73
4
 74
0
 40
0
 40
0
 40
0
 40
0
 40
1
 40
1
 40
1
 40
1
 10
500.496565
 20
-28.339957
 30
0.0
 10
500.113788
 20
-28.306468
 30
0.0
 10
499.748529
 20
-28.506856
 30
0.0
 10
499.571107
 20
-28.847680
 30
0.0
  0
SPLINE
  5
11d
100
AcDbEntity
  8
Layer_1
 62
1
100
AcDbSpline
 70
8
 71
3
 72
8
 73
4
 74
0
 40
0
 40
0
 40
0
 40
0
 40
1
 40
1
 40
1
 40
1
 10
499.571107
 20
-28.847680
 30
0.0
 10
499.393685
 20
-29.188505
 30
0.0
 10
499.439041
 20
-29.602646
 30
0.0
 10
499.686025
 20
-29.896990
 30
0.0
  0
SPLINE
  5
11e
100
AcDbEntity
  8
Layer_1
 62
1
100
AcDbSpline
 70
8
 71
3
 72
8
 73
4
 74
0
 40
0
 40
0
 40
0
 40
0
 40
1
 40
1
 40
1
 40
1
 10
499.686025
 20
-29.896990
 30
0.0
 10
499.933009
 20
-30.191334
 30
0.0
 10
500.332982
 20
-30.307916
 30
0.0
 10
500.699438
 20
-30.192373
 30
0.0
  0
SPLINE
  5
11f
100
AcDbEntity
  8
Layer_1
 62
1
100
AcDbSpline
 70
8
 71
3
 72
8
 73
4
 74
0
 40
0
 40
0
 40
0
 40
0
 40
1
 40
1
 40
1
 40
1
 10
500.699438
 20
-30.192373
 30
0.0
 10
501.065893
 20
-30.076830
 30
0.0
 10
501.326663
 20
-29.751917
 30
0.0
 10
501.360152
 20
-29.369140
 30
0.0
  0
SPLINE
  5
120
100
AcDbEntity
  8
Layer_1
 62
1
100
AcDbSpline
 70
8
 71
3
 72
8
 73
4
 74
0
 40
0
 40
0
 40
0
 40
0
 40
1
 40
1
 40
1
 40
1
 10
501.360152
 20
-29.369140
 30
0.0
 10
501.382111
 20
-29.118143
 30
0.0
 10
501.303463
 20
-28.868703
 30
0.0
 10
501.141509
 20
-28.675693
 30
0.0
  0
SPLINE
  5
121
100
AcDbEntity
  8
Layer_1
 62
1
100
AcDbSpline
 70
8
 71
3
 72
8
 73
4
 74
0
 40
0
 40
0
 40
0
 40
0
 40
1
 40
1
 40
1
 40
1
 10
501.141509
 20
-28.675693
 30
0.0
 10
500.979555
 20
-28.482684
 30
0.0
 10
500.747562
 20
-28.361916
 30
0.0
 10
500.496565
 20
-28.339957
 30
0.0
  0
LINE
  5
122
100
AcDbEntity
  8
Layer_1
 62
1
100
AcDbLine
 10
500.496565
 20
-28.339957
 30
0.0
 11
500.496565
 21
-28.339957
 31
0.0
  0
SPLINE
  5
123
100
AcDbEntity
  8
Layer_1
 62
1
100
AcDbSpline
 70
8
 71
3
 72
8
 73
4
 74
0
 40
0
 40
0
 40
0
 40
0
 40
1
 40
1
 40
1
 40
1
 10
565.762058
 20
-28.333040
 30
0.0
 10
566.144835
 20
-28.299552
 30
0.0
 10
566.510094
 20
-28.499940
 30
0.0
 10
566.687516
 20
-28.840764
 30
0.0
  0
SPLINE
  5
124
100
AcDbEntity
  8
Layer_1
 62
1
100
AcDbSpline
 70
8
 71
3
 72
8
 73
4
 74
0
 40
0
 40
0
 40
0
 40
0
 40
1
 40
1
 40
1
 40
1
 10
566.687516
 20
-28.840764
 30
0.0
 10
566.864938
 20
-29.181588
 30
0.0
 10
566.819582
 20
-29.595729
 30
0.0
 10
566.572598
 20
-29.890073
 30
0.0
  0
SPLINE
  5
125
100
AcDbEntity
  8
Layer_1
 62
1
100
AcDbSpline
 70
8
 71
3
 72
8
 73
4
 74
0
 40
0
 40
0
 40
0
 40
0
 40
1
 40
1
 40
1
 40
1
 10
566.572598
 20
-29.890073
 30
0.0
 10
566.325614
 20
-30.184418
 30
0.0
 10
565.925641
 20
-30.300999
 30
0.0
 10
565.559185
 20
-30.185456
 30
0.0
  0
SPLINE
  5
126
100
AcDbEntity
  8
Layer_1
 62
1
100
AcDbSpline
 70
8
 71
3
 72
8
 73
4
 74
0
 40
0
 40
0
 40
0
 40
0
 40
1
 40
1
 40
1
 40
1
 10
565.559185
 20
-30.185456
 30
0.0
 10
565.192730
 20
-30.069913
 30
0.0
 10
564.931960
 20
-29.745000
 30
0.0
 10
564.898471
 20
-29.362223
 30
0.0
  0
SPLINE
  5
127
100
AcDbEntity
  8
Layer_1
 62
1
100
AcDbSpline
 70
8
 71
3
 72
8
 73
4
 74
0
 40
0
 40
0
 40
0
 40
0
 40
1
 40
1
 40
1
 40
1
 10
564.898471
 20
-29.362223
 30
0.0
 10
564.876512
 20
-29.111226
 30
0.0
 10
564.955160
 20
-28.861786
 30
0.0
 10
565.117114
 20
-28.668777
 30
0.0
  0
SPLINE
  5
128
100
AcDbEntity
  8
Layer_1
 62
1
100
AcDbSpline
 70
8
 71
3
 72
8
 73
4
 74
0
 40
0
 40
0
 40
0
 40
0
 40
1
 40
1
 40
1
 40
1
 10
565.117114
 20
-28.668777
 30
0.0
 10
565.279068
 20
-28.475768
 30
0.0
 10
565.511061
 20
-28.355000
 30
0.0
 10
565.762058
 20
-28.333040
 30
0.0
  0
LINE
  5
129
100
AcDbEntity
  8
Layer_1
 62
1
100
AcDbLine
 10
565.762058
 20
-28.333040
 30
0.0
 11
565.762058
 21
-28.333040
 31
0.0
  0
LINE
  5
12a
100
AcDbEntity
  8
Layer_1
 62
1
100
AcDbLine
 10
566.097231
 20
-85.961696
 30
0.0
 11
567.630781
 21
-87.193566
 31
0.0
  0
SPLINE
  5
12b
100
AcDbEntity
  8
Layer_1
 62
1
100
AcDbSpline
 70
8
 71
3
 72
8
 73
4
 74
0
 40
0
 40
0
 40
0
 40
0
 40
1
 40
1
 40
1
 40
1
 10
567.630781
 20
-87.193566
 30
0.0
 10
568.160262
 20
-87.618882
 30
0.0
 10
568.833610
 20
-87.823150
 30
0.0
 10
569.510153
 20
-87.763697
 30
0.0
  0
LINE
  5
12c
100
AcDbEntity
  8
Layer_1
 62
1
100
AcDbLine
 10
569.510153
 20
-87.763697
 30
0.0
 11
577.786187
 21
-87.036627
 31
0.0
  0
SPLINE
  5
12d
100
AcDbEntity
  8
Layer_1
 62
1
100
AcDbSpline
 70
8
 71
3
 72
8
 73
4
 74
0
 40
0
 40
0
 40
0
 40
0
 40
1
 40
1
 40
1
 40
1
 10
577.786187
 20
-87.036627
 30
0.0
 10
578.065789
 20
-87.012055
 30
0.0
 10
578.324178
 20
-86.877413
 30
0.0
 10
578.504505
 20
-86.662324
 30
0.0
  0
SPLINE
  5
12e
100
AcDbEntity
  8
Layer_1
 62
1
100
AcDbSpline
 70
8
 71
3
 72
8
 73
4
 74
0
 40
0
 40
0
 40
0
 40
0
 40
1
 40
1
 40
1
 40
1
 10
578.504505
 20
-86.662324
 30
0.0
 10
578.684832
 20
-86.447235
 30
0.0
 10
578.772325
 20
-86.169319
 30
0.0
 10
578.747736
 20
-85.889718
 30
0.0
  0
LINE
  5
12f
100
AcDbEntity
  8
Layer_1
 62
1
100
AcDbLine
 10
578.747736
 20
-85.889718
 30
0.0
 11
578.350152
 21
-81.368254
 31
0.0
  0
SPLINE
  5
130
100
AcDbEntity
  8
Layer_1
 62
1
100
AcDbSpline
 70
8
 71
3
 72
8
 73
4
 74
0
 40
0
 40
0
 40
0
 40
0
 40
1
 40
1
 40
1
 40
1
 10
578.350152
 20
-81.368254
 30
0.0
 10
578.291153
 20
-80.697378
 30
0.0
 10
577.949340
 20
-80.083344
 30
0.0
 10
577.410212
 20
-79.679740
 30
0.0
  0
LINE
  5
131
100
AcDbEntity
  8
Layer_1
 62
1
100
AcDbLine
 10
577.410212
 20
-79.679740
 30
0.0
 11
566.089494
 21
-71.204806
 31
0.0
  0
SPLINE
  5
132
100
AcDbEntity
  8
Layer_1
 62
1
100
AcDbSpline
 70
8
 71
3
 72
8
 73
4
 74
0
 40
0
 40
0
 40
0
 40
0
 40
1
 40
1
 40
1
 40
1
 10
566.089494
 20
-71.204806
 30
0.0
 10
565.550406
 20
-70.801231
 30
0.0
 10
565.208789
 20
-70.187097
 30
0.0
 10
565.150211
 20
-69.516234
 30
0.0
  0
LINE
  5
133
100
AcDbEntity
  8
Layer_1
 62
1
100
AcDbLine
 10
565.150211
 20
-69.516234
 30
0.0
 11
562.770218
 21
-42.255419
 31
0.0
  0
SPLINE
  5
134
100
AcDbEntity
  8
Layer_1
 62
1
100
AcDbSpline
 70
8
 71
3
 72
8
 73
4
 74
0
 40
0
 40
0
 40
0
 40
0
 40
1
 40
1
 40
1
 40
1
 10
562.770218
 20
-42.255419
 30
0.0
 10
562.711706
 20
-41.585319
 30
0.0
 10
562.944892
 20
-40.922519
 30
0.0
 10
563.410088
 20
-40.436670
 30
0.0
  0
LINE
  5
135
100
AcDbEntity
  8
Layer_1
 62
1
100
AcDbLine
 10
563.410088
 20
-40.436670
 30
0.0
 11
568.518898
 21
-35.101044
 31
0.0
  0
SPLINE
  5
136
100
AcDbEntity
  8
Layer_1
 62
1
100
AcDbSpline
 70
8
 71
3
 72
8
 73
4
 74
0
 40
0
 40
0
 40
0
 40
0
 40
1
 40
1
 40
1
 40
1
 10
568.518898
 20
-35.101044
 30
0.0
 10
568.984030
 20
-34.615264
 30
0.0
 10
569.216815
 20
-33.952340
 30
0.0
 10
569.157513
 20
-33.282404
 30
0.0
  0
LINE
  5
137
100
AcDbEntity
  8
Layer_1
 62
1
100
AcDbLine
 10
569.157513
 20
-33.282404
 30
0.0
 11
568.395975
 21
-24.681247
 31
0.0
  0
SPLINE
  5
138
100
AcDbEntity
  8
Layer_1
 62
1
100
AcDbSpline
 70
8
 71
3
 72
8
 73
4
 74
0
 40
0
 40
0
 40
0
 40
0
 40
1
 40
1
 40
1
 40
1
 10
568.395975
 20
-24.681247
 30
0.0
 10
568.336562
 20
-24.010049
 30
0.0
 10
567.995775
 20
-23.395376
 30
0.0
 10
567.457982
 20
-22.989401
 30
0.0
  0
LINE
  5
139
100
AcDbEntity
  8
Layer_1
 62
1
100
AcDbLine
 10
567.457982
 20
-22.989401
 30
0.0
 11
561.477461
 21
-18.474798
 31
0.0
  0
SPLINE
  5
13a
100
AcDbEntity
  8
Layer_1
 62
1
100
AcDbSpline
 70
8
 71
3
 72
8
 73
4
 74
0
 40
0
 40
0
 40
0
 40
0
 40
1
 40
1
 40
1
 40
1
 10
561.477461
 20
-18.474798
 30
0.0
 10
560.939731
 20
-18.068873
 30
0.0
 10
560.599267
 20
-17.454036
 30
0.0
 10
560.540553
 20
-16.782856
 30
0.0
  0
LINE
  5
13b
100
AcDbEntity
  8
Layer_1
 62
1
100
AcDbLine
 10
560.540553
 20
-16.782856
 30
0.0
 11
559.073783
 21
-0.015419
 31
0.0
  0
SPLINE
  5
13c
100
AcDbEntity
  8
Layer_1
 62
1
100
AcDbSpline
 70
8
 71
3
 72
8
 73
4
 74
0
 40
0
 40
0
 40
0
 40
0
 40
1
 40
1
 40
1
 40
1
 10
559.073783
 20
-0.015419
 30
0.0
 10
559.015126
 20
0.655113
 30
0.0
 10
559.246366
 20
1.318673
 30
0.0
 10
559.709050
 20
1.807525
 30
0.0
  0
LINE
  5
13d
100
AcDbEntity
  8
Layer_1
 62
1
100
AcDbLine
 10
559.709050
 20
1.807525
 30
0.0
 11
569.385337
 21
12.031002
 31
0.0
  0
SPLINE
  5
13e
100
AcDbEntity
  8
Layer_1
 62
1
100
AcDbSpline
 70
8
 71
3
 72
8
 73
4
 74
0
 40
0
 40
0
 40
0
 40
0
 40
1
 40
1
 40
1
 40
1
 10
569.385337
 20
12.031002
 30
0.0
 10
569.848054
 20
12.519890
 30
0.0
 10
570.079497
 20
13.183387
 30
0.0
 10
570.021242
 20
13.854002
 30
0.0
  0
LINE
  5
13f
100
AcDbEntity
  8
Layer_1
 62
1
100
AcDbLine
 10
570.021242
 20
13.854002
 30
0.0
 11
569.642574
 21
18.216620
 31
0.0
  0
SPLINE
  5
140
100
AcDbEntity
  8
Layer_1
 62
1
100
AcDbSpline
 70
8
 71
3
 72
8
 73
4
 74
0
 40
0
 40
0
 40
0
 40
0
 40
1
 40
1
 40
1
 40
1
 10
569.642574
 20
18.216620
 30
0.0
 10
569.618282
 20
18.496230
 30
0.0
 10
569.483895
 20
18.754733
 30
0.0
 10
569.268984
 20
18.935247
 30
0.0
  0
SPLINE
  5
141
100
AcDbEntity
  8
Layer_1
 62
1
100
AcDbSpline
 70
8
 71
3
 72
8
 73
4
 74
0
 40
0
 40
0
 40
0
 40
0
 40
1
 40
1
 40
1
 40
1
 10
569.268984
 20
18.935247
 30
0.0
 10
569.054074
 20
19.115760
 30
0.0
 10
568.776248
 20
19.203493
 30
0.0
 10
568.496644
 20
19.179139
 30
0.0
  0
LINE
  5
142
100
AcDbEntity
  8
Layer_1
 62
1
100
AcDbLine
 10
568.496644
 20
19.179139
 30
0.0
 11
560.187959
 21
18.455234
 31
0.0
  0
SPLINE
  5
143
100
AcDbEntity
  8
Layer_1
 62
1
100
AcDbSpline
 70
8
 71
3
 72
8
 73
4
 74
0
 40
0
 40
0
 40
0
 40
0
 40
1
 40
1
 40
1
 40
1
 10
560.187959
 20
18.455234
 30
0.0
 10
559.509004
 20
18.396093
 30
0.0
 10
558.875687
 20
18.088705
 30
0.0
 10
558.409167
 20
17.591877
 30
0.0
  0
LINE
  5
144
100
AcDbEntity
  8
Layer_1
 62
1
100
AcDbLine
 10
558.409167
 20
17.591877
 30
0.0
 11
556.956740
 21
16.045104
 31
0.0
  0
SPLINE
  5
145
100
AcDbEntity
  8
Layer_1
 62
1
100
AcDbSpline
 70
8
 71
3
 72
8
 73
4
 74
0
 40
0
 40
0
 40
0
 40
0
 40
1
 40
1
 40
1
 40
1
 10
556.956740
 20
16.045104
 30
0.0
 10
556.494477
 20
15.552810
 30
0.0
 10
555.849263
 20
15.273519
 30
0.0
 10
555.173955
 20
15.273397
 30
0.0
  0
LINE
  5
146
100
AcDbEntity
  8
Layer_1
 62
1
100
AcDbLine
 10
555.173955
 20
15.273397
 30
0.0
 11
511.099073
 21
15.265528
 31
0.0
  0
SPLINE
  5
147
100
AcDbEntity
  8
Layer_1
 62
1
100
AcDbSpline
 70
8
 71
3
 72
8
 73
4
 74
0
 40
0
 40
0
 40
0
 40
0
 40
1
 40
1
 40
1
 40
1
 10
511.099073
 20
15.265528
 30
0.0
 10
510.423792
 20
15.265407
 30
0.0
 10
509.778530
 20
15.544580
 30
0.0
 10
509.316284
 20
16.036853
 30
0.0
  0
LINE
  5
148
100
AcDbEntity
  8
Layer_1
 62
1
100
AcDbLine
 10
509.316284
 20
16.036853
 30
0.0
 11
507.863867
 21
17.583622
 31
0.0
  0
SPLINE
  5
149
100
AcDbEntity
  8
Layer_1
 62
1
100
AcDbSpline
 70
8
 71
3
 72
8
 73
4
 74
0
 40
0
 40
0
 40
0
 40
0
 40
1
 40
1
 40
1
 40
1
 10
507.863867
 20
17.583622
 30
0.0
 10
507.397343
 20
18.080451
 30
0.0
 10
506.764021
 20
18.387837
 30
0.0
 10
506.085062
 20
18.446975
 30
0.0
  0
LINE
  5
14a
100
AcDbEntity
  8
Layer_1
 62
1
100
AcDbLine
 10
506.085062
 20
18.446975
 30
0.0
 11
497.776379
 21
19.170689
 31
0.0
  0
SPLINE
  5
14b
100
AcDbEntity
  8
Layer_1
 62
1
100
AcDbSpline
 70
8
 71
3
 72
8
 73
4
 74
0
 40
0
 40
0
 40
0
 40
0
 40
1
 40
1
 40
1
 40
1
 10
497.776379
 20
19.170689
 30
0.0
 10
497.496771
 20
19.195046
 30
0.0
 10
497.218942
 20
19.107314
 30
0.0
 10
497.004028
 20
18.926798
 30
0.0
  0
SPLINE
  5
14c
100
AcDbEntity
  8
Layer_1
 62
1
100
AcDbSpline
 70
8
 71
3
 72
8
 73
4
 74
0
 40
0
 40
0
 40
0
 40
0
 40
1
 40
1
 40
1
 40
1
 10
497.004028
 20
18.926798
 30
0.0
 10
496.789115
 20
18.746282
 30
0.0
 10
496.654727
 20
18.487775
 30
0.0
 10
496.630438
 20
18.208161
 30
0.0
  0
LINE
  5
14d
100
AcDbEntity
  8
Layer_1
 62
1
100
AcDbLine
 10
496.630438
 20
18.208161
 30
0.0
 11
496.250899
 21
13.845913
 31
0.0
  0
SPLINE
  5
14e
100
AcDbEntity
  8
Layer_1
 62
1
100
AcDbSpline
 70
8
 71
3
 72
8
 73
4
 74
0
 40
0
 40
0
 40
0
 40
0
 40
1
 40
1
 40
1
 40
1
 10
496.250899
 20
13.845913
 30
0.0
 10
496.192642
 20
13.175296
 30
0.0
 10
496.424085
 20
12.511797
 30
0.0
 10
496.886804
 20
12.022908
 30
0.0
  0
LINE
  5
14f
100
AcDbEntity
  8
Layer_1
 62
1
100
AcDbLine
 10
496.886804
 20
12.022908
 30
0.0
 11
506.549818
 21
1.813445
 31
0.0
  0
SPLINE
  5
150
100
AcDbEntity
  8
Layer_1
 62
1
100
AcDbSpline
 70
8
 71
3
 72
8
 73
4
 74
0
 40
0
 40
0
 40
0
 40
0
 40
1
 40
1
 40
1
 40
1
 10
506.549818
 20
1.813445
 30
0.0
 10
507.012514
 20
1.324582
 30
0.0
 10
507.243819
 20
0.661042
 30
0.0
 10
507.185288
 20
-0.009517
 30
0.0
  0
LINE
  5
151
100
AcDbEntity
  8
Layer_1
 62
1
100
AcDbLine
 10
507.185288
 20
-0.009517
 30
0.0
 11
505.719715
 21
-16.799741
 31
0.0
  0
SPLINE
  5
152
100
AcDbEntity
  8
Layer_1
 62
1
100
AcDbSpline
 70
8
 71
3
 72
8
 73
4
 74
0
 40
0
 40
0
 40
0
 40
0
 40
1
 40
1
 40
1
 40
1
 10
505.719715
 20
-16.799741
 30
0.0
 10
505.661129
 20
-17.470917
 30
0.0
 10
505.320723
 20
-18.085784
 30
0.0
 10
504.783005
 20
-18.491700
 30
0.0
  0
LINE
  5
153
100
AcDbEntity
  8
Layer_1
 62
1
100
AcDbLine
 10
504.783005
 20
-18.491700
 30
0.0
 11
498.814158
 21
-22.997505
 31
0.0
  0
SPLINE
  5
154
100
AcDbEntity
  8
Layer_1
 62
1
100
AcDbSpline
 70
8
 71
3
 72
8
 73
4
 74
0
 40
0
 40
0
 40
0
 40
0
 40
1
 40
1
 40
1
 40
1
 10
498.814158
 20
-22.997505
 30
0.0
 10
498.276364
 20
-23.403480
 30
0.0
 10
497.935576
 20
-24.018155
 30
0.0
 10
497.876163
 20
-24.689354
 30
0.0
  0
LINE
  5
155
100
AcDbEntity
  8
Layer_1
 62
1
100
AcDbLine
 10
497.876163
 20
-24.689354
 30
0.0
 11
497.114786
 21
-33.290513
 31
0.0
  0
SPLINE
  5
156
100
AcDbEntity
  8
Layer_1
 62
1
100
AcDbSpline
 70
8
 71
3
 72
8
 73
4
 74
0
 40
0
 40
0
 40
0
 40
0
 40
1
 40
1
 40
1
 40
1
 10
497.114786
 20
-33.290513
 30
0.0
 10
497.055484
 20
-33.960448
 30
0.0
 10
497.288270
 20
-34.623373
 30
0.0
 10
497.753402
 20
-35.109154
 30
0.0
  0
LINE
  5
157
100
AcDbEntity
  8
Layer_1
 62
1
100
AcDbLine
 10
497.753402
 20
-35.109154
 30
0.0
 11
502.852348
 21
-40.434486
 31
0.0
  0
SPLINE
  5
158
100
AcDbEntity
  8
Layer_1
 62
1
100
AcDbSpline
 70
8
 71
3
 72
8
 73
4
 74
0
 40
0
 40
0
 40
0
 40
0
 40
1
 40
1
 40
1
 40
1
 10
502.852348
 20
-40.434486
 30
0.0
 10
503.317541
 20
-40.920334
 30
0.0
 10
503.550716
 20
-41.583136
 30
0.0
 10
503.492187
 20
-42.253231
 30
0.0
  0
LINE
  5
159
100
AcDbEntity
  8
Layer_1
 62
1
100
AcDbLine
 10
503.492187
 20
-42.253231
 30
0.0
 11
501.109400
 21
-69.533715
 31
0.0
  0
SPLINE
  5
15a
100
AcDbEntity
  8
Layer_1
 62
1
100
AcDbSpline
 70
8
 71
3
 72
8
 73
4
 74
0
 40
0
 40
0
 40
0
 40
0
 40
1
 40
1
 40
1
 40
1
 10
501.109400
 20
-69.533715
 30
0.0
 10
501.050804
 20
-70.204581
 30
0.0
 10
500.709177
 20
-70.818711
 30
0.0
 10
500.170085
 20
-71.222287
 30
0.0
  0
LINE
  5
15b
100
AcDbEntity
  8
Layer_1
 62
1
100
AcDbLine
 10
500.170085
 20
-71.222287
 30
0.0
 11
488.861915
 21
-79.687833
 31
0.0
  0
SPLINE
  5
15c
100
AcDbEntity
  8
Layer_1
 62
1
100
AcDbSpline
 70
8
 71
3
 72
8
 73
4
 74
0
 40
0
 40
0
 40
0
 40
0
 40
1
 40
1
 40
1
 40
1
 10
488.861915
 20
-79.687833
 30
0.0
 10
488.322785
 20
-80.091437
 30
0.0
 10
487.980971
 20
-80.705473
 30
0.0
 10
487.921972
 20
-81.376350
 30
0.0
  0
LINE
  5
15d
100
AcDbEntity
  8
Layer_1
 62
1
100
AcDbLine
 10
487.921972
 20
-81.376350
 30
0.0
 11
487.524350
 21
-85.897810
 31
0.0
  0
SPLINE
  5
15e
100
AcDbEntity
  8
Layer_1
 62
1
100
AcDbSpline
 70
8
 71
3
 72
8
 73
4
 74
0
 40
0
 40
0
 40
0
 40
0
 40
1
 40
1
 40
1
 40
1
 10
487.524350
 20
-85.897810
 30
0.0
 10
487.499761
 20
-86.177411
 30
0.0
 10
487.587254
 20
-86.455328
 30
0.0
 10
487.767581
 20
-86.670417
 30
0.0
  0
SPLINE
  5
15f
100
AcDbEntity
  8
Layer_1
 62
1
100
AcDbSpline
 70
8
 71
3
 72
8
 73
4
 74
0
 40
0
 40
0
 40
0
 40
0
 40
1
 40
1
 40
1
 40
1
 10
487.767581
 20
-86.670417
 30
0.0
 10
487.947908
 20
-86.885507
 30
0.0
 10
488.206296
 20
-87.020148
 30
0.0
 10
488.485899
 20
-87.044720
 30
0.0
  0
LINE
  5
160
100
AcDbEntity
  8
Layer_1
 62
1
100
AcDbLine
 10
488.485899
 20
-87.044720
 30
0.0
 11
496.761915
 21
-87.771965
 31
0.0
  0
SPLINE
  5
161
100
AcDbEntity
  8
Layer_1
 62
1
100
AcDbSpline
 70
8
 71
3
 72
8
 73
4
 74
0
 40
0
 40
0
 40
0
 40
0
 40
1
 40
1
 40
1
 40
1
 10
496.761915
 20
-87.771965
 30
0.0
 10
497.438458
 20
-87.831416
 30
0.0
 10
498.111805
 20
-87.627145
 30
0.0
 10
498.641286
 20
-87.201828
 30
0.0
  0
LINE
  5
162
100
AcDbEntity
  8
Layer_1
 62
1
100
AcDbLine
 10
498.641286
 20
-87.201828
 30
0.0
 11
500.174838
 21
-85.969972
 31
0.0
  0
SPLINE
  5
163
100
AcDbEntity
  8
Layer_1
 62
1
100
AcDbSpline
 70
8
 71
3
 72
8
 73
4
 74
0
 40
0
 40
0
 40
0
 40
0
 40
1
 40
1
 40
1
 40
1
 10
500.174838
 20
-85.969972
 30
0.0
 10
500.708862
 20
-85.541002
 30
0.0
 10
501.373298
 20
-85.307137
 30
0.0
 10
502.058277
 20
-85.307047
 30
0.0
  0
LINE
  5
164
100
AcDbEntity
  8
Layer_1
 62
1
100
AcDbLine
 10
502.058277
 20
-85.307047
 30
0.0
 11
564.213791
 21
-85.299057
 31
0.0
  0
SPLINE
  5
165
100
AcDbEntity
  8
Layer_1
 62
1
100
AcDbSpline
 70
8
 71
3
 72
8
 73
4
 74
0
 40
0
 40
0
 40
0
 40
0
 40
1
 40
1
 40
1
 40
1
 10
564.213791
 20
-85.299057
 30
0.0
 10
564.898753
 20
-85.298966
 30
0.0
 10
565.563218
 20
-85.532740
 30
0.0
 10
566.097231
 20
-85.961696
 30
0.0
  0
LINE
  5
166
100
AcDbEntity
  8
Layer_1
 62
1
100
AcDbLine
 10
566.097231
 20
-85.961696
 30
0.0
 11
566.097231
 21
-85.961696
 31
0.0
  0
SPLINE
  5
167
100
AcDbEntity
  8
Layer_1
 62
1
100
AcDbSpline
 70
8
 71
3
 72
8
 73
4
 74
0
 40
0
 40
0
 40
0
 40
0
 40
1
 40
1
 40
1
 40
1
 10
533.119140
 20
-56.897490
 30
0.0
 10
529.883442
 20
-56.897490
 30
0.0
 10
526.966352
 20
-58.846627
 30
0.0
 10
525.728104
 20
-61.836023
 30
0.0
  0
SPLINE
  5
168
100
AcDbEntity
  8
Layer_1
 62
1
100
AcDbSpline
 70
8
 71
3
 72
8
 73
4
 74
0
 40
0
 40
0
 40
0
 40
0
 40
1
 40
1
 40
1
 40
1
 10
525.728104
 20
-61.836023
 30
0.0
 10
524.489856
 20
-64.825418
 30
0.0
 10
525.174302
 20
-68.266360
 30
0.0
 10
527.462286
 20
-70.554344
 30
0.0
  0
SPLINE
  5
169
100
AcDbEntity
  8
Layer_1
 62
1
100
AcDbSpline
 70
8
 71
3
 72
8
 73
4
 74
0
 40
0
 40
0
 40
0
 40
0
 40
1
 40
1
 40
1
 40
1
 10
527.462286
 20
-70.554344
 30
0.0
 10
529.750270
 20
-72.842328
 30
0.0
 10
533.191212
 20
-73.526774
 30
0.0
 10
536.180607
 20
-72.288526
 30
0.0
  0
SPLINE
  5
16a
100
AcDbEntity
  8
Layer_1
 62
1
100
AcDbSpline
 70
8
 71
3
 72
8
 73
4
 74
0
 40
0
 40
0
 40
0
 40
0
 40
1
 40
1
 40
1
 40
1
 10
536.180607
 20
-72.288526
 30
0.0
 10
539.170003
 20
-71.050278
 30
0.0
 10
541.119140
 20
-68.133188
 30
0.0
 10
541.119140
 20
-64.897490
 30
0.0
  0
SPLINE
  5
16b
100
AcDbEntity
  8
Layer_1
 62
1
100
AcDbSpline
 70
8
 71
3
 72
8
 73
4
 74
0
 40
0
 40
0
 40
0
 40
0
 40
1
 40
1
 40
1
 40
1
 10
541.119140
 20
-64.897490
 30
0.0
 10
541.119140
 20
-62.775758
 30
0.0
 10
540.276285
 20
-60.740927
 30
0.0
 10
538.775994
 20
-59.240636
 30
0.0
  0
SPLINE
  5
16c
100
AcDbEntity
  8
Layer_1
 62
1
100
AcDbSpline
 70
8
 71
3
 72
8
 73
4
 74
0
 40
0
 40
0
 40
0
 40
0
 40
1
 40
1
 40
1
 40
1
 10
538.775994
 20
-59.240636
 30
0.0
 10
537.275703
 20
-57.740345
 30
0.0
 10
535.240872
 20
-56.897490
 30
0.0
 10
533.119140
 20
-56.897490
 30
0.0
  0
LINE
  5
16d
100
AcDbEntity
  8
Layer_1
 62
1
100
AcDbLine
 10
533.119140
 20
-56.897490
 30
0.0
 11
533.119140
 21
-56.897490
 31
0.0
  0
ENDSEC
  0
SECTION
  2
OBJECTS
  0
DICTIONARY
  5
C
330
0
100
AcDbDictionary
  3
ACAD_GROUP
350
D
  3
ACAD_MLINESTYLE
350
17
  0
DICTIONARY
  5
D
330
C
100
AcDbDictionary
  0
DICTIONARY
  5
1A
330
C
100
AcDbDictionary
  0
DICTIONARY
  5
17
330
C
100
AcDbDictionary
  3
STANDARD
350
18
  0
DICTIONARY
  5
19
330
C
100
AcDbDictionary
  0
ENDSEC
  0
EOF
