  0
SECTION
  2
HEADER
  9
$ACADVER
  1
AC1014
  9
$HANDSEED
  5
FFFF
  9
$INSUNITS
 70
     0
  9
$MEASUREMENT
 70
     1
  0
ENDSEC
  0
SECTION
  2
TABLES
  0
TABLE
  2
VPORT
  5
8
330
0
100
AcDbSymbolTable
 70
     4
  0
VPORT
  5
2E
330
8
100
AcDbSymbolTableRecord
100
AcDbViewportTableRecord
  2
*ACTIVE
 70
     0
 10
0.0
 20
0.0
 11
1.0
 21
1.0
 12
210.0
 22
148.5
 13
0.0
 23
0.0
 14
10.0
 24
10.0
 15
10.0
 25
10.0
 16
0.0
 26
0.0
 36
1.0
 17
0.0
 27
0.0
 37
0.0
 40
341.0
 41
1.24
 42
50.0
 43
0.0
 44
0.0
 50
0.0
 51
0.0
 71
     0
 72
   100
 73
     1
 74
     3
 75
     0
 76
     0
 77
     0
 78
     0
  0
ENDTAB
  0
TABLE
  2
LTYPE
  5
5
330
0
100
AcDbSymbolTable
 70
     1
  0
LTYPE
  5
14
330
5
100
AcDbSymbolTableRecord
100
AcDbLinetypeTableRecord
  2
BYBLOCK
 70
     0
  3

 72
    65
 73
     0
 40
0.0
  0
LTYPE
  5
15
330
5
100
AcDbSymbolTableRecord
100
AcDbLinetypeTableRecord
  2
BYLAYER
 70
     0
  3

 72
    65
 73
     0
 40
0.0
  0
LTYPE
  5
16
330
5
100
AcDbSymbolTableRecord
100
AcDbLinetypeTableRecord
  2
CONTINUOUS
 70
     0
  3
Solid line
 72
    65
 73
     0
 40
0.0
  0
ENDTAB
  0
TABLE
  2
LAYER
  5
2
100
AcDbSymbolTable
 70
2
  0
LAYER
  5
50
100
AcDbSymbolTableRecord
100
AcDbLayerTableRecord
  2
0
 70
0
  6
CONTINUOUS
  0
LAYER
  5
51
100
AcDbSymbolTableRecord
100
AcDbLayerTableRecord
  2
Layer_1
 70
0
  6
CONTINUOUS
  0
ENDTAB
  0
TABLE
  2
STYLE
  5
3
330
0
100
AcDbSymbolTable
 70
     1
  0
STYLE
  5
11
330
3
100
AcDbSymbolTableRecord
100
AcDbTextStyleTableRecord
  2
STANDARD
 70
     0
 40
0.0
 41
1.0
 50
0.0
 71
     0
 42
2.5
  3
txt
  4

  0
ENDTAB
  0
TABLE
  2
VIEW
  5
6
330
0
100
AcDbSymbolTable
 70
     0
  0
ENDTAB
  0
TABLE
  2
UCS
  5
7
330
0
100
AcDbSymbolTable
 70
     0
  0
ENDTAB
  0
TABLE
  2
APPID
  5
9
330
0
100
AcDbSymbolTable
 70
     2
  0
APPID
  5
12
330
9
100
AcDbSymbolTableRecord
100
AcDbRegAppTableRecord
  2
ACAD
 70
     0
  0
ENDTAB
  0
TABLE
  2
DIMSTYLE
  5
A
330
0
100
AcDbSymbolTable
 70
     1
  0
DIMSTYLE
105
27
330
A
100
AcDbSymbolTableRecord
100
AcDbDimStyleTableRecord
  2
ISO-25
 70
     0
  3

  4

  5

  6

  7

 40
1.0
 41
2.5
 42
0.625
 43
3.75
 44
1.25
 45
0.0
 46
0.0
 47
0.0
 48
0.0
140
2.5
141
2.5
142
0.0
143
0.03937007874016
144
1.0
145
0.0
146
1.0
147
0.625
 71
     0
 72
     0
 73
     0
 74
     0
 75
     0
 76
     0
 77
     1
 78
     8
170
     0
171
     3
172
     1
173
     0
174
     0
175
     0
176
     0
177
     0
178
     0
270
     2
271
     2
272
     2
273
     2
274
     3
340
11
275
     0
280
     0
281
     0
282
     0
283
     0
284
     8
285
     0
286
     0
287
     3
288
     0
  0
ENDTAB
  0
TABLE
  2
BLOCK_RECORD
  5
1
330
0
100
AcDbSymbolTable
 70
     1
  0
BLOCK_RECORD
  5
1F
330
1
100
AcDbSymbolTableRecord
100
AcDbBlockTableRecord
  2
*MODEL_SPACE
  0
BLOCK_RECORD
  5
1B
330
1
100
AcDbSymbolTableRecord
100
AcDbBlockTableRecord
  2
*PAPER_SPACE
  0
ENDTAB
  0
ENDSEC
  0
SECTION
  2
BLOCKS
  0
BLOCK
  5
20
330
1F
100
AcDbEntity
  8
0
100
AcDbBlockBegin
  2
*MODEL_SPACE
 70
     0
 10
0.0
 20
0.0
 30
0.0
  3
*MODEL_SPACE
  1

  0
ENDBLK
  5
21
330
1F
100
AcDbEntity
  8
0
100
AcDbBlockEnd
  0
BLOCK
  5
1C
330
1B
100
AcDbEntity
 67
     1
  8
0
100
AcDbBlockBegin
  2
*PAPER_SPACE
  1

  0
ENDBLK
  5
1D
330
1B
100
AcDbEntity
 67
     1
  8
0
100
AcDbBlockEnd
  0
ENDSEC
  0
SECTION
  2
ENTITIES
  0
LINE
  5
100
100
AcDbEntity
  8
Layer_1
 62
1
100
AcDbLine
 10
695.828752
 20
-66.347452
 30
0.0
 11
660.551507
 21
-69.347784
 31
0.0
  0
SPLINE
  5
101
100
AcDbEntity
  8
Layer_1
 62
1
100
AcDbSpline
 70
8
 71
3
 72
8
 73
4
 74
0
 40
0
 40
0
 40
0
 40
0
 40
1
 40
1
 40
1
 40
1
 10
660.551507
 20
-69.347784
 30
0.0
 10
660.260307
 20
-69.372548
 30
0.0
 10
659.788158
 20
-69.412561
 30
0.0
 10
659.497020
 20
-69.438032
 30
0.0
  0
SPLINE
  5
102
100
AcDbEntity
  8
Layer_1
 62
1
100
AcDbSpline
 70
8
 71
3
 72
8
 73
4
 74
0
 40
0
 40
0
 40
0
 40
0
 40
1
 40
1
 40
1
 40
1
 10
659.497020
 20
-69.438032
 30
0.0
 10
644.967084
 20
-70.685848
 30
0.0
 10
630.440462
 20
-71.972121
 30
0.0
 10
615.912623
 20
-73.244146
 30
0.0
  0
SPLINE
  5
103
100
AcDbEntity
  8
Layer_1
 62
1
100
AcDbSpline
 70
8
 71
3
 72
8
 73
4
 74
0
 40
0
 40
0
 40
0
 40
0
 40
1
 40
1
 40
1
 40
1
 10
615.912623
 20
-73.244146
 30
0.0
 10
615.621486
 20
-73.269627
 30
0.0
 10
615.149457
 20
-73.310894
 30
0.0
 10
614.858316
 20
-73.336335
 30
0.0
  0
LINE
  5
104
100
AcDbEntity
  8
Layer_1
 62
1
100
AcDbLine
 10
614.858316
 20
-73.336335
 30
0.0
 11
579.588172
 21
-76.418058
 31
0.0
  0
SPLINE
  5
105
100
AcDbEntity
  8
Layer_1
 62
1
100
AcDbSpline
 70
8
 71
3
 72
8
 73
4
 74
0
 40
0
 40
0
 40
0
 40
0
 40
1
 40
1
 40
1
 40
1
 10
579.588172
 20
-76.418058
 30
0.0
 10
579.236731
 20
-76.448765
 30
0.0
 10
578.885292
 20
-76.479492
 30
0.0
 10
578.533854
 20
-76.510239
 30
0.0
  0
LINE
  5
106
100
AcDbEntity
  8
Layer_1
 62
1
100
AcDbLine
 10
578.533854
 20
-76.510239
 30
0.0
 11
574.601356
 21
-76.854288
 31
0.0
  0
SPLINE
  5
107
100
AcDbEntity
  8
Layer_1
 62
1
100
AcDbSpline
 70
8
 71
3
 72
8
 73
4
 74
0
 40
0
 40
0
 40
0
 40
0
 40
1
 40
1
 40
1
 40
1
 10
574.601356
 20
-76.854288
 30
0.0
 10
574.461545
 20
-76.866520
 30
0.0
 10
574.322601
 20
-76.822712
 30
0.0
 10
574.215091
 20
-76.732500
 30
0.0
  0
SPLINE
  5
108
100
AcDbEntity
  8
Layer_1
 62
1
100
AcDbSpline
 70
8
 71
3
 72
8
 73
4
 74
0
 40
0
 40
0
 40
0
 40
0
 40
1
 40
1
 40
1
 40
1
 10
574.215091
 20
-76.732500
 30
0.0
 10
574.107580
 20
-76.642288
 30
0.0
 10
574.040310
 20
-76.513062
 30
0.0
 10
574.028079
 20
-76.373251
 30
0.0
  0
LINE
  5
109
100
AcDbEntity
  8
Layer_1
 62
1
100
AcDbLine
 10
574.028079
 20
-76.373251
 30
0.0
 11
572.367502
 21
-57.392764
 31
0.0
  0
SPLINE
  5
10a
100
AcDbEntity
  8
Layer_1
 62
1
100
AcDbSpline
 70
8
 71
3
 72
8
 73
4
 74
0
 40
0
 40
0
 40
0
 40
0
 40
1
 40
1
 40
1
 40
1
 10
572.367502
 20
-57.392764
 30
0.0
 10
572.355269
 20
-57.252953
 30
0.0
 10
572.399077
 20
-57.114009
 30
0.0
 10
572.489289
 20
-57.006499
 30
0.0
  0
SPLINE
  5
10b
100
AcDbEntity
  8
Layer_1
 62
1
100
AcDbSpline
 70
8
 71
3
 72
8
 73
4
 74
0
 40
0
 40
0
 40
0
 40
0
 40
1
 40
1
 40
1
 40
1
 10
572.489289
 20
-57.006499
 30
0.0
 10
572.579501
 20
-56.898988
 30
0.0
 10
572.708727
 20
-56.831718
 30
0.0
 10
572.848538
 20
-56.819487
 30
0.0
  0
LINE
  5
10c
100
AcDbEntity
  8
Layer_1
 62
1
100
AcDbLine
 10
572.848538
 20
-56.819487
 30
0.0
 11
581.283368
 21
-56.081535
 31
0.0
  0
SPLINE
  5
10d
100
AcDbEntity
  8
Layer_1
 62
1
100
AcDbSpline
 70
8
 71
3
 72
8
 73
4
 74
0
 40
0
 40
0
 40
0
 40
0
 40
1
 40
1
 40
1
 40
1
 10
581.283368
 20
-56.081535
 30
0.0
 10
581.423179
 20
-56.069304
 30
0.0
 10
581.552405
 20
-56.002034
 30
0.0
 10
581.642617
 20
-55.894524
 30
0.0
  0
SPLINE
  5
10e
100
AcDbEntity
  8
Layer_1
 62
1
100
AcDbSpline
 70
8
 71
3
 72
8
 73
4
 74
0
 40
0
 40
0
 40
0
 40
0
 40
1
 40
1
 40
1
 40
1
 10
581.642617
 20
-55.894524
 30
0.0
 10
581.732829
 20
-55.787013
 30
0.0
 10
581.776637
 20
-55.648069
 30
0.0
 10
581.764404
 20
-55.508259
 30
0.0
  0
LINE
  5
10f
100
AcDbEntity
  8
Layer_1
 62
1
100
AcDbLine
 10
581.764404
 20
-55.508259
 30
0.0
 11
580.288863
 21
-38.642742
 31
0.0
  0
SPLINE
  5
110
100
AcDbEntity
  8
Layer_1
 62
1
100
AcDbSpline
 70
8
 71
3
 72
8
 73
4
 74
0
 40
0
 40
0
 40
0
 40
0
 40
1
 40
1
 40
1
 40
1
 10
580.288863
 20
-38.642742
 30
0.0
 10
580.276632
 20
-38.502931
 30
0.0
 10
580.209362
 20
-38.373706
 30
0.0
 10
580.101851
 20
-38.283494
 30
0.0
  0
SPLINE
  5
111
100
AcDbEntity
  8
Layer_1
 62
1
100
AcDbSpline
 70
8
 71
3
 72
8
 73
4
 74
0
 40
0
 40
0
 40
0
 40
0
 40
1
 40
1
 40
1
 40
1
 10
580.101851
 20
-38.283494
 30
0.0
 10
579.994341
 20
-38.193282
 30
0.0
 10
579.855397
 20
-38.149473
 30
0.0
 10
579.715586
 20
-38.161706
 30
0.0
  0
LINE
  5
112
100
AcDbEntity
  8
Layer_1
 62
1
100
AcDbLine
 10
579.715586
 20
-38.161706
 30
0.0
 11
571.280756
 21
-38.899658
 31
0.0
  0
SPLINE
  5
113
100
AcDbEntity
  8
Layer_1
 62
1
100
AcDbSpline
 70
8
 71
3
 72
8
 73
4
 74
0
 40
0
 40
0
 40
0
 40
0
 40
1
 40
1
 40
1
 40
1
 10
571.280756
 20
-38.899658
 30
0.0
 10
571.140945
 20
-38.911891
 30
0.0
 10
571.002001
 20
-38.868082
 30
0.0
 10
570.894491
 20
-38.777871
 30
0.0
  0
SPLINE
  5
114
100
AcDbEntity
  8
Layer_1
 62
1
100
AcDbSpline
 70
8
 71
3
 72
8
 73
4
 74
0
 40
0
 40
0
 40
0
 40
0
 40
1
 40
1
 40
1
 40
1
 10
570.894491
 20
-38.777871
 30
0.0
 10
570.786981
 20
-38.687659
 30
0.0
 10
570.719711
 20
-38.558433
 30
0.0
 10
570.707480
 20
-38.418622
 30
0.0
  0
LINE
  5
115
100
AcDbEntity
  8
Layer_1
 62
1
100
AcDbLine
 10
570.707480
 20
-38.418622
 30
0.0
 11
569.139334
 21
-20.494639
 31
0.0
  0
SPLINE
  5
116
100
AcDbEntity
  8
Layer_1
 62
1
100
AcDbSpline
 70
8
 71
3
 72
8
 73
4
 74
0
 40
0
 40
0
 40
0
 40
0
 40
1
 40
1
 40
1
 40
1
 10
569.139334
 20
-20.494639
 30
0.0
 10
569.113863
 20
-20.203501
 30
0.0
 10
568.857196
 20
-19.988131
 30
0.0
 10
568.566058
 20
-20.013602
 30
0.0
  0
SPLINE
  5
117
100
AcDbEntity
  8
Layer_1
 62
1
100
AcDbSpline
 70
8
 71
3
 72
8
 73
4
 74
0
 40
0
 40
0
 40
0
 40
0
 40
1
 40
1
 40
1
 40
1
 10
568.566058
 20
-20.013602
 30
0.0
 10
567.335648
 20
-20.121259
 30
0.0
 10
566.105238
 20
-20.228896
 30
0.0
 10
564.874828
 20
-20.336543
 30
0.0
  0
SPLINE
  5
118
100
AcDbEntity
  8
Layer_1
 62
1
100
AcDbSpline
 70
8
 71
3
 72
8
 73
4
 74
0
 40
0
 40
0
 40
0
 40
0
 40
1
 40
1
 40
1
 40
1
 10
564.874828
 20
-20.336543
 30
0.0
 10
564.583690
 20
-20.362015
 30
0.0
 10
564.327022
 20
-20.146645
 30
0.0
 10
564.301551
 20
-19.855507
 30
0.0
  0
LINE
  5
119
100
AcDbEntity
  8
Layer_1
 62
1
100
AcDbLine
 10
564.301551
 20
-19.855507
 30
0.0
 11
562.640974
 21
-0.875029
 31
0.0
  0
SPLINE
  5
11a
100
AcDbEntity
  8
Layer_1
 62
1
100
AcDbSpline
 70
8
 71
3
 72
8
 73
4
 74
0
 40
0
 40
0
 40
0
 40
0
 40
1
 40
1
 40
1
 40
1
 10
562.640974
 20
-0.875029
 30
0.0
 10
562.615503
 20
-0.583892
 30
0.0
 10
562.830867
 20
-0.327164
 30
0.0
 10
563.122015
 20
-0.301803
 30
0.0
  0
SPLINE
  5
11b
100
AcDbEntity
  8
Layer_1
 62
1
100
AcDbSpline
 70
8
 71
3
 72
8
 73
4
 74
0
 40
0
 40
0
 40
0
 40
0
 40
1
 40
1
 40
1
 40
1
 10
563.122015
 20
-0.301803
 30
0.0
 10
563.609190
 20
-0.259361
 30
0.0
 10
564.096386
 20
-0.217279
 30
0.0
 10
564.583569
 20
-0.174937
 30
0.0
  0
SPLINE
  5
11c
100
AcDbEntity
  8
Layer_1
 62
1
100
AcDbSpline
 70
8
 71
3
 72
8
 73
4
 74
0
 40
0
 40
0
 40
0
 40
0
 40
1
 40
1
 40
1
 40
1
 10
564.583569
 20
-0.174937
 30
0.0
 10
564.874738
 20
-0.149815
 30
0.0
 10
565.346799
 20
-0.108796
 30
0.0
 10
565.637935
 20
-0.083304
 30
0.0
  0
LINE
  5
11d
100
AcDbEntity
  8
Layer_1
 62
1
100
AcDbLine
 10
565.637935
 20
-0.083304
 30
0.0
 11
600.907536
 21
3.004394
 31
0.0
  0
SPLINE
  5
11e
100
AcDbEntity
  8
Layer_1
 62
1
100
AcDbSpline
 70
8
 71
3
 72
8
 73
4
 74
0
 40
0
 40
0
 40
0
 40
0
 40
1
 40
1
 40
1
 40
1
 10
600.907536
 20
3.004394
 30
0.0
 10
601.198672
 20
3.029885
 30
0.0
 10
601.670707
 20
3.071203
 30
0.0
 10
601.961845
 20
3.096674
 30
0.0
  0
SPLINE
  5
11f
100
AcDbEntity
  8
Layer_1
 62
1
100
AcDbSpline
 70
8
 71
3
 72
8
 73
4
 74
0
 40
0
 40
0
 40
0
 40
0
 40
1
 40
1
 40
1
 40
1
 10
601.961845
 20
3.096674
 30
0.0
 10
618.895259
 20
4.578537
 30
0.0
 10
635.828826
 20
6.058657
 30
0.0
 10
652.762371
 20
7.539136
 30
0.0
  0
SPLINE
  5
120
100
AcDbEntity
  8
Layer_1
 62
1
100
AcDbSpline
 70
8
 71
3
 72
8
 73
4
 74
0
 40
0
 40
0
 40
0
 40
0
 40
1
 40
1
 40
1
 40
1
 10
652.762371
 20
7.539136
 30
0.0
 10
653.053510
 20
7.564588
 30
0.0
 10
653.525490
 20
7.606543
 30
0.0
 10
653.816586
 20
7.632372
 30
0.0
  0
LINE
  5
121
100
AcDbEntity
  8
Layer_1
 62
1
100
AcDbLine
 10
653.816586
 20
7.632372
 30
0.0
 11
689.077630
 21
10.817987
 31
0.0
  0
SPLINE
  5
122
100
AcDbEntity
  8
Layer_1
 62
1
100
AcDbSpline
 70
8
 71
3
 72
8
 73
4
 74
0
 40
0
 40
0
 40
0
 40
0
 40
1
 40
1
 40
1
 40
1
 10
689.077630
 20
10.817987
 30
0.0
 10
689.428977
 20
10.849728
 30
0.0
 10
689.780353
 20
10.881139
 30
0.0
 10
690.131759
 20
10.912219
 30
0.0
  0
LINE
  5
123
100
AcDbEntity
  8
Layer_1
 62
1
100
AcDbLine
 10
690.131759
 20
10.912219
 30
0.0
 11
691.174110
 21
11.004416
 31
0.0
  0
SPLINE
  5
124
100
AcDbEntity
  8
Layer_1
 62
1
100
AcDbSpline
 70
8
 71
3
 72
8
 73
4
 74
0
 40
0
 40
0
 40
0
 40
0
 40
1
 40
1
 40
1
 40
1
 10
691.174110
 20
11.004416
 30
0.0
 10
691.465224
 20
11.030157
 30
0.0
 10
691.721881
 20
10.815017
 30
0.0
 10
691.747353
 20
10.523879
 30
0.0
  0
SPLINE
  5
125
100
AcDbEntity
  8
Layer_1
 62
1
100
AcDbSpline
 70
8
 71
3
 72
8
 73
4
 74
0
 40
0
 40
0
 40
0
 40
0
 40
1
 40
1
 40
1
 40
1
 10
691.747353
 20
10.523879
 30
0.0
 10
693.959301
 20
-14.752612
 30
0.0
 10
696.195285
 20
-40.319091
 30
0.0
 10
698.404761
 20
-65.593590
 30
0.0
  0
SPLINE
  5
126
100
AcDbEntity
  8
Layer_1
 62
1
100
AcDbSpline
 70
8
 71
3
 72
8
 73
4
 74
0
 40
0
 40
0
 40
0
 40
0
 40
1
 40
1
 40
1
 40
1
 10
698.404761
 20
-65.593590
 30
0.0
 10
698.430212
 20
-65.884729
 30
0.0
 10
698.214812
 20
-66.141279
 30
0.0
 10
697.923661
 20
-66.166601
 30
0.0
  0
LINE
  5
127
100
AcDbEntity
  8
Layer_1
 62
1
100
AcDbLine
 10
697.923661
 20
-66.166601
 30
0.0
 11
696.883198
 21
-66.257087
 31
0.0
  0
SPLINE
  5
128
100
AcDbEntity
  8
Layer_1
 62
1
100
AcDbSpline
 70
8
 71
3
 72
8
 73
4
 74
0
 40
0
 40
0
 40
0
 40
0
 40
1
 40
1
 40
1
 40
1
 10
696.883198
 20
-66.257087
 30
0.0
 10
696.531731
 20
-66.287505
 30
0.0
 10
696.180236
 20
-66.317588
 30
0.0
 10
695.828711
 20
-66.347335
 30
0.0
  0
LINE
  5
129
100
AcDbEntity
  8
Layer_1
 62
1
100
AcDbLine
 10
695.828711
 20
-66.347335
 30
0.0
 11
695.828752
 21
-66.347452
 31
0.0
  0
LINE
  5
12a
100
AcDbEntity
  8
Layer_1
 62
1
100
AcDbLine
 10
500.340518
 20
-86.766744
 30
0.0
 11
498.547681
 21
-88.229354
 31
0.0
  0
SPLINE
  5
12b
100
AcDbEntity
  8
Layer_1
 62
1
100
AcDbSpline
 70
8
 71
3
 72
8
 73
4
 74
0
 40
0
 40
0
 40
0
 40
0
 40
1
 40
1
 40
1
 40
1
 10
498.547681
 20
-88.229354
 30
0.0
 10
498.021889
 20
-88.658303
 30
0.0
 10
497.349338
 20
-88.864897
 30
0.0
 10
496.673410
 20
-88.805091
 30
0.0
  0
LINE
  5
12c
100
AcDbEntity
  8
Layer_1
 62
1
100
AcDbLine
 10
496.673410
 20
-88.805091
 30
0.0
 11
475.968822
 21
-86.973096
 31
0.0
  0
SPLINE
  5
12d
100
AcDbEntity
  8
Layer_1
 62
1
100
AcDbSpline
 70
8
 71
3
 72
8
 73
4
 74
0
 40
0
 40
0
 40
0
 40
0
 40
1
 40
1
 40
1
 40
1
 10
475.968822
 20
-86.973096
 30
0.0
 10
475.386596
 20
-86.921586
 30
0.0
 10
474.442548
 20
-86.838922
 30
0.0
 10
473.860232
 20
-86.788438
 30
0.0
  0
SPLINE
  5
12e
100
AcDbEntity
  8
Layer_1
 62
1
100
AcDbSpline
 70
8
 71
3
 72
8
 73
4
 74
0
 40
0
 40
0
 40
0
 40
0
 40
1
 40
1
 40
1
 40
1
 10
473.860232
 20
-86.788438
 30
0.0
 10
456.539616
 20
-85.286833
 30
0.0
 10
440.526213
 20
-83.880120
 30
0.0
 10
424.657329
 20
-82.487757
 30
0.0
  0
SPLINE
  5
12f
100
AcDbEntity
  8
Layer_1
 62
1
100
AcDbSpline
 70
8
 71
3
 72
8
 73
4
 74
0
 40
0
 40
0
 40
0
 40
0
 40
1
 40
1
 40
1
 40
1
 10
424.657329
 20
-82.487757
 30
0.0
 10
424.075067
 20
-82.436665
 30
0.0
 10
423.131027
 20
-82.353912
 30
0.0
 10
422.548757
 20
-82.302899
 30
0.0
  0
LINE
  5
130
100
AcDbEntity
  8
Layer_1
 62
1
100
AcDbLine
 10
422.548757
 20
-82.302899
 30
0.0
 11
406.968426
 21
-80.937789
 31
0.0
  0
SPLINE
  5
131
100
AcDbEntity
  8
Layer_1
 62
1
100
AcDbSpline
 70
8
 71
3
 72
8
 73
4
 74
0
 40
0
 40
0
 40
0
 40
0
 40
1
 40
1
 40
1
 40
1
 10
406.968426
 20
-80.937789
 30
0.0
 10
406.386157
 20
-80.886777
 30
0.0
 10
405.442104
 20
-80.804163
 30
0.0
 10
404.859823
 20
-80.753280
 30
0.0
  0
SPLINE
  5
132
100
AcDbEntity
  8
Layer_1
 62
1
100
AcDbSpline
 70
8
 71
3
 72
8
 73
4
 74
0
 40
0
 40
0
 40
0
 40
0
 40
1
 40
1
 40
1
 40
1
 10
404.859823
 20
-80.753280
 30
0.0
 10
392.318024
 20
-79.657019
 30
0.0
 10
379.577959
 20
-78.550438
 30
0.0
 10
366.073112
 20
-77.395117
 30
0.0
  0
SPLINE
  5
133
100
AcDbEntity
  8
Layer_1
 62
1
100
AcDbSpline
 70
8
 71
3
 72
8
 73
4
 74
0
 40
0
 40
0
 40
0
 40
0
 40
1
 40
1
 40
1
 40
1
 10
366.073112
 20
-77.395117
 30
0.0
 10
365.490749
 20
-77.345171
 30
0.0
 10
364.704231
 20
-76.950419
 30
0.0
 10
364.316398
 20
-76.513123
 30
0.0
  0
LINE
  5
134
100
AcDbEntity
  8
Layer_1
 62
1
100
AcDbLine
 10
364.316398
 20
-76.513123
 30
0.0
 11
362.744746
 21
-74.741021
 31
0.0
  0
SPLINE
  5
135
100
AcDbEntity
  8
Layer_1
 62
1
100
AcDbSpline
 70
8
 71
3
 72
8
 73
4
 74
0
 40
0
 40
0
 40
0
 40
0
 40
1
 40
1
 40
1
 40
1
 10
362.744746
 20
-74.741021
 30
0.0
 10
362.296465
 20
-74.235565
 30
0.0
 10
362.075861
 20
-73.567954
 30
0.0
 10
362.134723
 20
-72.894919
 30
0.0
  0
LINE
  5
136
100
AcDbEntity
  8
Layer_1
 62
1
100
AcDbLine
 10
362.134723
 20
-72.894919
 30
0.0
 11
370.411859
 21
21.747604
 31
0.0
  0
SPLINE
  5
137
100
AcDbEntity
  8
Layer_1
 62
1
100
AcDbSpline
 70
8
 71
3
 72
8
 73
4
 74
0
 40
0
 40
0
 40
0
 40
0
 40
1
 40
1
 40
1
 40
1
 10
370.411859
 20
21.747604
 30
0.0
 10
370.470424
 20
22.417211
 30
0.0
 10
370.816844
 20
23.028397
 30
0.0
 10
371.361260
 20
23.422623
 30
0.0
  0
LINE
  5
138
100
AcDbEntity
  8
Layer_1
 62
1
100
AcDbLine
 10
371.361260
 20
23.422623
 30
0.0
 11
373.140727
 21
24.711185
 31
0.0
  0
SPLINE
  5
139
100
AcDbEntity
  8
Layer_1
 62
1
100
AcDbSpline
 70
8
 71
3
 72
8
 73
4
 74
0
 40
0
 40
0
 40
0
 40
0
 40
1
 40
1
 40
1
 40
1
 10
373.140727
 20
24.711185
 30
0.0
 10
373.693585
 20
25.111525
 30
0.0
 10
374.372231
 20
25.299151
 30
0.0
 10
375.052220
 20
25.239659
 30
0.0
  0
LINE
  5
13a
100
AcDbEntity
  8
Layer_1
 62
1
100
AcDbLine
 10
375.052220
 20
25.239659
 30
0.0
 11
430.453808
 21
20.392457
 31
0.0
  0
SPLINE
  5
13b
100
AcDbEntity
  8
Layer_1
 62
1
100
AcDbSpline
 70
8
 71
3
 72
8
 73
4
 74
0
 40
0
 40
0
 40
0
 40
0
 40
1
 40
1
 40
1
 40
1
 10
430.453808
 20
20.392457
 30
0.0
 10
431.144793
 20
20.332003
 30
0.0
 10
431.839624
 20
20.452244
 30
0.0
 10
432.470112
 20
20.741382
 30
0.0
  0
LINE
  5
13c
100
AcDbEntity
  8
Layer_1
 62
1
100
AcDbLine
 10
432.470112
 20
20.741382
 30
0.0
 11
441.061294
 21
24.681234
 31
0.0
  0
SPLINE
  5
13d
100
AcDbEntity
  8
Layer_1
 62
1
100
AcDbSpline
 70
8
 71
3
 72
8
 73
4
 74
0
 40
0
 40
0
 40
0
 40
0
 40
1
 40
1
 40
1
 40
1
 10
441.061294
 20
24.681234
 30
0.0
 10
441.691782
 20
24.970369
 30
0.0
 10
442.386613
 20
25.090604
 30
0.0
 10
443.077596
 20
25.030139
 30
0.0
  0
LINE
  5
13e
100
AcDbEntity
  8
Layer_1
 62
1
100
AcDbLine
 10
443.077596
 20
25.030139
 30
0.0
 11
506.165108
 21
19.509733
 31
0.0
  0
SPLINE
  5
13f
100
AcDbEntity
  8
Layer_1
 62
1
100
AcDbSpline
 70
8
 71
3
 72
8
 73
4
 74
0
 40
0
 40
0
 40
0
 40
0
 40
1
 40
1
 40
1
 40
1
 10
506.165108
 20
19.509733
 30
0.0
 10
506.849868
 20
19.449814
 30
0.0
 10
507.497339
 20
19.171784
 30
0.0
 10
508.012334
 20
18.716519
 30
0.0
  0
LINE
  5
140
100
AcDbEntity
  8
Layer_1
 62
1
100
AcDbLine
 10
508.012334
 20
18.716519
 30
0.0
 11
509.328253
 21
17.553212
 31
0.0
  0
SPLINE
  5
141
100
AcDbEntity
  8
Layer_1
 62
1
100
AcDbSpline
 70
8
 71
3
 72
8
 73
4
 74
0
 40
0
 40
0
 40
0
 40
0
 40
1
 40
1
 40
1
 40
1
 10
509.328253
 20
17.553212
 30
0.0
 10
509.839172
 20
17.101550
 30
0.0
 10
510.497573
 20
16.852230
 30
0.0
 10
511.179509
 20
16.852187
 30
0.0
  0
LINE
  5
142
100
AcDbEntity
  8
Layer_1
 62
1
100
AcDbLine
 10
511.179509
 20
16.852187
 30
0.0
 11
555.052981
 21
16.849431
 31
0.0
  0
SPLINE
  5
143
100
AcDbEntity
  8
Layer_1
 62
1
100
AcDbSpline
 70
8
 71
3
 72
8
 73
4
 74
0
 40
0
 40
0
 40
0
 40
0
 40
1
 40
1
 40
1
 40
1
 10
555.052981
 20
16.849431
 30
0.0
 10
555.735223
 20
16.849387
 30
0.0
 10
556.394264
 20
17.097119
 30
0.0
 10
556.907546
 20
17.546558
 30
0.0
  0
LINE
  5
144
100
AcDbEntity
  8
Layer_1
 62
1
100
AcDbLine
 10
556.907546
 20
17.546558
 30
0.0
 11
558.251180
 21
18.723080
 31
0.0
  0
SPLINE
  5
145
100
AcDbEntity
  8
Layer_1
 62
1
100
AcDbSpline
 70
8
 71
3
 72
8
 73
4
 74
0
 40
0
 40
0
 40
0
 40
0
 40
1
 40
1
 40
1
 40
1
 10
558.251180
 20
18.723080
 30
0.0
 10
558.768530
 20
19.176083
 30
0.0
 10
559.416684
 20
19.452589
 30
0.0
 10
560.101717
 20
19.512529
 30
0.0
  0
LINE
  5
146
100
AcDbEntity
  8
Layer_1
 62
1
100
AcDbLine
 10
560.101717
 20
19.512529
 30
0.0
 11
623.154108
 21
25.029525
 31
0.0
  0
SPLINE
  5
147
100
AcDbEntity
  8
Layer_1
 62
1
100
AcDbSpline
 70
8
 71
3
 72
8
 73
4
 74
0
 40
0
 40
0
 40
0
 40
0
 40
1
 40
1
 40
1
 40
1
 10
623.154108
 20
25.029525
 30
0.0
 10
623.845087
 20
25.089987
 30
0.0
 10
624.539912
 20
24.969708
 30
0.0
 10
625.170361
 20
24.680498
 30
0.0
  0
LINE
  5
148
100
AcDbEntity
  8
Layer_1
 62
1
100
AcDbLine
 10
625.170361
 20
24.680498
 30
0.0
 11
633.761039
 21
20.739595
 31
0.0
  0
SPLINE
  5
149
100
AcDbEntity
  8
Layer_1
 62
1
100
AcDbSpline
 70
8
 71
3
 72
8
 73
4
 74
0
 40
0
 40
0
 40
0
 40
0
 40
1
 40
1
 40
1
 40
1
 10
633.761039
 20
20.739595
 30
0.0
 10
634.391487
 20
20.450386
 30
0.0
 10
635.086312
 20
20.330107
 30
0.0
 10
635.777291
 20
20.390569
 30
0.0
  0
LINE
  5
14a
100
AcDbEntity
  8
Layer_1
 62
1
100
AcDbLine
 10
635.777291
 20
20.390569
 30
0.0
 11
655.551738
 21
22.120796
 31
0.0
  0
SPLINE
  5
14b
100
AcDbEntity
  8
Layer_1
 62
1
100
AcDbSpline
 70
8
 71
3
 72
8
 73
4
 74
0
 40
0
 40
0
 40
0
 40
0
 40
1
 40
1
 40
1
 40
1
 10
655.551738
 20
22.120796
 30
0.0
 10
656.254607
 20
22.182298
 30
0.0
 10
656.957480
 20
22.243743
 30
0.0
 10
657.660358
 20
22.305130
 30
0.0
  0
LINE
  5
14c
100
AcDbEntity
  8
Layer_1
 62
1
100
AcDbLine
 10
657.660358
 20
22.305130
 30
0.0
 11
674.872770
 21
23.808339
 31
0.0
  0
SPLINE
  5
14d
100
AcDbEntity
  8
Layer_1
 62
1
100
AcDbSpline
 70
8
 71
3
 72
8
 73
4
 74
0
 40
0
 40
0
 40
0
 40
0
 40
1
 40
1
 40
1
 40
1
 10
674.872770
 20
23.808339
 30
0.0
 10
675.575649
 20
23.869726
 30
0.0
 10
676.278517
 20
23.931231
 30
0.0
 10
676.981375
 20
23.992854
 30
0.0
  0
LINE
  5
14e
100
AcDbEntity
  8
Layer_1
 62
1
100
AcDbLine
 10
676.981375
 20
23.992854
 30
0.0
 11
691.174052
 21
25.237166
 31
0.0
  0
SPLINE
  5
14f
100
AcDbEntity
  8
Layer_1
 62
1
100
AcDbSpline
 70
8
 71
3
 72
8
 73
4
 74
0
 40
0
 40
0
 40
0
 40
0
 40
1
 40
1
 40
1
 40
1
 10
691.174052
 20
25.237166
 30
0.0
 10
691.853692
 20
25.296751
 30
0.0
 10
692.531847
 20
25.107517
 30
0.0
 10
693.082441
 20
24.704643
 30
0.0
  0
LINE
  5
150
100
AcDbEntity
  8
Layer_1
 62
1
100
AcDbLine
 10
693.082441
 20
24.704643
 30
0.0
 11
694.835448
 21
23.421957
 31
0.0
  0
SPLINE
  5
151
100
AcDbEntity
  8
Layer_1
 62
1
100
AcDbSpline
 70
8
 71
3
 72
8
 73
4
 74
0
 40
0
 40
0
 40
0
 40
0
 40
1
 40
1
 40
1
 40
1
 10
694.835448
 20
23.421957
 30
0.0
 10
695.378226
 20
23.024801
 30
0.0
 10
695.723174
 20
22.412701
 30
0.0
 10
695.781792
 20
21.742697
 30
0.0
  0
LINE
  5
152
100
AcDbEntity
  8
Layer_1
 62
1
100
AcDbLine
 10
695.781792
 20
21.742697
 30
0.0
 11
704.061570
 21
-72.895700
 31
0.0
  0
SPLINE
  5
153
100
AcDbEntity
  8
Layer_1
 62
1
100
AcDbSpline
 70
8
 71
3
 72
8
 73
4
 74
0
 40
0
 40
0
 40
0
 40
0
 40
1
 40
1
 40
1
 40
1
 10
704.061570
 20
-72.895700
 30
0.0
 10
704.120470
 20
-73.568943
 30
0.0
 10
703.900816
 20
-74.236900
 30
0.0
 10
703.453836
 20
-74.743785
 30
0.0
  0
LINE
  5
154
100
AcDbEntity
  8
Layer_1
 62
1
100
AcDbLine
 10
703.453836
 20
-74.743785
 30
0.0
 11
701.913750
 21
-76.490264
 31
0.0
  0
SPLINE
  5
155
100
AcDbEntity
  8
Layer_1
 62
1
100
AcDbSpline
 70
8
 71
3
 72
8
 73
4
 74
0
 40
0
 40
0
 40
0
 40
0
 40
1
 40
1
 40
1
 40
1
 10
701.913750
 20
-76.490264
 30
0.0
 10
701.464389
 20
-76.999842
 30
0.0
 10
700.836299
 20
-77.317133
 30
0.0
 10
700.159487
 20
-77.376462
 30
0.0
  0
LINE
  5
156
100
AcDbEntity
  8
Layer_1
 62
1
100
AcDbLine
 10
700.159487
 20
-77.376462
 30
0.0
 11
684.641053
 21
-78.736808
 31
0.0
  0
SPLINE
  5
157
100
AcDbEntity
  8
Layer_1
 62
1
100
AcDbSpline
 70
8
 71
3
 72
8
 73
4
 74
0
 40
0
 40
0
 40
0
 40
0
 40
1
 40
1
 40
1
 40
1
 10
684.641053
 20
-78.736808
 30
0.0
 10
683.938192
 20
-78.798418
 30
0.0
 10
683.235332
 20
-78.860024
 30
0.0
 10
682.532471
 20
-78.921626
 30
0.0
  0
LINE
  5
158
100
AcDbEntity
  8
Layer_1
 62
1
100
AcDbLine
 10
682.532471
 20
-78.921626
 30
0.0
 11
665.584180
 21
-80.407098
 31
0.0
  0
SPLINE
  5
159
100
AcDbEntity
  8
Layer_1
 62
1
100
AcDbSpline
 70
8
 71
3
 72
8
 73
4
 74
0
 40
0
 40
0
 40
0
 40
0
 40
1
 40
1
 40
1
 40
1
 10
665.584180
 20
-80.407098
 30
0.0
 10
664.881318
 20
-80.468702
 30
0.0
 10
664.178456
 20
-80.530295
 30
0.0
 10
663.475592
 20
-80.591876
 30
0.0
  0
LINE
  5
15a
100
AcDbEntity
  8
Layer_1
 62
1
100
AcDbLine
 10
663.475592
 20
-80.591876
 30
0.0
 11
569.577427
 21
-88.818576
 31
0.0
  0
SPLINE
  5
15b
100
AcDbEntity
  8
Layer_1
 62
1
100
AcDbSpline
 70
8
 71
3
 72
8
 73
4
 74
0
 40
0
 40
0
 40
0
 40
0
 40
1
 40
1
 40
1
 40
1
 10
569.577427
 20
-88.818576
 30
0.0
 10
568.900936
 20
-88.877846
 30
0.0
 10
568.227745
 20
-88.673097
 30
0.0
 10
567.698817
 20
-88.247200
 30
0.0
  0
LINE
  5
15c
100
AcDbEntity
  8
Layer_1
 62
1
100
AcDbLine
 10
567.698817
 20
-88.247200
 30
0.0
 11
565.899241
 21
-86.798163
 31
0.0
  0
SPLINE
  5
15d
100
AcDbEntity
  8
Layer_1
 62
1
100
AcDbSpline
 70
8
 71
3
 72
8
 73
4
 74
0
 40
0
 40
0
 40
0
 40
0
 40
1
 40
1
 40
1
 40
1
 10
565.899241
 20
-86.798163
 30
0.0
 10
565.365757
 20
-86.368599
 30
0.0
 10
564.701520
 20
-86.134199
 30
0.0
 10
564.016590
 20
-86.133801
 30
0.0
  0
LINE
  5
15e
100
AcDbEntity
  8
Layer_1
 62
1
100
AcDbLine
 10
564.016590
 20
-86.133801
 30
0.0
 11
502.218902
 21
-86.097761
 31
0.0
  0
SPLINE
  5
15f
100
AcDbEntity
  8
Layer_1
 62
1
100
AcDbSpline
 70
8
 71
3
 72
8
 73
4
 74
0
 40
0
 40
0
 40
0
 40
0
 40
1
 40
1
 40
1
 40
1
 10
502.218902
 20
-86.097761
 30
0.0
 10
501.534441
 20
-86.097363
 30
0.0
 10
500.870867
 20
-86.333487
 30
0.0
 10
500.340509
 20
-86.766161
 30
0.0
  0
LINE
  5
160
100
AcDbEntity
  8
Layer_1
 62
1
100
AcDbLine
 10
500.340509
 20
-86.766161
 30
0.0
 11
500.340518
 21
-86.766744
 31
0.0
  0
LINE
  5
161
100
AcDbEntity
  8
Layer_1
 62
1
100
AcDbLine
 10
564.270782
 20
-76.943524
 30
0.0
 11
557.456359
 21
0.945745
 31
0.0
  0
SPLINE
  5
162
100
AcDbEntity
  8
Layer_1
 62
1
100
AcDbSpline
 70
8
 71
3
 72
8
 73
4
 74
0
 40
0
 40
0
 40
0
 40
0
 40
1
 40
1
 40
1
 40
1
 10
557.456359
 20
0.945745
 30
0.0
 10
557.404160
 20
1.542323
 30
0.0
 10
556.904637
 20
2.000051
 30
0.0
 10
556.305780
 20
2.000056
 30
0.0
  0
LINE
  5
163
100
AcDbEntity
  8
Layer_1
 62
1
100
AcDbLine
 10
556.305780
 20
2.000056
 30
0.0
 11
509.926530
 21
2.000717
 31
0.0
  0
SPLINE
  5
164
100
AcDbEntity
  8
Layer_1
 62
1
100
AcDbSpline
 70
8
 71
3
 72
8
 73
4
 74
0
 40
0
 40
0
 40
0
 40
0
 40
1
 40
1
 40
1
 40
1
 10
509.926530
 20
2.000717
 30
0.0
 10
509.327674
 20
2.000726
 30
0.0
 10
508.828147
 20
1.543001
 30
0.0
 10
508.775954
 20
0.946424
 30
0.0
  0
LINE
  5
165
100
AcDbEntity
  8
Layer_1
 62
1
100
AcDbLine
 10
508.775954
 20
0.946424
 30
0.0
 11
501.961363
 21
-76.944714
 31
0.0
  0
SPLINE
  5
166
100
AcDbEntity
  8
Layer_1
 62
1
100
AcDbSpline
 70
8
 71
3
 72
8
 73
4
 74
0
 40
0
 40
0
 40
0
 40
0
 40
1
 40
1
 40
1
 40
1
 10
501.961363
 20
-76.944714
 30
0.0
 10
501.937666
 20
-77.215575
 30
0.0
 10
502.028767
 20
-77.483942
 30
0.0
 10
502.212458
 20
-77.684402
 30
0.0
  0
SPLINE
  5
167
100
AcDbEntity
  8
Layer_1
 62
1
100
AcDbSpline
 70
8
 71
3
 72
8
 73
4
 74
0
 40
0
 40
0
 40
0
 40
0
 40
1
 40
1
 40
1
 40
1
 10
502.212458
 20
-77.684402
 30
0.0
 10
502.396149
 20
-77.884862
 30
0.0
 10
502.655557
 20
-77.999001
 30
0.0
 10
502.927452
 20
-77.998997
 30
0.0
  0
LINE
  5
168
100
AcDbEntity
  8
Layer_1
 62
1
100
AcDbLine
 10
502.927452
 20
-77.998997
 30
0.0
 11
563.304696
 21
-77.997846
 31
0.0
  0
SPLINE
  5
169
100
AcDbEntity
  8
Layer_1
 62
1
100
AcDbSpline
 70
8
 71
3
 72
8
 73
4
 74
0
 40
0
 40
0
 40
0
 40
0
 40
1
 40
1
 40
1
 40
1
 10
563.304696
 20
-77.997846
 30
0.0
 10
563.576594
 20
-77.997838
 30
0.0
 10
563.836001
 20
-77.883691
 30
0.0
 10
564.019691
 20
-77.683224
 30
0.0
  0
SPLINE
  5
16a
100
AcDbEntity
  8
Layer_1
 62
1
100
AcDbSpline
 70
8
 71
3
 72
8
 73
4
 74
0
 40
0
 40
0
 40
0
 40
0
 40
1
 40
1
 40
1
 40
1
 10
564.019691
 20
-77.683224
 30
0.0
 10
564.203380
 20
-77.482758
 30
0.0
 10
564.294479
 20
-77.214387
 30
0.0
 10
564.270782
 20
-76.943524
 30
0.0
  0
LINE
  5
16b
100
AcDbEntity
  8
Layer_1
 62
1
100
AcDbLine
 10
564.270782
 20
-76.943524
 30
0.0
 11
564.270782
 21
-76.943524
 31
0.0
  0
SPLINE
  5
16c
100
AcDbEntity
  8
Layer_1
 62
1
100
AcDbSpline
 70
8
 71
3
 72
8
 73
4
 74
0
 40
0
 40
0
 40
0
 40
0
 40
1
 40
1
 40
1
 40
1
 10
368.027752
 20
-70.891608
 30
0.0
 10
367.644975
 20
-70.858119
 30
0.0
 10
367.279716
 20
-71.058507
 30
0.0
 10
367.102294
 20
-71.399332
 30
0.0
  0
SPLINE
  5
16d
100
AcDbEntity
  8
Layer_1
 62
1
100
AcDbSpline
 70
8
 71
3
 72
8
 73
4
 74
0
 40
0
 40
0
 40
0
 40
0
 40
1
 40
1
 40
1
 40
1
 10
367.102294
 20
-71.399332
 30
0.0
 10
366.924872
 20
-71.740156
 30
0.0
 10
366.970228
 20
-72.154297
 30
0.0
 10
367.217212
 20
-72.448642
 30
0.0
  0
SPLINE
  5
16e
100
AcDbEntity
  8
Layer_1
 62
1
100
AcDbSpline
 70
8
 71
3
 72
8
 73
4
 74
0
 40
0
 40
0
 40
0
 40
0
 40
1
 40
1
 40
1
 40
1
 10
367.217212
 20
-72.448642
 30
0.0
 10
367.464196
 20
-72.742986
 30
0.0
 10
367.864170
 20
-72.859567
 30
0.0
 10
368.230625
 20
-72.744024
 30
0.0
  0
SPLINE
  5
16f
100
AcDbEntity
  8
Layer_1
 62
1
100
AcDbSpline
 70
8
 71
3
 72
8
 73
4
 74
0
 40
0
 40
0
 40
0
 40
0
 40
1
 40
1
 40
1
 40
1
 10
368.230625
 20
-72.744024
 30
0.0
 10
368.597081
 20
-72.628481
 30
0.0
 10
368.857851
 20
-72.303568
 30
0.0
 10
368.891340
 20
-71.920791
 30
0.0
  0
SPLINE
  5
170
100
AcDbEntity
  8
Layer_1
 62
1
100
AcDbSpline
 70
8
 71
3
 72
8
 73
4
 74
0
 40
0
 40
0
 40
0
 40
0
 40
1
 40
1
 40
1
 40
1
 10
368.891340
 20
-71.920791
 30
0.0
 10
368.913299
 20
-71.669794
 30
0.0
 10
368.834651
 20
-71.420354
 30
0.0
 10
368.672697
 20
-71.227345
 30
0.0
  0
SPLINE
  5
171
100
AcDbEntity
  8
Layer_1
 62
1
100
AcDbSpline
 70
8
 71
3
 72
8
 73
4
 74
0
 40
0
 40
0
 40
0
 40
0
 40
1
 40
1
 40
1
 40
1
 10
368.672697
 20
-71.227345
 30
0.0
 10
368.510743
 20
-71.034335
 30
0.0
 10
368.278749
 20
-70.913567
 30
0.0
 10
368.027752
 20
-70.891608
 30
0.0
  0
LINE
  5
172
100
AcDbEntity
  8
Layer_1
 62
1
100
AcDbLine
 10
368.027752
 20
-70.891608
 30
0.0
 11
368.027752
 21
-70.891608
 31
0.0
  0
SPLINE
  5
173
100
AcDbEntity
  8
Layer_1
 62
1
100
AcDbSpline
 70
8
 71
3
 72
8
 73
4
 74
0
 40
0
 40
0
 40
0
 40
0
 40
1
 40
1
 40
1
 40
1
 10
375.770096
 20
17.603851
 30
0.0
 10
375.387319
 20
17.637339
 30
0.0
 10
375.022059
 20
17.436951
 30
0.0
 10
374.844637
 20
17.096127
 30
0.0
  0
SPLINE
  5
174
100
AcDbEntity
  8
Layer_1
 62
1
100
AcDbSpline
 70
8
 71
3
 72
8
 73
4
 74
0
 40
0
 40
0
 40
0
 40
0
 40
1
 40
1
 40
1
 40
1
 10
374.844637
 20
17.096127
 30
0.0
 10
374.667215
 20
16.755302
 30
0.0
 10
374.712571
 20
16.341161
 30
0.0
 10
374.959555
 20
16.046817
 30
0.0
  0
SPLINE
  5
175
100
AcDbEntity
  8
Layer_1
 62
1
100
AcDbSpline
 70
8
 71
3
 72
8
 73
4
 74
0
 40
0
 40
0
 40
0
 40
0
 40
1
 40
1
 40
1
 40
1
 10
374.959555
 20
16.046817
 30
0.0
 10
375.206540
 20
15.752473
 30
0.0
 10
375.606513
 20
15.635891
 30
0.0
 10
375.972968
 20
15.751434
 30
0.0
  0
SPLINE
  5
176
100
AcDbEntity
  8
Layer_1
 62
1
100
AcDbSpline
 70
8
 71
3
 72
8
 73
4
 74
0
 40
0
 40
0
 40
0
 40
0
 40
1
 40
1
 40
1
 40
1
 10
375.972968
 20
15.751434
 30
0.0
 10
376.339424
 20
15.866977
 30
0.0
 10
376.600194
 20
16.191891
 30
0.0
 10
376.633683
 20
16.574668
 30
0.0
  0
SPLINE
  5
177
100
AcDbEntity
  8
Layer_1
 62
1
100
AcDbSpline
 70
8
 71
3
 72
8
 73
4
 74
0
 40
0
 40
0
 40
0
 40
0
 40
1
 40
1
 40
1
 40
1
 10
376.633683
 20
16.574668
 30
0.0
 10
376.655642
 20
16.825665
 30
0.0
 10
376.576994
 20
17.075105
 30
0.0
 10
376.415040
 20
17.268114
 30
0.0
  0
SPLINE
  5
178
100
AcDbEntity
  8
Layer_1
 62
1
100
AcDbSpline
 70
8
 71
3
 72
8
 73
4
 74
0
 40
0
 40
0
 40
0
 40
0
 40
1
 40
1
 40
1
 40
1
 10
376.415040
 20
17.268114
 30
0.0
 10
376.253086
 20
17.461123
 30
0.0
 10
376.021093
 20
17.581891
 30
0.0
 10
375.770096
 20
17.603851
 30
0.0
  0
LINE
  5
179
100
AcDbEntity
  8
Layer_1
 62
1
100
AcDbLine
 10
375.770096
 20
17.603851
 30
0.0
 11
375.770096
 21
17.603851
 31
0.0
  0
SPLINE
  5
17a
100
AcDbEntity
  8
Layer_1
 62
1
100
AcDbSpline
 70
8
 71
3
 72
8
 73
4
 74
0
 40
0
 40
0
 40
0
 40
0
 40
1
 40
1
 40
1
 40
1
 10
504.279060
 20
14.916261
 30
0.0
 10
503.896283
 20
14.949749
 30
0.0
 10
503.531023
 20
14.749361
 30
0.0
 10
503.353601
 20
14.408537
 30
0.0
  0
SPLINE
  5
17b
100
AcDbEntity
  8
Layer_1
 62
1
100
AcDbSpline
 70
8
 71
3
 72
8
 73
4
 74
0
 40
0
 40
0
 40
0
 40
0
 40
1
 40
1
 40
1
 40
1
 10
503.353601
 20
14.408537
 30
0.0
 10
503.176179
 20
14.067712
 30
0.0
 10
503.221535
 20
13.653571
 30
0.0
 10
503.468519
 20
13.359227
 30
0.0
  0
SPLINE
  5
17c
100
AcDbEntity
  8
Layer_1
 62
1
100
AcDbSpline
 70
8
 71
3
 72
8
 73
4
 74
0
 40
0
 40
0
 40
0
 40
0
 40
1
 40
1
 40
1
 40
1
 10
503.468519
 20
13.359227
 30
0.0
 10
503.715504
 20
13.064883
 30
0.0
 10
504.115477
 20
12.948301
 30
0.0
 10
504.481932
 20
13.063844
 30
0.0
  0
SPLINE
  5
17d
100
AcDbEntity
  8
Layer_1
 62
1
100
AcDbSpline
 70
8
 71
3
 72
8
 73
4
 74
0
 40
0
 40
0
 40
0
 40
0
 40
1
 40
1
 40
1
 40
1
 10
504.481932
 20
13.063844
 30
0.0
 10
504.848388
 20
13.179387
 30
0.0
 10
505.109158
 20
13.504301
 30
0.0
 10
505.142647
 20
13.887078
 30
0.0
  0
SPLINE
  5
17e
100
AcDbEntity
  8
Layer_1
 62
1
100
AcDbSpline
 70
8
 71
3
 72
8
 73
4
 74
0
 40
0
 40
0
 40
0
 40
0
 40
1
 40
1
 40
1
 40
1
 10
505.142647
 20
13.887078
 30
0.0
 10
505.164606
 20
14.138075
 30
0.0
 10
505.085958
 20
14.387515
 30
0.0
 10
504.924004
 20
14.580524
 30
0.0
  0
SPLINE
  5
17f
100
AcDbEntity
  8
Layer_1
 62
1
100
AcDbSpline
 70
8
 71
3
 72
8
 73
4
 74
0
 40
0
 40
0
 40
0
 40
0
 40
1
 40
1
 40
1
 40
1
 10
504.924004
 20
14.580524
 30
0.0
 10
504.762050
 20
14.773533
 30
0.0
 10
504.530057
 20
14.894301
 30
0.0
 10
504.279060
 20
14.916261
 30
0.0
  0
LINE
  5
180
100
AcDbEntity
  8
Layer_1
 62
1
100
AcDbLine
 10
504.279060
 20
14.916261
 30
0.0
 11
504.279060
 21
14.916261
 31
0.0
  0
SPLINE
  5
181
100
AcDbEntity
  8
Layer_1
 62
1
100
AcDbSpline
 70
8
 71
3
 72
8
 73
4
 74
0
 40
0
 40
0
 40
0
 40
0
 40
1
 40
1
 40
1
 40
1
 10
495.795709
 20
-82.048957
 30
0.0
 10
495.412932
 20
-82.015469
 30
0.0
 10
495.047673
 20
-82.215857
 30
0.0
 10
494.870251
 20
-82.556681
 30
0.0
  0
SPLINE
  5
182
100
AcDbEntity
  8
Layer_1
 62
1
100
AcDbSpline
 70
8
 71
3
 72
8
 73
4
 74
0
 40
0
 40
0
 40
0
 40
0
 40
1
 40
1
 40
1
 40
1
 10
494.870251
 20
-82.556681
 30
0.0
 10
494.692829
 20
-82.897506
 30
0.0
 10
494.738185
 20
-83.311647
 30
0.0
 10
494.985169
 20
-83.605991
 30
0.0
  0
SPLINE
  5
183
100
AcDbEntity
  8
Layer_1
 62
1
100
AcDbSpline
 70
8
 71
3
 72
8
 73
4
 74
0
 40
0
 40
0
 40
0
 40
0
 40
1
 40
1
 40
1
 40
1
 10
494.985169
 20
-83.605991
 30
0.0
 10
495.232153
 20
-83.900335
 30
0.0
 10
495.632126
 20
-84.016917
 30
0.0
 10
495.998582
 20
-83.901374
 30
0.0
  0
SPLINE
  5
184
100
AcDbEntity
  8
Layer_1
 62
1
100
AcDbSpline
 70
8
 71
3
 72
8
 73
4
 74
0
 40
0
 40
0
 40
0
 40
0
 40
1
 40
1
 40
1
 40
1
 10
495.998582
 20
-83.901374
 30
0.0
 10
496.365037
 20
-83.785831
 30
0.0
 10
496.625808
 20
-83.460918
 30
0.0
 10
496.659296
 20
-83.078140
 30
0.0
  0
SPLINE
  5
185
100
AcDbEntity
  8
Layer_1
 62
1
100
AcDbSpline
 70
8
 71
3
 72
8
 73
4
 74
0
 40
0
 40
0
 40
0
 40
0
 40
1
 40
1
 40
1
 40
1
 10
496.659296
 20
-83.078140
 30
0.0
 10
496.681256
 20
-82.827143
 30
0.0
 10
496.602608
 20
-82.577703
 30
0.0
 10
496.440654
 20
-82.384694
 30
0.0
  0
SPLINE
  5
186
100
AcDbEntity
  8
Layer_1
 62
1
100
AcDbSpline
 70
8
 71
3
 72
8
 73
4
 74
0
 40
0
 40
0
 40
0
 40
0
 40
1
 40
1
 40
1
 40
1
 10
496.440654
 20
-82.384694
 30
0.0
 10
496.278700
 20
-82.191685
 30
0.0
 10
496.046706
 20
-82.070917
 30
0.0
 10
495.795709
 20
-82.048957
 30
0.0
  0
LINE
  5
187
100
AcDbEntity
  8
Layer_1
 62
1
100
AcDbLine
 10
495.795709
 20
-82.048957
 30
0.0
 11
495.795709
 21
-82.048957
 31
0.0
  0
SPLINE
  5
188
100
AcDbEntity
  8
Layer_1
 62
1
100
AcDbSpline
 70
8
 71
3
 72
8
 73
4
 74
0
 40
0
 40
0
 40
0
 40
0
 40
1
 40
1
 40
1
 40
1
 10
500.494987
 20
-28.335926
 30
0.0
 10
500.112210
 20
-28.302437
 30
0.0
 10
499.746950
 20
-28.502826
 30
0.0
 10
499.569528
 20
-28.843650
 30
0.0
  0
SPLINE
  5
189
100
AcDbEntity
  8
Layer_1
 62
1
100
AcDbSpline
 70
8
 71
3
 72
8
 73
4
 74
0
 40
0
 40
0
 40
0
 40
0
 40
1
 40
1
 40
1
 40
1
 10
499.569528
 20
-28.843650
 30
0.0
 10
499.392106
 20
-29.184474
 30
0.0
 10
499.437462
 20
-29.598615
 30
0.0
 10
499.684446
 20
-29.892960
 30
0.0
  0
SPLINE
  5
18a
100
AcDbEntity
  8
Layer_1
 62
1
100
AcDbSpline
 70
8
 71
3
 72
8
 73
4
 74
0
 40
0
 40
0
 40
0
 40
0
 40
1
 40
1
 40
1
 40
1
 10
499.684446
 20
-29.892960
 30
0.0
 10
499.931431
 20
-30.187304
 30
0.0
 10
500.331404
 20
-30.303886
 30
0.0
 10
500.697859
 20
-30.188343
 30
0.0
  0
SPLINE
  5
18b
100
AcDbEntity
  8
Layer_1
 62
1
100
AcDbSpline
 70
8
 71
3
 72
8
 73
4
 74
0
 40
0
 40
0
 40
0
 40
0
 40
1
 40
1
 40
1
 40
1
 10
500.697859
 20
-30.188343
 30
0.0
 10
501.064315
 20
-30.072800
 30
0.0
 10
501.325085
 20
-29.747886
 30
0.0
 10
501.358574
 20
-29.365109
 30
0.0
  0
SPLINE
  5
18c
100
AcDbEntity
  8
Layer_1
 62
1
100
AcDbSpline
 70
8
 71
3
 72
8
 73
4
 74
0
 40
0
 40
0
 40
0
 40
0
 40
1
 40
1
 40
1
 40
1
 10
501.358574
 20
-29.365109
 30
0.0
 10
501.380533
 20
-29.114112
 30
0.0
 10
501.301885
 20
-28.864672
 30
0.0
 10
501.139931
 20
-28.671663
 30
0.0
  0
SPLINE
  5
18d
100
AcDbEntity
  8
Layer_1
 62
1
100
AcDbSpline
 70
8
 71
3
 72
8
 73
4
 74
0
 40
0
 40
0
 40
0
 40
0
 40
1
 40
1
 40
1
 40
1
 10
501.139931
 20
-28.671663
 30
0.0
 10
500.977977
 20
-28.478654
 30
0.0
 10
500.745984
 20
-28.357885
 30
0.0
 10
500.494987
 20
-28.335926
 30
0.0
  0
LINE
  5
18e
100
AcDbEntity
  8
Layer_1
 62
1
100
AcDbLine
 10
500.494987
 20
-28.335926
 30
0.0
 11
500.494987
 21
-28.335926
 31
0.0
  0
SPLINE
  5
18f
100
AcDbEntity
  8
Layer_1
 62
1
100
AcDbSpline
 70
8
 71
3
 72
8
 73
4
 74
0
 40
0
 40
0
 40
0
 40
0
 40
1
 40
1
 40
1
 40
1
 10
698.167090
 20
-70.896895
 30
0.0
 10
698.549867
 20
-70.863406
 30
0.0
 10
698.915126
 20
-71.063795
 30
0.0
 10
699.092548
 20
-71.404619
 30
0.0
  0
SPLINE
  5
190
100
AcDbEntity
  8
Layer_1
 62
1
100
AcDbSpline
 70
8
 71
3
 72
8
 73
4
 74
0
 40
0
 40
0
 40
0
 40
0
 40
1
 40
1
 40
1
 40
1
 10
699.092548
 20
-71.404619
 30
0.0
 10
699.269970
 20
-71.745443
 30
0.0
 10
699.224614
 20
-72.159584
 30
0.0
 10
698.977630
 20
-72.453929
 30
0.0
  0
SPLINE
  5
191
100
AcDbEntity
  8
Layer_1
 62
1
100
AcDbSpline
 70
8
 71
3
 72
8
 73
4
 74
0
 40
0
 40
0
 40
0
 40
0
 40
1
 40
1
 40
1
 40
1
 10
698.977630
 20
-72.453929
 30
0.0
 10
698.730646
 20
-72.748273
 30
0.0
 10
698.330673
 20
-72.864855
 30
0.0
 10
697.964217
 20
-72.749312
 30
0.0
  0
SPLINE
  5
192
100
AcDbEntity
  8
Layer_1
 62
1
100
AcDbSpline
 70
8
 71
3
 72
8
 73
4
 74
0
 40
0
 40
0
 40
0
 40
0
 40
1
 40
1
 40
1
 40
1
 10
697.964217
 20
-72.749312
 30
0.0
 10
697.597762
 20
-72.633769
 30
0.0
 10
697.336991
 20
-72.308855
 30
0.0
 10
697.303502
 20
-71.926078
 30
0.0
  0
SPLINE
  5
193
100
AcDbEntity
  8
Layer_1
 62
1
100
AcDbSpline
 70
8
 71
3
 72
8
 73
4
 74
0
 40
0
 40
0
 40
0
 40
0
 40
1
 40
1
 40
1
 40
1
 10
697.303502
 20
-71.926078
 30
0.0
 10
697.257774
 20
-71.403404
 30
0.0
 10
697.644416
 20
-70.942623
 30
0.0
 10
698.167090
 20
-70.896895
 30
0.0
  0
LINE
  5
194
100
AcDbEntity
  8
Layer_1
 62
1
100
AcDbLine
 10
698.167090
 20
-70.896895
 30
0.0
 11
698.167090
 21
-70.896895
 31
0.0
  0
SPLINE
  5
195
100
AcDbEntity
  8
Layer_1
 62
1
100
AcDbSpline
 70
8
 71
3
 72
8
 73
4
 74
0
 40
0
 40
0
 40
0
 40
0
 40
1
 40
1
 40
1
 40
1
 10
690.424747
 20
17.598564
 30
0.0
 10
690.807524
 20
17.632052
 30
0.0
 10
691.172783
 20
17.431664
 30
0.0
 10
691.350205
 20
17.090840
 30
0.0
  0
SPLINE
  5
196
100
AcDbEntity
  8
Layer_1
 62
1
100
AcDbSpline
 70
8
 71
3
 72
8
 73
4
 74
0
 40
0
 40
0
 40
0
 40
0
 40
1
 40
1
 40
1
 40
1
 10
691.350205
 20
17.090840
 30
0.0
 10
691.527627
 20
16.750015
 30
0.0
 10
691.482271
 20
16.335874
 30
0.0
 10
691.235287
 20
16.041530
 30
0.0
  0
SPLINE
  5
197
100
AcDbEntity
  8
Layer_1
 62
1
100
AcDbSpline
 70
8
 71
3
 72
8
 73
4
 74
0
 40
0
 40
0
 40
0
 40
0
 40
1
 40
1
 40
1
 40
1
 10
691.235287
 20
16.041530
 30
0.0
 10
690.988303
 20
15.747186
 30
0.0
 10
690.588329
 20
15.630604
 30
0.0
 10
690.221874
 20
15.746147
 30
0.0
  0
SPLINE
  5
198
100
AcDbEntity
  8
Layer_1
 62
1
100
AcDbSpline
 70
8
 71
3
 72
8
 73
4
 74
0
 40
0
 40
0
 40
0
 40
0
 40
1
 40
1
 40
1
 40
1
 10
690.221874
 20
15.746147
 30
0.0
 10
689.855418
 20
15.861690
 30
0.0
 10
689.594648
 20
16.186603
 30
0.0
 10
689.561159
 20
16.569381
 30
0.0
  0
SPLINE
  5
199
100
AcDbEntity
  8
Layer_1
 62
1
100
AcDbSpline
 70
8
 71
3
 72
8
 73
4
 74
0
 40
0
 40
0
 40
0
 40
0
 40
1
 40
1
 40
1
 40
1
 10
689.561159
 20
16.569381
 30
0.0
 10
689.515431
 20
17.092055
 30
0.0
 10
689.902072
 20
17.552836
 30
0.0
 10
690.424747
 20
17.598564
 30
0.0
  0
LINE
  5
19a
100
AcDbEntity
  8
Layer_1
 62
1
100
AcDbLine
 10
690.424747
 20
17.598564
 30
0.0
 11
690.424747
 21
17.598564
 31
0.0
  0
SPLINE
  5
19b
100
AcDbEntity
  8
Layer_1
 62
1
100
AcDbSpline
 70
8
 71
3
 72
8
 73
4
 74
0
 40
0
 40
0
 40
0
 40
0
 40
1
 40
1
 40
1
 40
1
 10
561.955640
 20
14.914461
 30
0.0
 10
562.338417
 20
14.947949
 30
0.0
 10
562.703677
 20
14.747561
 30
0.0
 10
562.881099
 20
14.406737
 30
0.0
  0
SPLINE
  5
19c
100
AcDbEntity
  8
Layer_1
 62
1
100
AcDbSpline
 70
8
 71
3
 72
8
 73
4
 74
0
 40
0
 40
0
 40
0
 40
0
 40
1
 40
1
 40
1
 40
1
 10
562.881099
 20
14.406737
 30
0.0
 10
563.058521
 20
14.065912
 30
0.0
 10
563.013165
 20
13.651771
 30
0.0
 10
562.766181
 20
13.357427
 30
0.0
  0
SPLINE
  5
19d
100
AcDbEntity
  8
Layer_1
 62
1
100
AcDbSpline
 70
8
 71
3
 72
8
 73
4
 74
0
 40
0
 40
0
 40
0
 40
0
 40
1
 40
1
 40
1
 40
1
 10
562.766181
 20
13.357427
 30
0.0
 10
562.519196
 20
13.063083
 30
0.0
 10
562.119223
 20
12.946501
 30
0.0
 10
561.752768
 20
13.062044
 30
0.0
  0
SPLINE
  5
19e
100
AcDbEntity
  8
Layer_1
 62
1
100
AcDbSpline
 70
8
 71
3
 72
8
 73
4
 74
0
 40
0
 40
0
 40
0
 40
0
 40
1
 40
1
 40
1
 40
1
 10
561.752768
 20
13.062044
 30
0.0
 10
561.386312
 20
13.177587
 30
0.0
 10
561.125542
 20
13.502501
 30
0.0
 10
561.092053
 20
13.885278
 30
0.0
  0
SPLINE
  5
19f
100
AcDbEntity
  8
Layer_1
 62
1
100
AcDbSpline
 70
8
 71
3
 72
8
 73
4
 74
0
 40
0
 40
0
 40
0
 40
0
 40
1
 40
1
 40
1
 40
1
 10
561.092053
 20
13.885278
 30
0.0
 10
561.070094
 20
14.136275
 30
0.0
 10
561.148742
 20
14.385715
 30
0.0
 10
561.310696
 20
14.578724
 30
0.0
  0
SPLINE
  5
1a0
100
AcDbEntity
  8
Layer_1
 62
1
100
AcDbSpline
 70
8
 71
3
 72
8
 73
4
 74
0
 40
0
 40
0
 40
0
 40
0
 40
1
 40
1
 40
1
 40
1
 10
561.310696
 20
14.578724
 30
0.0
 10
561.472650
 20
14.771733
 30
0.0
 10
561.704643
 20
14.892501
 30
0.0
 10
561.955640
 20
14.914461
 30
0.0
  0
LINE
  5
1a1
100
AcDbEntity
  8
Layer_1
 62
1
100
AcDbLine
 10
561.955640
 20
14.914461
 30
0.0
 11
561.955640
 21
14.914461
 31
0.0
  0
SPLINE
  5
1a2
100
AcDbEntity
  8
Layer_1
 62
1
100
AcDbSpline
 70
8
 71
3
 72
8
 73
4
 74
0
 40
0
 40
0
 40
0
 40
0
 40
1
 40
1
 40
1
 40
1
 10
570.438991
 20
-82.050757
 30
0.0
 10
570.821768
 20
-82.017269
 30
0.0
 10
571.187027
 20
-82.217657
 30
0.0
 10
571.364449
 20
-82.558481
 30
0.0
  0
SPLINE
  5
1a3
100
AcDbEntity
  8
Layer_1
 62
1
100
AcDbSpline
 70
8
 71
3
 72
8
 73
4
 74
0
 40
0
 40
0
 40
0
 40
0
 40
1
 40
1
 40
1
 40
1
 10
571.364449
 20
-82.558481
 30
0.0
 10
571.541871
 20
-82.899306
 30
0.0
 10
571.496515
 20
-83.313447
 30
0.0
 10
571.249531
 20
-83.607791
 30
0.0
  0
SPLINE
  5
1a4
100
AcDbEntity
  8
Layer_1
 62
1
100
AcDbSpline
 70
8
 71
3
 72
8
 73
4
 74
0
 40
0
 40
0
 40
0
 40
0
 40
1
 40
1
 40
1
 40
1
 10
571.249531
 20
-83.607791
 30
0.0
 10
571.002547
 20
-83.902135
 30
0.0
 10
570.602574
 20
-84.018717
 30
0.0
 10
570.236118
 20
-83.903174
 30
0.0
  0
SPLINE
  5
1a5
100
AcDbEntity
  8
Layer_1
 62
1
100
AcDbSpline
 70
8
 71
3
 72
8
 73
4
 74
0
 40
0
 40
0
 40
0
 40
0
 40
1
 40
1
 40
1
 40
1
 10
570.236118
 20
-83.903174
 30
0.0
 10
569.869663
 20
-83.787631
 30
0.0
 10
569.608892
 20
-83.462718
 30
0.0
 10
569.575404
 20
-83.079940
 30
0.0
  0
SPLINE
  5
1a6
100
AcDbEntity
  8
Layer_1
 62
1
100
AcDbSpline
 70
8
 71
3
 72
8
 73
4
 74
0
 40
0
 40
0
 40
0
 40
0
 40
1
 40
1
 40
1
 40
1
 10
569.575404
 20
-83.079940
 30
0.0
 10
569.553444
 20
-82.828943
 30
0.0
 10
569.632092
 20
-82.579503
 30
0.0
 10
569.794046
 20
-82.386494
 30
0.0
  0
SPLINE
  5
1a7
100
AcDbEntity
  8
Layer_1
 62
1
100
AcDbSpline
 70
8
 71
3
 72
8
 73
4
 74
0
 40
0
 40
0
 40
0
 40
0
 40
1
 40
1
 40
1
 40
1
 10
569.794046
 20
-82.386494
 30
0.0
 10
569.956000
 20
-82.193485
 30
0.0
 10
570.187994
 20
-82.072717
 30
0.0
 10
570.438991
 20
-82.050757
 30
0.0
  0
LINE
  5
1a8
100
AcDbEntity
  8
Layer_1
 62
1
100
AcDbLine
 10
570.438991
 20
-82.050757
 30
0.0
 11
570.438991
 21
-82.050757
 31
0.0
  0
SPLINE
  5
1a9
100
AcDbEntity
  8
Layer_1
 62
1
100
AcDbSpline
 70
8
 71
3
 72
8
 73
4
 74
0
 40
0
 40
0
 40
0
 40
0
 40
1
 40
1
 40
1
 40
1
 10
565.739713
 20
-28.337726
 30
0.0
 10
566.122490
 20
-28.304237
 30
0.0
 10
566.487750
 20
-28.504626
 30
0.0
 10
566.665172
 20
-28.845450
 30
0.0
  0
SPLINE
  5
1aa
100
AcDbEntity
  8
Layer_1
 62
1
100
AcDbSpline
 70
8
 71
3
 72
8
 73
4
 74
0
 40
0
 40
0
 40
0
 40
0
 40
1
 40
1
 40
1
 40
1
 10
566.665172
 20
-28.845450
 30
0.0
 10
566.842594
 20
-29.186274
 30
0.0
 10
566.797238
 20
-29.600415
 30
0.0
 10
566.550254
 20
-29.894760
 30
0.0
  0
SPLINE
  5
1ab
100
AcDbEntity
  8
Layer_1
 62
1
100
AcDbSpline
 70
8
 71
3
 72
8
 73
4
 74
0
 40
0
 40
0
 40
0
 40
0
 40
1
 40
1
 40
1
 40
1
 10
566.550254
 20
-29.894760
 30
0.0
 10
566.303269
 20
-30.189104
 30
0.0
 10
565.903296
 20
-30.305686
 30
0.0
 10
565.536841
 20
-30.190143
 30
0.0
  0
SPLINE
  5
1ac
100
AcDbEntity
  8
Layer_1
 62
1
100
AcDbSpline
 70
8
 71
3
 72
8
 73
4
 74
0
 40
0
 40
0
 40
0
 40
0
 40
1
 40
1
 40
1
 40
1
 10
565.536841
 20
-30.190143
 30
0.0
 10
565.170385
 20
-30.074600
 30
0.0
 10
564.909615
 20
-29.749686
 30
0.0
 10
564.876126
 20
-29.366909
 30
0.0
  0
SPLINE
  5
1ad
100
AcDbEntity
  8
Layer_1
 62
1
100
AcDbSpline
 70
8
 71
3
 72
8
 73
4
 74
0
 40
0
 40
0
 40
0
 40
0
 40
1
 40
1
 40
1
 40
1
 10
564.876126
 20
-29.366909
 30
0.0
 10
564.854167
 20
-29.115912
 30
0.0
 10
564.932815
 20
-28.866472
 30
0.0
 10
565.094769
 20
-28.673463
 30
0.0
  0
SPLINE
  5
1ae
100
AcDbEntity
  8
Layer_1
 62
1
100
AcDbSpline
 70
8
 71
3
 72
8
 73
4
 74
0
 40
0
 40
0
 40
0
 40
0
 40
1
 40
1
 40
1
 40
1
 10
565.094769
 20
-28.673463
 30
0.0
 10
565.256723
 20
-28.480454
 30
0.0
 10
565.488716
 20
-28.359685
 30
0.0
 10
565.739713
 20
-28.337726
 30
0.0
  0
LINE
  5
1af
100
AcDbEntity
  8
Layer_1
 62
1
100
AcDbLine
 10
565.739713
 20
-28.337726
 30
0.0
 11
565.739713
 21
-28.337726
 31
0.0
  0
LINE
  5
1b0
100
AcDbEntity
  8
Layer_1
 62
1
100
AcDbLine
 10
372.142931
 20
-66.398489
 30
0.0
 11
368.280475
 21
-66.060568
 31
0.0
  0
SPLINE
  5
1b1
100
AcDbEntity
  8
Layer_1
 62
1
100
AcDbSpline
 70
8
 71
3
 72
8
 73
4
 74
0
 40
0
 40
0
 40
0
 40
0
 40
1
 40
1
 40
1
 40
1
 10
368.280475
 20
-66.060568
 30
0.0
 10
367.989337
 20
-66.035096
 30
0.0
 10
367.773948
 20
-65.778427
 30
0.0
 10
367.799399
 20
-65.487288
 30
0.0
  0
SPLINE
  5
1b2
100
AcDbEntity
  8
Layer_1
 62
1
100
AcDbSpline
 70
8
 71
3
 72
8
 73
4
 74
0
 40
0
 40
0
 40
0
 40
0
 40
1
 40
1
 40
1
 40
1
 10
367.799399
 20
-65.487288
 30
0.0
 10
370.011454
 20
-40.180441
 30
0.0
 10
372.227161
 20
-14.880609
 30
0.0
 10
374.438969
 20
10.426290
 30
0.0
  0
SPLINE
  5
1b3
100
AcDbEntity
  8
Layer_1
 62
1
100
AcDbSpline
 70
8
 71
3
 72
8
 73
4
 74
0
 40
0
 40
0
 40
0
 40
0
 40
1
 40
1
 40
1
 40
1
 10
374.438969
 20
10.426290
 30
0.0
 10
374.464410
 20
10.717430
 30
0.0
 10
374.721058
 20
10.932802
 30
0.0
 10
375.012196
 20
10.907330
 30
0.0
  0
LINE
  5
1b4
100
AcDbEntity
  8
Layer_1
 62
1
100
AcDbLine
 10
375.012196
 20
10.907330
 30
0.0
 11
378.855186
 21
10.571112
 31
0.0
  0
SPLINE
  5
1b5
100
AcDbEntity
  8
Layer_1
 62
1
100
AcDbSpline
 70
8
 71
3
 72
8
 73
4
 74
0
 40
0
 40
0
 40
0
 40
0
 40
1
 40
1
 40
1
 40
1
 10
378.855186
 20
10.571112
 30
0.0
 10
379.206624
 20
10.540365
 30
0.0
 10
379.558060
 20
10.509608
 30
0.0
 10
379.909496
 20
10.478842
 30
0.0
  0
LINE
  5
1b6
100
AcDbEntity
  8
Layer_1
 62
1
100
AcDbLine
 10
379.909496
 20
10.478842
 30
0.0
 11
415.183082
 21
7.390795
 31
0.0
  0
SPLINE
  5
1b7
100
AcDbEntity
  8
Layer_1
 62
1
100
AcDbSpline
 70
8
 71
3
 72
8
 73
4
 74
0
 40
0
 40
0
 40
0
 40
0
 40
1
 40
1
 40
1
 40
1
 10
415.183082
 20
7.390795
 30
0.0
 10
415.474218
 20
7.365304
 30
0.0
 10
415.946261
 20
7.324076
 30
0.0
 10
416.237407
 20
7.298695
 30
0.0
  0
SPLINE
  5
1b8
100
AcDbEntity
  8
Layer_1
 62
1
100
AcDbSpline
 70
8
 71
3
 72
8
 73
4
 74
0
 40
0
 40
0
 40
0
 40
0
 40
1
 40
1
 40
1
 40
1
 10
416.237407
 20
7.298695
 30
0.0
 10
427.503963
 20
6.316010
 30
0.0
 10
438.769406
 20
5.320373
 30
0.0
 10
450.037399
 20
4.354227
 30
0.0
  0
SPLINE
  5
1b9
100
AcDbEntity
  8
Layer_1
 62
1
100
AcDbSpline
 70
8
 71
3
 72
8
 73
4
 74
0
 40
0
 40
0
 40
0
 40
0
 40
1
 40
1
 40
1
 40
1
 10
450.037399
 20
4.354227
 30
0.0
 10
450.328580
 20
4.329253
 30
0.0
 10
450.800637
 20
4.288295
 30
0.0
 10
451.091767
 20
4.262734
 30
0.0
  0
LINE
  5
1ba
100
AcDbEntity
  8
Layer_1
 62
1
100
AcDbLine
 10
451.091767
 20
4.262734
 30
0.0
 11
486.364493
 21
1.165327
 31
0.0
  0
SPLINE
  5
1bb
100
AcDbEntity
  8
Layer_1
 62
1
100
AcDbSpline
 70
8
 71
3
 72
8
 73
4
 74
0
 40
0
 40
0
 40
0
 40
0
 40
1
 40
1
 40
1
 40
1
 10
486.364493
 20
1.165327
 30
0.0
 10
486.715921
 20
1.134467
 30
0.0
 10
487.067354
 20
1.103664
 30
0.0
 10
487.418791
 20
1.072917
 30
0.0
  0
LINE
  5
1bc
100
AcDbEntity
  8
Layer_1
 62
1
100
AcDbLine
 10
487.418791
 20
1.072917
 30
0.0
 11
488.880259
 21
0.945055
 31
0.0
  0
SPLINE
  5
1bd
100
AcDbEntity
  8
Layer_1
 62
1
100
AcDbSpline
 70
8
 71
3
 72
8
 73
4
 74
0
 40
0
 40
0
 40
0
 40
0
 40
1
 40
1
 40
1
 40
1
 10
488.880259
 20
0.945055
 30
0.0
 10
489.020070
 20
0.932824
 30
0.0
 10
489.149295
 20
0.865554
 30
0.0
 10
489.239507
 20
0.758044
 30
0.0
  0
SPLINE
  5
1be
100
AcDbEntity
  8
Layer_1
 62
1
100
AcDbSpline
 70
8
 71
3
 72
8
 73
4
 74
0
 40
0
 40
0
 40
0
 40
0
 40
1
 40
1
 40
1
 40
1
 10
489.239507
 20
0.758044
 30
0.0
 10
489.329719
 20
0.650533
 30
0.0
 10
489.373528
 20
0.511589
 30
0.0
 10
489.361295
 20
0.371779
 30
0.0
  0
LINE
  5
1bf
100
AcDbEntity
  8
Layer_1
 62
1
100
AcDbLine
 10
489.361295
 20
0.371779
 30
0.0
 11
487.793150
 21
-17.552195
 31
0.0
  0
SPLINE
  5
1c0
100
AcDbEntity
  8
Layer_1
 62
1
100
AcDbSpline
 70
8
 71
3
 72
8
 73
4
 74
0
 40
0
 40
0
 40
0
 40
0
 40
1
 40
1
 40
1
 40
1
 10
487.793150
 20
-17.552195
 30
0.0
 10
487.780918
 20
-17.692005
 30
0.0
 10
487.824726
 20
-17.830949
 30
0.0
 10
487.914938
 20
-17.938460
 30
0.0
  0
SPLINE
  5
1c1
100
AcDbEntity
  8
Layer_1
 62
1
100
AcDbSpline
 70
8
 71
3
 72
8
 73
4
 74
0
 40
0
 40
0
 40
0
 40
0
 40
1
 40
1
 40
1
 40
1
 10
487.914938
 20
-17.938460
 30
0.0
 10
488.005150
 20
-18.045970
 30
0.0
 10
488.134376
 20
-18.113240
 30
0.0
 10
488.274186
 20
-18.125471
 30
0.0
  0
LINE
  5
1c2
100
AcDbEntity
  8
Layer_1
 62
1
100
AcDbLine
 10
488.274186
 20
-18.125471
 30
0.0
 11
491.965417
 21
-18.448412
 31
0.0
  0
SPLINE
  5
1c3
100
AcDbEntity
  8
Layer_1
 62
1
100
AcDbSpline
 70
8
 71
3
 72
8
 73
4
 74
0
 40
0
 40
0
 40
0
 40
0
 40
1
 40
1
 40
1
 40
1
 10
491.965417
 20
-18.448412
 30
0.0
 10
492.105227
 20
-18.460643
 30
0.0
 10
492.234453
 20
-18.527913
 30
0.0
 10
492.324665
 20
-18.635423
 30
0.0
  0
SPLINE
  5
1c4
100
AcDbEntity
  8
Layer_1
 62
1
100
AcDbSpline
 70
8
 71
3
 72
8
 73
4
 74
0
 40
0
 40
0
 40
0
 40
0
 40
1
 40
1
 40
1
 40
1
 10
492.324665
 20
-18.635423
 30
0.0
 10
492.414877
 20
-18.742934
 30
0.0
 10
492.458685
 20
-18.881878
 30
0.0
 10
492.446453
 20
-19.021688
 30
0.0
  0
LINE
  5
1c5
100
AcDbEntity
  8
Layer_1
 62
1
100
AcDbLine
 10
492.446453
 20
-19.021688
 30
0.0
 11
490.878308
 21
-36.945662
 31
0.0
  0
SPLINE
  5
1c6
100
AcDbEntity
  8
Layer_1
 62
1
100
AcDbSpline
 70
8
 71
3
 72
8
 73
4
 74
0
 40
0
 40
0
 40
0
 40
0
 40
1
 40
1
 40
1
 40
1
 10
490.878308
 20
-36.945662
 30
0.0
 10
490.866075
 20
-37.085473
 30
0.0
 10
490.909884
 20
-37.224416
 30
0.0
 10
491.000096
 20
-37.331927
 30
0.0
  0
SPLINE
  5
1c7
100
AcDbEntity
  8
Layer_1
 62
1
100
AcDbSpline
 70
8
 71
3
 72
8
 73
4
 74
0
 40
0
 40
0
 40
0
 40
0
 40
1
 40
1
 40
1
 40
1
 10
491.000096
 20
-37.331927
 30
0.0
 10
491.090308
 20
-37.439437
 30
0.0
 10
491.219533
 20
-37.506707
 30
0.0
 10
491.359344
 20
-37.518938
 30
0.0
  0
LINE
  5
1c8
100
AcDbEntity
  8
Layer_1
 62
1
100
AcDbLine
 10
491.359344
 20
-37.518938
 30
0.0
 11
499.792232
 21
-38.256720
 31
0.0
  0
SPLINE
  5
1c9
100
AcDbEntity
  8
Layer_1
 62
1
100
AcDbSpline
 70
8
 71
3
 72
8
 73
4
 74
0
 40
0
 40
0
 40
0
 40
0
 40
1
 40
1
 40
1
 40
1
 10
499.792232
 20
-38.256720
 30
0.0
 10
499.932043
 20
-38.268951
 30
0.0
 10
500.061269
 20
-38.336222
 30
0.0
 10
500.151481
 20
-38.443732
 30
0.0
  0
SPLINE
  5
1ca
100
AcDbEntity
  8
Layer_1
 62
1
100
AcDbSpline
 70
8
 71
3
 72
8
 73
4
 74
0
 40
0
 40
0
 40
0
 40
0
 40
1
 40
1
 40
1
 40
1
 10
500.151481
 20
-38.443732
 30
0.0
 10
500.241693
 20
-38.551242
 30
0.0
 10
500.285501
 20
-38.690186
 30
0.0
 10
500.273268
 20
-38.829997
 30
0.0
  0
LINE
  5
1cb
100
AcDbEntity
  8
Layer_1
 62
1
100
AcDbLine
 10
500.273268
 20
-38.829997
 30
0.0
 11
498.612862
 21
-57.808532
 31
0.0
  0
SPLINE
  5
1cc
100
AcDbEntity
  8
Layer_1
 62
1
100
AcDbSpline
 70
8
 71
3
 72
8
 73
4
 74
0
 40
0
 40
0
 40
0
 40
0
 40
1
 40
1
 40
1
 40
1
 10
498.612862
 20
-57.808532
 30
0.0
 10
498.600631
 20
-57.948343
 30
0.0
 10
498.533360
 20
-58.077569
 30
0.0
 10
498.425850
 20
-58.167781
 30
0.0
  0
SPLINE
  5
1cd
100
AcDbEntity
  8
Layer_1
 62
1
100
AcDbSpline
 70
8
 71
3
 72
8
 73
4
 74
0
 40
0
 40
0
 40
0
 40
0
 40
1
 40
1
 40
1
 40
1
 10
498.425850
 20
-58.167781
 30
0.0
 10
498.318340
 20
-58.257993
 30
0.0
 10
498.179396
 20
-58.301801
 30
0.0
 10
498.039585
 20
-58.289568
 30
0.0
  0
LINE
  5
1ce
100
AcDbEntity
  8
Layer_1
 62
1
100
AcDbLine
 10
498.039585
 20
-58.289568
 30
0.0
 11
489.606697
 21
-57.551786
 31
0.0
  0
SPLINE
  5
1cf
100
AcDbEntity
  8
Layer_1
 62
1
100
AcDbSpline
 70
8
 71
3
 72
8
 73
4
 74
0
 40
0
 40
0
 40
0
 40
0
 40
1
 40
1
 40
1
 40
1
 10
489.606697
 20
-57.551786
 30
0.0
 10
489.466887
 20
-57.539553
 30
0.0
 10
489.327943
 20
-57.583362
 30
0.0
 10
489.220432
 20
-57.673574
 30
0.0
  0
SPLINE
  5
1d0
100
AcDbEntity
  8
Layer_1
 62
1
100
AcDbSpline
 70
8
 71
3
 72
8
 73
4
 74
0
 40
0
 40
0
 40
0
 40
0
 40
1
 40
1
 40
1
 40
1
 10
489.220432
 20
-57.673574
 30
0.0
 10
489.112922
 20
-57.763786
 30
0.0
 10
489.045652
 20
-57.893011
 30
0.0
 10
489.033421
 20
-58.032822
 30
0.0
  0
LINE
  5
1d1
100
AcDbEntity
  8
Layer_1
 62
1
100
AcDbLine
 10
489.033421
 20
-58.032822
 30
0.0
 11
487.465275
 21
-75.956806
 31
0.0
  0
SPLINE
  5
1d2
100
AcDbEntity
  8
Layer_1
 62
1
100
AcDbSpline
 70
8
 71
3
 72
8
 73
4
 74
0
 40
0
 40
0
 40
0
 40
0
 40
1
 40
1
 40
1
 40
1
 10
487.465275
 20
-75.956806
 30
0.0
 10
487.453044
 20
-76.096616
 30
0.0
 10
487.385774
 20
-76.225842
 30
0.0
 10
487.278264
 20
-76.316054
 30
0.0
  0
SPLINE
  5
1d3
100
AcDbEntity
  8
Layer_1
 62
1
100
AcDbSpline
 70
8
 71
3
 72
8
 73
4
 74
0
 40
0
 40
0
 40
0
 40
0
 40
1
 40
1
 40
1
 40
1
 10
487.278264
 20
-76.316054
 30
0.0
 10
487.170753
 20
-76.406266
 30
0.0
 10
487.031810
 20
-76.450074
 30
0.0
 10
486.891999
 20
-76.437842
 30
0.0
  0
LINE
  5
1d4
100
AcDbEntity
  8
Layer_1
 62
1
100
AcDbLine
 10
486.891999
 20
-76.437842
 30
0.0
 11
482.963395
 21
-76.094133
 31
0.0
  0
SPLINE
  5
1d5
100
AcDbEntity
  8
Layer_1
 62
1
100
AcDbSpline
 70
8
 71
3
 72
8
 73
4
 74
0
 40
0
 40
0
 40
0
 40
0
 40
1
 40
1
 40
1
 40
1
 10
482.963395
 20
-76.094133
 30
0.0
 10
482.611958
 20
-76.063387
 30
0.0
 10
482.260515
 20
-76.032696
 30
0.0
 10
481.909068
 20
-76.002062
 30
0.0
  0
LINE
  5
1d6
100
AcDbEntity
  8
Layer_1
 62
1
100
AcDbLine
 10
481.909068
 20
-76.002062
 30
0.0
 11
446.634354
 21
-72.927368
 31
0.0
  0
SPLINE
  5
1d7
100
AcDbEntity
  8
Layer_1
 62
1
100
AcDbSpline
 70
8
 71
3
 72
8
 73
4
 74
0
 40
0
 40
0
 40
0
 40
0
 40
1
 40
1
 40
1
 40
1
 10
446.634354
 20
-72.927368
 30
0.0
 10
446.343208
 20
-72.901987
 30
0.0
 10
445.871199
 20
-72.860370
 30
0.0
 10
445.580103
 20
-72.834431
 30
0.0
  0
SPLINE
  5
1d8
100
AcDbEntity
  8
Layer_1
 62
1
100
AcDbSpline
 70
8
 71
3
 72
8
 73
4
 74
0
 40
0
 40
0
 40
0
 40
0
 40
1
 40
1
 40
1
 40
1
 10
445.580103
 20
-72.834431
 30
0.0
 10
433.563181
 20
-71.763512
 30
0.0
 10
421.543538
 20
-70.723473
 30
0.0
 10
409.525143
 20
-69.669290
 30
0.0
  0
SPLINE
  5
1d9
100
AcDbEntity
  8
Layer_1
 62
1
100
AcDbSpline
 70
8
 71
3
 72
8
 73
4
 74
0
 40
0
 40
0
 40
0
 40
0
 40
1
 40
1
 40
1
 40
1
 10
409.525143
 20
-69.669290
 30
0.0
 10
409.234012
 20
-69.643739
 30
0.0
 10
408.761991
 20
-69.602372
 30
0.0
 10
408.470853
 20
-69.576901
 30
0.0
  0
LINE
  5
1da
100
AcDbEntity
  8
Layer_1
 62
1
100
AcDbLine
 10
408.470853
 20
-69.576901
 30
0.0
 11
373.197143
 21
-66.490851
 31
0.0
  0
LINE
  5
1db
100
AcDbEntity
  8
Layer_1
 62
1
100
AcDbLine
 10
373.197143
 20
-66.490851
 30
0.0
 11
372.142931
 21
-66.398489
 31
0.0
  0
ENDSEC
  0
SECTION
  2
OBJECTS
  0
DICTIONARY
  5
C
330
0
100
AcDbDictionary
  3
ACAD_GROUP
350
D
  3
ACAD_MLINESTYLE
350
17
  0
DICTIONARY
  5
D
330
C
100
AcDbDictionary
  0
DICTIONARY
  5
1A
330
C
100
AcDbDictionary
  0
DICTIONARY
  5
17
330
C
100
AcDbDictionary
  3
STANDARD
350
18
  0
DICTIONARY
  5
19
330
C
100
AcDbDictionary
  0
ENDSEC
  0
EOF
