  0
SECTION
  2
HEADER
  9
$ACADVER
  1
AC1014
  9
$HANDSEED
  5
FFFF
  9
$INSUNITS
 70
     0
  9
$MEASUREMENT
 70
     1
  0
ENDSEC
  0
SECTION
  2
TABLES
  0
TABLE
  2
VPORT
  5
8
330
0
100
AcDbSymbolTable
 70
     4
  0
VPORT
  5
2E
330
8
100
AcDbSymbolTableRecord
100
AcDbViewportTableRecord
  2
*ACTIVE
 70
     0
 10
0.0
 20
0.0
 11
1.0
 21
1.0
 12
210.0
 22
148.5
 13
0.0
 23
0.0
 14
10.0
 24
10.0
 15
10.0
 25
10.0
 16
0.0
 26
0.0
 36
1.0
 17
0.0
 27
0.0
 37
0.0
 40
341.0
 41
1.24
 42
50.0
 43
0.0
 44
0.0
 50
0.0
 51
0.0
 71
     0
 72
   100
 73
     1
 74
     3
 75
     0
 76
     0
 77
     0
 78
     0
  0
ENDTAB
  0
TABLE
  2
LTYPE
  5
5
330
0
100
AcDbSymbolTable
 70
     1
  0
LTYPE
  5
14
330
5
100
AcDbSymbolTableRecord
100
AcDbLinetypeTableRecord
  2
BYBLOCK
 70
     0
  3

 72
    65
 73
     0
 40
0.0
  0
LTYPE
  5
15
330
5
100
AcDbSymbolTableRecord
100
AcDbLinetypeTableRecord
  2
BYLAYER
 70
     0
  3

 72
    65
 73
     0
 40
0.0
  0
LTYPE
  5
16
330
5
100
AcDbSymbolTableRecord
100
AcDbLinetypeTableRecord
  2
CONTINUOUS
 70
     0
  3
Solid line
 72
    65
 73
     0
 40
0.0
  0
ENDTAB
  0
TABLE
  2
LAYER
  5
2
100
AcDbSymbolTable
 70
2
  0
LAYER
  5
50
100
AcDbSymbolTableRecord
100
AcDbLayerTableRecord
  2
0
 70
0
  6
CONTINUOUS
  0
LAYER
  5
51
100
AcDbSymbolTableRecord
100
AcDbLayerTableRecord
  2
Layer_1
 70
0
  6
CONTINUOUS
  0
ENDTAB
  0
TABLE
  2
STYLE
  5
3
330
0
100
AcDbSymbolTable
 70
     1
  0
STYLE
  5
11
330
3
100
AcDbSymbolTableRecord
100
AcDbTextStyleTableRecord
  2
STANDARD
 70
     0
 40
0.0
 41
1.0
 50
0.0
 71
     0
 42
2.5
  3
txt
  4

  0
ENDTAB
  0
TABLE
  2
VIEW
  5
6
330
0
100
AcDbSymbolTable
 70
     0
  0
ENDTAB
  0
TABLE
  2
UCS
  5
7
330
0
100
AcDbSymbolTable
 70
     0
  0
ENDTAB
  0
TABLE
  2
APPID
  5
9
330
0
100
AcDbSymbolTable
 70
     2
  0
APPID
  5
12
330
9
100
AcDbSymbolTableRecord
100
AcDbRegAppTableRecord
  2
ACAD
 70
     0
  0
ENDTAB
  0
TABLE
  2
DIMSTYLE
  5
A
330
0
100
AcDbSymbolTable
 70
     1
  0
DIMSTYLE
105
27
330
A
100
AcDbSymbolTableRecord
100
AcDbDimStyleTableRecord
  2
ISO-25
 70
     0
  3

  4

  5

  6

  7

 40
1.0
 41
2.5
 42
0.625
 43
3.75
 44
1.25
 45
0.0
 46
0.0
 47
0.0
 48
0.0
140
2.5
141
2.5
142
0.0
143
0.03937007874016
144
1.0
145
0.0
146
1.0
147
0.625
 71
     0
 72
     0
 73
     0
 74
     0
 75
     0
 76
     0
 77
     1
 78
     8
170
     0
171
     3
172
     1
173
     0
174
     0
175
     0
176
     0
177
     0
178
     0
270
     2
271
     2
272
     2
273
     2
274
     3
340
11
275
     0
280
     0
281
     0
282
     0
283
     0
284
     8
285
     0
286
     0
287
     3
288
     0
  0
ENDTAB
  0
TABLE
  2
BLOCK_RECORD
  5
1
330
0
100
AcDbSymbolTable
 70
     1
  0
BLOCK_RECORD
  5
1F
330
1
100
AcDbSymbolTableRecord
100
AcDbBlockTableRecord
  2
*MODEL_SPACE
  0
BLOCK_RECORD
  5
1B
330
1
100
AcDbSymbolTableRecord
100
AcDbBlockTableRecord
  2
*PAPER_SPACE
  0
ENDTAB
  0
ENDSEC
  0
SECTION
  2
BLOCKS
  0
BLOCK
  5
20
330
1F
100
AcDbEntity
  8
0
100
AcDbBlockBegin
  2
*MODEL_SPACE
 70
     0
 10
0.0
 20
0.0
 30
0.0
  3
*MODEL_SPACE
  1

  0
ENDBLK
  5
21
330
1F
100
AcDbEntity
  8
0
100
AcDbBlockEnd
  0
BLOCK
  5
1C
330
1B
100
AcDbEntity
 67
     1
  8
0
100
AcDbBlockBegin
  2
*PAPER_SPACE
  1

  0
ENDBLK
  5
1D
330
1B
100
AcDbEntity
 67
     1
  8
0
100
AcDbBlockEnd
  0
ENDSEC
  0
SECTION
  2
ENTITIES
  0
LINE
  5
100
100
AcDbEntity
  8
Layer_1
 62
4
100
AcDbLine
 10
695.828746
 20
-66.348707
 30
0.0
 11
660.551502
 21
-69.349039
 31
0.0
  0
SPLINE
  5
101
100
AcDbEntity
  8
Layer_1
 62
4
100
AcDbSpline
 70
8
 71
3
 72
8
 73
4
 74
0
 40
0
 40
0
 40
0
 40
0
 40
1
 40
1
 40
1
 40
1
 10
660.551502
 20
-69.349039
 30
0.0
 10
660.260302
 20
-69.373803
 30
0.0
 10
659.788153
 20
-69.413816
 30
0.0
 10
659.497015
 20
-69.439287
 30
0.0
  0
SPLINE
  5
102
100
AcDbEntity
  8
Layer_1
 62
4
100
AcDbSpline
 70
8
 71
3
 72
8
 73
4
 74
0
 40
0
 40
0
 40
0
 40
0
 40
1
 40
1
 40
1
 40
1
 10
659.497015
 20
-69.439287
 30
0.0
 10
644.967078
 20
-70.687103
 30
0.0
 10
630.440456
 20
-71.973376
 30
0.0
 10
615.912618
 20
-73.245401
 30
0.0
  0
SPLINE
  5
103
100
AcDbEntity
  8
Layer_1
 62
4
100
AcDbSpline
 70
8
 71
3
 72
8
 73
4
 74
0
 40
0
 40
0
 40
0
 40
0
 40
1
 40
1
 40
1
 40
1
 10
615.912618
 20
-73.245401
 30
0.0
 10
615.621481
 20
-73.270882
 30
0.0
 10
615.149451
 20
-73.312149
 30
0.0
 10
614.858311
 20
-73.337590
 30
0.0
  0
LINE
  5
104
100
AcDbEntity
  8
Layer_1
 62
4
100
AcDbLine
 10
614.858311
 20
-73.337590
 30
0.0
 11
579.588167
 21
-76.419313
 31
0.0
  0
SPLINE
  5
105
100
AcDbEntity
  8
Layer_1
 62
4
100
AcDbSpline
 70
8
 71
3
 72
8
 73
4
 74
0
 40
0
 40
0
 40
0
 40
0
 40
1
 40
1
 40
1
 40
1
 10
579.588167
 20
-76.419313
 30
0.0
 10
579.236726
 20
-76.450021
 30
0.0
 10
578.885287
 20
-76.480747
 30
0.0
 10
578.533849
 20
-76.511494
 30
0.0
  0
LINE
  5
106
100
AcDbEntity
  8
Layer_1
 62
4
100
AcDbLine
 10
578.533849
 20
-76.511494
 30
0.0
 11
574.601350
 21
-76.855543
 31
0.0
  0
SPLINE
  5
107
100
AcDbEntity
  8
Layer_1
 62
4
100
AcDbSpline
 70
8
 71
3
 72
8
 73
4
 74
0
 40
0
 40
0
 40
0
 40
0
 40
1
 40
1
 40
1
 40
1
 10
574.601350
 20
-76.855543
 30
0.0
 10
574.461540
 20
-76.867775
 30
0.0
 10
574.322596
 20
-76.823967
 30
0.0
 10
574.215085
 20
-76.733755
 30
0.0
  0
SPLINE
  5
108
100
AcDbEntity
  8
Layer_1
 62
4
100
AcDbSpline
 70
8
 71
3
 72
8
 73
4
 74
0
 40
0
 40
0
 40
0
 40
0
 40
1
 40
1
 40
1
 40
1
 10
574.215085
 20
-76.733755
 30
0.0
 10
574.107575
 20
-76.643543
 30
0.0
 10
574.040305
 20
-76.514317
 30
0.0
 10
574.028074
 20
-76.374506
 30
0.0
  0
LINE
  5
109
100
AcDbEntity
  8
Layer_1
 62
4
100
AcDbLine
 10
574.028074
 20
-76.374506
 30
0.0
 11
572.367496
 21
-57.394019
 31
0.0
  0
SPLINE
  5
10a
100
AcDbEntity
  8
Layer_1
 62
4
100
AcDbSpline
 70
8
 71
3
 72
8
 73
4
 74
0
 40
0
 40
0
 40
0
 40
0
 40
1
 40
1
 40
1
 40
1
 10
572.367496
 20
-57.394019
 30
0.0
 10
572.355264
 20
-57.254208
 30
0.0
 10
572.399072
 20
-57.115264
 30
0.0
 10
572.489284
 20
-57.007754
 30
0.0
  0
SPLINE
  5
10b
100
AcDbEntity
  8
Layer_1
 62
4
100
AcDbSpline
 70
8
 71
3
 72
8
 73
4
 74
0
 40
0
 40
0
 40
0
 40
0
 40
1
 40
1
 40
1
 40
1
 10
572.489284
 20
-57.007754
 30
0.0
 10
572.579496
 20
-56.900243
 30
0.0
 10
572.708722
 20
-56.832973
 30
0.0
 10
572.848533
 20
-56.820742
 30
0.0
  0
LINE
  5
10c
100
AcDbEntity
  8
Layer_1
 62
4
100
AcDbLine
 10
572.848533
 20
-56.820742
 30
0.0
 11
581.283363
 21
-56.082790
 31
0.0
  0
SPLINE
  5
10d
100
AcDbEntity
  8
Layer_1
 62
4
100
AcDbSpline
 70
8
 71
3
 72
8
 73
4
 74
0
 40
0
 40
0
 40
0
 40
0
 40
1
 40
1
 40
1
 40
1
 10
581.283363
 20
-56.082790
 30
0.0
 10
581.423174
 20
-56.070559
 30
0.0
 10
581.552399
 20
-56.003289
 30
0.0
 10
581.642611
 20
-55.895779
 30
0.0
  0
SPLINE
  5
10e
100
AcDbEntity
  8
Layer_1
 62
4
100
AcDbSpline
 70
8
 71
3
 72
8
 73
4
 74
0
 40
0
 40
0
 40
0
 40
0
 40
1
 40
1
 40
1
 40
1
 10
581.642611
 20
-55.895779
 30
0.0
 10
581.732823
 20
-55.788268
 30
0.0
 10
581.776632
 20
-55.649324
 30
0.0
 10
581.764399
 20
-55.509514
 30
0.0
  0
LINE
  5
10f
100
AcDbEntity
  8
Layer_1
 62
4
100
AcDbLine
 10
581.764399
 20
-55.509514
 30
0.0
 11
580.288857
 21
-38.643997
 31
0.0
  0
SPLINE
  5
110
100
AcDbEntity
  8
Layer_1
 62
4
100
AcDbSpline
 70
8
 71
3
 72
8
 73
4
 74
0
 40
0
 40
0
 40
0
 40
0
 40
1
 40
1
 40
1
 40
1
 10
580.288857
 20
-38.643997
 30
0.0
 10
580.276627
 20
-38.504186
 30
0.0
 10
580.209356
 20
-38.374961
 30
0.0
 10
580.101846
 20
-38.284749
 30
0.0
  0
SPLINE
  5
111
100
AcDbEntity
  8
Layer_1
 62
4
100
AcDbSpline
 70
8
 71
3
 72
8
 73
4
 74
0
 40
0
 40
0
 40
0
 40
0
 40
1
 40
1
 40
1
 40
1
 10
580.101846
 20
-38.284749
 30
0.0
 10
579.994336
 20
-38.194537
 30
0.0
 10
579.855392
 20
-38.150728
 30
0.0
 10
579.715581
 20
-38.162961
 30
0.0
  0
LINE
  5
112
100
AcDbEntity
  8
Layer_1
 62
4
100
AcDbLine
 10
579.715581
 20
-38.162961
 30
0.0
 11
571.280751
 21
-38.900913
 31
0.0
  0
SPLINE
  5
113
100
AcDbEntity
  8
Layer_1
 62
4
100
AcDbSpline
 70
8
 71
3
 72
8
 73
4
 74
0
 40
0
 40
0
 40
0
 40
0
 40
1
 40
1
 40
1
 40
1
 10
571.280751
 20
-38.900913
 30
0.0
 10
571.140940
 20
-38.913146
 30
0.0
 10
571.001996
 20
-38.869338
 30
0.0
 10
570.894486
 20
-38.779126
 30
0.0
  0
SPLINE
  5
114
100
AcDbEntity
  8
Layer_1
 62
4
100
AcDbSpline
 70
8
 71
3
 72
8
 73
4
 74
0
 40
0
 40
0
 40
0
 40
0
 40
1
 40
1
 40
1
 40
1
 10
570.894486
 20
-38.779126
 30
0.0
 10
570.786975
 20
-38.688914
 30
0.0
 10
570.719705
 20
-38.559688
 30
0.0
 10
570.707474
 20
-38.419877
 30
0.0
  0
LINE
  5
115
100
AcDbEntity
  8
Layer_1
 62
4
100
AcDbLine
 10
570.707474
 20
-38.419877
 30
0.0
 11
569.139329
 21
-20.495894
 31
0.0
  0
SPLINE
  5
116
100
AcDbEntity
  8
Layer_1
 62
4
100
AcDbSpline
 70
8
 71
3
 72
8
 73
4
 74
0
 40
0
 40
0
 40
0
 40
0
 40
1
 40
1
 40
1
 40
1
 10
569.139329
 20
-20.495894
 30
0.0
 10
569.113857
 20
-20.204756
 30
0.0
 10
568.857190
 20
-19.989386
 30
0.0
 10
568.566052
 20
-20.014858
 30
0.0
  0
SPLINE
  5
117
100
AcDbEntity
  8
Layer_1
 62
4
100
AcDbSpline
 70
8
 71
3
 72
8
 73
4
 74
0
 40
0
 40
0
 40
0
 40
0
 40
1
 40
1
 40
1
 40
1
 10
568.566052
 20
-20.014858
 30
0.0
 10
567.335643
 20
-20.122514
 30
0.0
 10
566.105232
 20
-20.230151
 30
0.0
 10
564.874822
 20
-20.337798
 30
0.0
  0
SPLINE
  5
118
100
AcDbEntity
  8
Layer_1
 62
4
100
AcDbSpline
 70
8
 71
3
 72
8
 73
4
 74
0
 40
0
 40
0
 40
0
 40
0
 40
1
 40
1
 40
1
 40
1
 10
564.874822
 20
-20.337798
 30
0.0
 10
564.583684
 20
-20.363270
 30
0.0
 10
564.327017
 20
-20.147900
 30
0.0
 10
564.301546
 20
-19.856762
 30
0.0
  0
LINE
  5
119
100
AcDbEntity
  8
Layer_1
 62
4
100
AcDbLine
 10
564.301546
 20
-19.856762
 30
0.0
 11
562.640969
 21
-0.876285
 31
0.0
  0
SPLINE
  5
11a
100
AcDbEntity
  8
Layer_1
 62
4
100
AcDbSpline
 70
8
 71
3
 72
8
 73
4
 74
0
 40
0
 40
0
 40
0
 40
0
 40
1
 40
1
 40
1
 40
1
 10
562.640969
 20
-0.876285
 30
0.0
 10
562.615498
 20
-0.585147
 30
0.0
 10
562.830862
 20
-0.328419
 30
0.0
 10
563.122009
 20
-0.303058
 30
0.0
  0
SPLINE
  5
11b
100
AcDbEntity
  8
Layer_1
 62
4
100
AcDbSpline
 70
8
 71
3
 72
8
 73
4
 74
0
 40
0
 40
0
 40
0
 40
0
 40
1
 40
1
 40
1
 40
1
 10
563.122009
 20
-0.303058
 30
0.0
 10
563.609184
 20
-0.260616
 30
0.0
 10
564.096380
 20
-0.218534
 30
0.0
 10
564.583564
 20
-0.176192
 30
0.0
  0
SPLINE
  5
11c
100
AcDbEntity
  8
Layer_1
 62
4
100
AcDbSpline
 70
8
 71
3
 72
8
 73
4
 74
0
 40
0
 40
0
 40
0
 40
0
 40
1
 40
1
 40
1
 40
1
 10
564.583564
 20
-0.176192
 30
0.0
 10
564.874732
 20
-0.151070
 30
0.0
 10
565.346794
 20
-0.110051
 30
0.0
 10
565.637930
 20
-0.084559
 30
0.0
  0
LINE
  5
11d
100
AcDbEntity
  8
Layer_1
 62
4
100
AcDbLine
 10
565.637930
 20
-0.084559
 30
0.0
 11
600.907531
 21
3.003138
 31
0.0
  0
SPLINE
  5
11e
100
AcDbEntity
  8
Layer_1
 62
4
100
AcDbSpline
 70
8
 71
3
 72
8
 73
4
 74
0
 40
0
 40
0
 40
0
 40
0
 40
1
 40
1
 40
1
 40
1
 10
600.907531
 20
3.003138
 30
0.0
 10
601.198667
 20
3.028630
 30
0.0
 10
601.670702
 20
3.069947
 30
0.0
 10
601.961840
 20
3.095419
 30
0.0
  0
SPLINE
  5
11f
100
AcDbEntity
  8
Layer_1
 62
4
100
AcDbSpline
 70
8
 71
3
 72
8
 73
4
 74
0
 40
0
 40
0
 40
0
 40
0
 40
1
 40
1
 40
1
 40
1
 10
601.961840
 20
3.095419
 30
0.0
 10
618.895254
 20
4.577282
 30
0.0
 10
635.828820
 20
6.057402
 30
0.0
 10
652.762365
 20
7.537881
 30
0.0
  0
SPLINE
  5
120
100
AcDbEntity
  8
Layer_1
 62
4
100
AcDbSpline
 70
8
 71
3
 72
8
 73
4
 74
0
 40
0
 40
0
 40
0
 40
0
 40
1
 40
1
 40
1
 40
1
 10
652.762365
 20
7.537881
 30
0.0
 10
653.053505
 20
7.563332
 30
0.0
 10
653.525484
 20
7.605288
 30
0.0
 10
653.816581
 20
7.631117
 30
0.0
  0
LINE
  5
121
100
AcDbEntity
  8
Layer_1
 62
4
100
AcDbLine
 10
653.816581
 20
7.631117
 30
0.0
 11
689.077625
 21
10.816732
 31
0.0
  0
SPLINE
  5
122
100
AcDbEntity
  8
Layer_1
 62
4
100
AcDbSpline
 70
8
 71
3
 72
8
 73
4
 74
0
 40
0
 40
0
 40
0
 40
0
 40
1
 40
1
 40
1
 40
1
 10
689.077625
 20
10.816732
 30
0.0
 10
689.428972
 20
10.848473
 30
0.0
 10
689.780348
 20
10.879884
 30
0.0
 10
690.131753
 20
10.910964
 30
0.0
  0
LINE
  5
123
100
AcDbEntity
  8
Layer_1
 62
4
100
AcDbLine
 10
690.131753
 20
10.910964
 30
0.0
 11
691.174104
 21
11.003161
 31
0.0
  0
SPLINE
  5
124
100
AcDbEntity
  8
Layer_1
 62
4
100
AcDbSpline
 70
8
 71
3
 72
8
 73
4
 74
0
 40
0
 40
0
 40
0
 40
0
 40
1
 40
1
 40
1
 40
1
 10
691.174104
 20
11.003161
 30
0.0
 10
691.465219
 20
11.028901
 30
0.0
 10
691.721876
 20
10.813762
 30
0.0
 10
691.747347
 20
10.522624
 30
0.0
  0
SPLINE
  5
125
100
AcDbEntity
  8
Layer_1
 62
4
100
AcDbSpline
 70
8
 71
3
 72
8
 73
4
 74
0
 40
0
 40
0
 40
0
 40
0
 40
1
 40
1
 40
1
 40
1
 10
691.747347
 20
10.522624
 30
0.0
 10
693.959296
 20
-14.753867
 30
0.0
 10
696.195280
 20
-40.320346
 30
0.0
 10
698.404755
 20
-65.594845
 30
0.0
  0
SPLINE
  5
126
100
AcDbEntity
  8
Layer_1
 62
4
100
AcDbSpline
 70
8
 71
3
 72
8
 73
4
 74
0
 40
0
 40
0
 40
0
 40
0
 40
1
 40
1
 40
1
 40
1
 10
698.404755
 20
-65.594845
 30
0.0
 10
698.430207
 20
-65.885984
 30
0.0
 10
698.214807
 20
-66.142534
 30
0.0
 10
697.923656
 20
-66.167856
 30
0.0
  0
LINE
  5
127
100
AcDbEntity
  8
Layer_1
 62
4
100
AcDbLine
 10
697.923656
 20
-66.167856
 30
0.0
 11
696.883193
 21
-66.258342
 31
0.0
  0
SPLINE
  5
128
100
AcDbEntity
  8
Layer_1
 62
4
100
AcDbSpline
 70
8
 71
3
 72
8
 73
4
 74
0
 40
0
 40
0
 40
0
 40
0
 40
1
 40
1
 40
1
 40
1
 10
696.883193
 20
-66.258342
 30
0.0
 10
696.531726
 20
-66.288760
 30
0.0
 10
696.180230
 20
-66.318843
 30
0.0
 10
695.828706
 20
-66.348590
 30
0.0
  0
LINE
  5
129
100
AcDbEntity
  8
Layer_1
 62
4
100
AcDbLine
 10
695.828706
 20
-66.348590
 30
0.0
 11
695.828746
 21
-66.348707
 31
0.0
  0
LINE
  5
12a
100
AcDbEntity
  8
Layer_1
 62
4
100
AcDbLine
 10
564.267545
 20
-76.912319
 30
0.0
 11
557.452399
 21
0.950734
 31
0.0
  0
SPLINE
  5
12b
100
AcDbEntity
  8
Layer_1
 62
4
100
AcDbSpline
 70
8
 71
3
 72
8
 73
4
 74
0
 40
0
 40
0
 40
0
 40
0
 40
1
 40
1
 40
1
 40
1
 10
557.452399
 20
0.950734
 30
0.0
 10
557.400188
 20
1.547231
 30
0.0
 10
556.900568
 20
2.004793
 30
0.0
 10
556.301790
 20
2.004482
 30
0.0
  0
LINE
  5
12c
100
AcDbEntity
  8
Layer_1
 62
4
100
AcDbLine
 10
556.301790
 20
2.004482
 30
0.0
 11
542.130268
 21
1.997084
 31
0.0
  0
SPLINE
  5
12d
100
AcDbEntity
  8
Layer_1
 62
4
100
AcDbSpline
 70
8
 71
3
 72
8
 73
4
 74
0
 40
0
 40
0
 40
0
 40
0
 40
1
 40
1
 40
1
 40
1
 10
542.130268
 20
1.997084
 30
0.0
 10
541.849641
 20
1.996940
 30
0.0
 10
541.580460
 20
2.108324
 30
0.0
 10
541.381985
 20
2.306716
 30
0.0
  0
SPLINE
  5
12e
100
AcDbEntity
  8
Layer_1
 62
4
100
AcDbSpline
 70
8
 71
3
 72
8
 73
4
 74
0
 40
0
 40
0
 40
0
 40
0
 40
1
 40
1
 40
1
 40
1
 10
541.381985
 20
2.306716
 30
0.0
 10
541.183510
 20
2.505107
 30
0.0
 10
541.072013
 20
2.774242
 30
0.0
 10
541.072039
 20
3.054869
 30
0.0
  0
LINE
  5
12f
100
AcDbEntity
  8
Layer_1
 62
4
100
AcDbLine
 10
541.072039
 20
3.054869
 30
0.0
 11
541.073183
 21
15.791505
 31
0.0
  0
SPLINE
  5
130
100
AcDbEntity
  8
Layer_1
 62
4
100
AcDbSpline
 70
8
 71
3
 72
8
 73
4
 74
0
 40
0
 40
0
 40
0
 40
0
 40
1
 40
1
 40
1
 40
1
 10
541.073183
 20
15.791505
 30
0.0
 10
541.073209
 20
16.072123
 30
0.0
 10
541.184760
 20
16.341227
 30
0.0
 10
541.383276
 20
16.539565
 30
0.0
  0
SPLINE
  5
131
100
AcDbEntity
  8
Layer_1
 62
4
100
AcDbSpline
 70
8
 71
3
 72
8
 73
4
 74
0
 40
0
 40
0
 40
0
 40
0
 40
1
 40
1
 40
1
 40
1
 10
541.383276
 20
16.539565
 30
0.0
 10
541.581793
 20
16.737903
 30
0.0
 10
541.850996
 20
16.849214
 30
0.0
 10
542.131615
 20
16.848988
 30
0.0
  0
LINE
  5
132
100
AcDbEntity
  8
Layer_1
 62
4
100
AcDbLine
 10
542.131615
 20
16.848988
 30
0.0
 11
555.048550
 21
16.838633
 31
0.0
  0
SPLINE
  5
133
100
AcDbEntity
  8
Layer_1
 62
4
100
AcDbSpline
 70
8
 71
3
 72
8
 73
4
 74
0
 40
0
 40
0
 40
0
 40
0
 40
1
 40
1
 40
1
 40
1
 10
555.048550
 20
16.838633
 30
0.0
 10
555.730556
 20
16.838086
 30
0.0
 10
556.389309
 20
17.086495
 30
0.0
 10
556.901143
 20
17.537226
 30
0.0
  0
LINE
  5
134
100
AcDbEntity
  8
Layer_1
 62
4
100
AcDbLine
 10
556.901143
 20
17.537226
 30
0.0
 11
558.248724
 21
18.723921
 31
0.0
  0
SPLINE
  5
135
100
AcDbEntity
  8
Layer_1
 62
4
100
AcDbSpline
 70
8
 71
3
 72
8
 73
4
 74
0
 40
0
 40
0
 40
0
 40
0
 40
1
 40
1
 40
1
 40
1
 10
558.248724
 20
18.723921
 30
0.0
 10
558.764670
 20
19.178275
 30
0.0
 10
559.412418
 20
19.455690
 30
0.0
 10
560.097287
 20
19.515616
 30
0.0
  0
LINE
  5
136
100
AcDbEntity
  8
Layer_1
 62
4
100
AcDbLine
 10
560.097287
 20
19.515616
 30
0.0
 11
630.142132
 21
25.644379
 31
0.0
  0
SPLINE
  5
137
100
AcDbEntity
  8
Layer_1
 62
4
100
AcDbSpline
 70
8
 71
3
 72
8
 73
4
 74
0
 40
0
 40
0
 40
0
 40
0
 40
1
 40
1
 40
1
 40
1
 10
630.142132
 20
25.644379
 30
0.0
 10
630.833149
 20
25.704840
 30
0.0
 10
631.528024
 20
25.584839
 30
0.0
 10
632.158739
 20
25.296122
 30
0.0
  0
LINE
  5
138
100
AcDbEntity
  8
Layer_1
 62
4
100
AcDbLine
 10
632.158739
 20
25.296122
 30
0.0
 11
638.071966
 21
22.589294
 31
0.0
  0
SPLINE
  5
139
100
AcDbEntity
  8
Layer_1
 62
4
100
AcDbSpline
 70
8
 71
3
 72
8
 73
4
 74
0
 40
0
 40
0
 40
0
 40
0
 40
1
 40
1
 40
1
 40
1
 10
638.071966
 20
22.589294
 30
0.0
 10
638.702714
 20
22.300561
 30
0.0
 10
639.397545
 20
22.180287
 30
0.0
 10
640.088645
 20
22.240210
 30
0.0
  0
LINE
  5
13a
100
AcDbEntity
  8
Layer_1
 62
4
100
AcDbLine
 10
640.088645
 20
22.240210
 30
0.0
 11
640.555393
 21
22.280684
 31
0.0
  0
SPLINE
  5
13b
100
AcDbEntity
  8
Layer_1
 62
4
100
AcDbSpline
 70
8
 71
3
 72
8
 73
4
 74
0
 40
0
 40
0
 40
0
 40
0
 40
1
 40
1
 40
1
 40
1
 10
640.555393
 20
22.280684
 30
0.0
 10
641.258309
 20
22.341634
 30
0.0
 10
641.961202
 20
22.402848
 30
0.0
 10
642.664072
 20
22.464327
 30
0.0
  0
LINE
  5
13c
100
AcDbEntity
  8
Layer_1
 62
4
100
AcDbLine
 10
642.664072
 20
22.464327
 30
0.0
 11
655.419461
 21
23.580018
 31
0.0
  0
SPLINE
  5
13d
100
AcDbEntity
  8
Layer_1
 62
4
100
AcDbSpline
 70
8
 71
3
 72
8
 73
4
 74
0
 40
0
 40
0
 40
0
 40
0
 40
1
 40
1
 40
1
 40
1
 10
655.419461
 20
23.580018
 30
0.0
 10
656.122331
 20
23.641495
 30
0.0
 10
656.825200
 20
23.702985
 30
0.0
 10
657.528068
 20
23.764487
 30
0.0
  0
LINE
  5
13e
100
AcDbEntity
  8
Layer_1
 62
4
100
AcDbLine
 10
657.528068
 20
23.764487
 30
0.0
 11
674.740229
 21
25.270597
 31
0.0
  0
SPLINE
  5
13f
100
AcDbEntity
  8
Layer_1
 62
4
100
AcDbSpline
 70
8
 71
3
 72
8
 73
4
 74
0
 40
0
 40
0
 40
0
 40
0
 40
1
 40
1
 40
1
 40
1
 10
674.740229
 20
25.270597
 30
0.0
 10
675.443097
 20
25.332099
 30
0.0
 10
676.145964
 20
25.393602
 30
0.0
 10
676.848832
 20
25.455106
 30
0.0
  0
LINE
  5
140
100
AcDbEntity
  8
Layer_1
 62
4
100
AcDbLine
 10
676.848832
 20
25.455106
 30
0.0
 11
691.041718
 21
26.697043
 31
0.0
  0
SPLINE
  5
141
100
AcDbEntity
  8
Layer_1
 62
4
100
AcDbSpline
 70
8
 71
3
 72
8
 73
4
 74
0
 40
0
 40
0
 40
0
 40
0
 40
1
 40
1
 40
1
 40
1
 10
691.041718
 20
26.697043
 30
0.0
 10
691.721381
 20
26.756517
 30
0.0
 10
692.399523
 20
26.567226
 30
0.0
 10
692.950128
 20
26.164345
 30
0.0
  0
LINE
  5
142
100
AcDbEntity
  8
Layer_1
 62
4
100
AcDbLine
 10
692.950128
 20
26.164345
 30
0.0
 11
694.703122
 21
24.881657
 31
0.0
  0
SPLINE
  5
143
100
AcDbEntity
  8
Layer_1
 62
4
100
AcDbSpline
 70
8
 71
3
 72
8
 73
4
 74
0
 40
0
 40
0
 40
0
 40
0
 40
1
 40
1
 40
1
 40
1
 10
694.703122
 20
24.881657
 30
0.0
 10
695.245903
 20
24.484499
 30
0.0
 10
695.590864
 20
23.872405
 30
0.0
 10
695.649510
 20
23.202400
 30
0.0
  0
LINE
  5
144
100
AcDbEntity
  8
Layer_1
 62
4
100
AcDbLine
 10
695.649510
 20
23.202400
 30
0.0
 11
704.153421
 21
-73.951846
 31
0.0
  0
SPLINE
  5
145
100
AcDbEntity
  8
Layer_1
 62
4
100
AcDbSpline
 70
8
 71
3
 72
8
 73
4
 74
0
 40
0
 40
0
 40
0
 40
0
 40
1
 40
1
 40
1
 40
1
 10
704.153421
 20
-73.951846
 30
0.0
 10
704.212347
 20
-74.625086
 30
0.0
 10
703.992703
 20
-75.293050
 30
0.0
 10
703.545720
 20
-75.799933
 30
0.0
  0
LINE
  5
146
100
AcDbEntity
  8
Layer_1
 62
4
100
AcDbLine
 10
703.545720
 20
-75.799933
 30
0.0
 11
702.005644
 21
-77.546406
 31
0.0
  0
SPLINE
  5
147
100
AcDbEntity
  8
Layer_1
 62
4
100
AcDbSpline
 70
8
 71
3
 72
8
 73
4
 74
0
 40
0
 40
0
 40
0
 40
0
 40
1
 40
1
 40
1
 40
1
 10
702.005644
 20
-77.546406
 30
0.0
 10
701.556284
 20
-78.055988
 30
0.0
 10
700.928192
 20
-78.373282
 30
0.0
 10
700.251377
 20
-78.432612
 30
0.0
  0
LINE
  5
148
100
AcDbEntity
  8
Layer_1
 62
4
100
AcDbLine
 10
700.251377
 20
-78.432612
 30
0.0
 11
684.732967
 21
-79.793309
 31
0.0
  0
SPLINE
  5
149
100
AcDbEntity
  8
Layer_1
 62
4
100
AcDbSpline
 70
8
 71
3
 72
8
 73
4
 74
0
 40
0
 40
0
 40
0
 40
0
 40
1
 40
1
 40
1
 40
1
 10
684.732967
 20
-79.793309
 30
0.0
 10
684.030109
 20
-79.854923
 30
0.0
 10
683.327251
 20
-79.916532
 30
0.0
 10
682.624392
 20
-79.978137
 30
0.0
  0
LINE
  5
14a
100
AcDbEntity
  8
Layer_1
 62
4
100
AcDbLine
 10
682.624392
 20
-79.978137
 30
0.0
 11
665.676124
 21
-81.463929
 31
0.0
  0
SPLINE
  5
14b
100
AcDbEntity
  8
Layer_1
 62
4
100
AcDbSpline
 70
8
 71
3
 72
8
 73
4
 74
0
 40
0
 40
0
 40
0
 40
0
 40
1
 40
1
 40
1
 40
1
 10
665.676124
 20
-81.463929
 30
0.0
 10
664.973265
 20
-81.525534
 30
0.0
 10
664.270406
 20
-81.587126
 30
0.0
 10
663.567545
 20
-81.648707
 30
0.0
  0
LINE
  5
14c
100
AcDbEntity
  8
Layer_1
 62
4
100
AcDbLine
 10
663.567545
 20
-81.648707
 30
0.0
 11
569.669375
 21
-89.875377
 31
0.0
  0
SPLINE
  5
14d
100
AcDbEntity
  8
Layer_1
 62
4
100
AcDbSpline
 70
8
 71
3
 72
8
 73
4
 74
0
 40
0
 40
0
 40
0
 40
0
 40
1
 40
1
 40
1
 40
1
 10
569.669375
 20
-89.875377
 30
0.0
 10
568.992884
 20
-89.934644
 30
0.0
 10
568.319695
 20
-89.729892
 30
0.0
 10
567.790767
 20
-89.303994
 30
0.0
  0
LINE
  5
14e
100
AcDbEntity
  8
Layer_1
 62
4
100
AcDbLine
 10
567.790767
 20
-89.303994
 30
0.0
 11
565.991188
 21
-87.854964
 31
0.0
  0
SPLINE
  5
14f
100
AcDbEntity
  8
Layer_1
 62
4
100
AcDbSpline
 70
8
 71
3
 72
8
 73
4
 74
0
 40
0
 40
0
 40
0
 40
0
 40
1
 40
1
 40
1
 40
1
 10
565.991188
 20
-87.854964
 30
0.0
 10
565.457712
 20
-87.425404
 30
0.0
 10
564.793464
 20
-87.191041
 30
0.0
 10
564.108542
 20
-87.190720
 30
0.0
  0
LINE
  5
150
100
AcDbEntity
  8
Layer_1
 62
4
100
AcDbLine
 10
564.108542
 20
-87.190720
 30
0.0
 11
502.123108
 21
-87.161686
 31
0.0
  0
SPLINE
  5
151
100
AcDbEntity
  8
Layer_1
 62
4
100
AcDbSpline
 70
8
 71
3
 72
8
 73
4
 74
0
 40
0
 40
0
 40
0
 40
0
 40
1
 40
1
 40
1
 40
1
 10
502.123108
 20
-87.161686
 30
0.0
 10
501.438450
 20
-87.161367
 30
0.0
 10
500.774509
 20
-87.396511
 30
0.0
 10
500.242667
 20
-87.827671
 30
0.0
  0
LINE
  5
152
100
AcDbEntity
  8
Layer_1
 62
4
100
AcDbLine
 10
500.242667
 20
-87.827671
 30
0.0
 11
498.436894
 21
-89.291595
 31
0.0
  0
SPLINE
  5
153
100
AcDbEntity
  8
Layer_1
 62
4
100
AcDbSpline
 70
8
 71
3
 72
8
 73
4
 74
0
 40
0
 40
0
 40
0
 40
0
 40
1
 40
1
 40
1
 40
1
 10
498.436894
 20
-89.291595
 30
0.0
 10
497.909570
 20
-89.719090
 30
0.0
 10
497.236740
 20
-89.924903
 30
0.0
 10
496.560499
 20
-89.865568
 30
0.0
  0
LINE
  5
154
100
AcDbEntity
  8
Layer_1
 62
4
100
AcDbLine
 10
496.560499
 20
-89.865568
 30
0.0
 11
402.663382
 21
-81.626981
 31
0.0
  0
SPLINE
  5
155
100
AcDbEntity
  8
Layer_1
 62
4
100
AcDbSpline
 70
8
 71
3
 72
8
 73
4
 74
0
 40
0
 40
0
 40
0
 40
0
 40
1
 40
1
 40
1
 40
1
 10
402.663382
 20
-81.626981
 30
0.0
 10
401.960526
 20
-81.565312
 30
0.0
 10
401.257631
 20
-81.504084
 30
0.0
 10
400.554699
 20
-81.443296
 30
0.0
  0
LINE
  5
156
100
AcDbEntity
  8
Layer_1
 62
4
100
AcDbLine
 10
400.554699
 20
-81.443296
 30
0.0
 11
365.979653
 21
-78.453281
 31
0.0
  0
SPLINE
  5
157
100
AcDbEntity
  8
Layer_1
 62
4
100
AcDbSpline
 70
8
 71
3
 72
8
 73
4
 74
0
 40
0
 40
0
 40
0
 40
0
 40
1
 40
1
 40
1
 40
1
 10
365.979653
 20
-78.453281
 30
0.0
 10
365.302682
 20
-78.394739
 30
0.0
 10
364.674017
 20
-78.078551
 30
0.0
 10
364.223394
 20
-77.569968
 30
0.0
  0
LINE
  5
158
100
AcDbEntity
  8
Layer_1
 62
4
100
AcDbLine
 10
364.223394
 20
-77.569968
 30
0.0
 11
362.649296
 21
-75.793400
 31
0.0
  0
SPLINE
  5
159
100
AcDbEntity
  8
Layer_1
 62
4
100
AcDbSpline
 70
8
 71
3
 72
8
 73
4
 74
0
 40
0
 40
0
 40
0
 40
0
 40
1
 40
1
 40
1
 40
1
 10
362.649296
 20
-75.793400
 30
0.0
 10
362.201230
 20
-75.287703
 30
0.0
 10
361.980791
 20
-74.620026
 30
0.0
 10
362.039678
 20
-73.946955
 30
0.0
  0
LINE
  5
15a
100
AcDbEntity
  8
Layer_1
 62
4
100
AcDbLine
 10
362.039678
 20
-73.946955
 30
0.0
 11
370.539461
 21
23.207643
 31
0.0
  0
SPLINE
  5
15b
100
AcDbEntity
  8
Layer_1
 62
4
100
AcDbSpline
 70
8
 71
3
 72
8
 73
4
 74
0
 40
0
 40
0
 40
0
 40
0
 40
1
 40
1
 40
1
 40
1
 10
370.539461
 20
23.207643
 30
0.0
 10
370.598081
 20
23.877673
 30
0.0
 10
370.942936
 20
24.489834
 30
0.0
 10
371.485611
 20
24.887176
 30
0.0
  0
LINE
  5
15c
100
AcDbEntity
  8
Layer_1
 62
4
100
AcDbLine
 10
371.485611
 20
24.887176
 30
0.0
 11
373.236953
 21
26.169505
 31
0.0
  0
SPLINE
  5
15d
100
AcDbEntity
  8
Layer_1
 62
4
100
AcDbSpline
 70
8
 71
3
 72
8
 73
4
 74
0
 40
0
 40
0
 40
0
 40
0
 40
1
 40
1
 40
1
 40
1
 10
373.236953
 20
26.169505
 30
0.0
 10
373.787412
 20
26.572548
 30
0.0
 10
374.465522
 20
26.761946
 30
0.0
 10
375.145163
 20
26.702475
 30
0.0
  0
LINE
  5
15e
100
AcDbEntity
  8
Layer_1
 62
4
100
AcDbLine
 10
375.145163
 20
26.702475
 30
0.0
 11
389.380256
 21
25.456835
 31
0.0
  0
SPLINE
  5
15f
100
AcDbEntity
  8
Layer_1
 62
4
100
AcDbSpline
 70
8
 71
3
 72
8
 73
4
 74
0
 40
0
 40
0
 40
0
 40
0
 40
1
 40
1
 40
1
 40
1
 10
389.380256
 20
25.456835
 30
0.0
 10
390.083124
 20
25.395332
 30
0.0
 10
390.785993
 20
25.333831
 30
0.0
 10
391.488861
 20
25.272330
 30
0.0
  0
LINE
  5
160
100
AcDbEntity
  8
Layer_1
 62
4
100
AcDbLine
 10
391.488861
 20
25.272330
 30
0.0
 11
408.701024
 21
23.766227
 31
0.0
  0
SPLINE
  5
161
100
AcDbEntity
  8
Layer_1
 62
4
100
AcDbSpline
 70
8
 71
3
 72
8
 73
4
 74
0
 40
0
 40
0
 40
0
 40
0
 40
1
 40
1
 40
1
 40
1
 10
408.701024
 20
23.766227
 30
0.0
 10
409.403893
 20
23.704724
 30
0.0
 10
410.106764
 20
23.643233
 30
0.0
 10
410.809636
 20
23.581753
 30
0.0
  0
LINE
  5
162
100
AcDbEntity
  8
Layer_1
 62
4
100
AcDbLine
 10
410.809636
 20
23.581753
 30
0.0
 11
423.565013
 21
22.466062
 31
0.0
  0
SPLINE
  5
163
100
AcDbEntity
  8
Layer_1
 62
4
100
AcDbSpline
 70
8
 71
3
 72
8
 73
4
 74
0
 40
0
 40
0
 40
0
 40
0
 40
1
 40
1
 40
1
 40
1
 10
423.565013
 20
22.466062
 30
0.0
 10
424.267886
 20
22.404582
 30
0.0
 10
424.970783
 20
22.343368
 30
0.0
 10
425.673703
 20
22.282418
 30
0.0
  0
LINE
  5
164
100
AcDbEntity
  8
Layer_1
 62
4
100
AcDbLine
 10
425.673703
 20
22.282418
 30
0.0
 11
426.140436
 21
22.241942
 31
0.0
  0
SPLINE
  5
165
100
AcDbEntity
  8
Layer_1
 62
4
100
AcDbSpline
 70
8
 71
3
 72
8
 73
4
 74
0
 40
0
 40
0
 40
0
 40
0
 40
1
 40
1
 40
1
 40
1
 10
426.140436
 20
22.241942
 30
0.0
 10
426.831564
 20
22.182013
 30
0.0
 10
427.526431
 20
22.302096
 30
0.0
 10
428.157363
 20
22.590495
 30
0.0
  0
LINE
  5
166
100
AcDbEntity
  8
Layer_1
 62
4
100
AcDbLine
 10
428.157363
 20
22.590495
 30
0.0
 11
434.070105
 21
25.293219
 31
0.0
  0
SPLINE
  5
167
100
AcDbEntity
  8
Layer_1
 62
4
100
AcDbSpline
 70
8
 71
3
 72
8
 73
4
 74
0
 40
0
 40
0
 40
0
 40
0
 40
1
 40
1
 40
1
 40
1
 10
434.070105
 20
25.293219
 30
0.0
 10
434.701002
 20
25.581600
 30
0.0
 10
435.395912
 20
25.701409
 30
0.0
 10
436.086953
 20
25.640942
 30
0.0
  0
LINE
  5
168
100
AcDbEntity
  8
Layer_1
 62
4
100
AcDbLine
 10
436.086953
 20
25.640942
 30
0.0
 11
506.131802
 21
19.512181
 31
0.0
  0
SPLINE
  5
169
100
AcDbEntity
  8
Layer_1
 62
4
100
AcDbSpline
 70
8
 71
3
 72
8
 73
4
 74
0
 40
0
 40
0
 40
0
 40
0
 40
1
 40
1
 40
1
 40
1
 10
506.131802
 20
19.512181
 30
0.0
 10
506.816857
 20
19.452240
 30
0.0
 10
507.465067
 20
19.175861
 30
0.0
 10
507.982612
 20
18.723047
 30
0.0
  0
LINE
  5
16a
100
AcDbEntity
  8
Layer_1
 62
4
100
AcDbLine
 10
507.982612
 20
18.723047
 30
0.0
 11
509.325700
 21
17.547943
 31
0.0
  0
SPLINE
  5
16b
100
AcDbEntity
  8
Layer_1
 62
4
100
AcDbSpline
 70
8
 71
3
 72
8
 73
4
 74
0
 40
0
 40
0
 40
0
 40
0
 40
1
 40
1
 40
1
 40
1
 10
509.325700
 20
17.547943
 30
0.0
 10
509.839170
 20
17.098699
 30
0.0
 10
510.498286
 20
16.851163
 30
0.0
 10
511.180541
 20
16.851343
 30
0.0
  0
LINE
  5
16c
100
AcDbEntity
  8
Layer_1
 62
4
100
AcDbLine
 10
511.180541
 20
16.851343
 30
0.0
 11
524.121742
 21
16.854716
 31
0.0
  0
SPLINE
  5
16d
100
AcDbEntity
  8
Layer_1
 62
4
100
AcDbSpline
 70
8
 71
3
 72
8
 73
4
 74
0
 40
0
 40
0
 40
0
 40
0
 40
1
 40
1
 40
1
 40
1
 10
524.121742
 20
16.854716
 30
0.0
 10
524.402405
 20
16.854790
 30
0.0
 10
524.671597
 20
16.743349
 30
0.0
 10
524.870081
 20
16.544916
 30
0.0
  0
SPLINE
  5
16e
100
AcDbEntity
  8
Layer_1
 62
4
100
AcDbSpline
 70
8
 71
3
 72
8
 73
4
 74
0
 40
0
 40
0
 40
0
 40
0
 40
1
 40
1
 40
1
 40
1
 10
524.870081
 20
16.544916
 30
0.0
 10
525.068565
 20
16.346484
 30
0.0
 10
525.180076
 20
16.077321
 30
0.0
 10
525.180075
 20
15.796659
 30
0.0
  0
LINE
  5
16f
100
AcDbEntity
  8
Layer_1
 62
4
100
AcDbLine
 10
525.180075
 20
15.796659
 30
0.0
 11
525.180035
 21
3.051205
 31
0.0
  0
SPLINE
  5
170
100
AcDbEntity
  8
Layer_1
 62
4
100
AcDbSpline
 70
8
 71
3
 72
8
 73
4
 74
0
 40
0
 40
0
 40
0
 40
0
 40
1
 40
1
 40
1
 40
1
 10
525.180035
 20
3.051205
 30
0.0
 10
525.180036
 20
2.770532
 30
0.0
 10
525.068530
 20
2.501356
 30
0.0
 10
524.870049
 20
2.302905
 30
0.0
  0
SPLINE
  5
171
100
AcDbEntity
  8
Layer_1
 62
4
100
AcDbSpline
 70
8
 71
3
 72
8
 73
4
 74
0
 40
0
 40
0
 40
0
 40
0
 40
1
 40
1
 40
1
 40
1
 10
524.870049
 20
2.302905
 30
0.0
 10
524.671569
 20
2.104454
 30
0.0
 10
524.402377
 20
1.992986
 30
0.0
 10
524.121704
 20
1.993029
 30
0.0
  0
LINE
  5
172
100
AcDbEntity
  8
Layer_1
 62
4
100
AcDbLine
 10
524.121704
 20
1.993029
 30
0.0
 11
509.926703
 21
1.995262
 31
0.0
  0
SPLINE
  5
173
100
AcDbEntity
  8
Layer_1
 62
4
100
AcDbSpline
 70
8
 71
3
 72
8
 73
4
 74
0
 40
0
 40
0
 40
0
 40
0
 40
1
 40
1
 40
1
 40
1
 10
509.926703
 20
1.995262
 30
0.0
 10
509.327863
 20
1.995353
 30
0.0
 10
508.828303
 20
1.537677
 30
0.0
 10
508.776089
 20
0.941118
 30
0.0
  0
LINE
  5
174
100
AcDbEntity
  8
Layer_1
 62
4
100
AcDbLine
 10
508.776089
 20
0.941118
 30
0.0
 11
501.961476
 21
-76.912371
 31
0.0
  0
SPLINE
  5
175
100
AcDbEntity
  8
Layer_1
 62
4
100
AcDbSpline
 70
8
 71
3
 72
8
 73
4
 74
0
 40
0
 40
0
 40
0
 40
0
 40
1
 40
1
 40
1
 40
1
 10
501.961476
 20
-76.912371
 30
0.0
 10
501.937767
 20
-77.183232
 30
0.0
 10
502.028857
 20
-77.451604
 30
0.0
 10
502.212542
 20
-77.652072
 30
0.0
  0
SPLINE
  5
176
100
AcDbEntity
  8
Layer_1
 62
4
100
AcDbSpline
 70
8
 71
3
 72
8
 73
4
 74
0
 40
0
 40
0
 40
0
 40
0
 40
1
 40
1
 40
1
 40
1
 10
502.212542
 20
-77.652072
 30
0.0
 10
502.396228
 20
-77.852539
 30
0.0
 10
502.655635
 20
-77.966685
 30
0.0
 10
502.927532
 20
-77.966686
 30
0.0
  0
LINE
  5
177
100
AcDbEntity
  8
Layer_1
 62
4
100
AcDbLine
 10
502.927532
 20
-77.966686
 30
0.0
 11
563.301544
 21
-77.967266
 31
0.0
  0
SPLINE
  5
178
100
AcDbEntity
  8
Layer_1
 62
4
100
AcDbSpline
 70
8
 71
3
 72
8
 73
4
 74
0
 40
0
 40
0
 40
0
 40
0
 40
1
 40
1
 40
1
 40
1
 10
563.301544
 20
-77.967266
 30
0.0
 10
563.573437
 20
-77.967270
 30
0.0
 10
563.832843
 20
-77.853129
 30
0.0
 10
564.016530
 20
-77.652666
 30
0.0
  0
SPLINE
  5
179
100
AcDbEntity
  8
Layer_1
 62
4
100
AcDbSpline
 70
8
 71
3
 72
8
 73
4
 74
0
 40
0
 40
0
 40
0
 40
0
 40
1
 40
1
 40
1
 40
1
 10
564.016530
 20
-77.652666
 30
0.0
 10
564.200216
 20
-77.452204
 30
0.0
 10
564.291309
 20
-77.183835
 30
0.0
 10
564.267602
 20
-76.912977
 30
0.0
  0
LINE
  5
17a
100
AcDbEntity
  8
Layer_1
 62
4
100
AcDbLine
 10
564.267602
 20
-76.912977
 30
0.0
 11
564.267545
 21
-76.912319
 31
0.0
  0
SPLINE
  5
17b
100
AcDbEntity
  8
Layer_1
 62
4
100
AcDbSpline
 70
8
 71
3
 72
8
 73
4
 74
0
 40
0
 40
0
 40
0
 40
0
 40
1
 40
1
 40
1
 40
1
 10
368.081353
 20
-70.280148
 30
0.0
 10
367.450778
 20
-70.224980
 30
0.0
 10
366.849061
 20
-70.555093
 30
0.0
 10
366.556782
 20
-71.116556
 30
0.0
  0
SPLINE
  5
17c
100
AcDbEntity
  8
Layer_1
 62
4
100
AcDbSpline
 70
8
 71
3
 72
8
 73
4
 74
0
 40
0
 40
0
 40
0
 40
0
 40
1
 40
1
 40
1
 40
1
 10
366.556782
 20
-71.116556
 30
0.0
 10
366.264503
 20
-71.678020
 30
0.0
 10
366.339221
 20
-72.360263
 30
0.0
 10
366.746095
 20
-72.845156
 30
0.0
  0
SPLINE
  5
17d
100
AcDbEntity
  8
Layer_1
 62
4
100
AcDbSpline
 70
8
 71
3
 72
8
 73
4
 74
0
 40
0
 40
0
 40
0
 40
0
 40
1
 40
1
 40
1
 40
1
 10
366.746095
 20
-72.845156
 30
0.0
 10
367.152969
 20
-73.330050
 30
0.0
 10
367.811872
 20
-73.522103
 30
0.0
 10
368.415559
 20
-73.331761
 30
0.0
  0
SPLINE
  5
17e
100
AcDbEntity
  8
Layer_1
 62
4
100
AcDbSpline
 70
8
 71
3
 72
8
 73
4
 74
0
 40
0
 40
0
 40
0
 40
0
 40
1
 40
1
 40
1
 40
1
 10
368.415559
 20
-73.331761
 30
0.0
 10
369.019247
 20
-73.141419
 30
0.0
 10
369.448832
 20
-72.606167
 30
0.0
 10
369.504000
 20
-71.975592
 30
0.0
  0
SPLINE
  5
17f
100
AcDbEntity
  8
Layer_1
 62
4
100
AcDbSpline
 70
8
 71
3
 72
8
 73
4
 74
0
 40
0
 40
0
 40
0
 40
0
 40
1
 40
1
 40
1
 40
1
 10
369.504000
 20
-71.975592
 30
0.0
 10
369.579331
 20
-71.114555
 30
0.0
 10
368.942390
 20
-70.355479
 30
0.0
 10
368.081353
 20
-70.280148
 30
0.0
  0
LINE
  5
180
100
AcDbEntity
  8
Layer_1
 62
4
100
AcDbLine
 10
368.081353
 20
-70.280148
 30
0.0
 11
368.081353
 21
-70.280148
 31
0.0
  0
SPLINE
  5
181
100
AcDbEntity
  8
Layer_1
 62
4
100
AcDbSpline
 70
8
 71
3
 72
8
 73
4
 74
0
 40
0
 40
0
 40
0
 40
0
 40
1
 40
1
 40
1
 40
1
 10
375.823696
 20
18.215311
 30
0.0
 10
375.193122
 20
18.270479
 30
0.0
 10
374.591405
 20
17.940366
 30
0.0
 10
374.299125
 20
17.378902
 30
0.0
  0
SPLINE
  5
182
100
AcDbEntity
  8
Layer_1
 62
4
100
AcDbSpline
 70
8
 71
3
 72
8
 73
4
 74
0
 40
0
 40
0
 40
0
 40
0
 40
1
 40
1
 40
1
 40
1
 10
374.299125
 20
17.378902
 30
0.0
 10
374.006846
 20
16.817439
 30
0.0
 10
374.081564
 20
16.135196
 30
0.0
 10
374.488438
 20
15.650302
 30
0.0
  0
SPLINE
  5
183
100
AcDbEntity
  8
Layer_1
 62
4
100
AcDbSpline
 70
8
 71
3
 72
8
 73
4
 74
0
 40
0
 40
0
 40
0
 40
0
 40
1
 40
1
 40
1
 40
1
 10
374.488438
 20
15.650302
 30
0.0
 10
374.895312
 20
15.165409
 30
0.0
 10
375.554215
 20
14.973356
 30
0.0
 10
376.157903
 20
15.163698
 30
0.0
  0
SPLINE
  5
184
100
AcDbEntity
  8
Layer_1
 62
4
100
AcDbSpline
 70
8
 71
3
 72
8
 73
4
 74
0
 40
0
 40
0
 40
0
 40
0
 40
1
 40
1
 40
1
 40
1
 10
376.157903
 20
15.163698
 30
0.0
 10
376.761590
 20
15.354040
 30
0.0
 10
377.191175
 20
15.889292
 30
0.0
 10
377.246343
 20
16.519867
 30
0.0
  0
SPLINE
  5
185
100
AcDbEntity
  8
Layer_1
 62
4
100
AcDbSpline
 70
8
 71
3
 72
8
 73
4
 74
0
 40
0
 40
0
 40
0
 40
0
 40
1
 40
1
 40
1
 40
1
 10
377.246343
 20
16.519867
 30
0.0
 10
377.321674
 20
17.380904
 30
0.0
 10
376.684733
 20
18.139980
 30
0.0
 10
375.823696
 20
18.215311
 30
0.0
  0
LINE
  5
186
100
AcDbEntity
  8
Layer_1
 62
4
100
AcDbLine
 10
375.823696
 20
18.215311
 30
0.0
 11
375.823696
 21
18.215311
 31
0.0
  0
SPLINE
  5
187
100
AcDbEntity
  8
Layer_1
 62
4
100
AcDbSpline
 70
8
 71
3
 72
8
 73
4
 74
0
 40
0
 40
0
 40
0
 40
0
 40
1
 40
1
 40
1
 40
1
 10
504.332660
 20
15.527721
 30
0.0
 10
503.702086
 20
15.582889
 30
0.0
 10
503.100369
 20
15.252776
 30
0.0
 10
502.808089
 20
14.691312
 30
0.0
  0
SPLINE
  5
188
100
AcDbEntity
  8
Layer_1
 62
4
100
AcDbSpline
 70
8
 71
3
 72
8
 73
4
 74
0
 40
0
 40
0
 40
0
 40
0
 40
1
 40
1
 40
1
 40
1
 10
502.808089
 20
14.691312
 30
0.0
 10
502.515810
 20
14.129849
 30
0.0
 10
502.590528
 20
13.447606
 30
0.0
 10
502.997402
 20
12.962713
 30
0.0
  0
SPLINE
  5
189
100
AcDbEntity
  8
Layer_1
 62
4
100
AcDbSpline
 70
8
 71
3
 72
8
 73
4
 74
0
 40
0
 40
0
 40
0
 40
0
 40
1
 40
1
 40
1
 40
1
 10
502.997402
 20
12.962713
 30
0.0
 10
503.404276
 20
12.477819
 30
0.0
 10
504.063179
 20
12.285766
 30
0.0
 10
504.666867
 20
12.476108
 30
0.0
  0
SPLINE
  5
18a
100
AcDbEntity
  8
Layer_1
 62
4
100
AcDbSpline
 70
8
 71
3
 72
8
 73
4
 74
0
 40
0
 40
0
 40
0
 40
0
 40
1
 40
1
 40
1
 40
1
 10
504.666867
 20
12.476108
 30
0.0
 10
505.270554
 20
12.666450
 30
0.0
 10
505.700139
 20
13.201702
 30
0.0
 10
505.755307
 20
13.832277
 30
0.0
  0
SPLINE
  5
18b
100
AcDbEntity
  8
Layer_1
 62
4
100
AcDbSpline
 70
8
 71
3
 72
8
 73
4
 74
0
 40
0
 40
0
 40
0
 40
0
 40
1
 40
1
 40
1
 40
1
 10
505.755307
 20
13.832277
 30
0.0
 10
505.791482
 20
14.245761
 30
0.0
 10
505.661920
 20
14.656681
 30
0.0
 10
505.395122
 20
14.974639
 30
0.0
  0
SPLINE
  5
18c
100
AcDbEntity
  8
Layer_1
 62
4
100
AcDbSpline
 70
8
 71
3
 72
8
 73
4
 74
0
 40
0
 40
0
 40
0
 40
0
 40
1
 40
1
 40
1
 40
1
 10
505.395122
 20
14.974639
 30
0.0
 10
505.128324
 20
15.292596
 30
0.0
 10
504.746145
 20
15.491546
 30
0.0
 10
504.332660
 20
15.527721
 30
0.0
  0
LINE
  5
18d
100
AcDbEntity
  8
Layer_1
 62
4
100
AcDbLine
 10
504.332660
 20
15.527721
 30
0.0
 11
504.332660
 21
15.527721
 31
0.0
  0
SPLINE
  5
18e
100
AcDbEntity
  8
Layer_1
 62
4
100
AcDbSpline
 70
8
 71
3
 72
8
 73
4
 74
0
 40
0
 40
0
 40
0
 40
0
 40
1
 40
1
 40
1
 40
1
 10
495.849310
 20
-81.437497
 30
0.0
 10
495.218735
 20
-81.382329
 30
0.0
 10
494.617018
 20
-81.712442
 30
0.0
 10
494.324739
 20
-82.273906
 30
0.0
  0
SPLINE
  5
18f
100
AcDbEntity
  8
Layer_1
 62
4
100
AcDbSpline
 70
8
 71
3
 72
8
 73
4
 74
0
 40
0
 40
0
 40
0
 40
0
 40
1
 40
1
 40
1
 40
1
 10
494.324739
 20
-82.273906
 30
0.0
 10
494.032459
 20
-82.835369
 30
0.0
 10
494.107177
 20
-83.517612
 30
0.0
 10
494.514051
 20
-84.002506
 30
0.0
  0
SPLINE
  5
190
100
AcDbEntity
  8
Layer_1
 62
4
100
AcDbSpline
 70
8
 71
3
 72
8
 73
4
 74
0
 40
0
 40
0
 40
0
 40
0
 40
1
 40
1
 40
1
 40
1
 10
494.514051
 20
-84.002506
 30
0.0
 10
494.920925
 20
-84.487399
 30
0.0
 10
495.579829
 20
-84.679452
 30
0.0
 10
496.183516
 20
-84.489110
 30
0.0
  0
SPLINE
  5
191
100
AcDbEntity
  8
Layer_1
 62
4
100
AcDbSpline
 70
8
 71
3
 72
8
 73
4
 74
0
 40
0
 40
0
 40
0
 40
0
 40
1
 40
1
 40
1
 40
1
 10
496.183516
 20
-84.489110
 30
0.0
 10
496.787203
 20
-84.298768
 30
0.0
 10
497.216788
 20
-83.763516
 30
0.0
 10
497.271956
 20
-83.132941
 30
0.0
  0
SPLINE
  5
192
100
AcDbEntity
  8
Layer_1
 62
4
100
AcDbSpline
 70
8
 71
3
 72
8
 73
4
 74
0
 40
0
 40
0
 40
0
 40
0
 40
1
 40
1
 40
1
 40
1
 10
497.271956
 20
-83.132941
 30
0.0
 10
497.308132
 20
-82.719457
 30
0.0
 10
497.178569
 20
-82.308537
 30
0.0
 10
496.911771
 20
-81.990579
 30
0.0
  0
SPLINE
  5
193
100
AcDbEntity
  8
Layer_1
 62
4
100
AcDbSpline
 70
8
 71
3
 72
8
 73
4
 74
0
 40
0
 40
0
 40
0
 40
0
 40
1
 40
1
 40
1
 40
1
 10
496.911771
 20
-81.990579
 30
0.0
 10
496.644973
 20
-81.672622
 30
0.0
 10
496.262794
 20
-81.473672
 30
0.0
 10
495.849310
 20
-81.437497
 30
0.0
  0
LINE
  5
194
100
AcDbEntity
  8
Layer_1
 62
4
100
AcDbLine
 10
495.849310
 20
-81.437497
 30
0.0
 11
495.849310
 21
-81.437497
 31
0.0
  0
SPLINE
  5
195
100
AcDbEntity
  8
Layer_1
 62
4
100
AcDbSpline
 70
8
 71
3
 72
8
 73
4
 74
0
 40
0
 40
0
 40
0
 40
0
 40
1
 40
1
 40
1
 40
1
 10
500.548587
 20
-27.724466
 30
0.0
 10
499.918013
 20
-27.669298
 30
0.0
 10
499.316296
 20
-27.999411
 30
0.0
 10
499.024016
 20
-28.560874
 30
0.0
  0
SPLINE
  5
196
100
AcDbEntity
  8
Layer_1
 62
4
100
AcDbSpline
 70
8
 71
3
 72
8
 73
4
 74
0
 40
0
 40
0
 40
0
 40
0
 40
1
 40
1
 40
1
 40
1
 10
499.024016
 20
-28.560874
 30
0.0
 10
498.731737
 20
-29.122338
 30
0.0
 10
498.806455
 20
-29.804581
 30
0.0
 10
499.213329
 20
-30.289474
 30
0.0
  0
SPLINE
  5
197
100
AcDbEntity
  8
Layer_1
 62
4
100
AcDbSpline
 70
8
 71
3
 72
8
 73
4
 74
0
 40
0
 40
0
 40
0
 40
0
 40
1
 40
1
 40
1
 40
1
 10
499.213329
 20
-30.289474
 30
0.0
 10
499.620203
 20
-30.774368
 30
0.0
 10
500.279106
 20
-30.966421
 30
0.0
 10
500.882794
 20
-30.776079
 30
0.0
  0
SPLINE
  5
198
100
AcDbEntity
  8
Layer_1
 62
4
100
AcDbSpline
 70
8
 71
3
 72
8
 73
4
 74
0
 40
0
 40
0
 40
0
 40
0
 40
1
 40
1
 40
1
 40
1
 10
500.882794
 20
-30.776079
 30
0.0
 10
501.486481
 20
-30.585737
 30
0.0
 10
501.916066
 20
-30.050485
 30
0.0
 10
501.971234
 20
-29.419910
 30
0.0
  0
SPLINE
  5
199
100
AcDbEntity
  8
Layer_1
 62
4
100
AcDbSpline
 70
8
 71
3
 72
8
 73
4
 74
0
 40
0
 40
0
 40
0
 40
0
 40
1
 40
1
 40
1
 40
1
 10
501.971234
 20
-29.419910
 30
0.0
 10
502.007409
 20
-29.006425
 30
0.0
 10
501.877847
 20
-28.595506
 30
0.0
 10
501.611049
 20
-28.277548
 30
0.0
  0
SPLINE
  5
19a
100
AcDbEntity
  8
Layer_1
 62
4
100
AcDbSpline
 70
8
 71
3
 72
8
 73
4
 74
0
 40
0
 40
0
 40
0
 40
0
 40
1
 40
1
 40
1
 40
1
 10
501.611049
 20
-28.277548
 30
0.0
 10
501.344251
 20
-27.959591
 30
0.0
 10
500.962072
 20
-27.760641
 30
0.0
 10
500.548587
 20
-27.724466
 30
0.0
  0
LINE
  5
19b
100
AcDbEntity
  8
Layer_1
 62
4
100
AcDbLine
 10
500.548587
 20
-27.724466
 30
0.0
 11
500.548587
 21
-27.724466
 31
0.0
  0
SPLINE
  5
19c
100
AcDbEntity
  8
Layer_1
 62
4
100
AcDbSpline
 70
8
 71
3
 72
8
 73
4
 74
0
 40
0
 40
0
 40
0
 40
0
 40
1
 40
1
 40
1
 40
1
 10
698.113489
 20
-70.285435
 30
0.0
 10
698.744064
 20
-70.230267
 30
0.0
 10
699.345781
 20
-70.560380
 30
0.0
 10
699.638060
 20
-71.121843
 30
0.0
  0
SPLINE
  5
19d
100
AcDbEntity
  8
Layer_1
 62
4
100
AcDbSpline
 70
8
 71
3
 72
8
 73
4
 74
0
 40
0
 40
0
 40
0
 40
0
 40
1
 40
1
 40
1
 40
1
 10
699.638060
 20
-71.121843
 30
0.0
 10
699.930339
 20
-71.683307
 30
0.0
 10
699.855622
 20
-72.365550
 30
0.0
 10
699.448748
 20
-72.850443
 30
0.0
  0
SPLINE
  5
19e
100
AcDbEntity
  8
Layer_1
 62
4
100
AcDbSpline
 70
8
 71
3
 72
8
 73
4
 74
0
 40
0
 40
0
 40
0
 40
0
 40
1
 40
1
 40
1
 40
1
 10
699.448748
 20
-72.850443
 30
0.0
 10
699.041874
 20
-73.335337
 30
0.0
 10
698.382970
 20
-73.527390
 30
0.0
 10
697.779283
 20
-73.337048
 30
0.0
  0
SPLINE
  5
19f
100
AcDbEntity
  8
Layer_1
 62
4
100
AcDbSpline
 70
8
 71
3
 72
8
 73
4
 74
0
 40
0
 40
0
 40
0
 40
0
 40
1
 40
1
 40
1
 40
1
 10
697.779283
 20
-73.337048
 30
0.0
 10
697.175596
 20
-73.146706
 30
0.0
 10
696.746011
 20
-72.611454
 30
0.0
 10
696.690842
 20
-71.980879
 30
0.0
  0
SPLINE
  5
1a0
100
AcDbEntity
  8
Layer_1
 62
4
100
AcDbSpline
 70
8
 71
3
 72
8
 73
4
 74
0
 40
0
 40
0
 40
0
 40
0
 40
1
 40
1
 40
1
 40
1
 10
696.690842
 20
-71.980879
 30
0.0
 10
696.654667
 20
-71.567394
 30
0.0
 10
696.784230
 20
-71.156475
 30
0.0
 10
697.051028
 20
-70.838517
 30
0.0
  0
SPLINE
  5
1a1
100
AcDbEntity
  8
Layer_1
 62
4
100
AcDbSpline
 70
8
 71
3
 72
8
 73
4
 74
0
 40
0
 40
0
 40
0
 40
0
 40
1
 40
1
 40
1
 40
1
 10
697.051028
 20
-70.838517
 30
0.0
 10
697.317826
 20
-70.520560
 30
0.0
 10
697.700005
 20
-70.321610
 30
0.0
 10
698.113489
 20
-70.285435
 30
0.0
  0
LINE
  5
1a2
100
AcDbEntity
  8
Layer_1
 62
4
100
AcDbLine
 10
698.113489
 20
-70.285435
 30
0.0
 11
698.113489
 21
-70.285435
 31
0.0
  0
SPLINE
  5
1a3
100
AcDbEntity
  8
Layer_1
 62
4
100
AcDbSpline
 70
8
 71
3
 72
8
 73
4
 74
0
 40
0
 40
0
 40
0
 40
0
 40
1
 40
1
 40
1
 40
1
 10
690.371146
 20
18.210024
 30
0.0
 10
691.001721
 20
18.265192
 30
0.0
 10
691.603438
 20
17.935079
 30
0.0
 10
691.895717
 20
17.373615
 30
0.0
  0
SPLINE
  5
1a4
100
AcDbEntity
  8
Layer_1
 62
4
100
AcDbSpline
 70
8
 71
3
 72
8
 73
4
 74
0
 40
0
 40
0
 40
0
 40
0
 40
1
 40
1
 40
1
 40
1
 10
691.895717
 20
17.373615
 30
0.0
 10
692.187996
 20
16.812152
 30
0.0
 10
692.113278
 20
16.129909
 30
0.0
 10
691.706404
 20
15.645015
 30
0.0
  0
SPLINE
  5
1a5
100
AcDbEntity
  8
Layer_1
 62
4
100
AcDbSpline
 70
8
 71
3
 72
8
 73
4
 74
0
 40
0
 40
0
 40
0
 40
0
 40
1
 40
1
 40
1
 40
1
 10
691.706404
 20
15.645015
 30
0.0
 10
691.299530
 20
15.160122
 30
0.0
 10
690.640627
 20
14.968069
 30
0.0
 10
690.036940
 20
15.158411
 30
0.0
  0
SPLINE
  5
1a6
100
AcDbEntity
  8
Layer_1
 62
4
100
AcDbSpline
 70
8
 71
3
 72
8
 73
4
 74
0
 40
0
 40
0
 40
0
 40
0
 40
1
 40
1
 40
1
 40
1
 10
690.036940
 20
15.158411
 30
0.0
 10
689.433252
 20
15.348753
 30
0.0
 10
689.003667
 20
15.884005
 30
0.0
 10
688.948499
 20
16.514580
 30
0.0
  0
SPLINE
  5
1a7
100
AcDbEntity
  8
Layer_1
 62
4
100
AcDbSpline
 70
8
 71
3
 72
8
 73
4
 74
0
 40
0
 40
0
 40
0
 40
0
 40
1
 40
1
 40
1
 40
1
 10
688.948499
 20
16.514580
 30
0.0
 10
688.912324
 20
16.928064
 30
0.0
 10
689.041887
 20
17.338984
 30
0.0
 10
689.308685
 20
17.656941
 30
0.0
  0
SPLINE
  5
1a8
100
AcDbEntity
  8
Layer_1
 62
4
100
AcDbSpline
 70
8
 71
3
 72
8
 73
4
 74
0
 40
0
 40
0
 40
0
 40
0
 40
1
 40
1
 40
1
 40
1
 10
689.308685
 20
17.656941
 30
0.0
 10
689.575483
 20
17.974899
 30
0.0
 10
689.957661
 20
18.173849
 30
0.0
 10
690.371146
 20
18.210024
 30
0.0
  0
LINE
  5
1a9
100
AcDbEntity
  8
Layer_1
 62
4
100
AcDbLine
 10
690.371146
 20
18.210024
 30
0.0
 11
690.371146
 21
18.210024
 31
0.0
  0
SPLINE
  5
1aa
100
AcDbEntity
  8
Layer_1
 62
4
100
AcDbSpline
 70
8
 71
3
 72
8
 73
4
 74
0
 40
0
 40
0
 40
0
 40
0
 40
1
 40
1
 40
1
 40
1
 10
561.902040
 20
15.525921
 30
0.0
 10
562.532614
 20
15.581089
 30
0.0
 10
563.134331
 20
15.250976
 30
0.0
 10
563.426611
 20
14.689512
 30
0.0
  0
SPLINE
  5
1ab
100
AcDbEntity
  8
Layer_1
 62
4
100
AcDbSpline
 70
8
 71
3
 72
8
 73
4
 74
0
 40
0
 40
0
 40
0
 40
0
 40
1
 40
1
 40
1
 40
1
 10
563.426611
 20
14.689512
 30
0.0
 10
563.718890
 20
14.128049
 30
0.0
 10
563.644172
 20
13.445806
 30
0.0
 10
563.237298
 20
12.960913
 30
0.0
  0
SPLINE
  5
1ac
100
AcDbEntity
  8
Layer_1
 62
4
100
AcDbSpline
 70
8
 71
3
 72
8
 73
4
 74
0
 40
0
 40
0
 40
0
 40
0
 40
1
 40
1
 40
1
 40
1
 10
563.237298
 20
12.960913
 30
0.0
 10
562.830424
 20
12.476019
 30
0.0
 10
562.171521
 20
12.283966
 30
0.0
 10
561.567833
 20
12.474308
 30
0.0
  0
SPLINE
  5
1ad
100
AcDbEntity
  8
Layer_1
 62
4
100
AcDbSpline
 70
8
 71
3
 72
8
 73
4
 74
0
 40
0
 40
0
 40
0
 40
0
 40
1
 40
1
 40
1
 40
1
 10
561.567833
 20
12.474308
 30
0.0
 10
560.964146
 20
12.664650
 30
0.0
 10
560.534561
 20
13.199902
 30
0.0
 10
560.479393
 20
13.830477
 30
0.0
  0
SPLINE
  5
1ae
100
AcDbEntity
  8
Layer_1
 62
4
100
AcDbSpline
 70
8
 71
3
 72
8
 73
4
 74
0
 40
0
 40
0
 40
0
 40
0
 40
1
 40
1
 40
1
 40
1
 10
560.479393
 20
13.830477
 30
0.0
 10
560.443218
 20
14.243961
 30
0.0
 10
560.572780
 20
14.654881
 30
0.0
 10
560.839578
 20
14.972839
 30
0.0
  0
SPLINE
  5
1af
100
AcDbEntity
  8
Layer_1
 62
4
100
AcDbSpline
 70
8
 71
3
 72
8
 73
4
 74
0
 40
0
 40
0
 40
0
 40
0
 40
1
 40
1
 40
1
 40
1
 10
560.839578
 20
14.972839
 30
0.0
 10
561.106376
 20
15.290796
 30
0.0
 10
561.488555
 20
15.489746
 30
0.0
 10
561.902040
 20
15.525921
 30
0.0
  0
LINE
  5
1b0
100
AcDbEntity
  8
Layer_1
 62
4
100
AcDbLine
 10
561.902040
 20
15.525921
 30
0.0
 11
561.902040
 21
15.525921
 31
0.0
  0
SPLINE
  5
1b1
100
AcDbEntity
  8
Layer_1
 62
4
100
AcDbSpline
 70
8
 71
3
 72
8
 73
4
 74
0
 40
0
 40
0
 40
0
 40
0
 40
1
 40
1
 40
1
 40
1
 10
570.385390
 20
-81.439297
 30
0.0
 10
571.015965
 20
-81.384129
 30
0.0
 10
571.617682
 20
-81.714242
 30
0.0
 10
571.909961
 20
-82.275706
 30
0.0
  0
SPLINE
  5
1b2
100
AcDbEntity
  8
Layer_1
 62
4
100
AcDbSpline
 70
8
 71
3
 72
8
 73
4
 74
0
 40
0
 40
0
 40
0
 40
0
 40
1
 40
1
 40
1
 40
1
 10
571.909961
 20
-82.275706
 30
0.0
 10
572.202241
 20
-82.837169
 30
0.0
 10
572.127523
 20
-83.519412
 30
0.0
 10
571.720649
 20
-84.004306
 30
0.0
  0
SPLINE
  5
1b3
100
AcDbEntity
  8
Layer_1
 62
4
100
AcDbSpline
 70
8
 71
3
 72
8
 73
4
 74
0
 40
0
 40
0
 40
0
 40
0
 40
1
 40
1
 40
1
 40
1
 10
571.720649
 20
-84.004306
 30
0.0
 10
571.313775
 20
-84.489199
 30
0.0
 10
570.654871
 20
-84.681252
 30
0.0
 10
570.051184
 20
-84.490910
 30
0.0
  0
SPLINE
  5
1b4
100
AcDbEntity
  8
Layer_1
 62
4
100
AcDbSpline
 70
8
 71
3
 72
8
 73
4
 74
0
 40
0
 40
0
 40
0
 40
0
 40
1
 40
1
 40
1
 40
1
 10
570.051184
 20
-84.490910
 30
0.0
 10
569.447497
 20
-84.300568
 30
0.0
 10
569.017912
 20
-83.765316
 30
0.0
 10
568.962744
 20
-83.134741
 30
0.0
  0
SPLINE
  5
1b5
100
AcDbEntity
  8
Layer_1
 62
4
100
AcDbSpline
 70
8
 71
3
 72
8
 73
4
 74
0
 40
0
 40
0
 40
0
 40
0
 40
1
 40
1
 40
1
 40
1
 10
568.962744
 20
-83.134741
 30
0.0
 10
568.926568
 20
-82.721257
 30
0.0
 10
569.056131
 20
-82.310337
 30
0.0
 10
569.322929
 20
-81.992379
 30
0.0
  0
SPLINE
  5
1b6
100
AcDbEntity
  8
Layer_1
 62
4
100
AcDbSpline
 70
8
 71
3
 72
8
 73
4
 74
0
 40
0
 40
0
 40
0
 40
0
 40
1
 40
1
 40
1
 40
1
 10
569.322929
 20
-81.992379
 30
0.0
 10
569.589727
 20
-81.674422
 30
0.0
 10
569.971906
 20
-81.475472
 30
0.0
 10
570.385390
 20
-81.439297
 30
0.0
  0
LINE
  5
1b7
100
AcDbEntity
  8
Layer_1
 62
4
100
AcDbLine
 10
570.385390
 20
-81.439297
 30
0.0
 11
570.385390
 21
-81.439297
 31
0.0
  0
SPLINE
  5
1b8
100
AcDbEntity
  8
Layer_1
 62
4
100
AcDbSpline
 70
8
 71
3
 72
8
 73
4
 74
0
 40
0
 40
0
 40
0
 40
0
 40
1
 40
1
 40
1
 40
1
 10
565.686113
 20
-27.726266
 30
0.0
 10
566.316687
 20
-27.671098
 30
0.0
 10
566.918404
 20
-28.001211
 30
0.0
 10
567.210684
 20
-28.562674
 30
0.0
  0
SPLINE
  5
1b9
100
AcDbEntity
  8
Layer_1
 62
4
100
AcDbSpline
 70
8
 71
3
 72
8
 73
4
 74
0
 40
0
 40
0
 40
0
 40
0
 40
1
 40
1
 40
1
 40
1
 10
567.210684
 20
-28.562674
 30
0.0
 10
567.502963
 20
-29.124138
 30
0.0
 10
567.428245
 20
-29.806381
 30
0.0
 10
567.021371
 20
-30.291274
 30
0.0
  0
SPLINE
  5
1ba
100
AcDbEntity
  8
Layer_1
 62
4
100
AcDbSpline
 70
8
 71
3
 72
8
 73
4
 74
0
 40
0
 40
0
 40
0
 40
0
 40
1
 40
1
 40
1
 40
1
 10
567.021371
 20
-30.291274
 30
0.0
 10
566.614497
 20
-30.776168
 30
0.0
 10
565.955594
 20
-30.968221
 30
0.0
 10
565.351906
 20
-30.777879
 30
0.0
  0
SPLINE
  5
1bb
100
AcDbEntity
  8
Layer_1
 62
4
100
AcDbSpline
 70
8
 71
3
 72
8
 73
4
 74
0
 40
0
 40
0
 40
0
 40
0
 40
1
 40
1
 40
1
 40
1
 10
565.351906
 20
-30.777879
 30
0.0
 10
564.748219
 20
-30.587537
 30
0.0
 10
564.318634
 20
-30.052285
 30
0.0
 10
564.263466
 20
-29.421710
 30
0.0
  0
SPLINE
  5
1bc
100
AcDbEntity
  8
Layer_1
 62
4
100
AcDbSpline
 70
8
 71
3
 72
8
 73
4
 74
0
 40
0
 40
0
 40
0
 40
0
 40
1
 40
1
 40
1
 40
1
 10
564.263466
 20
-29.421710
 30
0.0
 10
564.227291
 20
-29.008225
 30
0.0
 10
564.356853
 20
-28.597306
 30
0.0
 10
564.623651
 20
-28.279348
 30
0.0
  0
SPLINE
  5
1bd
100
AcDbEntity
  8
Layer_1
 62
4
100
AcDbSpline
 70
8
 71
3
 72
8
 73
4
 74
0
 40
0
 40
0
 40
0
 40
0
 40
1
 40
1
 40
1
 40
1
 10
564.623651
 20
-28.279348
 30
0.0
 10
564.890449
 20
-27.961391
 30
0.0
 10
565.272628
 20
-27.762441
 30
0.0
 10
565.686113
 20
-27.726266
 30
0.0
  0
LINE
  5
1be
100
AcDbEntity
  8
Layer_1
 62
4
100
AcDbLine
 10
565.686113
 20
-27.726266
 30
0.0
 11
565.686113
 21
-27.726266
 31
0.0
  0
LINE
  5
1bf
100
AcDbEntity
  8
Layer_1
 62
4
100
AcDbLine
 10
372.142926
 20
-66.399743
 30
0.0
 11
368.280470
 21
-66.061822
 31
0.0
  0
SPLINE
  5
1c0
100
AcDbEntity
  8
Layer_1
 62
4
100
AcDbSpline
 70
8
 71
3
 72
8
 73
4
 74
0
 40
0
 40
0
 40
0
 40
0
 40
1
 40
1
 40
1
 40
1
 10
368.280470
 20
-66.061822
 30
0.0
 10
367.989332
 20
-66.036351
 30
0.0
 10
367.773943
 20
-65.779682
 30
0.0
 10
367.799394
 20
-65.488542
 30
0.0
  0
SPLINE
  5
1c1
100
AcDbEntity
  8
Layer_1
 62
4
100
AcDbSpline
 70
8
 71
3
 72
8
 73
4
 74
0
 40
0
 40
0
 40
0
 40
0
 40
1
 40
1
 40
1
 40
1
 10
367.799394
 20
-65.488542
 30
0.0
 10
370.011449
 20
-40.181695
 30
0.0
 10
372.227156
 20
-14.881863
 30
0.0
 10
374.438964
 20
10.425035
 30
0.0
  0
SPLINE
  5
1c2
100
AcDbEntity
  8
Layer_1
 62
4
100
AcDbSpline
 70
8
 71
3
 72
8
 73
4
 74
0
 40
0
 40
0
 40
0
 40
0
 40
1
 40
1
 40
1
 40
1
 10
374.438964
 20
10.425035
 30
0.0
 10
374.464405
 20
10.716176
 30
0.0
 10
374.721053
 20
10.931547
 30
0.0
 10
375.012191
 20
10.906076
 30
0.0
  0
LINE
  5
1c3
100
AcDbEntity
  8
Layer_1
 62
4
100
AcDbLine
 10
375.012191
 20
10.906076
 30
0.0
 11
378.855181
 21
10.569858
 31
0.0
  0
SPLINE
  5
1c4
100
AcDbEntity
  8
Layer_1
 62
4
100
AcDbSpline
 70
8
 71
3
 72
8
 73
4
 74
0
 40
0
 40
0
 40
0
 40
0
 40
1
 40
1
 40
1
 40
1
 10
378.855181
 20
10.569858
 30
0.0
 10
379.206619
 20
10.539111
 30
0.0
 10
379.558055
 20
10.508354
 30
0.0
 10
379.909491
 20
10.477587
 30
0.0
  0
LINE
  5
1c5
100
AcDbEntity
  8
Layer_1
 62
4
100
AcDbLine
 10
379.909491
 20
10.477587
 30
0.0
 11
415.183077
 21
7.389541
 31
0.0
  0
SPLINE
  5
1c6
100
AcDbEntity
  8
Layer_1
 62
4
100
AcDbSpline
 70
8
 71
3
 72
8
 73
4
 74
0
 40
0
 40
0
 40
0
 40
0
 40
1
 40
1
 40
1
 40
1
 10
415.183077
 20
7.389541
 30
0.0
 10
415.474213
 20
7.364050
 30
0.0
 10
415.946256
 20
7.322822
 30
0.0
 10
416.237402
 20
7.297440
 30
0.0
  0
SPLINE
  5
1c7
100
AcDbEntity
  8
Layer_1
 62
4
100
AcDbSpline
 70
8
 71
3
 72
8
 73
4
 74
0
 40
0
 40
0
 40
0
 40
0
 40
1
 40
1
 40
1
 40
1
 10
416.237402
 20
7.297440
 30
0.0
 10
427.503958
 20
6.314755
 30
0.0
 10
438.769401
 20
5.319119
 30
0.0
 10
450.037394
 20
4.352972
 30
0.0
  0
SPLINE
  5
1c8
100
AcDbEntity
  8
Layer_1
 62
4
100
AcDbSpline
 70
8
 71
3
 72
8
 73
4
 74
0
 40
0
 40
0
 40
0
 40
0
 40
1
 40
1
 40
1
 40
1
 10
450.037394
 20
4.352972
 30
0.0
 10
450.328575
 20
4.327999
 30
0.0
 10
450.800632
 20
4.287040
 30
0.0
 10
451.091762
 20
4.261480
 30
0.0
  0
LINE
  5
1c9
100
AcDbEntity
  8
Layer_1
 62
4
100
AcDbLine
 10
451.091762
 20
4.261480
 30
0.0
 11
486.364488
 21
1.164072
 31
0.0
  0
SPLINE
  5
1ca
100
AcDbEntity
  8
Layer_1
 62
4
100
AcDbSpline
 70
8
 71
3
 72
8
 73
4
 74
0
 40
0
 40
0
 40
0
 40
0
 40
1
 40
1
 40
1
 40
1
 10
486.364488
 20
1.164072
 30
0.0
 10
486.715916
 20
1.133213
 30
0.0
 10
487.067349
 20
1.102409
 30
0.0
 10
487.418786
 20
1.071663
 30
0.0
  0
LINE
  5
1cb
100
AcDbEntity
  8
Layer_1
 62
4
100
AcDbLine
 10
487.418786
 20
1.071663
 30
0.0
 11
488.880254
 21
0.943801
 31
0.0
  0
SPLINE
  5
1cc
100
AcDbEntity
  8
Layer_1
 62
4
100
AcDbSpline
 70
8
 71
3
 72
8
 73
4
 74
0
 40
0
 40
0
 40
0
 40
0
 40
1
 40
1
 40
1
 40
1
 10
488.880254
 20
0.943801
 30
0.0
 10
489.020065
 20
0.931570
 30
0.0
 10
489.149290
 20
0.864300
 30
0.0
 10
489.239502
 20
0.756789
 30
0.0
  0
SPLINE
  5
1cd
100
AcDbEntity
  8
Layer_1
 62
4
100
AcDbSpline
 70
8
 71
3
 72
8
 73
4
 74
0
 40
0
 40
0
 40
0
 40
0
 40
1
 40
1
 40
1
 40
1
 10
489.239502
 20
0.756789
 30
0.0
 10
489.329714
 20
0.649279
 30
0.0
 10
489.373523
 20
0.510335
 30
0.0
 10
489.361290
 20
0.370524
 30
0.0
  0
LINE
  5
1ce
100
AcDbEntity
  8
Layer_1
 62
4
100
AcDbLine
 10
489.361290
 20
0.370524
 30
0.0
 11
487.793145
 21
-17.553449
 31
0.0
  0
SPLINE
  5
1cf
100
AcDbEntity
  8
Layer_1
 62
4
100
AcDbSpline
 70
8
 71
3
 72
8
 73
4
 74
0
 40
0
 40
0
 40
0
 40
0
 40
1
 40
1
 40
1
 40
1
 10
487.793145
 20
-17.553449
 30
0.0
 10
487.780913
 20
-17.693260
 30
0.0
 10
487.824721
 20
-17.832204
 30
0.0
 10
487.914933
 20
-17.939714
 30
0.0
  0
SPLINE
  5
1d0
100
AcDbEntity
  8
Layer_1
 62
4
100
AcDbSpline
 70
8
 71
3
 72
8
 73
4
 74
0
 40
0
 40
0
 40
0
 40
0
 40
1
 40
1
 40
1
 40
1
 10
487.914933
 20
-17.939714
 30
0.0
 10
488.005145
 20
-18.047225
 30
0.0
 10
488.134371
 20
-18.114495
 30
0.0
 10
488.274181
 20
-18.126726
 30
0.0
  0
LINE
  5
1d1
100
AcDbEntity
  8
Layer_1
 62
4
100
AcDbLine
 10
488.274181
 20
-18.126726
 30
0.0
 11
491.965412
 21
-18.449667
 31
0.0
  0
SPLINE
  5
1d2
100
AcDbEntity
  8
Layer_1
 62
4
100
AcDbSpline
 70
8
 71
3
 72
8
 73
4
 74
0
 40
0
 40
0
 40
0
 40
0
 40
1
 40
1
 40
1
 40
1
 10
491.965412
 20
-18.449667
 30
0.0
 10
492.105222
 20
-18.461898
 30
0.0
 10
492.234448
 20
-18.529168
 30
0.0
 10
492.324660
 20
-18.636678
 30
0.0
  0
SPLINE
  5
1d3
100
AcDbEntity
  8
Layer_1
 62
4
100
AcDbSpline
 70
8
 71
3
 72
8
 73
4
 74
0
 40
0
 40
0
 40
0
 40
0
 40
1
 40
1
 40
1
 40
1
 10
492.324660
 20
-18.636678
 30
0.0
 10
492.414872
 20
-18.744188
 30
0.0
 10
492.458680
 20
-18.883132
 30
0.0
 10
492.446448
 20
-19.022943
 30
0.0
  0
LINE
  5
1d4
100
AcDbEntity
  8
Layer_1
 62
4
100
AcDbLine
 10
492.446448
 20
-19.022943
 30
0.0
 11
490.878303
 21
-36.946916
 31
0.0
  0
SPLINE
  5
1d5
100
AcDbEntity
  8
Layer_1
 62
4
100
AcDbSpline
 70
8
 71
3
 72
8
 73
4
 74
0
 40
0
 40
0
 40
0
 40
0
 40
1
 40
1
 40
1
 40
1
 10
490.878303
 20
-36.946916
 30
0.0
 10
490.866070
 20
-37.086727
 30
0.0
 10
490.909879
 20
-37.225671
 30
0.0
 10
491.000091
 20
-37.333181
 30
0.0
  0
SPLINE
  5
1d6
100
AcDbEntity
  8
Layer_1
 62
4
100
AcDbSpline
 70
8
 71
3
 72
8
 73
4
 74
0
 40
0
 40
0
 40
0
 40
0
 40
1
 40
1
 40
1
 40
1
 10
491.000091
 20
-37.333181
 30
0.0
 10
491.090303
 20
-37.440692
 30
0.0
 10
491.219528
 20
-37.507962
 30
0.0
 10
491.359339
 20
-37.520193
 30
0.0
  0
LINE
  5
1d7
100
AcDbEntity
  8
Layer_1
 62
4
100
AcDbLine
 10
491.359339
 20
-37.520193
 30
0.0
 11
499.792227
 21
-38.257975
 31
0.0
  0
SPLINE
  5
1d8
100
AcDbEntity
  8
Layer_1
 62
4
100
AcDbSpline
 70
8
 71
3
 72
8
 73
4
 74
0
 40
0
 40
0
 40
0
 40
0
 40
1
 40
1
 40
1
 40
1
 10
499.792227
 20
-38.257975
 30
0.0
 10
499.932038
 20
-38.270206
 30
0.0
 10
500.061264
 20
-38.337476
 30
0.0
 10
500.151476
 20
-38.444987
 30
0.0
  0
SPLINE
  5
1d9
100
AcDbEntity
  8
Layer_1
 62
4
100
AcDbSpline
 70
8
 71
3
 72
8
 73
4
 74
0
 40
0
 40
0
 40
0
 40
0
 40
1
 40
1
 40
1
 40
1
 10
500.151476
 20
-38.444987
 30
0.0
 10
500.241688
 20
-38.552497
 30
0.0
 10
500.285496
 20
-38.691441
 30
0.0
 10
500.273263
 20
-38.831252
 30
0.0
  0
LINE
  5
1da
100
AcDbEntity
  8
Layer_1
 62
4
100
AcDbLine
 10
500.273263
 20
-38.831252
 30
0.0
 11
498.612857
 21
-57.809787
 31
0.0
  0
SPLINE
  5
1db
100
AcDbEntity
  8
Layer_1
 62
4
100
AcDbSpline
 70
8
 71
3
 72
8
 73
4
 74
0
 40
0
 40
0
 40
0
 40
0
 40
1
 40
1
 40
1
 40
1
 10
498.612857
 20
-57.809787
 30
0.0
 10
498.600626
 20
-57.949598
 30
0.0
 10
498.533355
 20
-58.078823
 30
0.0
 10
498.425845
 20
-58.169035
 30
0.0
  0
SPLINE
  5
1dc
100
AcDbEntity
  8
Layer_1
 62
4
100
AcDbSpline
 70
8
 71
3
 72
8
 73
4
 74
0
 40
0
 40
0
 40
0
 40
0
 40
1
 40
1
 40
1
 40
1
 10
498.425845
 20
-58.169035
 30
0.0
 10
498.318335
 20
-58.259247
 30
0.0
 10
498.179391
 20
-58.303056
 30
0.0
 10
498.039580
 20
-58.290823
 30
0.0
  0
LINE
  5
1dd
100
AcDbEntity
  8
Layer_1
 62
4
100
AcDbLine
 10
498.039580
 20
-58.290823
 30
0.0
 11
489.606692
 21
-57.553041
 31
0.0
  0
SPLINE
  5
1de
100
AcDbEntity
  8
Layer_1
 62
4
100
AcDbSpline
 70
8
 71
3
 72
8
 73
4
 74
0
 40
0
 40
0
 40
0
 40
0
 40
1
 40
1
 40
1
 40
1
 10
489.606692
 20
-57.553041
 30
0.0
 10
489.466882
 20
-57.540808
 30
0.0
 10
489.327938
 20
-57.584616
 30
0.0
 10
489.220427
 20
-57.674828
 30
0.0
  0
SPLINE
  5
1df
100
AcDbEntity
  8
Layer_1
 62
4
100
AcDbSpline
 70
8
 71
3
 72
8
 73
4
 74
0
 40
0
 40
0
 40
0
 40
0
 40
1
 40
1
 40
1
 40
1
 10
489.220427
 20
-57.674828
 30
0.0
 10
489.112917
 20
-57.765040
 30
0.0
 10
489.045647
 20
-57.894266
 30
0.0
 10
489.033416
 20
-58.034077
 30
0.0
  0
LINE
  5
1e0
100
AcDbEntity
  8
Layer_1
 62
4
100
AcDbLine
 10
489.033416
 20
-58.034077
 30
0.0
 11
487.465270
 21
-75.958060
 31
0.0
  0
SPLINE
  5
1e1
100
AcDbEntity
  8
Layer_1
 62
4
100
AcDbSpline
 70
8
 71
3
 72
8
 73
4
 74
0
 40
0
 40
0
 40
0
 40
0
 40
1
 40
1
 40
1
 40
1
 10
487.465270
 20
-75.958060
 30
0.0
 10
487.453039
 20
-76.097871
 30
0.0
 10
487.385769
 20
-76.227097
 30
0.0
 10
487.278259
 20
-76.317309
 30
0.0
  0
SPLINE
  5
1e2
100
AcDbEntity
  8
Layer_1
 62
4
100
AcDbSpline
 70
8
 71
3
 72
8
 73
4
 74
0
 40
0
 40
0
 40
0
 40
0
 40
1
 40
1
 40
1
 40
1
 10
487.278259
 20
-76.317309
 30
0.0
 10
487.170748
 20
-76.407521
 30
0.0
 10
487.031805
 20
-76.451329
 30
0.0
 10
486.891994
 20
-76.439096
 30
0.0
  0
LINE
  5
1e3
100
AcDbEntity
  8
Layer_1
 62
4
100
AcDbLine
 10
486.891994
 20
-76.439096
 30
0.0
 11
482.963390
 21
-76.095388
 31
0.0
  0
SPLINE
  5
1e4
100
AcDbEntity
  8
Layer_1
 62
4
100
AcDbSpline
 70
8
 71
3
 72
8
 73
4
 74
0
 40
0
 40
0
 40
0
 40
0
 40
1
 40
1
 40
1
 40
1
 10
482.963390
 20
-76.095388
 30
0.0
 10
482.611953
 20
-76.064641
 30
0.0
 10
482.260510
 20
-76.033951
 30
0.0
 10
481.909063
 20
-76.003317
 30
0.0
  0
LINE
  5
1e5
100
AcDbEntity
  8
Layer_1
 62
4
100
AcDbLine
 10
481.909063
 20
-76.003317
 30
0.0
 11
446.634349
 21
-72.928623
 31
0.0
  0
SPLINE
  5
1e6
100
AcDbEntity
  8
Layer_1
 62
4
100
AcDbSpline
 70
8
 71
3
 72
8
 73
4
 74
0
 40
0
 40
0
 40
0
 40
0
 40
1
 40
1
 40
1
 40
1
 10
446.634349
 20
-72.928623
 30
0.0
 10
446.343203
 20
-72.903241
 30
0.0
 10
445.871194
 20
-72.861625
 30
0.0
 10
445.580098
 20
-72.835685
 30
0.0
  0
SPLINE
  5
1e7
100
AcDbEntity
  8
Layer_1
 62
4
100
AcDbSpline
 70
8
 71
3
 72
8
 73
4
 74
0
 40
0
 40
0
 40
0
 40
0
 40
1
 40
1
 40
1
 40
1
 10
445.580098
 20
-72.835685
 30
0.0
 10
433.563176
 20
-71.764766
 30
0.0
 10
421.543533
 20
-70.724728
 30
0.0
 10
409.525138
 20
-69.670544
 30
0.0
  0
SPLINE
  5
1e8
100
AcDbEntity
  8
Layer_1
 62
4
100
AcDbSpline
 70
8
 71
3
 72
8
 73
4
 74
0
 40
0
 40
0
 40
0
 40
0
 40
1
 40
1
 40
1
 40
1
 10
409.525138
 20
-69.670544
 30
0.0
 10
409.234007
 20
-69.644993
 30
0.0
 10
408.761986
 20
-69.603626
 30
0.0
 10
408.470848
 20
-69.578155
 30
0.0
  0
LINE
  5
1e9
100
AcDbEntity
  8
Layer_1
 62
4
100
AcDbLine
 10
408.470848
 20
-69.578155
 30
0.0
 11
373.197138
 21
-66.492105
 31
0.0
  0
LINE
  5
1ea
100
AcDbEntity
  8
Layer_1
 62
4
100
AcDbLine
 10
373.197138
 20
-66.492105
 30
0.0
 11
372.142926
 21
-66.399743
 31
0.0
  0
ENDSEC
  0
SECTION
  2
OBJECTS
  0
DICTIONARY
  5
C
330
0
100
AcDbDictionary
  3
ACAD_GROUP
350
D
  3
ACAD_MLINESTYLE
350
17
  0
DICTIONARY
  5
D
330
C
100
AcDbDictionary
  0
DICTIONARY
  5
1A
330
C
100
AcDbDictionary
  0
DICTIONARY
  5
17
330
C
100
AcDbDictionary
  3
STANDARD
350
18
  0
DICTIONARY
  5
19
330
C
100
AcDbDictionary
  0
ENDSEC
  0
EOF
