  0
SECTION
  2
HEADER
  9
$ACADVER
  1
AC1014
  9
$HANDSEED
  5
FFFF
  9
$INSUNITS
 70
     0
  9
$MEASUREMENT
 70
     1
  0
ENDSEC
  0
SECTION
  2
TABLES
  0
TABLE
  2
VPORT
  5
8
330
0
100
AcDbSymbolTable
 70
     4
  0
VPORT
  5
2E
330
8
100
AcDbSymbolTableRecord
100
AcDbViewportTableRecord
  2
*ACTIVE
 70
     0
 10
0.0
 20
0.0
 11
1.0
 21
1.0
 12
210.0
 22
148.5
 13
0.0
 23
0.0
 14
10.0
 24
10.0
 15
10.0
 25
10.0
 16
0.0
 26
0.0
 36
1.0
 17
0.0
 27
0.0
 37
0.0
 40
341.0
 41
1.24
 42
50.0
 43
0.0
 44
0.0
 50
0.0
 51
0.0
 71
     0
 72
   100
 73
     1
 74
     3
 75
     0
 76
     0
 77
     0
 78
     0
  0
ENDTAB
  0
TABLE
  2
LTYPE
  5
5
330
0
100
AcDbSymbolTable
 70
     1
  0
LTYPE
  5
14
330
5
100
AcDbSymbolTableRecord
100
AcDbLinetypeTableRecord
  2
BYBLOCK
 70
     0
  3

 72
    65
 73
     0
 40
0.0
  0
LTYPE
  5
15
330
5
100
AcDbSymbolTableRecord
100
AcDbLinetypeTableRecord
  2
BYLAYER
 70
     0
  3

 72
    65
 73
     0
 40
0.0
  0
LTYPE
  5
16
330
5
100
AcDbSymbolTableRecord
100
AcDbLinetypeTableRecord
  2
CONTINUOUS
 70
     0
  3
Solid line
 72
    65
 73
     0
 40
0.0
  0
ENDTAB
  0
TABLE
  2
LAYER
  5
2
100
AcDbSymbolTable
 70
2
  0
LAYER
  5
50
100
AcDbSymbolTableRecord
100
AcDbLayerTableRecord
  2
0
 70
0
  6
CONTINUOUS
  0
LAYER
  5
51
100
AcDbSymbolTableRecord
100
AcDbLayerTableRecord
  2
Layer_1
 70
0
  6
CONTINUOUS
  0
ENDTAB
  0
TABLE
  2
STYLE
  5
3
330
0
100
AcDbSymbolTable
 70
     1
  0
STYLE
  5
11
330
3
100
AcDbSymbolTableRecord
100
AcDbTextStyleTableRecord
  2
STANDARD
 70
     0
 40
0.0
 41
1.0
 50
0.0
 71
     0
 42
2.5
  3
txt
  4

  0
ENDTAB
  0
TABLE
  2
VIEW
  5
6
330
0
100
AcDbSymbolTable
 70
     0
  0
ENDTAB
  0
TABLE
  2
UCS
  5
7
330
0
100
AcDbSymbolTable
 70
     0
  0
ENDTAB
  0
TABLE
  2
APPID
  5
9
330
0
100
AcDbSymbolTable
 70
     2
  0
APPID
  5
12
330
9
100
AcDbSymbolTableRecord
100
AcDbRegAppTableRecord
  2
ACAD
 70
     0
  0
ENDTAB
  0
TABLE
  2
DIMSTYLE
  5
A
330
0
100
AcDbSymbolTable
 70
     1
  0
DIMSTYLE
105
27
330
A
100
AcDbSymbolTableRecord
100
AcDbDimStyleTableRecord
  2
ISO-25
 70
     0
  3

  4

  5

  6

  7

 40
1.0
 41
2.5
 42
0.625
 43
3.75
 44
1.25
 45
0.0
 46
0.0
 47
0.0
 48
0.0
140
2.5
141
2.5
142
0.0
143
0.03937007874016
144
1.0
145
0.0
146
1.0
147
0.625
 71
     0
 72
     0
 73
     0
 74
     0
 75
     0
 76
     0
 77
     1
 78
     8
170
     0
171
     3
172
     1
173
     0
174
     0
175
     0
176
     0
177
     0
178
     0
270
     2
271
     2
272
     2
273
     2
274
     3
340
11
275
     0
280
     0
281
     0
282
     0
283
     0
284
     8
285
     0
286
     0
287
     3
288
     0
  0
ENDTAB
  0
TABLE
  2
BLOCK_RECORD
  5
1
330
0
100
AcDbSymbolTable
 70
     1
  0
BLOCK_RECORD
  5
1F
330
1
100
AcDbSymbolTableRecord
100
AcDbBlockTableRecord
  2
*MODEL_SPACE
  0
BLOCK_RECORD
  5
1B
330
1
100
AcDbSymbolTableRecord
100
AcDbBlockTableRecord
  2
*PAPER_SPACE
  0
ENDTAB
  0
ENDSEC
  0
SECTION
  2
BLOCKS
  0
BLOCK
  5
20
330
1F
100
AcDbEntity
  8
0
100
AcDbBlockBegin
  2
*MODEL_SPACE
 70
     0
 10
0.0
 20
0.0
 30
0.0
  3
*MODEL_SPACE
  1

  0
ENDBLK
  5
21
330
1F
100
AcDbEntity
  8
0
100
AcDbBlockEnd
  0
BLOCK
  5
1C
330
1B
100
AcDbEntity
 67
     1
  8
0
100
AcDbBlockBegin
  2
*PAPER_SPACE
  1

  0
ENDBLK
  5
1D
330
1B
100
AcDbEntity
 67
     1
  8
0
100
AcDbBlockEnd
  0
ENDSEC
  0
SECTION
  2
ENTITIES
  0
LINE
  5
100
100
AcDbEntity
  8
Layer_1
 62
3
100
AcDbLine
 10
451.093552
 20
4.263071
 30
0.0
 11
451.349940
 21
7.185104
 31
0.0
  0
SPLINE
  5
101
100
AcDbEntity
  8
Layer_1
 62
3
100
AcDbSpline
 70
8
 71
3
 72
8
 73
4
 74
0
 40
0
 40
0
 40
0
 40
0
 40
1
 40
1
 40
1
 40
1
 10
451.349940
 20
7.185104
 30
0.0
 10
451.375484
 20
7.476259
 30
0.0
 10
451.632184
 20
7.691603
 30
0.0
 10
451.923346
 20
7.666129
 30
0.0
  0
LINE
  5
102
100
AcDbEntity
  8
Layer_1
 62
3
100
AcDbLine
 10
451.923346
 20
7.666129
 30
0.0
 11
486.142645
 21
4.672338
 31
0.0
  0
SPLINE
  5
103
100
AcDbEntity
  8
Layer_1
 62
3
100
AcDbSpline
 70
8
 71
3
 72
8
 73
4
 74
0
 40
0
 40
0
 40
0
 40
0
 40
1
 40
1
 40
1
 40
1
 10
486.142645
 20
4.672338
 30
0.0
 10
486.282432
 20
4.660111
 30
0.0
 10
486.411631
 20
4.592835
 30
0.0
 10
486.501802
 20
4.485320
 30
0.0
  0
SPLINE
  5
104
100
AcDbEntity
  8
Layer_1
 62
3
100
AcDbSpline
 70
8
 71
3
 72
8
 73
4
 74
0
 40
0
 40
0
 40
0
 40
0
 40
1
 40
1
 40
1
 40
1
 10
486.501802
 20
4.485320
 30
0.0
 10
486.591972
 20
4.377806
 30
0.0
 10
486.635722
 20
4.238866
 30
0.0
 10
486.623422
 20
4.099084
 30
0.0
  0
LINE
  5
105
100
AcDbEntity
  8
Layer_1
 62
3
100
AcDbLine
 10
486.623422
 20
4.099084
 30
0.0
 11
486.365727
 21
1.165099
 31
0.0
  0
SPLINE
  5
106
100
AcDbEntity
  8
Layer_1
 62
3
100
AcDbSpline
 70
8
 71
3
 72
8
 73
4
 74
0
 40
0
 40
0
 40
0
 40
0
 40
1
 40
1
 40
1
 40
1
 10
486.365727
 20
1.165099
 30
0.0
 10
486.353426
 20
1.025297
 30
0.0
 10
486.397167
 20
0.886334
 30
0.0
 10
486.487327
 20
0.778784
 30
0.0
  0
SPLINE
  5
107
100
AcDbEntity
  8
Layer_1
 62
3
100
AcDbSpline
 70
8
 71
3
 72
8
 73
4
 74
0
 40
0
 40
0
 40
0
 40
0
 40
1
 40
1
 40
1
 40
1
 10
486.487327
 20
0.778784
 30
0.0
 10
486.577488
 20
0.671234
 30
0.0
 10
486.706681
 20
0.603907
 30
0.0
 10
486.846485
 20
0.591616
 30
0.0
  0
SPLINE
  5
108
100
AcDbEntity
  8
Layer_1
 62
3
100
AcDbSpline
 70
8
 71
3
 72
8
 73
4
 74
0
 40
0
 40
0
 40
0
 40
0
 40
1
 40
1
 40
1
 40
1
 10
486.846485
 20
0.591616
 30
0.0
 10
487.179566
 20
0.562330
 30
0.0
 10
487.512651
 20
0.533082
 30
0.0
 10
487.845740
 20
0.503871
 30
0.0
  0
LINE
  5
109
100
AcDbEntity
  8
Layer_1
 62
3
100
AcDbLine
 10
487.845740
 20
0.503871
 30
0.0
 11
488.308125
 21
0.463318
 31
0.0
  0
SPLINE
  5
10a
100
AcDbEntity
  8
Layer_1
 62
3
100
AcDbSpline
 70
8
 71
3
 72
8
 73
4
 74
0
 40
0
 40
0
 40
0
 40
0
 40
1
 40
1
 40
1
 40
1
 10
488.308125
 20
0.463318
 30
0.0
 10
488.599278
 20
0.437785
 30
0.0
 10
488.814625
 20
0.181090
 30
0.0
 10
488.789151
 20
-0.110068
 30
0.0
  0
LINE
  5
10b
100
AcDbEntity
  8
Layer_1
 62
3
100
AcDbLine
 10
488.789151
 20
-0.110068
 30
0.0
 11
487.220988
 21
-18.034261
 31
0.0
  0
SPLINE
  5
10c
100
AcDbEntity
  8
Layer_1
 62
3
100
AcDbSpline
 70
8
 71
3
 72
8
 73
4
 74
0
 40
0
 40
0
 40
0
 40
0
 40
1
 40
1
 40
1
 40
1
 10
487.220988
 20
-18.034261
 30
0.0
 10
487.208755
 20
-18.174072
 30
0.0
 10
487.252563
 20
-18.313016
 30
0.0
 10
487.342775
 20
-18.420526
 30
0.0
  0
SPLINE
  5
10d
100
AcDbEntity
  8
Layer_1
 62
3
100
AcDbSpline
 70
8
 71
3
 72
8
 73
4
 74
0
 40
0
 40
0
 40
0
 40
0
 40
1
 40
1
 40
1
 40
1
 10
487.342775
 20
-18.420526
 30
0.0
 10
487.432987
 20
-18.528036
 30
0.0
 10
487.562213
 20
-18.595307
 30
0.0
 10
487.702024
 20
-18.607538
 30
0.0
  0
LINE
  5
10e
100
AcDbEntity
  8
Layer_1
 62
3
100
AcDbLine
 10
487.702024
 20
-18.607538
 30
0.0
 11
491.392586
 21
-18.930420
 31
0.0
  0
SPLINE
  5
10f
100
AcDbEntity
  8
Layer_1
 62
3
100
AcDbSpline
 70
8
 71
3
 72
8
 73
4
 74
0
 40
0
 40
0
 40
0
 40
0
 40
1
 40
1
 40
1
 40
1
 10
491.392586
 20
-18.930420
 30
0.0
 10
491.532397
 20
-18.942651
 30
0.0
 10
491.661623
 20
-19.009921
 30
0.0
 10
491.751835
 20
-19.117431
 30
0.0
  0
SPLINE
  5
110
100
AcDbEntity
  8
Layer_1
 62
3
100
AcDbSpline
 70
8
 71
3
 72
8
 73
4
 74
0
 40
0
 40
0
 40
0
 40
0
 40
1
 40
1
 40
1
 40
1
 10
491.751835
 20
-19.117431
 30
0.0
 10
491.842047
 20
-19.224942
 30
0.0
 10
491.885855
 20
-19.363886
 30
0.0
 10
491.873622
 20
-19.503696
 30
0.0
  0
LINE
  5
111
100
AcDbEntity
  8
Layer_1
 62
3
100
AcDbLine
 10
491.873622
 20
-19.503696
 30
0.0
 11
490.305546
 21
-37.426893
 31
0.0
  0
SPLINE
  5
112
100
AcDbEntity
  8
Layer_1
 62
3
100
AcDbSpline
 70
8
 71
3
 72
8
 73
4
 74
0
 40
0
 40
0
 40
0
 40
0
 40
1
 40
1
 40
1
 40
1
 10
490.305546
 20
-37.426893
 30
0.0
 10
490.293313
 20
-37.566704
 30
0.0
 10
490.337122
 20
-37.705647
 30
0.0
 10
490.427334
 20
-37.813158
 30
0.0
  0
SPLINE
  5
113
100
AcDbEntity
  8
Layer_1
 62
3
100
AcDbSpline
 70
8
 71
3
 72
8
 73
4
 74
0
 40
0
 40
0
 40
0
 40
0
 40
1
 40
1
 40
1
 40
1
 10
490.427334
 20
-37.813158
 30
0.0
 10
490.517545
 20
-37.920668
 30
0.0
 10
490.646771
 20
-37.987938
 30
0.0
 10
490.786582
 20
-38.000169
 30
0.0
  0
LINE
  5
114
100
AcDbEntity
  8
Layer_1
 62
3
100
AcDbLine
 10
490.786582
 20
-38.000169
 30
0.0
 11
499.221024
 21
-38.738087
 31
0.0
  0
SPLINE
  5
115
100
AcDbEntity
  8
Layer_1
 62
3
100
AcDbSpline
 70
8
 71
3
 72
8
 73
4
 74
0
 40
0
 40
0
 40
0
 40
0
 40
1
 40
1
 40
1
 40
1
 10
499.221024
 20
-38.738087
 30
0.0
 10
499.360835
 20
-38.750318
 30
0.0
 10
499.490061
 20
-38.817588
 30
0.0
 10
499.580272
 20
-38.925099
 30
0.0
  0
SPLINE
  5
116
100
AcDbEntity
  8
Layer_1
 62
3
100
AcDbSpline
 70
8
 71
3
 72
8
 73
4
 74
0
 40
0
 40
0
 40
0
 40
0
 40
1
 40
1
 40
1
 40
1
 10
499.580272
 20
-38.925099
 30
0.0
 10
499.670484
 20
-39.032609
 30
0.0
 10
499.714293
 20
-39.171553
 30
0.0
 10
499.702060
 20
-39.311364
 30
0.0
  0
LINE
  5
117
100
AcDbEntity
  8
Layer_1
 62
3
100
AcDbLine
 10
499.702060
 20
-39.311364
 30
0.0
 11
498.133809
 21
-57.236553
 31
0.0
  0
SPLINE
  5
118
100
AcDbEntity
  8
Layer_1
 62
3
100
AcDbSpline
 70
8
 71
3
 72
8
 73
4
 74
0
 40
0
 40
0
 40
0
 40
0
 40
1
 40
1
 40
1
 40
1
 10
498.133809
 20
-57.236553
 30
0.0
 10
498.121578
 20
-57.376364
 30
0.0
 10
498.054308
 20
-57.505589
 30
0.0
 10
497.946798
 20
-57.595801
 30
0.0
  0
SPLINE
  5
119
100
AcDbEntity
  8
Layer_1
 62
3
100
AcDbSpline
 70
8
 71
3
 72
8
 73
4
 74
0
 40
0
 40
0
 40
0
 40
0
 40
1
 40
1
 40
1
 40
1
 10
497.946798
 20
-57.595801
 30
0.0
 10
497.839287
 20
-57.686013
 30
0.0
 10
497.700343
 20
-57.729822
 30
0.0
 10
497.560533
 20
-57.717589
 30
0.0
  0
LINE
  5
11a
100
AcDbEntity
  8
Layer_1
 62
3
100
AcDbLine
 10
497.560533
 20
-57.717589
 30
0.0
 11
489.126091
 21
-56.979671
 31
0.0
  0
SPLINE
  5
11b
100
AcDbEntity
  8
Layer_1
 62
3
100
AcDbSpline
 70
8
 71
3
 72
8
 73
4
 74
0
 40
0
 40
0
 40
0
 40
0
 40
1
 40
1
 40
1
 40
1
 10
489.126091
 20
-56.979671
 30
0.0
 10
488.986280
 20
-56.967438
 30
0.0
 10
488.847336
 20
-57.011246
 30
0.0
 10
488.739826
 20
-57.101458
 30
0.0
  0
SPLINE
  5
11c
100
AcDbEntity
  8
Layer_1
 62
3
100
AcDbSpline
 70
8
 71
3
 72
8
 73
4
 74
0
 40
0
 40
0
 40
0
 40
0
 40
1
 40
1
 40
1
 40
1
 10
488.739826
 20
-57.101458
 30
0.0
 10
488.632315
 20
-57.191670
 30
0.0
 10
488.565045
 20
-57.320896
 30
0.0
 10
488.552814
 20
-57.460707
 30
0.0
  0
LINE
  5
11d
100
AcDbEntity
  8
Layer_1
 62
3
100
AcDbLine
 10
488.552814
 20
-57.460707
 30
0.0
 11
486.984738
 21
-75.383903
 31
0.0
  0
SPLINE
  5
11e
100
AcDbEntity
  8
Layer_1
 62
3
100
AcDbSpline
 70
8
 71
3
 72
8
 73
4
 74
0
 40
0
 40
0
 40
0
 40
0
 40
1
 40
1
 40
1
 40
1
 10
486.984738
 20
-75.383903
 30
0.0
 10
486.972507
 20
-75.523713
 30
0.0
 10
486.905236
 20
-75.652938
 30
0.0
 10
486.797726
 20
-75.743148
 30
0.0
  0
SPLINE
  5
11f
100
AcDbEntity
  8
Layer_1
 62
3
100
AcDbSpline
 70
8
 71
3
 72
8
 73
4
 74
0
 40
0
 40
0
 40
0
 40
0
 40
1
 40
1
 40
1
 40
1
 10
486.797726
 20
-75.743148
 30
0.0
 10
486.690215
 20
-75.833358
 30
0.0
 10
486.551272
 20
-75.877165
 30
0.0
 10
486.411462
 20
-75.864929
 30
0.0
  0
LINE
  5
120
100
AcDbEntity
  8
Layer_1
 62
3
100
AcDbLine
 10
486.411462
 20
-75.864929
 30
0.0
 11
482.484489
 21
-75.521293
 31
0.0
  0
SPLINE
  5
121
100
AcDbEntity
  8
Layer_1
 62
3
100
AcDbSpline
 70
8
 71
3
 72
8
 73
4
 74
0
 40
0
 40
0
 40
0
 40
0
 40
1
 40
1
 40
1
 40
1
 10
482.484489
 20
-75.521293
 30
0.0
 10
482.193329
 20
-75.495814
 30
0.0
 10
481.936628
 20
-75.711155
 30
0.0
 10
481.911084
 20
-76.002308
 30
0.0
  0
LINE
  5
122
100
AcDbEntity
  8
Layer_1
 62
3
100
AcDbLine
 10
481.911084
 20
-76.002308
 30
0.0
 11
481.653598
 21
-78.936894
 31
0.0
  0
SPLINE
  5
123
100
AcDbEntity
  8
Layer_1
 62
3
100
AcDbSpline
 70
8
 71
3
 72
8
 73
4
 74
0
 40
0
 40
0
 40
0
 40
0
 40
1
 40
1
 40
1
 40
1
 10
481.653598
 20
-78.936894
 30
0.0
 10
481.628055
 20
-79.228048
 30
0.0
 10
481.371352
 20
-79.443390
 30
0.0
 10
481.080193
 20
-79.417909
 30
0.0
  0
LINE
  5
124
100
AcDbEntity
  8
Layer_1
 62
3
100
AcDbLine
 10
481.080193
 20
-79.417909
 30
0.0
 11
446.861663
 21
-76.423352
 31
0.0
  0
SPLINE
  5
125
100
AcDbEntity
  8
Layer_1
 62
3
100
AcDbSpline
 70
8
 71
3
 72
8
 73
4
 74
0
 40
0
 40
0
 40
0
 40
0
 40
1
 40
1
 40
1
 40
1
 10
446.861663
 20
-76.423352
 30
0.0
 10
446.570500
 20
-76.397875
 30
0.0
 10
446.355095
 20
-76.141224
 30
0.0
 10
446.380499
 20
-75.850054
 30
0.0
  0
LINE
  5
126
100
AcDbEntity
  8
Layer_1
 62
3
100
AcDbLine
 10
446.380499
 20
-75.850054
 30
0.0
 11
446.635484
 21
-72.927527
 31
0.0
  0
SPLINE
  5
127
100
AcDbEntity
  8
Layer_1
 62
3
100
AcDbSpline
 70
8
 71
3
 72
8
 73
4
 74
0
 40
0
 40
0
 40
0
 40
0
 40
1
 40
1
 40
1
 40
1
 10
446.635484
 20
-72.927527
 30
0.0
 10
446.660900
 20
-72.636259
 30
0.0
 10
446.445604
 20
-72.379444
 30
0.0
 10
446.154372
 20
-72.353631
 30
0.0
  0
LINE
  5
128
100
AcDbEntity
  8
Layer_1
 62
3
100
AcDbLine
 10
446.154372
 20
-72.353631
 30
0.0
 11
437.734011
 21
-71.606907
 31
0.0
  0
SPLINE
  5
129
100
AcDbEntity
  8
Layer_1
 62
3
100
AcDbSpline
 70
8
 71
3
 72
8
 73
4
 74
0
 40
0
 40
0
 40
0
 40
0
 40
1
 40
1
 40
1
 40
1
 10
437.734011
 20
-71.606907
 30
0.0
 10
437.382609
 20
-71.575757
 30
0.0
 10
437.031189
 20
-71.544807
 30
0.0
 10
436.679751
 20
-71.514059
 30
0.0
  0
LINE
  5
12a
100
AcDbEntity
  8
Layer_1
 62
3
100
AcDbLine
 10
436.679751
 20
-71.514059
 30
0.0
 11
409.045778
 21
-69.096289
 31
0.0
  0
SPLINE
  5
12b
100
AcDbEntity
  8
Layer_1
 62
3
100
AcDbSpline
 70
8
 71
3
 72
8
 73
4
 74
0
 40
0
 40
0
 40
0
 40
0
 40
1
 40
1
 40
1
 40
1
 10
409.045778
 20
-69.096289
 30
0.0
 10
408.754596
 20
-69.070813
 30
0.0
 10
408.497860
 20
-69.286132
 30
0.0
 10
408.472243
 20
-69.577302
 30
0.0
  0
LINE
  5
12c
100
AcDbEntity
  8
Layer_1
 62
3
100
AcDbLine
 10
408.472243
 20
-69.577302
 30
0.0
 11
408.214542
 21
-72.511357
 31
0.0
  0
SPLINE
  5
12d
100
AcDbEntity
  8
Layer_1
 62
3
100
AcDbSpline
 70
8
 71
3
 72
8
 73
4
 74
0
 40
0
 40
0
 40
0
 40
0
 40
1
 40
1
 40
1
 40
1
 10
408.214542
 20
-72.511357
 30
0.0
 10
408.188924
 20
-72.802513
 30
0.0
 10
407.932179
 20
-73.017808
 30
0.0
 10
407.641014
 20
-72.992291
 30
0.0
  0
LINE
  5
12e
100
AcDbEntity
  8
Layer_1
 62
3
100
AcDbLine
 10
407.641014
 20
-72.992291
 30
0.0
 11
374.965247
 21
-70.128513
 31
0.0
  0
SPLINE
  5
12f
100
AcDbEntity
  8
Layer_1
 62
3
100
AcDbSpline
 70
8
 71
3
 72
8
 73
4
 74
0
 40
0
 40
0
 40
0
 40
0
 40
1
 40
1
 40
1
 40
1
 10
374.965247
 20
-70.128513
 30
0.0
 10
374.674082
 20
-70.102998
 30
0.0
 10
374.458701
 20
-69.846322
 30
0.0
 10
374.484128
 20
-69.555149
 30
0.0
  0
LINE
  5
130
100
AcDbEntity
  8
Layer_1
 62
3
100
AcDbLine
 10
374.484128
 20
-69.555149
 30
0.0
 11
374.739886
 21
-66.626094
 31
0.0
  0
SPLINE
  5
131
100
AcDbEntity
  8
Layer_1
 62
3
100
AcDbSpline
 70
8
 71
3
 72
8
 73
4
 74
0
 40
0
 40
0
 40
0
 40
0
 40
1
 40
1
 40
1
 40
1
 10
374.739886
 20
-66.626094
 30
0.0
 10
374.765308
 20
-66.334936
 30
0.0
 10
374.549912
 20
-66.078287
 30
0.0
 10
374.258759
 20
-66.052819
 30
0.0
  0
LINE
  5
132
100
AcDbEntity
  8
Layer_1
 62
3
100
AcDbLine
 10
374.258759
 20
-66.052819
 30
0.0
 11
370.467698
 21
-65.721174
 31
0.0
  0
SPLINE
  5
133
100
AcDbEntity
  8
Layer_1
 62
3
100
AcDbSpline
 70
8
 71
3
 72
8
 73
4
 74
0
 40
0
 40
0
 40
0
 40
0
 40
1
 40
1
 40
1
 40
1
 10
370.467698
 20
-65.721174
 30
0.0
 10
370.116260
 20
-65.690434
 30
0.0
 10
369.764825
 20
-65.659647
 30
0.0
 10
369.413395
 20
-65.628814
 30
0.0
  0
LINE
  5
134
100
AcDbEntity
  8
Layer_1
 62
3
100
AcDbLine
 10
369.413395
 20
-65.628814
 30
0.0
 11
368.855350
 21
-65.579841
 31
0.0
  0
SPLINE
  5
135
100
AcDbEntity
  8
Layer_1
 62
3
100
AcDbSpline
 70
8
 71
3
 72
8
 73
4
 74
0
 40
0
 40
0
 40
0
 40
0
 40
1
 40
1
 40
1
 40
1
 10
368.855350
 20
-65.579841
 30
0.0
 10
368.564195
 20
-65.554296
 30
0.0
 10
368.348852
 20
-65.297596
 30
0.0
 10
368.374325
 20
-65.006435
 30
0.0
  0
LINE
  5
136
100
AcDbEntity
  8
Layer_1
 62
3
100
AcDbLine
 10
368.374325
 20
-65.006435
 30
0.0
 11
369.942402
 21
-47.083239
 31
0.0
  0
SPLINE
  5
137
100
AcDbEntity
  8
Layer_1
 62
3
100
AcDbSpline
 70
8
 71
3
 72
8
 73
4
 74
0
 40
0
 40
0
 40
0
 40
0
 40
1
 40
1
 40
1
 40
1
 10
369.942402
 20
-47.083239
 30
0.0
 10
369.973148
 20
-46.731802
 30
0.0
 10
370.003885
 20
-46.380363
 30
0.0
 10
370.034612
 20
-46.028924
 30
0.0
  0
LINE
  5
138
100
AcDbEntity
  8
Layer_1
 62
3
100
AcDbLine
 10
370.034612
 20
-46.028924
 30
0.0
 11
371.601927
 21
-28.103653
 31
0.0
  0
SPLINE
  5
139
100
AcDbEntity
  8
Layer_1
 62
3
100
AcDbSpline
 70
8
 71
3
 72
8
 73
4
 74
0
 40
0
 40
0
 40
0
 40
0
 40
1
 40
1
 40
1
 40
1
 10
371.601927
 20
-28.103653
 30
0.0
 10
371.632655
 20
-27.752214
 30
0.0
 10
371.663402
 20
-27.400776
 30
0.0
 10
371.694167
 20
-27.049340
 30
0.0
  0
LINE
  5
13a
100
AcDbEntity
  8
Layer_1
 62
3
100
AcDbLine
 10
371.694167
 20
-27.049340
 30
0.0
 11
373.263006
 21
-9.128218
 31
0.0
  0
SPLINE
  5
13b
100
AcDbEntity
  8
Layer_1
 62
3
100
AcDbSpline
 70
8
 71
3
 72
8
 73
4
 74
0
 40
0
 40
0
 40
0
 40
0
 40
1
 40
1
 40
1
 40
1
 10
373.263006
 20
-9.128218
 30
0.0
 10
373.293771
 20
-8.776782
 30
0.0
 10
373.324518
 20
-8.425345
 30
0.0
 10
373.355246
 20
-8.073906
 30
0.0
  0
LINE
  5
13c
100
AcDbEntity
  8
Layer_1
 62
3
100
AcDbLine
 10
373.355246
 20
-8.073906
 30
0.0
 11
374.922648
 21
9.852361
 31
0.0
  0
SPLINE
  5
13d
100
AcDbEntity
  8
Layer_1
 62
3
100
AcDbSpline
 70
8
 71
3
 72
8
 73
4
 74
0
 40
0
 40
0
 40
0
 40
0
 40
1
 40
1
 40
1
 40
1
 10
374.922648
 20
9.852361
 30
0.0
 10
374.934870
 20
9.992166
 30
0.0
 10
375.002135
 20
10.121387
 30
0.0
 10
375.109641
 20
10.211592
 30
0.0
  0
SPLINE
  5
13e
100
AcDbEntity
  8
Layer_1
 62
3
100
AcDbSpline
 70
8
 71
3
 72
8
 73
4
 74
0
 40
0
 40
0
 40
0
 40
0
 40
1
 40
1
 40
1
 40
1
 10
375.109641
 20
10.211592
 30
0.0
 10
375.217148
 20
10.301797
 30
0.0
 10
375.356088
 20
10.345596
 30
0.0
 10
375.495890
 20
10.333350
 30
0.0
  0
LINE
  5
13f
100
AcDbEntity
  8
Layer_1
 62
3
100
AcDbLine
 10
375.495890
 20
10.333350
 30
0.0
 11
380.899582
 21
9.860046
 31
0.0
  0
SPLINE
  5
140
100
AcDbEntity
  8
Layer_1
 62
3
100
AcDbSpline
 70
8
 71
3
 72
8
 73
4
 74
0
 40
0
 40
0
 40
0
 40
0
 40
1
 40
1
 40
1
 40
1
 10
380.899582
 20
9.860046
 30
0.0
 10
381.039386
 20
9.847801
 30
0.0
 10
381.178329
 20
9.891599
 30
0.0
 10
381.285840
 20
9.981803
 30
0.0
  0
SPLINE
  5
141
100
AcDbEntity
  8
Layer_1
 62
3
100
AcDbSpline
 70
8
 71
3
 72
8
 73
4
 74
0
 40
0
 40
0
 40
0
 40
0
 40
1
 40
1
 40
1
 40
1
 10
381.285840
 20
9.981803
 30
0.0
 10
381.393351
 20
10.072006
 30
0.0
 10
381.460623
 20
10.201227
 30
0.0
 10
381.472854
 20
10.341033
 30
0.0
  0
LINE
  5
142
100
AcDbEntity
  8
Layer_1
 62
3
100
AcDbLine
 10
381.472854
 20
10.341033
 30
0.0
 11
381.729494
 21
13.274096
 31
0.0
  0
SPLINE
  5
143
100
AcDbEntity
  8
Layer_1
 62
3
100
AcDbSpline
 70
8
 71
3
 72
8
 73
4
 74
0
 40
0
 40
0
 40
0
 40
0
 40
1
 40
1
 40
1
 40
1
 10
381.729494
 20
13.274096
 30
0.0
 10
381.754967
 20
13.565241
 30
0.0
 10
382.011626
 20
13.780617
 30
0.0
 10
382.302773
 20
13.755162
 30
0.0
  0
LINE
  5
144
100
AcDbEntity
  8
Layer_1
 62
3
100
AcDbLine
 10
382.302773
 20
13.755162
 30
0.0
 11
414.957492
 21
10.900252
 31
0.0
  0
SPLINE
  5
145
100
AcDbEntity
  8
Layer_1
 62
3
100
AcDbSpline
 70
8
 71
3
 72
8
 73
4
 74
0
 40
0
 40
0
 40
0
 40
0
 40
1
 40
1
 40
1
 40
1
 10
414.957492
 20
10.900252
 30
0.0
 10
415.248696
 20
10.874796
 30
0.0
 10
415.464191
 20
10.618191
 30
0.0
 10
415.438929
 20
10.326971
 30
0.0
  0
LINE
  5
146
100
AcDbEntity
  8
Layer_1
 62
3
100
AcDbLine
 10
415.438929
 20
10.326971
 30
0.0
 11
415.183961
 21
7.389725
 31
0.0
  0
SPLINE
  5
147
100
AcDbEntity
  8
Layer_1
 62
3
100
AcDbSpline
 70
8
 71
3
 72
8
 73
4
 74
0
 40
0
 40
0
 40
0
 40
0
 40
1
 40
1
 40
1
 40
1
 10
415.183961
 20
7.389725
 30
0.0
 10
415.158702
 20
7.098510
 30
0.0
 10
415.374201
 20
6.841914
 30
0.0
 10
415.665401
 20
6.816474
 30
0.0
  0
LINE
  5
148
100
AcDbEntity
  8
Layer_1
 62
3
100
AcDbLine
 10
415.665401
 20
6.816474
 30
0.0
 11
441.528561
 21
4.556752
 31
0.0
  0
SPLINE
  5
149
100
AcDbEntity
  8
Layer_1
 62
3
100
AcDbSpline
 70
8
 71
3
 72
8
 73
4
 74
0
 40
0
 40
0
 40
0
 40
0
 40
1
 40
1
 40
1
 40
1
 10
441.528561
 20
4.556752
 30
0.0
 10
441.880002
 20
4.526044
 30
0.0
 10
442.231462
 20
4.495559
 30
0.0
 10
442.582942
 20
4.465299
 30
0.0
  0
LINE
  5
14a
100
AcDbEntity
  8
Layer_1
 62
3
100
AcDbLine
 10
442.582942
 20
4.465299
 30
0.0
 11
450.520902
 21
3.781960
 31
0.0
  0
SPLINE
  5
14b
100
AcDbEntity
  8
Layer_1
 62
3
100
AcDbSpline
 70
8
 71
3
 72
8
 73
4
 74
0
 40
0
 40
0
 40
0
 40
0
 40
1
 40
1
 40
1
 40
1
 10
450.520902
 20
3.781960
 30
0.0
 10
450.812215
 20
3.756879
 30
0.0
 10
451.068815
 20
3.972440
 30
0.0
 10
451.094371
 20
4.263712
 30
0.0
  0
LINE
  5
14c
100
AcDbEntity
  8
Layer_1
 62
3
100
AcDbLine
 10
451.094371
 20
4.263712
 30
0.0
 11
451.093552
 21
4.263071
 31
0.0
  0
LINE
  5
14d
100
AcDbEntity
  8
Layer_1
 62
3
100
AcDbLine
 10
697.874223
 20
-65.007832
 30
0.0
 11
696.306147
 21
-47.084635
 31
0.0
  0
SPLINE
  5
14e
100
AcDbEntity
  8
Layer_1
 62
3
100
AcDbSpline
 70
8
 71
3
 72
8
 73
4
 74
0
 40
0
 40
0
 40
0
 40
0
 40
1
 40
1
 40
1
 40
1
 10
696.306147
 20
-47.084635
 30
0.0
 10
696.275401
 20
-46.733198
 30
0.0
 10
696.244661
 20
-46.381760
 30
0.0
 10
696.213926
 20
-46.030321
 30
0.0
  0
LINE
  5
14f
100
AcDbEntity
  8
Layer_1
 62
3
100
AcDbLine
 10
696.213926
 20
-46.030321
 30
0.0
 11
693.533255
 21
-15.379090
 31
0.0
  0
SPLINE
  5
150
100
AcDbEntity
  8
Layer_1
 62
3
100
AcDbSpline
 70
8
 71
3
 72
8
 73
4
 74
0
 40
0
 40
0
 40
0
 40
0
 40
1
 40
1
 40
1
 40
1
 10
693.533255
 20
-15.379090
 30
0.0
 10
693.502520
 20
-15.027651
 30
0.0
 10
693.471780
 20
-14.676213
 30
0.0
 10
693.441034
 20
-14.324775
 30
0.0
  0
LINE
  5
151
100
AcDbEntity
  8
Layer_1
 62
3
100
AcDbLine
 10
693.441034
 20
-14.324775
 30
0.0
 11
691.325931
 21
9.850967
 31
0.0
  0
SPLINE
  5
152
100
AcDbEntity
  8
Layer_1
 62
3
100
AcDbSpline
 70
8
 71
3
 72
8
 73
4
 74
0
 40
0
 40
0
 40
0
 40
0
 40
1
 40
1
 40
1
 40
1
 10
691.325931
 20
9.850967
 30
0.0
 10
691.313700
 20
9.990776
 30
0.0
 10
691.246429
 20
10.120000
 30
0.0
 10
691.138919
 20
10.210209
 30
0.0
  0
SPLINE
  5
153
100
AcDbEntity
  8
Layer_1
 62
3
100
AcDbSpline
 70
8
 71
3
 72
8
 73
4
 74
0
 40
0
 40
0
 40
0
 40
0
 40
1
 40
1
 40
1
 40
1
 10
691.138919
 20
10.210209
 30
0.0
 10
691.031408
 20
10.300417
 30
0.0
 10
690.892464
 20
10.344221
 30
0.0
 10
690.752656
 20
10.331984
 30
0.0
  0
LINE
  5
154
100
AcDbEntity
  8
Layer_1
 62
3
100
AcDbLine
 10
690.752656
 20
10.331984
 30
0.0
 11
685.355639
 21
9.859605
 31
0.0
  0
SPLINE
  5
155
100
AcDbEntity
  8
Layer_1
 62
3
100
AcDbSpline
 70
8
 71
3
 72
8
 73
4
 74
0
 40
0
 40
0
 40
0
 40
0
 40
1
 40
1
 40
1
 40
1
 10
685.355639
 20
9.859605
 30
0.0
 10
685.215834
 20
9.847367
 30
0.0
 10
685.076894
 20
9.891172
 30
0.0
 10
684.969390
 20
9.981382
 30
0.0
  0
SPLINE
  5
156
100
AcDbEntity
  8
Layer_1
 62
3
100
AcDbSpline
 70
8
 71
3
 72
8
 73
4
 74
0
 40
0
 40
0
 40
0
 40
0
 40
1
 40
1
 40
1
 40
1
 10
684.969390
 20
9.981382
 30
0.0
 10
684.861885
 20
10.071593
 30
0.0
 10
684.794623
 20
10.200818
 30
0.0
 10
684.782404
 20
10.340625
 30
0.0
  0
LINE
  5
157
100
AcDbEntity
  8
Layer_1
 62
3
100
AcDbLine
 10
684.782404
 20
10.340625
 30
0.0
 11
684.525886
 21
13.275506
 31
0.0
  0
SPLINE
  5
158
100
AcDbEntity
  8
Layer_1
 62
3
100
AcDbSpline
 70
8
 71
3
 72
8
 73
4
 74
0
 40
0
 40
0
 40
0
 40
0
 40
1
 40
1
 40
1
 40
1
 10
684.525886
 20
13.275506
 30
0.0
 10
684.513668
 20
13.415315
 30
0.0
 10
684.446407
 20
13.544542
 30
0.0
 10
684.338902
 20
13.634756
 30
0.0
  0
SPLINE
  5
159
100
AcDbEntity
  8
Layer_1
 62
3
100
AcDbSpline
 70
8
 71
3
 72
8
 73
4
 74
0
 40
0
 40
0
 40
0
 40
0
 40
1
 40
1
 40
1
 40
1
 10
684.338902
 20
13.634756
 30
0.0
 10
684.231398
 20
13.724970
 30
0.0
 10
684.092457
 20
13.768779
 30
0.0
 10
683.952650
 20
13.756545
 30
0.0
  0
LINE
  5
15a
100
AcDbEntity
  8
Layer_1
 62
3
100
AcDbLine
 10
683.952650
 20
13.756545
 30
0.0
 11
654.040820
 21
11.139459
 31
0.0
  0
SPLINE
  5
15b
100
AcDbEntity
  8
Layer_1
 62
3
100
AcDbSpline
 70
8
 71
3
 72
8
 73
4
 74
0
 40
0
 40
0
 40
0
 40
0
 40
1
 40
1
 40
1
 40
1
 10
654.040820
 20
11.139459
 30
0.0
 10
653.901017
 20
11.127228
 30
0.0
 10
653.771800
 20
11.059956
 30
0.0
 10
653.681601
 20
10.952444
 30
0.0
  0
SPLINE
  5
15c
100
AcDbEntity
  8
Layer_1
 62
3
100
AcDbSpline
 70
8
 71
3
 72
8
 73
4
 74
0
 40
0
 40
0
 40
0
 40
0
 40
1
 40
1
 40
1
 40
1
 10
653.681601
 20
10.952444
 30
0.0
 10
653.591402
 20
10.844933
 30
0.0
 10
653.547611
 20
10.705991
 30
0.0
 10
653.559864
 20
10.566189
 30
0.0
  0
LINE
  5
15d
100
AcDbEntity
  8
Layer_1
 62
3
100
AcDbLine
 10
653.559864
 20
10.566189
 30
0.0
 11
653.817134
 21
7.630621
 31
0.0
  0
SPLINE
  5
15e
100
AcDbEntity
  8
Layer_1
 62
3
100
AcDbSpline
 70
8
 71
3
 72
8
 73
4
 74
0
 40
0
 40
0
 40
0
 40
0
 40
1
 40
1
 40
1
 40
1
 10
653.817134
 20
7.630621
 30
0.0
 10
653.829387
 20
7.490822
 30
0.0
 10
653.785595
 20
7.351883
 30
0.0
 10
653.695395
 20
7.244376
 30
0.0
  0
SPLINE
  5
15f
100
AcDbEntity
  8
Layer_1
 62
3
100
AcDbSpline
 70
8
 71
3
 72
8
 73
4
 74
0
 40
0
 40
0
 40
0
 40
0
 40
1
 40
1
 40
1
 40
1
 10
653.695395
 20
7.244376
 30
0.0
 10
653.605195
 20
7.136869
 30
0.0
 10
653.475977
 20
7.069604
 30
0.0
 10
653.336175
 20
7.057382
 30
0.0
  0
LINE
  5
160
100
AcDbEntity
  8
Layer_1
 62
3
100
AcDbLine
 10
653.336175
 20
7.057382
 30
0.0
 11
618.477814
 21
4.009678
 31
0.0
  0
SPLINE
  5
161
100
AcDbEntity
  8
Layer_1
 62
3
100
AcDbSpline
 70
8
 71
3
 72
8
 73
4
 74
0
 40
0
 40
0
 40
0
 40
0
 40
1
 40
1
 40
1
 40
1
 10
618.477814
 20
4.009678
 30
0.0
 10
618.126374
 20
3.978951
 30
0.0
 10
617.774936
 20
3.948214
 30
0.0
 10
617.423498
 20
3.917467
 30
0.0
  0
LINE
  5
162
100
AcDbEntity
  8
Layer_1
 62
3
100
AcDbLine
 10
617.423498
 20
3.917467
 30
0.0
 11
601.482271
 21
2.522791
 31
0.0
  0
SPLINE
  5
163
100
AcDbEntity
  8
Layer_1
 62
3
100
AcDbSpline
 70
8
 71
3
 72
8
 73
4
 74
0
 40
0
 40
0
 40
0
 40
0
 40
1
 40
1
 40
1
 40
1
 10
601.482271
 20
2.522791
 30
0.0
 10
601.342484
 20
2.510559
 30
0.0
 10
601.203565
 20
2.554377
 30
0.0
 10
601.096095
 20
2.644600
 30
0.0
  0
SPLINE
  5
164
100
AcDbEntity
  8
Layer_1
 62
3
100
AcDbSpline
 70
8
 71
3
 72
8
 73
4
 74
0
 40
0
 40
0
 40
0
 40
0
 40
1
 40
1
 40
1
 40
1
 10
601.096095
 20
2.644600
 30
0.0
 10
600.988625
 20
2.734824
 30
0.0
 10
600.921413
 20
2.864056
 30
0.0
 10
600.909254
 20
3.003849
 30
0.0
  0
LINE
  5
165
100
AcDbEntity
  8
Layer_1
 62
3
100
AcDbLine
 10
600.909254
 20
3.003849
 30
0.0
 11
600.653566
 21
5.937849
 31
0.0
  0
SPLINE
  5
166
100
AcDbEntity
  8
Layer_1
 62
3
100
AcDbSpline
 70
8
 71
3
 72
8
 73
4
 74
0
 40
0
 40
0
 40
0
 40
0
 40
1
 40
1
 40
1
 40
1
 10
600.653566
 20
5.937849
 30
0.0
 10
600.641408
 20
6.077644
 30
0.0
 10
600.574196
 20
6.206878
 30
0.0
 10
600.466726
 20
6.297103
 30
0.0
  0
SPLINE
  5
167
100
AcDbEntity
  8
Layer_1
 62
3
100
AcDbSpline
 70
8
 71
3
 72
8
 73
4
 74
0
 40
0
 40
0
 40
0
 40
0
 40
1
 40
1
 40
1
 40
1
 10
600.466726
 20
6.297103
 30
0.0
 10
600.359255
 20
6.387328
 30
0.0
 10
600.220336
 20
6.431149
 30
0.0
 10
600.080547
 20
6.418918
 30
0.0
  0
LINE
  5
168
100
AcDbEntity
  8
Layer_1
 62
3
100
AcDbLine
 10
600.080547
 20
6.418918
 30
0.0
 11
565.862471
 21
3.425616
 31
0.0
  0
SPLINE
  5
169
100
AcDbEntity
  8
Layer_1
 62
3
100
AcDbSpline
 70
8
 71
3
 72
8
 73
4
 74
0
 40
0
 40
0
 40
0
 40
0
 40
1
 40
1
 40
1
 40
1
 10
565.862471
 20
3.425616
 30
0.0
 10
565.722665
 20
3.413386
 30
0.0
 10
565.593444
 20
3.346117
 30
0.0
 10
565.503239
 20
3.238608
 30
0.0
  0
SPLINE
  5
16a
100
AcDbEntity
  8
Layer_1
 62
3
100
AcDbSpline
 70
8
 71
3
 72
8
 73
4
 74
0
 40
0
 40
0
 40
0
 40
0
 40
1
 40
1
 40
1
 40
1
 10
565.503239
 20
3.238608
 30
0.0
 10
565.413033
 20
3.131099
 30
0.0
 10
565.369233
 20
2.992158
 30
0.0
 10
565.381474
 20
2.852353
 30
0.0
  0
LINE
  5
16b
100
AcDbEntity
  8
Layer_1
 62
3
100
AcDbLine
 10
565.381474
 20
2.852353
 30
0.0
 11
565.638640
 21
-0.084780
 31
0.0
  0
SPLINE
  5
16c
100
AcDbEntity
  8
Layer_1
 62
3
100
AcDbSpline
 70
8
 71
3
 72
8
 73
4
 74
0
 40
0
 40
0
 40
0
 40
0
 40
1
 40
1
 40
1
 40
1
 10
565.638640
 20
-0.084780
 30
0.0
 10
565.650879
 20
-0.224548
 30
0.0
 10
565.607062
 20
-0.363449
 30
0.0
 10
565.516839
 20
-0.470894
 30
0.0
  0
SPLINE
  5
16d
100
AcDbEntity
  8
Layer_1
 62
3
100
AcDbSpline
 70
8
 71
3
 72
8
 73
4
 74
0
 40
0
 40
0
 40
0
 40
0
 40
1
 40
1
 40
1
 40
1
 10
565.516839
 20
-0.470894
 30
0.0
 10
565.426615
 20
-0.578339
 30
0.0
 10
565.297385
 20
-0.645518
 30
0.0
 10
565.157607
 20
-0.657635
 30
0.0
  0
LINE
  5
16e
100
AcDbEntity
  8
Layer_1
 62
3
100
AcDbLine
 10
565.157607
 20
-0.657635
 30
0.0
 11
563.696212
 21
-0.784487
 31
0.0
  0
SPLINE
  5
16f
100
AcDbEntity
  8
Layer_1
 62
3
100
AcDbSpline
 70
8
 71
3
 72
8
 73
4
 74
0
 40
0
 40
0
 40
0
 40
0
 40
1
 40
1
 40
1
 40
1
 10
563.696212
 20
-0.784487
 30
0.0
 10
563.556430
 20
-0.796604
 30
0.0
 10
563.427195
 20
-0.863781
 30
0.0
 10
563.336966
 20
-0.971226
 30
0.0
  0
SPLINE
  5
170
100
AcDbEntity
  8
Layer_1
 62
3
100
AcDbSpline
 70
8
 71
3
 72
8
 73
4
 74
0
 40
0
 40
0
 40
0
 40
0
 40
1
 40
1
 40
1
 40
1
 10
563.336966
 20
-0.971226
 30
0.0
 10
563.246736
 20
-1.078671
 30
0.0
 10
563.202910
 20
-1.217573
 30
0.0
 10
563.215139
 20
-1.357345
 30
0.0
  0
LINE
  5
171
100
AcDbEntity
  8
Layer_1
 62
3
100
AcDbLine
 10
563.215139
 20
-1.357345
 30
0.0
 11
564.783477
 21
-19.283530
 31
0.0
  0
SPLINE
  5
172
100
AcDbEntity
  8
Layer_1
 62
3
100
AcDbSpline
 70
8
 71
3
 72
8
 73
4
 74
0
 40
0
 40
0
 40
0
 40
0
 40
1
 40
1
 40
1
 40
1
 10
564.783477
 20
-19.283530
 30
0.0
 10
564.795708
 20
-19.423341
 30
0.0
 10
564.862978
 20
-19.552566
 30
0.0
 10
564.970489
 20
-19.642778
 30
0.0
  0
SPLINE
  5
173
100
AcDbEntity
  8
Layer_1
 62
3
100
AcDbSpline
 70
8
 71
3
 72
8
 73
4
 74
0
 40
0
 40
0
 40
0
 40
0
 40
1
 40
1
 40
1
 40
1
 10
564.970489
 20
-19.642778
 30
0.0
 10
565.077999
 20
-19.732990
 30
0.0
 10
565.216943
 20
-19.776799
 30
0.0
 10
565.356754
 20
-19.764566
 30
0.0
  0
LINE
  5
174
100
AcDbEntity
  8
Layer_1
 62
3
100
AcDbLine
 10
565.356754
 20
-19.764566
 30
0.0
 11
569.047317
 21
-19.441684
 31
0.0
  0
SPLINE
  5
175
100
AcDbEntity
  8
Layer_1
 62
3
100
AcDbSpline
 70
8
 71
3
 72
8
 73
4
 74
0
 40
0
 40
0
 40
0
 40
0
 40
1
 40
1
 40
1
 40
1
 10
569.047317
 20
-19.441684
 30
0.0
 10
569.187127
 20
-19.429451
 30
0.0
 10
569.326071
 20
-19.473259
 30
0.0
 10
569.433582
 20
-19.563471
 30
0.0
  0
SPLINE
  5
176
100
AcDbEntity
  8
Layer_1
 62
3
100
AcDbSpline
 70
8
 71
3
 72
8
 73
4
 74
0
 40
0
 40
0
 40
0
 40
0
 40
1
 40
1
 40
1
 40
1
 10
569.433582
 20
-19.563471
 30
0.0
 10
569.541092
 20
-19.653683
 30
0.0
 10
569.608362
 20
-19.782909
 30
0.0
 10
569.620593
 20
-19.922720
 30
0.0
  0
LINE
  5
177
100
AcDbEntity
  8
Layer_1
 62
3
100
AcDbLine
 10
569.620593
 20
-19.922720
 30
0.0
 11
571.188670
 21
-37.845916
 31
0.0
  0
SPLINE
  5
178
100
AcDbEntity
  8
Layer_1
 62
3
100
AcDbSpline
 70
8
 71
3
 72
8
 73
4
 74
0
 40
0
 40
0
 40
0
 40
0
 40
1
 40
1
 40
1
 40
1
 10
571.188670
 20
-37.845916
 30
0.0
 10
571.200901
 20
-37.985727
 30
0.0
 10
571.268171
 20
-38.114953
 30
0.0
 10
571.375681
 20
-38.205165
 30
0.0
  0
SPLINE
  5
179
100
AcDbEntity
  8
Layer_1
 62
3
100
AcDbSpline
 70
8
 71
3
 72
8
 73
4
 74
0
 40
0
 40
0
 40
0
 40
0
 40
1
 40
1
 40
1
 40
1
 10
571.375681
 20
-38.205165
 30
0.0
 10
571.483192
 20
-38.295376
 30
0.0
 10
571.622135
 20
-38.339185
 30
0.0
 10
571.761946
 20
-38.326952
 30
0.0
  0
LINE
  5
17a
100
AcDbEntity
  8
Layer_1
 62
3
100
AcDbLine
 10
571.761946
 20
-38.326952
 30
0.0
 11
580.196388
 21
-37.589034
 31
0.0
  0
SPLINE
  5
17b
100
AcDbEntity
  8
Layer_1
 62
3
100
AcDbSpline
 70
8
 71
3
 72
8
 73
4
 74
0
 40
0
 40
0
 40
0
 40
0
 40
1
 40
1
 40
1
 40
1
 10
580.196388
 20
-37.589034
 30
0.0
 10
580.336199
 20
-37.576801
 30
0.0
 10
580.475143
 20
-37.620610
 30
0.0
 10
580.582653
 20
-37.710822
 30
0.0
  0
SPLINE
  5
17c
100
AcDbEntity
  8
Layer_1
 62
3
100
AcDbSpline
 70
8
 71
3
 72
8
 73
4
 74
0
 40
0
 40
0
 40
0
 40
0
 40
1
 40
1
 40
1
 40
1
 10
580.582653
 20
-37.710822
 30
0.0
 10
580.690163
 20
-37.801034
 30
0.0
 10
580.757433
 20
-37.930259
 30
0.0
 10
580.769664
 20
-38.070070
 30
0.0
  0
LINE
  5
17d
100
AcDbEntity
  8
Layer_1
 62
3
100
AcDbLine
 10
580.769664
 20
-38.070070
 30
0.0
 11
582.337567
 21
-55.991274
 31
0.0
  0
SPLINE
  5
17e
100
AcDbEntity
  8
Layer_1
 62
3
100
AcDbSpline
 70
8
 71
3
 72
8
 73
4
 74
0
 40
0
 40
0
 40
0
 40
0
 40
1
 40
1
 40
1
 40
1
 10
582.337567
 20
-55.991274
 30
0.0
 10
582.349799
 20
-56.131085
 30
0.0
 10
582.305991
 20
-56.270029
 30
0.0
 10
582.215779
 20
-56.377539
 30
0.0
  0
SPLINE
  5
17f
100
AcDbEntity
  8
Layer_1
 62
3
100
AcDbSpline
 70
8
 71
3
 72
8
 73
4
 74
0
 40
0
 40
0
 40
0
 40
0
 40
1
 40
1
 40
1
 40
1
 10
582.215779
 20
-56.377539
 30
0.0
 10
582.125567
 20
-56.485050
 30
0.0
 10
581.996341
 20
-56.552320
 30
0.0
 10
581.856531
 20
-56.564551
 30
0.0
  0
LINE
  5
180
100
AcDbEntity
  8
Layer_1
 62
3
100
AcDbLine
 10
581.856531
 20
-56.564551
 30
0.0
 11
573.422089
 21
-57.302469
 31
0.0
  0
SPLINE
  5
181
100
AcDbEntity
  8
Layer_1
 62
3
100
AcDbSpline
 70
8
 71
3
 72
8
 73
4
 74
0
 40
0
 40
0
 40
0
 40
0
 40
1
 40
1
 40
1
 40
1
 10
573.422089
 20
-57.302469
 30
0.0
 10
573.282278
 20
-57.314700
 30
0.0
 10
573.153052
 20
-57.381970
 30
0.0
 10
573.062840
 20
-57.489480
 30
0.0
  0
SPLINE
  5
182
100
AcDbEntity
  8
Layer_1
 62
3
100
AcDbSpline
 70
8
 71
3
 72
8
 73
4
 74
0
 40
0
 40
0
 40
0
 40
0
 40
1
 40
1
 40
1
 40
1
 10
573.062840
 20
-57.489480
 30
0.0
 10
572.972628
 20
-57.596991
 30
0.0
 10
572.928820
 20
-57.735935
 30
0.0
 10
572.941053
 20
-57.875745
 30
0.0
  0
LINE
  5
183
100
AcDbEntity
  8
Layer_1
 62
3
100
AcDbLine
 10
572.941053
 20
-57.875745
 30
0.0
 11
574.509303
 21
-75.800934
 31
0.0
  0
SPLINE
  5
184
100
AcDbEntity
  8
Layer_1
 62
3
100
AcDbSpline
 70
8
 71
3
 72
8
 73
4
 74
0
 40
0
 40
0
 40
0
 40
0
 40
1
 40
1
 40
1
 40
1
 10
574.509303
 20
-75.800934
 30
0.0
 10
574.534773
 20
-76.092080
 30
0.0
 10
574.791435
 20
-76.307458
 30
0.0
 10
575.082583
 20
-76.282000
 30
0.0
  0
LINE
  5
185
100
AcDbEntity
  8
Layer_1
 62
3
100
AcDbLine
 10
575.082583
 20
-76.282000
 30
0.0
 11
579.015030
 21
-75.938176
 31
0.0
  0
SPLINE
  5
186
100
AcDbEntity
  8
Layer_1
 62
3
100
AcDbSpline
 70
8
 71
3
 72
8
 73
4
 74
0
 40
0
 40
0
 40
0
 40
0
 40
1
 40
1
 40
1
 40
1
 10
579.015030
 20
-75.938176
 30
0.0
 10
579.306181
 20
-75.912719
 30
0.0
 10
579.562848
 20
-76.128092
 30
0.0
 10
579.588330
 20
-76.419240
 30
0.0
  0
LINE
  5
187
100
AcDbEntity
  8
Layer_1
 62
3
100
AcDbLine
 10
579.588330
 20
-76.419240
 30
0.0
 11
579.845153
 21
-79.353372
 31
0.0
  0
SPLINE
  5
188
100
AcDbEntity
  8
Layer_1
 62
3
100
AcDbSpline
 70
8
 71
3
 72
8
 73
4
 74
0
 40
0
 40
0
 40
0
 40
0
 40
1
 40
1
 40
1
 40
1
 10
579.845153
 20
-79.353372
 30
0.0
 10
579.870636
 20
-79.644513
 30
0.0
 10
580.127307
 20
-79.859874
 30
0.0
 10
580.418449
 20
-79.834397
 30
0.0
  0
LINE
  5
189
100
AcDbEntity
  8
Layer_1
 62
3
100
AcDbLine
 10
580.418449
 20
-79.834397
 30
0.0
 11
614.636446
 21
-76.840188
 31
0.0
  0
SPLINE
  5
18a
100
AcDbEntity
  8
Layer_1
 62
3
100
AcDbSpline
 70
8
 71
3
 72
8
 73
4
 74
0
 40
0
 40
0
 40
0
 40
0
 40
1
 40
1
 40
1
 40
1
 10
614.636446
 20
-76.840188
 30
0.0
 10
614.776235
 20
-76.827958
 30
0.0
 10
614.905434
 20
-76.760680
 30
0.0
 10
614.995604
 20
-76.653164
 30
0.0
  0
SPLINE
  5
18b
100
AcDbEntity
  8
Layer_1
 62
3
100
AcDbSpline
 70
8
 71
3
 72
8
 73
4
 74
0
 40
0
 40
0
 40
0
 40
0
 40
1
 40
1
 40
1
 40
1
 10
614.995604
 20
-76.653164
 30
0.0
 10
615.085774
 20
-76.545647
 30
0.0
 10
615.129524
 20
-76.406706
 30
0.0
 10
615.117222
 20
-76.266924
 30
0.0
  0
LINE
  5
18c
100
AcDbEntity
  8
Layer_1
 62
3
100
AcDbLine
 10
615.117222
 20
-76.266924
 30
0.0
 11
614.859824
 21
-73.336316
 31
0.0
  0
SPLINE
  5
18d
100
AcDbEntity
  8
Layer_1
 62
3
100
AcDbSpline
 70
8
 71
3
 72
8
 73
4
 74
0
 40
0
 40
0
 40
0
 40
0
 40
1
 40
1
 40
1
 40
1
 10
614.859824
 20
-73.336316
 30
0.0
 10
614.847523
 20
-73.196524
 30
0.0
 10
614.891269
 20
-73.057572
 30
0.0
 10
614.981434
 20
-72.950040
 30
0.0
  0
SPLINE
  5
18e
100
AcDbEntity
  8
Layer_1
 62
3
100
AcDbSpline
 70
8
 71
3
 72
8
 73
4
 74
0
 40
0
 40
0
 40
0
 40
0
 40
1
 40
1
 40
1
 40
1
 10
614.981434
 20
-72.950040
 30
0.0
 10
615.071599
 20
-72.842507
 30
0.0
 10
615.200795
 20
-72.775204
 30
0.0
 10
615.340590
 20
-72.762942
 30
0.0
  0
LINE
  5
18f
100
AcDbEntity
  8
Layer_1
 62
3
100
AcDbLine
 10
615.340590
 20
-72.762942
 30
0.0
 11
626.954465
 21
-71.743849
 31
0.0
  0
SPLINE
  5
190
100
AcDbEntity
  8
Layer_1
 62
3
100
AcDbSpline
 70
8
 71
3
 72
8
 73
4
 74
0
 40
0
 40
0
 40
0
 40
0
 40
1
 40
1
 40
1
 40
1
 10
626.954465
 20
-71.743849
 30
0.0
 10
627.305895
 20
-71.713019
 30
0.0
 10
627.657329
 20
-71.682232
 30
0.0
 10
628.008767
 20
-71.651489
 30
0.0
  0
LINE
  5
191
100
AcDbEntity
  8
Layer_1
 62
3
100
AcDbLine
 10
628.008767
 20
-71.651489
 30
0.0
 11
654.393163
 21
-69.343384
 31
0.0
  0
SPLINE
  5
192
100
AcDbEntity
  8
Layer_1
 62
3
100
AcDbSpline
 70
8
 71
3
 72
8
 73
4
 74
0
 40
0
 40
0
 40
0
 40
0
 40
1
 40
1
 40
1
 40
1
 10
654.393163
 20
-69.343384
 30
0.0
 10
654.744596
 20
-69.312585
 30
0.0
 10
655.096063
 20
-69.282170
 30
0.0
 10
655.447563
 20
-69.252140
 30
0.0
  0
LINE
  5
193
100
AcDbEntity
  8
Layer_1
 62
3
100
AcDbLine
 10
655.447563
 20
-69.252140
 30
0.0
 11
659.978590
 21
-68.865764
 31
0.0
  0
SPLINE
  5
194
100
AcDbEntity
  8
Layer_1
 62
3
100
AcDbSpline
 70
8
 71
3
 72
8
 73
4
 74
0
 40
0
 40
0
 40
0
 40
0
 40
1
 40
1
 40
1
 40
1
 10
659.978590
 20
-68.865764
 30
0.0
 10
660.269960
 20
-68.840914
 30
0.0
 10
660.526447
 20
-69.056644
 30
0.0
 10
660.551888
 20
-69.347963
 30
0.0
  0
LINE
  5
195
100
AcDbEntity
  8
Layer_1
 62
3
100
AcDbLine
 10
660.551888
 20
-69.347963
 30
0.0
 11
660.807073
 21
-72.269901
 31
0.0
  0
SPLINE
  5
196
100
AcDbEntity
  8
Layer_1
 62
3
100
AcDbSpline
 70
8
 71
3
 72
8
 73
4
 74
0
 40
0
 40
0
 40
0
 40
0
 40
1
 40
1
 40
1
 40
1
 10
660.807073
 20
-72.269901
 30
0.0
 10
660.819281
 20
-72.409708
 30
0.0
 10
660.886533
 20
-72.538937
 30
0.0
 10
660.994031
 20
-72.629154
 30
0.0
  0
SPLINE
  5
197
100
AcDbEntity
  8
Layer_1
 62
3
100
AcDbSpline
 70
8
 71
3
 72
8
 73
4
 74
0
 40
0
 40
0
 40
0
 40
0
 40
1
 40
1
 40
1
 40
1
 10
660.994031
 20
-72.629154
 30
0.0
 10
661.101529
 20
-72.719371
 30
0.0
 10
661.240466
 20
-72.763185
 30
0.0
 10
661.380270
 20
-72.750954
 30
0.0
  0
LINE
  5
198
100
AcDbEntity
  8
Layer_1
 62
3
100
AcDbLine
 10
661.380270
 20
-72.750954
 30
0.0
 11
691.292310
 21
-70.134432
 31
0.0
  0
SPLINE
  5
199
100
AcDbEntity
  8
Layer_1
 62
3
100
AcDbSpline
 70
8
 71
3
 72
8
 73
4
 74
0
 40
0
 40
0
 40
0
 40
0
 40
1
 40
1
 40
1
 40
1
 10
691.292310
 20
-70.134432
 30
0.0
 10
691.583471
 20
-70.108965
 30
0.0
 10
691.798880
 20
-69.852320
 30
0.0
 10
691.773476
 20
-69.561154
 30
0.0
  0
LINE
  5
19a
100
AcDbEntity
  8
Layer_1
 62
3
100
AcDbLine
 10
691.773476
 20
-69.561154
 30
0.0
 11
691.517407
 21
-66.626123
 31
0.0
  0
SPLINE
  5
19b
100
AcDbEntity
  8
Layer_1
 62
3
100
AcDbSpline
 70
8
 71
3
 72
8
 73
4
 74
0
 40
0
 40
0
 40
0
 40
0
 40
1
 40
1
 40
1
 40
1
 10
691.517407
 20
-66.626123
 30
0.0
 10
691.492001
 20
-66.334955
 30
0.0
 10
691.707411
 20
-66.078308
 30
0.0
 10
691.998574
 20
-66.052845
 30
0.0
  0
LINE
  5
19c
100
AcDbEntity
  8
Layer_1
 62
3
100
AcDbLine
 10
691.998574
 20
-66.052845
 30
0.0
 11
695.753390
 21
-65.724441
 31
0.0
  0
SPLINE
  5
19d
100
AcDbEntity
  8
Layer_1
 62
3
100
AcDbSpline
 70
8
 71
3
 72
8
 73
4
 74
0
 40
0
 40
0
 40
0
 40
0
 40
1
 40
1
 40
1
 40
1
 10
695.753390
 20
-65.724441
 30
0.0
 10
696.104828
 20
-65.693703
 30
0.0
 10
696.456264
 20
-65.662943
 30
0.0
 10
696.807699
 20
-65.632161
 30
0.0
  0
LINE
  5
19e
100
AcDbEntity
  8
Layer_1
 62
3
100
AcDbLine
 10
696.807699
 20
-65.632161
 30
0.0
 11
697.393167
 21
-65.580879
 31
0.0
  0
SPLINE
  5
19f
100
AcDbEntity
  8
Layer_1
 62
3
100
AcDbSpline
 70
8
 71
3
 72
8
 73
4
 74
0
 40
0
 40
0
 40
0
 40
0
 40
1
 40
1
 40
1
 40
1
 10
697.393167
 20
-65.580879
 30
0.0
 10
697.684314
 20
-65.555380
 30
0.0
 10
697.899672
 20
-65.298702
 30
0.0
 10
697.874199
 20
-65.007553
 30
0.0
  0
LINE
  5
1a0
100
AcDbEntity
  8
Layer_1
 62
3
100
AcDbLine
 10
697.874199
 20
-65.007553
 30
0.0
 11
697.874223
 21
-65.007832
 31
0.0
  0
LINE
  5
1a1
100
AcDbEntity
  8
Layer_1
 62
3
100
AcDbLine
 10
426.633453
 20
-34.924981
 30
0.0
 11
439.583988
 21
-36.058005
 31
0.0
  0
SPLINE
  5
1a2
100
AcDbEntity
  8
Layer_1
 62
3
100
AcDbSpline
 70
8
 71
3
 72
8
 73
4
 74
0
 40
0
 40
0
 40
0
 40
0
 40
1
 40
1
 40
1
 40
1
 10
439.583988
 20
-36.058005
 30
0.0
 10
439.716092
 20
-36.069562
 30
0.0
 10
439.838194
 20
-36.133125
 30
0.0
 10
439.923433
 20
-36.234708
 30
0.0
  0
SPLINE
  5
1a3
100
AcDbEntity
  8
Layer_1
 62
3
100
AcDbSpline
 70
8
 71
3
 72
8
 73
4
 74
0
 40
0
 40
0
 40
0
 40
0
 40
1
 40
1
 40
1
 40
1
 10
439.923433
 20
-36.234708
 30
0.0
 10
440.008672
 20
-36.336292
 30
0.0
 10
440.050065
 20
-36.467576
 30
0.0
 10
440.038508
 20
-36.599680
 30
0.0
  0
LINE
  5
1a4
100
AcDbEntity
  8
Layer_1
 62
3
100
AcDbLine
 10
440.038508
 20
-36.599680
 30
0.0
 11
438.905484
 21
-49.550215
 31
0.0
  0
SPLINE
  5
1a5
100
AcDbEntity
  8
Layer_1
 62
3
100
AcDbSpline
 70
8
 71
3
 72
8
 73
4
 74
0
 40
0
 40
0
 40
0
 40
0
 40
1
 40
1
 40
1
 40
1
 10
438.905484
 20
-49.550215
 30
0.0
 10
438.893926
 20
-49.682319
 30
0.0
 10
438.830364
 20
-49.804421
 30
0.0
 10
438.728780
 20
-49.889660
 30
0.0
  0
SPLINE
  5
1a6
100
AcDbEntity
  8
Layer_1
 62
3
100
AcDbSpline
 70
8
 71
3
 72
8
 73
4
 74
0
 40
0
 40
0
 40
0
 40
0
 40
1
 40
1
 40
1
 40
1
 10
438.728780
 20
-49.889660
 30
0.0
 10
438.627196
 20
-49.974899
 30
0.0
 10
438.495912
 20
-50.016292
 30
0.0
 10
438.363808
 20
-50.004735
 30
0.0
  0
LINE
  5
1a7
100
AcDbEntity
  8
Layer_1
 62
3
100
AcDbLine
 10
438.363808
 20
-50.004735
 30
0.0
 11
425.413273
 21
-48.871711
 31
0.0
  0
SPLINE
  5
1a8
100
AcDbEntity
  8
Layer_1
 62
3
100
AcDbSpline
 70
8
 71
3
 72
8
 73
4
 74
0
 40
0
 40
0
 40
0
 40
0
 40
1
 40
1
 40
1
 40
1
 10
425.413273
 20
-48.871711
 30
0.0
 10
425.281170
 20
-48.860153
 30
0.0
 10
425.159068
 20
-48.796591
 30
0.0
 10
425.073829
 20
-48.695007
 30
0.0
  0
SPLINE
  5
1a9
100
AcDbEntity
  8
Layer_1
 62
3
100
AcDbSpline
 70
8
 71
3
 72
8
 73
4
 74
0
 40
0
 40
0
 40
0
 40
0
 40
1
 40
1
 40
1
 40
1
 10
425.073829
 20
-48.695007
 30
0.0
 10
424.988590
 20
-48.593423
 30
0.0
 10
424.947196
 20
-48.462139
 30
0.0
 10
424.958754
 20
-48.330035
 30
0.0
  0
LINE
  5
1aa
100
AcDbEntity
  8
Layer_1
 62
3
100
AcDbLine
 10
424.958754
 20
-48.330035
 30
0.0
 11
426.091778
 21
-35.379500
 31
0.0
  0
SPLINE
  5
1ab
100
AcDbEntity
  8
Layer_1
 62
3
100
AcDbSpline
 70
8
 71
3
 72
8
 73
4
 74
0
 40
0
 40
0
 40
0
 40
0
 40
1
 40
1
 40
1
 40
1
 10
426.091778
 20
-35.379500
 30
0.0
 10
426.103335
 20
-35.247397
 30
0.0
 10
426.166898
 20
-35.125295
 30
0.0
 10
426.268481
 20
-35.040056
 30
0.0
  0
SPLINE
  5
1ac
100
AcDbEntity
  8
Layer_1
 62
3
100
AcDbSpline
 70
8
 71
3
 72
8
 73
4
 74
0
 40
0
 40
0
 40
0
 40
0
 40
1
 40
1
 40
1
 40
1
 10
426.268481
 20
-35.040056
 30
0.0
 10
426.370065
 20
-34.954817
 30
0.0
 10
426.501350
 20
-34.913423
 30
0.0
 10
426.633453
 20
-34.924981
 30
0.0
  0
LINE
  5
1ad
100
AcDbEntity
  8
Layer_1
 62
3
100
AcDbLine
 10
426.633453
 20
-34.924981
 30
0.0
 11
426.633453
 21
-34.924981
 31
0.0
  0
LINE
  5
1ae
100
AcDbEntity
  8
Layer_1
 62
3
100
AcDbLine
 10
372.784473
 20
-49.336583
 30
0.0
 11
385.735008
 21
-50.469607
 31
0.0
  0
SPLINE
  5
1af
100
AcDbEntity
  8
Layer_1
 62
3
100
AcDbSpline
 70
8
 71
3
 72
8
 73
4
 74
0
 40
0
 40
0
 40
0
 40
0
 40
1
 40
1
 40
1
 40
1
 10
385.735008
 20
-50.469607
 30
0.0
 10
385.867112
 20
-50.481164
 30
0.0
 10
385.989214
 20
-50.544726
 30
0.0
 10
386.074453
 20
-50.646310
 30
0.0
  0
SPLINE
  5
1b0
100
AcDbEntity
  8
Layer_1
 62
3
100
AcDbSpline
 70
8
 71
3
 72
8
 73
4
 74
0
 40
0
 40
0
 40
0
 40
0
 40
1
 40
1
 40
1
 40
1
 10
386.074453
 20
-50.646310
 30
0.0
 10
386.159692
 20
-50.747894
 30
0.0
 10
386.201086
 20
-50.879178
 30
0.0
 10
386.189528
 20
-51.011282
 30
0.0
  0
LINE
  5
1b1
100
AcDbEntity
  8
Layer_1
 62
3
100
AcDbLine
 10
386.189528
 20
-51.011282
 30
0.0
 11
385.056504
 21
-63.961817
 31
0.0
  0
SPLINE
  5
1b2
100
AcDbEntity
  8
Layer_1
 62
3
100
AcDbSpline
 70
8
 71
3
 72
8
 73
4
 74
0
 40
0
 40
0
 40
0
 40
0
 40
1
 40
1
 40
1
 40
1
 10
385.056504
 20
-63.961817
 30
0.0
 10
385.044946
 20
-64.093921
 30
0.0
 10
384.981384
 20
-64.216023
 30
0.0
 10
384.879800
 20
-64.301262
 30
0.0
  0
SPLINE
  5
1b3
100
AcDbEntity
  8
Layer_1
 62
3
100
AcDbSpline
 70
8
 71
3
 72
8
 73
4
 74
0
 40
0
 40
0
 40
0
 40
0
 40
1
 40
1
 40
1
 40
1
 10
384.879800
 20
-64.301262
 30
0.0
 10
384.778217
 20
-64.386500
 30
0.0
 10
384.646932
 20
-64.427894
 30
0.0
 10
384.514829
 20
-64.416337
 30
0.0
  0
LINE
  5
1b4
100
AcDbEntity
  8
Layer_1
 62
3
100
AcDbLine
 10
384.514829
 20
-64.416337
 30
0.0
 11
371.564294
 21
-63.283313
 31
0.0
  0
SPLINE
  5
1b5
100
AcDbEntity
  8
Layer_1
 62
3
100
AcDbSpline
 70
8
 71
3
 72
8
 73
4
 74
0
 40
0
 40
0
 40
0
 40
0
 40
1
 40
1
 40
1
 40
1
 10
371.564294
 20
-63.283313
 30
0.0
 10
371.432190
 20
-63.271755
 30
0.0
 10
371.310088
 20
-63.208193
 30
0.0
 10
371.224849
 20
-63.106609
 30
0.0
  0
SPLINE
  5
1b6
100
AcDbEntity
  8
Layer_1
 62
3
100
AcDbSpline
 70
8
 71
3
 72
8
 73
4
 74
0
 40
0
 40
0
 40
0
 40
0
 40
1
 40
1
 40
1
 40
1
 10
371.224849
 20
-63.106609
 30
0.0
 10
371.139610
 20
-63.005025
 30
0.0
 10
371.098216
 20
-62.873741
 30
0.0
 10
371.109774
 20
-62.741637
 30
0.0
  0
LINE
  5
1b7
100
AcDbEntity
  8
Layer_1
 62
3
100
AcDbLine
 10
371.109774
 20
-62.741637
 30
0.0
 11
372.242798
 21
-49.791102
 31
0.0
  0
SPLINE
  5
1b8
100
AcDbEntity
  8
Layer_1
 62
3
100
AcDbSpline
 70
8
 71
3
 72
8
 73
4
 74
0
 40
0
 40
0
 40
0
 40
0
 40
1
 40
1
 40
1
 40
1
 10
372.242798
 20
-49.791102
 30
0.0
 10
372.254356
 20
-49.658999
 30
0.0
 10
372.317918
 20
-49.536897
 30
0.0
 10
372.419502
 20
-49.451658
 30
0.0
  0
SPLINE
  5
1b9
100
AcDbEntity
  8
Layer_1
 62
3
100
AcDbSpline
 70
8
 71
3
 72
8
 73
4
 74
0
 40
0
 40
0
 40
0
 40
0
 40
1
 40
1
 40
1
 40
1
 10
372.419502
 20
-49.451658
 30
0.0
 10
372.521086
 20
-49.366419
 30
0.0
 10
372.652370
 20
-49.325025
 30
0.0
 10
372.784473
 20
-49.336583
 30
0.0
  0
LINE
  5
1ba
100
AcDbEntity
  8
Layer_1
 62
3
100
AcDbLine
 10
372.784473
 20
-49.336583
 30
0.0
 11
372.784473
 21
-49.336583
 31
0.0
  0
LINE
  5
1bb
100
AcDbEntity
  8
Layer_1
 62
3
100
AcDbLine
 10
472.652995
 20
-0.705619
 30
0.0
 11
485.603530
 21
-1.838643
 31
0.0
  0
SPLINE
  5
1bc
100
AcDbEntity
  8
Layer_1
 62
3
100
AcDbSpline
 70
8
 71
3
 72
8
 73
4
 74
0
 40
0
 40
0
 40
0
 40
0
 40
1
 40
1
 40
1
 40
1
 10
485.603530
 20
-1.838643
 30
0.0
 10
485.735634
 20
-1.850200
 30
0.0
 10
485.857736
 20
-1.913763
 30
0.0
 10
485.942975
 20
-2.015346
 30
0.0
  0
SPLINE
  5
1bd
100
AcDbEntity
  8
Layer_1
 62
3
100
AcDbSpline
 70
8
 71
3
 72
8
 73
4
 74
0
 40
0
 40
0
 40
0
 40
0
 40
1
 40
1
 40
1
 40
1
 10
485.942975
 20
-2.015346
 30
0.0
 10
486.028214
 20
-2.116930
 30
0.0
 10
486.069608
 20
-2.248215
 30
0.0
 10
486.058050
 20
-2.380318
 30
0.0
  0
LINE
  5
1be
100
AcDbEntity
  8
Layer_1
 62
3
100
AcDbLine
 10
486.058050
 20
-2.380318
 30
0.0
 11
484.925026
 21
-15.330853
 31
0.0
  0
SPLINE
  5
1bf
100
AcDbEntity
  8
Layer_1
 62
3
100
AcDbSpline
 70
8
 71
3
 72
8
 73
4
 74
0
 40
0
 40
0
 40
0
 40
0
 40
1
 40
1
 40
1
 40
1
 10
484.925026
 20
-15.330853
 30
0.0
 10
484.913468
 20
-15.462957
 30
0.0
 10
484.849906
 20
-15.585059
 30
0.0
 10
484.748322
 20
-15.670298
 30
0.0
  0
SPLINE
  5
1c0
100
AcDbEntity
  8
Layer_1
 62
3
100
AcDbSpline
 70
8
 71
3
 72
8
 73
4
 74
0
 40
0
 40
0
 40
0
 40
0
 40
1
 40
1
 40
1
 40
1
 10
484.748322
 20
-15.670298
 30
0.0
 10
484.646739
 20
-15.755537
 30
0.0
 10
484.515454
 20
-15.796930
 30
0.0
 10
484.383351
 20
-15.785373
 30
0.0
  0
LINE
  5
1c1
100
AcDbEntity
  8
Layer_1
 62
3
100
AcDbLine
 10
484.383351
 20
-15.785373
 30
0.0
 11
471.432816
 21
-14.652349
 31
0.0
  0
SPLINE
  5
1c2
100
AcDbEntity
  8
Layer_1
 62
3
100
AcDbSpline
 70
8
 71
3
 72
8
 73
4
 74
0
 40
0
 40
0
 40
0
 40
0
 40
1
 40
1
 40
1
 40
1
 10
471.432816
 20
-14.652349
 30
0.0
 10
471.300712
 20
-14.640791
 30
0.0
 10
471.178610
 20
-14.577229
 30
0.0
 10
471.093371
 20
-14.475645
 30
0.0
  0
SPLINE
  5
1c3
100
AcDbEntity
  8
Layer_1
 62
3
100
AcDbSpline
 70
8
 71
3
 72
8
 73
4
 74
0
 40
0
 40
0
 40
0
 40
0
 40
1
 40
1
 40
1
 40
1
 10
471.093371
 20
-14.475645
 30
0.0
 10
471.008132
 20
-14.374061
 30
0.0
 10
470.966738
 20
-14.242777
 30
0.0
 10
470.978296
 20
-14.110673
 30
0.0
  0
LINE
  5
1c4
100
AcDbEntity
  8
Layer_1
 62
3
100
AcDbLine
 10
470.978296
 20
-14.110673
 30
0.0
 11
472.111320
 21
-1.160138
 31
0.0
  0
SPLINE
  5
1c5
100
AcDbEntity
  8
Layer_1
 62
3
100
AcDbSpline
 70
8
 71
3
 72
8
 73
4
 74
0
 40
0
 40
0
 40
0
 40
0
 40
1
 40
1
 40
1
 40
1
 10
472.111320
 20
-1.160138
 30
0.0
 10
472.122878
 20
-1.028035
 30
0.0
 10
472.186440
 20
-0.905933
 30
0.0
 10
472.288024
 20
-0.820694
 30
0.0
  0
SPLINE
  5
1c6
100
AcDbEntity
  8
Layer_1
 62
3
100
AcDbSpline
 70
8
 71
3
 72
8
 73
4
 74
0
 40
0
 40
0
 40
0
 40
0
 40
1
 40
1
 40
1
 40
1
 10
472.288024
 20
-0.820694
 30
0.0
 10
472.389608
 20
-0.735455
 30
0.0
 10
472.520892
 20
-0.694061
 30
0.0
 10
472.652995
 20
-0.705619
 30
0.0
  0
LINE
  5
1c7
100
AcDbEntity
  8
Layer_1
 62
3
100
AcDbLine
 10
472.652995
 20
-0.705619
 30
0.0
 11
472.652995
 21
-0.705619
 31
0.0
  0
LINE
  5
1c8
100
AcDbEntity
  8
Layer_1
 62
3
100
AcDbLine
 10
453.675481
 20
0.954697
 30
0.0
 11
466.626016
 21
-0.178327
 31
0.0
  0
SPLINE
  5
1c9
100
AcDbEntity
  8
Layer_1
 62
3
100
AcDbSpline
 70
8
 71
3
 72
8
 73
4
 74
0
 40
0
 40
0
 40
0
 40
0
 40
1
 40
1
 40
1
 40
1
 10
466.626016
 20
-0.178327
 30
0.0
 10
466.758119
 20
-0.189884
 30
0.0
 10
466.880221
 20
-0.253447
 30
0.0
 10
466.965460
 20
-0.355030
 30
0.0
  0
SPLINE
  5
1ca
100
AcDbEntity
  8
Layer_1
 62
3
100
AcDbSpline
 70
8
 71
3
 72
8
 73
4
 74
0
 40
0
 40
0
 40
0
 40
0
 40
1
 40
1
 40
1
 40
1
 10
466.965460
 20
-0.355030
 30
0.0
 10
467.050699
 20
-0.456614
 30
0.0
 10
467.092093
 20
-0.587898
 30
0.0
 10
467.080535
 20
-0.720002
 30
0.0
  0
LINE
  5
1cb
100
AcDbEntity
  8
Layer_1
 62
3
100
AcDbLine
 10
467.080535
 20
-0.720002
 30
0.0
 11
465.947511
 21
-13.670537
 31
0.0
  0
SPLINE
  5
1cc
100
AcDbEntity
  8
Layer_1
 62
3
100
AcDbSpline
 70
8
 71
3
 72
8
 73
4
 74
0
 40
0
 40
0
 40
0
 40
0
 40
1
 40
1
 40
1
 40
1
 10
465.947511
 20
-13.670537
 30
0.0
 10
465.935954
 20
-13.802641
 30
0.0
 10
465.872392
 20
-13.924743
 30
0.0
 10
465.770808
 20
-14.009982
 30
0.0
  0
SPLINE
  5
1cd
100
AcDbEntity
  8
Layer_1
 62
3
100
AcDbSpline
 70
8
 71
3
 72
8
 73
4
 74
0
 40
0
 40
0
 40
0
 40
0
 40
1
 40
1
 40
1
 40
1
 10
465.770808
 20
-14.009982
 30
0.0
 10
465.669224
 20
-14.095221
 30
0.0
 10
465.537940
 20
-14.136614
 30
0.0
 10
465.405836
 20
-14.125057
 30
0.0
  0
LINE
  5
1ce
100
AcDbEntity
  8
Layer_1
 62
3
100
AcDbLine
 10
465.405836
 20
-14.125057
 30
0.0
 11
452.455301
 21
-12.992033
 31
0.0
  0
SPLINE
  5
1cf
100
AcDbEntity
  8
Layer_1
 62
3
100
AcDbSpline
 70
8
 71
3
 72
8
 73
4
 74
0
 40
0
 40
0
 40
0
 40
0
 40
1
 40
1
 40
1
 40
1
 10
452.455301
 20
-12.992033
 30
0.0
 10
452.323197
 20
-12.980475
 30
0.0
 10
452.201095
 20
-12.916913
 30
0.0
 10
452.115856
 20
-12.815329
 30
0.0
  0
SPLINE
  5
1d0
100
AcDbEntity
  8
Layer_1
 62
3
100
AcDbSpline
 70
8
 71
3
 72
8
 73
4
 74
0
 40
0
 40
0
 40
0
 40
0
 40
1
 40
1
 40
1
 40
1
 10
452.115856
 20
-12.815329
 30
0.0
 10
452.030618
 20
-12.713745
 30
0.0
 10
451.989224
 20
-12.582461
 30
0.0
 10
452.000781
 20
-12.450357
 30
0.0
  0
LINE
  5
1d1
100
AcDbEntity
  8
Layer_1
 62
3
100
AcDbLine
 10
452.000781
 20
-12.450357
 30
0.0
 11
453.133805
 21
0.500178
 31
0.0
  0
SPLINE
  5
1d2
100
AcDbEntity
  8
Layer_1
 62
3
100
AcDbSpline
 70
8
 71
3
 72
8
 73
4
 74
0
 40
0
 40
0
 40
0
 40
0
 40
1
 40
1
 40
1
 40
1
 10
453.133805
 20
0.500178
 30
0.0
 10
453.145363
 20
0.632281
 30
0.0
 10
453.208925
 20
0.754383
 30
0.0
 10
453.310509
 20
0.839622
 30
0.0
  0
SPLINE
  5
1d3
100
AcDbEntity
  8
Layer_1
 62
3
100
AcDbSpline
 70
8
 71
3
 72
8
 73
4
 74
0
 40
0
 40
0
 40
0
 40
0
 40
1
 40
1
 40
1
 40
1
 10
453.310509
 20
0.839622
 30
0.0
 10
453.412093
 20
0.924861
 30
0.0
 10
453.543377
 20
0.966255
 30
0.0
 10
453.675481
 20
0.954697
 30
0.0
  0
LINE
  5
1d4
100
AcDbEntity
  8
Layer_1
 62
3
100
AcDbLine
 10
453.675481
 20
0.954697
 30
0.0
 11
453.675481
 21
0.954697
 31
0.0
  0
LINE
  5
1d5
100
AcDbEntity
  8
Layer_1
 62
3
100
AcDbLine
 10
434.697966
 20
2.615013
 30
0.0
 11
447.648501
 21
1.481989
 31
0.0
  0
SPLINE
  5
1d6
100
AcDbEntity
  8
Layer_1
 62
3
100
AcDbSpline
 70
8
 71
3
 72
8
 73
4
 74
0
 40
0
 40
0
 40
0
 40
0
 40
1
 40
1
 40
1
 40
1
 10
447.648501
 20
1.481989
 30
0.0
 10
447.780605
 20
1.470432
 30
0.0
 10
447.902706
 20
1.406870
 30
0.0
 10
447.987945
 20
1.305286
 30
0.0
  0
SPLINE
  5
1d7
100
AcDbEntity
  8
Layer_1
 62
3
100
AcDbSpline
 70
8
 71
3
 72
8
 73
4
 74
0
 40
0
 40
0
 40
0
 40
0
 40
1
 40
1
 40
1
 40
1
 10
447.987945
 20
1.305286
 30
0.0
 10
448.073184
 20
1.203702
 30
0.0
 10
448.114578
 20
1.072418
 30
0.0
 10
448.103021
 20
0.940314
 30
0.0
  0
LINE
  5
1d8
100
AcDbEntity
  8
Layer_1
 62
3
100
AcDbLine
 10
448.103021
 20
0.940314
 30
0.0
 11
446.969997
 21
-12.010221
 31
0.0
  0
SPLINE
  5
1d9
100
AcDbEntity
  8
Layer_1
 62
3
100
AcDbSpline
 70
8
 71
3
 72
8
 73
4
 74
0
 40
0
 40
0
 40
0
 40
0
 40
1
 40
1
 40
1
 40
1
 10
446.969997
 20
-12.010221
 30
0.0
 10
446.958439
 20
-12.142325
 30
0.0
 10
446.894877
 20
-12.264427
 30
0.0
 10
446.793293
 20
-12.349666
 30
0.0
  0
SPLINE
  5
1da
100
AcDbEntity
  8
Layer_1
 62
3
100
AcDbSpline
 70
8
 71
3
 72
8
 73
4
 74
0
 40
0
 40
0
 40
0
 40
0
 40
1
 40
1
 40
1
 40
1
 10
446.793293
 20
-12.349666
 30
0.0
 10
446.691709
 20
-12.434905
 30
0.0
 10
446.560425
 20
-12.476298
 30
0.0
 10
446.428321
 20
-12.464741
 30
0.0
  0
LINE
  5
1db
100
AcDbEntity
  8
Layer_1
 62
3
100
AcDbLine
 10
446.428321
 20
-12.464741
 30
0.0
 11
433.477786
 21
-11.331717
 31
0.0
  0
SPLINE
  5
1dc
100
AcDbEntity
  8
Layer_1
 62
3
100
AcDbSpline
 70
8
 71
3
 72
8
 73
4
 74
0
 40
0
 40
0
 40
0
 40
0
 40
1
 40
1
 40
1
 40
1
 10
433.477786
 20
-11.331717
 30
0.0
 10
433.345683
 20
-11.320159
 30
0.0
 10
433.223581
 20
-11.256597
 30
0.0
 10
433.138342
 20
-11.155013
 30
0.0
  0
SPLINE
  5
1dd
100
AcDbEntity
  8
Layer_1
 62
3
100
AcDbSpline
 70
8
 71
3
 72
8
 73
4
 74
0
 40
0
 40
0
 40
0
 40
0
 40
1
 40
1
 40
1
 40
1
 10
433.138342
 20
-11.155013
 30
0.0
 10
433.053103
 20
-11.053429
 30
0.0
 10
433.011709
 20
-10.922145
 30
0.0
 10
433.023267
 20
-10.790041
 30
0.0
  0
LINE
  5
1de
100
AcDbEntity
  8
Layer_1
 62
3
100
AcDbLine
 10
433.023267
 20
-10.790041
 30
0.0
 11
434.156291
 21
2.160494
 31
0.0
  0
SPLINE
  5
1df
100
AcDbEntity
  8
Layer_1
 62
3
100
AcDbSpline
 70
8
 71
3
 72
8
 73
4
 74
0
 40
0
 40
0
 40
0
 40
0
 40
1
 40
1
 40
1
 40
1
 10
434.156291
 20
2.160494
 30
0.0
 10
434.167848
 20
2.292597
 30
0.0
 10
434.231410
 20
2.414699
 30
0.0
 10
434.332994
 20
2.499938
 30
0.0
  0
SPLINE
  5
1e0
100
AcDbEntity
  8
Layer_1
 62
3
100
AcDbSpline
 70
8
 71
3
 72
8
 73
4
 74
0
 40
0
 40
0
 40
0
 40
0
 40
1
 40
1
 40
1
 40
1
 10
434.332994
 20
2.499938
 30
0.0
 10
434.434578
 20
2.585177
 30
0.0
 10
434.565862
 20
2.626571
 30
0.0
 10
434.697966
 20
2.615013
 30
0.0
  0
LINE
  5
1e1
100
AcDbEntity
  8
Layer_1
 62
3
100
AcDbLine
 10
434.697966
 20
2.615013
 30
0.0
 11
434.697966
 21
2.615013
 31
0.0
  0
LINE
  5
1e2
100
AcDbEntity
  8
Layer_1
 62
3
100
AcDbLine
 10
415.720451
 20
4.275329
 30
0.0
 11
428.670986
 21
3.142305
 31
0.0
  0
SPLINE
  5
1e3
100
AcDbEntity
  8
Layer_1
 62
3
100
AcDbSpline
 70
8
 71
3
 72
8
 73
4
 74
0
 40
0
 40
0
 40
0
 40
0
 40
1
 40
1
 40
1
 40
1
 10
428.670986
 20
3.142305
 30
0.0
 10
428.803090
 20
3.130748
 30
0.0
 10
428.925192
 20
3.067186
 30
0.0
 10
429.010431
 20
2.965602
 30
0.0
  0
SPLINE
  5
1e4
100
AcDbEntity
  8
Layer_1
 62
3
100
AcDbSpline
 70
8
 71
3
 72
8
 73
4
 74
0
 40
0
 40
0
 40
0
 40
0
 40
1
 40
1
 40
1
 40
1
 10
429.010431
 20
2.965602
 30
0.0
 10
429.095670
 20
2.864018
 30
0.0
 10
429.137063
 20
2.732734
 30
0.0
 10
429.125506
 20
2.600630
 30
0.0
  0
LINE
  5
1e5
100
AcDbEntity
  8
Layer_1
 62
3
100
AcDbLine
 10
429.125506
 20
2.600630
 30
0.0
 11
427.992482
 21
-10.349905
 31
0.0
  0
SPLINE
  5
1e6
100
AcDbEntity
  8
Layer_1
 62
3
100
AcDbSpline
 70
8
 71
3
 72
8
 73
4
 74
0
 40
0
 40
0
 40
0
 40
0
 40
1
 40
1
 40
1
 40
1
 10
427.992482
 20
-10.349905
 30
0.0
 10
427.980924
 20
-10.482009
 30
0.0
 10
427.917362
 20
-10.604110
 30
0.0
 10
427.815778
 20
-10.689349
 30
0.0
  0
SPLINE
  5
1e7
100
AcDbEntity
  8
Layer_1
 62
3
100
AcDbSpline
 70
8
 71
3
 72
8
 73
4
 74
0
 40
0
 40
0
 40
0
 40
0
 40
1
 40
1
 40
1
 40
1
 10
427.815778
 20
-10.689349
 30
0.0
 10
427.714194
 20
-10.774588
 30
0.0
 10
427.582910
 20
-10.815982
 30
0.0
 10
427.450806
 20
-10.804425
 30
0.0
  0
LINE
  5
1e8
100
AcDbEntity
  8
Layer_1
 62
3
100
AcDbLine
 10
427.450806
 20
-10.804425
 30
0.0
 11
414.500271
 21
-9.671401
 31
0.0
  0
SPLINE
  5
1e9
100
AcDbEntity
  8
Layer_1
 62
3
100
AcDbSpline
 70
8
 71
3
 72
8
 73
4
 74
0
 40
0
 40
0
 40
0
 40
0
 40
1
 40
1
 40
1
 40
1
 10
414.500271
 20
-9.671401
 30
0.0
 10
414.368168
 20
-9.659843
 30
0.0
 10
414.246066
 20
-9.596281
 30
0.0
 10
414.160827
 20
-9.494697
 30
0.0
  0
SPLINE
  5
1ea
100
AcDbEntity
  8
Layer_1
 62
3
100
AcDbSpline
 70
8
 71
3
 72
8
 73
4
 74
0
 40
0
 40
0
 40
0
 40
0
 40
1
 40
1
 40
1
 40
1
 10
414.160827
 20
-9.494697
 30
0.0
 10
414.075588
 20
-9.393113
 30
0.0
 10
414.034194
 20
-9.261829
 30
0.0
 10
414.045752
 20
-9.129725
 30
0.0
  0
LINE
  5
1eb
100
AcDbEntity
  8
Layer_1
 62
3
100
AcDbLine
 10
414.045752
 20
-9.129725
 30
0.0
 11
415.178776
 21
3.820810
 31
0.0
  0
SPLINE
  5
1ec
100
AcDbEntity
  8
Layer_1
 62
3
100
AcDbSpline
 70
8
 71
3
 72
8
 73
4
 74
0
 40
0
 40
0
 40
0
 40
0
 40
1
 40
1
 40
1
 40
1
 10
415.178776
 20
3.820810
 30
0.0
 10
415.190333
 20
3.952913
 30
0.0
 10
415.253896
 20
4.075015
 30
0.0
 10
415.355479
 20
4.160254
 30
0.0
  0
SPLINE
  5
1ed
100
AcDbEntity
  8
Layer_1
 62
3
100
AcDbSpline
 70
8
 71
3
 72
8
 73
4
 74
0
 40
0
 40
0
 40
0
 40
0
 40
1
 40
1
 40
1
 40
1
 10
415.355479
 20
4.160254
 30
0.0
 10
415.457063
 20
4.245493
 30
0.0
 10
415.588348
 20
4.286887
 30
0.0
 10
415.720451
 20
4.275329
 30
0.0
  0
LINE
  5
1ee
100
AcDbEntity
  8
Layer_1
 62
3
100
AcDbLine
 10
415.720451
 20
4.275329
 30
0.0
 11
415.720451
 21
4.275329
 31
0.0
  0
LINE
  5
1ef
100
AcDbEntity
  8
Layer_1
 62
3
100
AcDbLine
 10
377.765422
 20
7.595962
 30
0.0
 11
390.715957
 21
6.462938
 31
0.0
  0
SPLINE
  5
1f0
100
AcDbEntity
  8
Layer_1
 62
3
100
AcDbSpline
 70
8
 71
3
 72
8
 73
4
 74
0
 40
0
 40
0
 40
0
 40
0
 40
1
 40
1
 40
1
 40
1
 10
390.715957
 20
6.462938
 30
0.0
 10
390.848060
 20
6.451380
 30
0.0
 10
390.970162
 20
6.387818
 30
0.0
 10
391.055401
 20
6.286234
 30
0.0
  0
SPLINE
  5
1f1
100
AcDbEntity
  8
Layer_1
 62
3
100
AcDbSpline
 70
8
 71
3
 72
8
 73
4
 74
0
 40
0
 40
0
 40
0
 40
0
 40
1
 40
1
 40
1
 40
1
 10
391.055401
 20
6.286234
 30
0.0
 10
391.140640
 20
6.184650
 30
0.0
 10
391.182034
 20
6.053366
 30
0.0
 10
391.170476
 20
5.921262
 30
0.0
  0
LINE
  5
1f2
100
AcDbEntity
  8
Layer_1
 62
3
100
AcDbLine
 10
391.170476
 20
5.921262
 30
0.0
 11
390.037452
 21
-7.029273
 31
0.0
  0
SPLINE
  5
1f3
100
AcDbEntity
  8
Layer_1
 62
3
100
AcDbSpline
 70
8
 71
3
 72
8
 73
4
 74
0
 40
0
 40
0
 40
0
 40
0
 40
1
 40
1
 40
1
 40
1
 10
390.037452
 20
-7.029273
 30
0.0
 10
390.025895
 20
-7.161376
 30
0.0
 10
389.962333
 20
-7.283478
 30
0.0
 10
389.860749
 20
-7.368717
 30
0.0
  0
SPLINE
  5
1f4
100
AcDbEntity
  8
Layer_1
 62
3
100
AcDbSpline
 70
8
 71
3
 72
8
 73
4
 74
0
 40
0
 40
0
 40
0
 40
0
 40
1
 40
1
 40
1
 40
1
 10
389.860749
 20
-7.368717
 30
0.0
 10
389.759165
 20
-7.453956
 30
0.0
 10
389.627881
 20
-7.495350
 30
0.0
 10
389.495777
 20
-7.483792
 30
0.0
  0
LINE
  5
1f5
100
AcDbEntity
  8
Layer_1
 62
3
100
AcDbLine
 10
389.495777
 20
-7.483792
 30
0.0
 11
376.545242
 21
-6.350768
 31
0.0
  0
SPLINE
  5
1f6
100
AcDbEntity
  8
Layer_1
 62
3
100
AcDbSpline
 70
8
 71
3
 72
8
 73
4
 74
0
 40
0
 40
0
 40
0
 40
0
 40
1
 40
1
 40
1
 40
1
 10
376.545242
 20
-6.350768
 30
0.0
 10
376.413138
 20
-6.339211
 30
0.0
 10
376.291036
 20
-6.275649
 30
0.0
 10
376.205797
 20
-6.174065
 30
0.0
  0
SPLINE
  5
1f7
100
AcDbEntity
  8
Layer_1
 62
3
100
AcDbSpline
 70
8
 71
3
 72
8
 73
4
 74
0
 40
0
 40
0
 40
0
 40
0
 40
1
 40
1
 40
1
 40
1
 10
376.205797
 20
-6.174065
 30
0.0
 10
376.120559
 20
-6.072481
 30
0.0
 10
376.079165
 20
-5.941197
 30
0.0
 10
376.090722
 20
-5.809093
 30
0.0
  0
LINE
  5
1f8
100
AcDbEntity
  8
Layer_1
 62
3
100
AcDbLine
 10
376.090722
 20
-5.809093
 30
0.0
 11
377.223746
 21
7.141442
 31
0.0
  0
SPLINE
  5
1f9
100
AcDbEntity
  8
Layer_1
 62
3
100
AcDbSpline
 70
8
 71
3
 72
8
 73
4
 74
0
 40
0
 40
0
 40
0
 40
0
 40
1
 40
1
 40
1
 40
1
 10
377.223746
 20
7.141442
 30
0.0
 10
377.235304
 20
7.273546
 30
0.0
 10
377.298866
 20
7.395647
 30
0.0
 10
377.400450
 20
7.480886
 30
0.0
  0
SPLINE
  5
1fa
100
AcDbEntity
  8
Layer_1
 62
3
100
AcDbSpline
 70
8
 71
3
 72
8
 73
4
 74
0
 40
0
 40
0
 40
0
 40
0
 40
1
 40
1
 40
1
 40
1
 10
377.400450
 20
7.480886
 30
0.0
 10
377.502034
 20
7.566125
 30
0.0
 10
377.633318
 20
7.607519
 30
0.0
 10
377.765422
 20
7.595962
 30
0.0
  0
LINE
  5
1fb
100
AcDbEntity
  8
Layer_1
 62
3
100
AcDbLine
 10
377.765422
 20
7.595962
 30
0.0
 11
377.765422
 21
7.595962
 31
0.0
  0
LINE
  5
1fc
100
AcDbEntity
  8
Layer_1
 62
3
100
AcDbLine
 10
432.088958
 20
-54.525049
 30
0.0
 11
445.039493
 21
-55.658073
 31
0.0
  0
SPLINE
  5
1fd
100
AcDbEntity
  8
Layer_1
 62
3
100
AcDbSpline
 70
8
 71
3
 72
8
 73
4
 74
0
 40
0
 40
0
 40
0
 40
0
 40
1
 40
1
 40
1
 40
1
 10
445.039493
 20
-55.658073
 30
0.0
 10
445.171597
 20
-55.669630
 30
0.0
 10
445.293699
 20
-55.733192
 30
0.0
 10
445.378937
 20
-55.834776
 30
0.0
  0
SPLINE
  5
1fe
100
AcDbEntity
  8
Layer_1
 62
3
100
AcDbSpline
 70
8
 71
3
 72
8
 73
4
 74
0
 40
0
 40
0
 40
0
 40
0
 40
1
 40
1
 40
1
 40
1
 10
445.378937
 20
-55.834776
 30
0.0
 10
445.464176
 20
-55.936360
 30
0.0
 10
445.505570
 20
-56.067644
 30
0.0
 10
445.494013
 20
-56.199748
 30
0.0
  0
LINE
  5
1ff
100
AcDbEntity
  8
Layer_1
 62
3
100
AcDbLine
 10
445.494013
 20
-56.199748
 30
0.0
 11
444.360989
 21
-69.150283
 31
0.0
  0
SPLINE
  5
200
100
AcDbEntity
  8
Layer_1
 62
3
100
AcDbSpline
 70
8
 71
3
 72
8
 73
4
 74
0
 40
0
 40
0
 40
0
 40
0
 40
1
 40
1
 40
1
 40
1
 10
444.360989
 20
-69.150283
 30
0.0
 10
444.349431
 20
-69.282387
 30
0.0
 10
444.285869
 20
-69.404489
 30
0.0
 10
444.184285
 20
-69.489728
 30
0.0
  0
SPLINE
  5
201
100
AcDbEntity
  8
Layer_1
 62
3
100
AcDbSpline
 70
8
 71
3
 72
8
 73
4
 74
0
 40
0
 40
0
 40
0
 40
0
 40
1
 40
1
 40
1
 40
1
 10
444.184285
 20
-69.489728
 30
0.0
 10
444.082701
 20
-69.574966
 30
0.0
 10
443.951417
 20
-69.616360
 30
0.0
 10
443.819313
 20
-69.604803
 30
0.0
  0
LINE
  5
202
100
AcDbEntity
  8
Layer_1
 62
3
100
AcDbLine
 10
443.819313
 20
-69.604803
 30
0.0
 11
430.868778
 21
-68.471779
 31
0.0
  0
SPLINE
  5
203
100
AcDbEntity
  8
Layer_1
 62
3
100
AcDbSpline
 70
8
 71
3
 72
8
 73
4
 74
0
 40
0
 40
0
 40
0
 40
0
 40
1
 40
1
 40
1
 40
1
 10
430.868778
 20
-68.471779
 30
0.0
 10
430.736675
 20
-68.460221
 30
0.0
 10
430.614573
 20
-68.396659
 30
0.0
 10
430.529334
 20
-68.295075
 30
0.0
  0
SPLINE
  5
204
100
AcDbEntity
  8
Layer_1
 62
3
100
AcDbSpline
 70
8
 71
3
 72
8
 73
4
 74
0
 40
0
 40
0
 40
0
 40
0
 40
1
 40
1
 40
1
 40
1
 10
430.529334
 20
-68.295075
 30
0.0
 10
430.444095
 20
-68.193491
 30
0.0
 10
430.402701
 20
-68.062207
 30
0.0
 10
430.414259
 20
-67.930103
 30
0.0
  0
LINE
  5
205
100
AcDbEntity
  8
Layer_1
 62
3
100
AcDbLine
 10
430.414259
 20
-67.930103
 30
0.0
 11
431.547283
 21
-54.979568
 31
0.0
  0
SPLINE
  5
206
100
AcDbEntity
  8
Layer_1
 62
3
100
AcDbSpline
 70
8
 71
3
 72
8
 73
4
 74
0
 40
0
 40
0
 40
0
 40
0
 40
1
 40
1
 40
1
 40
1
 10
431.547283
 20
-54.979568
 30
0.0
 10
431.558840
 20
-54.847465
 30
0.0
 10
431.622402
 20
-54.725363
 30
0.0
 10
431.723986
 20
-54.640124
 30
0.0
  0
SPLINE
  5
207
100
AcDbEntity
  8
Layer_1
 62
3
100
AcDbSpline
 70
8
 71
3
 72
8
 73
4
 74
0
 40
0
 40
0
 40
0
 40
0
 40
1
 40
1
 40
1
 40
1
 10
431.723986
 20
-54.640124
 30
0.0
 10
431.825570
 20
-54.554885
 30
0.0
 10
431.956854
 20
-54.513491
 30
0.0
 10
432.088958
 20
-54.525049
 30
0.0
  0
LINE
  5
208
100
AcDbEntity
  8
Layer_1
 62
3
100
AcDbLine
 10
432.088958
 20
-54.525049
 30
0.0
 11
432.088958
 21
-54.525049
 31
0.0
  0
LINE
  5
209
100
AcDbEntity
  8
Layer_1
 62
3
100
AcDbLine
 10
410.739503
 20
-52.657215
 30
0.0
 11
423.690038
 21
-53.790239
 31
0.0
  0
SPLINE
  5
20a
100
AcDbEntity
  8
Layer_1
 62
3
100
AcDbSpline
 70
8
 71
3
 72
8
 73
4
 74
0
 40
0
 40
0
 40
0
 40
0
 40
1
 40
1
 40
1
 40
1
 10
423.690038
 20
-53.790239
 30
0.0
 10
423.822142
 20
-53.801796
 30
0.0
 10
423.944243
 20
-53.865359
 30
0.0
 10
424.029482
 20
-53.966942
 30
0.0
  0
SPLINE
  5
20b
100
AcDbEntity
  8
Layer_1
 62
3
100
AcDbSpline
 70
8
 71
3
 72
8
 73
4
 74
0
 40
0
 40
0
 40
0
 40
0
 40
1
 40
1
 40
1
 40
1
 10
424.029482
 20
-53.966942
 30
0.0
 10
424.114721
 20
-54.068526
 30
0.0
 10
424.156115
 20
-54.199811
 30
0.0
 10
424.144558
 20
-54.331914
 30
0.0
  0
LINE
  5
20c
100
AcDbEntity
  8
Layer_1
 62
3
100
AcDbLine
 10
424.144558
 20
-54.331914
 30
0.0
 11
423.011534
 21
-67.282449
 31
0.0
  0
SPLINE
  5
20d
100
AcDbEntity
  8
Layer_1
 62
3
100
AcDbSpline
 70
8
 71
3
 72
8
 73
4
 74
0
 40
0
 40
0
 40
0
 40
0
 40
1
 40
1
 40
1
 40
1
 10
423.011534
 20
-67.282449
 30
0.0
 10
422.999976
 20
-67.414553
 30
0.0
 10
422.936414
 20
-67.536655
 30
0.0
 10
422.834830
 20
-67.621894
 30
0.0
  0
SPLINE
  5
20e
100
AcDbEntity
  8
Layer_1
 62
3
100
AcDbSpline
 70
8
 71
3
 72
8
 73
4
 74
0
 40
0
 40
0
 40
0
 40
0
 40
1
 40
1
 40
1
 40
1
 10
422.834830
 20
-67.621894
 30
0.0
 10
422.733246
 20
-67.707133
 30
0.0
 10
422.601962
 20
-67.748526
 30
0.0
 10
422.469858
 20
-67.736969
 30
0.0
  0
LINE
  5
20f
100
AcDbEntity
  8
Layer_1
 62
3
100
AcDbLine
 10
422.469858
 20
-67.736969
 30
0.0
 11
409.519323
 21
-66.603945
 31
0.0
  0
SPLINE
  5
210
100
AcDbEntity
  8
Layer_1
 62
3
100
AcDbSpline
 70
8
 71
3
 72
8
 73
4
 74
0
 40
0
 40
0
 40
0
 40
0
 40
1
 40
1
 40
1
 40
1
 10
409.519323
 20
-66.603945
 30
0.0
 10
409.387220
 20
-66.592387
 30
0.0
 10
409.265118
 20
-66.528825
 30
0.0
 10
409.179879
 20
-66.427241
 30
0.0
  0
SPLINE
  5
211
100
AcDbEntity
  8
Layer_1
 62
3
100
AcDbSpline
 70
8
 71
3
 72
8
 73
4
 74
0
 40
0
 40
0
 40
0
 40
0
 40
1
 40
1
 40
1
 40
1
 10
409.179879
 20
-66.427241
 30
0.0
 10
409.094640
 20
-66.325657
 30
0.0
 10
409.053246
 20
-66.194373
 30
0.0
 10
409.064804
 20
-66.062269
 30
0.0
  0
LINE
  5
212
100
AcDbEntity
  8
Layer_1
 62
3
100
AcDbLine
 10
409.064804
 20
-66.062269
 30
0.0
 11
410.197828
 21
-53.111734
 31
0.0
  0
SPLINE
  5
213
100
AcDbEntity
  8
Layer_1
 62
3
100
AcDbSpline
 70
8
 71
3
 72
8
 73
4
 74
0
 40
0
 40
0
 40
0
 40
0
 40
1
 40
1
 40
1
 40
1
 10
410.197828
 20
-53.111734
 30
0.0
 10
410.209385
 20
-52.979631
 30
0.0
 10
410.272947
 20
-52.857529
 30
0.0
 10
410.374531
 20
-52.772290
 30
0.0
  0
SPLINE
  5
214
100
AcDbEntity
  8
Layer_1
 62
3
100
AcDbSpline
 70
8
 71
3
 72
8
 73
4
 74
0
 40
0
 40
0
 40
0
 40
0
 40
1
 40
1
 40
1
 40
1
 10
410.374531
 20
-52.772290
 30
0.0
 10
410.476115
 20
-52.687051
 30
0.0
 10
410.607399
 20
-52.645657
 30
0.0
 10
410.739503
 20
-52.657215
 30
0.0
  0
LINE
  5
215
100
AcDbEntity
  8
Layer_1
 62
3
100
AcDbLine
 10
410.739503
 20
-52.657215
 30
0.0
 11
410.739503
 21
-52.657215
 31
0.0
  0
LINE
  5
216
100
AcDbEntity
  8
Layer_1
 62
3
100
AcDbLine
 10
483.565997
 20
-39.905929
 30
0.0
 11
496.516532
 21
-41.038953
 31
0.0
  0
SPLINE
  5
217
100
AcDbEntity
  8
Layer_1
 62
3
100
AcDbSpline
 70
8
 71
3
 72
8
 73
4
 74
0
 40
0
 40
0
 40
0
 40
0
 40
1
 40
1
 40
1
 40
1
 10
496.516532
 20
-41.038953
 30
0.0
 10
496.648636
 20
-41.050511
 30
0.0
 10
496.770738
 20
-41.114073
 30
0.0
 10
496.855977
 20
-41.215657
 30
0.0
  0
SPLINE
  5
218
100
AcDbEntity
  8
Layer_1
 62
3
100
AcDbSpline
 70
8
 71
3
 72
8
 73
4
 74
0
 40
0
 40
0
 40
0
 40
0
 40
1
 40
1
 40
1
 40
1
 10
496.855977
 20
-41.215657
 30
0.0
 10
496.941216
 20
-41.317240
 30
0.0
 10
496.982610
 20
-41.448525
 30
0.0
 10
496.971052
 20
-41.580628
 30
0.0
  0
LINE
  5
219
100
AcDbEntity
  8
Layer_1
 62
3
100
AcDbLine
 10
496.971052
 20
-41.580628
 30
0.0
 11
495.838028
 21
-54.531163
 31
0.0
  0
SPLINE
  5
21a
100
AcDbEntity
  8
Layer_1
 62
3
100
AcDbSpline
 70
8
 71
3
 72
8
 73
4
 74
0
 40
0
 40
0
 40
0
 40
0
 40
1
 40
1
 40
1
 40
1
 10
495.838028
 20
-54.531163
 30
0.0
 10
495.826470
 20
-54.663267
 30
0.0
 10
495.762908
 20
-54.785369
 30
0.0
 10
495.661324
 20
-54.870608
 30
0.0
  0
SPLINE
  5
21b
100
AcDbEntity
  8
Layer_1
 62
3
100
AcDbSpline
 70
8
 71
3
 72
8
 73
4
 74
0
 40
0
 40
0
 40
0
 40
0
 40
1
 40
1
 40
1
 40
1
 10
495.661324
 20
-54.870608
 30
0.0
 10
495.559741
 20
-54.955847
 30
0.0
 10
495.428456
 20
-54.997241
 30
0.0
 10
495.296353
 20
-54.985683
 30
0.0
  0
LINE
  5
21c
100
AcDbEntity
  8
Layer_1
 62
3
100
AcDbLine
 10
495.296353
 20
-54.985683
 30
0.0
 11
482.345818
 21
-53.852659
 31
0.0
  0
SPLINE
  5
21d
100
AcDbEntity
  8
Layer_1
 62
3
100
AcDbSpline
 70
8
 71
3
 72
8
 73
4
 74
0
 40
0
 40
0
 40
0
 40
0
 40
1
 40
1
 40
1
 40
1
 10
482.345818
 20
-53.852659
 30
0.0
 10
482.213714
 20
-53.841101
 30
0.0
 10
482.091612
 20
-53.777539
 30
0.0
 10
482.006373
 20
-53.675955
 30
0.0
  0
SPLINE
  5
21e
100
AcDbEntity
  8
Layer_1
 62
3
100
AcDbSpline
 70
8
 71
3
 72
8
 73
4
 74
0
 40
0
 40
0
 40
0
 40
0
 40
1
 40
1
 40
1
 40
1
 10
482.006373
 20
-53.675955
 30
0.0
 10
481.921134
 20
-53.574372
 30
0.0
 10
481.879740
 20
-53.443087
 30
0.0
 10
481.891298
 20
-53.310984
 30
0.0
  0
LINE
  5
21f
100
AcDbEntity
  8
Layer_1
 62
3
100
AcDbLine
 10
481.891298
 20
-53.310984
 30
0.0
 11
483.024322
 21
-40.360449
 31
0.0
  0
SPLINE
  5
220
100
AcDbEntity
  8
Layer_1
 62
3
100
AcDbSpline
 70
8
 71
3
 72
8
 73
4
 74
0
 40
0
 40
0
 40
0
 40
0
 40
1
 40
1
 40
1
 40
1
 10
483.024322
 20
-40.360449
 30
0.0
 10
483.035880
 20
-40.228345
 30
0.0
 10
483.099442
 20
-40.106243
 30
0.0
 10
483.201026
 20
-40.021004
 30
0.0
  0
SPLINE
  5
221
100
AcDbEntity
  8
Layer_1
 62
3
100
AcDbSpline
 70
8
 71
3
 72
8
 73
4
 74
0
 40
0
 40
0
 40
0
 40
0
 40
1
 40
1
 40
1
 40
1
 10
483.201026
 20
-40.021004
 30
0.0
 10
483.302610
 20
-39.935765
 30
0.0
 10
483.433894
 20
-39.894371
 30
0.0
 10
483.565997
 20
-39.905929
 30
0.0
  0
LINE
  5
222
100
AcDbEntity
  8
Layer_1
 62
3
100
AcDbLine
 10
483.565997
 20
-39.905929
 30
0.0
 11
483.565997
 21
-39.905929
 31
0.0
  0
LINE
  5
223
100
AcDbEntity
  8
Layer_1
 62
3
100
AcDbLine
 10
464.588483
 20
-38.245613
 30
0.0
 11
477.539018
 21
-39.378637
 31
0.0
  0
SPLINE
  5
224
100
AcDbEntity
  8
Layer_1
 62
3
100
AcDbSpline
 70
8
 71
3
 72
8
 73
4
 74
0
 40
0
 40
0
 40
0
 40
0
 40
1
 40
1
 40
1
 40
1
 10
477.539018
 20
-39.378637
 30
0.0
 10
477.671121
 20
-39.390195
 30
0.0
 10
477.793223
 20
-39.453757
 30
0.0
 10
477.878462
 20
-39.555341
 30
0.0
  0
SPLINE
  5
225
100
AcDbEntity
  8
Layer_1
 62
3
100
AcDbSpline
 70
8
 71
3
 72
8
 73
4
 74
0
 40
0
 40
0
 40
0
 40
0
 40
1
 40
1
 40
1
 40
1
 10
477.878462
 20
-39.555341
 30
0.0
 10
477.963701
 20
-39.656924
 30
0.0
 10
478.005095
 20
-39.788209
 30
0.0
 10
477.993537
 20
-39.920312
 30
0.0
  0
LINE
  5
226
100
AcDbEntity
  8
Layer_1
 62
3
100
AcDbLine
 10
477.993537
 20
-39.920312
 30
0.0
 11
476.860513
 21
-52.870847
 31
0.0
  0
SPLINE
  5
227
100
AcDbEntity
  8
Layer_1
 62
3
100
AcDbSpline
 70
8
 71
3
 72
8
 73
4
 74
0
 40
0
 40
0
 40
0
 40
0
 40
1
 40
1
 40
1
 40
1
 10
476.860513
 20
-52.870847
 30
0.0
 10
476.848956
 20
-53.002951
 30
0.0
 10
476.785394
 20
-53.125053
 30
0.0
 10
476.683810
 20
-53.210292
 30
0.0
  0
SPLINE
  5
228
100
AcDbEntity
  8
Layer_1
 62
3
100
AcDbSpline
 70
8
 71
3
 72
8
 73
4
 74
0
 40
0
 40
0
 40
0
 40
0
 40
1
 40
1
 40
1
 40
1
 10
476.683810
 20
-53.210292
 30
0.0
 10
476.582226
 20
-53.295531
 30
0.0
 10
476.450942
 20
-53.336925
 30
0.0
 10
476.318838
 20
-53.325367
 30
0.0
  0
LINE
  5
229
100
AcDbEntity
  8
Layer_1
 62
3
100
AcDbLine
 10
476.318838
 20
-53.325367
 30
0.0
 11
463.368303
 21
-52.192343
 31
0.0
  0
SPLINE
  5
22a
100
AcDbEntity
  8
Layer_1
 62
3
100
AcDbSpline
 70
8
 71
3
 72
8
 73
4
 74
0
 40
0
 40
0
 40
0
 40
0
 40
1
 40
1
 40
1
 40
1
 10
463.368303
 20
-52.192343
 30
0.0
 10
463.236199
 20
-52.180785
 30
0.0
 10
463.114097
 20
-52.117223
 30
0.0
 10
463.028858
 20
-52.015639
 30
0.0
  0
SPLINE
  5
22b
100
AcDbEntity
  8
Layer_1
 62
3
100
AcDbSpline
 70
8
 71
3
 72
8
 73
4
 74
0
 40
0
 40
0
 40
0
 40
0
 40
1
 40
1
 40
1
 40
1
 10
463.028858
 20
-52.015639
 30
0.0
 10
462.943619
 20
-51.914055
 30
0.0
 10
462.902226
 20
-51.782771
 30
0.0
 10
462.913783
 20
-51.650667
 30
0.0
  0
LINE
  5
22c
100
AcDbEntity
  8
Layer_1
 62
3
100
AcDbLine
 10
462.913783
 20
-51.650667
 30
0.0
 11
464.046807
 21
-38.700132
 31
0.0
  0
SPLINE
  5
22d
100
AcDbEntity
  8
Layer_1
 62
3
100
AcDbSpline
 70
8
 71
3
 72
8
 73
4
 74
0
 40
0
 40
0
 40
0
 40
0
 40
1
 40
1
 40
1
 40
1
 10
464.046807
 20
-38.700132
 30
0.0
 10
464.058365
 20
-38.568029
 30
0.0
 10
464.121927
 20
-38.445927
 30
0.0
 10
464.223511
 20
-38.360688
 30
0.0
  0
SPLINE
  5
22e
100
AcDbEntity
  8
Layer_1
 62
3
100
AcDbSpline
 70
8
 71
3
 72
8
 73
4
 74
0
 40
0
 40
0
 40
0
 40
0
 40
1
 40
1
 40
1
 40
1
 10
464.223511
 20
-38.360688
 30
0.0
 10
464.325095
 20
-38.275449
 30
0.0
 10
464.456379
 20
-38.234055
 30
0.0
 10
464.588483
 20
-38.245613
 30
0.0
  0
LINE
  5
22f
100
AcDbEntity
  8
Layer_1
 62
3
100
AcDbLine
 10
464.588483
 20
-38.245613
 30
0.0
 11
464.588483
 21
-38.245613
 31
0.0
  0
LINE
  5
230
100
AcDbEntity
  8
Layer_1
 62
3
100
AcDbLine
 10
445.610968
 20
-36.585297
 30
0.0
 11
458.561503
 21
-37.718321
 31
0.0
  0
SPLINE
  5
231
100
AcDbEntity
  8
Layer_1
 62
3
100
AcDbSpline
 70
8
 71
3
 72
8
 73
4
 74
0
 40
0
 40
0
 40
0
 40
0
 40
1
 40
1
 40
1
 40
1
 10
458.561503
 20
-37.718321
 30
0.0
 10
458.693607
 20
-37.729878
 30
0.0
 10
458.815708
 20
-37.793441
 30
0.0
 10
458.900947
 20
-37.895024
 30
0.0
  0
SPLINE
  5
232
100
AcDbEntity
  8
Layer_1
 62
3
100
AcDbSpline
 70
8
 71
3
 72
8
 73
4
 74
0
 40
0
 40
0
 40
0
 40
0
 40
1
 40
1
 40
1
 40
1
 10
458.900947
 20
-37.895024
 30
0.0
 10
458.986186
 20
-37.996608
 30
0.0
 10
459.027580
 20
-38.127893
 30
0.0
 10
459.016023
 20
-38.259996
 30
0.0
  0
LINE
  5
233
100
AcDbEntity
  8
Layer_1
 62
3
100
AcDbLine
 10
459.016023
 20
-38.259996
 30
0.0
 11
457.882999
 21
-51.210531
 31
0.0
  0
SPLINE
  5
234
100
AcDbEntity
  8
Layer_1
 62
3
100
AcDbSpline
 70
8
 71
3
 72
8
 73
4
 74
0
 40
0
 40
0
 40
0
 40
0
 40
1
 40
1
 40
1
 40
1
 10
457.882999
 20
-51.210531
 30
0.0
 10
457.871441
 20
-51.342635
 30
0.0
 10
457.807879
 20
-51.464737
 30
0.0
 10
457.706295
 20
-51.549976
 30
0.0
  0
SPLINE
  5
235
100
AcDbEntity
  8
Layer_1
 62
3
100
AcDbSpline
 70
8
 71
3
 72
8
 73
4
 74
0
 40
0
 40
0
 40
0
 40
0
 40
1
 40
1
 40
1
 40
1
 10
457.706295
 20
-51.549976
 30
0.0
 10
457.604711
 20
-51.635215
 30
0.0
 10
457.473427
 20
-51.676608
 30
0.0
 10
457.341323
 20
-51.665051
 30
0.0
  0
LINE
  5
236
100
AcDbEntity
  8
Layer_1
 62
3
100
AcDbLine
 10
457.341323
 20
-51.665051
 30
0.0
 11
444.390788
 21
-50.532027
 31
0.0
  0
SPLINE
  5
237
100
AcDbEntity
  8
Layer_1
 62
3
100
AcDbSpline
 70
8
 71
3
 72
8
 73
4
 74
0
 40
0
 40
0
 40
0
 40
0
 40
1
 40
1
 40
1
 40
1
 10
444.390788
 20
-50.532027
 30
0.0
 10
444.258685
 20
-50.520469
 30
0.0
 10
444.136583
 20
-50.456907
 30
0.0
 10
444.051344
 20
-50.355323
 30
0.0
  0
SPLINE
  5
238
100
AcDbEntity
  8
Layer_1
 62
3
100
AcDbSpline
 70
8
 71
3
 72
8
 73
4
 74
0
 40
0
 40
0
 40
0
 40
0
 40
1
 40
1
 40
1
 40
1
 10
444.051344
 20
-50.355323
 30
0.0
 10
443.966105
 20
-50.253739
 30
0.0
 10
443.924711
 20
-50.122455
 30
0.0
 10
443.936269
 20
-49.990351
 30
0.0
  0
LINE
  5
239
100
AcDbEntity
  8
Layer_1
 62
3
100
AcDbLine
 10
443.936269
 20
-49.990351
 30
0.0
 11
445.069293
 21
-37.039816
 31
0.0
  0
SPLINE
  5
23a
100
AcDbEntity
  8
Layer_1
 62
3
100
AcDbSpline
 70
8
 71
3
 72
8
 73
4
 74
0
 40
0
 40
0
 40
0
 40
0
 40
1
 40
1
 40
1
 40
1
 10
445.069293
 20
-37.039816
 30
0.0
 10
445.080850
 20
-36.907713
 30
0.0
 10
445.144412
 20
-36.785611
 30
0.0
 10
445.245996
 20
-36.700372
 30
0.0
  0
SPLINE
  5
23b
100
AcDbEntity
  8
Layer_1
 62
3
100
AcDbSpline
 70
8
 71
3
 72
8
 73
4
 74
0
 40
0
 40
0
 40
0
 40
0
 40
1
 40
1
 40
1
 40
1
 10
445.245996
 20
-36.700372
 30
0.0
 10
445.347580
 20
-36.615133
 30
0.0
 10
445.478864
 20
-36.573739
 30
0.0
 10
445.610968
 20
-36.585297
 30
0.0
  0
LINE
  5
23c
100
AcDbEntity
  8
Layer_1
 62
3
100
AcDbLine
 10
445.610968
 20
-36.585297
 30
0.0
 11
445.610968
 21
-36.585297
 31
0.0
  0
LINE
  5
23d
100
AcDbEntity
  8
Layer_1
 62
3
100
AcDbLine
 10
407.655938
 20
-33.264665
 30
0.0
 11
420.606473
 21
-34.397689
 31
0.0
  0
SPLINE
  5
23e
100
AcDbEntity
  8
Layer_1
 62
3
100
AcDbSpline
 70
8
 71
3
 72
8
 73
4
 74
0
 40
0
 40
0
 40
0
 40
0
 40
1
 40
1
 40
1
 40
1
 10
420.606473
 20
-34.397689
 30
0.0
 10
420.738577
 20
-34.409246
 30
0.0
 10
420.860679
 20
-34.472808
 30
0.0
 10
420.945918
 20
-34.574392
 30
0.0
  0
SPLINE
  5
23f
100
AcDbEntity
  8
Layer_1
 62
3
100
AcDbSpline
 70
8
 71
3
 72
8
 73
4
 74
0
 40
0
 40
0
 40
0
 40
0
 40
1
 40
1
 40
1
 40
1
 10
420.945918
 20
-34.574392
 30
0.0
 10
421.031157
 20
-34.675976
 30
0.0
 10
421.072551
 20
-34.807260
 30
0.0
 10
421.060993
 20
-34.939364
 30
0.0
  0
LINE
  5
240
100
AcDbEntity
  8
Layer_1
 62
3
100
AcDbLine
 10
421.060993
 20
-34.939364
 30
0.0
 11
419.927969
 21
-47.889899
 31
0.0
  0
SPLINE
  5
241
100
AcDbEntity
  8
Layer_1
 62
3
100
AcDbSpline
 70
8
 71
3
 72
8
 73
4
 74
0
 40
0
 40
0
 40
0
 40
0
 40
1
 40
1
 40
1
 40
1
 10
419.927969
 20
-47.889899
 30
0.0
 10
419.916411
 20
-48.022003
 30
0.0
 10
419.852849
 20
-48.144105
 30
0.0
 10
419.751265
 20
-48.229344
 30
0.0
  0
SPLINE
  5
242
100
AcDbEntity
  8
Layer_1
 62
3
100
AcDbSpline
 70
8
 71
3
 72
8
 73
4
 74
0
 40
0
 40
0
 40
0
 40
0
 40
1
 40
1
 40
1
 40
1
 10
419.751265
 20
-48.229344
 30
0.0
 10
419.649682
 20
-48.314582
 30
0.0
 10
419.518397
 20
-48.355976
 30
0.0
 10
419.386294
 20
-48.344419
 30
0.0
  0
LINE
  5
243
100
AcDbEntity
  8
Layer_1
 62
3
100
AcDbLine
 10
419.386294
 20
-48.344419
 30
0.0
 11
406.435759
 21
-47.211395
 31
0.0
  0
SPLINE
  5
244
100
AcDbEntity
  8
Layer_1
 62
3
100
AcDbSpline
 70
8
 71
3
 72
8
 73
4
 74
0
 40
0
 40
0
 40
0
 40
0
 40
1
 40
1
 40
1
 40
1
 10
406.435759
 20
-47.211395
 30
0.0
 10
406.303655
 20
-47.199837
 30
0.0
 10
406.181553
 20
-47.136275
 30
0.0
 10
406.096314
 20
-47.034691
 30
0.0
  0
SPLINE
  5
245
100
AcDbEntity
  8
Layer_1
 62
3
100
AcDbSpline
 70
8
 71
3
 72
8
 73
4
 74
0
 40
0
 40
0
 40
0
 40
0
 40
1
 40
1
 40
1
 40
1
 10
406.096314
 20
-47.034691
 30
0.0
 10
406.011075
 20
-46.933107
 30
0.0
 10
405.969681
 20
-46.801823
 30
0.0
 10
405.981239
 20
-46.669719
 30
0.0
  0
LINE
  5
246
100
AcDbEntity
  8
Layer_1
 62
3
100
AcDbLine
 10
405.981239
 20
-46.669719
 30
0.0
 11
407.114263
 21
-33.719184
 31
0.0
  0
SPLINE
  5
247
100
AcDbEntity
  8
Layer_1
 62
3
100
AcDbSpline
 70
8
 71
3
 72
8
 73
4
 74
0
 40
0
 40
0
 40
0
 40
0
 40
1
 40
1
 40
1
 40
1
 10
407.114263
 20
-33.719184
 30
0.0
 10
407.125821
 20
-33.587081
 30
0.0
 10
407.189383
 20
-33.464979
 30
0.0
 10
407.290967
 20
-33.379740
 30
0.0
  0
SPLINE
  5
248
100
AcDbEntity
  8
Layer_1
 62
3
100
AcDbSpline
 70
8
 71
3
 72
8
 73
4
 74
0
 40
0
 40
0
 40
0
 40
0
 40
1
 40
1
 40
1
 40
1
 10
407.290967
 20
-33.379740
 30
0.0
 10
407.392551
 20
-33.294501
 30
0.0
 10
407.523835
 20
-33.253107
 30
0.0
 10
407.655938
 20
-33.264665
 30
0.0
  0
LINE
  5
249
100
AcDbEntity
  8
Layer_1
 62
3
100
AcDbLine
 10
407.655938
 20
-33.264665
 30
0.0
 11
407.655938
 21
-33.264665
 31
0.0
  0
LINE
  5
24a
100
AcDbEntity
  8
Layer_1
 62
3
100
AcDbLine
 10
381.561607
 20
-30.981708
 30
0.0
 11
394.512142
 21
-32.114732
 31
0.0
  0
SPLINE
  5
24b
100
AcDbEntity
  8
Layer_1
 62
3
100
AcDbSpline
 70
8
 71
3
 72
8
 73
4
 74
0
 40
0
 40
0
 40
0
 40
0
 40
1
 40
1
 40
1
 40
1
 10
394.512142
 20
-32.114732
 30
0.0
 10
394.644245
 20
-32.126290
 30
0.0
 10
394.766347
 20
-32.189852
 30
0.0
 10
394.851586
 20
-32.291436
 30
0.0
  0
SPLINE
  5
24c
100
AcDbEntity
  8
Layer_1
 62
3
100
AcDbSpline
 70
8
 71
3
 72
8
 73
4
 74
0
 40
0
 40
0
 40
0
 40
0
 40
1
 40
1
 40
1
 40
1
 10
394.851586
 20
-32.291436
 30
0.0
 10
394.936825
 20
-32.393020
 30
0.0
 10
394.978219
 20
-32.524304
 30
0.0
 10
394.966661
 20
-32.656408
 30
0.0
  0
LINE
  5
24d
100
AcDbEntity
  8
Layer_1
 62
3
100
AcDbLine
 10
394.966661
 20
-32.656408
 30
0.0
 11
393.833637
 21
-45.606943
 31
0.0
  0
SPLINE
  5
24e
100
AcDbEntity
  8
Layer_1
 62
3
100
AcDbSpline
 70
8
 71
3
 72
8
 73
4
 74
0
 40
0
 40
0
 40
0
 40
0
 40
1
 40
1
 40
1
 40
1
 10
393.833637
 20
-45.606943
 30
0.0
 10
393.822080
 20
-45.739046
 30
0.0
 10
393.758517
 20
-45.861148
 30
0.0
 10
393.656934
 20
-45.946387
 30
0.0
  0
SPLINE
  5
24f
100
AcDbEntity
  8
Layer_1
 62
3
100
AcDbSpline
 70
8
 71
3
 72
8
 73
4
 74
0
 40
0
 40
0
 40
0
 40
0
 40
1
 40
1
 40
1
 40
1
 10
393.656934
 20
-45.946387
 30
0.0
 10
393.555350
 20
-46.031626
 30
0.0
 10
393.424066
 20
-46.073020
 30
0.0
 10
393.291962
 20
-46.061462
 30
0.0
  0
LINE
  5
250
100
AcDbEntity
  8
Layer_1
 62
3
100
AcDbLine
 10
393.291962
 20
-46.061462
 30
0.0
 11
380.341427
 21
-44.928438
 31
0.0
  0
SPLINE
  5
251
100
AcDbEntity
  8
Layer_1
 62
3
100
AcDbSpline
 70
8
 71
3
 72
8
 73
4
 74
0
 40
0
 40
0
 40
0
 40
0
 40
1
 40
1
 40
1
 40
1
 10
380.341427
 20
-44.928438
 30
0.0
 10
380.209323
 20
-44.916881
 30
0.0
 10
380.087221
 20
-44.853318
 30
0.0
 10
380.001982
 20
-44.751735
 30
0.0
  0
SPLINE
  5
252
100
AcDbEntity
  8
Layer_1
 62
3
100
AcDbSpline
 70
8
 71
3
 72
8
 73
4
 74
0
 40
0
 40
0
 40
0
 40
0
 40
1
 40
1
 40
1
 40
1
 10
380.001982
 20
-44.751735
 30
0.0
 10
379.916743
 20
-44.650151
 30
0.0
 10
379.875350
 20
-44.518867
 30
0.0
 10
379.886907
 20
-44.386763
 30
0.0
  0
LINE
  5
253
100
AcDbEntity
  8
Layer_1
 62
3
100
AcDbLine
 10
379.886907
 20
-44.386763
 30
0.0
 11
381.019931
 21
-31.436228
 31
0.0
  0
SPLINE
  5
254
100
AcDbEntity
  8
Layer_1
 62
3
100
AcDbSpline
 70
8
 71
3
 72
8
 73
4
 74
0
 40
0
 40
0
 40
0
 40
0
 40
1
 40
1
 40
1
 40
1
 10
381.019931
 20
-31.436228
 30
0.0
 10
381.031489
 20
-31.304124
 30
0.0
 10
381.095051
 20
-31.182022
 30
0.0
 10
381.196635
 20
-31.096783
 30
0.0
  0
SPLINE
  5
255
100
AcDbEntity
  8
Layer_1
 62
3
100
AcDbSpline
 70
8
 71
3
 72
8
 73
4
 74
0
 40
0
 40
0
 40
0
 40
0
 40
1
 40
1
 40
1
 40
1
 10
381.196635
 20
-31.096783
 30
0.0
 10
381.298219
 20
-31.011544
 30
0.0
 10
381.429503
 20
-30.970151
 30
0.0
 10
381.561607
 20
-30.981708
 30
0.0
  0
LINE
  5
256
100
AcDbEntity
  8
Layer_1
 62
3
100
AcDbLine
 10
381.561607
 20
-30.981708
 30
0.0
 11
381.561607
 21
-30.981708
 31
0.0
  0
LINE
  5
257
100
AcDbEntity
  8
Layer_1
 62
3
100
AcDbLine
 10
391.761988
 20
-50.996899
 30
0.0
 11
404.712523
 21
-52.129923
 31
0.0
  0
SPLINE
  5
258
100
AcDbEntity
  8
Layer_1
 62
3
100
AcDbSpline
 70
8
 71
3
 72
8
 73
4
 74
0
 40
0
 40
0
 40
0
 40
0
 40
1
 40
1
 40
1
 40
1
 10
404.712523
 20
-52.129923
 30
0.0
 10
404.844627
 20
-52.141480
 30
0.0
 10
404.966729
 20
-52.205043
 30
0.0
 10
405.051968
 20
-52.306626
 30
0.0
  0
SPLINE
  5
259
100
AcDbEntity
  8
Layer_1
 62
3
100
AcDbSpline
 70
8
 71
3
 72
8
 73
4
 74
0
 40
0
 40
0
 40
0
 40
0
 40
1
 40
1
 40
1
 40
1
 10
405.051968
 20
-52.306626
 30
0.0
 10
405.137207
 20
-52.408210
 30
0.0
 10
405.178600
 20
-52.539494
 30
0.0
 10
405.167043
 20
-52.671598
 30
0.0
  0
LINE
  5
25a
100
AcDbEntity
  8
Layer_1
 62
3
100
AcDbLine
 10
405.167043
 20
-52.671598
 30
0.0
 11
404.034019
 21
-65.622133
 31
0.0
  0
SPLINE
  5
25b
100
AcDbEntity
  8
Layer_1
 62
3
100
AcDbSpline
 70
8
 71
3
 72
8
 73
4
 74
0
 40
0
 40
0
 40
0
 40
0
 40
1
 40
1
 40
1
 40
1
 10
404.034019
 20
-65.622133
 30
0.0
 10
404.022461
 20
-65.754237
 30
0.0
 10
403.958899
 20
-65.876339
 30
0.0
 10
403.857315
 20
-65.961578
 30
0.0
  0
SPLINE
  5
25c
100
AcDbEntity
  8
Layer_1
 62
3
100
AcDbSpline
 70
8
 71
3
 72
8
 73
4
 74
0
 40
0
 40
0
 40
0
 40
0
 40
1
 40
1
 40
1
 40
1
 10
403.857315
 20
-65.961578
 30
0.0
 10
403.755731
 20
-66.046817
 30
0.0
 10
403.624447
 20
-66.088210
 30
0.0
 10
403.492343
 20
-66.076653
 30
0.0
  0
LINE
  5
25d
100
AcDbEntity
  8
Layer_1
 62
3
100
AcDbLine
 10
403.492343
 20
-66.076653
 30
0.0
 11
390.541808
 21
-64.943629
 31
0.0
  0
SPLINE
  5
25e
100
AcDbEntity
  8
Layer_1
 62
3
100
AcDbSpline
 70
8
 71
3
 72
8
 73
4
 74
0
 40
0
 40
0
 40
0
 40
0
 40
1
 40
1
 40
1
 40
1
 10
390.541808
 20
-64.943629
 30
0.0
 10
390.409705
 20
-64.932071
 30
0.0
 10
390.287603
 20
-64.868509
 30
0.0
 10
390.202364
 20
-64.766925
 30
0.0
  0
SPLINE
  5
25f
100
AcDbEntity
  8
Layer_1
 62
3
100
AcDbSpline
 70
8
 71
3
 72
8
 73
4
 74
0
 40
0
 40
0
 40
0
 40
0
 40
1
 40
1
 40
1
 40
1
 10
390.202364
 20
-64.766925
 30
0.0
 10
390.117125
 20
-64.665341
 30
0.0
 10
390.075731
 20
-64.534057
 30
0.0
 10
390.087289
 20
-64.401953
 30
0.0
  0
LINE
  5
260
100
AcDbEntity
  8
Layer_1
 62
3
100
AcDbLine
 10
390.087289
 20
-64.401953
 30
0.0
 11
391.220313
 21
-51.451418
 31
0.0
  0
SPLINE
  5
261
100
AcDbEntity
  8
Layer_1
 62
3
100
AcDbSpline
 70
8
 71
3
 72
8
 73
4
 74
0
 40
0
 40
0
 40
0
 40
0
 40
1
 40
1
 40
1
 40
1
 10
391.220313
 20
-51.451418
 30
0.0
 10
391.231870
 20
-51.319315
 30
0.0
 10
391.295433
 20
-51.197213
 30
0.0
 10
391.397016
 20
-51.111974
 30
0.0
  0
SPLINE
  5
262
100
AcDbEntity
  8
Layer_1
 62
3
100
AcDbSpline
 70
8
 71
3
 72
8
 73
4
 74
0
 40
0
 40
0
 40
0
 40
0
 40
1
 40
1
 40
1
 40
1
 10
391.397016
 20
-51.111974
 30
0.0
 10
391.498600
 20
-51.026735
 30
0.0
 10
391.629885
 20
-50.985341
 30
0.0
 10
391.761988
 20
-50.996899
 30
0.0
  0
LINE
  5
263
100
AcDbEntity
  8
Layer_1
 62
3
100
AcDbLine
 10
391.761988
 20
-50.996899
 30
0.0
 11
391.761988
 21
-50.996899
 31
0.0
  0
LINE
  5
264
100
AcDbEntity
  8
Layer_1
 62
3
100
AcDbLine
 10
475.737556
 20
-20.098256
 30
0.0
 11
488.688091
 21
-21.231280
 31
0.0
  0
SPLINE
  5
265
100
AcDbEntity
  8
Layer_1
 62
3
100
AcDbSpline
 70
8
 71
3
 72
8
 73
4
 74
0
 40
0
 40
0
 40
0
 40
0
 40
1
 40
1
 40
1
 40
1
 10
488.688091
 20
-21.231280
 30
0.0
 10
488.820195
 20
-21.242838
 30
0.0
 10
488.942297
 20
-21.306400
 30
0.0
 10
489.027536
 20
-21.407984
 30
0.0
  0
SPLINE
  5
266
100
AcDbEntity
  8
Layer_1
 62
3
100
AcDbSpline
 70
8
 71
3
 72
8
 73
4
 74
0
 40
0
 40
0
 40
0
 40
0
 40
1
 40
1
 40
1
 40
1
 10
489.027536
 20
-21.407984
 30
0.0
 10
489.112775
 20
-21.509568
 30
0.0
 10
489.154168
 20
-21.640852
 30
0.0
 10
489.142611
 20
-21.772956
 30
0.0
  0
LINE
  5
267
100
AcDbEntity
  8
Layer_1
 62
3
100
AcDbLine
 10
489.142611
 20
-21.772956
 30
0.0
 11
488.009587
 21
-34.723491
 31
0.0
  0
SPLINE
  5
268
100
AcDbEntity
  8
Layer_1
 62
3
100
AcDbSpline
 70
8
 71
3
 72
8
 73
4
 74
0
 40
0
 40
0
 40
0
 40
0
 40
1
 40
1
 40
1
 40
1
 10
488.009587
 20
-34.723491
 30
0.0
 10
487.998029
 20
-34.855594
 30
0.0
 10
487.934467
 20
-34.977696
 30
0.0
 10
487.832883
 20
-35.062935
 30
0.0
  0
SPLINE
  5
269
100
AcDbEntity
  8
Layer_1
 62
3
100
AcDbSpline
 70
8
 71
3
 72
8
 73
4
 74
0
 40
0
 40
0
 40
0
 40
0
 40
1
 40
1
 40
1
 40
1
 10
487.832883
 20
-35.062935
 30
0.0
 10
487.731299
 20
-35.148174
 30
0.0
 10
487.600015
 20
-35.189568
 30
0.0
 10
487.467911
 20
-35.178010
 30
0.0
  0
LINE
  5
26a
100
AcDbEntity
  8
Layer_1
 62
3
100
AcDbLine
 10
487.467911
 20
-35.178010
 30
0.0
 11
474.517376
 21
-34.044986
 31
0.0
  0
SPLINE
  5
26b
100
AcDbEntity
  8
Layer_1
 62
3
100
AcDbSpline
 70
8
 71
3
 72
8
 73
4
 74
0
 40
0
 40
0
 40
0
 40
0
 40
1
 40
1
 40
1
 40
1
 10
474.517376
 20
-34.044986
 30
0.0
 10
474.385273
 20
-34.033429
 30
0.0
 10
474.263171
 20
-33.969866
 30
0.0
 10
474.177932
 20
-33.868283
 30
0.0
  0
SPLINE
  5
26c
100
AcDbEntity
  8
Layer_1
 62
3
100
AcDbSpline
 70
8
 71
3
 72
8
 73
4
 74
0
 40
0
 40
0
 40
0
 40
0
 40
1
 40
1
 40
1
 40
1
 10
474.177932
 20
-33.868283
 30
0.0
 10
474.092693
 20
-33.766699
 30
0.0
 10
474.051299
 20
-33.635414
 30
0.0
 10
474.062857
 20
-33.503311
 30
0.0
  0
LINE
  5
26d
100
AcDbEntity
  8
Layer_1
 62
3
100
AcDbLine
 10
474.062857
 20
-33.503311
 30
0.0
 11
475.195881
 21
-20.552776
 31
0.0
  0
SPLINE
  5
26e
100
AcDbEntity
  8
Layer_1
 62
3
100
AcDbSpline
 70
8
 71
3
 72
8
 73
4
 74
0
 40
0
 40
0
 40
0
 40
0
 40
1
 40
1
 40
1
 40
1
 10
475.195881
 20
-20.552776
 30
0.0
 10
475.207438
 20
-20.420672
 30
0.0
 10
475.271001
 20
-20.298570
 30
0.0
 10
475.372584
 20
-20.213331
 30
0.0
  0
SPLINE
  5
26f
100
AcDbEntity
  8
Layer_1
 62
3
100
AcDbSpline
 70
8
 71
3
 72
8
 73
4
 74
0
 40
0
 40
0
 40
0
 40
0
 40
1
 40
1
 40
1
 40
1
 10
475.372584
 20
-20.213331
 30
0.0
 10
475.474168
 20
-20.128092
 30
0.0
 10
475.605453
 20
-20.086699
 30
0.0
 10
475.737556
 20
-20.098256
 30
0.0
  0
LINE
  5
270
100
AcDbEntity
  8
Layer_1
 62
3
100
AcDbLine
 10
475.737556
 20
-20.098256
 30
0.0
 11
475.737556
 21
-20.098256
 31
0.0
  0
LINE
  5
271
100
AcDbEntity
  8
Layer_1
 62
3
100
AcDbLine
 10
456.760041
 20
-18.437940
 30
0.0
 11
469.710576
 21
-19.570964
 31
0.0
  0
SPLINE
  5
272
100
AcDbEntity
  8
Layer_1
 62
3
100
AcDbSpline
 70
8
 71
3
 72
8
 73
4
 74
0
 40
0
 40
0
 40
0
 40
0
 40
1
 40
1
 40
1
 40
1
 10
469.710576
 20
-19.570964
 30
0.0
 10
469.842680
 20
-19.582522
 30
0.0
 10
469.964782
 20
-19.646084
 30
0.0
 10
470.050021
 20
-19.747668
 30
0.0
  0
SPLINE
  5
273
100
AcDbEntity
  8
Layer_1
 62
3
100
AcDbSpline
 70
8
 71
3
 72
8
 73
4
 74
0
 40
0
 40
0
 40
0
 40
0
 40
1
 40
1
 40
1
 40
1
 10
470.050021
 20
-19.747668
 30
0.0
 10
470.135260
 20
-19.849252
 30
0.0
 10
470.176654
 20
-19.980536
 30
0.0
 10
470.165096
 20
-20.112640
 30
0.0
  0
LINE
  5
274
100
AcDbEntity
  8
Layer_1
 62
3
100
AcDbLine
 10
470.165096
 20
-20.112640
 30
0.0
 11
469.032072
 21
-33.063175
 31
0.0
  0
SPLINE
  5
275
100
AcDbEntity
  8
Layer_1
 62
3
100
AcDbSpline
 70
8
 71
3
 72
8
 73
4
 74
0
 40
0
 40
0
 40
0
 40
0
 40
1
 40
1
 40
1
 40
1
 10
469.032072
 20
-33.063175
 30
0.0
 10
469.020514
 20
-33.195278
 30
0.0
 10
468.956952
 20
-33.317380
 30
0.0
 10
468.855368
 20
-33.402619
 30
0.0
  0
SPLINE
  5
276
100
AcDbEntity
  8
Layer_1
 62
3
100
AcDbSpline
 70
8
 71
3
 72
8
 73
4
 74
0
 40
0
 40
0
 40
0
 40
0
 40
1
 40
1
 40
1
 40
1
 10
468.855368
 20
-33.402619
 30
0.0
 10
468.753785
 20
-33.487858
 30
0.0
 10
468.622500
 20
-33.529252
 30
0.0
 10
468.490397
 20
-33.517694
 30
0.0
  0
LINE
  5
277
100
AcDbEntity
  8
Layer_1
 62
3
100
AcDbLine
 10
468.490397
 20
-33.517694
 30
0.0
 11
455.539862
 21
-32.384670
 31
0.0
  0
SPLINE
  5
278
100
AcDbEntity
  8
Layer_1
 62
3
100
AcDbSpline
 70
8
 71
3
 72
8
 73
4
 74
0
 40
0
 40
0
 40
0
 40
0
 40
1
 40
1
 40
1
 40
1
 10
455.539862
 20
-32.384670
 30
0.0
 10
455.407758
 20
-32.373112
 30
0.0
 10
455.285656
 20
-32.309550
 30
0.0
 10
455.200417
 20
-32.207966
 30
0.0
  0
SPLINE
  5
279
100
AcDbEntity
  8
Layer_1
 62
3
100
AcDbSpline
 70
8
 71
3
 72
8
 73
4
 74
0
 40
0
 40
0
 40
0
 40
0
 40
1
 40
1
 40
1
 40
1
 10
455.200417
 20
-32.207966
 30
0.0
 10
455.115178
 20
-32.106383
 30
0.0
 10
455.073784
 20
-31.975098
 30
0.0
 10
455.085342
 20
-31.842995
 30
0.0
  0
LINE
  5
27a
100
AcDbEntity
  8
Layer_1
 62
3
100
AcDbLine
 10
455.085342
 20
-31.842995
 30
0.0
 11
456.218366
 21
-18.892460
 31
0.0
  0
SPLINE
  5
27b
100
AcDbEntity
  8
Layer_1
 62
3
100
AcDbSpline
 70
8
 71
3
 72
8
 73
4
 74
0
 40
0
 40
0
 40
0
 40
0
 40
1
 40
1
 40
1
 40
1
 10
456.218366
 20
-18.892460
 30
0.0
 10
456.229924
 20
-18.760356
 30
0.0
 10
456.293486
 20
-18.638254
 30
0.0
 10
456.395070
 20
-18.553015
 30
0.0
  0
SPLINE
  5
27c
100
AcDbEntity
  8
Layer_1
 62
3
100
AcDbSpline
 70
8
 71
3
 72
8
 73
4
 74
0
 40
0
 40
0
 40
0
 40
0
 40
1
 40
1
 40
1
 40
1
 10
456.395070
 20
-18.553015
 30
0.0
 10
456.496653
 20
-18.467776
 30
0.0
 10
456.627938
 20
-18.426382
 30
0.0
 10
456.760041
 20
-18.437940
 30
0.0
  0
LINE
  5
27d
100
AcDbEntity
  8
Layer_1
 62
3
100
AcDbLine
 10
456.760041
 20
-18.437940
 30
0.0
 11
456.760041
 21
-18.437940
 31
0.0
  0
LINE
  5
27e
100
AcDbEntity
  8
Layer_1
 62
3
100
AcDbLine
 10
437.782527
 20
-16.777624
 30
0.0
 11
450.733062
 21
-17.910648
 31
0.0
  0
SPLINE
  5
27f
100
AcDbEntity
  8
Layer_1
 62
3
100
AcDbSpline
 70
8
 71
3
 72
8
 73
4
 74
0
 40
0
 40
0
 40
0
 40
0
 40
1
 40
1
 40
1
 40
1
 10
450.733062
 20
-17.910648
 30
0.0
 10
450.865165
 20
-17.922206
 30
0.0
 10
450.987267
 20
-17.985768
 30
0.0
 10
451.072506
 20
-18.087352
 30
0.0
  0
SPLINE
  5
280
100
AcDbEntity
  8
Layer_1
 62
3
100
AcDbSpline
 70
8
 71
3
 72
8
 73
4
 74
0
 40
0
 40
0
 40
0
 40
0
 40
1
 40
1
 40
1
 40
1
 10
451.072506
 20
-18.087352
 30
0.0
 10
451.157745
 20
-18.188935
 30
0.0
 10
451.199139
 20
-18.320220
 30
0.0
 10
451.187581
 20
-18.452323
 30
0.0
  0
LINE
  5
281
100
AcDbEntity
  8
Layer_1
 62
3
100
AcDbLine
 10
451.187581
 20
-18.452323
 30
0.0
 11
450.054557
 21
-31.402858
 31
0.0
  0
SPLINE
  5
282
100
AcDbEntity
  8
Layer_1
 62
3
100
AcDbSpline
 70
8
 71
3
 72
8
 73
4
 74
0
 40
0
 40
0
 40
0
 40
0
 40
1
 40
1
 40
1
 40
1
 10
450.054557
 20
-31.402858
 30
0.0
 10
450.043000
 20
-31.534962
 30
0.0
 10
449.979437
 20
-31.657064
 30
0.0
 10
449.877854
 20
-31.742303
 30
0.0
  0
SPLINE
  5
283
100
AcDbEntity
  8
Layer_1
 62
3
100
AcDbSpline
 70
8
 71
3
 72
8
 73
4
 74
0
 40
0
 40
0
 40
0
 40
0
 40
1
 40
1
 40
1
 40
1
 10
449.877854
 20
-31.742303
 30
0.0
 10
449.776270
 20
-31.827542
 30
0.0
 10
449.644986
 20
-31.868936
 30
0.0
 10
449.512882
 20
-31.857378
 30
0.0
  0
LINE
  5
284
100
AcDbEntity
  8
Layer_1
 62
3
100
AcDbLine
 10
449.512882
 20
-31.857378
 30
0.0
 11
436.562347
 21
-30.724354
 31
0.0
  0
SPLINE
  5
285
100
AcDbEntity
  8
Layer_1
 62
3
100
AcDbSpline
 70
8
 71
3
 72
8
 73
4
 74
0
 40
0
 40
0
 40
0
 40
0
 40
1
 40
1
 40
1
 40
1
 10
436.562347
 20
-30.724354
 30
0.0
 10
436.430243
 20
-30.712796
 30
0.0
 10
436.308141
 20
-30.649234
 30
0.0
 10
436.222902
 20
-30.547650
 30
0.0
  0
SPLINE
  5
286
100
AcDbEntity
  8
Layer_1
 62
3
100
AcDbSpline
 70
8
 71
3
 72
8
 73
4
 74
0
 40
0
 40
0
 40
0
 40
0
 40
1
 40
1
 40
1
 40
1
 10
436.222902
 20
-30.547650
 30
0.0
 10
436.137663
 20
-30.446067
 30
0.0
 10
436.096270
 20
-30.314782
 30
0.0
 10
436.107827
 20
-30.182679
 30
0.0
  0
LINE
  5
287
100
AcDbEntity
  8
Layer_1
 62
3
100
AcDbLine
 10
436.107827
 20
-30.182679
 30
0.0
 11
437.240851
 21
-17.232144
 31
0.0
  0
SPLINE
  5
288
100
AcDbEntity
  8
Layer_1
 62
3
100
AcDbSpline
 70
8
 71
3
 72
8
 73
4
 74
0
 40
0
 40
0
 40
0
 40
0
 40
1
 40
1
 40
1
 40
1
 10
437.240851
 20
-17.232144
 30
0.0
 10
437.252409
 20
-17.100040
 30
0.0
 10
437.315971
 20
-16.977938
 30
0.0
 10
437.417555
 20
-16.892699
 30
0.0
  0
SPLINE
  5
289
100
AcDbEntity
  8
Layer_1
 62
3
100
AcDbSpline
 70
8
 71
3
 72
8
 73
4
 74
0
 40
0
 40
0
 40
0
 40
0
 40
1
 40
1
 40
1
 40
1
 10
437.417555
 20
-16.892699
 30
0.0
 10
437.519139
 20
-16.807460
 30
0.0
 10
437.650423
 20
-16.766066
 30
0.0
 10
437.782527
 20
-16.777624
 30
0.0
  0
LINE
  5
28a
100
AcDbEntity
  8
Layer_1
 62
3
100
AcDbLine
 10
437.782527
 20
-16.777624
 30
0.0
 11
437.782527
 21
-16.777624
 31
0.0
  0
LINE
  5
28b
100
AcDbEntity
  8
Layer_1
 62
3
100
AcDbLine
 10
418.805012
 20
-15.117308
 30
0.0
 11
431.755547
 21
-16.250332
 31
0.0
  0
SPLINE
  5
28c
100
AcDbEntity
  8
Layer_1
 62
3
100
AcDbSpline
 70
8
 71
3
 72
8
 73
4
 74
0
 40
0
 40
0
 40
0
 40
0
 40
1
 40
1
 40
1
 40
1
 10
431.755547
 20
-16.250332
 30
0.0
 10
431.887651
 20
-16.261890
 30
0.0
 10
432.009752
 20
-16.325452
 30
0.0
 10
432.094991
 20
-16.427036
 30
0.0
  0
SPLINE
  5
28d
100
AcDbEntity
  8
Layer_1
 62
3
100
AcDbSpline
 70
8
 71
3
 72
8
 73
4
 74
0
 40
0
 40
0
 40
0
 40
0
 40
1
 40
1
 40
1
 40
1
 10
432.094991
 20
-16.427036
 30
0.0
 10
432.180230
 20
-16.528619
 30
0.0
 10
432.221624
 20
-16.659904
 30
0.0
 10
432.210067
 20
-16.792007
 30
0.0
  0
LINE
  5
28e
100
AcDbEntity
  8
Layer_1
 62
3
100
AcDbLine
 10
432.210067
 20
-16.792007
 30
0.0
 11
431.077042
 21
-29.742542
 31
0.0
  0
SPLINE
  5
28f
100
AcDbEntity
  8
Layer_1
 62
3
100
AcDbSpline
 70
8
 71
3
 72
8
 73
4
 74
0
 40
0
 40
0
 40
0
 40
0
 40
1
 40
1
 40
1
 40
1
 10
431.077042
 20
-29.742542
 30
0.0
 10
431.065485
 20
-29.874646
 30
0.0
 10
431.001923
 20
-29.996748
 30
0.0
 10
430.900339
 20
-30.081987
 30
0.0
  0
SPLINE
  5
290
100
AcDbEntity
  8
Layer_1
 62
3
100
AcDbSpline
 70
8
 71
3
 72
8
 73
4
 74
0
 40
0
 40
0
 40
0
 40
0
 40
1
 40
1
 40
1
 40
1
 10
430.900339
 20
-30.081987
 30
0.0
 10
430.798755
 20
-30.167226
 30
0.0
 10
430.667471
 20
-30.208620
 30
0.0
 10
430.535367
 20
-30.197062
 30
0.0
  0
LINE
  5
291
100
AcDbEntity
  8
Layer_1
 62
3
100
AcDbLine
 10
430.535367
 20
-30.197062
 30
0.0
 11
417.584832
 21
-29.064038
 31
0.0
  0
SPLINE
  5
292
100
AcDbEntity
  8
Layer_1
 62
3
100
AcDbSpline
 70
8
 71
3
 72
8
 73
4
 74
0
 40
0
 40
0
 40
0
 40
0
 40
1
 40
1
 40
1
 40
1
 10
417.584832
 20
-29.064038
 30
0.0
 10
417.452728
 20
-29.052480
 30
0.0
 10
417.330627
 20
-28.988918
 30
0.0
 10
417.245388
 20
-28.887334
 30
0.0
  0
SPLINE
  5
293
100
AcDbEntity
  8
Layer_1
 62
3
100
AcDbSpline
 70
8
 71
3
 72
8
 73
4
 74
0
 40
0
 40
0
 40
0
 40
0
 40
1
 40
1
 40
1
 40
1
 10
417.245388
 20
-28.887334
 30
0.0
 10
417.160149
 20
-28.785750
 30
0.0
 10
417.118755
 20
-28.654466
 30
0.0
 10
417.130312
 20
-28.522363
 30
0.0
  0
LINE
  5
294
100
AcDbEntity
  8
Layer_1
 62
3
100
AcDbLine
 10
417.130312
 20
-28.522363
 30
0.0
 11
418.263337
 21
-15.571828
 31
0.0
  0
SPLINE
  5
295
100
AcDbEntity
  8
Layer_1
 62
3
100
AcDbSpline
 70
8
 71
3
 72
8
 73
4
 74
0
 40
0
 40
0
 40
0
 40
0
 40
1
 40
1
 40
1
 40
1
 10
418.263337
 20
-15.571828
 30
0.0
 10
418.274894
 20
-15.439724
 30
0.0
 10
418.338456
 20
-15.317622
 30
0.0
 10
418.440040
 20
-15.232383
 30
0.0
  0
SPLINE
  5
296
100
AcDbEntity
  8
Layer_1
 62
3
100
AcDbSpline
 70
8
 71
3
 72
8
 73
4
 74
0
 40
0
 40
0
 40
0
 40
0
 40
1
 40
1
 40
1
 40
1
 10
418.440040
 20
-15.232383
 30
0.0
 10
418.541624
 20
-15.147144
 30
0.0
 10
418.672908
 20
-15.105750
 30
0.0
 10
418.805012
 20
-15.117308
 30
0.0
  0
LINE
  5
297
100
AcDbEntity
  8
Layer_1
 62
3
100
AcDbLine
 10
418.805012
 20
-15.117308
 30
0.0
 11
418.805012
 21
-15.117308
 31
0.0
  0
LINE
  5
298
100
AcDbEntity
  8
Layer_1
 62
3
100
AcDbLine
 10
399.827497
 20
-13.456992
 30
0.0
 11
412.778032
 21
-14.590016
 31
0.0
  0
SPLINE
  5
299
100
AcDbEntity
  8
Layer_1
 62
3
100
AcDbSpline
 70
8
 71
3
 72
8
 73
4
 74
0
 40
0
 40
0
 40
0
 40
0
 40
1
 40
1
 40
1
 40
1
 10
412.778032
 20
-14.590016
 30
0.0
 10
412.910136
 20
-14.601573
 30
0.0
 10
413.032238
 20
-14.665136
 30
0.0
 10
413.117477
 20
-14.766719
 30
0.0
  0
SPLINE
  5
29a
100
AcDbEntity
  8
Layer_1
 62
3
100
AcDbSpline
 70
8
 71
3
 72
8
 73
4
 74
0
 40
0
 40
0
 40
0
 40
0
 40
1
 40
1
 40
1
 40
1
 10
413.117477
 20
-14.766719
 30
0.0
 10
413.202716
 20
-14.868303
 30
0.0
 10
413.244109
 20
-14.999588
 30
0.0
 10
413.232552
 20
-15.131691
 30
0.0
  0
LINE
  5
29b
100
AcDbEntity
  8
Layer_1
 62
3
100
AcDbLine
 10
413.232552
 20
-15.131691
 30
0.0
 11
412.099528
 21
-28.082226
 31
0.0
  0
SPLINE
  5
29c
100
AcDbEntity
  8
Layer_1
 62
3
100
AcDbSpline
 70
8
 71
3
 72
8
 73
4
 74
0
 40
0
 40
0
 40
0
 40
0
 40
1
 40
1
 40
1
 40
1
 10
412.099528
 20
-28.082226
 30
0.0
 10
412.087970
 20
-28.214330
 30
0.0
 10
412.024408
 20
-28.336432
 30
0.0
 10
411.922824
 20
-28.421671
 30
0.0
  0
SPLINE
  5
29d
100
AcDbEntity
  8
Layer_1
 62
3
100
AcDbSpline
 70
8
 71
3
 72
8
 73
4
 74
0
 40
0
 40
0
 40
0
 40
0
 40
1
 40
1
 40
1
 40
1
 10
411.922824
 20
-28.421671
 30
0.0
 10
411.821240
 20
-28.506910
 30
0.0
 10
411.689956
 20
-28.548303
 30
0.0
 10
411.557852
 20
-28.536746
 30
0.0
  0
LINE
  5
29e
100
AcDbEntity
  8
Layer_1
 62
3
100
AcDbLine
 10
411.557852
 20
-28.536746
 30
0.0
 11
398.607317
 21
-27.403722
 31
0.0
  0
SPLINE
  5
29f
100
AcDbEntity
  8
Layer_1
 62
3
100
AcDbSpline
 70
8
 71
3
 72
8
 73
4
 74
0
 40
0
 40
0
 40
0
 40
0
 40
1
 40
1
 40
1
 40
1
 10
398.607317
 20
-27.403722
 30
0.0
 10
398.475214
 20
-27.392164
 30
0.0
 10
398.353112
 20
-27.328602
 30
0.0
 10
398.267873
 20
-27.227018
 30
0.0
  0
SPLINE
  5
2a0
100
AcDbEntity
  8
Layer_1
 62
3
100
AcDbSpline
 70
8
 71
3
 72
8
 73
4
 74
0
 40
0
 40
0
 40
0
 40
0
 40
1
 40
1
 40
1
 40
1
 10
398.267873
 20
-27.227018
 30
0.0
 10
398.182634
 20
-27.125434
 30
0.0
 10
398.141240
 20
-26.994150
 30
0.0
 10
398.152798
 20
-26.862046
 30
0.0
  0
LINE
  5
2a1
100
AcDbEntity
  8
Layer_1
 62
3
100
AcDbLine
 10
398.152798
 20
-26.862046
 30
0.0
 11
399.285822
 21
-13.911511
 31
0.0
  0
SPLINE
  5
2a2
100
AcDbEntity
  8
Layer_1
 62
3
100
AcDbSpline
 70
8
 71
3
 72
8
 73
4
 74
0
 40
0
 40
0
 40
0
 40
0
 40
1
 40
1
 40
1
 40
1
 10
399.285822
 20
-13.911511
 30
0.0
 10
399.297379
 20
-13.779408
 30
0.0
 10
399.360942
 20
-13.657306
 30
0.0
 10
399.462525
 20
-13.572067
 30
0.0
  0
SPLINE
  5
2a3
100
AcDbEntity
  8
Layer_1
 62
3
100
AcDbSpline
 70
8
 71
3
 72
8
 73
4
 74
0
 40
0
 40
0
 40
0
 40
0
 40
1
 40
1
 40
1
 40
1
 10
399.462525
 20
-13.572067
 30
0.0
 10
399.564109
 20
-13.486828
 30
0.0
 10
399.695394
 20
-13.445434
 30
0.0
 10
399.827497
 20
-13.456992
 30
0.0
  0
LINE
  5
2a4
100
AcDbEntity
  8
Layer_1
 62
3
100
AcDbLine
 10
399.827497
 20
-13.456992
 30
0.0
 11
399.827497
 21
-13.456992
 31
0.0
  0
LINE
  5
2a5
100
AcDbEntity
  8
Layer_1
 62
3
100
AcDbLine
 10
378.477046
 20
-11.589071
 30
0.0
 11
391.427581
 21
-12.722095
 31
0.0
  0
SPLINE
  5
2a6
100
AcDbEntity
  8
Layer_1
 62
3
100
AcDbSpline
 70
8
 71
3
 72
8
 73
4
 74
0
 40
0
 40
0
 40
0
 40
0
 40
1
 40
1
 40
1
 40
1
 10
391.427581
 20
-12.722095
 30
0.0
 10
391.559685
 20
-12.733653
 30
0.0
 10
391.681786
 20
-12.797215
 30
0.0
 10
391.767025
 20
-12.898799
 30
0.0
  0
SPLINE
  5
2a7
100
AcDbEntity
  8
Layer_1
 62
3
100
AcDbSpline
 70
8
 71
3
 72
8
 73
4
 74
0
 40
0
 40
0
 40
0
 40
0
 40
1
 40
1
 40
1
 40
1
 10
391.767025
 20
-12.898799
 30
0.0
 10
391.852264
 20
-13.000382
 30
0.0
 10
391.893658
 20
-13.131667
 30
0.0
 10
391.882101
 20
-13.263770
 30
0.0
  0
LINE
  5
2a8
100
AcDbEntity
  8
Layer_1
 62
3
100
AcDbLine
 10
391.882101
 20
-13.263770
 30
0.0
 11
390.749076
 21
-26.214305
 31
0.0
  0
SPLINE
  5
2a9
100
AcDbEntity
  8
Layer_1
 62
3
100
AcDbSpline
 70
8
 71
3
 72
8
 73
4
 74
0
 40
0
 40
0
 40
0
 40
0
 40
1
 40
1
 40
1
 40
1
 10
390.749076
 20
-26.214305
 30
0.0
 10
390.737519
 20
-26.346409
 30
0.0
 10
390.673957
 20
-26.468511
 30
0.0
 10
390.572373
 20
-26.553750
 30
0.0
  0
SPLINE
  5
2aa
100
AcDbEntity
  8
Layer_1
 62
3
100
AcDbSpline
 70
8
 71
3
 72
8
 73
4
 74
0
 40
0
 40
0
 40
0
 40
0
 40
1
 40
1
 40
1
 40
1
 10
390.572373
 20
-26.553750
 30
0.0
 10
390.470789
 20
-26.638989
 30
0.0
 10
390.339505
 20
-26.680383
 30
0.0
 10
390.207401
 20
-26.668825
 30
0.0
  0
LINE
  5
2ab
100
AcDbEntity
  8
Layer_1
 62
3
100
AcDbLine
 10
390.207401
 20
-26.668825
 30
0.0
 11
377.256866
 21
-25.535801
 31
0.0
  0
SPLINE
  5
2ac
100
AcDbEntity
  8
Layer_1
 62
3
100
AcDbSpline
 70
8
 71
3
 72
8
 73
4
 74
0
 40
0
 40
0
 40
0
 40
0
 40
1
 40
1
 40
1
 40
1
 10
377.256866
 20
-25.535801
 30
0.0
 10
377.124762
 20
-25.524243
 30
0.0
 10
377.002661
 20
-25.460681
 30
0.0
 10
376.917422
 20
-25.359097
 30
0.0
  0
SPLINE
  5
2ad
100
AcDbEntity
  8
Layer_1
 62
3
100
AcDbSpline
 70
8
 71
3
 72
8
 73
4
 74
0
 40
0
 40
0
 40
0
 40
0
 40
1
 40
1
 40
1
 40
1
 10
376.917422
 20
-25.359097
 30
0.0
 10
376.832183
 20
-25.257513
 30
0.0
 10
376.790789
 20
-25.126229
 30
0.0
 10
376.802346
 20
-24.994125
 30
0.0
  0
LINE
  5
2ae
100
AcDbEntity
  8
Layer_1
 62
3
100
AcDbLine
 10
376.802346
 20
-24.994125
 30
0.0
 11
377.935371
 21
-12.043590
 31
0.0
  0
SPLINE
  5
2af
100
AcDbEntity
  8
Layer_1
 62
3
100
AcDbSpline
 70
8
 71
3
 72
8
 73
4
 74
0
 40
0
 40
0
 40
0
 40
0
 40
1
 40
1
 40
1
 40
1
 10
377.935371
 20
-12.043590
 30
0.0
 10
377.946928
 20
-11.911487
 30
0.0
 10
378.010490
 20
-11.789385
 30
0.0
 10
378.112074
 20
-11.704146
 30
0.0
  0
SPLINE
  5
2b0
100
AcDbEntity
  8
Layer_1
 62
3
100
AcDbSpline
 70
8
 71
3
 72
8
 73
4
 74
0
 40
0
 40
0
 40
0
 40
0
 40
1
 40
1
 40
1
 40
1
 10
378.112074
 20
-11.704146
 30
0.0
 10
378.213658
 20
-11.618907
 30
0.0
 10
378.344942
 20
-11.577513
 30
0.0
 10
378.477046
 20
-11.589071
 30
0.0
  0
LINE
  5
2b1
100
AcDbEntity
  8
Layer_1
 62
3
100
AcDbLine
 10
378.477046
 20
-11.589071
 30
0.0
 11
378.477046
 21
-11.589071
 31
0.0
  0
LINE
  5
2b2
100
AcDbEntity
  8
Layer_1
 62
3
100
AcDbLine
 10
396.742936
 20
5.935646
 30
0.0
 11
409.693471
 21
4.802621
 31
0.0
  0
SPLINE
  5
2b3
100
AcDbEntity
  8
Layer_1
 62
3
100
AcDbSpline
 70
8
 71
3
 72
8
 73
4
 74
0
 40
0
 40
0
 40
0
 40
0
 40
1
 40
1
 40
1
 40
1
 10
409.693471
 20
4.802621
 30
0.0
 10
409.825575
 20
4.791064
 30
0.0
 10
409.947677
 20
4.727502
 30
0.0
 10
410.032916
 20
4.625918
 30
0.0
  0
SPLINE
  5
2b4
100
AcDbEntity
  8
Layer_1
 62
3
100
AcDbSpline
 70
8
 71
3
 72
8
 73
4
 74
0
 40
0
 40
0
 40
0
 40
0
 40
1
 40
1
 40
1
 40
1
 10
410.032916
 20
4.625918
 30
0.0
 10
410.118155
 20
4.524334
 30
0.0
 10
410.159549
 20
4.393050
 30
0.0
 10
410.147991
 20
4.260946
 30
0.0
  0
LINE
  5
2b5
100
AcDbEntity
  8
Layer_1
 62
3
100
AcDbLine
 10
410.147991
 20
4.260946
 30
0.0
 11
409.014967
 21
-8.689589
 31
0.0
  0
SPLINE
  5
2b6
100
AcDbEntity
  8
Layer_1
 62
3
100
AcDbSpline
 70
8
 71
3
 72
8
 73
4
 74
0
 40
0
 40
0
 40
0
 40
0
 40
1
 40
1
 40
1
 40
1
 10
409.014967
 20
-8.689589
 30
0.0
 10
409.003409
 20
-8.821693
 30
0.0
 10
408.939847
 20
-8.943794
 30
0.0
 10
408.838263
 20
-9.029033
 30
0.0
  0
SPLINE
  5
2b7
100
AcDbEntity
  8
Layer_1
 62
3
100
AcDbSpline
 70
8
 71
3
 72
8
 73
4
 74
0
 40
0
 40
0
 40
0
 40
0
 40
1
 40
1
 40
1
 40
1
 10
408.838263
 20
-9.029033
 30
0.0
 10
408.736680
 20
-9.114272
 30
0.0
 10
408.605395
 20
-9.155666
 30
0.0
 10
408.473292
 20
-9.144109
 30
0.0
  0
LINE
  5
2b8
100
AcDbEntity
  8
Layer_1
 62
3
100
AcDbLine
 10
408.473292
 20
-9.144109
 30
0.0
 11
395.522757
 21
-8.011084
 31
0.0
  0
SPLINE
  5
2b9
100
AcDbEntity
  8
Layer_1
 62
3
100
AcDbSpline
 70
8
 71
3
 72
8
 73
4
 74
0
 40
0
 40
0
 40
0
 40
0
 40
1
 40
1
 40
1
 40
1
 10
395.522757
 20
-8.011084
 30
0.0
 10
395.390653
 20
-7.999527
 30
0.0
 10
395.268551
 20
-7.935965
 30
0.0
 10
395.183312
 20
-7.834381
 30
0.0
  0
SPLINE
  5
2ba
100
AcDbEntity
  8
Layer_1
 62
3
100
AcDbSpline
 70
8
 71
3
 72
8
 73
4
 74
0
 40
0
 40
0
 40
0
 40
0
 40
1
 40
1
 40
1
 40
1
 10
395.183312
 20
-7.834381
 30
0.0
 10
395.098073
 20
-7.732797
 30
0.0
 10
395.056679
 20
-7.601513
 30
0.0
 10
395.068237
 20
-7.469409
 30
0.0
  0
LINE
  5
2bb
100
AcDbEntity
  8
Layer_1
 62
3
100
AcDbLine
 10
395.068237
 20
-7.469409
 30
0.0
 11
396.201261
 21
5.481126
 31
0.0
  0
SPLINE
  5
2bc
100
AcDbEntity
  8
Layer_1
 62
3
100
AcDbSpline
 70
8
 71
3
 72
8
 73
4
 74
0
 40
0
 40
0
 40
0
 40
0
 40
1
 40
1
 40
1
 40
1
 10
396.201261
 20
5.481126
 30
0.0
 10
396.212819
 20
5.613230
 30
0.0
 10
396.276381
 20
5.735331
 30
0.0
 10
396.377965
 20
5.820570
 30
0.0
  0
SPLINE
  5
2bd
100
AcDbEntity
  8
Layer_1
 62
3
100
AcDbSpline
 70
8
 71
3
 72
8
 73
4
 74
0
 40
0
 40
0
 40
0
 40
0
 40
1
 40
1
 40
1
 40
1
 10
396.377965
 20
5.820570
 30
0.0
 10
396.479549
 20
5.905809
 30
0.0
 10
396.610833
 20
5.947203
 30
0.0
 10
396.742936
 20
5.935646
 30
0.0
  0
LINE
  5
2be
100
AcDbEntity
  8
Layer_1
 62
3
100
AcDbLine
 10
396.742936
 20
5.935646
 30
0.0
 11
396.742936
 21
5.935646
 31
0.0
  0
LINE
  5
2bf
100
AcDbEntity
  8
Layer_1
 62
3
100
AcDbLine
 10
668.409220
 20
5.840513
 30
0.0
 11
681.359755
 21
6.973537
 31
0.0
  0
SPLINE
  5
2c0
100
AcDbEntity
  8
Layer_1
 62
3
100
AcDbSpline
 70
8
 71
3
 72
8
 73
4
 74
0
 40
0
 40
0
 40
0
 40
0
 40
1
 40
1
 40
1
 40
1
 10
681.359755
 20
6.973537
 30
0.0
 10
681.491858
 20
6.985094
 30
0.0
 10
681.623143
 20
6.943700
 30
0.0
 10
681.724726
 20
6.858462
 30
0.0
  0
SPLINE
  5
2c1
100
AcDbEntity
  8
Layer_1
 62
3
100
AcDbSpline
 70
8
 71
3
 72
8
 73
4
 74
0
 40
0
 40
0
 40
0
 40
0
 40
1
 40
1
 40
1
 40
1
 10
681.724726
 20
6.858462
 30
0.0
 10
681.826310
 20
6.773223
 30
0.0
 10
681.889872
 20
6.651121
 30
0.0
 10
681.901430
 20
6.519017
 30
0.0
  0
LINE
  5
2c2
100
AcDbEntity
  8
Layer_1
 62
3
100
AcDbLine
 10
681.901430
 20
6.519017
 30
0.0
 11
683.034454
 21
-6.431518
 31
0.0
  0
SPLINE
  5
2c3
100
AcDbEntity
  8
Layer_1
 62
3
100
AcDbSpline
 70
8
 71
3
 72
8
 73
4
 74
0
 40
0
 40
0
 40
0
 40
0
 40
1
 40
1
 40
1
 40
1
 10
683.034454
 20
-6.431518
 30
0.0
 10
683.046012
 20
-6.563622
 30
0.0
 10
683.004618
 20
-6.694906
 30
0.0
 10
682.919379
 20
-6.796490
 30
0.0
  0
SPLINE
  5
2c4
100
AcDbEntity
  8
Layer_1
 62
3
100
AcDbSpline
 70
8
 71
3
 72
8
 73
4
 74
0
 40
0
 40
0
 40
0
 40
0
 40
1
 40
1
 40
1
 40
1
 10
682.919379
 20
-6.796490
 30
0.0
 10
682.834140
 20
-6.898074
 30
0.0
 10
682.712038
 20
-6.961636
 30
0.0
 10
682.579934
 20
-6.973193
 30
0.0
  0
LINE
  5
2c5
100
AcDbEntity
  8
Layer_1
 62
3
100
AcDbLine
 10
682.579934
 20
-6.973193
 30
0.0
 11
669.629399
 21
-8.106217
 31
0.0
  0
SPLINE
  5
2c6
100
AcDbEntity
  8
Layer_1
 62
3
100
AcDbSpline
 70
8
 71
3
 72
8
 73
4
 74
0
 40
0
 40
0
 40
0
 40
0
 40
1
 40
1
 40
1
 40
1
 10
669.629399
 20
-8.106217
 30
0.0
 10
669.497296
 20
-8.117775
 30
0.0
 10
669.366011
 20
-8.076381
 30
0.0
 10
669.264428
 20
-7.991142
 30
0.0
  0
SPLINE
  5
2c7
100
AcDbEntity
  8
Layer_1
 62
3
100
AcDbSpline
 70
8
 71
3
 72
8
 73
4
 74
0
 40
0
 40
0
 40
0
 40
0
 40
1
 40
1
 40
1
 40
1
 10
669.264428
 20
-7.991142
 30
0.0
 10
669.162844
 20
-7.905903
 30
0.0
 10
669.099282
 20
-7.783801
 30
0.0
 10
669.087724
 20
-7.651698
 30
0.0
  0
LINE
  5
2c8
100
AcDbEntity
  8
Layer_1
 62
3
100
AcDbLine
 10
669.087724
 20
-7.651698
 30
0.0
 11
667.954700
 21
5.298837
 31
0.0
  0
SPLINE
  5
2c9
100
AcDbEntity
  8
Layer_1
 62
3
100
AcDbSpline
 70
8
 71
3
 72
8
 73
4
 74
0
 40
0
 40
0
 40
0
 40
0
 40
1
 40
1
 40
1
 40
1
 10
667.954700
 20
5.298837
 30
0.0
 10
667.943142
 20
5.430941
 30
0.0
 10
667.984536
 20
5.562225
 30
0.0
 10
668.069775
 20
5.663809
 30
0.0
  0
SPLINE
  5
2ca
100
AcDbEntity
  8
Layer_1
 62
3
100
AcDbSpline
 70
8
 71
3
 72
8
 73
4
 74
0
 40
0
 40
0
 40
0
 40
0
 40
1
 40
1
 40
1
 40
1
 10
668.069775
 20
5.663809
 30
0.0
 10
668.155014
 20
5.765393
 30
0.0
 10
668.277116
 20
5.828955
 30
0.0
 10
668.409220
 20
5.840513
 30
0.0
  0
LINE
  5
2cb
100
AcDbEntity
  8
Layer_1
 62
3
100
AcDbLine
 10
668.409220
 20
5.840513
 30
0.0
 11
668.409220
 21
5.840513
 31
0.0
  0
LINE
  5
2cc
100
AcDbEntity
  8
Layer_1
 62
3
100
AcDbLine
 10
642.315884
 20
3.557643
 30
0.0
 11
655.266419
 21
4.690667
 31
0.0
  0
SPLINE
  5
2cd
100
AcDbEntity
  8
Layer_1
 62
3
100
AcDbSpline
 70
8
 71
3
 72
8
 73
4
 74
0
 40
0
 40
0
 40
0
 40
0
 40
1
 40
1
 40
1
 40
1
 10
655.266419
 20
4.690667
 30
0.0
 10
655.398523
 20
4.702225
 30
0.0
 10
655.529807
 20
4.660831
 30
0.0
 10
655.631391
 20
4.575592
 30
0.0
  0
SPLINE
  5
2ce
100
AcDbEntity
  8
Layer_1
 62
3
100
AcDbSpline
 70
8
 71
3
 72
8
 73
4
 74
0
 40
0
 40
0
 40
0
 40
0
 40
1
 40
1
 40
1
 40
1
 10
655.631391
 20
4.575592
 30
0.0
 10
655.732975
 20
4.490353
 30
0.0
 10
655.796537
 20
4.368251
 30
0.0
 10
655.808094
 20
4.236148
 30
0.0
  0
LINE
  5
2cf
100
AcDbEntity
  8
Layer_1
 62
3
100
AcDbLine
 10
655.808094
 20
4.236148
 30
0.0
 11
656.941118
 21
-8.714387
 31
0.0
  0
SPLINE
  5
2d0
100
AcDbEntity
  8
Layer_1
 62
3
100
AcDbSpline
 70
8
 71
3
 72
8
 73
4
 74
0
 40
0
 40
0
 40
0
 40
0
 40
1
 40
1
 40
1
 40
1
 10
656.941118
 20
-8.714387
 30
0.0
 10
656.952676
 20
-8.846491
 30
0.0
 10
656.911282
 20
-8.977775
 30
0.0
 10
656.826043
 20
-9.079359
 30
0.0
  0
SPLINE
  5
2d1
100
AcDbEntity
  8
Layer_1
 62
3
100
AcDbSpline
 70
8
 71
3
 72
8
 73
4
 74
0
 40
0
 40
0
 40
0
 40
0
 40
1
 40
1
 40
1
 40
1
 10
656.826043
 20
-9.079359
 30
0.0
 10
656.740804
 20
-9.180943
 30
0.0
 10
656.618702
 20
-9.244505
 30
0.0
 10
656.486599
 20
-9.256063
 30
0.0
  0
LINE
  5
2d2
100
AcDbEntity
  8
Layer_1
 62
3
100
AcDbLine
 10
656.486599
 20
-9.256063
 30
0.0
 11
643.536064
 21
-10.389087
 31
0.0
  0
SPLINE
  5
2d3
100
AcDbEntity
  8
Layer_1
 62
3
100
AcDbSpline
 70
8
 71
3
 72
8
 73
4
 74
0
 40
0
 40
0
 40
0
 40
0
 40
1
 40
1
 40
1
 40
1
 10
643.536064
 20
-10.389087
 30
0.0
 10
643.403960
 20
-10.400644
 30
0.0
 10
643.272676
 20
-10.359250
 30
0.0
 10
643.171092
 20
-10.274011
 30
0.0
  0
SPLINE
  5
2d4
100
AcDbEntity
  8
Layer_1
 62
3
100
AcDbSpline
 70
8
 71
3
 72
8
 73
4
 74
0
 40
0
 40
0
 40
0
 40
0
 40
1
 40
1
 40
1
 40
1
 10
643.171092
 20
-10.274011
 30
0.0
 10
643.069508
 20
-10.188772
 30
0.0
 10
643.005946
 20
-10.066671
 30
0.0
 10
642.994388
 20
-9.934567
 30
0.0
  0
LINE
  5
2d5
100
AcDbEntity
  8
Layer_1
 62
3
100
AcDbLine
 10
642.994388
 20
-9.934567
 30
0.0
 11
641.861364
 21
3.015968
 31
0.0
  0
SPLINE
  5
2d6
100
AcDbEntity
  8
Layer_1
 62
3
100
AcDbSpline
 70
8
 71
3
 72
8
 73
4
 74
0
 40
0
 40
0
 40
0
 40
0
 40
1
 40
1
 40
1
 40
1
 10
641.861364
 20
3.015968
 30
0.0
 10
641.849807
 20
3.148072
 30
0.0
 10
641.891200
 20
3.279356
 30
0.0
 10
641.976439
 20
3.380940
 30
0.0
  0
SPLINE
  5
2d7
100
AcDbEntity
  8
Layer_1
 62
3
100
AcDbSpline
 70
8
 71
3
 72
8
 73
4
 74
0
 40
0
 40
0
 40
0
 40
0
 40
1
 40
1
 40
1
 40
1
 10
641.976439
 20
3.380940
 30
0.0
 10
642.061678
 20
3.482524
 30
0.0
 10
642.183780
 20
3.546086
 30
0.0
 10
642.315884
 20
3.557643
 30
0.0
  0
LINE
  5
2d8
100
AcDbEntity
  8
Layer_1
 62
3
100
AcDbLine
 10
642.315884
 20
3.557643
 30
0.0
 11
642.315884
 21
3.557643
 31
0.0
  0
LINE
  5
2d9
100
AcDbEntity
  8
Layer_1
 62
3
100
AcDbLine
 10
604.360854
 20
0.237011
 30
0.0
 11
617.311389
 21
1.370035
 31
0.0
  0
SPLINE
  5
2da
100
AcDbEntity
  8
Layer_1
 62
3
100
AcDbSpline
 70
8
 71
3
 72
8
 73
4
 74
0
 40
0
 40
0
 40
0
 40
0
 40
1
 40
1
 40
1
 40
1
 10
617.311389
 20
1.370035
 30
0.0
 10
617.443493
 20
1.381593
 30
0.0
 10
617.574777
 20
1.340199
 30
0.0
 10
617.676361
 20
1.254960
 30
0.0
  0
SPLINE
  5
2db
100
AcDbEntity
  8
Layer_1
 62
3
100
AcDbSpline
 70
8
 71
3
 72
8
 73
4
 74
0
 40
0
 40
0
 40
0
 40
0
 40
1
 40
1
 40
1
 40
1
 10
617.676361
 20
1.254960
 30
0.0
 10
617.777945
 20
1.169721
 30
0.0
 10
617.841507
 20
1.047619
 30
0.0
 10
617.853065
 20
0.915516
 30
0.0
  0
LINE
  5
2dc
100
AcDbEntity
  8
Layer_1
 62
3
100
AcDbLine
 10
617.853065
 20
0.915516
 30
0.0
 11
618.986089
 21
-12.035019
 31
0.0
  0
SPLINE
  5
2dd
100
AcDbEntity
  8
Layer_1
 62
3
100
AcDbSpline
 70
8
 71
3
 72
8
 73
4
 74
0
 40
0
 40
0
 40
0
 40
0
 40
1
 40
1
 40
1
 40
1
 10
618.986089
 20
-12.035019
 30
0.0
 10
618.997646
 20
-12.167123
 30
0.0
 10
618.956253
 20
-12.298407
 30
0.0
 10
618.871014
 20
-12.399991
 30
0.0
  0
SPLINE
  5
2de
100
AcDbEntity
  8
Layer_1
 62
3
100
AcDbSpline
 70
8
 71
3
 72
8
 73
4
 74
0
 40
0
 40
0
 40
0
 40
0
 40
1
 40
1
 40
1
 40
1
 10
618.871014
 20
-12.399991
 30
0.0
 10
618.785775
 20
-12.501575
 30
0.0
 10
618.663673
 20
-12.565137
 30
0.0
 10
618.531569
 20
-12.576695
 30
0.0
  0
LINE
  5
2df
100
AcDbEntity
  8
Layer_1
 62
3
100
AcDbLine
 10
618.531569
 20
-12.576695
 30
0.0
 11
605.581034
 21
-13.709719
 31
0.0
  0
SPLINE
  5
2e0
100
AcDbEntity
  8
Layer_1
 62
3
100
AcDbSpline
 70
8
 71
3
 72
8
 73
4
 74
0
 40
0
 40
0
 40
0
 40
0
 40
1
 40
1
 40
1
 40
1
 10
605.581034
 20
-13.709719
 30
0.0
 10
605.448931
 20
-13.721276
 30
0.0
 10
605.317646
 20
-13.679883
 30
0.0
 10
605.216062
 20
-13.594644
 30
0.0
  0
SPLINE
  5
2e1
100
AcDbEntity
  8
Layer_1
 62
3
100
AcDbSpline
 70
8
 71
3
 72
8
 73
4
 74
0
 40
0
 40
0
 40
0
 40
0
 40
1
 40
1
 40
1
 40
1
 10
605.216062
 20
-13.594644
 30
0.0
 10
605.114479
 20
-13.509405
 30
0.0
 10
605.050916
 20
-13.387303
 30
0.0
 10
605.039359
 20
-13.255199
 30
0.0
  0
LINE
  5
2e2
100
AcDbEntity
  8
Layer_1
 62
3
100
AcDbLine
 10
605.039359
 20
-13.255199
 30
0.0
 11
603.906335
 21
-0.304664
 31
0.0
  0
SPLINE
  5
2e3
100
AcDbEntity
  8
Layer_1
 62
3
100
AcDbSpline
 70
8
 71
3
 72
8
 73
4
 74
0
 40
0
 40
0
 40
0
 40
0
 40
1
 40
1
 40
1
 40
1
 10
603.906335
 20
-0.304664
 30
0.0
 10
603.894777
 20
-0.172560
 30
0.0
 10
603.936171
 20
-0.041276
 30
0.0
 10
604.021410
 20
0.060308
 30
0.0
  0
SPLINE
  5
2e4
100
AcDbEntity
  8
Layer_1
 62
3
100
AcDbSpline
 70
8
 71
3
 72
8
 73
4
 74
0
 40
0
 40
0
 40
0
 40
0
 40
1
 40
1
 40
1
 40
1
 10
604.021410
 20
0.060308
 30
0.0
 10
604.106649
 20
0.161891
 30
0.0
 10
604.228751
 20
0.225454
 30
0.0
 10
604.360854
 20
0.237011
 30
0.0
  0
LINE
  5
2e5
100
AcDbEntity
  8
Layer_1
 62
3
100
AcDbLine
 10
604.360854
 20
0.237011
 30
0.0
 11
604.360854
 21
0.237011
 31
0.0
  0
LINE
  5
2e6
100
AcDbEntity
  8
Layer_1
 62
3
100
AcDbLine
 10
585.383340
 20
-1.423305
 30
0.0
 11
598.333875
 21
-0.290281
 31
0.0
  0
SPLINE
  5
2e7
100
AcDbEntity
  8
Layer_1
 62
3
100
AcDbSpline
 70
8
 71
3
 72
8
 73
4
 74
0
 40
0
 40
0
 40
0
 40
0
 40
1
 40
1
 40
1
 40
1
 10
598.333875
 20
-0.290281
 30
0.0
 10
598.465978
 20
-0.278723
 30
0.0
 10
598.597263
 20
-0.320117
 30
0.0
 10
598.698846
 20
-0.405356
 30
0.0
  0
SPLINE
  5
2e8
100
AcDbEntity
  8
Layer_1
 62
3
100
AcDbSpline
 70
8
 71
3
 72
8
 73
4
 74
0
 40
0
 40
0
 40
0
 40
0
 40
1
 40
1
 40
1
 40
1
 10
598.698846
 20
-0.405356
 30
0.0
 10
598.800430
 20
-0.490595
 30
0.0
 10
598.863992
 20
-0.612697
 30
0.0
 10
598.875550
 20
-0.744800
 30
0.0
  0
LINE
  5
2e9
100
AcDbEntity
  8
Layer_1
 62
3
100
AcDbLine
 10
598.875550
 20
-0.744800
 30
0.0
 11
600.008574
 21
-13.695335
 31
0.0
  0
SPLINE
  5
2ea
100
AcDbEntity
  8
Layer_1
 62
3
100
AcDbSpline
 70
8
 71
3
 72
8
 73
4
 74
0
 40
0
 40
0
 40
0
 40
0
 40
1
 40
1
 40
1
 40
1
 10
600.008574
 20
-13.695335
 30
0.0
 10
600.020132
 20
-13.827439
 30
0.0
 10
599.978738
 20
-13.958723
 30
0.0
 10
599.893499
 20
-14.060307
 30
0.0
  0
SPLINE
  5
2eb
100
AcDbEntity
  8
Layer_1
 62
3
100
AcDbSpline
 70
8
 71
3
 72
8
 73
4
 74
0
 40
0
 40
0
 40
0
 40
0
 40
1
 40
1
 40
1
 40
1
 10
599.893499
 20
-14.060307
 30
0.0
 10
599.808260
 20
-14.161891
 30
0.0
 10
599.686158
 20
-14.225453
 30
0.0
 10
599.554054
 20
-14.237011
 30
0.0
  0
LINE
  5
2ec
100
AcDbEntity
  8
Layer_1
 62
3
100
AcDbLine
 10
599.554054
 20
-14.237011
 30
0.0
 11
586.603519
 21
-15.370035
 31
0.0
  0
SPLINE
  5
2ed
100
AcDbEntity
  8
Layer_1
 62
3
100
AcDbSpline
 70
8
 71
3
 72
8
 73
4
 74
0
 40
0
 40
0
 40
0
 40
0
 40
1
 40
1
 40
1
 40
1
 10
586.603519
 20
-15.370035
 30
0.0
 10
586.471416
 20
-15.381592
 30
0.0
 10
586.340132
 20
-15.340199
 30
0.0
 10
586.238548
 20
-15.254960
 30
0.0
  0
SPLINE
  5
2ee
100
AcDbEntity
  8
Layer_1
 62
3
100
AcDbSpline
 70
8
 71
3
 72
8
 73
4
 74
0
 40
0
 40
0
 40
0
 40
0
 40
1
 40
1
 40
1
 40
1
 10
586.238548
 20
-15.254960
 30
0.0
 10
586.136964
 20
-15.169721
 30
0.0
 10
586.073402
 20
-15.047619
 30
0.0
 10
586.061844
 20
-14.915515
 30
0.0
  0
LINE
  5
2ef
100
AcDbEntity
  8
Layer_1
 62
3
100
AcDbLine
 10
586.061844
 20
-14.915515
 30
0.0
 11
584.928820
 21
-1.964980
 31
0.0
  0
SPLINE
  5
2f0
100
AcDbEntity
  8
Layer_1
 62
3
100
AcDbSpline
 70
8
 71
3
 72
8
 73
4
 74
0
 40
0
 40
0
 40
0
 40
0
 40
1
 40
1
 40
1
 40
1
 10
584.928820
 20
-1.964980
 30
0.0
 10
584.917262
 20
-1.832877
 30
0.0
 10
584.958656
 20
-1.701592
 30
0.0
 10
585.043895
 20
-1.600008
 30
0.0
  0
SPLINE
  5
2f1
100
AcDbEntity
  8
Layer_1
 62
3
100
AcDbSpline
 70
8
 71
3
 72
8
 73
4
 74
0
 40
0
 40
0
 40
0
 40
0
 40
1
 40
1
 40
1
 40
1
 10
585.043895
 20
-1.600008
 30
0.0
 10
585.129134
 20
-1.498425
 30
0.0
 10
585.251236
 20
-1.434862
 30
0.0
 10
585.383340
 20
-1.423305
 30
0.0
  0
LINE
  5
2f2
100
AcDbEntity
  8
Layer_1
 62
3
100
AcDbLine
 10
585.383340
 20
-1.423305
 30
0.0
 11
585.383340
 21
-1.423305
 31
0.0
  0
LINE
  5
2f3
100
AcDbEntity
  8
Layer_1
 62
3
100
AcDbLine
 10
566.405825
 20
-3.083621
 30
0.0
 11
579.356360
 21
-1.950597
 31
0.0
  0
SPLINE
  5
2f4
100
AcDbEntity
  8
Layer_1
 62
3
100
AcDbSpline
 70
8
 71
3
 72
8
 73
4
 74
0
 40
0
 40
0
 40
0
 40
0
 40
1
 40
1
 40
1
 40
1
 10
579.356360
 20
-1.950597
 30
0.0
 10
579.488464
 20
-1.939039
 30
0.0
 10
579.619748
 20
-1.980433
 30
0.0
 10
579.721332
 20
-2.065672
 30
0.0
  0
SPLINE
  5
2f5
100
AcDbEntity
  8
Layer_1
 62
3
100
AcDbSpline
 70
8
 71
3
 72
8
 73
4
 74
0
 40
0
 40
0
 40
0
 40
0
 40
1
 40
1
 40
1
 40
1
 10
579.721332
 20
-2.065672
 30
0.0
 10
579.822916
 20
-2.150911
 30
0.0
 10
579.886478
 20
-2.273013
 30
0.0
 10
579.898035
 20
-2.405117
 30
0.0
  0
LINE
  5
2f6
100
AcDbEntity
  8
Layer_1
 62
3
100
AcDbLine
 10
579.898035
 20
-2.405117
 30
0.0
 11
581.031059
 21
-15.355652
 31
0.0
  0
SPLINE
  5
2f7
100
AcDbEntity
  8
Layer_1
 62
3
100
AcDbSpline
 70
8
 71
3
 72
8
 73
4
 74
0
 40
0
 40
0
 40
0
 40
0
 40
1
 40
1
 40
1
 40
1
 10
581.031059
 20
-15.355652
 30
0.0
 10
581.042617
 20
-15.487755
 30
0.0
 10
581.001223
 20
-15.619039
 30
0.0
 10
580.915984
 20
-15.720623
 30
0.0
  0
SPLINE
  5
2f8
100
AcDbEntity
  8
Layer_1
 62
3
100
AcDbSpline
 70
8
 71
3
 72
8
 73
4
 74
0
 40
0
 40
0
 40
0
 40
0
 40
1
 40
1
 40
1
 40
1
 10
580.915984
 20
-15.720623
 30
0.0
 10
580.830745
 20
-15.822207
 30
0.0
 10
580.708643
 20
-15.885769
 30
0.0
 10
580.576540
 20
-15.897327
 30
0.0
  0
LINE
  5
2f9
100
AcDbEntity
  8
Layer_1
 62
3
100
AcDbLine
 10
580.576540
 20
-15.897327
 30
0.0
 11
567.626005
 21
-17.030351
 31
0.0
  0
SPLINE
  5
2fa
100
AcDbEntity
  8
Layer_1
 62
3
100
AcDbSpline
 70
8
 71
3
 72
8
 73
4
 74
0
 40
0
 40
0
 40
0
 40
0
 40
1
 40
1
 40
1
 40
1
 10
567.626005
 20
-17.030351
 30
0.0
 10
567.493901
 20
-17.041909
 30
0.0
 10
567.362617
 20
-17.000515
 30
0.0
 10
567.261033
 20
-16.915276
 30
0.0
  0
SPLINE
  5
2fb
100
AcDbEntity
  8
Layer_1
 62
3
100
AcDbSpline
 70
8
 71
3
 72
8
 73
4
 74
0
 40
0
 40
0
 40
0
 40
0
 40
1
 40
1
 40
1
 40
1
 10
567.261033
 20
-16.915276
 30
0.0
 10
567.159449
 20
-16.830037
 30
0.0
 10
567.095887
 20
-16.707935
 30
0.0
 10
567.084329
 20
-16.575831
 30
0.0
  0
LINE
  5
2fc
100
AcDbEntity
  8
Layer_1
 62
3
100
AcDbLine
 10
567.084329
 20
-16.575831
 30
0.0
 11
565.951305
 21
-3.625296
 31
0.0
  0
SPLINE
  5
2fd
100
AcDbEntity
  8
Layer_1
 62
3
100
AcDbSpline
 70
8
 71
3
 72
8
 73
4
 74
0
 40
0
 40
0
 40
0
 40
0
 40
1
 40
1
 40
1
 40
1
 10
565.951305
 20
-3.625296
 30
0.0
 10
565.939748
 20
-3.493193
 30
0.0
 10
565.981141
 20
-3.361908
 30
0.0
 10
566.066380
 20
-3.260325
 30
0.0
  0
SPLINE
  5
2fe
100
AcDbEntity
  8
Layer_1
 62
3
100
AcDbSpline
 70
8
 71
3
 72
8
 73
4
 74
0
 40
0
 40
0
 40
0
 40
0
 40
1
 40
1
 40
1
 40
1
 10
566.066380
 20
-3.260325
 30
0.0
 10
566.151619
 20
-3.158741
 30
0.0
 10
566.273721
 20
-3.095179
 30
0.0
 10
566.405825
 20
-3.083621
 30
0.0
  0
LINE
  5
2ff
100
AcDbEntity
  8
Layer_1
 62
3
100
AcDbLine
 10
566.405825
 20
-3.083621
 30
0.0
 11
566.405825
 21
-3.083621
 31
0.0
  0
LINE
  5
300
100
AcDbEntity
  8
Layer_1
 62
3
100
AcDbLine
 10
680.506985
 20
-50.469391
 30
0.0
 11
693.457520
 21
-49.336367
 31
0.0
  0
SPLINE
  5
301
100
AcDbEntity
  8
Layer_1
 62
3
100
AcDbSpline
 70
8
 71
3
 72
8
 73
4
 74
0
 40
0
 40
0
 40
0
 40
0
 40
1
 40
1
 40
1
 40
1
 10
693.457520
 20
-49.336367
 30
0.0
 10
693.589624
 20
-49.324810
 30
0.0
 10
693.720908
 20
-49.366203
 30
0.0
 10
693.822492
 20
-49.451442
 30
0.0
  0
SPLINE
  5
302
100
AcDbEntity
  8
Layer_1
 62
3
100
AcDbSpline
 70
8
 71
3
 72
8
 73
4
 74
0
 40
0
 40
0
 40
0
 40
0
 40
1
 40
1
 40
1
 40
1
 10
693.822492
 20
-49.451442
 30
0.0
 10
693.924076
 20
-49.536681
 30
0.0
 10
693.987638
 20
-49.658783
 30
0.0
 10
693.999195
 20
-49.790887
 30
0.0
  0
LINE
  5
303
100
AcDbEntity
  8
Layer_1
 62
3
100
AcDbLine
 10
693.999195
 20
-49.790887
 30
0.0
 11
695.132219
 21
-62.741422
 31
0.0
  0
SPLINE
  5
304
100
AcDbEntity
  8
Layer_1
 62
3
100
AcDbSpline
 70
8
 71
3
 72
8
 73
4
 74
0
 40
0
 40
0
 40
0
 40
0
 40
1
 40
1
 40
1
 40
1
 10
695.132219
 20
-62.741422
 30
0.0
 10
695.143777
 20
-62.873526
 30
0.0
 10
695.102383
 20
-63.004810
 30
0.0
 10
695.017144
 20
-63.106394
 30
0.0
  0
SPLINE
  5
305
100
AcDbEntity
  8
Layer_1
 62
3
100
AcDbSpline
 70
8
 71
3
 72
8
 73
4
 74
0
 40
0
 40
0
 40
0
 40
0
 40
1
 40
1
 40
1
 40
1
 10
695.017144
 20
-63.106394
 30
0.0
 10
694.931905
 20
-63.207977
 30
0.0
 10
694.809803
 20
-63.271540
 30
0.0
 10
694.677700
 20
-63.283097
 30
0.0
  0
LINE
  5
306
100
AcDbEntity
  8
Layer_1
 62
3
100
AcDbLine
 10
694.677700
 20
-63.283097
 30
0.0
 11
681.727165
 21
-64.416121
 31
0.0
  0
SPLINE
  5
307
100
AcDbEntity
  8
Layer_1
 62
3
100
AcDbSpline
 70
8
 71
3
 72
8
 73
4
 74
0
 40
0
 40
0
 40
0
 40
0
 40
1
 40
1
 40
1
 40
1
 10
681.727165
 20
-64.416121
 30
0.0
 10
681.595061
 20
-64.427679
 30
0.0
 10
681.463777
 20
-64.386285
 30
0.0
 10
681.362193
 20
-64.301046
 30
0.0
  0
SPLINE
  5
308
100
AcDbEntity
  8
Layer_1
 62
3
100
AcDbSpline
 70
8
 71
3
 72
8
 73
4
 74
0
 40
0
 40
0
 40
0
 40
0
 40
1
 40
1
 40
1
 40
1
 10
681.362193
 20
-64.301046
 30
0.0
 10
681.260609
 20
-64.215807
 30
0.0
 10
681.197047
 20
-64.093705
 30
0.0
 10
681.185489
 20
-63.961602
 30
0.0
  0
LINE
  5
309
100
AcDbEntity
  8
Layer_1
 62
3
100
AcDbLine
 10
681.185489
 20
-63.961602
 30
0.0
 11
680.052465
 21
-51.011067
 31
0.0
  0
SPLINE
  5
30a
100
AcDbEntity
  8
Layer_1
 62
3
100
AcDbSpline
 70
8
 71
3
 72
8
 73
4
 74
0
 40
0
 40
0
 40
0
 40
0
 40
1
 40
1
 40
1
 40
1
 10
680.052465
 20
-51.011067
 30
0.0
 10
680.040908
 20
-50.878963
 30
0.0
 10
680.082301
 20
-50.747679
 30
0.0
 10
680.167540
 20
-50.646095
 30
0.0
  0
SPLINE
  5
30b
100
AcDbEntity
  8
Layer_1
 62
3
100
AcDbSpline
 70
8
 71
3
 72
8
 73
4
 74
0
 40
0
 40
0
 40
0
 40
0
 40
1
 40
1
 40
1
 40
1
 10
680.167540
 20
-50.646095
 30
0.0
 10
680.252779
 20
-50.544511
 30
0.0
 10
680.374881
 20
-50.480949
 30
0.0
 10
680.506985
 20
-50.469391
 30
0.0
  0
LINE
  5
30c
100
AcDbEntity
  8
Layer_1
 62
3
100
AcDbLine
 10
680.506985
 20
-50.469391
 30
0.0
 11
680.506985
 21
-50.469391
 31
0.0
  0
LINE
  5
30d
100
AcDbEntity
  8
Layer_1
 62
3
100
AcDbLine
 10
661.529470
 20
-52.129707
 30
0.0
 11
674.480005
 21
-50.996683
 31
0.0
  0
SPLINE
  5
30e
100
AcDbEntity
  8
Layer_1
 62
3
100
AcDbSpline
 70
8
 71
3
 72
8
 73
4
 74
0
 40
0
 40
0
 40
0
 40
0
 40
1
 40
1
 40
1
 40
1
 10
674.480005
 20
-50.996683
 30
0.0
 10
674.612109
 20
-50.985126
 30
0.0
 10
674.743393
 20
-51.026520
 30
0.0
 10
674.844977
 20
-51.111758
 30
0.0
  0
SPLINE
  5
30f
100
AcDbEntity
  8
Layer_1
 62
3
100
AcDbSpline
 70
8
 71
3
 72
8
 73
4
 74
0
 40
0
 40
0
 40
0
 40
0
 40
1
 40
1
 40
1
 40
1
 10
674.844977
 20
-51.111758
 30
0.0
 10
674.946561
 20
-51.196997
 30
0.0
 10
675.010123
 20
-51.319099
 30
0.0
 10
675.021680
 20
-51.451203
 30
0.0
  0
LINE
  5
310
100
AcDbEntity
  8
Layer_1
 62
3
100
AcDbLine
 10
675.021680
 20
-51.451203
 30
0.0
 11
676.154705
 21
-64.401738
 31
0.0
  0
SPLINE
  5
311
100
AcDbEntity
  8
Layer_1
 62
3
100
AcDbSpline
 70
8
 71
3
 72
8
 73
4
 74
0
 40
0
 40
0
 40
0
 40
0
 40
1
 40
1
 40
1
 40
1
 10
676.154705
 20
-64.401738
 30
0.0
 10
676.166262
 20
-64.533842
 30
0.0
 10
676.124868
 20
-64.665126
 30
0.0
 10
676.039629
 20
-64.766710
 30
0.0
  0
SPLINE
  5
312
100
AcDbEntity
  8
Layer_1
 62
3
100
AcDbSpline
 70
8
 71
3
 72
8
 73
4
 74
0
 40
0
 40
0
 40
0
 40
0
 40
1
 40
1
 40
1
 40
1
 10
676.039629
 20
-64.766710
 30
0.0
 10
675.954390
 20
-64.868294
 30
0.0
 10
675.832289
 20
-64.931856
 30
0.0
 10
675.700185
 20
-64.943413
 30
0.0
  0
LINE
  5
313
100
AcDbEntity
  8
Layer_1
 62
3
100
AcDbLine
 10
675.700185
 20
-64.943413
 30
0.0
 11
662.749650
 21
-66.076437
 31
0.0
  0
SPLINE
  5
314
100
AcDbEntity
  8
Layer_1
 62
3
100
AcDbSpline
 70
8
 71
3
 72
8
 73
4
 74
0
 40
0
 40
0
 40
0
 40
0
 40
1
 40
1
 40
1
 40
1
 10
662.749650
 20
-66.076437
 30
0.0
 10
662.617546
 20
-66.087995
 30
0.0
 10
662.486262
 20
-66.046601
 30
0.0
 10
662.384678
 20
-65.961362
 30
0.0
  0
SPLINE
  5
315
100
AcDbEntity
  8
Layer_1
 62
3
100
AcDbSpline
 70
8
 71
3
 72
8
 73
4
 74
0
 40
0
 40
0
 40
0
 40
0
 40
1
 40
1
 40
1
 40
1
 10
662.384678
 20
-65.961362
 30
0.0
 10
662.283094
 20
-65.876123
 30
0.0
 10
662.219532
 20
-65.754021
 30
0.0
 10
662.207975
 20
-65.621918
 30
0.0
  0
LINE
  5
316
100
AcDbEntity
  8
Layer_1
 62
3
100
AcDbLine
 10
662.207975
 20
-65.621918
 30
0.0
 11
661.074950
 21
-52.671383
 31
0.0
  0
SPLINE
  5
317
100
AcDbEntity
  8
Layer_1
 62
3
100
AcDbSpline
 70
8
 71
3
 72
8
 73
4
 74
0
 40
0
 40
0
 40
0
 40
0
 40
1
 40
1
 40
1
 40
1
 10
661.074950
 20
-52.671383
 30
0.0
 10
661.063393
 20
-52.539279
 30
0.0
 10
661.104787
 20
-52.407995
 30
0.0
 10
661.190026
 20
-52.306411
 30
0.0
  0
SPLINE
  5
318
100
AcDbEntity
  8
Layer_1
 62
3
100
AcDbSpline
 70
8
 71
3
 72
8
 73
4
 74
0
 40
0
 40
0
 40
0
 40
0
 40
1
 40
1
 40
1
 40
1
 10
661.190026
 20
-52.306411
 30
0.0
 10
661.275265
 20
-52.204827
 30
0.0
 10
661.397366
 20
-52.141265
 30
0.0
 10
661.529470
 20
-52.129707
 30
0.0
  0
LINE
  5
319
100
AcDbEntity
  8
Layer_1
 62
3
100
AcDbLine
 10
661.529470
 20
-52.129707
 30
0.0
 11
661.529470
 21
-52.129707
 31
0.0
  0
LINE
  5
31a
100
AcDbEntity
  8
Layer_1
 62
3
100
AcDbLine
 10
642.551955
 20
-53.790023
 30
0.0
 11
655.502490
 21
-52.656999
 31
0.0
  0
SPLINE
  5
31b
100
AcDbEntity
  8
Layer_1
 62
3
100
AcDbSpline
 70
8
 71
3
 72
8
 73
4
 74
0
 40
0
 40
0
 40
0
 40
0
 40
1
 40
1
 40
1
 40
1
 10
655.502490
 20
-52.656999
 30
0.0
 10
655.634594
 20
-52.645442
 30
0.0
 10
655.765878
 20
-52.686836
 30
0.0
 10
655.867462
 20
-52.772075
 30
0.0
  0
SPLINE
  5
31c
100
AcDbEntity
  8
Layer_1
 62
3
100
AcDbSpline
 70
8
 71
3
 72
8
 73
4
 74
0
 40
0
 40
0
 40
0
 40
0
 40
1
 40
1
 40
1
 40
1
 10
655.867462
 20
-52.772075
 30
0.0
 10
655.969046
 20
-52.857314
 30
0.0
 10
656.032608
 20
-52.979415
 30
0.0
 10
656.044166
 20
-53.111519
 30
0.0
  0
LINE
  5
31d
100
AcDbEntity
  8
Layer_1
 62
3
100
AcDbLine
 10
656.044166
 20
-53.111519
 30
0.0
 11
657.177190
 21
-66.062054
 31
0.0
  0
SPLINE
  5
31e
100
AcDbEntity
  8
Layer_1
 62
3
100
AcDbSpline
 70
8
 71
3
 72
8
 73
4
 74
0
 40
0
 40
0
 40
0
 40
0
 40
1
 40
1
 40
1
 40
1
 10
657.177190
 20
-66.062054
 30
0.0
 10
657.188747
 20
-66.194158
 30
0.0
 10
657.147354
 20
-66.325442
 30
0.0
 10
657.062115
 20
-66.427026
 30
0.0
  0
SPLINE
  5
31f
100
AcDbEntity
  8
Layer_1
 62
3
100
AcDbSpline
 70
8
 71
3
 72
8
 73
4
 74
0
 40
0
 40
0
 40
0
 40
0
 40
1
 40
1
 40
1
 40
1
 10
657.062115
 20
-66.427026
 30
0.0
 10
656.976876
 20
-66.528610
 30
0.0
 10
656.854774
 20
-66.592172
 30
0.0
 10
656.722670
 20
-66.603729
 30
0.0
  0
LINE
  5
320
100
AcDbEntity
  8
Layer_1
 62
3
100
AcDbLine
 10
656.722670
 20
-66.603729
 30
0.0
 11
643.772135
 21
-67.736753
 31
0.0
  0
SPLINE
  5
321
100
AcDbEntity
  8
Layer_1
 62
3
100
AcDbSpline
 70
8
 71
3
 72
8
 73
4
 74
0
 40
0
 40
0
 40
0
 40
0
 40
1
 40
1
 40
1
 40
1
 10
643.772135
 20
-67.736753
 30
0.0
 10
643.640032
 20
-67.748311
 30
0.0
 10
643.508747
 20
-67.706917
 30
0.0
 10
643.407163
 20
-67.621678
 30
0.0
  0
SPLINE
  5
322
100
AcDbEntity
  8
Layer_1
 62
3
100
AcDbSpline
 70
8
 71
3
 72
8
 73
4
 74
0
 40
0
 40
0
 40
0
 40
0
 40
1
 40
1
 40
1
 40
1
 10
643.407163
 20
-67.621678
 30
0.0
 10
643.305580
 20
-67.536439
 30
0.0
 10
643.242017
 20
-67.414338
 30
0.0
 10
643.230460
 20
-67.282234
 30
0.0
  0
LINE
  5
323
100
AcDbEntity
  8
Layer_1
 62
3
100
AcDbLine
 10
643.230460
 20
-67.282234
 30
0.0
 11
642.097436
 21
-54.331699
 31
0.0
  0
SPLINE
  5
324
100
AcDbEntity
  8
Layer_1
 62
3
100
AcDbSpline
 70
8
 71
3
 72
8
 73
4
 74
0
 40
0
 40
0
 40
0
 40
0
 40
1
 40
1
 40
1
 40
1
 10
642.097436
 20
-54.331699
 30
0.0
 10
642.085878
 20
-54.199595
 30
0.0
 10
642.127272
 20
-54.068311
 30
0.0
 10
642.212511
 20
-53.966727
 30
0.0
  0
SPLINE
  5
325
100
AcDbEntity
  8
Layer_1
 62
3
100
AcDbSpline
 70
8
 71
3
 72
8
 73
4
 74
0
 40
0
 40
0
 40
0
 40
0
 40
1
 40
1
 40
1
 40
1
 10
642.212511
 20
-53.966727
 30
0.0
 10
642.297750
 20
-53.865143
 30
0.0
 10
642.419852
 20
-53.801581
 30
0.0
 10
642.551955
 20
-53.790023
 30
0.0
  0
LINE
  5
326
100
AcDbEntity
  8
Layer_1
 62
3
100
AcDbLine
 10
642.551955
 20
-53.790023
 30
0.0
 11
642.551955
 21
-53.790023
 31
0.0
  0
LINE
  5
327
100
AcDbEntity
  8
Layer_1
 62
3
100
AcDbLine
 10
621.202500
 20
-55.657857
 30
0.0
 11
634.153035
 21
-54.524833
 31
0.0
  0
SPLINE
  5
328
100
AcDbEntity
  8
Layer_1
 62
3
100
AcDbSpline
 70
8
 71
3
 72
8
 73
4
 74
0
 40
0
 40
0
 40
0
 40
0
 40
1
 40
1
 40
1
 40
1
 10
634.153035
 20
-54.524833
 30
0.0
 10
634.285139
 20
-54.513276
 30
0.0
 10
634.416423
 20
-54.554669
 30
0.0
 10
634.518007
 20
-54.639908
 30
0.0
  0
SPLINE
  5
329
100
AcDbEntity
  8
Layer_1
 62
3
100
AcDbSpline
 70
8
 71
3
 72
8
 73
4
 74
0
 40
0
 40
0
 40
0
 40
0
 40
1
 40
1
 40
1
 40
1
 10
634.518007
 20
-54.639908
 30
0.0
 10
634.619591
 20
-54.725147
 30
0.0
 10
634.683153
 20
-54.847249
 30
0.0
 10
634.694711
 20
-54.979353
 30
0.0
  0
LINE
  5
32a
100
AcDbEntity
  8
Layer_1
 62
3
100
AcDbLine
 10
634.694711
 20
-54.979353
 30
0.0
 11
635.827735
 21
-67.929888
 31
0.0
  0
SPLINE
  5
32b
100
AcDbEntity
  8
Layer_1
 62
3
100
AcDbSpline
 70
8
 71
3
 72
8
 73
4
 74
0
 40
0
 40
0
 40
0
 40
0
 40
1
 40
1
 40
1
 40
1
 10
635.827735
 20
-67.929888
 30
0.0
 10
635.839292
 20
-68.061992
 30
0.0
 10
635.797899
 20
-68.193276
 30
0.0
 10
635.712660
 20
-68.294860
 30
0.0
  0
SPLINE
  5
32c
100
AcDbEntity
  8
Layer_1
 62
3
100
AcDbSpline
 70
8
 71
3
 72
8
 73
4
 74
0
 40
0
 40
0
 40
0
 40
0
 40
1
 40
1
 40
1
 40
1
 10
635.712660
 20
-68.294860
 30
0.0
 10
635.627421
 20
-68.396443
 30
0.0
 10
635.505319
 20
-68.460006
 30
0.0
 10
635.373215
 20
-68.471563
 30
0.0
  0
LINE
  5
32d
100
AcDbEntity
  8
Layer_1
 62
3
100
AcDbLine
 10
635.373215
 20
-68.471563
 30
0.0
 11
622.422680
 21
-69.604587
 31
0.0
  0
SPLINE
  5
32e
100
AcDbEntity
  8
Layer_1
 62
3
100
AcDbSpline
 70
8
 71
3
 72
8
 73
4
 74
0
 40
0
 40
0
 40
0
 40
0
 40
1
 40
1
 40
1
 40
1
 10
622.422680
 20
-69.604587
 30
0.0
 10
622.290576
 20
-69.616145
 30
0.0
 10
622.159292
 20
-69.574751
 30
0.0
 10
622.057708
 20
-69.489512
 30
0.0
  0
SPLINE
  5
32f
100
AcDbEntity
  8
Layer_1
 62
3
100
AcDbSpline
 70
8
 71
3
 72
8
 73
4
 74
0
 40
0
 40
0
 40
0
 40
0
 40
1
 40
1
 40
1
 40
1
 10
622.057708
 20
-69.489512
 30
0.0
 10
621.956125
 20
-69.404273
 30
0.0
 10
621.892562
 20
-69.282171
 30
0.0
 10
621.881005
 20
-69.150068
 30
0.0
  0
LINE
  5
330
100
AcDbEntity
  8
Layer_1
 62
3
100
AcDbLine
 10
621.881005
 20
-69.150068
 30
0.0
 11
620.747981
 21
-56.199533
 31
0.0
  0
SPLINE
  5
331
100
AcDbEntity
  8
Layer_1
 62
3
100
AcDbSpline
 70
8
 71
3
 72
8
 73
4
 74
0
 40
0
 40
0
 40
0
 40
0
 40
1
 40
1
 40
1
 40
1
 10
620.747981
 20
-56.199533
 30
0.0
 10
620.736423
 20
-56.067429
 30
0.0
 10
620.777817
 20
-55.936145
 30
0.0
 10
620.863056
 20
-55.834561
 30
0.0
  0
SPLINE
  5
332
100
AcDbEntity
  8
Layer_1
 62
3
100
AcDbSpline
 70
8
 71
3
 72
8
 73
4
 74
0
 40
0
 40
0
 40
0
 40
0
 40
1
 40
1
 40
1
 40
1
 10
620.863056
 20
-55.834561
 30
0.0
 10
620.948295
 20
-55.732977
 30
0.0
 10
621.070397
 20
-55.669415
 30
0.0
 10
621.202500
 20
-55.657857
 30
0.0
  0
LINE
  5
333
100
AcDbEntity
  8
Layer_1
 62
3
100
AcDbLine
 10
621.202500
 20
-55.657857
 30
0.0
 11
621.202500
 21
-55.657857
 31
0.0
  0
LINE
  5
334
100
AcDbEntity
  8
Layer_1
 62
3
100
AcDbLine
 10
678.846669
 20
-31.491877
 30
0.0
 11
691.797204
 21
-30.358852
 31
0.0
  0
SPLINE
  5
335
100
AcDbEntity
  8
Layer_1
 62
3
100
AcDbSpline
 70
8
 71
3
 72
8
 73
4
 74
0
 40
0
 40
0
 40
0
 40
0
 40
1
 40
1
 40
1
 40
1
 10
691.797204
 20
-30.358852
 30
0.0
 10
691.929307
 20
-30.347295
 30
0.0
 10
692.060592
 20
-30.388689
 30
0.0
 10
692.162176
 20
-30.473928
 30
0.0
  0
SPLINE
  5
336
100
AcDbEntity
  8
Layer_1
 62
3
100
AcDbSpline
 70
8
 71
3
 72
8
 73
4
 74
0
 40
0
 40
0
 40
0
 40
0
 40
1
 40
1
 40
1
 40
1
 10
692.162176
 20
-30.473928
 30
0.0
 10
692.263759
 20
-30.559167
 30
0.0
 10
692.327322
 20
-30.681268
 30
0.0
 10
692.338879
 20
-30.813372
 30
0.0
  0
LINE
  5
337
100
AcDbEntity
  8
Layer_1
 62
3
100
AcDbLine
 10
692.338879
 20
-30.813372
 30
0.0
 11
693.471903
 21
-43.763907
 31
0.0
  0
SPLINE
  5
338
100
AcDbEntity
  8
Layer_1
 62
3
100
AcDbSpline
 70
8
 71
3
 72
8
 73
4
 74
0
 40
0
 40
0
 40
0
 40
0
 40
1
 40
1
 40
1
 40
1
 10
693.471903
 20
-43.763907
 30
0.0
 10
693.483461
 20
-43.896011
 30
0.0
 10
693.442067
 20
-44.027295
 30
0.0
 10
693.356828
 20
-44.128879
 30
0.0
  0
SPLINE
  5
339
100
AcDbEntity
  8
Layer_1
 62
3
100
AcDbSpline
 70
8
 71
3
 72
8
 73
4
 74
0
 40
0
 40
0
 40
0
 40
0
 40
1
 40
1
 40
1
 40
1
 10
693.356828
 20
-44.128879
 30
0.0
 10
693.271589
 20
-44.230463
 30
0.0
 10
693.149487
 20
-44.294025
 30
0.0
 10
693.017384
 20
-44.305582
 30
0.0
  0
LINE
  5
33a
100
AcDbEntity
  8
Layer_1
 62
3
100
AcDbLine
 10
693.017384
 20
-44.305582
 30
0.0
 11
680.066849
 21
-45.438607
 31
0.0
  0
SPLINE
  5
33b
100
AcDbEntity
  8
Layer_1
 62
3
100
AcDbSpline
 70
8
 71
3
 72
8
 73
4
 74
0
 40
0
 40
0
 40
0
 40
0
 40
1
 40
1
 40
1
 40
1
 10
680.066849
 20
-45.438607
 30
0.0
 10
679.934745
 20
-45.450164
 30
0.0
 10
679.803461
 20
-45.408770
 30
0.0
 10
679.701877
 20
-45.323531
 30
0.0
  0
SPLINE
  5
33c
100
AcDbEntity
  8
Layer_1
 62
3
100
AcDbSpline
 70
8
 71
3
 72
8
 73
4
 74
0
 40
0
 40
0
 40
0
 40
0
 40
1
 40
1
 40
1
 40
1
 10
679.701877
 20
-45.323531
 30
0.0
 10
679.600293
 20
-45.238292
 30
0.0
 10
679.536731
 20
-45.116191
 30
0.0
 10
679.525173
 20
-44.984087
 30
0.0
  0
LINE
  5
33d
100
AcDbEntity
  8
Layer_1
 62
3
100
AcDbLine
 10
679.525173
 20
-44.984087
 30
0.0
 11
678.392149
 21
-32.033552
 31
0.0
  0
SPLINE
  5
33e
100
AcDbEntity
  8
Layer_1
 62
3
100
AcDbSpline
 70
8
 71
3
 72
8
 73
4
 74
0
 40
0
 40
0
 40
0
 40
0
 40
1
 40
1
 40
1
 40
1
 10
678.392149
 20
-32.033552
 30
0.0
 10
678.380592
 20
-31.901448
 30
0.0
 10
678.421985
 20
-31.770164
 30
0.0
 10
678.507224
 20
-31.668580
 30
0.0
  0
SPLINE
  5
33f
100
AcDbEntity
  8
Layer_1
 62
3
100
AcDbSpline
 70
8
 71
3
 72
8
 73
4
 74
0
 40
0
 40
0
 40
0
 40
0
 40
1
 40
1
 40
1
 40
1
 10
678.507224
 20
-31.668580
 30
0.0
 10
678.592463
 20
-31.566996
 30
0.0
 10
678.714565
 20
-31.503434
 30
0.0
 10
678.846669
 20
-31.491877
 30
0.0
  0
LINE
  5
340
100
AcDbEntity
  8
Layer_1
 62
3
100
AcDbLine
 10
678.846669
 20
-31.491877
 30
0.0
 11
678.846669
 21
-31.491877
 31
0.0
  0
LINE
  5
341
100
AcDbEntity
  8
Layer_1
 62
3
100
AcDbLine
 10
659.869154
 20
-33.152193
 30
0.0
 11
672.819689
 21
-32.019169
 31
0.0
  0
SPLINE
  5
342
100
AcDbEntity
  8
Layer_1
 62
3
100
AcDbSpline
 70
8
 71
3
 72
8
 73
4
 74
0
 40
0
 40
0
 40
0
 40
0
 40
1
 40
1
 40
1
 40
1
 10
672.819689
 20
-32.019169
 30
0.0
 10
672.951793
 20
-32.007611
 30
0.0
 10
673.083077
 20
-32.049005
 30
0.0
 10
673.184661
 20
-32.134244
 30
0.0
  0
SPLINE
  5
343
100
AcDbEntity
  8
Layer_1
 62
3
100
AcDbSpline
 70
8
 71
3
 72
8
 73
4
 74
0
 40
0
 40
0
 40
0
 40
0
 40
1
 40
1
 40
1
 40
1
 10
673.184661
 20
-32.134244
 30
0.0
 10
673.286245
 20
-32.219483
 30
0.0
 10
673.349807
 20
-32.341585
 30
0.0
 10
673.361364
 20
-32.473688
 30
0.0
  0
LINE
  5
344
100
AcDbEntity
  8
Layer_1
 62
3
100
AcDbLine
 10
673.361364
 20
-32.473688
 30
0.0
 11
674.494389
 21
-45.424223
 31
0.0
  0
SPLINE
  5
345
100
AcDbEntity
  8
Layer_1
 62
3
100
AcDbSpline
 70
8
 71
3
 72
8
 73
4
 74
0
 40
0
 40
0
 40
0
 40
0
 40
1
 40
1
 40
1
 40
1
 10
674.494389
 20
-45.424223
 30
0.0
 10
674.505946
 20
-45.556327
 30
0.0
 10
674.464552
 20
-45.687611
 30
0.0
 10
674.379313
 20
-45.789195
 30
0.0
  0
SPLINE
  5
346
100
AcDbEntity
  8
Layer_1
 62
3
100
AcDbSpline
 70
8
 71
3
 72
8
 73
4
 74
0
 40
0
 40
0
 40
0
 40
0
 40
1
 40
1
 40
1
 40
1
 10
674.379313
 20
-45.789195
 30
0.0
 10
674.294074
 20
-45.890779
 30
0.0
 10
674.171973
 20
-45.954341
 30
0.0
 10
674.039869
 20
-45.965899
 30
0.0
  0
LINE
  5
347
100
AcDbEntity
  8
Layer_1
 62
3
100
AcDbLine
 10
674.039869
 20
-45.965899
 30
0.0
 11
661.089334
 21
-47.098923
 31
0.0
  0
SPLINE
  5
348
100
AcDbEntity
  8
Layer_1
 62
3
100
AcDbSpline
 70
8
 71
3
 72
8
 73
4
 74
0
 40
0
 40
0
 40
0
 40
0
 40
1
 40
1
 40
1
 40
1
 10
661.089334
 20
-47.098923
 30
0.0
 10
660.957230
 20
-47.110480
 30
0.0
 10
660.825946
 20
-47.069086
 30
0.0
 10
660.724362
 20
-46.983847
 30
0.0
  0
SPLINE
  5
349
100
AcDbEntity
  8
Layer_1
 62
3
100
AcDbSpline
 70
8
 71
3
 72
8
 73
4
 74
0
 40
0
 40
0
 40
0
 40
0
 40
1
 40
1
 40
1
 40
1
 10
660.724362
 20
-46.983847
 30
0.0
 10
660.622778
 20
-46.898608
 30
0.0
 10
660.559216
 20
-46.776507
 30
0.0
 10
660.547659
 20
-46.644403
 30
0.0
  0
LINE
  5
34a
100
AcDbEntity
  8
Layer_1
 62
3
100
AcDbLine
 10
660.547659
 20
-46.644403
 30
0.0
 11
659.414634
 21
-33.693868
 31
0.0
  0
SPLINE
  5
34b
100
AcDbEntity
  8
Layer_1
 62
3
100
AcDbSpline
 70
8
 71
3
 72
8
 73
4
 74
0
 40
0
 40
0
 40
0
 40
0
 40
1
 40
1
 40
1
 40
1
 10
659.414634
 20
-33.693868
 30
0.0
 10
659.403077
 20
-33.561764
 30
0.0
 10
659.444471
 20
-33.430480
 30
0.0
 10
659.529710
 20
-33.328896
 30
0.0
  0
SPLINE
  5
34c
100
AcDbEntity
  8
Layer_1
 62
3
100
AcDbSpline
 70
8
 71
3
 72
8
 73
4
 74
0
 40
0
 40
0
 40
0
 40
0
 40
1
 40
1
 40
1
 40
1
 10
659.529710
 20
-33.328896
 30
0.0
 10
659.614949
 20
-33.227312
 30
0.0
 10
659.737050
 20
-33.163750
 30
0.0
 10
659.869154
 20
-33.152193
 30
0.0
  0
LINE
  5
34d
100
AcDbEntity
  8
Layer_1
 62
3
100
AcDbLine
 10
659.869154
 20
-33.152193
 30
0.0
 11
659.869154
 21
-33.152193
 31
0.0
  0
LINE
  5
34e
100
AcDbEntity
  8
Layer_1
 62
3
100
AcDbLine
 10
640.891639
 20
-34.812509
 30
0.0
 11
653.842174
 21
-33.679485
 31
0.0
  0
SPLINE
  5
34f
100
AcDbEntity
  8
Layer_1
 62
3
100
AcDbSpline
 70
8
 71
3
 72
8
 73
4
 74
0
 40
0
 40
0
 40
0
 40
0
 40
1
 40
1
 40
1
 40
1
 10
653.842174
 20
-33.679485
 30
0.0
 10
653.974278
 20
-33.667927
 30
0.0
 10
654.105562
 20
-33.709321
 30
0.0
 10
654.207146
 20
-33.794560
 30
0.0
  0
SPLINE
  5
350
100
AcDbEntity
  8
Layer_1
 62
3
100
AcDbSpline
 70
8
 71
3
 72
8
 73
4
 74
0
 40
0
 40
0
 40
0
 40
0
 40
1
 40
1
 40
1
 40
1
 10
654.207146
 20
-33.794560
 30
0.0
 10
654.308730
 20
-33.879799
 30
0.0
 10
654.372292
 20
-34.001901
 30
0.0
 10
654.383850
 20
-34.134004
 30
0.0
  0
LINE
  5
351
100
AcDbEntity
  8
Layer_1
 62
3
100
AcDbLine
 10
654.383850
 20
-34.134004
 30
0.0
 11
655.516874
 21
-47.084539
 31
0.0
  0
SPLINE
  5
352
100
AcDbEntity
  8
Layer_1
 62
3
100
AcDbSpline
 70
8
 71
3
 72
8
 73
4
 74
0
 40
0
 40
0
 40
0
 40
0
 40
1
 40
1
 40
1
 40
1
 10
655.516874
 20
-47.084539
 30
0.0
 10
655.528431
 20
-47.216643
 30
0.0
 10
655.487038
 20
-47.347927
 30
0.0
 10
655.401799
 20
-47.449511
 30
0.0
  0
SPLINE
  5
353
100
AcDbEntity
  8
Layer_1
 62
3
100
AcDbSpline
 70
8
 71
3
 72
8
 73
4
 74
0
 40
0
 40
0
 40
0
 40
0
 40
1
 40
1
 40
1
 40
1
 10
655.401799
 20
-47.449511
 30
0.0
 10
655.316560
 20
-47.551095
 30
0.0
 10
655.194458
 20
-47.614657
 30
0.0
 10
655.062354
 20
-47.626215
 30
0.0
  0
LINE
  5
354
100
AcDbEntity
  8
Layer_1
 62
3
100
AcDbLine
 10
655.062354
 20
-47.626215
 30
0.0
 11
642.111819
 21
-48.759239
 31
0.0
  0
SPLINE
  5
355
100
AcDbEntity
  8
Layer_1
 62
3
100
AcDbSpline
 70
8
 71
3
 72
8
 73
4
 74
0
 40
0
 40
0
 40
0
 40
0
 40
1
 40
1
 40
1
 40
1
 10
642.111819
 20
-48.759239
 30
0.0
 10
641.979715
 20
-48.770796
 30
0.0
 10
641.848431
 20
-48.729403
 30
0.0
 10
641.746847
 20
-48.644164
 30
0.0
  0
SPLINE
  5
356
100
AcDbEntity
  8
Layer_1
 62
3
100
AcDbSpline
 70
8
 71
3
 72
8
 73
4
 74
0
 40
0
 40
0
 40
0
 40
0
 40
1
 40
1
 40
1
 40
1
 10
641.746847
 20
-48.644164
 30
0.0
 10
641.645264
 20
-48.558925
 30
0.0
 10
641.581701
 20
-48.436823
 30
0.0
 10
641.570144
 20
-48.304719
 30
0.0
  0
LINE
  5
357
100
AcDbEntity
  8
Layer_1
 62
3
100
AcDbLine
 10
641.570144
 20
-48.304719
 30
0.0
 11
640.437120
 21
-35.354184
 31
0.0
  0
SPLINE
  5
358
100
AcDbEntity
  8
Layer_1
 62
3
100
AcDbSpline
 70
8
 71
3
 72
8
 73
4
 74
0
 40
0
 40
0
 40
0
 40
0
 40
1
 40
1
 40
1
 40
1
 10
640.437120
 20
-35.354184
 30
0.0
 10
640.425562
 20
-35.222080
 30
0.0
 10
640.466956
 20
-35.090796
 30
0.0
 10
640.552195
 20
-34.989212
 30
0.0
  0
SPLINE
  5
359
100
AcDbEntity
  8
Layer_1
 62
3
100
AcDbSpline
 70
8
 71
3
 72
8
 73
4
 74
0
 40
0
 40
0
 40
0
 40
0
 40
1
 40
1
 40
1
 40
1
 10
640.552195
 20
-34.989212
 30
0.0
 10
640.637434
 20
-34.887628
 30
0.0
 10
640.759536
 20
-34.824066
 30
0.0
 10
640.891639
 20
-34.812509
 30
0.0
  0
LINE
  5
35a
100
AcDbEntity
  8
Layer_1
 62
3
100
AcDbLine
 10
640.891639
 20
-34.812509
 30
0.0
 11
640.891639
 21
-34.812509
 31
0.0
  0
LINE
  5
35b
100
AcDbEntity
  8
Layer_1
 62
3
100
AcDbLine
 10
621.914125
 20
-36.472825
 30
0.0
 11
634.864660
 21
-35.339801
 31
0.0
  0
SPLINE
  5
35c
100
AcDbEntity
  8
Layer_1
 62
3
100
AcDbSpline
 70
8
 71
3
 72
8
 73
4
 74
0
 40
0
 40
0
 40
0
 40
0
 40
1
 40
1
 40
1
 40
1
 10
634.864660
 20
-35.339801
 30
0.0
 10
634.996763
 20
-35.328243
 30
0.0
 10
635.128048
 20
-35.369637
 30
0.0
 10
635.229631
 20
-35.454876
 30
0.0
  0
SPLINE
  5
35d
100
AcDbEntity
  8
Layer_1
 62
3
100
AcDbSpline
 70
8
 71
3
 72
8
 73
4
 74
0
 40
0
 40
0
 40
0
 40
0
 40
1
 40
1
 40
1
 40
1
 10
635.229631
 20
-35.454876
 30
0.0
 10
635.331215
 20
-35.540115
 30
0.0
 10
635.394777
 20
-35.662217
 30
0.0
 10
635.406335
 20
-35.794320
 30
0.0
  0
LINE
  5
35e
100
AcDbEntity
  8
Layer_1
 62
3
100
AcDbLine
 10
635.406335
 20
-35.794320
 30
0.0
 11
636.539359
 21
-48.744855
 31
0.0
  0
SPLINE
  5
35f
100
AcDbEntity
  8
Layer_1
 62
3
100
AcDbSpline
 70
8
 71
3
 72
8
 73
4
 74
0
 40
0
 40
0
 40
0
 40
0
 40
1
 40
1
 40
1
 40
1
 10
636.539359
 20
-48.744855
 30
0.0
 10
636.550917
 20
-48.876959
 30
0.0
 10
636.509523
 20
-49.008243
 30
0.0
 10
636.424284
 20
-49.109827
 30
0.0
  0
SPLINE
  5
360
100
AcDbEntity
  8
Layer_1
 62
3
100
AcDbSpline
 70
8
 71
3
 72
8
 73
4
 74
0
 40
0
 40
0
 40
0
 40
0
 40
1
 40
1
 40
1
 40
1
 10
636.424284
 20
-49.109827
 30
0.0
 10
636.339045
 20
-49.211411
 30
0.0
 10
636.216943
 20
-49.274973
 30
0.0
 10
636.084839
 20
-49.286531
 30
0.0
  0
LINE
  5
361
100
AcDbEntity
  8
Layer_1
 62
3
100
AcDbLine
 10
636.084839
 20
-49.286531
 30
0.0
 11
623.134304
 21
-50.419555
 31
0.0
  0
SPLINE
  5
362
100
AcDbEntity
  8
Layer_1
 62
3
100
AcDbSpline
 70
8
 71
3
 72
8
 73
4
 74
0
 40
0
 40
0
 40
0
 40
0
 40
1
 40
1
 40
1
 40
1
 10
623.134304
 20
-50.419555
 30
0.0
 10
623.002201
 20
-50.431112
 30
0.0
 10
622.870916
 20
-50.389719
 30
0.0
 10
622.769333
 20
-50.304480
 30
0.0
  0
SPLINE
  5
363
100
AcDbEntity
  8
Layer_1
 62
3
100
AcDbSpline
 70
8
 71
3
 72
8
 73
4
 74
0
 40
0
 40
0
 40
0
 40
0
 40
1
 40
1
 40
1
 40
1
 10
622.769333
 20
-50.304480
 30
0.0
 10
622.667749
 20
-50.219241
 30
0.0
 10
622.604187
 20
-50.097139
 30
0.0
 10
622.592629
 20
-49.965035
 30
0.0
  0
LINE
  5
364
100
AcDbEntity
  8
Layer_1
 62
3
100
AcDbLine
 10
622.592629
 20
-49.965035
 30
0.0
 11
621.459605
 21
-37.014500
 31
0.0
  0
SPLINE
  5
365
100
AcDbEntity
  8
Layer_1
 62
3
100
AcDbSpline
 70
8
 71
3
 72
8
 73
4
 74
0
 40
0
 40
0
 40
0
 40
0
 40
1
 40
1
 40
1
 40
1
 10
621.459605
 20
-37.014500
 30
0.0
 10
621.448047
 20
-36.882396
 30
0.0
 10
621.489441
 20
-36.751112
 30
0.0
 10
621.574680
 20
-36.649528
 30
0.0
  0
SPLINE
  5
366
100
AcDbEntity
  8
Layer_1
 62
3
100
AcDbSpline
 70
8
 71
3
 72
8
 73
4
 74
0
 40
0
 40
0
 40
0
 40
0
 40
1
 40
1
 40
1
 40
1
 10
621.574680
 20
-36.649528
 30
0.0
 10
621.659919
 20
-36.547945
 30
0.0
 10
621.782021
 20
-36.484382
 30
0.0
 10
621.914125
 20
-36.472825
 30
0.0
  0
LINE
  5
367
100
AcDbEntity
  8
Layer_1
 62
3
100
AcDbLine
 10
621.914125
 20
-36.472825
 30
0.0
 11
621.914125
 21
-36.472825
 31
0.0
  0
LINE
  5
368
100
AcDbEntity
  8
Layer_1
 62
3
100
AcDbLine
 10
602.936610
 20
-38.133141
 30
0.0
 11
615.887145
 21
-37.000117
 31
0.0
  0
SPLINE
  5
369
100
AcDbEntity
  8
Layer_1
 62
3
100
AcDbSpline
 70
8
 71
3
 72
8
 73
4
 74
0
 40
0
 40
0
 40
0
 40
0
 40
1
 40
1
 40
1
 40
1
 10
615.887145
 20
-37.000117
 30
0.0
 10
616.019248
 20
-36.988559
 30
0.0
 10
616.150533
 20
-37.029953
 30
0.0
 10
616.252117
 20
-37.115192
 30
0.0
  0
SPLINE
  5
36a
100
AcDbEntity
  8
Layer_1
 62
3
100
AcDbSpline
 70
8
 71
3
 72
8
 73
4
 74
0
 40
0
 40
0
 40
0
 40
0
 40
1
 40
1
 40
1
 40
1
 10
616.252117
 20
-37.115192
 30
0.0
 10
616.353700
 20
-37.200431
 30
0.0
 10
616.417263
 20
-37.322533
 30
0.0
 10
616.428820
 20
-37.454636
 30
0.0
  0
LINE
  5
36b
100
AcDbEntity
  8
Layer_1
 62
3
100
AcDbLine
 10
616.428820
 20
-37.454636
 30
0.0
 11
617.561844
 21
-50.405171
 31
0.0
  0
SPLINE
  5
36c
100
AcDbEntity
  8
Layer_1
 62
3
100
AcDbSpline
 70
8
 71
3
 72
8
 73
4
 74
0
 40
0
 40
0
 40
0
 40
0
 40
1
 40
1
 40
1
 40
1
 10
617.561844
 20
-50.405171
 30
0.0
 10
617.573402
 20
-50.537275
 30
0.0
 10
617.532008
 20
-50.668559
 30
0.0
 10
617.446769
 20
-50.770143
 30
0.0
  0
SPLINE
  5
36d
100
AcDbEntity
  8
Layer_1
 62
3
100
AcDbSpline
 70
8
 71
3
 72
8
 73
4
 74
0
 40
0
 40
0
 40
0
 40
0
 40
1
 40
1
 40
1
 40
1
 10
617.446769
 20
-50.770143
 30
0.0
 10
617.361530
 20
-50.871727
 30
0.0
 10
617.239428
 20
-50.935289
 30
0.0
 10
617.107325
 20
-50.946847
 30
0.0
  0
LINE
  5
36e
100
AcDbEntity
  8
Layer_1
 62
3
100
AcDbLine
 10
617.107325
 20
-50.946847
 30
0.0
 11
604.156790
 21
-52.079871
 31
0.0
  0
SPLINE
  5
36f
100
AcDbEntity
  8
Layer_1
 62
3
100
AcDbSpline
 70
8
 71
3
 72
8
 73
4
 74
0
 40
0
 40
0
 40
0
 40
0
 40
1
 40
1
 40
1
 40
1
 10
604.156790
 20
-52.079871
 30
0.0
 10
604.024686
 20
-52.091428
 30
0.0
 10
603.893402
 20
-52.050035
 30
0.0
 10
603.791818
 20
-51.964796
 30
0.0
  0
SPLINE
  5
370
100
AcDbEntity
  8
Layer_1
 62
3
100
AcDbSpline
 70
8
 71
3
 72
8
 73
4
 74
0
 40
0
 40
0
 40
0
 40
0
 40
1
 40
1
 40
1
 40
1
 10
603.791818
 20
-51.964796
 30
0.0
 10
603.690234
 20
-51.879557
 30
0.0
 10
603.626672
 20
-51.757455
 30
0.0
 10
603.615114
 20
-51.625351
 30
0.0
  0
LINE
  5
371
100
AcDbEntity
  8
Layer_1
 62
3
100
AcDbLine
 10
603.615114
 20
-51.625351
 30
0.0
 11
602.482090
 21
-38.674816
 31
0.0
  0
SPLINE
  5
372
100
AcDbEntity
  8
Layer_1
 62
3
100
AcDbSpline
 70
8
 71
3
 72
8
 73
4
 74
0
 40
0
 40
0
 40
0
 40
0
 40
1
 40
1
 40
1
 40
1
 10
602.482090
 20
-38.674816
 30
0.0
 10
602.470533
 20
-38.542713
 30
0.0
 10
602.511926
 20
-38.411428
 30
0.0
 10
602.597165
 20
-38.309844
 30
0.0
  0
SPLINE
  5
373
100
AcDbEntity
  8
Layer_1
 62
3
100
AcDbSpline
 70
8
 71
3
 72
8
 73
4
 74
0
 40
0
 40
0
 40
0
 40
0
 40
1
 40
1
 40
1
 40
1
 10
602.597165
 20
-38.309844
 30
0.0
 10
602.682404
 20
-38.208261
 30
0.0
 10
602.804506
 20
-38.144698
 30
0.0
 10
602.936610
 20
-38.133141
 30
0.0
  0
LINE
  5
374
100
AcDbEntity
  8
Layer_1
 62
3
100
AcDbLine
 10
602.936610
 20
-38.133141
 30
0.0
 11
602.936610
 21
-38.133141
 31
0.0
  0
LINE
  5
375
100
AcDbEntity
  8
Layer_1
 62
3
100
AcDbLine
 10
583.959095
 20
-39.793457
 30
0.0
 11
596.909630
 21
-38.660433
 31
0.0
  0
SPLINE
  5
376
100
AcDbEntity
  8
Layer_1
 62
3
100
AcDbSpline
 70
8
 71
3
 72
8
 73
4
 74
0
 40
0
 40
0
 40
0
 40
0
 40
1
 40
1
 40
1
 40
1
 10
596.909630
 20
-38.660433
 30
0.0
 10
597.041734
 20
-38.648875
 30
0.0
 10
597.173018
 20
-38.690269
 30
0.0
 10
597.274602
 20
-38.775508
 30
0.0
  0
SPLINE
  5
377
100
AcDbEntity
  8
Layer_1
 62
3
100
AcDbSpline
 70
8
 71
3
 72
8
 73
4
 74
0
 40
0
 40
0
 40
0
 40
0
 40
1
 40
1
 40
1
 40
1
 10
597.274602
 20
-38.775508
 30
0.0
 10
597.376186
 20
-38.860747
 30
0.0
 10
597.439748
 20
-38.982849
 30
0.0
 10
597.451305
 20
-39.114953
 30
0.0
  0
LINE
  5
378
100
AcDbEntity
  8
Layer_1
 62
3
100
AcDbLine
 10
597.451305
 20
-39.114953
 30
0.0
 11
598.584330
 21
-52.065488
 31
0.0
  0
SPLINE
  5
379
100
AcDbEntity
  8
Layer_1
 62
3
100
AcDbSpline
 70
8
 71
3
 72
8
 73
4
 74
0
 40
0
 40
0
 40
0
 40
0
 40
1
 40
1
 40
1
 40
1
 10
598.584330
 20
-52.065488
 30
0.0
 10
598.595887
 20
-52.197591
 30
0.0
 10
598.554493
 20
-52.328875
 30
0.0
 10
598.469254
 20
-52.430459
 30
0.0
  0
SPLINE
  5
37a
100
AcDbEntity
  8
Layer_1
 62
3
100
AcDbSpline
 70
8
 71
3
 72
8
 73
4
 74
0
 40
0
 40
0
 40
0
 40
0
 40
1
 40
1
 40
1
 40
1
 10
598.469254
 20
-52.430459
 30
0.0
 10
598.384015
 20
-52.532043
 30
0.0
 10
598.261914
 20
-52.595605
 30
0.0
 10
598.129810
 20
-52.607163
 30
0.0
  0
LINE
  5
37b
100
AcDbEntity
  8
Layer_1
 62
3
100
AcDbLine
 10
598.129810
 20
-52.607163
 30
0.0
 11
585.179275
 21
-53.740187
 31
0.0
  0
SPLINE
  5
37c
100
AcDbEntity
  8
Layer_1
 62
3
100
AcDbSpline
 70
8
 71
3
 72
8
 73
4
 74
0
 40
0
 40
0
 40
0
 40
0
 40
1
 40
1
 40
1
 40
1
 10
585.179275
 20
-53.740187
 30
0.0
 10
585.047171
 20
-53.751745
 30
0.0
 10
584.915887
 20
-53.710351
 30
0.0
 10
584.814303
 20
-53.625112
 30
0.0
  0
SPLINE
  5
37d
100
AcDbEntity
  8
Layer_1
 62
3
100
AcDbSpline
 70
8
 71
3
 72
8
 73
4
 74
0
 40
0
 40
0
 40
0
 40
0
 40
1
 40
1
 40
1
 40
1
 10
584.814303
 20
-53.625112
 30
0.0
 10
584.712719
 20
-53.539873
 30
0.0
 10
584.649157
 20
-53.417771
 30
0.0
 10
584.637600
 20
-53.285667
 30
0.0
  0
LINE
  5
37e
100
AcDbEntity
  8
Layer_1
 62
3
100
AcDbLine
 10
584.637600
 20
-53.285667
 30
0.0
 11
583.504575
 21
-40.335132
 31
0.0
  0
SPLINE
  5
37f
100
AcDbEntity
  8
Layer_1
 62
3
100
AcDbSpline
 70
8
 71
3
 72
8
 73
4
 74
0
 40
0
 40
0
 40
0
 40
0
 40
1
 40
1
 40
1
 40
1
 10
583.504575
 20
-40.335132
 30
0.0
 10
583.493018
 20
-40.203029
 30
0.0
 10
583.534412
 20
-40.071744
 30
0.0
 10
583.619651
 20
-39.970161
 30
0.0
  0
SPLINE
  5
380
100
AcDbEntity
  8
Layer_1
 62
3
100
AcDbSpline
 70
8
 71
3
 72
8
 73
4
 74
0
 40
0
 40
0
 40
0
 40
0
 40
1
 40
1
 40
1
 40
1
 10
583.619651
 20
-39.970161
 30
0.0
 10
583.704890
 20
-39.868577
 30
0.0
 10
583.826991
 20
-39.805015
 30
0.0
 10
583.959095
 20
-39.793457
 30
0.0
  0
LINE
  5
381
100
AcDbEntity
  8
Layer_1
 62
3
100
AcDbLine
 10
583.959095
 20
-39.793457
 30
0.0
 11
583.959095
 21
-39.793457
 31
0.0
  0
LINE
  5
382
100
AcDbEntity
  8
Layer_1
 62
3
100
AcDbLine
 10
672.442472
 20
-12.929397
 30
0.0
 11
685.393007
 21
-11.796373
 31
0.0
  0
SPLINE
  5
383
100
AcDbEntity
  8
Layer_1
 62
3
100
AcDbSpline
 70
8
 71
3
 72
8
 73
4
 74
0
 40
0
 40
0
 40
0
 40
0
 40
1
 40
1
 40
1
 40
1
 10
685.393007
 20
-11.796373
 30
0.0
 10
685.525111
 20
-11.784816
 30
0.0
 10
685.656395
 20
-11.826209
 30
0.0
 10
685.757979
 20
-11.911448
 30
0.0
  0
SPLINE
  5
384
100
AcDbEntity
  8
Layer_1
 62
3
100
AcDbSpline
 70
8
 71
3
 72
8
 73
4
 74
0
 40
0
 40
0
 40
0
 40
0
 40
1
 40
1
 40
1
 40
1
 10
685.757979
 20
-11.911448
 30
0.0
 10
685.859563
 20
-11.996687
 30
0.0
 10
685.923125
 20
-12.118789
 30
0.0
 10
685.934682
 20
-12.250893
 30
0.0
  0
LINE
  5
385
100
AcDbEntity
  8
Layer_1
 62
3
100
AcDbLine
 10
685.934682
 20
-12.250893
 30
0.0
 11
687.067707
 21
-25.201428
 31
0.0
  0
SPLINE
  5
386
100
AcDbEntity
  8
Layer_1
 62
3
100
AcDbSpline
 70
8
 71
3
 72
8
 73
4
 74
0
 40
0
 40
0
 40
0
 40
0
 40
1
 40
1
 40
1
 40
1
 10
687.067707
 20
-25.201428
 30
0.0
 10
687.079264
 20
-25.333531
 30
0.0
 10
687.037870
 20
-25.464816
 30
0.0
 10
686.952631
 20
-25.566400
 30
0.0
  0
SPLINE
  5
387
100
AcDbEntity
  8
Layer_1
 62
3
100
AcDbSpline
 70
8
 71
3
 72
8
 73
4
 74
0
 40
0
 40
0
 40
0
 40
0
 40
1
 40
1
 40
1
 40
1
 10
686.952631
 20
-25.566400
 30
0.0
 10
686.867392
 20
-25.667983
 30
0.0
 10
686.745291
 20
-25.731546
 30
0.0
 10
686.613187
 20
-25.743103
 30
0.0
  0
LINE
  5
388
100
AcDbEntity
  8
Layer_1
 62
3
100
AcDbLine
 10
686.613187
 20
-25.743103
 30
0.0
 11
673.662652
 21
-26.876127
 31
0.0
  0
SPLINE
  5
389
100
AcDbEntity
  8
Layer_1
 62
3
100
AcDbSpline
 70
8
 71
3
 72
8
 73
4
 74
0
 40
0
 40
0
 40
0
 40
0
 40
1
 40
1
 40
1
 40
1
 10
673.662652
 20
-26.876127
 30
0.0
 10
673.530548
 20
-26.887685
 30
0.0
 10
673.399264
 20
-26.846291
 30
0.0
 10
673.297680
 20
-26.761052
 30
0.0
  0
SPLINE
  5
38a
100
AcDbEntity
  8
Layer_1
 62
3
100
AcDbSpline
 70
8
 71
3
 72
8
 73
4
 74
0
 40
0
 40
0
 40
0
 40
0
 40
1
 40
1
 40
1
 40
1
 10
673.297680
 20
-26.761052
 30
0.0
 10
673.196096
 20
-26.675813
 30
0.0
 10
673.132534
 20
-26.553711
 30
0.0
 10
673.120977
 20
-26.421608
 30
0.0
  0
LINE
  5
38b
100
AcDbEntity
  8
Layer_1
 62
3
100
AcDbLine
 10
673.120977
 20
-26.421608
 30
0.0
 11
671.987952
 21
-13.471073
 31
0.0
  0
SPLINE
  5
38c
100
AcDbEntity
  8
Layer_1
 62
3
100
AcDbSpline
 70
8
 71
3
 72
8
 73
4
 74
0
 40
0
 40
0
 40
0
 40
0
 40
1
 40
1
 40
1
 40
1
 10
671.987952
 20
-13.471073
 30
0.0
 10
671.976395
 20
-13.338969
 30
0.0
 10
672.017789
 20
-13.207685
 30
0.0
 10
672.103028
 20
-13.106101
 30
0.0
  0
SPLINE
  5
38d
100
AcDbEntity
  8
Layer_1
 62
3
100
AcDbSpline
 70
8
 71
3
 72
8
 73
4
 74
0
 40
0
 40
0
 40
0
 40
0
 40
1
 40
1
 40
1
 40
1
 10
672.103028
 20
-13.106101
 30
0.0
 10
672.188267
 20
-13.004517
 30
0.0
 10
672.310368
 20
-12.940955
 30
0.0
 10
672.442472
 20
-12.929397
 30
0.0
  0
LINE
  5
38e
100
AcDbEntity
  8
Layer_1
 62
3
100
AcDbLine
 10
672.442472
 20
-12.929397
 30
0.0
 11
672.442472
 21
-12.929397
 31
0.0
  0
LINE
  5
38f
100
AcDbEntity
  8
Layer_1
 62
3
100
AcDbLine
 10
648.720081
 20
-15.004836
 30
0.0
 11
661.670616
 21
-13.871812
 31
0.0
  0
SPLINE
  5
390
100
AcDbEntity
  8
Layer_1
 62
3
100
AcDbSpline
 70
8
 71
3
 72
8
 73
4
 74
0
 40
0
 40
0
 40
0
 40
0
 40
1
 40
1
 40
1
 40
1
 10
661.670616
 20
-13.871812
 30
0.0
 10
661.802719
 20
-13.860254
 30
0.0
 10
661.934004
 20
-13.901648
 30
0.0
 10
662.035587
 20
-13.986887
 30
0.0
  0
SPLINE
  5
391
100
AcDbEntity
  8
Layer_1
 62
3
100
AcDbSpline
 70
8
 71
3
 72
8
 73
4
 74
0
 40
0
 40
0
 40
0
 40
0
 40
1
 40
1
 40
1
 40
1
 10
662.035587
 20
-13.986887
 30
0.0
 10
662.137171
 20
-14.072126
 30
0.0
 10
662.200733
 20
-14.194228
 30
0.0
 10
662.212291
 20
-14.326331
 30
0.0
  0
LINE
  5
392
100
AcDbEntity
  8
Layer_1
 62
3
100
AcDbLine
 10
662.212291
 20
-14.326331
 30
0.0
 11
663.345315
 21
-27.276866
 31
0.0
  0
SPLINE
  5
393
100
AcDbEntity
  8
Layer_1
 62
3
100
AcDbSpline
 70
8
 71
3
 72
8
 73
4
 74
0
 40
0
 40
0
 40
0
 40
0
 40
1
 40
1
 40
1
 40
1
 10
663.345315
 20
-27.276866
 30
0.0
 10
663.356873
 20
-27.408970
 30
0.0
 10
663.315479
 20
-27.540254
 30
0.0
 10
663.230240
 20
-27.641838
 30
0.0
  0
SPLINE
  5
394
100
AcDbEntity
  8
Layer_1
 62
3
100
AcDbSpline
 70
8
 71
3
 72
8
 73
4
 74
0
 40
0
 40
0
 40
0
 40
0
 40
1
 40
1
 40
1
 40
1
 10
663.230240
 20
-27.641838
 30
0.0
 10
663.145001
 20
-27.743422
 30
0.0
 10
663.022899
 20
-27.806984
 30
0.0
 10
662.890795
 20
-27.818542
 30
0.0
  0
LINE
  5
395
100
AcDbEntity
  8
Layer_1
 62
3
100
AcDbLine
 10
662.890795
 20
-27.818542
 30
0.0
 11
649.940260
 21
-28.951566
 31
0.0
  0
SPLINE
  5
396
100
AcDbEntity
  8
Layer_1
 62
3
100
AcDbSpline
 70
8
 71
3
 72
8
 73
4
 74
0
 40
0
 40
0
 40
0
 40
0
 40
1
 40
1
 40
1
 40
1
 10
649.940260
 20
-28.951566
 30
0.0
 10
649.808157
 20
-28.963124
 30
0.0
 10
649.676872
 20
-28.921730
 30
0.0
 10
649.575289
 20
-28.836491
 30
0.0
  0
SPLINE
  5
397
100
AcDbEntity
  8
Layer_1
 62
3
100
AcDbSpline
 70
8
 71
3
 72
8
 73
4
 74
0
 40
0
 40
0
 40
0
 40
0
 40
1
 40
1
 40
1
 40
1
 10
649.575289
 20
-28.836491
 30
0.0
 10
649.473705
 20
-28.751252
 30
0.0
 10
649.410143
 20
-28.629150
 30
0.0
 10
649.398585
 20
-28.497046
 30
0.0
  0
LINE
  5
398
100
AcDbEntity
  8
Layer_1
 62
3
100
AcDbLine
 10
649.398585
 20
-28.497046
 30
0.0
 11
648.265561
 21
-15.546511
 31
0.0
  0
SPLINE
  5
399
100
AcDbEntity
  8
Layer_1
 62
3
100
AcDbSpline
 70
8
 71
3
 72
8
 73
4
 74
0
 40
0
 40
0
 40
0
 40
0
 40
1
 40
1
 40
1
 40
1
 10
648.265561
 20
-15.546511
 30
0.0
 10
648.254003
 20
-15.414408
 30
0.0
 10
648.295397
 20
-15.283123
 30
0.0
 10
648.380636
 20
-15.181540
 30
0.0
  0
SPLINE
  5
39a
100
AcDbEntity
  8
Layer_1
 62
3
100
AcDbSpline
 70
8
 71
3
 72
8
 73
4
 74
0
 40
0
 40
0
 40
0
 40
0
 40
1
 40
1
 40
1
 40
1
 10
648.380636
 20
-15.181540
 30
0.0
 10
648.465875
 20
-15.079956
 30
0.0
 10
648.587977
 20
-15.016394
 30
0.0
 10
648.720081
 20
-15.004836
 30
0.0
  0
LINE
  5
39b
100
AcDbEntity
  8
Layer_1
 62
3
100
AcDbLine
 10
648.720081
 20
-15.004836
 30
0.0
 11
648.720081
 21
-15.004836
 31
0.0
  0
LINE
  5
39c
100
AcDbEntity
  8
Layer_1
 62
3
100
AcDbLine
 10
629.742566
 20
-16.665152
 30
0.0
 11
642.693101
 21
-15.532128
 31
0.0
  0
SPLINE
  5
39d
100
AcDbEntity
  8
Layer_1
 62
3
100
AcDbSpline
 70
8
 71
3
 72
8
 73
4
 74
0
 40
0
 40
0
 40
0
 40
0
 40
1
 40
1
 40
1
 40
1
 10
642.693101
 20
-15.532128
 30
0.0
 10
642.825205
 20
-15.520570
 30
0.0
 10
642.956489
 20
-15.561964
 30
0.0
 10
643.058073
 20
-15.647203
 30
0.0
  0
SPLINE
  5
39e
100
AcDbEntity
  8
Layer_1
 62
3
100
AcDbSpline
 70
8
 71
3
 72
8
 73
4
 74
0
 40
0
 40
0
 40
0
 40
0
 40
1
 40
1
 40
1
 40
1
 10
643.058073
 20
-15.647203
 30
0.0
 10
643.159656
 20
-15.732442
 30
0.0
 10
643.223219
 20
-15.854544
 30
0.0
 10
643.234776
 20
-15.986648
 30
0.0
  0
LINE
  5
39f
100
AcDbEntity
  8
Layer_1
 62
3
100
AcDbLine
 10
643.234776
 20
-15.986648
 30
0.0
 11
644.367800
 21
-28.937183
 31
0.0
  0
SPLINE
  5
3a0
100
AcDbEntity
  8
Layer_1
 62
3
100
AcDbSpline
 70
8
 71
3
 72
8
 73
4
 74
0
 40
0
 40
0
 40
0
 40
0
 40
1
 40
1
 40
1
 40
1
 10
644.367800
 20
-28.937183
 30
0.0
 10
644.379358
 20
-29.069286
 30
0.0
 10
644.337964
 20
-29.200571
 30
0.0
 10
644.252725
 20
-29.302154
 30
0.0
  0
SPLINE
  5
3a1
100
AcDbEntity
  8
Layer_1
 62
3
100
AcDbSpline
 70
8
 71
3
 72
8
 73
4
 74
0
 40
0
 40
0
 40
0
 40
0
 40
1
 40
1
 40
1
 40
1
 10
644.252725
 20
-29.302154
 30
0.0
 10
644.167486
 20
-29.403738
 30
0.0
 10
644.045384
 20
-29.467300
 30
0.0
 10
643.913281
 20
-29.478858
 30
0.0
  0
LINE
  5
3a2
100
AcDbEntity
  8
Layer_1
 62
3
100
AcDbLine
 10
643.913281
 20
-29.478858
 30
0.0
 11
630.962746
 21
-30.611882
 31
0.0
  0
SPLINE
  5
3a3
100
AcDbEntity
  8
Layer_1
 62
3
100
AcDbSpline
 70
8
 71
3
 72
8
 73
4
 74
0
 40
0
 40
0
 40
0
 40
0
 40
1
 40
1
 40
1
 40
1
 10
630.962746
 20
-30.611882
 30
0.0
 10
630.830642
 20
-30.623440
 30
0.0
 10
630.699358
 20
-30.582046
 30
0.0
 10
630.597774
 20
-30.496807
 30
0.0
  0
SPLINE
  5
3a4
100
AcDbEntity
  8
Layer_1
 62
3
100
AcDbSpline
 70
8
 71
3
 72
8
 73
4
 74
0
 40
0
 40
0
 40
0
 40
0
 40
1
 40
1
 40
1
 40
1
 10
630.597774
 20
-30.496807
 30
0.0
 10
630.496190
 20
-30.411568
 30
0.0
 10
630.432628
 20
-30.289466
 30
0.0
 10
630.421070
 20
-30.157362
 30
0.0
  0
LINE
  5
3a5
100
AcDbEntity
  8
Layer_1
 62
3
100
AcDbLine
 10
630.421070
 20
-30.157362
 30
0.0
 11
629.288046
 21
-17.206827
 31
0.0
  0
SPLINE
  5
3a6
100
AcDbEntity
  8
Layer_1
 62
3
100
AcDbSpline
 70
8
 71
3
 72
8
 73
4
 74
0
 40
0
 40
0
 40
0
 40
0
 40
1
 40
1
 40
1
 40
1
 10
629.288046
 20
-17.206827
 30
0.0
 10
629.276489
 20
-17.074724
 30
0.0
 10
629.317882
 20
-16.943439
 30
0.0
 10
629.403121
 20
-16.841856
 30
0.0
  0
SPLINE
  5
3a7
100
AcDbEntity
  8
Layer_1
 62
3
100
AcDbSpline
 70
8
 71
3
 72
8
 73
4
 74
0
 40
0
 40
0
 40
0
 40
0
 40
1
 40
1
 40
1
 40
1
 10
629.403121
 20
-16.841856
 30
0.0
 10
629.488360
 20
-16.740272
 30
0.0
 10
629.610462
 20
-16.676710
 30
0.0
 10
629.742566
 20
-16.665152
 30
0.0
  0
LINE
  5
3a8
100
AcDbEntity
  8
Layer_1
 62
3
100
AcDbLine
 10
629.742566
 20
-16.665152
 30
0.0
 11
629.742566
 21
-16.665152
 31
0.0
  0
LINE
  5
3a9
100
AcDbEntity
  8
Layer_1
 62
3
100
AcDbLine
 10
610.765051
 20
-18.325468
 30
0.0
 11
623.715586
 21
-17.192444
 31
0.0
  0
SPLINE
  5
3aa
100
AcDbEntity
  8
Layer_1
 62
3
100
AcDbSpline
 70
8
 71
3
 72
8
 73
4
 74
0
 40
0
 40
0
 40
0
 40
0
 40
1
 40
1
 40
1
 40
1
 10
623.715586
 20
-17.192444
 30
0.0
 10
623.847690
 20
-17.180886
 30
0.0
 10
623.978974
 20
-17.222280
 30
0.0
 10
624.080558
 20
-17.307519
 30
0.0
  0
SPLINE
  5
3ab
100
AcDbEntity
  8
Layer_1
 62
3
100
AcDbSpline
 70
8
 71
3
 72
8
 73
4
 74
0
 40
0
 40
0
 40
0
 40
0
 40
1
 40
1
 40
1
 40
1
 10
624.080558
 20
-17.307519
 30
0.0
 10
624.182142
 20
-17.392758
 30
0.0
 10
624.245704
 20
-17.514860
 30
0.0
 10
624.257261
 20
-17.646964
 30
0.0
  0
LINE
  5
3ac
100
AcDbEntity
  8
Layer_1
 62
3
100
AcDbLine
 10
624.257261
 20
-17.646964
 30
0.0
 11
625.390286
 21
-30.597499
 31
0.0
  0
SPLINE
  5
3ad
100
AcDbEntity
  8
Layer_1
 62
3
100
AcDbSpline
 70
8
 71
3
 72
8
 73
4
 74
0
 40
0
 40
0
 40
0
 40
0
 40
1
 40
1
 40
1
 40
1
 10
625.390286
 20
-30.597499
 30
0.0
 10
625.401843
 20
-30.729602
 30
0.0
 10
625.360449
 20
-30.860887
 30
0.0
 10
625.275210
 20
-30.962470
 30
0.0
  0
SPLINE
  5
3ae
100
AcDbEntity
  8
Layer_1
 62
3
100
AcDbSpline
 70
8
 71
3
 72
8
 73
4
 74
0
 40
0
 40
0
 40
0
 40
0
 40
1
 40
1
 40
1
 40
1
 10
625.275210
 20
-30.962470
 30
0.0
 10
625.189971
 20
-31.064054
 30
0.0
 10
625.067870
 20
-31.127616
 30
0.0
 10
624.935766
 20
-31.139174
 30
0.0
  0
LINE
  5
3af
100
AcDbEntity
  8
Layer_1
 62
3
100
AcDbLine
 10
624.935766
 20
-31.139174
 30
0.0
 11
611.985231
 21
-32.272198
 31
0.0
  0
SPLINE
  5
3b0
100
AcDbEntity
  8
Layer_1
 62
3
100
AcDbSpline
 70
8
 71
3
 72
8
 73
4
 74
0
 40
0
 40
0
 40
0
 40
0
 40
1
 40
1
 40
1
 40
1
 10
611.985231
 20
-32.272198
 30
0.0
 10
611.853127
 20
-32.283756
 30
0.0
 10
611.721843
 20
-32.242362
 30
0.0
 10
611.620259
 20
-32.157123
 30
0.0
  0
SPLINE
  5
3b1
100
AcDbEntity
  8
Layer_1
 62
3
100
AcDbSpline
 70
8
 71
3
 72
8
 73
4
 74
0
 40
0
 40
0
 40
0
 40
0
 40
1
 40
1
 40
1
 40
1
 10
611.620259
 20
-32.157123
 30
0.0
 10
611.518675
 20
-32.071884
 30
0.0
 10
611.455113
 20
-31.949782
 30
0.0
 10
611.443556
 20
-31.817678
 30
0.0
  0
LINE
  5
3b2
100
AcDbEntity
  8
Layer_1
 62
3
100
AcDbLine
 10
611.443556
 20
-31.817678
 30
0.0
 11
610.310531
 21
-18.867143
 31
0.0
  0
SPLINE
  5
3b3
100
AcDbEntity
  8
Layer_1
 62
3
100
AcDbSpline
 70
8
 71
3
 72
8
 73
4
 74
0
 40
0
 40
0
 40
0
 40
0
 40
1
 40
1
 40
1
 40
1
 10
610.310531
 20
-18.867143
 30
0.0
 10
610.298974
 20
-18.735040
 30
0.0
 10
610.340368
 20
-18.603756
 30
0.0
 10
610.425607
 20
-18.502172
 30
0.0
  0
SPLINE
  5
3b4
100
AcDbEntity
  8
Layer_1
 62
3
100
AcDbSpline
 70
8
 71
3
 72
8
 73
4
 74
0
 40
0
 40
0
 40
0
 40
0
 40
1
 40
1
 40
1
 40
1
 10
610.425607
 20
-18.502172
 30
0.0
 10
610.510846
 20
-18.400588
 30
0.0
 10
610.632947
 20
-18.337026
 30
0.0
 10
610.765051
 20
-18.325468
 30
0.0
  0
LINE
  5
3b5
100
AcDbEntity
  8
Layer_1
 62
3
100
AcDbLine
 10
610.765051
 20
-18.325468
 30
0.0
 11
610.765051
 21
-18.325468
 31
0.0
  0
LINE
  5
3b6
100
AcDbEntity
  8
Layer_1
 62
3
100
AcDbLine
 10
591.787536
 20
-19.985784
 30
0.0
 11
604.738071
 21
-18.852760
 31
0.0
  0
SPLINE
  5
3b7
100
AcDbEntity
  8
Layer_1
 62
3
100
AcDbSpline
 70
8
 71
3
 72
8
 73
4
 74
0
 40
0
 40
0
 40
0
 40
0
 40
1
 40
1
 40
1
 40
1
 10
604.738071
 20
-18.852760
 30
0.0
 10
604.870175
 20
-18.841203
 30
0.0
 10
605.001459
 20
-18.882596
 30
0.0
 10
605.103043
 20
-18.967835
 30
0.0
  0
SPLINE
  5
3b8
100
AcDbEntity
  8
Layer_1
 62
3
100
AcDbSpline
 70
8
 71
3
 72
8
 73
4
 74
0
 40
0
 40
0
 40
0
 40
0
 40
1
 40
1
 40
1
 40
1
 10
605.103043
 20
-18.967835
 30
0.0
 10
605.204627
 20
-19.053074
 30
0.0
 10
605.268189
 20
-19.175176
 30
0.0
 10
605.279747
 20
-19.307280
 30
0.0
  0
LINE
  5
3b9
100
AcDbEntity
  8
Layer_1
 62
3
100
AcDbLine
 10
605.279747
 20
-19.307280
 30
0.0
 11
606.412771
 21
-32.257815
 31
0.0
  0
SPLINE
  5
3ba
100
AcDbEntity
  8
Layer_1
 62
3
100
AcDbSpline
 70
8
 71
3
 72
8
 73
4
 74
0
 40
0
 40
0
 40
0
 40
0
 40
1
 40
1
 40
1
 40
1
 10
606.412771
 20
-32.257815
 30
0.0
 10
606.424328
 20
-32.389918
 30
0.0
 10
606.382935
 20
-32.521203
 30
0.0
 10
606.297696
 20
-32.622787
 30
0.0
  0
SPLINE
  5
3bb
100
AcDbEntity
  8
Layer_1
 62
3
100
AcDbSpline
 70
8
 71
3
 72
8
 73
4
 74
0
 40
0
 40
0
 40
0
 40
0
 40
1
 40
1
 40
1
 40
1
 10
606.297696
 20
-32.622787
 30
0.0
 10
606.212457
 20
-32.724370
 30
0.0
 10
606.090355
 20
-32.787933
 30
0.0
 10
605.958251
 20
-32.799490
 30
0.0
  0
LINE
  5
3bc
100
AcDbEntity
  8
Layer_1
 62
3
100
AcDbLine
 10
605.958251
 20
-32.799490
 30
0.0
 11
593.007716
 21
-33.932514
 31
0.0
  0
SPLINE
  5
3bd
100
AcDbEntity
  8
Layer_1
 62
3
100
AcDbSpline
 70
8
 71
3
 72
8
 73
4
 74
0
 40
0
 40
0
 40
0
 40
0
 40
1
 40
1
 40
1
 40
1
 10
593.007716
 20
-33.932514
 30
0.0
 10
592.875612
 20
-33.944072
 30
0.0
 10
592.744328
 20
-33.902678
 30
0.0
 10
592.642744
 20
-33.817439
 30
0.0
  0
SPLINE
  5
3be
100
AcDbEntity
  8
Layer_1
 62
3
100
AcDbSpline
 70
8
 71
3
 72
8
 73
4
 74
0
 40
0
 40
0
 40
0
 40
0
 40
1
 40
1
 40
1
 40
1
 10
592.642744
 20
-33.817439
 30
0.0
 10
592.541161
 20
-33.732200
 30
0.0
 10
592.477598
 20
-33.610098
 30
0.0
 10
592.466041
 20
-33.477995
 30
0.0
  0
LINE
  5
3bf
100
AcDbEntity
  8
Layer_1
 62
3
100
AcDbLine
 10
592.466041
 20
-33.477995
 30
0.0
 11
591.333017
 21
-20.527460
 31
0.0
  0
SPLINE
  5
3c0
100
AcDbEntity
  8
Layer_1
 62
3
100
AcDbSpline
 70
8
 71
3
 72
8
 73
4
 74
0
 40
0
 40
0
 40
0
 40
0
 40
1
 40
1
 40
1
 40
1
 10
591.333017
 20
-20.527460
 30
0.0
 10
591.321459
 20
-20.395356
 30
0.0
 10
591.362853
 20
-20.264072
 30
0.0
 10
591.448092
 20
-20.162488
 30
0.0
  0
SPLINE
  5
3c1
100
AcDbEntity
  8
Layer_1
 62
3
100
AcDbSpline
 70
8
 71
3
 72
8
 73
4
 74
0
 40
0
 40
0
 40
0
 40
0
 40
1
 40
1
 40
1
 40
1
 10
591.448092
 20
-20.162488
 30
0.0
 10
591.533331
 20
-20.060904
 30
0.0
 10
591.655433
 20
-19.997342
 30
0.0
 10
591.787536
 20
-19.985784
 30
0.0
  0
LINE
  5
3c2
100
AcDbEntity
  8
Layer_1
 62
3
100
AcDbLine
 10
591.787536
 20
-19.985784
 30
0.0
 11
591.787536
 21
-19.985784
 31
0.0
  0
LINE
  5
3c3
100
AcDbEntity
  8
Layer_1
 62
3
100
AcDbLine
 10
572.810022
 20
-21.646100
 30
0.0
 11
585.760557
 21
-20.513076
 31
0.0
  0
SPLINE
  5
3c4
100
AcDbEntity
  8
Layer_1
 62
3
100
AcDbSpline
 70
8
 71
3
 72
8
 73
4
 74
0
 40
0
 40
0
 40
0
 40
0
 40
1
 40
1
 40
1
 40
1
 10
585.760557
 20
-20.513076
 30
0.0
 10
585.892660
 20
-20.501519
 30
0.0
 10
586.023945
 20
-20.542912
 30
0.0
 10
586.125528
 20
-20.628151
 30
0.0
  0
SPLINE
  5
3c5
100
AcDbEntity
  8
Layer_1
 62
3
100
AcDbSpline
 70
8
 71
3
 72
8
 73
4
 74
0
 40
0
 40
0
 40
0
 40
0
 40
1
 40
1
 40
1
 40
1
 10
586.125528
 20
-20.628151
 30
0.0
 10
586.227112
 20
-20.713390
 30
0.0
 10
586.290674
 20
-20.835492
 30
0.0
 10
586.302232
 20
-20.967596
 30
0.0
  0
LINE
  5
3c6
100
AcDbEntity
  8
Layer_1
 62
3
100
AcDbLine
 10
586.302232
 20
-20.967596
 30
0.0
 11
587.435256
 21
-33.918131
 31
0.0
  0
SPLINE
  5
3c7
100
AcDbEntity
  8
Layer_1
 62
3
100
AcDbSpline
 70
8
 71
3
 72
8
 73
4
 74
0
 40
0
 40
0
 40
0
 40
0
 40
1
 40
1
 40
1
 40
1
 10
587.435256
 20
-33.918131
 30
0.0
 10
587.446814
 20
-34.050235
 30
0.0
 10
587.405420
 20
-34.181519
 30
0.0
 10
587.320181
 20
-34.283103
 30
0.0
  0
SPLINE
  5
3c8
100
AcDbEntity
  8
Layer_1
 62
3
100
AcDbSpline
 70
8
 71
3
 72
8
 73
4
 74
0
 40
0
 40
0
 40
0
 40
0
 40
1
 40
1
 40
1
 40
1
 10
587.320181
 20
-34.283103
 30
0.0
 10
587.234942
 20
-34.384686
 30
0.0
 10
587.112840
 20
-34.448249
 30
0.0
 10
586.980736
 20
-34.459806
 30
0.0
  0
LINE
  5
3c9
100
AcDbEntity
  8
Layer_1
 62
3
100
AcDbLine
 10
586.980736
 20
-34.459806
 30
0.0
 11
574.030201
 21
-35.592830
 31
0.0
  0
SPLINE
  5
3ca
100
AcDbEntity
  8
Layer_1
 62
3
100
AcDbSpline
 70
8
 71
3
 72
8
 73
4
 74
0
 40
0
 40
0
 40
0
 40
0
 40
1
 40
1
 40
1
 40
1
 10
574.030201
 20
-35.592830
 30
0.0
 10
573.898098
 20
-35.604388
 30
0.0
 10
573.766813
 20
-35.562994
 30
0.0
 10
573.665230
 20
-35.477755
 30
0.0
  0
SPLINE
  5
3cb
100
AcDbEntity
  8
Layer_1
 62
3
100
AcDbSpline
 70
8
 71
3
 72
8
 73
4
 74
0
 40
0
 40
0
 40
0
 40
0
 40
1
 40
1
 40
1
 40
1
 10
573.665230
 20
-35.477755
 30
0.0
 10
573.563646
 20
-35.392516
 30
0.0
 10
573.500084
 20
-35.270414
 30
0.0
 10
573.488526
 20
-35.138311
 30
0.0
  0
LINE
  5
3cc
100
AcDbEntity
  8
Layer_1
 62
3
100
AcDbLine
 10
573.488526
 20
-35.138311
 30
0.0
 11
572.355502
 21
-22.187776
 31
0.0
  0
SPLINE
  5
3cd
100
AcDbEntity
  8
Layer_1
 62
3
100
AcDbSpline
 70
8
 71
3
 72
8
 73
4
 74
0
 40
0
 40
0
 40
0
 40
0
 40
1
 40
1
 40
1
 40
1
 10
572.355502
 20
-22.187776
 30
0.0
 10
572.343944
 20
-22.055672
 30
0.0
 10
572.385338
 20
-21.924388
 30
0.0
 10
572.470577
 20
-21.822804
 30
0.0
  0
SPLINE
  5
3ce
100
AcDbEntity
  8
Layer_1
 62
3
100
AcDbSpline
 70
8
 71
3
 72
8
 73
4
 74
0
 40
0
 40
0
 40
0
 40
0
 40
1
 40
1
 40
1
 40
1
 10
572.470577
 20
-21.822804
 30
0.0
 10
572.555816
 20
-21.721220
 30
0.0
 10
572.677918
 20
-21.657658
 30
0.0
 10
572.810022
 20
-21.646100
 30
0.0
  0
LINE
  5
3cf
100
AcDbEntity
  8
Layer_1
 62
3
100
AcDbLine
 10
572.810022
 20
-21.646100
 30
0.0
 11
572.810022
 21
-21.646100
 31
0.0
  0
LINE
  5
3d0
100
AcDbEntity
  8
Layer_1
 62
3
100
AcDbLine
 10
623.338369
 20
1.897327
 30
0.0
 11
636.288904
 21
3.030351
 31
0.0
  0
SPLINE
  5
3d1
100
AcDbEntity
  8
Layer_1
 62
3
100
AcDbSpline
 70
8
 71
3
 72
8
 73
4
 74
0
 40
0
 40
0
 40
0
 40
0
 40
1
 40
1
 40
1
 40
1
 10
636.288904
 20
3.030351
 30
0.0
 10
636.421008
 20
3.041909
 30
0.0
 10
636.552292
 20
3.000515
 30
0.0
 10
636.653876
 20
2.915276
 30
0.0
  0
SPLINE
  5
3d2
100
AcDbEntity
  8
Layer_1
 62
3
100
AcDbSpline
 70
8
 71
3
 72
8
 73
4
 74
0
 40
0
 40
0
 40
0
 40
0
 40
1
 40
1
 40
1
 40
1
 10
636.653876
 20
2.915276
 30
0.0
 10
636.755460
 20
2.830037
 30
0.0
 10
636.819022
 20
2.707935
 30
0.0
 10
636.830580
 20
2.575832
 30
0.0
  0
LINE
  5
3d3
100
AcDbEntity
  8
Layer_1
 62
3
100
AcDbLine
 10
636.830580
 20
2.575832
 30
0.0
 11
637.963604
 21
-10.374703
 31
0.0
  0
SPLINE
  5
3d4
100
AcDbEntity
  8
Layer_1
 62
3
100
AcDbSpline
 70
8
 71
3
 72
8
 73
4
 74
0
 40
0
 40
0
 40
0
 40
0
 40
1
 40
1
 40
1
 40
1
 10
637.963604
 20
-10.374703
 30
0.0
 10
637.975161
 20
-10.506807
 30
0.0
 10
637.933767
 20
-10.638091
 30
0.0
 10
637.848528
 20
-10.739675
 30
0.0
  0
SPLINE
  5
3d5
100
AcDbEntity
  8
Layer_1
 62
3
100
AcDbSpline
 70
8
 71
3
 72
8
 73
4
 74
0
 40
0
 40
0
 40
0
 40
0
 40
1
 40
1
 40
1
 40
1
 10
637.848528
 20
-10.739675
 30
0.0
 10
637.763289
 20
-10.841259
 30
0.0
 10
637.641188
 20
-10.904821
 30
0.0
 10
637.509084
 20
-10.916379
 30
0.0
  0
LINE
  5
3d6
100
AcDbEntity
  8
Layer_1
 62
3
100
AcDbLine
 10
637.509084
 20
-10.916379
 30
0.0
 11
624.558549
 21
-12.049403
 31
0.0
  0
SPLINE
  5
3d7
100
AcDbEntity
  8
Layer_1
 62
3
100
AcDbSpline
 70
8
 71
3
 72
8
 73
4
 74
0
 40
0
 40
0
 40
0
 40
0
 40
1
 40
1
 40
1
 40
1
 10
624.558549
 20
-12.049403
 30
0.0
 10
624.426445
 20
-12.060960
 30
0.0
 10
624.295161
 20
-12.019567
 30
0.0
 10
624.193577
 20
-11.934328
 30
0.0
  0
SPLINE
  5
3d8
100
AcDbEntity
  8
Layer_1
 62
3
100
AcDbSpline
 70
8
 71
3
 72
8
 73
4
 74
0
 40
0
 40
0
 40
0
 40
0
 40
1
 40
1
 40
1
 40
1
 10
624.193577
 20
-11.934328
 30
0.0
 10
624.091993
 20
-11.849089
 30
0.0
 10
624.028431
 20
-11.726987
 30
0.0
 10
624.016874
 20
-11.594883
 30
0.0
  0
LINE
  5
3d9
100
AcDbEntity
  8
Layer_1
 62
3
100
AcDbLine
 10
624.016874
 20
-11.594883
 30
0.0
 11
622.883850
 21
1.355652
 31
0.0
  0
SPLINE
  5
3da
100
AcDbEntity
  8
Layer_1
 62
3
100
AcDbSpline
 70
8
 71
3
 72
8
 73
4
 74
0
 40
0
 40
0
 40
0
 40
0
 40
1
 40
1
 40
1
 40
1
 10
622.883850
 20
1.355652
 30
0.0
 10
622.872292
 20
1.487756
 30
0.0
 10
622.913686
 20
1.619040
 30
0.0
 10
622.998925
 20
1.720624
 30
0.0
  0
SPLINE
  5
3db
100
AcDbEntity
  8
Layer_1
 62
3
100
AcDbSpline
 70
8
 71
3
 72
8
 73
4
 74
0
 40
0
 40
0
 40
0
 40
0
 40
1
 40
1
 40
1
 40
1
 10
622.998925
 20
1.720624
 30
0.0
 10
623.084164
 20
1.822208
 30
0.0
 10
623.206266
 20
1.885770
 30
0.0
 10
623.338369
 20
1.897327
 30
0.0
  0
LINE
  5
3dc
100
AcDbEntity
  8
Layer_1
 62
3
100
AcDbLine
 10
623.338369
 20
1.897327
 30
0.0
 11
623.338369
 21
1.897327
 31
0.0
  0
LINE
  5
3dd
100
AcDbEntity
  8
Layer_1
 62
7
100
AcDbLine
 10
587.536432
 20
-59.105548
 30
0.0
 11
587.902393
 21
-63.288501
 31
0.0
  0
LINE
  5
3de
100
AcDbEntity
  8
Layer_1
 62
7
100
AcDbLine
 10
587.902393
 20
-63.288501
 30
0.0
 11
586.381562
 21
-63.421557
 31
0.0
  0
LINE
  5
3df
100
AcDbEntity
  8
Layer_1
 62
7
100
AcDbLine
 10
586.381562
 20
-63.421557
 30
0.0
 11
586.100161
 21
-60.205132
 31
0.0
  0
LINE
  5
3e0
100
AcDbEntity
  8
Layer_1
 62
7
100
AcDbLine
 10
586.100161
 20
-60.205132
 30
0.0
 11
579.376373
 21
-60.793387
 31
0.0
  0
LINE
  5
3e1
100
AcDbEntity
  8
Layer_1
 62
7
100
AcDbLine
 10
579.376373
 20
-60.793387
 30
0.0
 11
579.657773
 21
-64.009811
 31
0.0
  0
LINE
  5
3e2
100
AcDbEntity
  8
Layer_1
 62
7
100
AcDbLine
 10
579.657773
 20
-64.009811
 30
0.0
 11
578.835414
 21
-64.081758
 31
0.0
  0
LINE
  5
3e3
100
AcDbEntity
  8
Layer_1
 62
7
100
AcDbLine
 10
578.835414
 20
-64.081758
 30
0.0
 11
579.079481
 21
-66.871453
 31
0.0
  0
LINE
  5
3e4
100
AcDbEntity
  8
Layer_1
 62
7
100
AcDbLine
 10
579.079481
 20
-66.871453
 30
0.0
 11
579.901840
 21
-66.799506
 31
0.0
  0
LINE
  5
3e5
100
AcDbEntity
  8
Layer_1
 62
7
100
AcDbLine
 10
579.901840
 20
-66.799506
 30
0.0
 11
580.448292
 21
-73.045489
 31
0.0
  0
LINE
  5
3e6
100
AcDbEntity
  8
Layer_1
 62
7
100
AcDbLine
 10
580.448292
 20
-73.045489
 30
0.0
 11
582.166758
 21
-72.895143
 31
0.0
  0
LINE
  5
3e7
100
AcDbEntity
  8
Layer_1
 62
7
100
AcDbLine
 10
582.166758
 20
-72.895143
 30
0.0
 11
582.271381
 21
-74.090985
 31
0.0
  0
LINE
  5
3e8
100
AcDbEntity
  8
Layer_1
 62
7
100
AcDbLine
 10
582.271381
 20
-74.090985
 30
0.0
 11
585.558177
 21
-73.803428
 31
0.0
  0
LINE
  5
3e9
100
AcDbEntity
  8
Layer_1
 62
7
100
AcDbLine
 10
585.558177
 20
-73.803428
 30
0.0
 11
585.453554
 21
-72.607586
 31
0.0
  0
LINE
  5
3ea
100
AcDbEntity
  8
Layer_1
 62
7
100
AcDbLine
 10
585.453554
 20
-72.607586
 30
0.0
 11
587.172080
 21
-72.457234
 31
0.0
  0
LINE
  5
3eb
100
AcDbEntity
  8
Layer_1
 62
7
100
AcDbLine
 10
587.172080
 20
-72.457234
 30
0.0
 11
586.782597
 21
-68.005418
 31
0.0
  0
LINE
  5
3ec
100
AcDbEntity
  8
Layer_1
 62
7
100
AcDbLine
 10
586.782597
 20
-68.005418
 30
0.0
 11
588.303428
 21
-67.872363
 31
0.0
  0
LINE
  5
3ed
100
AcDbEntity
  8
Layer_1
 62
7
100
AcDbLine
 10
588.303428
 20
-67.872363
 30
0.0
 11
588.669390
 21
-72.055326
 31
0.0
  0
SPLINE
  5
3ee
100
AcDbEntity
  8
Layer_1
 62
7
100
AcDbSpline
 70
8
 71
3
 72
8
 73
4
 74
0
 40
0
 40
0
 40
0
 40
0
 40
1
 40
1
 40
1
 40
1
 10
587.535485
 20
-59.105400
 30
0.0
 10
587.523928
 20
-58.973295
 30
0.0
 10
587.565343
 20
-58.842005
 30
0.0
 10
587.650564
 20
-58.740431
 30
0.0
  0
LINE
  5
3ef
100
AcDbEntity
  8
Layer_1
 62
7
100
AcDbLine
 10
589.211130
 20
-72.509900
 30
0.0
 11
602.160649
 21
-71.376965
 31
0.0
  0
SPLINE
  5
3f0
100
AcDbEntity
  8
Layer_1
 62
7
100
AcDbSpline
 70
8
 71
3
 72
8
 73
4
 74
0
 40
0
 40
0
 40
0
 40
0
 40
1
 40
1
 40
1
 40
1
 10
602.614196
 20
-70.835304
 30
0.0
 10
602.638264
 20
-71.110394
 30
0.0
 10
602.434775
 20
-71.352902
 30
0.0
 10
602.159687
 20
-71.376979
 30
0.0
  0
SPLINE
  5
3f1
100
AcDbEntity
  8
Layer_1
 62
7
100
AcDbSpline
 70
8
 71
3
 72
8
 73
4
 74
0
 40
0
 40
0
 40
0
 40
0
 40
1
 40
1
 40
1
 40
1
 10
589.210148
 20
-72.509916
 30
0.0
 10
589.078042
 20
-72.521474
 30
0.0
 10
588.946753
 20
-72.480059
 30
0.0
 10
588.845170
 20
-72.394848
 30
0.0
  0
SPLINE
  5
3f2
100
AcDbEntity
  8
Layer_1
 62
7
100
AcDbSpline
 70
8
 71
3
 72
8
 73
4
 74
0
 40
0
 40
0
 40
0
 40
0
 40
1
 40
1
 40
1
 40
1
 10
588.845170
 20
-72.394848
 30
0.0
 10
588.743552
 20
-72.309580
 30
0.0
 10
588.680020
 20
-72.187502
 30
0.0
 10
588.668463
 20
-72.055397
 30
0.0
  0
LINE
  5
3f3
100
AcDbEntity
  8
Layer_1
 62
7
100
AcDbLine
 10
602.615233
 20
-70.835224
 30
0.0
 11
602.249272
 21
-66.652261
 31
0.0
  0
LINE
  5
3f4
100
AcDbEntity
  8
Layer_1
 62
7
100
AcDbLine
 10
602.249272
 20
-66.652261
 30
0.0
 11
603.767473
 21
-66.519435
 31
0.0
  0
LINE
  5
3f5
100
AcDbEntity
  8
Layer_1
 62
7
100
AcDbLine
 10
603.767473
 20
-66.519435
 30
0.0
 11
604.156956
 21
-70.971252
 31
0.0
  0
LINE
  5
3f6
100
AcDbEntity
  8
Layer_1
 62
7
100
AcDbLine
 10
604.156956
 20
-70.971252
 30
0.0
 11
605.875472
 21
-70.820901
 31
0.0
  0
LINE
  5
3f7
100
AcDbEntity
  8
Layer_1
 62
7
100
AcDbLine
 10
605.875472
 20
-70.820901
 30
0.0
 11
605.980095
 21
-72.016743
 31
0.0
  0
LINE
  5
3f8
100
AcDbEntity
  8
Layer_1
 62
7
100
AcDbLine
 10
605.980095
 20
-72.016743
 30
0.0
 11
609.266891
 21
-71.729186
 31
0.0
  0
LINE
  5
3f9
100
AcDbEntity
  8
Layer_1
 62
7
100
AcDbLine
 10
609.266891
 20
-71.729186
 30
0.0
 11
609.162268
 21
-70.533344
 31
0.0
  0
LINE
  5
3fa
100
AcDbEntity
  8
Layer_1
 62
7
100
AcDbLine
 10
609.162268
 20
-70.533344
 30
0.0
 11
610.880794
 21
-70.382992
 31
0.0
  0
LINE
  5
3fb
100
AcDbEntity
  8
Layer_1
 62
7
100
AcDbLine
 10
610.880794
 20
-70.382992
 30
0.0
 11
610.334342
 21
-64.137009
 31
0.0
  0
LINE
  5
3fc
100
AcDbEntity
  8
Layer_1
 62
7
100
AcDbLine
 10
610.334342
 20
-64.137009
 30
0.0
 11
611.156701
 21
-64.065062
 31
0.0
  0
LINE
  5
3fd
100
AcDbEntity
  8
Layer_1
 62
7
100
AcDbLine
 10
611.156701
 20
-64.065062
 30
0.0
 11
610.912634
 21
-61.275367
 31
0.0
  0
LINE
  5
3fe
100
AcDbEntity
  8
Layer_1
 62
7
100
AcDbLine
 10
610.912634
 20
-61.275367
 30
0.0
 11
610.090275
 21
-61.347314
 31
0.0
  0
LINE
  5
3ff
100
AcDbEntity
  8
Layer_1
 62
7
100
AcDbLine
 10
610.090275
 20
-61.347314
 30
0.0
 11
609.808875
 21
-58.130890
 31
0.0
  0
LINE
  5
400
100
AcDbEntity
  8
Layer_1
 62
7
100
AcDbLine
 10
609.808875
 20
-58.130890
 30
0.0
 11
603.085037
 21
-58.719149
 31
0.0
  0
LINE
  5
401
100
AcDbEntity
  8
Layer_1
 62
7
100
AcDbLine
 10
603.085037
 20
-58.719149
 30
0.0
 11
603.366437
 21
-61.935574
 31
0.0
  0
LINE
  5
402
100
AcDbEntity
  8
Layer_1
 62
7
100
AcDbLine
 10
603.366437
 20
-61.935574
 30
0.0
 11
601.848236
 21
-62.068399
 31
0.0
  0
LINE
  5
403
100
AcDbEntity
  8
Layer_1
 62
7
100
AcDbLine
 10
601.848236
 20
-62.068399
 30
0.0
 11
601.482275
 21
-57.885446
 31
0.0
  0
SPLINE
  5
404
100
AcDbEntity
  8
Layer_1
 62
7
100
AcDbSpline
 70
8
 71
3
 72
8
 73
4
 74
0
 40
0
 40
0
 40
0
 40
0
 40
1
 40
1
 40
1
 40
1
 10
600.939554
 20
-57.430787
 30
0.0
 10
601.214644
 20
-57.406730
 30
0.0
 10
601.457152
 20
-57.610218
 30
0.0
 10
601.481219
 20
-57.885307
 30
0.0
  0
LINE
  5
405
100
AcDbEntity
  8
Layer_1
 62
7
100
AcDbLine
 10
600.940524
 20
-57.430863
 30
0.0
 11
587.990510
 21
-58.563761
 31
0.0
  0
SPLINE
  5
406
100
AcDbEntity
  8
Layer_1
 62
7
100
AcDbSpline
 70
8
 71
3
 72
8
 73
4
 74
0
 40
0
 40
0
 40
0
 40
0
 40
1
 40
1
 40
1
 40
1
 10
587.990510
 20
-58.563761
 30
0.0
 10
587.857910
 20
-58.575281
 30
0.0
 10
587.735835
 20
-58.638843
 30
0.0
 10
587.650564
 20
-58.740431
 30
0.0
  0
LINE
  5
407
100
AcDbEntity
  8
Layer_1
 62
7
100
AcDbLine
 10
461.252732
 20
-70.626352
 30
0.0
 11
461.618693
 21
-66.443399
 31
0.0
  0
LINE
  5
408
100
AcDbEntity
  8
Layer_1
 62
7
100
AcDbLine
 10
461.618693
 20
-66.443399
 30
0.0
 11
460.097862
 21
-66.310343
 31
0.0
  0
LINE
  5
409
100
AcDbEntity
  8
Layer_1
 62
7
100
AcDbLine
 10
460.097862
 20
-66.310343
 30
0.0
 11
459.816461
 21
-69.526768
 31
0.0
  0
LINE
  5
40a
100
AcDbEntity
  8
Layer_1
 62
7
100
AcDbLine
 10
459.816461
 20
-69.526768
 30
0.0
 11
453.092673
 21
-68.938513
 31
0.0
  0
LINE
  5
40b
100
AcDbEntity
  8
Layer_1
 62
7
100
AcDbLine
 10
453.092673
 20
-68.938513
 30
0.0
 11
453.374073
 21
-65.722089
 31
0.0
  0
LINE
  5
40c
100
AcDbEntity
  8
Layer_1
 62
7
100
AcDbLine
 10
453.374073
 20
-65.722089
 30
0.0
 11
452.551714
 21
-65.650142
 31
0.0
  0
LINE
  5
40d
100
AcDbEntity
  8
Layer_1
 62
7
100
AcDbLine
 10
452.551714
 20
-65.650142
 30
0.0
 11
452.795781
 21
-62.860447
 31
0.0
  0
LINE
  5
40e
100
AcDbEntity
  8
Layer_1
 62
7
100
AcDbLine
 10
452.795781
 20
-62.860447
 30
0.0
 11
453.618140
 21
-62.932394
 31
0.0
  0
LINE
  5
40f
100
AcDbEntity
  8
Layer_1
 62
7
100
AcDbLine
 10
453.618140
 20
-62.932394
 30
0.0
 11
454.164592
 21
-56.686411
 31
0.0
  0
LINE
  5
410
100
AcDbEntity
  8
Layer_1
 62
7
100
AcDbLine
 10
454.164592
 20
-56.686411
 30
0.0
 11
455.883058
 21
-56.836757
 31
0.0
  0
LINE
  5
411
100
AcDbEntity
  8
Layer_1
 62
7
100
AcDbLine
 10
455.883058
 20
-56.836757
 30
0.0
 11
455.987681
 21
-55.640915
 31
0.0
  0
LINE
  5
412
100
AcDbEntity
  8
Layer_1
 62
7
100
AcDbLine
 10
455.987681
 20
-55.640915
 30
0.0
 11
459.274477
 21
-55.928472
 31
0.0
  0
LINE
  5
413
100
AcDbEntity
  8
Layer_1
 62
7
100
AcDbLine
 10
459.274477
 20
-55.928472
 30
0.0
 11
459.169854
 21
-57.124314
 31
0.0
  0
LINE
  5
414
100
AcDbEntity
  8
Layer_1
 62
7
100
AcDbLine
 10
459.169854
 20
-57.124314
 30
0.0
 11
460.888380
 21
-57.274666
 31
0.0
  0
LINE
  5
415
100
AcDbEntity
  8
Layer_1
 62
7
100
AcDbLine
 10
460.888380
 20
-57.274666
 30
0.0
 11
460.498897
 21
-61.726482
 31
0.0
  0
LINE
  5
416
100
AcDbEntity
  8
Layer_1
 62
7
100
AcDbLine
 10
460.498897
 20
-61.726482
 30
0.0
 11
462.019728
 21
-61.859537
 31
0.0
  0
LINE
  5
417
100
AcDbEntity
  8
Layer_1
 62
7
100
AcDbLine
 10
462.019728
 20
-61.859537
 30
0.0
 11
462.385690
 21
-57.676574
 31
0.0
  0
SPLINE
  5
418
100
AcDbEntity
  8
Layer_1
 62
7
100
AcDbSpline
 70
8
 71
3
 72
8
 73
4
 74
0
 40
0
 40
0
 40
0
 40
0
 40
1
 40
1
 40
1
 40
1
 10
461.251785
 20
-70.626500
 30
0.0
 10
461.240228
 20
-70.758605
 30
0.0
 10
461.281643
 20
-70.889895
 30
0.0
 10
461.366864
 20
-70.991469
 30
0.0
  0
SPLINE
  5
419
100
AcDbEntity
  8
Layer_1
 62
7
100
AcDbSpline
 70
8
 71
3
 72
8
 73
4
 74
0
 40
0
 40
0
 40
0
 40
0
 40
1
 40
1
 40
1
 40
1
 10
461.366864
 20
-70.991469
 30
0.0
 10
461.452132
 20
-71.093087
 30
0.0
 10
461.574210
 20
-71.156619
 30
0.0
 10
461.706315
 20
-71.168176
 30
0.0
  0
LINE
  5
41a
100
AcDbEntity
  8
Layer_1
 62
7
100
AcDbLine
 10
462.927430
 20
-57.222000
 30
0.0
 11
475.876949
 21
-58.354935
 31
0.0
  0
SPLINE
  5
41b
100
AcDbEntity
  8
Layer_1
 62
7
100
AcDbSpline
 70
8
 71
3
 72
8
 73
4
 74
0
 40
0
 40
0
 40
0
 40
0
 40
1
 40
1
 40
1
 40
1
 10
476.330496
 20
-58.896596
 30
0.0
 10
476.354564
 20
-58.621506
 30
0.0
 10
476.151075
 20
-58.378998
 30
0.0
 10
475.875987
 20
-58.354921
 30
0.0
  0
SPLINE
  5
41c
100
AcDbEntity
  8
Layer_1
 62
7
100
AcDbSpline
 70
8
 71
3
 72
8
 73
4
 74
0
 40
0
 40
0
 40
0
 40
0
 40
1
 40
1
 40
1
 40
1
 10
462.926448
 20
-57.221984
 30
0.0
 10
462.794342
 20
-57.210426
 30
0.0
 10
462.663053
 20
-57.251841
 30
0.0
 10
462.561470
 20
-57.337052
 30
0.0
  0
SPLINE
  5
41d
100
AcDbEntity
  8
Layer_1
 62
7
100
AcDbSpline
 70
8
 71
3
 72
8
 73
4
 74
0
 40
0
 40
0
 40
0
 40
0
 40
1
 40
1
 40
1
 40
1
 10
462.561470
 20
-57.337052
 30
0.0
 10
462.459852
 20
-57.422320
 30
0.0
 10
462.396320
 20
-57.544398
 30
0.0
 10
462.384763
 20
-57.676503
 30
0.0
  0
LINE
  5
41e
100
AcDbEntity
  8
Layer_1
 62
7
100
AcDbLine
 10
476.331533
 20
-58.896676
 30
0.0
 11
475.965572
 21
-63.079639
 31
0.0
  0
LINE
  5
41f
100
AcDbEntity
  8
Layer_1
 62
7
100
AcDbLine
 10
475.965572
 20
-63.079639
 30
0.0
 11
477.483773
 21
-63.212465
 31
0.0
  0
LINE
  5
420
100
AcDbEntity
  8
Layer_1
 62
7
100
AcDbLine
 10
477.483773
 20
-63.212465
 30
0.0
 11
477.873256
 21
-58.760648
 31
0.0
  0
LINE
  5
421
100
AcDbEntity
  8
Layer_1
 62
7
100
AcDbLine
 10
477.873256
 20
-58.760648
 30
0.0
 11
479.591772
 21
-58.910999
 31
0.0
  0
LINE
  5
422
100
AcDbEntity
  8
Layer_1
 62
7
100
AcDbLine
 10
479.591772
 20
-58.910999
 30
0.0
 11
479.696395
 21
-57.715157
 31
0.0
  0
LINE
  5
423
100
AcDbEntity
  8
Layer_1
 62
7
100
AcDbLine
 10
479.696395
 20
-57.715157
 30
0.0
 11
482.983191
 21
-58.002714
 31
0.0
  0
LINE
  5
424
100
AcDbEntity
  8
Layer_1
 62
7
100
AcDbLine
 10
482.983191
 20
-58.002714
 30
0.0
 11
482.878568
 21
-59.198556
 31
0.0
  0
LINE
  5
425
100
AcDbEntity
  8
Layer_1
 62
7
100
AcDbLine
 10
482.878568
 20
-59.198556
 30
0.0
 11
484.597094
 21
-59.348908
 31
0.0
  0
LINE
  5
426
100
AcDbEntity
  8
Layer_1
 62
7
100
AcDbLine
 10
484.597094
 20
-59.348908
 30
0.0
 11
484.050642
 21
-65.594891
 31
0.0
  0
LINE
  5
427
100
AcDbEntity
  8
Layer_1
 62
7
100
AcDbLine
 10
484.050642
 20
-65.594891
 30
0.0
 11
484.873001
 21
-65.666838
 31
0.0
  0
LINE
  5
428
100
AcDbEntity
  8
Layer_1
 62
7
100
AcDbLine
 10
484.873001
 20
-65.666838
 30
0.0
 11
484.628934
 21
-68.456533
 31
0.0
  0
LINE
  5
429
100
AcDbEntity
  8
Layer_1
 62
7
100
AcDbLine
 10
484.628934
 20
-68.456533
 30
0.0
 11
483.806575
 21
-68.384586
 31
0.0
  0
LINE
  5
42a
100
AcDbEntity
  8
Layer_1
 62
7
100
AcDbLine
 10
483.806575
 20
-68.384586
 30
0.0
 11
483.525175
 21
-71.601010
 31
0.0
  0
LINE
  5
42b
100
AcDbEntity
  8
Layer_1
 62
7
100
AcDbLine
 10
483.525175
 20
-71.601010
 30
0.0
 11
476.801337
 21
-71.012751
 31
0.0
  0
LINE
  5
42c
100
AcDbEntity
  8
Layer_1
 62
7
100
AcDbLine
 10
476.801337
 20
-71.012751
 30
0.0
 11
477.082737
 21
-67.796326
 31
0.0
  0
LINE
  5
42d
100
AcDbEntity
  8
Layer_1
 62
7
100
AcDbLine
 10
477.082737
 20
-67.796326
 30
0.0
 11
475.564536
 21
-67.663501
 31
0.0
  0
LINE
  5
42e
100
AcDbEntity
  8
Layer_1
 62
7
100
AcDbLine
 10
475.564536
 20
-67.663501
 30
0.0
 11
475.198575
 21
-71.846454
 31
0.0
  0
SPLINE
  5
42f
100
AcDbEntity
  8
Layer_1
 62
7
100
AcDbSpline
 70
8
 71
3
 72
8
 73
4
 74
0
 40
0
 40
0
 40
0
 40
0
 40
1
 40
1
 40
1
 40
1
 10
474.655854
 20
-72.301113
 30
0.0
 10
474.930944
 20
-72.325170
 30
0.0
 10
475.173452
 20
-72.121682
 30
0.0
 10
475.197519
 20
-71.846593
 30
0.0
  0
LINE
  5
430
100
AcDbEntity
  8
Layer_1
 62
7
100
AcDbLine
 10
474.656824
 20
-72.301037
 30
0.0
 11
461.707305
 21
-71.168102
 31
0.0
  0
ENDSEC
  0
SECTION
  2
OBJECTS
  0
DICTIONARY
  5
C
330
0
100
AcDbDictionary
  3
ACAD_GROUP
350
D
  3
ACAD_MLINESTYLE
350
17
  0
DICTIONARY
  5
D
330
C
100
AcDbDictionary
  0
DICTIONARY
  5
1A
330
C
100
AcDbDictionary
  0
DICTIONARY
  5
17
330
C
100
AcDbDictionary
  3
STANDARD
350
18
  0
DICTIONARY
  5
19
330
C
100
AcDbDictionary
  0
ENDSEC
  0
EOF
