  0
SECTION
  2
HEADER
  9
$ACADVER
  1
AC1014
  9
$HANDSEED
  5
FFFF
  9
$INSUNITS
 70
     0
  9
$MEASUREMENT
 70
     1
  0
ENDSEC
  0
SECTION
  2
TABLES
  0
TABLE
  2
VPORT
  5
8
330
0
100
AcDbSymbolTable
 70
     4
  0
VPORT
  5
2E
330
8
100
AcDbSymbolTableRecord
100
AcDbViewportTableRecord
  2
*ACTIVE
 70
     0
 10
0.0
 20
0.0
 11
1.0
 21
1.0
 12
210.0
 22
148.5
 13
0.0
 23
0.0
 14
10.0
 24
10.0
 15
10.0
 25
10.0
 16
0.0
 26
0.0
 36
1.0
 17
0.0
 27
0.0
 37
0.0
 40
341.0
 41
1.24
 42
50.0
 43
0.0
 44
0.0
 50
0.0
 51
0.0
 71
     0
 72
   100
 73
     1
 74
     3
 75
     0
 76
     0
 77
     0
 78
     0
  0
ENDTAB
  0
TABLE
  2
LTYPE
  5
5
330
0
100
AcDbSymbolTable
 70
     1
  0
LTYPE
  5
14
330
5
100
AcDbSymbolTableRecord
100
AcDbLinetypeTableRecord
  2
BYBLOCK
 70
     0
  3

 72
    65
 73
     0
 40
0.0
  0
LTYPE
  5
15
330
5
100
AcDbSymbolTableRecord
100
AcDbLinetypeTableRecord
  2
BYLAYER
 70
     0
  3

 72
    65
 73
     0
 40
0.0
  0
LTYPE
  5
16
330
5
100
AcDbSymbolTableRecord
100
AcDbLinetypeTableRecord
  2
CONTINUOUS
 70
     0
  3
Solid line
 72
    65
 73
     0
 40
0.0
  0
ENDTAB
  0
TABLE
  2
LAYER
  5
2
100
AcDbSymbolTable
 70
2
  0
LAYER
  5
50
100
AcDbSymbolTableRecord
100
AcDbLayerTableRecord
  2
0
 70
0
  6
CONTINUOUS
  0
LAYER
  5
51
100
AcDbSymbolTableRecord
100
AcDbLayerTableRecord
  2
Layer_1
 70
0
  6
CONTINUOUS
  0
ENDTAB
  0
TABLE
  2
STYLE
  5
3
330
0
100
AcDbSymbolTable
 70
     1
  0
STYLE
  5
11
330
3
100
AcDbSymbolTableRecord
100
AcDbTextStyleTableRecord
  2
STANDARD
 70
     0
 40
0.0
 41
1.0
 50
0.0
 71
     0
 42
2.5
  3
txt
  4

  0
ENDTAB
  0
TABLE
  2
VIEW
  5
6
330
0
100
AcDbSymbolTable
 70
     0
  0
ENDTAB
  0
TABLE
  2
UCS
  5
7
330
0
100
AcDbSymbolTable
 70
     0
  0
ENDTAB
  0
TABLE
  2
APPID
  5
9
330
0
100
AcDbSymbolTable
 70
     2
  0
APPID
  5
12
330
9
100
AcDbSymbolTableRecord
100
AcDbRegAppTableRecord
  2
ACAD
 70
     0
  0
ENDTAB
  0
TABLE
  2
DIMSTYLE
  5
A
330
0
100
AcDbSymbolTable
 70
     1
  0
DIMSTYLE
105
27
330
A
100
AcDbSymbolTableRecord
100
AcDbDimStyleTableRecord
  2
ISO-25
 70
     0
  3

  4

  5

  6

  7

 40
1.0
 41
2.5
 42
0.625
 43
3.75
 44
1.25
 45
0.0
 46
0.0
 47
0.0
 48
0.0
140
2.5
141
2.5
142
0.0
143
0.03937007874016
144
1.0
145
0.0
146
1.0
147
0.625
 71
     0
 72
     0
 73
     0
 74
     0
 75
     0
 76
     0
 77
     1
 78
     8
170
     0
171
     3
172
     1
173
     0
174
     0
175
     0
176
     0
177
     0
178
     0
270
     2
271
     2
272
     2
273
     2
274
     3
340
11
275
     0
280
     0
281
     0
282
     0
283
     0
284
     8
285
     0
286
     0
287
     3
288
     0
  0
ENDTAB
  0
TABLE
  2
BLOCK_RECORD
  5
1
330
0
100
AcDbSymbolTable
 70
     1
  0
BLOCK_RECORD
  5
1F
330
1
100
AcDbSymbolTableRecord
100
AcDbBlockTableRecord
  2
*MODEL_SPACE
  0
BLOCK_RECORD
  5
1B
330
1
100
AcDbSymbolTableRecord
100
AcDbBlockTableRecord
  2
*PAPER_SPACE
  0
ENDTAB
  0
ENDSEC
  0
SECTION
  2
BLOCKS
  0
BLOCK
  5
20
330
1F
100
AcDbEntity
  8
0
100
AcDbBlockBegin
  2
*MODEL_SPACE
 70
     0
 10
0.0
 20
0.0
 30
0.0
  3
*MODEL_SPACE
  1

  0
ENDBLK
  5
21
330
1F
100
AcDbEntity
  8
0
100
AcDbBlockEnd
  0
BLOCK
  5
1C
330
1B
100
AcDbEntity
 67
     1
  8
0
100
AcDbBlockBegin
  2
*PAPER_SPACE
  1

  0
ENDBLK
  5
1D
330
1B
100
AcDbEntity
 67
     1
  8
0
100
AcDbBlockEnd
  0
ENDSEC
  0
SECTION
  2
ENTITIES
  0
LINE
  5
100
100
AcDbEntity
  8
Layer_1
 62
2
100
AcDbLine
 10
564.270676
 20
-76.943508
 30
0.0
 11
557.456385
 21
0.944194
 31
0.0
  0
SPLINE
  5
101
100
AcDbEntity
  8
Layer_1
 62
2
100
AcDbSpline
 70
8
 71
3
 72
8
 73
4
 74
0
 40
0
 40
0
 40
0
 40
0
 40
1
 40
1
 40
1
 40
1
 10
557.456385
 20
0.944194
 30
0.0
 10
557.404189
 20
1.540781
 30
0.0
 10
556.904678
 20
1.998527
 30
0.0
 10
556.305812
 20
1.998567
 30
0.0
  0
LINE
  5
102
100
AcDbEntity
  8
Layer_1
 62
2
100
AcDbLine
 10
556.305812
 20
1.998567
 30
0.0
 11
542.131161
 21
1.999518
 31
0.0
  0
SPLINE
  5
103
100
AcDbEntity
  8
Layer_1
 62
2
100
AcDbSpline
 70
8
 71
3
 72
8
 73
4
 74
0
 40
0
 40
0
 40
0
 40
0
 40
1
 40
1
 40
1
 40
1
 10
542.131161
 20
1.999518
 30
0.0
 10
541.546643
 20
1.999556
 30
0.0
 10
541.072816
 20
2.473407
 30
0.0
 10
541.072807
 20
3.057924
 30
0.0
  0
LINE
  5
104
100
AcDbEntity
  8
Layer_1
 62
2
100
AcDbLine
 10
541.072807
 20
3.057924
 30
0.0
 11
541.072611
 21
15.792205
 31
0.0
  0
SPLINE
  5
105
100
AcDbEntity
  8
Layer_1
 62
2
100
AcDbSpline
 70
8
 71
3
 72
8
 73
4
 74
0
 40
0
 40
0
 40
0
 40
0
 40
1
 40
1
 40
1
 40
1
 10
541.072611
 20
15.792205
 30
0.0
 10
541.072606
 20
16.072885
 30
0.0
 10
541.184106
 20
16.342070
 30
0.0
 10
541.382580
 20
16.540537
 30
0.0
  0
SPLINE
  5
106
100
AcDbEntity
  8
Layer_1
 62
2
100
AcDbSpline
 70
8
 71
3
 72
8
 73
4
 74
0
 40
0
 40
0
 40
0
 40
0
 40
1
 40
1
 40
1
 40
1
 10
541.382580
 20
16.540537
 30
0.0
 10
541.581055
 20
16.739004
 30
0.0
 10
541.850243
 20
16.850495
 30
0.0
 10
542.130923
 20
16.850480
 30
0.0
  0
LINE
  5
107
100
AcDbEntity
  8
Layer_1
 62
2
100
AcDbLine
 10
542.130923
 20
16.850480
 30
0.0
 11
555.052797
 21
16.849763
 31
0.0
  0
SPLINE
  5
108
100
AcDbEntity
  8
Layer_1
 62
2
100
AcDbSpline
 70
8
 71
3
 72
8
 73
4
 74
0
 40
0
 40
0
 40
0
 40
0
 40
1
 40
1
 40
1
 40
1
 10
555.052797
 20
16.849763
 30
0.0
 10
555.735112
 20
16.849722
 30
0.0
 10
556.394294
 20
17.097107
 30
0.0
 10
556.908112
 20
17.546044
 30
0.0
  0
LINE
  5
109
100
AcDbEntity
  8
Layer_1
 62
2
100
AcDbLine
 10
556.908112
 20
17.546044
 30
0.0
 11
558.250701
 21
18.719122
 31
0.0
  0
SPLINE
  5
10a
100
AcDbEntity
  8
Layer_1
 62
2
100
AcDbSpline
 70
8
 71
3
 72
8
 73
4
 74
0
 40
0
 40
0
 40
0
 40
0
 40
1
 40
1
 40
1
 40
1
 10
558.250701
 20
18.719122
 30
0.0
 10
558.768583
 20
19.171610
 30
0.0
 10
559.416891
 20
19.447770
 30
0.0
 10
560.101985
 20
19.507713
 30
0.0
  0
LINE
  5
10b
100
AcDbEntity
  8
Layer_1
 62
2
100
AcDbLine
 10
560.101985
 20
19.507713
 30
0.0
 11
655.053334
 21
27.815833
 31
0.0
  0
SPLINE
  5
10c
100
AcDbEntity
  8
Layer_1
 62
2
100
AcDbSpline
 70
8
 71
3
 72
8
 73
4
 74
0
 40
0
 40
0
 40
0
 40
0
 40
1
 40
1
 40
1
 40
1
 10
655.053334
 20
27.815833
 30
0.0
 10
655.756201
 20
27.877333
 30
0.0
 10
656.459069
 20
27.938836
 30
0.0
 10
657.161936
 20
28.000342
 30
0.0
  0
LINE
  5
10d
100
AcDbEntity
  8
Layer_1
 62
2
100
AcDbLine
 10
657.161936
 20
28.000342
 30
0.0
 11
674.374092
 21
29.506522
 31
0.0
  0
SPLINE
  5
10e
100
AcDbEntity
  8
Layer_1
 62
2
100
AcDbSpline
 70
8
 71
3
 72
8
 73
4
 74
0
 40
0
 40
0
 40
0
 40
0
 40
1
 40
1
 40
1
 40
1
 10
674.374092
 20
29.506522
 30
0.0
 10
675.076959
 20
29.568026
 30
0.0
 10
675.779827
 20
29.629529
 30
0.0
 10
676.482695
 20
29.691031
 30
0.0
  0
LINE
  5
10f
100
AcDbEntity
  8
Layer_1
 62
2
100
AcDbLine
 10
676.482695
 20
29.691031
 30
0.0
 11
690.675582
 21
30.932958
 31
0.0
  0
SPLINE
  5
110
100
AcDbEntity
  8
Layer_1
 62
2
100
AcDbSpline
 70
8
 71
3
 72
8
 73
4
 74
0
 40
0
 40
0
 40
0
 40
0
 40
1
 40
1
 40
1
 40
1
 10
690.675582
 20
30.932958
 30
0.0
 10
691.355246
 20
30.992429
 30
0.0
 10
692.033389
 20
30.803134
 30
0.0
 10
692.583992
 20
30.400250
 30
0.0
  0
LINE
  5
111
100
AcDbEntity
  8
Layer_1
 62
2
100
AcDbLine
 10
692.583992
 20
30.400250
 30
0.0
 11
694.336987
 21
29.117562
 31
0.0
  0
SPLINE
  5
112
100
AcDbEntity
  8
Layer_1
 62
2
100
AcDbSpline
 70
8
 71
3
 72
8
 73
4
 74
0
 40
0
 40
0
 40
0
 40
0
 40
1
 40
1
 40
1
 40
1
 10
694.336987
 20
29.117562
 30
0.0
 10
694.879766
 20
28.720407
 30
0.0
 10
695.224715
 20
28.108306
 30
0.0
 10
695.283335
 20
27.438302
 30
0.0
  0
LINE
  5
113
100
AcDbEntity
  8
Layer_1
 62
2
100
AcDbLine
 10
695.283335
 20
27.438302
 30
0.0
 11
704.246003
 21
-75.005459
 31
0.0
  0
SPLINE
  5
114
100
AcDbEntity
  8
Layer_1
 62
2
100
AcDbSpline
 70
8
 71
3
 72
8
 73
4
 74
0
 40
0
 40
0
 40
0
 40
0
 40
1
 40
1
 40
1
 40
1
 10
704.246003
 20
-75.005459
 30
0.0
 10
704.304903
 20
-75.678705
 30
0.0
 10
704.085246
 20
-76.346664
 30
0.0
 10
703.638262
 20
-76.853550
 30
0.0
  0
LINE
  5
115
100
AcDbEntity
  8
Layer_1
 62
2
100
AcDbLine
 10
703.638262
 20
-76.853550
 30
0.0
 11
702.098186
 21
-78.600022
 31
0.0
  0
SPLINE
  5
116
100
AcDbEntity
  8
Layer_1
 62
2
100
AcDbSpline
 70
8
 71
3
 72
8
 73
4
 74
0
 40
0
 40
0
 40
0
 40
0
 40
1
 40
1
 40
1
 40
1
 10
702.098186
 20
-78.600022
 30
0.0
 10
701.648826
 20
-79.109605
 30
0.0
 10
701.020734
 20
-79.426899
 30
0.0
 10
700.343919
 20
-79.486229
 30
0.0
  0
LINE
  5
117
100
AcDbEntity
  8
Layer_1
 62
2
100
AcDbLine
 10
700.343919
 20
-79.486229
 30
0.0
 11
684.825509
 21
-80.846925
 31
0.0
  0
SPLINE
  5
118
100
AcDbEntity
  8
Layer_1
 62
2
100
AcDbSpline
 70
8
 71
3
 72
8
 73
4
 74
0
 40
0
 40
0
 40
0
 40
0
 40
1
 40
1
 40
1
 40
1
 10
684.825509
 20
-80.846925
 30
0.0
 10
684.122651
 20
-80.908539
 30
0.0
 10
683.419793
 20
-80.970148
 30
0.0
 10
682.716934
 20
-81.031753
 30
0.0
  0
LINE
  5
119
100
AcDbEntity
  8
Layer_1
 62
2
100
AcDbLine
 10
682.716934
 20
-81.031753
 30
0.0
 11
665.768666
 21
-82.517546
 31
0.0
  0
SPLINE
  5
11a
100
AcDbEntity
  8
Layer_1
 62
2
100
AcDbSpline
 70
8
 71
3
 72
8
 73
4
 74
0
 40
0
 40
0
 40
0
 40
0
 40
1
 40
1
 40
1
 40
1
 10
665.768666
 20
-82.517546
 30
0.0
 10
665.065807
 20
-82.579150
 30
0.0
 10
664.362948
 20
-82.640743
 30
0.0
 10
663.660087
 20
-82.702324
 30
0.0
  0
LINE
  5
11b
100
AcDbEntity
  8
Layer_1
 62
2
100
AcDbLine
 10
663.660087
 20
-82.702324
 30
0.0
 11
569.761918
 21
-90.928994
 31
0.0
  0
SPLINE
  5
11c
100
AcDbEntity
  8
Layer_1
 62
2
100
AcDbSpline
 70
8
 71
3
 72
8
 73
4
 74
0
 40
0
 40
0
 40
0
 40
0
 40
1
 40
1
 40
1
 40
1
 10
569.761918
 20
-90.928994
 30
0.0
 10
569.085426
 20
-90.988261
 30
0.0
 10
568.412237
 20
-90.783509
 30
0.0
 10
567.883310
 20
-90.357611
 30
0.0
  0
LINE
  5
11d
100
AcDbEntity
  8
Layer_1
 62
2
100
AcDbLine
 10
567.883310
 20
-90.357611
 30
0.0
 11
566.083730
 21
-88.908580
 31
0.0
  0
SPLINE
  5
11e
100
AcDbEntity
  8
Layer_1
 62
2
100
AcDbSpline
 70
8
 71
3
 72
8
 73
4
 74
0
 40
0
 40
0
 40
0
 40
0
 40
1
 40
1
 40
1
 40
1
 10
566.083730
 20
-88.908580
 30
0.0
 10
565.550249
 20
-88.479013
 30
0.0
 10
564.886013
 20
-88.244609
 30
0.0
 10
564.201082
 20
-88.244206
 30
0.0
  0
LINE
  5
11f
100
AcDbEntity
  8
Layer_1
 62
2
100
AcDbLine
 10
564.201082
 20
-88.244206
 30
0.0
 11
502.034447
 21
-88.207927
 31
0.0
  0
SPLINE
  5
120
100
AcDbEntity
  8
Layer_1
 62
2
100
AcDbSpline
 70
8
 71
3
 72
8
 73
4
 74
0
 40
0
 40
0
 40
0
 40
0
 40
1
 40
1
 40
1
 40
1
 10
502.034447
 20
-88.207927
 30
0.0
 10
501.349991
 20
-88.207527
 30
0.0
 10
500.686421
 20
-88.443645
 30
0.0
 10
500.156063
 20
-88.876312
 30
0.0
  0
LINE
  5
121
100
AcDbEntity
  8
Layer_1
 62
2
100
AcDbLine
 10
500.156063
 20
-88.876312
 30
0.0
 11
498.363217
 21
-90.338935
 31
0.0
  0
SPLINE
  5
122
100
AcDbEntity
  8
Layer_1
 62
2
100
AcDbSpline
 70
8
 71
3
 72
8
 73
4
 74
0
 40
0
 40
0
 40
0
 40
0
 40
1
 40
1
 40
1
 40
1
 10
498.363217
 20
-90.338935
 30
0.0
 10
497.837425
 20
-90.767878
 30
0.0
 10
497.164876
 20
-90.974467
 30
0.0
 10
496.488952
 20
-90.914659
 30
0.0
  0
LINE
  5
123
100
AcDbEntity
  8
Layer_1
 62
2
100
AcDbLine
 10
496.488952
 20
-90.914659
 30
0.0
 11
475.784366
 21
-89.082661
 31
0.0
  0
SPLINE
  5
124
100
AcDbEntity
  8
Layer_1
 62
2
100
AcDbSpline
 70
8
 71
3
 72
8
 73
4
 74
0
 40
0
 40
0
 40
0
 40
0
 40
1
 40
1
 40
1
 40
1
 10
475.784366
 20
-89.082661
 30
0.0
 10
475.202140
 20
-89.031139
 30
0.0
 10
474.258093
 20
-88.948474
 30
0.0
 10
473.675777
 20
-88.897994
 30
0.0
  0
SPLINE
  5
125
100
AcDbEntity
  8
Layer_1
 62
2
100
AcDbSpline
 70
8
 71
3
 72
8
 73
4
 74
0
 40
0
 40
0
 40
0
 40
0
 40
1
 40
1
 40
1
 40
1
 10
473.675777
 20
-88.897994
 30
0.0
 10
456.355153
 20
-87.396382
 30
0.0
 10
440.341721
 20
-85.989982
 30
0.0
 10
424.472841
 20
-84.597709
 30
0.0
  0
SPLINE
  5
126
100
AcDbEntity
  8
Layer_1
 62
2
100
AcDbSpline
 70
8
 71
3
 72
8
 73
4
 74
0
 40
0
 40
0
 40
0
 40
0
 40
1
 40
1
 40
1
 40
1
 10
424.472841
 20
-84.597709
 30
0.0
 10
423.890573
 20
-84.546622
 30
0.0
 10
422.946538
 20
-84.463865
 30
0.0
 10
422.364266
 20
-84.412850
 30
0.0
  0
LINE
  5
127
100
AcDbEntity
  8
Layer_1
 62
2
100
AcDbLine
 10
422.364266
 20
-84.412850
 30
0.0
 11
406.783912
 21
-83.047983
 31
0.0
  0
SPLINE
  5
128
100
AcDbEntity
  8
Layer_1
 62
2
100
AcDbSpline
 70
8
 71
3
 72
8
 73
4
 74
0
 40
0
 40
0
 40
0
 40
0
 40
1
 40
1
 40
1
 40
1
 10
406.783912
 20
-83.047983
 30
0.0
 10
406.201640
 20
-82.996967
 30
0.0
 10
405.257587
 20
-82.914353
 30
0.0
 10
404.675306
 20
-82.863468
 30
0.0
  0
SPLINE
  5
129
100
AcDbEntity
  8
Layer_1
 62
2
100
AcDbSpline
 70
8
 71
3
 72
8
 73
4
 74
0
 40
0
 40
0
 40
0
 40
0
 40
1
 40
1
 40
1
 40
1
 10
404.675306
 20
-82.863468
 30
0.0
 10
392.133497
 20
-81.767458
 30
0.0
 10
379.393422
 20
-80.660868
 30
0.0
 10
365.888605
 20
-79.505273
 30
0.0
  0
SPLINE
  5
12a
100
AcDbEntity
  8
Layer_1
 62
2
100
AcDbSpline
 70
8
 71
3
 72
8
 73
4
 74
0
 40
0
 40
0
 40
0
 40
0
 40
1
 40
1
 40
1
 40
1
 10
365.888605
 20
-79.505273
 30
0.0
 10
365.306226
 20
-79.455441
 30
0.0
 10
364.519718
 20
-79.060577
 30
0.0
 10
364.131889
 20
-78.623274
 30
0.0
  0
LINE
  5
12b
100
AcDbEntity
  8
Layer_1
 62
2
100
AcDbLine
 10
364.131889
 20
-78.623274
 30
0.0
 11
362.560240
 21
-76.851179
 31
0.0
  0
SPLINE
  5
12c
100
AcDbEntity
  8
Layer_1
 62
2
100
AcDbSpline
 70
8
 71
3
 72
8
 73
4
 74
0
 40
0
 40
0
 40
0
 40
0
 40
1
 40
1
 40
1
 40
1
 10
362.560240
 20
-76.851179
 30
0.0
 10
362.111959
 20
-76.345722
 30
0.0
 10
361.891355
 20
-75.678108
 30
0.0
 10
361.950220
 20
-75.005071
 30
0.0
  0
LINE
  5
12d
100
AcDbEntity
  8
Layer_1
 62
2
100
AcDbLine
 10
361.950220
 20
-75.005071
 30
0.0
 11
370.910556
 21
27.445901
 31
0.0
  0
SPLINE
  5
12e
100
AcDbEntity
  8
Layer_1
 62
2
100
AcDbSpline
 70
8
 71
3
 72
8
 73
4
 74
0
 40
0
 40
0
 40
0
 40
0
 40
1
 40
1
 40
1
 40
1
 10
370.910556
 20
27.445901
 30
0.0
 10
370.969122
 20
28.115522
 30
0.0
 10
371.315505
 20
28.726737
 30
0.0
 10
371.859880
 20
29.121044
 30
0.0
  0
LINE
  5
12f
100
AcDbEntity
  8
Layer_1
 62
2
100
AcDbLine
 10
371.859880
 20
29.121044
 30
0.0
 11
373.639571
 21
30.410140
 31
0.0
  0
SPLINE
  5
130
100
AcDbEntity
  8
Layer_1
 62
2
100
AcDbSpline
 70
8
 71
3
 72
8
 73
4
 74
0
 40
0
 40
0
 40
0
 40
0
 40
1
 40
1
 40
1
 40
1
 10
373.639571
 20
30.410140
 30
0.0
 10
374.192368
 20
30.810551
 30
0.0
 10
374.871005
 20
30.998218
 30
0.0
 10
375.550986
 20
30.938712
 30
0.0
  0
LINE
  5
131
100
AcDbEntity
  8
Layer_1
 62
2
100
AcDbLine
 10
375.550986
 20
30.938712
 30
0.0
 11
506.165162
 21
19.508482
 31
0.0
  0
SPLINE
  5
132
100
AcDbEntity
  8
Layer_1
 62
2
100
AcDbSpline
 70
8
 71
3
 72
8
 73
4
 74
0
 40
0
 40
0
 40
0
 40
0
 40
1
 40
1
 40
1
 40
1
 10
506.165162
 20
19.508482
 30
0.0
 10
506.849921
 20
19.448557
 30
0.0
 10
507.497391
 20
19.170525
 30
0.0
 10
508.012386
 20
18.715260
 30
0.0
  0
LINE
  5
133
100
AcDbEntity
  8
Layer_1
 62
2
100
AcDbLine
 10
508.012386
 20
18.715260
 30
0.0
 11
509.328311
 21
17.551963
 31
0.0
  0
SPLINE
  5
134
100
AcDbEntity
  8
Layer_1
 62
2
100
AcDbSpline
 70
8
 71
3
 72
8
 73
4
 74
0
 40
0
 40
0
 40
0
 40
0
 40
1
 40
1
 40
1
 40
1
 10
509.328311
 20
17.551963
 30
0.0
 10
509.839226
 20
17.100303
 30
0.0
 10
510.497636
 20
16.851007
 30
0.0
 10
511.179567
 20
16.851014
 30
0.0
  0
LINE
  5
135
100
AcDbEntity
  8
Layer_1
 62
2
100
AcDbLine
 10
511.179567
 20
16.851014
 30
0.0
 11
524.121694
 21
16.851155
 31
0.0
  0
SPLINE
  5
136
100
AcDbEntity
  8
Layer_1
 62
2
100
AcDbSpline
 70
8
 71
3
 72
8
 73
4
 74
0
 40
0
 40
0
 40
0
 40
0
 40
1
 40
1
 40
1
 40
1
 10
524.121694
 20
16.851155
 30
0.0
 10
524.402375
 20
16.851159
 30
0.0
 10
524.671560
 20
16.739657
 30
0.0
 10
524.870025
 20
16.541180
 30
0.0
  0
SPLINE
  5
137
100
AcDbEntity
  8
Layer_1
 62
2
100
AcDbSpline
 70
8
 71
3
 72
8
 73
4
 74
0
 40
0
 40
0
 40
0
 40
0
 40
1
 40
1
 40
1
 40
1
 10
524.870025
 20
16.541180
 30
0.0
 10
525.068491
 20
16.342703
 30
0.0
 10
525.179979
 20
16.073512
 30
0.0
 10
525.179960
 20
15.792832
 30
0.0
  0
LINE
  5
138
100
AcDbEntity
  8
Layer_1
 62
2
100
AcDbLine
 10
525.179960
 20
15.792832
 30
0.0
 11
525.179107
 21
3.052757
 31
0.0
  0
SPLINE
  5
139
100
AcDbEntity
  8
Layer_1
 62
2
100
AcDbSpline
 70
8
 71
3
 72
8
 73
4
 74
0
 40
0
 40
0
 40
0
 40
0
 40
1
 40
1
 40
1
 40
1
 10
525.179107
 20
3.052757
 30
0.0
 10
525.179089
 20
2.772093
 30
0.0
 10
525.067560
 20
2.502935
 30
0.0
 10
524.869063
 20
2.304514
 30
0.0
  0
SPLINE
  5
13a
100
AcDbEntity
  8
Layer_1
 62
2
100
AcDbSpline
 70
8
 71
3
 72
8
 73
4
 74
0
 40
0
 40
0
 40
0
 40
0
 40
1
 40
1
 40
1
 40
1
 10
524.869063
 20
2.304514
 30
0.0
 10
524.670565
 20
2.106092
 30
0.0
 10
524.401365
 20
1.994666
 30
0.0
 10
524.120701
 20
1.994755
 30
0.0
  0
LINE
  5
13b
100
AcDbEntity
  8
Layer_1
 62
2
100
AcDbLine
 10
524.120701
 20
1.994755
 30
0.0
 11
509.926537
 21
1.999239
 31
0.0
  0
SPLINE
  5
13c
100
AcDbEntity
  8
Layer_1
 62
2
100
AcDbSpline
 70
8
 71
3
 72
8
 73
4
 74
0
 40
0
 40
0
 40
0
 40
0
 40
1
 40
1
 40
1
 40
1
 10
509.926537
 20
1.999239
 30
0.0
 10
509.327728
 20
1.999431
 30
0.0
 10
508.828149
 20
1.541799
 30
0.0
 10
508.775958
 20
0.945269
 30
0.0
  0
LINE
  5
13d
100
AcDbEntity
  8
Layer_1
 62
2
100
AcDbLine
 10
508.775958
 20
0.945269
 30
0.0
 11
501.961414
 21
-76.945385
 31
0.0
  0
SPLINE
  5
13e
100
AcDbEntity
  8
Layer_1
 62
2
100
AcDbSpline
 70
8
 71
3
 72
8
 73
4
 74
0
 40
0
 40
0
 40
0
 40
0
 40
1
 40
1
 40
1
 40
1
 10
501.961414
 20
-76.945385
 30
0.0
 10
501.937718
 20
-77.216246
 30
0.0
 10
502.028819
 20
-77.484613
 30
0.0
 10
502.212511
 20
-77.685073
 30
0.0
  0
SPLINE
  5
13f
100
AcDbEntity
  8
Layer_1
 62
2
100
AcDbSpline
 70
8
 71
3
 72
8
 73
4
 74
0
 40
0
 40
0
 40
0
 40
0
 40
1
 40
1
 40
1
 40
1
 10
502.212511
 20
-77.685073
 30
0.0
 10
502.396203
 20
-77.885533
 30
0.0
 10
502.655612
 20
-77.999671
 30
0.0
 10
502.927507
 20
-77.999666
 30
0.0
  0
LINE
  5
140
100
AcDbEntity
  8
Layer_1
 62
2
100
AcDbLine
 10
502.927507
 20
-77.999666
 30
0.0
 11
563.304638
 21
-77.998488
 31
0.0
  0
SPLINE
  5
141
100
AcDbEntity
  8
Layer_1
 62
2
100
AcDbSpline
 70
8
 71
3
 72
8
 73
4
 74
0
 40
0
 40
0
 40
0
 40
0
 40
1
 40
1
 40
1
 40
1
 10
563.304638
 20
-77.998488
 30
0.0
 10
563.576538
 20
-77.998483
 30
0.0
 10
563.835948
 20
-77.884337
 30
0.0
 10
564.019639
 20
-77.683870
 30
0.0
  0
SPLINE
  5
142
100
AcDbEntity
  8
Layer_1
 62
2
100
AcDbSpline
 70
8
 71
3
 72
8
 73
4
 74
0
 40
0
 40
0
 40
0
 40
0
 40
1
 40
1
 40
1
 40
1
 10
564.019639
 20
-77.683870
 30
0.0
 10
564.203331
 20
-77.483403
 30
0.0
 10
564.294430
 20
-77.215031
 30
0.0
 10
564.270734
 20
-76.944165
 30
0.0
  0
LINE
  5
143
100
AcDbEntity
  8
Layer_1
 62
2
100
AcDbLine
 10
564.270734
 20
-76.944165
 30
0.0
 11
564.270676
 21
-76.943508
 31
0.0
  0
SPLINE
  5
144
100
AcDbEntity
  8
Layer_1
 62
2
100
AcDbSpline
 70
8
 71
3
 72
8
 73
4
 74
0
 40
0
 40
0
 40
0
 40
0
 40
1
 40
1
 40
1
 40
1
 10
368.081253
 20
-70.279548
 30
0.0
 10
367.450678
 20
-70.224380
 30
0.0
 10
366.848961
 20
-70.554493
 30
0.0
 10
366.556682
 20
-71.115956
 30
0.0
  0
SPLINE
  5
145
100
AcDbEntity
  8
Layer_1
 62
2
100
AcDbSpline
 70
8
 71
3
 72
8
 73
4
 74
0
 40
0
 40
0
 40
0
 40
0
 40
1
 40
1
 40
1
 40
1
 10
366.556682
 20
-71.115956
 30
0.0
 10
366.264403
 20
-71.677420
 30
0.0
 10
366.339121
 20
-72.359663
 30
0.0
 10
366.745995
 20
-72.844556
 30
0.0
  0
SPLINE
  5
146
100
AcDbEntity
  8
Layer_1
 62
2
100
AcDbSpline
 70
8
 71
3
 72
8
 73
4
 74
0
 40
0
 40
0
 40
0
 40
0
 40
1
 40
1
 40
1
 40
1
 10
366.745995
 20
-72.844556
 30
0.0
 10
367.152869
 20
-73.329450
 30
0.0
 10
367.811772
 20
-73.521503
 30
0.0
 10
368.415459
 20
-73.331161
 30
0.0
  0
SPLINE
  5
147
100
AcDbEntity
  8
Layer_1
 62
2
100
AcDbSpline
 70
8
 71
3
 72
8
 73
4
 74
0
 40
0
 40
0
 40
0
 40
0
 40
1
 40
1
 40
1
 40
1
 10
368.415459
 20
-73.331161
 30
0.0
 10
369.019147
 20
-73.140819
 30
0.0
 10
369.448732
 20
-72.605567
 30
0.0
 10
369.503900
 20
-71.974992
 30
0.0
  0
SPLINE
  5
148
100
AcDbEntity
  8
Layer_1
 62
2
100
AcDbSpline
 70
8
 71
3
 72
8
 73
4
 74
0
 40
0
 40
0
 40
0
 40
0
 40
1
 40
1
 40
1
 40
1
 10
369.503900
 20
-71.974992
 30
0.0
 10
369.579231
 20
-71.113955
 30
0.0
 10
368.942290
 20
-70.354879
 30
0.0
 10
368.081253
 20
-70.279548
 30
0.0
  0
LINE
  5
149
100
AcDbEntity
  8
Layer_1
 62
2
100
AcDbLine
 10
368.081253
 20
-70.279548
 30
0.0
 11
368.081253
 21
-70.279548
 31
0.0
  0
SPLINE
  5
14a
100
AcDbEntity
  8
Layer_1
 62
2
100
AcDbSpline
 70
8
 71
3
 72
8
 73
4
 74
0
 40
0
 40
0
 40
0
 40
0
 40
1
 40
1
 40
1
 40
1
 10
375.823596
 20
18.215911
 30
0.0
 10
375.193022
 20
18.271079
 30
0.0
 10
374.591305
 20
17.940966
 30
0.0
 10
374.299025
 20
17.379502
 30
0.0
  0
SPLINE
  5
14b
100
AcDbEntity
  8
Layer_1
 62
2
100
AcDbSpline
 70
8
 71
3
 72
8
 73
4
 74
0
 40
0
 40
0
 40
0
 40
0
 40
1
 40
1
 40
1
 40
1
 10
374.299025
 20
17.379502
 30
0.0
 10
374.006746
 20
16.818039
 30
0.0
 10
374.081464
 20
16.135796
 30
0.0
 10
374.488338
 20
15.650902
 30
0.0
  0
SPLINE
  5
14c
100
AcDbEntity
  8
Layer_1
 62
2
100
AcDbSpline
 70
8
 71
3
 72
8
 73
4
 74
0
 40
0
 40
0
 40
0
 40
0
 40
1
 40
1
 40
1
 40
1
 10
374.488338
 20
15.650902
 30
0.0
 10
374.895212
 20
15.166009
 30
0.0
 10
375.554115
 20
14.973956
 30
0.0
 10
376.157803
 20
15.164298
 30
0.0
  0
SPLINE
  5
14d
100
AcDbEntity
  8
Layer_1
 62
2
100
AcDbSpline
 70
8
 71
3
 72
8
 73
4
 74
0
 40
0
 40
0
 40
0
 40
0
 40
1
 40
1
 40
1
 40
1
 10
376.157803
 20
15.164298
 30
0.0
 10
376.761490
 20
15.354640
 30
0.0
 10
377.191075
 20
15.889892
 30
0.0
 10
377.246243
 20
16.520467
 30
0.0
  0
SPLINE
  5
14e
100
AcDbEntity
  8
Layer_1
 62
2
100
AcDbSpline
 70
8
 71
3
 72
8
 73
4
 74
0
 40
0
 40
0
 40
0
 40
0
 40
1
 40
1
 40
1
 40
1
 10
377.246243
 20
16.520467
 30
0.0
 10
377.321574
 20
17.381504
 30
0.0
 10
376.684633
 20
18.140580
 30
0.0
 10
375.823596
 20
18.215911
 30
0.0
  0
LINE
  5
14f
100
AcDbEntity
  8
Layer_1
 62
2
100
AcDbLine
 10
375.823596
 20
18.215911
 30
0.0
 11
375.823596
 21
18.215911
 31
0.0
  0
SPLINE
  5
150
100
AcDbEntity
  8
Layer_1
 62
2
100
AcDbSpline
 70
8
 71
3
 72
8
 73
4
 74
0
 40
0
 40
0
 40
0
 40
0
 40
1
 40
1
 40
1
 40
1
 10
504.332560
 20
15.528321
 30
0.0
 10
503.701986
 20
15.583489
 30
0.0
 10
503.100269
 20
15.253376
 30
0.0
 10
502.807989
 20
14.691912
 30
0.0
  0
SPLINE
  5
151
100
AcDbEntity
  8
Layer_1
 62
2
100
AcDbSpline
 70
8
 71
3
 72
8
 73
4
 74
0
 40
0
 40
0
 40
0
 40
0
 40
1
 40
1
 40
1
 40
1
 10
502.807989
 20
14.691912
 30
0.0
 10
502.515710
 20
14.130449
 30
0.0
 10
502.590428
 20
13.448206
 30
0.0
 10
502.997302
 20
12.963313
 30
0.0
  0
SPLINE
  5
152
100
AcDbEntity
  8
Layer_1
 62
2
100
AcDbSpline
 70
8
 71
3
 72
8
 73
4
 74
0
 40
0
 40
0
 40
0
 40
0
 40
1
 40
1
 40
1
 40
1
 10
502.997302
 20
12.963313
 30
0.0
 10
503.404176
 20
12.478419
 30
0.0
 10
504.063079
 20
12.286366
 30
0.0
 10
504.666767
 20
12.476708
 30
0.0
  0
SPLINE
  5
153
100
AcDbEntity
  8
Layer_1
 62
2
100
AcDbSpline
 70
8
 71
3
 72
8
 73
4
 74
0
 40
0
 40
0
 40
0
 40
0
 40
1
 40
1
 40
1
 40
1
 10
504.666767
 20
12.476708
 30
0.0
 10
505.270454
 20
12.667050
 30
0.0
 10
505.700039
 20
13.202302
 30
0.0
 10
505.755207
 20
13.832877
 30
0.0
  0
SPLINE
  5
154
100
AcDbEntity
  8
Layer_1
 62
2
100
AcDbSpline
 70
8
 71
3
 72
8
 73
4
 74
0
 40
0
 40
0
 40
0
 40
0
 40
1
 40
1
 40
1
 40
1
 10
505.755207
 20
13.832877
 30
0.0
 10
505.791382
 20
14.246361
 30
0.0
 10
505.661820
 20
14.657281
 30
0.0
 10
505.395022
 20
14.975239
 30
0.0
  0
SPLINE
  5
155
100
AcDbEntity
  8
Layer_1
 62
2
100
AcDbSpline
 70
8
 71
3
 72
8
 73
4
 74
0
 40
0
 40
0
 40
0
 40
0
 40
1
 40
1
 40
1
 40
1
 10
505.395022
 20
14.975239
 30
0.0
 10
505.128224
 20
15.293196
 30
0.0
 10
504.746045
 20
15.492146
 30
0.0
 10
504.332560
 20
15.528321
 30
0.0
  0
LINE
  5
156
100
AcDbEntity
  8
Layer_1
 62
2
100
AcDbLine
 10
504.332560
 20
15.528321
 30
0.0
 11
504.332560
 21
15.528321
 31
0.0
  0
SPLINE
  5
157
100
AcDbEntity
  8
Layer_1
 62
2
100
AcDbSpline
 70
8
 71
3
 72
8
 73
4
 74
0
 40
0
 40
0
 40
0
 40
0
 40
1
 40
1
 40
1
 40
1
 10
495.849210
 20
-81.436897
 30
0.0
 10
495.218635
 20
-81.381729
 30
0.0
 10
494.616918
 20
-81.711842
 30
0.0
 10
494.324639
 20
-82.273306
 30
0.0
  0
SPLINE
  5
158
100
AcDbEntity
  8
Layer_1
 62
2
100
AcDbSpline
 70
8
 71
3
 72
8
 73
4
 74
0
 40
0
 40
0
 40
0
 40
0
 40
1
 40
1
 40
1
 40
1
 10
494.324639
 20
-82.273306
 30
0.0
 10
494.032359
 20
-82.834769
 30
0.0
 10
494.107077
 20
-83.517012
 30
0.0
 10
494.513951
 20
-84.001906
 30
0.0
  0
SPLINE
  5
159
100
AcDbEntity
  8
Layer_1
 62
2
100
AcDbSpline
 70
8
 71
3
 72
8
 73
4
 74
0
 40
0
 40
0
 40
0
 40
0
 40
1
 40
1
 40
1
 40
1
 10
494.513951
 20
-84.001906
 30
0.0
 10
494.920825
 20
-84.486799
 30
0.0
 10
495.579729
 20
-84.678852
 30
0.0
 10
496.183416
 20
-84.488510
 30
0.0
  0
SPLINE
  5
15a
100
AcDbEntity
  8
Layer_1
 62
2
100
AcDbSpline
 70
8
 71
3
 72
8
 73
4
 74
0
 40
0
 40
0
 40
0
 40
0
 40
1
 40
1
 40
1
 40
1
 10
496.183416
 20
-84.488510
 30
0.0
 10
496.787103
 20
-84.298168
 30
0.0
 10
497.216688
 20
-83.762916
 30
0.0
 10
497.271856
 20
-83.132341
 30
0.0
  0
SPLINE
  5
15b
100
AcDbEntity
  8
Layer_1
 62
2
100
AcDbSpline
 70
8
 71
3
 72
8
 73
4
 74
0
 40
0
 40
0
 40
0
 40
0
 40
1
 40
1
 40
1
 40
1
 10
497.271856
 20
-83.132341
 30
0.0
 10
497.308032
 20
-82.718857
 30
0.0
 10
497.178469
 20
-82.307937
 30
0.0
 10
496.911671
 20
-81.989979
 30
0.0
  0
SPLINE
  5
15c
100
AcDbEntity
  8
Layer_1
 62
2
100
AcDbSpline
 70
8
 71
3
 72
8
 73
4
 74
0
 40
0
 40
0
 40
0
 40
0
 40
1
 40
1
 40
1
 40
1
 10
496.911671
 20
-81.989979
 30
0.0
 10
496.644873
 20
-81.672022
 30
0.0
 10
496.262694
 20
-81.473072
 30
0.0
 10
495.849210
 20
-81.436897
 30
0.0
  0
LINE
  5
15d
100
AcDbEntity
  8
Layer_1
 62
2
100
AcDbLine
 10
495.849210
 20
-81.436897
 30
0.0
 11
495.849210
 21
-81.436897
 31
0.0
  0
SPLINE
  5
15e
100
AcDbEntity
  8
Layer_1
 62
2
100
AcDbSpline
 70
8
 71
3
 72
8
 73
4
 74
0
 40
0
 40
0
 40
0
 40
0
 40
1
 40
1
 40
1
 40
1
 10
500.548487
 20
-27.723866
 30
0.0
 10
499.917913
 20
-27.668698
 30
0.0
 10
499.316196
 20
-27.998811
 30
0.0
 10
499.023916
 20
-28.560274
 30
0.0
  0
SPLINE
  5
15f
100
AcDbEntity
  8
Layer_1
 62
2
100
AcDbSpline
 70
8
 71
3
 72
8
 73
4
 74
0
 40
0
 40
0
 40
0
 40
0
 40
1
 40
1
 40
1
 40
1
 10
499.023916
 20
-28.560274
 30
0.0
 10
498.731637
 20
-29.121738
 30
0.0
 10
498.806355
 20
-29.803981
 30
0.0
 10
499.213229
 20
-30.288874
 30
0.0
  0
SPLINE
  5
160
100
AcDbEntity
  8
Layer_1
 62
2
100
AcDbSpline
 70
8
 71
3
 72
8
 73
4
 74
0
 40
0
 40
0
 40
0
 40
0
 40
1
 40
1
 40
1
 40
1
 10
499.213229
 20
-30.288874
 30
0.0
 10
499.620103
 20
-30.773768
 30
0.0
 10
500.279006
 20
-30.965821
 30
0.0
 10
500.882694
 20
-30.775479
 30
0.0
  0
SPLINE
  5
161
100
AcDbEntity
  8
Layer_1
 62
2
100
AcDbSpline
 70
8
 71
3
 72
8
 73
4
 74
0
 40
0
 40
0
 40
0
 40
0
 40
1
 40
1
 40
1
 40
1
 10
500.882694
 20
-30.775479
 30
0.0
 10
501.486381
 20
-30.585137
 30
0.0
 10
501.915966
 20
-30.049885
 30
0.0
 10
501.971134
 20
-29.419310
 30
0.0
  0
SPLINE
  5
162
100
AcDbEntity
  8
Layer_1
 62
2
100
AcDbSpline
 70
8
 71
3
 72
8
 73
4
 74
0
 40
0
 40
0
 40
0
 40
0
 40
1
 40
1
 40
1
 40
1
 10
501.971134
 20
-29.419310
 30
0.0
 10
502.007309
 20
-29.005825
 30
0.0
 10
501.877747
 20
-28.594906
 30
0.0
 10
501.610949
 20
-28.276948
 30
0.0
  0
SPLINE
  5
163
100
AcDbEntity
  8
Layer_1
 62
2
100
AcDbSpline
 70
8
 71
3
 72
8
 73
4
 74
0
 40
0
 40
0
 40
0
 40
0
 40
1
 40
1
 40
1
 40
1
 10
501.610949
 20
-28.276948
 30
0.0
 10
501.344151
 20
-27.958991
 30
0.0
 10
500.961972
 20
-27.760041
 30
0.0
 10
500.548487
 20
-27.723866
 30
0.0
  0
LINE
  5
164
100
AcDbEntity
  8
Layer_1
 62
2
100
AcDbLine
 10
500.548487
 20
-27.723866
 30
0.0
 11
500.548487
 21
-27.723866
 31
0.0
  0
SPLINE
  5
165
100
AcDbEntity
  8
Layer_1
 62
2
100
AcDbSpline
 70
8
 71
3
 72
8
 73
4
 74
0
 40
0
 40
0
 40
0
 40
0
 40
1
 40
1
 40
1
 40
1
 10
698.113489
 20
-70.284835
 30
0.0
 10
698.744064
 20
-70.229667
 30
0.0
 10
699.345781
 20
-70.559780
 30
0.0
 10
699.638060
 20
-71.121243
 30
0.0
  0
SPLINE
  5
166
100
AcDbEntity
  8
Layer_1
 62
2
100
AcDbSpline
 70
8
 71
3
 72
8
 73
4
 74
0
 40
0
 40
0
 40
0
 40
0
 40
1
 40
1
 40
1
 40
1
 10
699.638060
 20
-71.121243
 30
0.0
 10
699.930339
 20
-71.682707
 30
0.0
 10
699.855622
 20
-72.364950
 30
0.0
 10
699.448748
 20
-72.849843
 30
0.0
  0
SPLINE
  5
167
100
AcDbEntity
  8
Layer_1
 62
2
100
AcDbSpline
 70
8
 71
3
 72
8
 73
4
 74
0
 40
0
 40
0
 40
0
 40
0
 40
1
 40
1
 40
1
 40
1
 10
699.448748
 20
-72.849843
 30
0.0
 10
699.041874
 20
-73.334737
 30
0.0
 10
698.382970
 20
-73.526790
 30
0.0
 10
697.779283
 20
-73.336448
 30
0.0
  0
SPLINE
  5
168
100
AcDbEntity
  8
Layer_1
 62
2
100
AcDbSpline
 70
8
 71
3
 72
8
 73
4
 74
0
 40
0
 40
0
 40
0
 40
0
 40
1
 40
1
 40
1
 40
1
 10
697.779283
 20
-73.336448
 30
0.0
 10
697.175596
 20
-73.146106
 30
0.0
 10
696.746011
 20
-72.610854
 30
0.0
 10
696.690842
 20
-71.980279
 30
0.0
  0
SPLINE
  5
169
100
AcDbEntity
  8
Layer_1
 62
2
100
AcDbSpline
 70
8
 71
3
 72
8
 73
4
 74
0
 40
0
 40
0
 40
0
 40
0
 40
1
 40
1
 40
1
 40
1
 10
696.690842
 20
-71.980279
 30
0.0
 10
696.654667
 20
-71.566794
 30
0.0
 10
696.784230
 20
-71.155875
 30
0.0
 10
697.051028
 20
-70.837917
 30
0.0
  0
SPLINE
  5
16a
100
AcDbEntity
  8
Layer_1
 62
2
100
AcDbSpline
 70
8
 71
3
 72
8
 73
4
 74
0
 40
0
 40
0
 40
0
 40
0
 40
1
 40
1
 40
1
 40
1
 10
697.051028
 20
-70.837917
 30
0.0
 10
697.317826
 20
-70.519960
 30
0.0
 10
697.700005
 20
-70.321010
 30
0.0
 10
698.113489
 20
-70.284835
 30
0.0
  0
LINE
  5
16b
100
AcDbEntity
  8
Layer_1
 62
2
100
AcDbLine
 10
698.113489
 20
-70.284835
 30
0.0
 11
698.113489
 21
-70.284835
 31
0.0
  0
SPLINE
  5
16c
100
AcDbEntity
  8
Layer_1
 62
2
100
AcDbSpline
 70
8
 71
3
 72
8
 73
4
 74
0
 40
0
 40
0
 40
0
 40
0
 40
1
 40
1
 40
1
 40
1
 10
690.371146
 20
18.210624
 30
0.0
 10
691.001721
 20
18.265792
 30
0.0
 10
691.603438
 20
17.935679
 30
0.0
 10
691.895717
 20
17.374215
 30
0.0
  0
SPLINE
  5
16d
100
AcDbEntity
  8
Layer_1
 62
2
100
AcDbSpline
 70
8
 71
3
 72
8
 73
4
 74
0
 40
0
 40
0
 40
0
 40
0
 40
1
 40
1
 40
1
 40
1
 10
691.895717
 20
17.374215
 30
0.0
 10
692.187996
 20
16.812752
 30
0.0
 10
692.113278
 20
16.130509
 30
0.0
 10
691.706404
 20
15.645615
 30
0.0
  0
SPLINE
  5
16e
100
AcDbEntity
  8
Layer_1
 62
2
100
AcDbSpline
 70
8
 71
3
 72
8
 73
4
 74
0
 40
0
 40
0
 40
0
 40
0
 40
1
 40
1
 40
1
 40
1
 10
691.706404
 20
15.645615
 30
0.0
 10
691.299530
 20
15.160722
 30
0.0
 10
690.640627
 20
14.968669
 30
0.0
 10
690.036940
 20
15.159011
 30
0.0
  0
SPLINE
  5
16f
100
AcDbEntity
  8
Layer_1
 62
2
100
AcDbSpline
 70
8
 71
3
 72
8
 73
4
 74
0
 40
0
 40
0
 40
0
 40
0
 40
1
 40
1
 40
1
 40
1
 10
690.036940
 20
15.159011
 30
0.0
 10
689.433252
 20
15.349353
 30
0.0
 10
689.003667
 20
15.884605
 30
0.0
 10
688.948499
 20
16.515180
 30
0.0
  0
SPLINE
  5
170
100
AcDbEntity
  8
Layer_1
 62
2
100
AcDbSpline
 70
8
 71
3
 72
8
 73
4
 74
0
 40
0
 40
0
 40
0
 40
0
 40
1
 40
1
 40
1
 40
1
 10
688.948499
 20
16.515180
 30
0.0
 10
688.912324
 20
16.928664
 30
0.0
 10
689.041887
 20
17.339584
 30
0.0
 10
689.308685
 20
17.657541
 30
0.0
  0
SPLINE
  5
171
100
AcDbEntity
  8
Layer_1
 62
2
100
AcDbSpline
 70
8
 71
3
 72
8
 73
4
 74
0
 40
0
 40
0
 40
0
 40
0
 40
1
 40
1
 40
1
 40
1
 10
689.308685
 20
17.657541
 30
0.0
 10
689.575483
 20
17.975499
 30
0.0
 10
689.957661
 20
18.174449
 30
0.0
 10
690.371146
 20
18.210624
 30
0.0
  0
LINE
  5
172
100
AcDbEntity
  8
Layer_1
 62
2
100
AcDbLine
 10
690.371146
 20
18.210624
 30
0.0
 11
690.371146
 21
18.210624
 31
0.0
  0
SPLINE
  5
173
100
AcDbEntity
  8
Layer_1
 62
2
100
AcDbSpline
 70
8
 71
3
 72
8
 73
4
 74
0
 40
0
 40
0
 40
0
 40
0
 40
1
 40
1
 40
1
 40
1
 10
561.902040
 20
15.526521
 30
0.0
 10
562.532614
 20
15.581689
 30
0.0
 10
563.134331
 20
15.251576
 30
0.0
 10
563.426611
 20
14.690112
 30
0.0
  0
SPLINE
  5
174
100
AcDbEntity
  8
Layer_1
 62
2
100
AcDbSpline
 70
8
 71
3
 72
8
 73
4
 74
0
 40
0
 40
0
 40
0
 40
0
 40
1
 40
1
 40
1
 40
1
 10
563.426611
 20
14.690112
 30
0.0
 10
563.718890
 20
14.128649
 30
0.0
 10
563.644172
 20
13.446406
 30
0.0
 10
563.237298
 20
12.961513
 30
0.0
  0
SPLINE
  5
175
100
AcDbEntity
  8
Layer_1
 62
2
100
AcDbSpline
 70
8
 71
3
 72
8
 73
4
 74
0
 40
0
 40
0
 40
0
 40
0
 40
1
 40
1
 40
1
 40
1
 10
563.237298
 20
12.961513
 30
0.0
 10
562.830424
 20
12.476619
 30
0.0
 10
562.171521
 20
12.284566
 30
0.0
 10
561.567833
 20
12.474908
 30
0.0
  0
SPLINE
  5
176
100
AcDbEntity
  8
Layer_1
 62
2
100
AcDbSpline
 70
8
 71
3
 72
8
 73
4
 74
0
 40
0
 40
0
 40
0
 40
0
 40
1
 40
1
 40
1
 40
1
 10
561.567833
 20
12.474908
 30
0.0
 10
560.964146
 20
12.665250
 30
0.0
 10
560.534561
 20
13.200502
 30
0.0
 10
560.479393
 20
13.831077
 30
0.0
  0
SPLINE
  5
177
100
AcDbEntity
  8
Layer_1
 62
2
100
AcDbSpline
 70
8
 71
3
 72
8
 73
4
 74
0
 40
0
 40
0
 40
0
 40
0
 40
1
 40
1
 40
1
 40
1
 10
560.479393
 20
13.831077
 30
0.0
 10
560.443218
 20
14.244561
 30
0.0
 10
560.572780
 20
14.655481
 30
0.0
 10
560.839578
 20
14.973439
 30
0.0
  0
SPLINE
  5
178
100
AcDbEntity
  8
Layer_1
 62
2
100
AcDbSpline
 70
8
 71
3
 72
8
 73
4
 74
0
 40
0
 40
0
 40
0
 40
0
 40
1
 40
1
 40
1
 40
1
 10
560.839578
 20
14.973439
 30
0.0
 10
561.106376
 20
15.291396
 30
0.0
 10
561.488555
 20
15.490346
 30
0.0
 10
561.902040
 20
15.526521
 30
0.0
  0
LINE
  5
179
100
AcDbEntity
  8
Layer_1
 62
2
100
AcDbLine
 10
561.902040
 20
15.526521
 30
0.0
 11
561.902040
 21
15.526521
 31
0.0
  0
SPLINE
  5
17a
100
AcDbEntity
  8
Layer_1
 62
2
100
AcDbSpline
 70
8
 71
3
 72
8
 73
4
 74
0
 40
0
 40
0
 40
0
 40
0
 40
1
 40
1
 40
1
 40
1
 10
570.385390
 20
-81.438697
 30
0.0
 10
571.015965
 20
-81.383529
 30
0.0
 10
571.617682
 20
-81.713642
 30
0.0
 10
571.909961
 20
-82.275106
 30
0.0
  0
SPLINE
  5
17b
100
AcDbEntity
  8
Layer_1
 62
2
100
AcDbSpline
 70
8
 71
3
 72
8
 73
4
 74
0
 40
0
 40
0
 40
0
 40
0
 40
1
 40
1
 40
1
 40
1
 10
571.909961
 20
-82.275106
 30
0.0
 10
572.202241
 20
-82.836569
 30
0.0
 10
572.127523
 20
-83.518812
 30
0.0
 10
571.720649
 20
-84.003706
 30
0.0
  0
SPLINE
  5
17c
100
AcDbEntity
  8
Layer_1
 62
2
100
AcDbSpline
 70
8
 71
3
 72
8
 73
4
 74
0
 40
0
 40
0
 40
0
 40
0
 40
1
 40
1
 40
1
 40
1
 10
571.720649
 20
-84.003706
 30
0.0
 10
571.313775
 20
-84.488599
 30
0.0
 10
570.654871
 20
-84.680652
 30
0.0
 10
570.051184
 20
-84.490310
 30
0.0
  0
SPLINE
  5
17d
100
AcDbEntity
  8
Layer_1
 62
2
100
AcDbSpline
 70
8
 71
3
 72
8
 73
4
 74
0
 40
0
 40
0
 40
0
 40
0
 40
1
 40
1
 40
1
 40
1
 10
570.051184
 20
-84.490310
 30
0.0
 10
569.447497
 20
-84.299968
 30
0.0
 10
569.017912
 20
-83.764716
 30
0.0
 10
568.962744
 20
-83.134141
 30
0.0
  0
SPLINE
  5
17e
100
AcDbEntity
  8
Layer_1
 62
2
100
AcDbSpline
 70
8
 71
3
 72
8
 73
4
 74
0
 40
0
 40
0
 40
0
 40
0
 40
1
 40
1
 40
1
 40
1
 10
568.962744
 20
-83.134141
 30
0.0
 10
568.926568
 20
-82.720657
 30
0.0
 10
569.056131
 20
-82.309737
 30
0.0
 10
569.322929
 20
-81.991779
 30
0.0
  0
SPLINE
  5
17f
100
AcDbEntity
  8
Layer_1
 62
2
100
AcDbSpline
 70
8
 71
3
 72
8
 73
4
 74
0
 40
0
 40
0
 40
0
 40
0
 40
1
 40
1
 40
1
 40
1
 10
569.322929
 20
-81.991779
 30
0.0
 10
569.589727
 20
-81.673822
 30
0.0
 10
569.971906
 20
-81.474872
 30
0.0
 10
570.385390
 20
-81.438697
 30
0.0
  0
LINE
  5
180
100
AcDbEntity
  8
Layer_1
 62
2
100
AcDbLine
 10
570.385390
 20
-81.438697
 30
0.0
 11
570.385390
 21
-81.438697
 31
0.0
  0
SPLINE
  5
181
100
AcDbEntity
  8
Layer_1
 62
2
100
AcDbSpline
 70
8
 71
3
 72
8
 73
4
 74
0
 40
0
 40
0
 40
0
 40
0
 40
1
 40
1
 40
1
 40
1
 10
565.686113
 20
-27.725666
 30
0.0
 10
566.316687
 20
-27.670498
 30
0.0
 10
566.918404
 20
-28.000611
 30
0.0
 10
567.210684
 20
-28.562074
 30
0.0
  0
SPLINE
  5
182
100
AcDbEntity
  8
Layer_1
 62
2
100
AcDbSpline
 70
8
 71
3
 72
8
 73
4
 74
0
 40
0
 40
0
 40
0
 40
0
 40
1
 40
1
 40
1
 40
1
 10
567.210684
 20
-28.562074
 30
0.0
 10
567.502963
 20
-29.123538
 30
0.0
 10
567.428245
 20
-29.805781
 30
0.0
 10
567.021371
 20
-30.290674
 30
0.0
  0
SPLINE
  5
183
100
AcDbEntity
  8
Layer_1
 62
2
100
AcDbSpline
 70
8
 71
3
 72
8
 73
4
 74
0
 40
0
 40
0
 40
0
 40
0
 40
1
 40
1
 40
1
 40
1
 10
567.021371
 20
-30.290674
 30
0.0
 10
566.614497
 20
-30.775568
 30
0.0
 10
565.955594
 20
-30.967621
 30
0.0
 10
565.351906
 20
-30.777279
 30
0.0
  0
SPLINE
  5
184
100
AcDbEntity
  8
Layer_1
 62
2
100
AcDbSpline
 70
8
 71
3
 72
8
 73
4
 74
0
 40
0
 40
0
 40
0
 40
0
 40
1
 40
1
 40
1
 40
1
 10
565.351906
 20
-30.777279
 30
0.0
 10
564.748219
 20
-30.586937
 30
0.0
 10
564.318634
 20
-30.051685
 30
0.0
 10
564.263466
 20
-29.421110
 30
0.0
  0
SPLINE
  5
185
100
AcDbEntity
  8
Layer_1
 62
2
100
AcDbSpline
 70
8
 71
3
 72
8
 73
4
 74
0
 40
0
 40
0
 40
0
 40
0
 40
1
 40
1
 40
1
 40
1
 10
564.263466
 20
-29.421110
 30
0.0
 10
564.227291
 20
-29.007625
 30
0.0
 10
564.356853
 20
-28.596706
 30
0.0
 10
564.623651
 20
-28.278748
 30
0.0
  0
SPLINE
  5
186
100
AcDbEntity
  8
Layer_1
 62
2
100
AcDbSpline
 70
8
 71
3
 72
8
 73
4
 74
0
 40
0
 40
0
 40
0
 40
0
 40
1
 40
1
 40
1
 40
1
 10
564.623651
 20
-28.278748
 30
0.0
 10
564.890449
 20
-27.960791
 30
0.0
 10
565.272628
 20
-27.761841
 30
0.0
 10
565.686113
 20
-27.725666
 30
0.0
  0
LINE
  5
187
100
AcDbEntity
  8
Layer_1
 62
2
100
AcDbLine
 10
565.686113
 20
-27.725666
 30
0.0
 11
565.686113
 21
-27.725666
 31
0.0
  0
LINE
  5
188
100
AcDbEntity
  8
Layer_1
 62
2
100
AcDbLine
 10
380.416566
 20
10.433901
 30
0.0
 11
375.013126
 21
10.906641
 31
0.0
  0
SPLINE
  5
189
100
AcDbEntity
  8
Layer_1
 62
2
100
AcDbSpline
 70
8
 71
3
 72
8
 73
4
 74
0
 40
0
 40
0
 40
0
 40
0
 40
1
 40
1
 40
1
 40
1
 10
375.013126
 20
10.906641
 30
0.0
 10
374.873315
 20
10.918874
 30
0.0
 10
374.734371
 20
10.875065
 30
0.0
 10
374.626861
 20
10.784853
 30
0.0
  0
SPLINE
  5
18a
100
AcDbEntity
  8
Layer_1
 62
2
100
AcDbSpline
 70
8
 71
3
 72
8
 73
4
 74
0
 40
0
 40
0
 40
0
 40
0
 40
1
 40
1
 40
1
 40
1
 10
374.626861
 20
10.784853
 30
0.0
 10
374.519350
 20
10.694641
 30
0.0
 10
374.452080
 20
10.565416
 30
0.0
 10
374.439849
 20
10.425605
 30
0.0
  0
LINE
  5
18b
100
AcDbEntity
  8
Layer_1
 62
2
100
AcDbLine
 10
374.439849
 20
10.425605
 30
0.0
 11
367.798287
 21
-65.487798
 31
0.0
  0
SPLINE
  5
18c
100
AcDbEntity
  8
Layer_1
 62
2
100
AcDbSpline
 70
8
 71
3
 72
8
 73
4
 74
0
 40
0
 40
0
 40
0
 40
0
 40
1
 40
1
 40
1
 40
1
 10
367.798287
 20
-65.487798
 30
0.0
 10
367.786054
 20
-65.627609
 30
0.0
 10
367.829863
 20
-65.766553
 30
0.0
 10
367.920075
 20
-65.874063
 30
0.0
  0
SPLINE
  5
18d
100
AcDbEntity
  8
Layer_1
 62
2
100
AcDbSpline
 70
8
 71
3
 72
8
 73
4
 74
0
 40
0
 40
0
 40
0
 40
0
 40
1
 40
1
 40
1
 40
1
 10
367.920075
 20
-65.874063
 30
0.0
 10
368.010287
 20
-65.981574
 30
0.0
 10
368.139512
 20
-66.048844
 30
0.0
 10
368.279323
 20
-66.061075
 30
0.0
  0
LINE
  5
18e
100
AcDbEntity
  8
Layer_1
 62
2
100
AcDbLine
 10
368.279323
 20
-66.061075
 30
0.0
 11
373.682763
 21
-66.533815
 31
0.0
  0
SPLINE
  5
18f
100
AcDbEntity
  8
Layer_1
 62
2
100
AcDbSpline
 70
8
 71
3
 72
8
 73
4
 74
0
 40
0
 40
0
 40
0
 40
0
 40
1
 40
1
 40
1
 40
1
 10
373.682763
 20
-66.533815
 30
0.0
 10
373.973901
 20
-66.559286
 30
0.0
 10
374.189370
 20
-66.815962
 30
0.0
 10
374.164068
 20
-67.107115
 30
0.0
  0
SPLINE
  5
190
100
AcDbEntity
  8
Layer_1
 62
2
100
AcDbSpline
 70
8
 71
3
 72
8
 73
4
 74
0
 40
0
 40
0
 40
0
 40
0
 40
1
 40
1
 40
1
 40
1
 10
374.164068
 20
-67.107115
 30
0.0
 10
374.079232
 20
-68.083335
 30
0.0
 10
373.994256
 20
-69.059554
 30
0.0
 10
373.909848
 20
-70.035812
 30
0.0
  0
SPLINE
  5
191
100
AcDbEntity
  8
Layer_1
 62
2
100
AcDbSpline
 70
8
 71
3
 72
8
 73
4
 74
0
 40
0
 40
0
 40
0
 40
0
 40
1
 40
1
 40
1
 40
1
 10
373.909848
 20
-70.035812
 30
0.0
 10
373.884446
 20
-70.326956
 30
0.0
 10
374.099812
 20
-70.583664
 30
0.0
 10
374.390946
 20
-70.609185
 30
0.0
  0
LINE
  5
192
100
AcDbEntity
  8
Layer_1
 62
2
100
AcDbLine
 10
374.390946
 20
-70.609185
 30
0.0
 11
408.121197
 21
-73.566222
 31
0.0
  0
SPLINE
  5
193
100
AcDbEntity
  8
Layer_1
 62
2
100
AcDbSpline
 70
8
 71
3
 72
8
 73
4
 74
0
 40
0
 40
0
 40
0
 40
0
 40
1
 40
1
 40
1
 40
1
 10
408.121197
 20
-73.566222
 30
0.0
 10
408.412330
 20
-73.591743
 30
0.0
 10
408.669014
 20
-73.376415
 30
0.0
 10
408.694545
 20
-73.085283
 30
0.0
  0
SPLINE
  5
194
100
AcDbEntity
  8
Layer_1
 62
2
100
AcDbSpline
 70
8
 71
3
 72
8
 73
4
 74
0
 40
0
 40
0
 40
0
 40
0
 40
1
 40
1
 40
1
 40
1
 10
408.694545
 20
-73.085283
 30
0.0
 10
408.780349
 20
-72.107179
 30
0.0
 10
408.866521
 20
-71.129118
 30
0.0
 10
408.953261
 20
-70.151096
 30
0.0
  0
SPLINE
  5
195
100
AcDbEntity
  8
Layer_1
 62
2
100
AcDbSpline
 70
8
 71
3
 72
8
 73
4
 74
0
 40
0
 40
0
 40
0
 40
0
 40
1
 40
1
 40
1
 40
1
 10
408.953261
 20
-70.151096
 30
0.0
 10
408.978942
 20
-69.859976
 30
0.0
 10
409.235783
 20
-69.644682
 30
0.0
 10
409.526916
 20
-69.670213
 30
0.0
  0
SPLINE
  5
196
100
AcDbEntity
  8
Layer_1
 62
2
100
AcDbSpline
 70
8
 71
3
 72
8
 73
4
 74
0
 40
0
 40
0
 40
0
 40
0
 40
1
 40
1
 40
1
 40
1
 10
409.526916
 20
-69.670213
 30
0.0
 10
421.544628
 20
-70.724638
 30
0.0
 10
433.563589
 20
-71.765119
 30
0.0
 10
445.579933
 20
-72.835184
 30
0.0
  0
SPLINE
  5
197
100
AcDbEntity
  8
Layer_1
 62
2
100
AcDbSpline
 70
8
 71
3
 72
8
 73
4
 74
0
 40
0
 40
0
 40
0
 40
0
 40
1
 40
1
 40
1
 40
1
 10
445.579933
 20
-72.835184
 30
0.0
 10
445.871031
 20
-72.861114
 30
0.0
 10
446.086455
 20
-73.118188
 30
0.0
 10
446.061153
 20
-73.409340
 30
0.0
  0
SPLINE
  5
198
100
AcDbEntity
  8
Layer_1
 62
2
100
AcDbSpline
 70
8
 71
3
 72
8
 73
4
 74
0
 40
0
 40
0
 40
0
 40
0
 40
1
 40
1
 40
1
 40
1
 10
446.061153
 20
-73.409340
 30
0.0
 10
445.976487
 20
-74.383619
 30
0.0
 10
445.891681
 20
-75.357885
 30
0.0
 10
445.807444
 20
-76.332200
 30
0.0
  0
SPLINE
  5
199
100
AcDbEntity
  8
Layer_1
 62
2
100
AcDbSpline
 70
8
 71
3
 72
8
 73
4
 74
0
 40
0
 40
0
 40
0
 40
0
 40
1
 40
1
 40
1
 40
1
 10
445.807444
 20
-76.332200
 30
0.0
 10
445.782042
 20
-76.623344
 30
0.0
 10
445.997412
 20
-76.880012
 30
0.0
 10
446.288549
 20
-76.905483
 30
0.0
  0
LINE
  5
19a
100
AcDbEntity
  8
Layer_1
 62
2
100
AcDbLine
 10
446.288549
 20
-76.905483
 30
0.0
 11
481.560317
 21
-79.991363
 31
0.0
  0
SPLINE
  5
19b
100
AcDbEntity
  8
Layer_1
 62
2
100
AcDbSpline
 70
8
 71
3
 72
8
 73
4
 74
0
 40
0
 40
0
 40
0
 40
0
 40
1
 40
1
 40
1
 40
1
 10
481.560317
 20
-79.991363
 30
0.0
 10
481.851455
 20
-80.016834
 30
0.0
 10
482.108142
 20
-79.801466
 30
0.0
 10
482.133673
 20
-79.510334
 30
0.0
  0
SPLINE
  5
19c
100
AcDbEntity
  8
Layer_1
 62
2
100
AcDbSpline
 70
8
 71
3
 72
8
 73
4
 74
0
 40
0
 40
0
 40
0
 40
0
 40
1
 40
1
 40
1
 40
1
 10
482.133673
 20
-79.510334
 30
0.0
 10
482.219477
 20
-78.532230
 30
0.0
 10
482.305649
 20
-77.554169
 30
0.0
 10
482.392389
 20
-76.576147
 30
0.0
  0
SPLINE
  5
19d
100
AcDbEntity
  8
Layer_1
 62
2
100
AcDbSpline
 70
8
 71
3
 72
8
 73
4
 74
0
 40
0
 40
0
 40
0
 40
0
 40
1
 40
1
 40
1
 40
1
 10
482.392389
 20
-76.576147
 30
0.0
 10
482.418070
 20
-76.285027
 30
0.0
 10
482.674999
 20
-76.068617
 30
0.0
 10
482.966251
 20
-76.092783
 30
0.0
  0
LINE
  5
19e
100
AcDbEntity
  8
Layer_1
 62
2
100
AcDbLine
 10
482.966251
 20
-76.092783
 30
0.0
 11
489.554892
 21
-76.639401
 31
0.0
  0
SPLINE
  5
19f
100
AcDbEntity
  8
Layer_1
 62
2
100
AcDbSpline
 70
8
 71
3
 72
8
 73
4
 74
0
 40
0
 40
0
 40
0
 40
0
 40
1
 40
1
 40
1
 40
1
 10
489.554892
 20
-76.639401
 30
0.0
 10
489.871596
 20
-76.665679
 30
0.0
 10
490.170988
 20
-76.491320
 30
0.0
 10
490.304418
 20
-76.202895
 30
0.0
  0
LINE
  5
1a0
100
AcDbEntity
  8
Layer_1
 62
2
100
AcDbLine
 10
490.304418
 20
-76.202895
 30
0.0
 11
498.347233
 21
-58.816894
 31
0.0
  0
SPLINE
  5
1a1
100
AcDbEntity
  8
Layer_1
 62
2
100
AcDbSpline
 70
8
 71
3
 72
8
 73
4
 74
0
 40
0
 40
0
 40
0
 40
0
 40
1
 40
1
 40
1
 40
1
 10
498.347233
 20
-58.816894
 30
0.0
 10
498.494235
 20
-58.499124
 30
0.0
 10
498.585011
 20
-58.158266
 30
0.0
 10
498.615526
 20
-57.809474
 30
0.0
  0
LINE
  5
1a2
100
AcDbEntity
  8
Layer_1
 62
2
100
AcDbLine
 10
498.615526
 20
-57.809474
 30
0.0
 11
500.275933
 21
-38.830938
 31
0.0
  0
SPLINE
  5
1a3
100
AcDbEntity
  8
Layer_1
 62
2
100
AcDbSpline
 70
8
 71
3
 72
8
 73
4
 74
0
 40
0
 40
0
 40
0
 40
0
 40
1
 40
1
 40
1
 40
1
 10
500.275933
 20
-38.830938
 30
0.0
 10
500.304816
 20
-38.500813
 30
0.0
 10
500.169811
 20
-38.177540
 30
0.0
 10
499.914722
 20
-37.966006
 30
0.0
  0
LINE
  5
1a4
100
AcDbEntity
  8
Layer_1
 62
2
100
AcDbLine
 10
499.914722
 20
-37.966006
 30
0.0
 11
491.801428
 21
-31.238054
 31
0.0
  0
SPLINE
  5
1a5
100
AcDbEntity
  8
Layer_1
 62
2
100
AcDbSpline
 70
8
 71
3
 72
8
 73
4
 74
0
 40
0
 40
0
 40
0
 40
0
 40
1
 40
1
 40
1
 40
1
 10
491.801428
 20
-31.238054
 30
0.0
 10
491.546380
 20
-31.026551
 30
0.0
 10
491.411561
 20
-30.703214
 30
0.0
 10
491.440806
 20
-30.373172
 30
0.0
  0
LINE
  5
1a6
100
AcDbEntity
  8
Layer_1
 62
2
100
AcDbLine
 10
491.440806
 20
-30.373172
 30
0.0
 11
492.446518
 21
-19.022393
 31
0.0
  0
SPLINE
  5
1a7
100
AcDbEntity
  8
Layer_1
 62
2
100
AcDbSpline
 70
8
 71
3
 72
8
 73
4
 74
0
 40
0
 40
0
 40
0
 40
0
 40
1
 40
1
 40
1
 40
1
 10
492.446518
 20
-19.022393
 30
0.0
 10
492.458901
 20
-18.882650
 30
0.0
 10
492.415223
 20
-18.743716
 30
0.0
 10
492.325106
 20
-18.636197
 30
0.0
  0
SPLINE
  5
1a8
100
AcDbEntity
  8
Layer_1
 62
2
100
AcDbSpline
 70
8
 71
3
 72
8
 73
4
 74
0
 40
0
 40
0
 40
0
 40
0
 40
1
 40
1
 40
1
 40
1
 10
492.325106
 20
-18.636197
 30
0.0
 10
492.234989
 20
-18.528678
 30
0.0
 10
492.105826
 20
-18.461395
 30
0.0
 10
491.966070
 20
-18.449167
 30
0.0
  0
LINE
  5
1a9
100
AcDbEntity
  8
Layer_1
 62
2
100
AcDbLine
 10
491.966070
 20
-18.449167
 30
0.0
 11
488.274840
 21
-18.126227
 31
0.0
  0
SPLINE
  5
1aa
100
AcDbEntity
  8
Layer_1
 62
2
100
AcDbSpline
 70
8
 71
3
 72
8
 73
4
 74
0
 40
0
 40
0
 40
0
 40
0
 40
1
 40
1
 40
1
 40
1
 10
488.274840
 20
-18.126227
 30
0.0
 10
488.135029
 20
-18.113996
 30
0.0
 10
488.005803
 20
-18.046725
 30
0.0
 10
487.915591
 20
-17.939215
 30
0.0
  0
SPLINE
  5
1ab
100
AcDbEntity
  8
Layer_1
 62
2
100
AcDbSpline
 70
8
 71
3
 72
8
 73
4
 74
0
 40
0
 40
0
 40
0
 40
0
 40
1
 40
1
 40
1
 40
1
 10
487.915591
 20
-17.939215
 30
0.0
 10
487.825379
 20
-17.831705
 30
0.0
 10
487.781571
 20
-17.692761
 30
0.0
 10
487.793804
 20
-17.552950
 30
0.0
  0
LINE
  5
1ac
100
AcDbEntity
  8
Layer_1
 62
2
100
AcDbLine
 10
487.793804
 20
-17.552950
 30
0.0
 11
489.361948
 21
0.371023
 31
0.0
  0
SPLINE
  5
1ad
100
AcDbEntity
  8
Layer_1
 62
2
100
AcDbSpline
 70
8
 71
3
 72
8
 73
4
 74
0
 40
0
 40
0
 40
0
 40
0
 40
1
 40
1
 40
1
 40
1
 10
489.361948
 20
0.371023
 30
0.0
 10
489.374181
 20
0.510834
 30
0.0
 10
489.330372
 20
0.649778
 30
0.0
 10
489.240161
 20
0.757288
 30
0.0
  0
SPLINE
  5
1ae
100
AcDbEntity
  8
Layer_1
 62
2
100
AcDbSpline
 70
8
 71
3
 72
8
 73
4
 74
0
 40
0
 40
0
 40
0
 40
0
 40
1
 40
1
 40
1
 40
1
 10
489.240161
 20
0.757288
 30
0.0
 10
489.149949
 20
0.864799
 30
0.0
 10
489.020723
 20
0.932069
 30
0.0
 10
488.880912
 20
0.944300
 30
0.0
  0
LINE
  5
1af
100
AcDbEntity
  8
Layer_1
 62
2
100
AcDbLine
 10
488.880912
 20
0.944300
 30
0.0
 11
487.419435
 21
1.072163
 31
0.0
  0
SPLINE
  5
1b0
100
AcDbEntity
  8
Layer_1
 62
2
100
AcDbSpline
 70
8
 71
3
 72
8
 73
4
 74
0
 40
0
 40
0
 40
0
 40
0
 40
1
 40
1
 40
1
 40
1
 10
487.419435
 20
1.072163
 30
0.0
 10
487.128297
 20
1.097634
 30
0.0
 10
486.913027
 20
1.354292
 30
0.0
 10
486.938667
 20
1.645416
 30
0.0
  0
SPLINE
  5
1b1
100
AcDbEntity
  8
Layer_1
 62
2
100
AcDbSpline
 70
8
 71
3
 72
8
 73
4
 74
0
 40
0
 40
0
 40
0
 40
0
 40
1
 40
1
 40
1
 40
1
 10
486.938667
 20
1.645416
 30
0.0
 10
487.024809
 20
2.623480
 30
0.0
 10
487.110812
 20
3.601566
 30
0.0
 10
487.197382
 20
4.579592
 30
0.0
  0
SPLINE
  5
1b2
100
AcDbEntity
  8
Layer_1
 62
2
100
AcDbSpline
 70
8
 71
3
 72
8
 73
4
 74
0
 40
0
 40
0
 40
0
 40
0
 40
1
 40
1
 40
1
 40
1
 10
487.197382
 20
4.579592
 30
0.0
 10
487.222923
 20
4.870724
 30
0.0
 10
487.007554
 20
5.127392
 30
0.0
 10
486.716416
 20
5.152863
 30
0.0
  0
LINE
  5
1b3
100
AcDbEntity
  8
Layer_1
 62
2
100
AcDbLine
 10
486.716416
 20
5.152863
 30
0.0
 11
451.442696
 21
8.238914
 31
0.0
  0
SPLINE
  5
1b4
100
AcDbEntity
  8
Layer_1
 62
2
100
AcDbSpline
 70
8
 71
3
 72
8
 73
4
 74
0
 40
0
 40
0
 40
0
 40
0
 40
1
 40
1
 40
1
 40
1
 10
451.442696
 20
8.238914
 30
0.0
 10
451.302885
 20
8.251146
 30
0.0
 10
451.163941
 20
8.207338
 30
0.0
 10
451.056431
 20
8.117126
 30
0.0
  0
SPLINE
  5
1b5
100
AcDbEntity
  8
Layer_1
 62
2
100
AcDbSpline
 70
8
 71
3
 72
8
 73
4
 74
0
 40
0
 40
0
 40
0
 40
0
 40
1
 40
1
 40
1
 40
1
 10
451.056431
 20
8.117126
 30
0.0
 10
450.948920
 20
8.026914
 30
0.0
 10
450.881650
 20
7.897688
 30
0.0
 10
450.869419
 20
7.757877
 30
0.0
  0
LINE
  5
1b6
100
AcDbEntity
  8
Layer_1
 62
2
100
AcDbLine
 10
450.869419
 20
7.757877
 30
0.0
 11
450.613888
 21
4.837144
 31
0.0
  0
SPLINE
  5
1b7
100
AcDbEntity
  8
Layer_1
 62
2
100
AcDbSpline
 70
8
 71
3
 72
8
 73
4
 74
0
 40
0
 40
0
 40
0
 40
0
 40
1
 40
1
 40
1
 40
1
 10
450.613888
 20
4.837144
 30
0.0
 10
450.588417
 20
4.546006
 30
0.0
 10
450.331707
 20
4.330149
 30
0.0
 10
450.040518
 20
4.355042
 30
0.0
  0
SPLINE
  5
1b8
100
AcDbEntity
  8
Layer_1
 62
2
100
AcDbSpline
 70
8
 71
3
 72
8
 73
4
 74
0
 40
0
 40
0
 40
0
 40
0
 40
1
 40
1
 40
1
 40
1
 10
450.040518
 20
4.355042
 30
0.0
 10
438.771644
 20
5.318455
 30
0.0
 10
427.505718
 20
6.316142
 30
0.0
 10
416.238436
 20
7.297986
 30
0.0
  0
SPLINE
  5
1b9
100
AcDbEntity
  8
Layer_1
 62
2
100
AcDbSpline
 70
8
 71
3
 72
8
 73
4
 74
0
 40
0
 40
0
 40
0
 40
0
 40
1
 40
1
 40
1
 40
1
 10
416.238436
 20
7.297986
 30
0.0
 10
415.947288
 20
7.323348
 30
0.0
 10
415.731821
 20
7.579934
 30
0.0
 10
415.757123
 20
7.871086
 30
0.0
  0
SPLINE
  5
1ba
100
AcDbEntity
  8
Layer_1
 62
2
100
AcDbSpline
 70
8
 71
3
 72
8
 73
4
 74
0
 40
0
 40
0
 40
0
 40
0
 40
1
 40
1
 40
1
 40
1
 10
415.757123
 20
7.871086
 30
0.0
 10
415.842187
 20
8.849907
 30
0.0
 10
415.927390
 20
9.828716
 30
0.0
 10
416.012024
 20
10.807565
 30
0.0
  0
SPLINE
  5
1bb
100
AcDbEntity
  8
Layer_1
 62
2
100
AcDbSpline
 70
8
 71
3
 72
8
 73
4
 74
0
 40
0
 40
0
 40
0
 40
0
 40
1
 40
1
 40
1
 40
1
 10
416.012024
 20
10.807565
 30
0.0
 10
416.037426
 20
11.098709
 30
0.0
 10
415.822055
 20
11.355366
 30
0.0
 10
415.530915
 20
11.380817
 30
0.0
  0
LINE
  5
1bc
100
AcDbEntity
  8
Layer_1
 62
2
100
AcDbLine
 10
415.530915
 20
11.380817
 30
0.0
 11
381.820439
 21
14.328094
 31
0.0
  0
SPLINE
  5
1bd
100
AcDbEntity
  8
Layer_1
 62
2
100
AcDbSpline
 70
8
 71
3
 72
8
 73
4
 74
0
 40
0
 40
0
 40
0
 40
0
 40
1
 40
1
 40
1
 40
1
 10
381.820439
 20
14.328094
 30
0.0
 10
381.680635
 20
14.340318
 30
0.0
 10
381.541702
 20
14.296498
 30
0.0
 10
381.434210
 20
14.206276
 30
0.0
  0
SPLINE
  5
1be
100
AcDbEntity
  8
Layer_1
 62
2
100
AcDbSpline
 70
8
 71
3
 72
8
 73
4
 74
0
 40
0
 40
0
 40
0
 40
0
 40
1
 40
1
 40
1
 40
1
 10
381.434210
 20
14.206276
 30
0.0
 10
381.326717
 20
14.116055
 30
0.0
 10
381.259472
 20
13.986824
 30
0.0
 10
381.247269
 20
13.847019
 30
0.0
  0
LINE
  5
1bf
100
AcDbEntity
  8
Layer_1
 62
2
100
AcDbLine
 10
381.247269
 20
13.847019
 30
0.0
 11
380.991313
 21
10.914658
 31
0.0
  0
SPLINE
  5
1c0
100
AcDbEntity
  8
Layer_1
 62
2
100
AcDbSpline
 70
8
 71
3
 72
8
 73
4
 74
0
 40
0
 40
0
 40
0
 40
0
 40
1
 40
1
 40
1
 40
1
 10
380.991313
 20
10.914658
 30
0.0
 10
380.979112
 20
10.774855
 30
0.0
 10
380.911866
 20
10.645627
 30
0.0
 10
380.804373
 20
10.555411
 30
0.0
  0
SPLINE
  5
1c1
100
AcDbEntity
  8
Layer_1
 62
2
100
AcDbSpline
 70
8
 71
3
 72
8
 73
4
 74
0
 40
0
 40
0
 40
0
 40
0
 40
1
 40
1
 40
1
 40
1
 10
380.804373
 20
10.555411
 30
0.0
 10
380.696879
 20
10.465194
 30
0.0
 10
380.557947
 20
10.421381
 30
0.0
 10
380.418146
 20
10.433612
 30
0.0
  0
LINE
  5
1c2
100
AcDbEntity
  8
Layer_1
 62
2
100
AcDbLine
 10
380.418146
 20
10.433612
 30
0.0
 11
380.416566
 21
10.433901
 31
0.0
  0
LINE
  5
1c3
100
AcDbEntity
  8
Layer_1
 62
2
100
AcDbLine
 10
564.854598
 20
2.805694
 30
0.0
 11
565.065361
 21
0.396666
 31
0.0
  0
SPLINE
  5
1c4
100
AcDbEntity
  8
Layer_1
 62
2
100
AcDbSpline
 70
8
 71
3
 72
8
 73
4
 74
0
 40
0
 40
0
 40
0
 40
0
 40
1
 40
1
 40
1
 40
1
 10
565.065361
 20
0.396666
 30
0.0
 10
565.090832
 20
0.105528
 30
0.0
 10
564.875447
 20
-0.150960
 30
0.0
 10
564.584284
 20
-0.176142
 30
0.0
  0
SPLINE
  5
1c5
100
AcDbEntity
  8
Layer_1
 62
2
100
AcDbSpline
 70
8
 71
3
 72
8
 73
4
 74
0
 40
0
 40
0
 40
0
 40
0
 40
1
 40
1
 40
1
 40
1
 10
564.584284
 20
-0.176142
 30
0.0
 10
564.097081
 20
-0.218265
 30
0.0
 10
563.609878
 20
-0.260388
 30
0.0
 10
563.122729
 20
-0.303008
 30
0.0
  0
SPLINE
  5
1c6
100
AcDbEntity
  8
Layer_1
 62
2
100
AcDbSpline
 70
8
 71
3
 72
8
 73
4
 74
0
 40
0
 40
0
 40
0
 40
0
 40
1
 40
1
 40
1
 40
1
 10
563.122729
 20
-0.303008
 30
0.0
 10
562.831576
 20
-0.328310
 30
0.0
 10
562.616208
 20
-0.584987
 30
0.0
 10
562.641679
 20
-0.876125
 30
0.0
  0
LINE
  5
1c7
100
AcDbEntity
  8
Layer_1
 62
2
100
AcDbLine
 10
562.641679
 20
-0.876125
 30
0.0
 11
564.302256
 21
-19.856613
 31
0.0
  0
SPLINE
  5
1c8
100
AcDbEntity
  8
Layer_1
 62
2
100
AcDbSpline
 70
8
 71
3
 72
8
 73
4
 74
0
 40
0
 40
0
 40
0
 40
0
 40
1
 40
1
 40
1
 40
1
 10
564.302256
 20
-19.856613
 30
0.0
 10
564.314487
 20
-19.996423
 30
0.0
 10
564.381757
 20
-20.125649
 30
0.0
 10
564.489268
 20
-20.215861
 30
0.0
  0
SPLINE
  5
1c9
100
AcDbEntity
  8
Layer_1
 62
2
100
AcDbSpline
 70
8
 71
3
 72
8
 73
4
 74
0
 40
0
 40
0
 40
0
 40
0
 40
1
 40
1
 40
1
 40
1
 10
564.489268
 20
-20.215861
 30
0.0
 10
564.596778
 20
-20.306073
 30
0.0
 10
564.735722
 20
-20.349881
 30
0.0
 10
564.875533
 20
-20.337649
 30
0.0
  0
LINE
  5
1ca
100
AcDbEntity
  8
Layer_1
 62
2
100
AcDbLine
 10
564.875533
 20
-20.337649
 30
0.0
 11
568.564820
 21
-20.014878
 31
0.0
  0
SPLINE
  5
1cb
100
AcDbEntity
  8
Layer_1
 62
2
100
AcDbSpline
 70
8
 71
3
 72
8
 73
4
 74
0
 40
0
 40
0
 40
0
 40
0
 40
1
 40
1
 40
1
 40
1
 10
568.564820
 20
-20.014878
 30
0.0
 10
568.855958
 20
-19.989407
 30
0.0
 10
569.112626
 20
-20.204776
 30
0.0
 10
569.138097
 20
-20.495914
 30
0.0
  0
SPLINE
  5
1cc
100
AcDbEntity
  8
Layer_1
 62
2
100
AcDbSpline
 70
8
 71
3
 72
8
 73
4
 74
0
 40
0
 40
0
 40
0
 40
0
 40
1
 40
1
 40
1
 40
1
 10
569.138097
 20
-20.495914
 30
0.0
 10
569.660802
 20
-26.470573
 30
0.0
 10
570.183527
 20
-32.445230
 30
0.0
 10
570.706241
 20
-38.419887
 30
0.0
  0
SPLINE
  5
1cd
100
AcDbEntity
  8
Layer_1
 62
2
100
AcDbSpline
 70
8
 71
3
 72
8
 73
4
 74
0
 40
0
 40
0
 40
0
 40
0
 40
1
 40
1
 40
1
 40
1
 10
570.706241
 20
-38.419887
 30
0.0
 10
570.731713
 20
-38.711025
 30
0.0
 10
570.988380
 20
-38.926395
 30
0.0
 10
571.279518
 20
-38.900924
 30
0.0
  0
LINE
  5
1ce
100
AcDbEntity
  8
Layer_1
 62
2
100
AcDbLine
 10
571.279518
 20
-38.900924
 30
0.0
 11
579.714348
 21
-38.162971
 31
0.0
  0
SPLINE
  5
1cf
100
AcDbEntity
  8
Layer_1
 62
2
100
AcDbSpline
 70
8
 71
3
 72
8
 73
4
 74
0
 40
0
 40
0
 40
0
 40
0
 40
1
 40
1
 40
1
 40
1
 10
579.714348
 20
-38.162971
 30
0.0
 10
579.854159
 20
-38.150739
 30
0.0
 10
579.993103
 20
-38.194547
 30
0.0
 10
580.100613
 20
-38.284759
 30
0.0
  0
SPLINE
  5
1d0
100
AcDbEntity
  8
Layer_1
 62
2
100
AcDbSpline
 70
8
 71
3
 72
8
 73
4
 74
0
 40
0
 40
0
 40
0
 40
0
 40
1
 40
1
 40
1
 40
1
 10
580.100613
 20
-38.284759
 30
0.0
 10
580.208124
 20
-38.374971
 30
0.0
 10
580.275394
 20
-38.504197
 30
0.0
 10
580.287625
 20
-38.644008
 30
0.0
  0
LINE
  5
1d1
100
AcDbEntity
  8
Layer_1
 62
2
100
AcDbLine
 10
580.287625
 20
-38.644008
 30
0.0
 11
581.763166
 21
-55.509524
 31
0.0
  0
SPLINE
  5
1d2
100
AcDbEntity
  8
Layer_1
 62
2
100
AcDbSpline
 70
8
 71
3
 72
8
 73
4
 74
0
 40
0
 40
0
 40
0
 40
0
 40
1
 40
1
 40
1
 40
1
 10
581.763166
 20
-55.509524
 30
0.0
 10
581.775399
 20
-55.649335
 30
0.0
 10
581.731591
 20
-55.788279
 30
0.0
 10
581.641379
 20
-55.895789
 30
0.0
  0
SPLINE
  5
1d3
100
AcDbEntity
  8
Layer_1
 62
2
100
AcDbSpline
 70
8
 71
3
 72
8
 73
4
 74
0
 40
0
 40
0
 40
0
 40
0
 40
1
 40
1
 40
1
 40
1
 10
581.641379
 20
-55.895789
 30
0.0
 10
581.551167
 20
-56.003300
 30
0.0
 10
581.421941
 20
-56.070570
 30
0.0
 10
581.282130
 20
-56.082801
 30
0.0
  0
LINE
  5
1d4
100
AcDbEntity
  8
Layer_1
 62
2
100
AcDbLine
 10
581.282130
 20
-56.082801
 30
0.0
 11
572.847300
 21
-56.820753
 31
0.0
  0
SPLINE
  5
1d5
100
AcDbEntity
  8
Layer_1
 62
2
100
AcDbSpline
 70
8
 71
3
 72
8
 73
4
 74
0
 40
0
 40
0
 40
0
 40
0
 40
1
 40
1
 40
1
 40
1
 10
572.847300
 20
-56.820753
 30
0.0
 10
572.556162
 20
-56.846224
 30
0.0
 10
572.340793
 20
-57.102891
 30
0.0
 10
572.366264
 20
-57.394029
 30
0.0
  0
SPLINE
  5
1d6
100
AcDbEntity
  8
Layer_1
 62
2
100
AcDbSpline
 70
8
 71
3
 72
8
 73
4
 74
0
 40
0
 40
0
 40
0
 40
0
 40
1
 40
1
 40
1
 40
1
 10
572.366264
 20
-57.394029
 30
0.0
 10
572.919790
 20
-63.720862
 30
0.0
 10
573.473306
 20
-70.047695
 30
0.0
 10
574.026841
 20
-76.374517
 30
0.0
  0
SPLINE
  5
1d7
100
AcDbEntity
  8
Layer_1
 62
2
100
AcDbSpline
 70
8
 71
3
 72
8
 73
4
 74
0
 40
0
 40
0
 40
0
 40
0
 40
1
 40
1
 40
1
 40
1
 10
574.026841
 20
-76.374517
 30
0.0
 10
574.052313
 20
-76.665655
 30
0.0
 10
574.308980
 20
-76.881024
 30
0.0
 10
574.600118
 20
-76.855553
 30
0.0
  0
LINE
  5
1d8
100
AcDbEntity
  8
Layer_1
 62
2
100
AcDbLine
 10
574.600118
 20
-76.855553
 30
0.0
 11
578.532606
 21
-76.511505
 31
0.0
  0
SPLINE
  5
1d9
100
AcDbEntity
  8
Layer_1
 62
2
100
AcDbSpline
 70
8
 71
3
 72
8
 73
4
 74
0
 40
0
 40
0
 40
0
 40
0
 40
1
 40
1
 40
1
 40
1
 10
578.532606
 20
-76.511505
 30
0.0
 10
578.672417
 20
-76.499272
 30
0.0
 10
578.811361
 20
-76.543080
 30
0.0
 10
578.918871
 20
-76.633292
 30
0.0
  0
SPLINE
  5
1da
100
AcDbEntity
  8
Layer_1
 62
2
100
AcDbSpline
 70
8
 71
3
 72
8
 73
4
 74
0
 40
0
 40
0
 40
0
 40
0
 40
1
 40
1
 40
1
 40
1
 10
578.918871
 20
-76.633292
 30
0.0
 10
579.026382
 20
-76.723504
 30
0.0
 10
579.093652
 20
-76.852730
 30
0.0
 10
579.105883
 20
-76.992541
 30
0.0
  0
LINE
  5
1db
100
AcDbEntity
  8
Layer_1
 62
2
100
AcDbLine
 10
579.105883
 20
-76.992541
 30
0.0
 11
579.362606
 21
-79.926902
 31
0.0
  0
SPLINE
  5
1dc
100
AcDbEntity
  8
Layer_1
 62
2
100
AcDbSpline
 70
8
 71
3
 72
8
 73
4
 74
0
 40
0
 40
0
 40
0
 40
0
 40
1
 40
1
 40
1
 40
1
 10
579.362606
 20
-79.926902
 30
0.0
 10
579.374837
 20
-80.066713
 30
0.0
 10
579.442107
 20
-80.195939
 30
0.0
 10
579.549618
 20
-80.286151
 30
0.0
  0
SPLINE
  5
1dd
100
AcDbEntity
  8
Layer_1
 62
2
100
AcDbSpline
 70
8
 71
3
 72
8
 73
4
 74
0
 40
0
 40
0
 40
0
 40
0
 40
1
 40
1
 40
1
 40
1
 10
579.549618
 20
-80.286151
 30
0.0
 10
579.657128
 20
-80.376363
 30
0.0
 10
579.796072
 20
-80.420171
 30
0.0
 10
579.935883
 20
-80.407938
 30
0.0
  0
LINE
  5
1de
100
AcDbEntity
  8
Layer_1
 62
2
100
AcDbLine
 10
579.935883
 20
-80.407938
 30
0.0
 11
615.209603
 21
-77.321888
 31
0.0
  0
SPLINE
  5
1df
100
AcDbEntity
  8
Layer_1
 62
2
100
AcDbSpline
 70
8
 71
3
 72
8
 73
4
 74
0
 40
0
 40
0
 40
0
 40
0
 40
1
 40
1
 40
1
 40
1
 10
615.209603
 20
-77.321888
 30
0.0
 10
615.500741
 20
-77.296416
 30
0.0
 10
615.716100
 20
-77.039750
 30
0.0
 10
615.690559
 20
-76.748618
 30
0.0
  0
SPLINE
  5
1e0
100
AcDbEntity
  8
Layer_1
 62
2
100
AcDbSpline
 70
8
 71
3
 72
8
 73
4
 74
0
 40
0
 40
0
 40
0
 40
0
 40
1
 40
1
 40
1
 40
1
 10
615.690559
 20
-76.748618
 30
0.0
 10
615.604880
 20
-75.771819
 30
0.0
 10
615.518820
 20
-74.795042
 30
0.0
 10
615.432184
 20
-73.818326
 30
0.0
  0
SPLINE
  5
1e1
100
AcDbEntity
  8
Layer_1
 62
2
100
AcDbSpline
 70
8
 71
3
 72
8
 73
4
 74
0
 40
0
 40
0
 40
0
 40
0
 40
1
 40
1
 40
1
 40
1
 10
615.432184
 20
-73.818326
 30
0.0
 10
615.406504
 20
-73.527207
 30
0.0
 10
615.621692
 20
-73.270535
 30
0.0
 10
615.912829
 20
-73.245044
 30
0.0
  0
SPLINE
  5
1e2
100
AcDbEntity
  8
Layer_1
 62
2
100
AcDbSpline
 70
8
 71
3
 72
8
 73
4
 74
0
 40
0
 40
0
 40
0
 40
0
 40
1
 40
1
 40
1
 40
1
 10
615.912829
 20
-73.245044
 30
0.0
 10
630.440010
 20
-71.973076
 30
0.0
 10
644.966166
 20
-70.689052
 30
0.0
 10
659.495099
 20
-69.437108
 30
0.0
  0
SPLINE
  5
1e3
100
AcDbEntity
  8
Layer_1
 62
2
100
AcDbSpline
 70
8
 71
3
 72
8
 73
4
 74
0
 40
0
 40
0
 40
0
 40
0
 40
1
 40
1
 40
1
 40
1
 10
659.495099
 20
-69.437108
 30
0.0
 10
659.786271
 20
-69.412026
 30
0.0
 10
660.042957
 20
-69.627725
 30
0.0
 10
660.068428
 20
-69.918863
 30
0.0
  0
LINE
  5
1e4
100
AcDbEntity
  8
Layer_1
 62
2
100
AcDbLine
 10
660.068428
 20
-69.918863
 30
0.0
 11
660.324300
 21
-72.843491
 31
0.0
  0
SPLINE
  5
1e5
100
AcDbEntity
  8
Layer_1
 62
2
100
AcDbSpline
 70
8
 71
3
 72
8
 73
4
 74
0
 40
0
 40
0
 40
0
 40
0
 40
1
 40
1
 40
1
 40
1
 10
660.324300
 20
-72.843491
 30
0.0
 10
660.336531
 20
-72.983302
 30
0.0
 10
660.403801
 20
-73.112528
 30
0.0
 10
660.511312
 20
-73.202740
 30
0.0
  0
SPLINE
  5
1e6
100
AcDbEntity
  8
Layer_1
 62
2
100
AcDbSpline
 70
8
 71
3
 72
8
 73
4
 74
0
 40
0
 40
0
 40
0
 40
0
 40
1
 40
1
 40
1
 40
1
 10
660.511312
 20
-73.202740
 30
0.0
 10
660.618822
 20
-73.292952
 30
0.0
 10
660.757766
 20
-73.336760
 30
0.0
 10
660.897577
 20
-73.324527
 30
0.0
  0
LINE
  5
1e7
100
AcDbEntity
  8
Layer_1
 62
2
100
AcDbLine
 10
660.897577
 20
-73.324527
 30
0.0
 11
691.863532
 21
-70.615357
 31
0.0
  0
SPLINE
  5
1e8
100
AcDbEntity
  8
Layer_1
 62
2
100
AcDbSpline
 70
8
 71
3
 72
8
 73
4
 74
0
 40
0
 40
0
 40
0
 40
0
 40
1
 40
1
 40
1
 40
1
 10
691.863532
 20
-70.615357
 30
0.0
 10
692.154670
 20
-70.589886
 30
0.0
 10
692.370049
 20
-70.333218
 30
0.0
 10
692.344647
 20
-70.042074
 30
0.0
  0
SPLINE
  5
1e9
100
AcDbEntity
  8
Layer_1
 62
2
100
AcDbSpline
 70
8
 71
3
 72
8
 73
4
 74
0
 40
0
 40
0
 40
0
 40
0
 40
1
 40
1
 40
1
 40
1
 10
692.344647
 20
-70.042074
 30
0.0
 10
692.259292
 20
-69.063931
 30
0.0
 10
692.174316
 20
-68.085765
 30
0.0
 10
692.089917
 20
-67.107538
 30
0.0
  0
SPLINE
  5
1ea
100
AcDbEntity
  8
Layer_1
 62
2
100
AcDbSpline
 70
8
 71
3
 72
8
 73
4
 74
0
 40
0
 40
0
 40
0
 40
0
 40
1
 40
1
 40
1
 40
1
 10
692.089917
 20
-67.107538
 30
0.0
 10
692.064654
 20
-66.816382
 30
0.0
 10
692.280203
 20
-66.559699
 30
0.0
 10
692.571341
 20
-66.534228
 30
0.0
  0
LINE
  5
1eb
100
AcDbEntity
  8
Layer_1
 62
2
100
AcDbLine
 10
692.571341
 20
-66.534228
 30
0.0
 11
697.965058
 21
-66.062339
 31
0.0
  0
SPLINE
  5
1ec
100
AcDbEntity
  8
Layer_1
 62
2
100
AcDbSpline
 70
8
 71
3
 72
8
 73
4
 74
0
 40
0
 40
0
 40
0
 40
0
 40
1
 40
1
 40
1
 40
1
 10
697.965058
 20
-66.062339
 30
0.0
 10
698.256196
 20
-66.036867
 30
0.0
 10
698.471585
 20
-65.780198
 30
0.0
 10
698.446134
 20
-65.489059
 30
0.0
  0
SPLINE
  5
1ed
100
AcDbEntity
  8
Layer_1
 62
2
100
AcDbSpline
 70
8
 71
3
 72
8
 73
4
 74
0
 40
0
 40
0
 40
0
 40
0
 40
1
 40
1
 40
1
 40
1
 10
698.446134
 20
-65.489059
 30
0.0
 10
696.234361
 20
-40.185429
 30
0.0
 10
694.021517
 20
-14.881030
 30
0.0
 10
691.806564
 20
10.424519
 30
0.0
  0
SPLINE
  5
1ee
100
AcDbEntity
  8
Layer_1
 62
2
100
AcDbSpline
 70
8
 71
3
 72
8
 73
4
 74
0
 40
0
 40
0
 40
0
 40
0
 40
1
 40
1
 40
1
 40
1
 10
691.806564
 20
10.424519
 30
0.0
 10
691.781083
 20
10.715656
 30
0.0
 10
691.524406
 20
10.931025
 30
0.0
 10
691.233268
 20
10.905553
 30
0.0
  0
LINE
  5
1ef
100
AcDbEntity
  8
Layer_1
 62
2
100
AcDbLine
 10
691.233268
 20
10.905553
 30
0.0
 11
685.835666
 21
10.433324
 31
0.0
  0
SPLINE
  5
1f0
100
AcDbEntity
  8
Layer_1
 62
2
100
AcDbSpline
 70
8
 71
3
 72
8
 73
4
 74
0
 40
0
 40
0
 40
0
 40
0
 40
1
 40
1
 40
1
 40
1
 10
685.835666
 20
10.433324
 30
0.0
 10
685.695855
 20
10.421092
 30
0.0
 10
685.556911
 20
10.464900
 30
0.0
 10
685.449401
 20
10.555112
 30
0.0
  0
SPLINE
  5
1f1
100
AcDbEntity
  8
Layer_1
 62
2
100
AcDbSpline
 70
8
 71
3
 72
8
 73
4
 74
0
 40
0
 40
0
 40
0
 40
0
 40
1
 40
1
 40
1
 40
1
 10
685.449401
 20
10.555112
 30
0.0
 10
685.341890
 20
10.645324
 30
0.0
 10
685.274620
 20
10.774550
 30
0.0
 10
685.262389
 20
10.914360
 30
0.0
  0
LINE
  5
1f2
100
AcDbEntity
  8
Layer_1
 62
2
100
AcDbLine
 10
685.262389
 20
10.914360
 30
0.0
 11
685.005667
 21
13.848712
 31
0.0
  0
SPLINE
  5
1f3
100
AcDbEntity
  8
Layer_1
 62
2
100
AcDbSpline
 70
8
 71
3
 72
8
 73
4
 74
0
 40
0
 40
0
 40
0
 40
0
 40
1
 40
1
 40
1
 40
1
 10
685.005667
 20
13.848712
 30
0.0
 10
684.993436
 20
13.988523
 30
0.0
 10
684.926166
 20
14.117748
 30
0.0
 10
684.818655
 20
14.207960
 30
0.0
  0
SPLINE
  5
1f4
100
AcDbEntity
  8
Layer_1
 62
2
100
AcDbSpline
 70
8
 71
3
 72
8
 73
4
 74
0
 40
0
 40
0
 40
0
 40
0
 40
1
 40
1
 40
1
 40
1
 10
684.818655
 20
14.207960
 30
0.0
 10
684.711145
 20
14.298172
 30
0.0
 10
684.572201
 20
14.341981
 30
0.0
 10
684.432390
 20
14.329748
 30
0.0
  0
LINE
  5
1f5
100
AcDbEntity
  8
Layer_1
 62
2
100
AcDbLine
 10
684.432390
 20
14.329748
 30
0.0
 11
653.466435
 21
11.620578
 31
0.0
  0
SPLINE
  5
1f6
100
AcDbEntity
  8
Layer_1
 62
2
100
AcDbSpline
 70
8
 71
3
 72
8
 73
4
 74
0
 40
0
 40
0
 40
0
 40
0
 40
1
 40
1
 40
1
 40
1
 10
653.466435
 20
11.620578
 30
0.0
 10
653.326624
 20
11.608347
 30
0.0
 10
653.197398
 20
11.541077
 30
0.0
 10
653.107186
 20
11.433566
 30
0.0
  0
SPLINE
  5
1f7
100
AcDbEntity
  8
Layer_1
 62
2
100
AcDbSpline
 70
8
 71
3
 72
8
 73
4
 74
0
 40
0
 40
0
 40
0
 40
0
 40
1
 40
1
 40
1
 40
1
 10
653.107186
 20
11.433566
 30
0.0
 10
653.016975
 20
11.326056
 30
0.0
 10
652.973166
 20
11.187112
 30
0.0
 10
652.985399
 20
11.047301
 30
0.0
  0
LINE
  5
1f8
100
AcDbEntity
  8
Layer_1
 62
2
100
AcDbLine
 10
652.985399
 20
11.047301
 30
0.0
 11
653.242292
 21
8.110998
 31
0.0
  0
SPLINE
  5
1f9
100
AcDbEntity
  8
Layer_1
 62
2
100
AcDbSpline
 70
8
 71
3
 72
8
 73
4
 74
0
 40
0
 40
0
 40
0
 40
0
 40
1
 40
1
 40
1
 40
1
 10
653.242292
 20
8.110998
 30
0.0
 10
653.267763
 20
7.819860
 30
0.0
 10
653.052393
 20
7.563202
 30
0.0
 10
652.761253
 20
7.537751
 30
0.0
  0
SPLINE
  5
1fa
100
AcDbEntity
  8
Layer_1
 62
2
100
AcDbSpline
 70
8
 71
3
 72
8
 73
4
 74
0
 40
0
 40
0
 40
0
 40
0
 40
1
 40
1
 40
1
 40
1
 10
652.761253
 20
7.537751
 30
0.0
 10
635.828382
 20
6.057150
 30
0.0
 10
618.895480
 20
4.576887
 30
0.0
 10
601.962681
 20
3.095459
 30
0.0
  0
SPLINE
  5
1fb
100
AcDbEntity
  8
Layer_1
 62
2
100
AcDbSpline
 70
8
 71
3
 72
8
 73
4
 74
0
 40
0
 40
0
 40
0
 40
0
 40
1
 40
1
 40
1
 40
1
 10
601.962681
 20
3.095459
 30
0.0
 10
601.671543
 20
3.069988
 30
0.0
 10
601.414975
 20
3.285366
 30
0.0
 10
601.389673
 20
3.576519
 30
0.0
  0
SPLINE
  5
1fc
100
AcDbEntity
  8
Layer_1
 62
2
100
AcDbSpline
 70
8
 71
3
 72
8
 73
4
 74
0
 40
0
 40
0
 40
0
 40
0
 40
1
 40
1
 40
1
 40
1
 10
601.389673
 20
3.576519
 30
0.0
 10
601.304667
 20
4.554682
 30
0.0
 10
601.219521
 20
5.532844
 30
0.0
 10
601.134943
 20
6.511044
 30
0.0
  0
SPLINE
  5
1fd
100
AcDbEntity
  8
Layer_1
 62
2
100
AcDbSpline
 70
8
 71
3
 72
8
 73
4
 74
0
 40
0
 40
0
 40
0
 40
0
 40
1
 40
1
 40
1
 40
1
 10
601.134943
 20
6.511044
 30
0.0
 10
601.109542
 20
6.802188
 30
0.0
 10
600.852874
 20
7.017558
 30
0.0
 10
600.561736
 20
6.992087
 30
0.0
  0
LINE
  5
1fe
100
AcDbEntity
  8
Layer_1
 62
2
100
AcDbLine
 10
600.561736
 20
6.992087
 30
0.0
 11
565.289969
 21
3.906207
 31
0.0
  0
SPLINE
  5
1ff
100
AcDbEntity
  8
Layer_1
 62
2
100
AcDbSpline
 70
8
 71
3
 72
8
 73
4
 74
0
 40
0
 40
0
 40
0
 40
0
 40
1
 40
1
 40
1
 40
1
 10
565.289969
 20
3.906207
 30
0.0
 10
565.150158
 20
3.893976
 30
0.0
 10
565.020932
 20
3.826706
 30
0.0
 10
564.930720
 20
3.719195
 30
0.0
  0
SPLINE
  5
200
100
AcDbEntity
  8
Layer_1
 62
2
100
AcDbSpline
 70
8
 71
3
 72
8
 73
4
 74
0
 40
0
 40
0
 40
0
 40
0
 40
1
 40
1
 40
1
 40
1
 10
564.930720
 20
3.719195
 30
0.0
 10
564.840508
 20
3.611685
 30
0.0
 10
564.796700
 20
3.472741
 30
0.0
 10
564.808933
 20
3.332930
 30
0.0
  0
LINE
  5
201
100
AcDbEntity
  8
Layer_1
 62
2
100
AcDbLine
 10
564.808933
 20
3.332930
 30
0.0
 11
564.808905
 21
3.332869
 31
0.0
  0
LINE
  5
202
100
AcDbEntity
  8
Layer_1
 62
2
100
AcDbLine
 10
564.808905
 20
3.332869
 30
0.0
 11
564.808838
 21
3.332862
 31
0.0
  0
LINE
  5
203
100
AcDbEntity
  8
Layer_1
 62
2
100
AcDbLine
 10
564.808838
 20
3.332862
 30
0.0
 11
564.854598
 21
2.805694
 31
0.0
  0
SPLINE
  5
204
100
AcDbEntity
  8
Layer_1
 62
2
100
AcDbSpline
 70
8
 71
3
 72
8
 73
4
 74
0
 40
0
 40
0
 40
0
 40
0
 40
1
 40
1
 40
1
 40
1
 10
488.002815
 20
11.890464
 30
0.0
 10
486.764903
 20
11.998768
 30
0.0
 10
485.673579
 20
11.083039
 30
0.0
 10
485.565276
 20
9.845127
 30
0.0
  0
SPLINE
  5
205
100
AcDbEntity
  8
Layer_1
 62
2
100
AcDbSpline
 70
8
 71
3
 72
8
 73
4
 74
0
 40
0
 40
0
 40
0
 40
0
 40
1
 40
1
 40
1
 40
1
 10
485.565276
 20
9.845127
 30
0.0
 10
485.456973
 20
8.607215
 30
0.0
 10
486.372702
 20
7.515891
 30
0.0
 10
487.610614
 20
7.407588
 30
0.0
  0
SPLINE
  5
206
100
AcDbEntity
  8
Layer_1
 62
2
100
AcDbSpline
 70
8
 71
3
 72
8
 73
4
 74
0
 40
0
 40
0
 40
0
 40
0
 40
1
 40
1
 40
1
 40
1
 10
487.610614
 20
7.407588
 30
0.0
 10
488.848526
 20
7.299285
 30
0.0
 10
489.939849
 20
8.215014
 30
0.0
 10
490.048152
 20
9.452926
 30
0.0
  0
SPLINE
  5
207
100
AcDbEntity
  8
Layer_1
 62
2
100
AcDbSpline
 70
8
 71
3
 72
8
 73
4
 74
0
 40
0
 40
0
 40
0
 40
0
 40
1
 40
1
 40
1
 40
1
 10
490.048152
 20
9.452926
 30
0.0
 10
490.100161
 20
10.047392
 30
0.0
 10
489.913889
 20
10.638171
 30
0.0
 10
489.530314
 20
11.095298
 30
0.0
  0
SPLINE
  5
208
100
AcDbEntity
  8
Layer_1
 62
2
100
AcDbSpline
 70
8
 71
3
 72
8
 73
4
 74
0
 40
0
 40
0
 40
0
 40
0
 40
1
 40
1
 40
1
 40
1
 10
489.530314
 20
11.095298
 30
0.0
 10
489.146739
 20
11.552426
 30
0.0
 10
488.597281
 20
11.838455
 30
0.0
 10
488.002815
 20
11.890464
 30
0.0
  0
LINE
  5
209
100
AcDbEntity
  8
Layer_1
 62
2
100
AcDbLine
 10
488.002815
 20
11.890464
 30
0.0
 11
488.002815
 21
11.890464
 31
0.0
  0
SPLINE
  5
20a
100
AcDbEntity
  8
Layer_1
 62
2
100
AcDbSpline
 70
8
 71
3
 72
8
 73
4
 74
0
 40
0
 40
0
 40
0
 40
0
 40
1
 40
1
 40
1
 40
1
 10
391.099838
 20
20.368376
 30
0.0
 10
390.193261
 20
20.447691
 30
0.0
 10
389.328173
 20
19.973088
 30
0.0
 10
388.907964
 20
19.165873
 30
0.0
  0
SPLINE
  5
20b
100
AcDbEntity
  8
Layer_1
 62
2
100
AcDbSpline
 70
8
 71
3
 72
8
 73
4
 74
0
 40
0
 40
0
 40
0
 40
0
 40
1
 40
1
 40
1
 40
1
 10
388.907964
 20
19.165873
 30
0.0
 10
388.487754
 20
18.358657
 30
0.0
 10
388.595175
 20
17.377797
 30
0.0
 10
389.180138
 20
16.680666
 30
0.0
  0
SPLINE
  5
20c
100
AcDbEntity
  8
Layer_1
 62
2
100
AcDbSpline
 70
8
 71
3
 72
8
 73
4
 74
0
 40
0
 40
0
 40
0
 40
0
 40
1
 40
1
 40
1
 40
1
 10
389.180138
 20
16.680666
 30
0.0
 10
389.765100
 20
15.983535
 30
0.0
 10
390.712405
 20
15.707421
 30
0.0
 10
391.580326
 20
15.981075
 30
0.0
  0
SPLINE
  5
20d
100
AcDbEntity
  8
Layer_1
 62
2
100
AcDbSpline
 70
8
 71
3
 72
8
 73
4
 74
0
 40
0
 40
0
 40
0
 40
0
 40
1
 40
1
 40
1
 40
1
 10
391.580326
 20
15.981075
 30
0.0
 10
392.448247
 20
16.254729
 30
0.0
 10
393.065861
 20
17.024261
 30
0.0
 10
393.145176
 20
17.930838
 30
0.0
  0
SPLINE
  5
20e
100
AcDbEntity
  8
Layer_1
 62
2
100
AcDbSpline
 70
8
 71
3
 72
8
 73
4
 74
0
 40
0
 40
0
 40
0
 40
0
 40
1
 40
1
 40
1
 40
1
 10
393.145176
 20
17.930838
 30
0.0
 10
393.197185
 20
18.525304
 30
0.0
 10
393.010913
 20
19.116083
 30
0.0
 10
392.627338
 20
19.573210
 30
0.0
  0
SPLINE
  5
20f
100
AcDbEntity
  8
Layer_1
 62
2
100
AcDbSpline
 70
8
 71
3
 72
8
 73
4
 74
0
 40
0
 40
0
 40
0
 40
0
 40
1
 40
1
 40
1
 40
1
 10
392.627338
 20
19.573210
 30
0.0
 10
392.243763
 20
20.030337
 30
0.0
 10
391.694305
 20
20.316367
 30
0.0
 10
391.099838
 20
20.368376
 30
0.0
  0
LINE
  5
210
100
AcDbEntity
  8
Layer_1
 62
2
100
AcDbLine
 10
391.099838
 20
20.368376
 30
0.0
 11
391.099838
 21
20.368376
 31
0.0
  0
SPLINE
  5
211
100
AcDbEntity
  8
Layer_1
 62
2
100
AcDbSpline
 70
8
 71
3
 72
8
 73
4
 74
0
 40
0
 40
0
 40
0
 40
0
 40
1
 40
1
 40
1
 40
1
 10
674.199839
 20
20.284612
 30
0.0
 10
673.293262
 20
20.205297
 30
0.0
 10
672.523731
 20
19.587683
 30
0.0
 10
672.250076
 20
18.719762
 30
0.0
  0
SPLINE
  5
212
100
AcDbEntity
  8
Layer_1
 62
2
100
AcDbSpline
 70
8
 71
3
 72
8
 73
4
 74
0
 40
0
 40
0
 40
0
 40
0
 40
1
 40
1
 40
1
 40
1
 10
672.250076
 20
18.719762
 30
0.0
 10
671.976422
 20
17.851841
 30
0.0
 10
672.252536
 20
16.904537
 30
0.0
 10
672.949667
 20
16.319574
 30
0.0
  0
SPLINE
  5
213
100
AcDbEntity
  8
Layer_1
 62
2
100
AcDbSpline
 70
8
 71
3
 72
8
 73
4
 74
0
 40
0
 40
0
 40
0
 40
0
 40
1
 40
1
 40
1
 40
1
 10
672.949667
 20
16.319574
 30
0.0
 10
673.646799
 20
15.734612
 30
0.0
 10
674.627659
 20
15.627190
 30
0.0
 10
675.434874
 20
16.047400
 30
0.0
  0
SPLINE
  5
214
100
AcDbEntity
  8
Layer_1
 62
2
100
AcDbSpline
 70
8
 71
3
 72
8
 73
4
 74
0
 40
0
 40
0
 40
0
 40
0
 40
1
 40
1
 40
1
 40
1
 10
675.434874
 20
16.047400
 30
0.0
 10
676.242089
 20
16.467609
 30
0.0
 10
676.716693
 20
17.332697
 30
0.0
 10
676.637378
 20
18.239274
 30
0.0
  0
SPLINE
  5
215
100
AcDbEntity
  8
Layer_1
 62
2
100
AcDbSpline
 70
8
 71
3
 72
8
 73
4
 74
0
 40
0
 40
0
 40
0
 40
0
 40
1
 40
1
 40
1
 40
1
 10
676.637378
 20
18.239274
 30
0.0
 10
676.585369
 20
18.833741
 30
0.0
 10
676.299339
 20
19.383199
 30
0.0
 10
675.842212
 20
19.766774
 30
0.0
  0
SPLINE
  5
216
100
AcDbEntity
  8
Layer_1
 62
2
100
AcDbSpline
 70
8
 71
3
 72
8
 73
4
 74
0
 40
0
 40
0
 40
0
 40
0
 40
1
 40
1
 40
1
 40
1
 10
675.842212
 20
19.766774
 30
0.0
 10
675.385084
 20
20.150349
 30
0.0
 10
674.794305
 20
20.336621
 30
0.0
 10
674.199839
 20
20.284612
 30
0.0
  0
LINE
  5
217
100
AcDbEntity
  8
Layer_1
 62
2
100
AcDbLine
 10
674.199839
 20
20.284612
 30
0.0
 11
674.199839
 21
20.284612
 31
0.0
  0
SPLINE
  5
218
100
AcDbEntity
  8
Layer_1
 62
2
100
AcDbSpline
 70
8
 71
3
 72
8
 73
4
 74
0
 40
0
 40
0
 40
0
 40
0
 40
1
 40
1
 40
1
 40
1
 10
577.296863
 20
11.806700
 30
0.0
 10
576.390286
 20
11.727385
 30
0.0
 10
575.620754
 20
11.109771
 30
0.0
 10
575.347100
 20
10.241850
 30
0.0
  0
SPLINE
  5
219
100
AcDbEntity
  8
Layer_1
 62
2
100
AcDbSpline
 70
8
 71
3
 72
8
 73
4
 74
0
 40
0
 40
0
 40
0
 40
0
 40
1
 40
1
 40
1
 40
1
 10
575.347100
 20
10.241850
 30
0.0
 10
575.073446
 20
9.373930
 30
0.0
 10
575.349560
 20
8.426625
 30
0.0
 10
576.046691
 20
7.841662
 30
0.0
  0
SPLINE
  5
21a
100
AcDbEntity
  8
Layer_1
 62
2
100
AcDbSpline
 70
8
 71
3
 72
8
 73
4
 74
0
 40
0
 40
0
 40
0
 40
0
 40
1
 40
1
 40
1
 40
1
 10
576.046691
 20
7.841662
 30
0.0
 10
576.743822
 20
7.256700
 30
0.0
 10
577.724682
 20
7.149278
 30
0.0
 10
578.531898
 20
7.569488
 30
0.0
  0
SPLINE
  5
21b
100
AcDbEntity
  8
Layer_1
 62
2
100
AcDbSpline
 70
8
 71
3
 72
8
 73
4
 74
0
 40
0
 40
0
 40
0
 40
0
 40
1
 40
1
 40
1
 40
1
 10
578.531898
 20
7.569488
 30
0.0
 10
579.339113
 20
7.989698
 30
0.0
 10
579.813716
 20
8.854786
 30
0.0
 10
579.734401
 20
9.761363
 30
0.0
  0
SPLINE
  5
21c
100
AcDbEntity
  8
Layer_1
 62
2
100
AcDbSpline
 70
8
 71
3
 72
8
 73
4
 74
0
 40
0
 40
0
 40
0
 40
0
 40
1
 40
1
 40
1
 40
1
 10
579.734401
 20
9.761363
 30
0.0
 10
579.682392
 20
10.355829
 30
0.0
 10
579.396362
 20
10.905287
 30
0.0
 10
578.939235
 20
11.288862
 30
0.0
  0
SPLINE
  5
21d
100
AcDbEntity
  8
Layer_1
 62
2
100
AcDbSpline
 70
8
 71
3
 72
8
 73
4
 74
0
 40
0
 40
0
 40
0
 40
0
 40
1
 40
1
 40
1
 40
1
 10
578.939235
 20
11.288862
 30
0.0
 10
578.482108
 20
11.672437
 30
0.0
 10
577.891329
 20
11.858709
 30
0.0
 10
577.296863
 20
11.806700
 30
0.0
  0
LINE
  5
21e
100
AcDbEntity
  8
Layer_1
 62
2
100
AcDbLine
 10
577.296863
 20
11.806700
 30
0.0
 11
577.296863
 21
11.806700
 31
0.0
  0
ENDSEC
  0
SECTION
  2
OBJECTS
  0
DICTIONARY
  5
C
330
0
100
AcDbDictionary
  3
ACAD_GROUP
350
D
  3
ACAD_MLINESTYLE
350
17
  0
DICTIONARY
  5
D
330
C
100
AcDbDictionary
  0
DICTIONARY
  5
1A
330
C
100
AcDbDictionary
  0
DICTIONARY
  5
17
330
C
100
AcDbDictionary
  3
STANDARD
350
18
  0
DICTIONARY
  5
19
330
C
100
AcDbDictionary
  0
ENDSEC
  0
EOF
