  0
SECTION
  2
HEADER
  9
$ACADVER
  1
AC1014
  9
$HANDSEED
  5
FFFF
  9
$INSUNITS
 70
     0
  9
$MEASUREMENT
 70
     1
  0
ENDSEC
  0
SECTION
  2
TABLES
  0
TABLE
  2
VPORT
  5
8
330
0
100
AcDbSymbolTable
 70
     4
  0
VPORT
  5
2E
330
8
100
AcDbSymbolTableRecord
100
AcDbViewportTableRecord
  2
*ACTIVE
 70
     0
 10
0.0
 20
0.0
 11
1.0
 21
1.0
 12
210.0
 22
148.5
 13
0.0
 23
0.0
 14
10.0
 24
10.0
 15
10.0
 25
10.0
 16
0.0
 26
0.0
 36
1.0
 17
0.0
 27
0.0
 37
0.0
 40
341.0
 41
1.24
 42
50.0
 43
0.0
 44
0.0
 50
0.0
 51
0.0
 71
     0
 72
   100
 73
     1
 74
     3
 75
     0
 76
     0
 77
     0
 78
     0
  0
ENDTAB
  0
TABLE
  2
LTYPE
  5
5
330
0
100
AcDbSymbolTable
 70
     1
  0
LTYPE
  5
14
330
5
100
AcDbSymbolTableRecord
100
AcDbLinetypeTableRecord
  2
BYBLOCK
 70
     0
  3

 72
    65
 73
     0
 40
0.0
  0
LTYPE
  5
15
330
5
100
AcDbSymbolTableRecord
100
AcDbLinetypeTableRecord
  2
BYLAYER
 70
     0
  3

 72
    65
 73
     0
 40
0.0
  0
LTYPE
  5
16
330
5
100
AcDbSymbolTableRecord
100
AcDbLinetypeTableRecord
  2
CONTINUOUS
 70
     0
  3
Solid line
 72
    65
 73
     0
 40
0.0
  0
ENDTAB
  0
TABLE
  2
LAYER
  5
2
100
AcDbSymbolTable
 70
2
  0
LAYER
  5
50
100
AcDbSymbolTableRecord
100
AcDbLayerTableRecord
  2
0
 70
0
  6
CONTINUOUS
  0
LAYER
  5
51
100
AcDbSymbolTableRecord
100
AcDbLayerTableRecord
  2
Layer_1
 70
0
  6
CONTINUOUS
  0
ENDTAB
  0
TABLE
  2
STYLE
  5
3
330
0
100
AcDbSymbolTable
 70
     1
  0
STYLE
  5
11
330
3
100
AcDbSymbolTableRecord
100
AcDbTextStyleTableRecord
  2
STANDARD
 70
     0
 40
0.0
 41
1.0
 50
0.0
 71
     0
 42
2.5
  3
txt
  4

  0
ENDTAB
  0
TABLE
  2
VIEW
  5
6
330
0
100
AcDbSymbolTable
 70
     0
  0
ENDTAB
  0
TABLE
  2
UCS
  5
7
330
0
100
AcDbSymbolTable
 70
     0
  0
ENDTAB
  0
TABLE
  2
APPID
  5
9
330
0
100
AcDbSymbolTable
 70
     2
  0
APPID
  5
12
330
9
100
AcDbSymbolTableRecord
100
AcDbRegAppTableRecord
  2
ACAD
 70
     0
  0
ENDTAB
  0
TABLE
  2
DIMSTYLE
  5
A
330
0
100
AcDbSymbolTable
 70
     1
  0
DIMSTYLE
105
27
330
A
100
AcDbSymbolTableRecord
100
AcDbDimStyleTableRecord
  2
ISO-25
 70
     0
  3

  4

  5

  6

  7

 40
1.0
 41
2.5
 42
0.625
 43
3.75
 44
1.25
 45
0.0
 46
0.0
 47
0.0
 48
0.0
140
2.5
141
2.5
142
0.0
143
0.03937007874016
144
1.0
145
0.0
146
1.0
147
0.625
 71
     0
 72
     0
 73
     0
 74
     0
 75
     0
 76
     0
 77
     1
 78
     8
170
     0
171
     3
172
     1
173
     0
174
     0
175
     0
176
     0
177
     0
178
     0
270
     2
271
     2
272
     2
273
     2
274
     3
340
11
275
     0
280
     0
281
     0
282
     0
283
     0
284
     8
285
     0
286
     0
287
     3
288
     0
  0
ENDTAB
  0
TABLE
  2
BLOCK_RECORD
  5
1
330
0
100
AcDbSymbolTable
 70
     1
  0
BLOCK_RECORD
  5
1F
330
1
100
AcDbSymbolTableRecord
100
AcDbBlockTableRecord
  2
*MODEL_SPACE
  0
BLOCK_RECORD
  5
1B
330
1
100
AcDbSymbolTableRecord
100
AcDbBlockTableRecord
  2
*PAPER_SPACE
  0
ENDTAB
  0
ENDSEC
  0
SECTION
  2
BLOCKS
  0
BLOCK
  5
20
330
1F
100
AcDbEntity
  8
0
100
AcDbBlockBegin
  2
*MODEL_SPACE
 70
     0
 10
0.0
 20
0.0
 30
0.0
  3
*MODEL_SPACE
  1

  0
ENDBLK
  5
21
330
1F
100
AcDbEntity
  8
0
100
AcDbBlockEnd
  0
BLOCK
  5
1C
330
1B
100
AcDbEntity
 67
     1
  8
0
100
AcDbBlockBegin
  2
*PAPER_SPACE
  1

  0
ENDBLK
  5
1D
330
1B
100
AcDbEntity
 67
     1
  8
0
100
AcDbBlockEnd
  0
ENDSEC
  0
SECTION
  2
ENTITIES
  0
SPLINE
  5
100
100
AcDbEntity
  8
Layer_1
 62
4
100
AcDbSpline
 70
8
 71
3
 72
8
 73
4
 74
0
 40
0
 40
0
 40
0
 40
0
 40
1
 40
1
 40
1
 40
1
 10
368.081353
 20
-70.279348
 30
0.0
 10
367.450778
 20
-70.224180
 30
0.0
 10
366.849061
 20
-70.554293
 30
0.0
 10
366.556782
 20
-71.115756
 30
0.0
  0
SPLINE
  5
101
100
AcDbEntity
  8
Layer_1
 62
4
100
AcDbSpline
 70
8
 71
3
 72
8
 73
4
 74
0
 40
0
 40
0
 40
0
 40
0
 40
1
 40
1
 40
1
 40
1
 10
366.556782
 20
-71.115756
 30
0.0
 10
366.264503
 20
-71.677220
 30
0.0
 10
366.339221
 20
-72.359463
 30
0.0
 10
366.746095
 20
-72.844356
 30
0.0
  0
SPLINE
  5
102
100
AcDbEntity
  8
Layer_1
 62
4
100
AcDbSpline
 70
8
 71
3
 72
8
 73
4
 74
0
 40
0
 40
0
 40
0
 40
0
 40
1
 40
1
 40
1
 40
1
 10
366.746095
 20
-72.844356
 30
0.0
 10
367.152969
 20
-73.329250
 30
0.0
 10
367.811872
 20
-73.521303
 30
0.0
 10
368.415559
 20
-73.330961
 30
0.0
  0
SPLINE
  5
103
100
AcDbEntity
  8
Layer_1
 62
4
100
AcDbSpline
 70
8
 71
3
 72
8
 73
4
 74
0
 40
0
 40
0
 40
0
 40
0
 40
1
 40
1
 40
1
 40
1
 10
368.415559
 20
-73.330961
 30
0.0
 10
369.019247
 20
-73.140619
 30
0.0
 10
369.448832
 20
-72.605367
 30
0.0
 10
369.504000
 20
-71.974792
 30
0.0
  0
SPLINE
  5
104
100
AcDbEntity
  8
Layer_1
 62
4
100
AcDbSpline
 70
8
 71
3
 72
8
 73
4
 74
0
 40
0
 40
0
 40
0
 40
0
 40
1
 40
1
 40
1
 40
1
 10
369.504000
 20
-71.974792
 30
0.0
 10
369.579331
 20
-71.113755
 30
0.0
 10
368.942390
 20
-70.354679
 30
0.0
 10
368.081353
 20
-70.279348
 30
0.0
  0
LINE
  5
105
100
AcDbEntity
  8
Layer_1
 62
4
100
AcDbLine
 10
368.081353
 20
-70.279348
 30
0.0
 11
368.081353
 21
-70.279348
 31
0.0
  0
SPLINE
  5
106
100
AcDbEntity
  8
Layer_1
 62
4
100
AcDbSpline
 70
8
 71
3
 72
8
 73
4
 74
0
 40
0
 40
0
 40
0
 40
0
 40
1
 40
1
 40
1
 40
1
 10
375.823696
 20
18.216111
 30
0.0
 10
375.193122
 20
18.271279
 30
0.0
 10
374.591405
 20
17.941166
 30
0.0
 10
374.299125
 20
17.379702
 30
0.0
  0
SPLINE
  5
107
100
AcDbEntity
  8
Layer_1
 62
4
100
AcDbSpline
 70
8
 71
3
 72
8
 73
4
 74
0
 40
0
 40
0
 40
0
 40
0
 40
1
 40
1
 40
1
 40
1
 10
374.299125
 20
17.379702
 30
0.0
 10
374.006846
 20
16.818239
 30
0.0
 10
374.081564
 20
16.135996
 30
0.0
 10
374.488438
 20
15.651102
 30
0.0
  0
SPLINE
  5
108
100
AcDbEntity
  8
Layer_1
 62
4
100
AcDbSpline
 70
8
 71
3
 72
8
 73
4
 74
0
 40
0
 40
0
 40
0
 40
0
 40
1
 40
1
 40
1
 40
1
 10
374.488438
 20
15.651102
 30
0.0
 10
374.895312
 20
15.166209
 30
0.0
 10
375.554215
 20
14.974156
 30
0.0
 10
376.157903
 20
15.164498
 30
0.0
  0
SPLINE
  5
109
100
AcDbEntity
  8
Layer_1
 62
4
100
AcDbSpline
 70
8
 71
3
 72
8
 73
4
 74
0
 40
0
 40
0
 40
0
 40
0
 40
1
 40
1
 40
1
 40
1
 10
376.157903
 20
15.164498
 30
0.0
 10
376.761590
 20
15.354840
 30
0.0
 10
377.191175
 20
15.890092
 30
0.0
 10
377.246343
 20
16.520667
 30
0.0
  0
SPLINE
  5
10a
100
AcDbEntity
  8
Layer_1
 62
4
100
AcDbSpline
 70
8
 71
3
 72
8
 73
4
 74
0
 40
0
 40
0
 40
0
 40
0
 40
1
 40
1
 40
1
 40
1
 10
377.246343
 20
16.520667
 30
0.0
 10
377.321674
 20
17.381704
 30
0.0
 10
376.684733
 20
18.140780
 30
0.0
 10
375.823696
 20
18.216111
 30
0.0
  0
LINE
  5
10b
100
AcDbEntity
  8
Layer_1
 62
4
100
AcDbLine
 10
375.823696
 20
18.216111
 30
0.0
 11
375.823696
 21
18.216111
 31
0.0
  0
SPLINE
  5
10c
100
AcDbEntity
  8
Layer_1
 62
4
100
AcDbSpline
 70
8
 71
3
 72
8
 73
4
 74
0
 40
0
 40
0
 40
0
 40
0
 40
1
 40
1
 40
1
 40
1
 10
504.332660
 20
15.528521
 30
0.0
 10
503.702086
 20
15.583689
 30
0.0
 10
503.100369
 20
15.253576
 30
0.0
 10
502.808089
 20
14.692112
 30
0.0
  0
SPLINE
  5
10d
100
AcDbEntity
  8
Layer_1
 62
4
100
AcDbSpline
 70
8
 71
3
 72
8
 73
4
 74
0
 40
0
 40
0
 40
0
 40
0
 40
1
 40
1
 40
1
 40
1
 10
502.808089
 20
14.692112
 30
0.0
 10
502.515810
 20
14.130649
 30
0.0
 10
502.590528
 20
13.448406
 30
0.0
 10
502.997402
 20
12.963513
 30
0.0
  0
SPLINE
  5
10e
100
AcDbEntity
  8
Layer_1
 62
4
100
AcDbSpline
 70
8
 71
3
 72
8
 73
4
 74
0
 40
0
 40
0
 40
0
 40
0
 40
1
 40
1
 40
1
 40
1
 10
502.997402
 20
12.963513
 30
0.0
 10
503.404276
 20
12.478619
 30
0.0
 10
504.063179
 20
12.286566
 30
0.0
 10
504.666867
 20
12.476908
 30
0.0
  0
SPLINE
  5
10f
100
AcDbEntity
  8
Layer_1
 62
4
100
AcDbSpline
 70
8
 71
3
 72
8
 73
4
 74
0
 40
0
 40
0
 40
0
 40
0
 40
1
 40
1
 40
1
 40
1
 10
504.666867
 20
12.476908
 30
0.0
 10
505.270554
 20
12.667250
 30
0.0
 10
505.700139
 20
13.202502
 30
0.0
 10
505.755307
 20
13.833077
 30
0.0
  0
SPLINE
  5
110
100
AcDbEntity
  8
Layer_1
 62
4
100
AcDbSpline
 70
8
 71
3
 72
8
 73
4
 74
0
 40
0
 40
0
 40
0
 40
0
 40
1
 40
1
 40
1
 40
1
 10
505.755307
 20
13.833077
 30
0.0
 10
505.791482
 20
14.246561
 30
0.0
 10
505.661920
 20
14.657481
 30
0.0
 10
505.395122
 20
14.975439
 30
0.0
  0
SPLINE
  5
111
100
AcDbEntity
  8
Layer_1
 62
4
100
AcDbSpline
 70
8
 71
3
 72
8
 73
4
 74
0
 40
0
 40
0
 40
0
 40
0
 40
1
 40
1
 40
1
 40
1
 10
505.395122
 20
14.975439
 30
0.0
 10
505.128324
 20
15.293396
 30
0.0
 10
504.746145
 20
15.492346
 30
0.0
 10
504.332660
 20
15.528521
 30
0.0
  0
LINE
  5
112
100
AcDbEntity
  8
Layer_1
 62
4
100
AcDbLine
 10
504.332660
 20
15.528521
 30
0.0
 11
504.332660
 21
15.528521
 31
0.0
  0
SPLINE
  5
113
100
AcDbEntity
  8
Layer_1
 62
4
100
AcDbSpline
 70
8
 71
3
 72
8
 73
4
 74
0
 40
0
 40
0
 40
0
 40
0
 40
1
 40
1
 40
1
 40
1
 10
495.849310
 20
-81.436697
 30
0.0
 10
495.218735
 20
-81.381529
 30
0.0
 10
494.617018
 20
-81.711642
 30
0.0
 10
494.324739
 20
-82.273106
 30
0.0
  0
SPLINE
  5
114
100
AcDbEntity
  8
Layer_1
 62
4
100
AcDbSpline
 70
8
 71
3
 72
8
 73
4
 74
0
 40
0
 40
0
 40
0
 40
0
 40
1
 40
1
 40
1
 40
1
 10
494.324739
 20
-82.273106
 30
0.0
 10
494.032459
 20
-82.834569
 30
0.0
 10
494.107177
 20
-83.516812
 30
0.0
 10
494.514051
 20
-84.001706
 30
0.0
  0
SPLINE
  5
115
100
AcDbEntity
  8
Layer_1
 62
4
100
AcDbSpline
 70
8
 71
3
 72
8
 73
4
 74
0
 40
0
 40
0
 40
0
 40
0
 40
1
 40
1
 40
1
 40
1
 10
494.514051
 20
-84.001706
 30
0.0
 10
494.920925
 20
-84.486599
 30
0.0
 10
495.579829
 20
-84.678652
 30
0.0
 10
496.183516
 20
-84.488310
 30
0.0
  0
SPLINE
  5
116
100
AcDbEntity
  8
Layer_1
 62
4
100
AcDbSpline
 70
8
 71
3
 72
8
 73
4
 74
0
 40
0
 40
0
 40
0
 40
0
 40
1
 40
1
 40
1
 40
1
 10
496.183516
 20
-84.488310
 30
0.0
 10
496.787203
 20
-84.297968
 30
0.0
 10
497.216788
 20
-83.762716
 30
0.0
 10
497.271956
 20
-83.132141
 30
0.0
  0
SPLINE
  5
117
100
AcDbEntity
  8
Layer_1
 62
4
100
AcDbSpline
 70
8
 71
3
 72
8
 73
4
 74
0
 40
0
 40
0
 40
0
 40
0
 40
1
 40
1
 40
1
 40
1
 10
497.271956
 20
-83.132141
 30
0.0
 10
497.308132
 20
-82.718657
 30
0.0
 10
497.178569
 20
-82.307737
 30
0.0
 10
496.911771
 20
-81.989779
 30
0.0
  0
SPLINE
  5
118
100
AcDbEntity
  8
Layer_1
 62
4
100
AcDbSpline
 70
8
 71
3
 72
8
 73
4
 74
0
 40
0
 40
0
 40
0
 40
0
 40
1
 40
1
 40
1
 40
1
 10
496.911771
 20
-81.989779
 30
0.0
 10
496.644973
 20
-81.671822
 30
0.0
 10
496.262794
 20
-81.472872
 30
0.0
 10
495.849310
 20
-81.436697
 30
0.0
  0
LINE
  5
119
100
AcDbEntity
  8
Layer_1
 62
4
100
AcDbLine
 10
495.849310
 20
-81.436697
 30
0.0
 11
495.849310
 21
-81.436697
 31
0.0
  0
SPLINE
  5
11a
100
AcDbEntity
  8
Layer_1
 62
4
100
AcDbSpline
 70
8
 71
3
 72
8
 73
4
 74
0
 40
0
 40
0
 40
0
 40
0
 40
1
 40
1
 40
1
 40
1
 10
500.548587
 20
-27.723666
 30
0.0
 10
499.918013
 20
-27.668498
 30
0.0
 10
499.316296
 20
-27.998611
 30
0.0
 10
499.024016
 20
-28.560074
 30
0.0
  0
SPLINE
  5
11b
100
AcDbEntity
  8
Layer_1
 62
4
100
AcDbSpline
 70
8
 71
3
 72
8
 73
4
 74
0
 40
0
 40
0
 40
0
 40
0
 40
1
 40
1
 40
1
 40
1
 10
499.024016
 20
-28.560074
 30
0.0
 10
498.731737
 20
-29.121538
 30
0.0
 10
498.806455
 20
-29.803781
 30
0.0
 10
499.213329
 20
-30.288674
 30
0.0
  0
SPLINE
  5
11c
100
AcDbEntity
  8
Layer_1
 62
4
100
AcDbSpline
 70
8
 71
3
 72
8
 73
4
 74
0
 40
0
 40
0
 40
0
 40
0
 40
1
 40
1
 40
1
 40
1
 10
499.213329
 20
-30.288674
 30
0.0
 10
499.620203
 20
-30.773568
 30
0.0
 10
500.279106
 20
-30.965621
 30
0.0
 10
500.882794
 20
-30.775279
 30
0.0
  0
SPLINE
  5
11d
100
AcDbEntity
  8
Layer_1
 62
4
100
AcDbSpline
 70
8
 71
3
 72
8
 73
4
 74
0
 40
0
 40
0
 40
0
 40
0
 40
1
 40
1
 40
1
 40
1
 10
500.882794
 20
-30.775279
 30
0.0
 10
501.486481
 20
-30.584937
 30
0.0
 10
501.916066
 20
-30.049685
 30
0.0
 10
501.971234
 20
-29.419110
 30
0.0
  0
SPLINE
  5
11e
100
AcDbEntity
  8
Layer_1
 62
4
100
AcDbSpline
 70
8
 71
3
 72
8
 73
4
 74
0
 40
0
 40
0
 40
0
 40
0
 40
1
 40
1
 40
1
 40
1
 10
501.971234
 20
-29.419110
 30
0.0
 10
502.007409
 20
-29.005625
 30
0.0
 10
501.877847
 20
-28.594706
 30
0.0
 10
501.611049
 20
-28.276748
 30
0.0
  0
SPLINE
  5
11f
100
AcDbEntity
  8
Layer_1
 62
4
100
AcDbSpline
 70
8
 71
3
 72
8
 73
4
 74
0
 40
0
 40
0
 40
0
 40
0
 40
1
 40
1
 40
1
 40
1
 10
501.611049
 20
-28.276748
 30
0.0
 10
501.344251
 20
-27.958791
 30
0.0
 10
500.962072
 20
-27.759841
 30
0.0
 10
500.548587
 20
-27.723666
 30
0.0
  0
LINE
  5
120
100
AcDbEntity
  8
Layer_1
 62
4
100
AcDbLine
 10
500.548587
 20
-27.723666
 30
0.0
 11
500.548587
 21
-27.723666
 31
0.0
  0
SPLINE
  5
121
100
AcDbEntity
  8
Layer_1
 62
4
100
AcDbSpline
 70
8
 71
3
 72
8
 73
4
 74
0
 40
0
 40
0
 40
0
 40
0
 40
1
 40
1
 40
1
 40
1
 10
698.113489
 20
-70.284635
 30
0.0
 10
698.744064
 20
-70.229467
 30
0.0
 10
699.345781
 20
-70.559580
 30
0.0
 10
699.638060
 20
-71.121043
 30
0.0
  0
SPLINE
  5
122
100
AcDbEntity
  8
Layer_1
 62
4
100
AcDbSpline
 70
8
 71
3
 72
8
 73
4
 74
0
 40
0
 40
0
 40
0
 40
0
 40
1
 40
1
 40
1
 40
1
 10
699.638060
 20
-71.121043
 30
0.0
 10
699.930339
 20
-71.682507
 30
0.0
 10
699.855622
 20
-72.364750
 30
0.0
 10
699.448748
 20
-72.849643
 30
0.0
  0
SPLINE
  5
123
100
AcDbEntity
  8
Layer_1
 62
4
100
AcDbSpline
 70
8
 71
3
 72
8
 73
4
 74
0
 40
0
 40
0
 40
0
 40
0
 40
1
 40
1
 40
1
 40
1
 10
699.448748
 20
-72.849643
 30
0.0
 10
699.041874
 20
-73.334537
 30
0.0
 10
698.382970
 20
-73.526590
 30
0.0
 10
697.779283
 20
-73.336248
 30
0.0
  0
SPLINE
  5
124
100
AcDbEntity
  8
Layer_1
 62
4
100
AcDbSpline
 70
8
 71
3
 72
8
 73
4
 74
0
 40
0
 40
0
 40
0
 40
0
 40
1
 40
1
 40
1
 40
1
 10
697.779283
 20
-73.336248
 30
0.0
 10
697.175596
 20
-73.145906
 30
0.0
 10
696.746011
 20
-72.610654
 30
0.0
 10
696.690842
 20
-71.980079
 30
0.0
  0
SPLINE
  5
125
100
AcDbEntity
  8
Layer_1
 62
4
100
AcDbSpline
 70
8
 71
3
 72
8
 73
4
 74
0
 40
0
 40
0
 40
0
 40
0
 40
1
 40
1
 40
1
 40
1
 10
696.690842
 20
-71.980079
 30
0.0
 10
696.654667
 20
-71.566594
 30
0.0
 10
696.784230
 20
-71.155675
 30
0.0
 10
697.051028
 20
-70.837717
 30
0.0
  0
SPLINE
  5
126
100
AcDbEntity
  8
Layer_1
 62
4
100
AcDbSpline
 70
8
 71
3
 72
8
 73
4
 74
0
 40
0
 40
0
 40
0
 40
0
 40
1
 40
1
 40
1
 40
1
 10
697.051028
 20
-70.837717
 30
0.0
 10
697.317826
 20
-70.519760
 30
0.0
 10
697.700005
 20
-70.320810
 30
0.0
 10
698.113489
 20
-70.284635
 30
0.0
  0
LINE
  5
127
100
AcDbEntity
  8
Layer_1
 62
4
100
AcDbLine
 10
698.113489
 20
-70.284635
 30
0.0
 11
698.113489
 21
-70.284635
 31
0.0
  0
SPLINE
  5
128
100
AcDbEntity
  8
Layer_1
 62
4
100
AcDbSpline
 70
8
 71
3
 72
8
 73
4
 74
0
 40
0
 40
0
 40
0
 40
0
 40
1
 40
1
 40
1
 40
1
 10
690.371146
 20
18.210824
 30
0.0
 10
691.001721
 20
18.265992
 30
0.0
 10
691.603438
 20
17.935879
 30
0.0
 10
691.895717
 20
17.374415
 30
0.0
  0
SPLINE
  5
129
100
AcDbEntity
  8
Layer_1
 62
4
100
AcDbSpline
 70
8
 71
3
 72
8
 73
4
 74
0
 40
0
 40
0
 40
0
 40
0
 40
1
 40
1
 40
1
 40
1
 10
691.895717
 20
17.374415
 30
0.0
 10
692.187996
 20
16.812952
 30
0.0
 10
692.113278
 20
16.130709
 30
0.0
 10
691.706404
 20
15.645815
 30
0.0
  0
SPLINE
  5
12a
100
AcDbEntity
  8
Layer_1
 62
4
100
AcDbSpline
 70
8
 71
3
 72
8
 73
4
 74
0
 40
0
 40
0
 40
0
 40
0
 40
1
 40
1
 40
1
 40
1
 10
691.706404
 20
15.645815
 30
0.0
 10
691.299530
 20
15.160922
 30
0.0
 10
690.640627
 20
14.968869
 30
0.0
 10
690.036940
 20
15.159211
 30
0.0
  0
SPLINE
  5
12b
100
AcDbEntity
  8
Layer_1
 62
4
100
AcDbSpline
 70
8
 71
3
 72
8
 73
4
 74
0
 40
0
 40
0
 40
0
 40
0
 40
1
 40
1
 40
1
 40
1
 10
690.036940
 20
15.159211
 30
0.0
 10
689.433252
 20
15.349553
 30
0.0
 10
689.003667
 20
15.884805
 30
0.0
 10
688.948499
 20
16.515380
 30
0.0
  0
SPLINE
  5
12c
100
AcDbEntity
  8
Layer_1
 62
4
100
AcDbSpline
 70
8
 71
3
 72
8
 73
4
 74
0
 40
0
 40
0
 40
0
 40
0
 40
1
 40
1
 40
1
 40
1
 10
688.948499
 20
16.515380
 30
0.0
 10
688.912324
 20
16.928864
 30
0.0
 10
689.041887
 20
17.339784
 30
0.0
 10
689.308685
 20
17.657741
 30
0.0
  0
SPLINE
  5
12d
100
AcDbEntity
  8
Layer_1
 62
4
100
AcDbSpline
 70
8
 71
3
 72
8
 73
4
 74
0
 40
0
 40
0
 40
0
 40
0
 40
1
 40
1
 40
1
 40
1
 10
689.308685
 20
17.657741
 30
0.0
 10
689.575483
 20
17.975699
 30
0.0
 10
689.957661
 20
18.174649
 30
0.0
 10
690.371146
 20
18.210824
 30
0.0
  0
LINE
  5
12e
100
AcDbEntity
  8
Layer_1
 62
4
100
AcDbLine
 10
690.371146
 20
18.210824
 30
0.0
 11
690.371146
 21
18.210824
 31
0.0
  0
SPLINE
  5
12f
100
AcDbEntity
  8
Layer_1
 62
4
100
AcDbSpline
 70
8
 71
3
 72
8
 73
4
 74
0
 40
0
 40
0
 40
0
 40
0
 40
1
 40
1
 40
1
 40
1
 10
561.902040
 20
15.526721
 30
0.0
 10
562.532614
 20
15.581889
 30
0.0
 10
563.134331
 20
15.251776
 30
0.0
 10
563.426611
 20
14.690312
 30
0.0
  0
SPLINE
  5
130
100
AcDbEntity
  8
Layer_1
 62
4
100
AcDbSpline
 70
8
 71
3
 72
8
 73
4
 74
0
 40
0
 40
0
 40
0
 40
0
 40
1
 40
1
 40
1
 40
1
 10
563.426611
 20
14.690312
 30
0.0
 10
563.718890
 20
14.128849
 30
0.0
 10
563.644172
 20
13.446606
 30
0.0
 10
563.237298
 20
12.961713
 30
0.0
  0
SPLINE
  5
131
100
AcDbEntity
  8
Layer_1
 62
4
100
AcDbSpline
 70
8
 71
3
 72
8
 73
4
 74
0
 40
0
 40
0
 40
0
 40
0
 40
1
 40
1
 40
1
 40
1
 10
563.237298
 20
12.961713
 30
0.0
 10
562.830424
 20
12.476819
 30
0.0
 10
562.171521
 20
12.284766
 30
0.0
 10
561.567833
 20
12.475108
 30
0.0
  0
SPLINE
  5
132
100
AcDbEntity
  8
Layer_1
 62
4
100
AcDbSpline
 70
8
 71
3
 72
8
 73
4
 74
0
 40
0
 40
0
 40
0
 40
0
 40
1
 40
1
 40
1
 40
1
 10
561.567833
 20
12.475108
 30
0.0
 10
560.964146
 20
12.665450
 30
0.0
 10
560.534561
 20
13.200702
 30
0.0
 10
560.479393
 20
13.831277
 30
0.0
  0
SPLINE
  5
133
100
AcDbEntity
  8
Layer_1
 62
4
100
AcDbSpline
 70
8
 71
3
 72
8
 73
4
 74
0
 40
0
 40
0
 40
0
 40
0
 40
1
 40
1
 40
1
 40
1
 10
560.479393
 20
13.831277
 30
0.0
 10
560.443218
 20
14.244761
 30
0.0
 10
560.572780
 20
14.655681
 30
0.0
 10
560.839578
 20
14.973639
 30
0.0
  0
SPLINE
  5
134
100
AcDbEntity
  8
Layer_1
 62
4
100
AcDbSpline
 70
8
 71
3
 72
8
 73
4
 74
0
 40
0
 40
0
 40
0
 40
0
 40
1
 40
1
 40
1
 40
1
 10
560.839578
 20
14.973639
 30
0.0
 10
561.106376
 20
15.291596
 30
0.0
 10
561.488555
 20
15.490546
 30
0.0
 10
561.902040
 20
15.526721
 30
0.0
  0
LINE
  5
135
100
AcDbEntity
  8
Layer_1
 62
4
100
AcDbLine
 10
561.902040
 20
15.526721
 30
0.0
 11
561.902040
 21
15.526721
 31
0.0
  0
SPLINE
  5
136
100
AcDbEntity
  8
Layer_1
 62
4
100
AcDbSpline
 70
8
 71
3
 72
8
 73
4
 74
0
 40
0
 40
0
 40
0
 40
0
 40
1
 40
1
 40
1
 40
1
 10
570.385390
 20
-81.438497
 30
0.0
 10
571.015965
 20
-81.383329
 30
0.0
 10
571.617682
 20
-81.713442
 30
0.0
 10
571.909961
 20
-82.274906
 30
0.0
  0
SPLINE
  5
137
100
AcDbEntity
  8
Layer_1
 62
4
100
AcDbSpline
 70
8
 71
3
 72
8
 73
4
 74
0
 40
0
 40
0
 40
0
 40
0
 40
1
 40
1
 40
1
 40
1
 10
571.909961
 20
-82.274906
 30
0.0
 10
572.202241
 20
-82.836369
 30
0.0
 10
572.127523
 20
-83.518612
 30
0.0
 10
571.720649
 20
-84.003506
 30
0.0
  0
SPLINE
  5
138
100
AcDbEntity
  8
Layer_1
 62
4
100
AcDbSpline
 70
8
 71
3
 72
8
 73
4
 74
0
 40
0
 40
0
 40
0
 40
0
 40
1
 40
1
 40
1
 40
1
 10
571.720649
 20
-84.003506
 30
0.0
 10
571.313775
 20
-84.488399
 30
0.0
 10
570.654871
 20
-84.680452
 30
0.0
 10
570.051184
 20
-84.490110
 30
0.0
  0
SPLINE
  5
139
100
AcDbEntity
  8
Layer_1
 62
4
100
AcDbSpline
 70
8
 71
3
 72
8
 73
4
 74
0
 40
0
 40
0
 40
0
 40
0
 40
1
 40
1
 40
1
 40
1
 10
570.051184
 20
-84.490110
 30
0.0
 10
569.447497
 20
-84.299768
 30
0.0
 10
569.017912
 20
-83.764516
 30
0.0
 10
568.962744
 20
-83.133941
 30
0.0
  0
SPLINE
  5
13a
100
AcDbEntity
  8
Layer_1
 62
4
100
AcDbSpline
 70
8
 71
3
 72
8
 73
4
 74
0
 40
0
 40
0
 40
0
 40
0
 40
1
 40
1
 40
1
 40
1
 10
568.962744
 20
-83.133941
 30
0.0
 10
568.926568
 20
-82.720457
 30
0.0
 10
569.056131
 20
-82.309537
 30
0.0
 10
569.322929
 20
-81.991579
 30
0.0
  0
SPLINE
  5
13b
100
AcDbEntity
  8
Layer_1
 62
4
100
AcDbSpline
 70
8
 71
3
 72
8
 73
4
 74
0
 40
0
 40
0
 40
0
 40
0
 40
1
 40
1
 40
1
 40
1
 10
569.322929
 20
-81.991579
 30
0.0
 10
569.589727
 20
-81.673622
 30
0.0
 10
569.971906
 20
-81.474672
 30
0.0
 10
570.385390
 20
-81.438497
 30
0.0
  0
LINE
  5
13c
100
AcDbEntity
  8
Layer_1
 62
4
100
AcDbLine
 10
570.385390
 20
-81.438497
 30
0.0
 11
570.385390
 21
-81.438497
 31
0.0
  0
SPLINE
  5
13d
100
AcDbEntity
  8
Layer_1
 62
4
100
AcDbSpline
 70
8
 71
3
 72
8
 73
4
 74
0
 40
0
 40
0
 40
0
 40
0
 40
1
 40
1
 40
1
 40
1
 10
565.686113
 20
-27.725466
 30
0.0
 10
566.316687
 20
-27.670298
 30
0.0
 10
566.918404
 20
-28.000411
 30
0.0
 10
567.210684
 20
-28.561874
 30
0.0
  0
SPLINE
  5
13e
100
AcDbEntity
  8
Layer_1
 62
4
100
AcDbSpline
 70
8
 71
3
 72
8
 73
4
 74
0
 40
0
 40
0
 40
0
 40
0
 40
1
 40
1
 40
1
 40
1
 10
567.210684
 20
-28.561874
 30
0.0
 10
567.502963
 20
-29.123338
 30
0.0
 10
567.428245
 20
-29.805581
 30
0.0
 10
567.021371
 20
-30.290474
 30
0.0
  0
SPLINE
  5
13f
100
AcDbEntity
  8
Layer_1
 62
4
100
AcDbSpline
 70
8
 71
3
 72
8
 73
4
 74
0
 40
0
 40
0
 40
0
 40
0
 40
1
 40
1
 40
1
 40
1
 10
567.021371
 20
-30.290474
 30
0.0
 10
566.614497
 20
-30.775368
 30
0.0
 10
565.955594
 20
-30.967421
 30
0.0
 10
565.351906
 20
-30.777079
 30
0.0
  0
SPLINE
  5
140
100
AcDbEntity
  8
Layer_1
 62
4
100
AcDbSpline
 70
8
 71
3
 72
8
 73
4
 74
0
 40
0
 40
0
 40
0
 40
0
 40
1
 40
1
 40
1
 40
1
 10
565.351906
 20
-30.777079
 30
0.0
 10
564.748219
 20
-30.586737
 30
0.0
 10
564.318634
 20
-30.051485
 30
0.0
 10
564.263466
 20
-29.420910
 30
0.0
  0
SPLINE
  5
141
100
AcDbEntity
  8
Layer_1
 62
4
100
AcDbSpline
 70
8
 71
3
 72
8
 73
4
 74
0
 40
0
 40
0
 40
0
 40
0
 40
1
 40
1
 40
1
 40
1
 10
564.263466
 20
-29.420910
 30
0.0
 10
564.227291
 20
-29.007425
 30
0.0
 10
564.356853
 20
-28.596506
 30
0.0
 10
564.623651
 20
-28.278548
 30
0.0
  0
SPLINE
  5
142
100
AcDbEntity
  8
Layer_1
 62
4
100
AcDbSpline
 70
8
 71
3
 72
8
 73
4
 74
0
 40
0
 40
0
 40
0
 40
0
 40
1
 40
1
 40
1
 40
1
 10
564.623651
 20
-28.278548
 30
0.0
 10
564.890449
 20
-27.960591
 30
0.0
 10
565.272628
 20
-27.761641
 30
0.0
 10
565.686113
 20
-27.725466
 30
0.0
  0
LINE
  5
143
100
AcDbEntity
  8
Layer_1
 62
4
100
AcDbLine
 10
565.686113
 20
-27.725466
 30
0.0
 11
565.686113
 21
-27.725466
 31
0.0
  0
LINE
  5
144
100
AcDbEntity
  8
Layer_1
 62
4
100
AcDbLine
 10
500.156023
 20
-88.875894
 30
0.0
 11
498.363186
 21
-90.338504
 31
0.0
  0
SPLINE
  5
145
100
AcDbEntity
  8
Layer_1
 62
4
100
AcDbSpline
 70
8
 71
3
 72
8
 73
4
 74
0
 40
0
 40
0
 40
0
 40
0
 40
1
 40
1
 40
1
 40
1
 10
498.363186
 20
-90.338504
 30
0.0
 10
497.837394
 20
-90.767453
 30
0.0
 10
497.164842
 20
-90.974047
 30
0.0
 10
496.488915
 20
-90.914241
 30
0.0
  0
LINE
  5
146
100
AcDbEntity
  8
Layer_1
 62
4
100
AcDbLine
 10
496.488915
 20
-90.914241
 30
0.0
 11
475.784326
 21
-89.082246
 31
0.0
  0
SPLINE
  5
147
100
AcDbEntity
  8
Layer_1
 62
4
100
AcDbSpline
 70
8
 71
3
 72
8
 73
4
 74
0
 40
0
 40
0
 40
0
 40
0
 40
1
 40
1
 40
1
 40
1
 10
475.784326
 20
-89.082246
 30
0.0
 10
475.202100
 20
-89.030736
 30
0.0
 10
474.258053
 20
-88.948072
 30
0.0
 10
473.675737
 20
-88.897588
 30
0.0
  0
SPLINE
  5
148
100
AcDbEntity
  8
Layer_1
 62
4
100
AcDbSpline
 70
8
 71
3
 72
8
 73
4
 74
0
 40
0
 40
0
 40
0
 40
0
 40
1
 40
1
 40
1
 40
1
 10
473.675737
 20
-88.897588
 30
0.0
 10
456.355120
 20
-87.395982
 30
0.0
 10
440.341717
 20
-85.989270
 30
0.0
 10
424.472834
 20
-84.596907
 30
0.0
  0
SPLINE
  5
149
100
AcDbEntity
  8
Layer_1
 62
4
100
AcDbSpline
 70
8
 71
3
 72
8
 73
4
 74
0
 40
0
 40
0
 40
0
 40
0
 40
1
 40
1
 40
1
 40
1
 10
424.472834
 20
-84.596907
 30
0.0
 10
423.890571
 20
-84.545815
 30
0.0
 10
422.946531
 20
-84.463061
 30
0.0
 10
422.364261
 20
-84.412049
 30
0.0
  0
LINE
  5
14a
100
AcDbEntity
  8
Layer_1
 62
4
100
AcDbLine
 10
422.364261
 20
-84.412049
 30
0.0
 11
406.783931
 21
-83.046939
 31
0.0
  0
SPLINE
  5
14b
100
AcDbEntity
  8
Layer_1
 62
4
100
AcDbSpline
 70
8
 71
3
 72
8
 73
4
 74
0
 40
0
 40
0
 40
0
 40
0
 40
1
 40
1
 40
1
 40
1
 10
406.783931
 20
-83.046939
 30
0.0
 10
406.201661
 20
-82.995927
 30
0.0
 10
405.257609
 20
-82.913313
 30
0.0
 10
404.675328
 20
-82.862430
 30
0.0
  0
SPLINE
  5
14c
100
AcDbEntity
  8
Layer_1
 62
4
100
AcDbSpline
 70
8
 71
3
 72
8
 73
4
 74
0
 40
0
 40
0
 40
0
 40
0
 40
1
 40
1
 40
1
 40
1
 10
404.675328
 20
-82.862430
 30
0.0
 10
392.133528
 20
-81.766169
 30
0.0
 10
379.393463
 20
-80.659588
 30
0.0
 10
365.888616
 20
-79.504267
 30
0.0
  0
SPLINE
  5
14d
100
AcDbEntity
  8
Layer_1
 62
4
100
AcDbSpline
 70
8
 71
3
 72
8
 73
4
 74
0
 40
0
 40
0
 40
0
 40
0
 40
1
 40
1
 40
1
 40
1
 10
365.888616
 20
-79.504267
 30
0.0
 10
365.306253
 20
-79.454320
 30
0.0
 10
364.519735
 20
-79.059569
 30
0.0
 10
364.131902
 20
-78.622273
 30
0.0
  0
LINE
  5
14e
100
AcDbEntity
  8
Layer_1
 62
4
100
AcDbLine
 10
364.131902
 20
-78.622273
 30
0.0
 11
362.560250
 21
-76.850171
 31
0.0
  0
SPLINE
  5
14f
100
AcDbEntity
  8
Layer_1
 62
4
100
AcDbSpline
 70
8
 71
3
 72
8
 73
4
 74
0
 40
0
 40
0
 40
0
 40
0
 40
1
 40
1
 40
1
 40
1
 10
362.560250
 20
-76.850171
 30
0.0
 10
362.111969
 20
-76.344716
 30
0.0
 10
361.891365
 20
-75.677104
 30
0.0
 10
361.950227
 20
-75.004069
 30
0.0
  0
LINE
  5
150
100
AcDbEntity
  8
Layer_1
 62
4
100
AcDbLine
 10
361.950227
 20
-75.004069
 30
0.0
 11
370.910514
 21
27.446897
 31
0.0
  0
SPLINE
  5
151
100
AcDbEntity
  8
Layer_1
 62
4
100
AcDbSpline
 70
8
 71
3
 72
8
 73
4
 74
0
 40
0
 40
0
 40
0
 40
0
 40
1
 40
1
 40
1
 40
1
 10
370.910514
 20
27.446897
 30
0.0
 10
370.969081
 20
28.116515
 30
0.0
 10
371.315462
 20
28.727727
 30
0.0
 10
371.859834
 20
29.122033
 30
0.0
  0
LINE
  5
152
100
AcDbEntity
  8
Layer_1
 62
4
100
AcDbLine
 10
371.859834
 20
29.122033
 30
0.0
 11
373.639529
 21
30.411138
 31
0.0
  0
SPLINE
  5
153
100
AcDbEntity
  8
Layer_1
 62
4
100
AcDbSpline
 70
8
 71
3
 72
8
 73
4
 74
0
 40
0
 40
0
 40
0
 40
0
 40
1
 40
1
 40
1
 40
1
 10
373.639529
 20
30.411138
 30
0.0
 10
374.192326
 20
30.811548
 30
0.0
 10
374.870962
 20
30.999214
 30
0.0
 10
375.550941
 20
30.939709
 30
0.0
  0
LINE
  5
154
100
AcDbEntity
  8
Layer_1
 62
4
100
AcDbLine
 10
375.550941
 20
30.939709
 30
0.0
 11
506.165113
 21
19.509438
 31
0.0
  0
SPLINE
  5
155
100
AcDbEntity
  8
Layer_1
 62
4
100
AcDbSpline
 70
8
 71
3
 72
8
 73
4
 74
0
 40
0
 40
0
 40
0
 40
0
 40
1
 40
1
 40
1
 40
1
 10
506.165113
 20
19.509438
 30
0.0
 10
506.849872
 20
19.449516
 30
0.0
 10
507.497343
 20
19.171486
 30
0.0
 10
508.012339
 20
18.716223
 30
0.0
  0
LINE
  5
156
100
AcDbEntity
  8
Layer_1
 62
4
100
AcDbLine
 10
508.012339
 20
18.716223
 30
0.0
 11
509.328258
 21
17.552917
 31
0.0
  0
SPLINE
  5
157
100
AcDbEntity
  8
Layer_1
 62
4
100
AcDbSpline
 70
8
 71
3
 72
8
 73
4
 74
0
 40
0
 40
0
 40
0
 40
0
 40
1
 40
1
 40
1
 40
1
 10
509.328258
 20
17.552917
 30
0.0
 10
509.839178
 20
17.101254
 30
0.0
 10
510.497575
 20
16.851928
 30
0.0
 10
511.179513
 20
16.851871
 30
0.0
  0
LINE
  5
158
100
AcDbEntity
  8
Layer_1
 62
4
100
AcDbLine
 10
511.179513
 20
16.851871
 30
0.0
 11
524.121248
 21
16.850821
 31
0.0
  0
SPLINE
  5
159
100
AcDbEntity
  8
Layer_1
 62
4
100
AcDbSpline
 70
8
 71
3
 72
8
 73
4
 74
0
 40
0
 40
0
 40
0
 40
0
 40
1
 40
1
 40
1
 40
1
 10
524.121248
 20
16.850821
 30
0.0
 10
524.705751
 20
16.850770
 30
0.0
 10
525.179546
 20
16.376903
 30
0.0
 10
525.179508
 20
15.792400
 30
0.0
  0
LINE
  5
15a
100
AcDbEntity
  8
Layer_1
 62
4
100
AcDbLine
 10
525.179508
 20
15.792400
 30
0.0
 11
525.178686
 21
3.059117
 31
0.0
  0
SPLINE
  5
15b
100
AcDbEntity
  8
Layer_1
 62
4
100
AcDbSpline
 70
8
 71
3
 72
8
 73
4
 74
0
 40
0
 40
0
 40
0
 40
0
 40
1
 40
1
 40
1
 40
1
 10
525.178686
 20
3.059117
 30
0.0
 10
525.178648
 20
2.474603
 30
0.0
 10
524.704793
 20
2.000782
 30
0.0
 10
524.120279
 20
2.000786
 30
0.0
  0
LINE
  5
15c
100
AcDbEntity
  8
Layer_1
 62
4
100
AcDbLine
 10
524.120279
 20
2.000786
 30
0.0
 11
509.926510
 21
2.000825
 31
0.0
  0
SPLINE
  5
15d
100
AcDbEntity
  8
Layer_1
 62
4
100
AcDbSpline
 70
8
 71
3
 72
8
 73
4
 74
0
 40
0
 40
0
 40
0
 40
0
 40
1
 40
1
 40
1
 40
1
 10
509.926510
 20
2.000825
 30
0.0
 10
509.327653
 20
2.000828
 30
0.0
 10
508.828128
 20
1.543101
 30
0.0
 10
508.775934
 20
0.946522
 30
0.0
  0
LINE
  5
15e
100
AcDbEntity
  8
Layer_1
 62
4
100
AcDbLine
 10
508.775934
 20
0.946522
 30
0.0
 11
508.716908
 21
0.271860
 31
0.0
  0
SPLINE
  5
15f
100
AcDbEntity
  8
Layer_1
 62
4
100
AcDbSpline
 70
8
 71
3
 72
8
 73
4
 74
0
 40
0
 40
0
 40
0
 40
0
 40
1
 40
1
 40
1
 40
1
 10
508.716908
 20
0.271860
 30
0.0
 10
508.692445
 20
-0.007757
 30
0.0
 10
508.557905
 20
-0.266203
 30
0.0
 10
508.342887
 20
-0.446622
 30
0.0
  0
SPLINE
  5
160
100
AcDbEntity
  8
Layer_1
 62
4
100
AcDbSpline
 70
8
 71
3
 72
8
 73
4
 74
0
 40
0
 40
0
 40
0
 40
0
 40
1
 40
1
 40
1
 40
1
 10
508.342887
 20
-0.446622
 30
0.0
 10
508.127868
 20
-0.627041
 30
0.0
 10
507.849984
 20
-0.714653
 30
0.0
 10
507.570368
 20
-0.690184
 30
0.0
  0
LINE
  5
161
100
AcDbEntity
  8
Layer_1
 62
4
100
AcDbLine
 10
507.570368
 20
-0.690184
 30
0.0
 11
496.228177
 21
0.302400
 31
0.0
  0
SPLINE
  5
162
100
AcDbEntity
  8
Layer_1
 62
4
100
AcDbSpline
 70
8
 71
3
 72
8
 73
4
 74
0
 40
0
 40
0
 40
0
 40
0
 40
1
 40
1
 40
1
 40
1
 10
496.228177
 20
0.302400
 30
0.0
 10
495.525309
 20
0.363907
 30
0.0
 10
494.822442
 20
0.425407
 30
0.0
 10
494.119573
 20
0.486899
 30
0.0
  0
LINE
  5
163
100
AcDbEntity
  8
Layer_1
 62
4
100
AcDbLine
 10
494.119573
 20
0.486899
 30
0.0
 11
382.526288
 21
10.250358
 31
0.0
  0
SPLINE
  5
164
100
AcDbEntity
  8
Layer_1
 62
4
100
AcDbSpline
 70
8
 71
3
 72
8
 73
4
 74
0
 40
0
 40
0
 40
0
 40
0
 40
1
 40
1
 40
1
 40
1
 10
382.526288
 20
10.250358
 30
0.0
 10
381.823420
 20
10.311852
 30
0.0
 10
381.120553
 20
10.373365
 30
0.0
 10
380.417688
 20
10.434897
 30
0.0
  0
SPLINE
  5
165
100
AcDbEntity
  8
Layer_1
 62
4
100
AcDbSpline
 70
8
 71
3
 72
8
 73
4
 74
0
 40
0
 40
0
 40
0
 40
0
 40
1
 40
1
 40
1
 40
1
 10
380.417688
 20
10.434897
 30
0.0
 10
379.721172
 20
10.495874
 30
0.0
 10
379.024655
 20
10.556832
 30
0.0
 10
378.328135
 20
10.617769
 30
0.0
  0
LINE
  5
166
100
AcDbEntity
  8
Layer_1
 62
4
100
AcDbLine
 10
378.328135
 20
10.617769
 30
0.0
 11
375.539437
 21
10.861749
 31
0.0
  0
SPLINE
  5
167
100
AcDbEntity
  8
Layer_1
 62
4
100
AcDbSpline
 70
8
 71
3
 72
8
 73
4
 74
0
 40
0
 40
0
 40
0
 40
0
 40
1
 40
1
 40
1
 40
1
 10
375.539437
 20
10.861749
 30
0.0
 10
374.957162
 20
10.912691
 30
0.0
 10
374.443878
 20
10.481958
 30
0.0
 10
374.392975
 20
9.899679
 30
0.0
  0
SPLINE
  5
168
100
AcDbEntity
  8
Layer_1
 62
4
100
AcDbSpline
 70
8
 71
3
 72
8
 73
4
 74
0
 40
0
 40
0
 40
0
 40
0
 40
1
 40
1
 40
1
 40
1
 10
374.392975
 20
9.899679
 30
0.0
 10
372.211671
 20
-15.055681
 30
0.0
 10
370.026945
 20
-40.004276
 30
0.0
 10
367.845644
 20
-64.959606
 30
0.0
  0
SPLINE
  5
169
100
AcDbEntity
  8
Layer_1
 62
4
100
AcDbSpline
 70
8
 71
3
 72
8
 73
4
 74
0
 40
0
 40
0
 40
0
 40
0
 40
1
 40
1
 40
1
 40
1
 10
367.845644
 20
-64.959606
 30
0.0
 10
367.794741
 20
-65.541885
 30
0.0
 10
368.225511
 20
-66.055213
 30
0.0
 10
368.807787
 20
-66.106155
 30
0.0
  0
LINE
  5
16a
100
AcDbEntity
  8
Layer_1
 62
4
100
AcDbLine
 10
368.807787
 20
-66.106155
 30
0.0
 11
371.615950
 21
-66.351838
 31
0.0
  0
LINE
  5
16b
100
AcDbEntity
  8
Layer_1
 62
4
100
AcDbLine
 10
371.615950
 20
-66.351838
 30
0.0
 11
407.943973
 21
-69.530128
 31
0.0
  0
SPLINE
  5
16c
100
AcDbEntity
  8
Layer_1
 62
4
100
AcDbSpline
 70
8
 71
3
 72
8
 73
4
 74
0
 40
0
 40
0
 40
0
 40
0
 40
1
 40
1
 40
1
 40
1
 10
407.943973
 20
-69.530128
 30
0.0
 10
408.526249
 20
-69.581071
 30
0.0
 10
409.470289
 20
-69.663824
 30
0.0
 10
410.052552
 20
-69.714906
 30
0.0
  0
SPLINE
  5
16d
100
AcDbEntity
  8
Layer_1
 62
4
100
AcDbSpline
 70
8
 71
3
 72
8
 73
4
 74
0
 40
0
 40
0
 40
0
 40
0
 40
1
 40
1
 40
1
 40
1
 10
410.052552
 20
-69.714906
 30
0.0
 10
421.719484
 20
-70.738642
 30
0.0
 10
433.387656
 20
-71.748432
 30
0.0
 10
445.053270
 20
-72.787110
 30
0.0
  0
SPLINE
  5
16e
100
AcDbEntity
  8
Layer_1
 62
4
100
AcDbSpline
 70
8
 71
3
 72
8
 73
4
 74
0
 40
0
 40
0
 40
0
 40
0
 40
1
 40
1
 40
1
 40
1
 10
445.053270
 20
-72.787110
 30
0.0
 10
445.635469
 20
-72.838929
 30
0.0
 10
446.579426
 20
-72.922639
 30
0.0
 10
447.161788
 20
-72.972585
 30
0.0
  0
LINE
  5
16f
100
AcDbEntity
  8
Layer_1
 62
4
100
AcDbLine
 10
447.161788
 20
-72.972585
 30
0.0
 11
481.382175
 21
-75.955439
 31
0.0
  0
SPLINE
  5
170
100
AcDbEntity
  8
Layer_1
 62
4
100
AcDbSpline
 70
8
 71
3
 72
8
 73
4
 74
0
 40
0
 40
0
 40
0
 40
0
 40
1
 40
1
 40
1
 40
1
 10
481.382175
 20
-75.955439
 30
0.0
 10
482.085063
 20
-76.016707
 30
0.0
 10
482.787941
 20
-76.078087
 30
0.0
 10
483.490810
 20
-76.139580
 30
0.0
  0
LINE
  5
171
100
AcDbEntity
  8
Layer_1
 62
4
100
AcDbLine
 10
483.490810
 20
-76.139580
 30
0.0
 11
489.000882
 21
-76.621649
 31
0.0
  0
SPLINE
  5
172
100
AcDbEntity
  8
Layer_1
 62
4
100
AcDbSpline
 70
8
 71
3
 72
8
 73
4
 74
0
 40
0
 40
0
 40
0
 40
0
 40
1
 40
1
 40
1
 40
1
 10
489.000882
 20
-76.621649
 30
0.0
 10
489.633558
 20
-76.676998
 30
0.0
 10
490.233050
 20
-76.329835
 30
0.0
 10
490.499946
 20
-75.753547
 30
0.0
  0
LINE
  5
173
100
AcDbEntity
  8
Layer_1
 62
4
100
AcDbLine
 10
490.499946
 20
-75.753547
 30
0.0
 11
498.122248
 21
-59.295356
 31
0.0
  0
SPLINE
  5
174
100
AcDbEntity
  8
Layer_1
 62
4
100
AcDbSpline
 70
8
 71
3
 72
8
 73
4
 74
0
 40
0
 40
0
 40
0
 40
0
 40
1
 40
1
 40
1
 40
1
 10
498.122248
 20
-59.295356
 30
0.0
 10
498.416520
 20
-58.659957
 30
0.0
 10
498.598219
 20
-57.978283
 30
0.0
 10
498.659249
 20
-57.280713
 30
0.0
  0
LINE
  5
175
100
AcDbEntity
  8
Layer_1
 62
4
100
AcDbLine
 10
498.659249
 20
-57.280713
 30
0.0
 11
500.227426
 21
-39.356361
 31
0.0
  0
SPLINE
  5
176
100
AcDbEntity
  8
Layer_1
 62
4
100
AcDbSpline
 70
8
 71
3
 72
8
 73
4
 74
0
 40
0
 40
0
 40
0
 40
0
 40
1
 40
1
 40
1
 40
1
 10
500.227426
 20
-39.356361
 30
0.0
 10
500.285186
 20
-38.696142
 30
0.0
 10
500.015053
 20
-38.049653
 30
0.0
 10
499.504737
 20
-37.626803
 30
0.0
  0
LINE
  5
177
100
AcDbEntity
  8
Layer_1
 62
4
100
AcDbLine
 10
499.504737
 20
-37.626803
 30
0.0
 11
494.697373
 21
-33.643365
 31
0.0
  0
SPLINE
  5
178
100
AcDbEntity
  8
Layer_1
 62
4
100
AcDbSpline
 70
8
 71
3
 72
8
 73
4
 74
0
 40
0
 40
0
 40
0
 40
0
 40
1
 40
1
 40
1
 40
1
 10
494.697373
 20
-33.643365
 30
0.0
 10
494.187057
 20
-33.220515
 30
0.0
 10
493.916924
 20
-32.574026
 30
0.0
 10
493.974684
 20
-31.913807
 30
0.0
  0
LINE
  5
179
100
AcDbEntity
  8
Layer_1
 62
4
100
AcDbLine
 10
493.974684
 20
-31.913807
 30
0.0
 11
495.036338
 21
-19.779050
 31
0.0
  0
SPLINE
  5
17a
100
AcDbEntity
  8
Layer_1
 62
4
100
AcDbSpline
 70
8
 71
3
 72
8
 73
4
 74
0
 40
0
 40
0
 40
0
 40
0
 40
1
 40
1
 40
1
 40
1
 10
495.036338
 20
-19.779050
 30
0.0
 10
495.060801
 20
-19.499448
 30
0.0
 10
495.195345
 20
-19.241020
 30
0.0
 10
495.410366
 20
-19.060628
 30
0.0
  0
SPLINE
  5
17b
100
AcDbEntity
  8
Layer_1
 62
4
100
AcDbSpline
 70
8
 71
3
 72
8
 73
4
 74
0
 40
0
 40
0
 40
0
 40
0
 40
1
 40
1
 40
1
 40
1
 10
495.410366
 20
-19.060628
 30
0.0
 10
495.625386
 20
-18.880235
 30
0.0
 10
495.903267
 20
-18.792658
 30
0.0
 10
496.182864
 20
-18.817166
 30
0.0
  0
LINE
  5
17c
100
AcDbEntity
  8
Layer_1
 62
4
100
AcDbLine
 10
496.182864
 20
-18.817166
 30
0.0
 11
505.909993
 21
-19.670187
 31
0.0
  0
SPLINE
  5
17d
100
AcDbEntity
  8
Layer_1
 62
4
100
AcDbSpline
 70
8
 71
3
 72
8
 73
4
 74
0
 40
0
 40
0
 40
0
 40
0
 40
1
 40
1
 40
1
 40
1
 10
505.909993
 20
-19.670187
 30
0.0
 10
506.492289
 20
-19.721232
 30
0.0
 10
506.922985
 20
-20.234605
 30
0.0
 10
506.872041
 20
-20.816909
 30
0.0
  0
LINE
  5
17e
100
AcDbEntity
  8
Layer_1
 62
4
100
AcDbLine
 10
506.872041
 20
-20.816909
 30
0.0
 11
501.961487
 21
-76.944799
 31
0.0
  0
SPLINE
  5
17f
100
AcDbEntity
  8
Layer_1
 62
4
100
AcDbSpline
 70
8
 71
3
 72
8
 73
4
 74
0
 40
0
 40
0
 40
0
 40
0
 40
1
 40
1
 40
1
 40
1
 10
501.961487
 20
-76.944799
 30
0.0
 10
501.937790
 20
-77.215665
 30
0.0
 10
502.028889
 20
-77.484037
 30
0.0
 10
502.212581
 20
-77.684504
 30
0.0
  0
SPLINE
  5
180
100
AcDbEntity
  8
Layer_1
 62
4
100
AcDbSpline
 70
8
 71
3
 72
8
 73
4
 74
0
 40
0
 40
0
 40
0
 40
0
 40
1
 40
1
 40
1
 40
1
 10
502.212581
 20
-77.684504
 30
0.0
 10
502.396273
 20
-77.884971
 30
0.0
 10
502.655683
 20
-77.999118
 30
0.0
 10
502.927583
 20
-77.999122
 30
0.0
  0
LINE
  5
181
100
AcDbEntity
  8
Layer_1
 62
4
100
AcDbLine
 10
502.927583
 20
-77.999122
 30
0.0
 11
563.304999
 21
-78.000245
 31
0.0
  0
SPLINE
  5
182
100
AcDbEntity
  8
Layer_1
 62
4
100
AcDbSpline
 70
8
 71
3
 72
8
 73
4
 74
0
 40
0
 40
0
 40
0
 40
0
 40
1
 40
1
 40
1
 40
1
 10
563.304999
 20
-78.000245
 30
0.0
 10
563.576894
 20
-78.000250
 30
0.0
 10
563.836303
 20
-77.886112
 30
0.0
 10
564.019995
 20
-77.685652
 30
0.0
  0
SPLINE
  5
183
100
AcDbEntity
  8
Layer_1
 62
4
100
AcDbSpline
 70
8
 71
3
 72
8
 73
4
 74
0
 40
0
 40
0
 40
0
 40
0
 40
1
 40
1
 40
1
 40
1
 10
564.019995
 20
-77.685652
 30
0.0
 10
564.203687
 20
-77.485192
 30
0.0
 10
564.294788
 20
-77.216824
 30
0.0
 10
564.271092
 20
-76.945964
 30
0.0
  0
LINE
  5
184
100
AcDbEntity
  8
Layer_1
 62
4
100
AcDbLine
 10
564.271092
 20
-76.945964
 30
0.0
 11
559.452924
 21
-21.874017
 31
0.0
  0
SPLINE
  5
185
100
AcDbEntity
  8
Layer_1
 62
4
100
AcDbSpline
 70
8
 71
3
 72
8
 73
4
 74
0
 40
0
 40
0
 40
0
 40
0
 40
1
 40
1
 40
1
 40
1
 10
559.452924
 20
-21.874017
 30
0.0
 10
559.401980
 20
-21.291715
 30
0.0
 10
559.832682
 20
-20.778346
 30
0.0
 10
560.414977
 20
-20.727312
 30
0.0
  0
LINE
  5
186
100
AcDbEntity
  8
Layer_1
 62
4
100
AcDbLine
 10
560.414977
 20
-20.727312
 30
0.0
 11
563.293862
 21
-20.475003
 31
0.0
  0
SPLINE
  5
187
100
AcDbEntity
  8
Layer_1
 62
4
100
AcDbSpline
 70
8
 71
3
 72
8
 73
4
 74
0
 40
0
 40
0
 40
0
 40
0
 40
1
 40
1
 40
1
 40
1
 10
563.293862
 20
-20.475003
 30
0.0
 10
563.876136
 20
-20.423968
 30
0.0
 10
564.820183
 20
-20.341302
 30
0.0
 10
565.402468
 20
-20.290368
 30
0.0
  0
SPLINE
  5
188
100
AcDbEntity
  8
Layer_1
 62
4
100
AcDbSpline
 70
8
 71
3
 72
8
 73
4
 74
0
 40
0
 40
0
 40
0
 40
0
 40
1
 40
1
 40
1
 40
1
 10
565.402468
 20
-20.290368
 30
0.0
 10
566.281445
 20
-20.213463
 30
0.0
 10
567.160422
 20
-20.136568
 30
0.0
 10
568.039399
 20
-20.059664
 30
0.0
  0
SPLINE
  5
189
100
AcDbEntity
  8
Layer_1
 62
4
100
AcDbSpline
 70
8
 71
3
 72
8
 73
4
 74
0
 40
0
 40
0
 40
0
 40
0
 40
1
 40
1
 40
1
 40
1
 10
568.039399
 20
-20.059664
 30
0.0
 10
568.621675
 20
-20.008719
 30
0.0
 10
569.134998
 20
-20.439447
 30
0.0
 10
569.185943
 20
-21.021723
 30
0.0
  0
LINE
  5
18a
100
AcDbEntity
  8
Layer_1
 62
4
100
AcDbLine
 10
569.185943
 20
-21.021723
 30
0.0
 11
570.661839
 21
-37.891420
 31
0.0
  0
LINE
  5
18b
100
AcDbEntity
  8
Layer_1
 62
4
100
AcDbLine
 10
570.661839
 20
-37.891420
 30
0.0
 11
572.229629
 21
-55.811242
 31
0.0
  0
LINE
  5
18c
100
AcDbEntity
  8
Layer_1
 62
4
100
AcDbLine
 10
572.229629
 20
-55.811242
 30
0.0
 11
573.982378
 21
-75.845270
 31
0.0
  0
SPLINE
  5
18d
100
AcDbEntity
  8
Layer_1
 62
4
100
AcDbSpline
 70
8
 71
3
 72
8
 73
4
 74
0
 40
0
 40
0
 40
0
 40
0
 40
1
 40
1
 40
1
 40
1
 10
573.982378
 20
-75.845270
 30
0.0
 10
574.033324
 20
-76.427543
 30
0.0
 10
574.546648
 20
-76.858270
 30
0.0
 10
575.128922
 20
-76.807328
 30
0.0
  0
LINE
  5
18e
100
AcDbEntity
  8
Layer_1
 62
4
100
AcDbLine
 10
575.128922
 20
-76.807328
 30
0.0
 11
578.007131
 21
-76.555523
 31
0.0
  0
SPLINE
  5
18f
100
AcDbEntity
  8
Layer_1
 62
4
100
AcDbSpline
 70
8
 71
3
 72
8
 73
4
 74
0
 40
0
 40
0
 40
0
 40
0
 40
1
 40
1
 40
1
 40
1
 10
578.007131
 20
-76.555523
 30
0.0
 10
578.709998
 20
-76.494029
 30
0.0
 10
579.412869
 20
-76.432575
 30
0.0
 10
580.115743
 20
-76.371159
 30
0.0
  0
LINE
  5
190
100
AcDbEntity
  8
Layer_1
 62
4
100
AcDbLine
 10
580.115743
 20
-76.371159
 30
0.0
 11
614.331576
 21
-73.381438
 31
0.0
  0
SPLINE
  5
191
100
AcDbEntity
  8
Layer_1
 62
4
100
AcDbSpline
 70
8
 71
3
 72
8
 73
4
 74
0
 40
0
 40
0
 40
0
 40
0
 40
1
 40
1
 40
1
 40
1
 10
614.331576
 20
-73.381438
 30
0.0
 10
614.913856
 20
-73.330564
 30
0.0
 10
615.857913
 20
-73.248020
 30
0.0
 10
616.440190
 20
-73.197054
 30
0.0
  0
SPLINE
  5
192
100
AcDbEntity
  8
Layer_1
 62
4
100
AcDbSpline
 70
8
 71
3
 72
8
 73
4
 74
0
 40
0
 40
0
 40
0
 40
0
 40
1
 40
1
 40
1
 40
1
 10
616.440190
 20
-73.197054
 30
0.0
 10
630.616616
 20
-71.956049
 30
0.0
 10
644.791854
 20
-70.701097
 30
0.0
 10
658.970223
 20
-69.482516
 30
0.0
  0
SPLINE
  5
193
100
AcDbEntity
  8
Layer_1
 62
4
100
AcDbSpline
 70
8
 71
3
 72
8
 73
4
 74
0
 40
0
 40
0
 40
0
 40
0
 40
1
 40
1
 40
1
 40
1
 10
658.970223
 20
-69.482516
 30
0.0
 10
659.552571
 20
-69.432471
 30
0.0
 10
660.496794
 20
-69.351808
 30
0.0
 10
661.079197
 20
-69.302279
 30
0.0
  0
LINE
  5
194
100
AcDbEntity
  8
Layer_1
 62
4
100
AcDbLine
 10
661.079197
 20
-69.302279
 30
0.0
 11
695.301922
 21
-66.391661
 31
0.0
  0
SPLINE
  5
195
100
AcDbEntity
  8
Layer_1
 62
4
100
AcDbSpline
 70
8
 71
3
 72
8
 73
4
 74
0
 40
0
 40
0
 40
0
 40
0
 40
1
 40
1
 40
1
 40
1
 10
695.301922
 20
-66.391661
 30
0.0
 10
696.004940
 20
-66.331871
 30
0.0
 10
696.707899
 20
-66.271398
 30
0.0
 10
697.410799
 20
-66.210241
 30
0.0
  0
SPLINE
  5
196
100
AcDbEntity
  8
Layer_1
 62
4
100
AcDbSpline
 70
8
 71
3
 72
8
 73
4
 74
0
 40
0
 40
0
 40
0
 40
0
 40
1
 40
1
 40
1
 40
1
 10
697.410799
 20
-66.210241
 30
0.0
 10
697.985444
 20
-66.160234
 30
0.0
 10
698.410002
 20
-65.647677
 30
0.0
 10
698.359097
 20
-65.065394
 30
0.0
  0
SPLINE
  5
197
100
AcDbEntity
  8
Layer_1
 62
4
100
AcDbSpline
 70
8
 71
3
 72
8
 73
4
 74
0
 40
0
 40
0
 40
0
 40
0
 40
1
 40
1
 40
1
 40
1
 10
698.359097
 20
-65.065394
 30
0.0
 10
696.179963
 20
-40.138315
 30
0.0
 10
693.975405
 20
-14.931245
 30
0.0
 10
691.793880
 20
9.997770
 30
0.0
  0
SPLINE
  5
198
100
AcDbEntity
  8
Layer_1
 62
4
100
AcDbSpline
 70
8
 71
3
 72
8
 73
4
 74
0
 40
0
 40
0
 40
0
 40
0
 40
1
 40
1
 40
1
 40
1
 10
691.793880
 20
9.997770
 30
0.0
 10
691.742925
 20
10.580047
 30
0.0
 10
691.229634
 20
11.010331
 30
0.0
 10
690.647400
 20
10.958830
 30
0.0
  0
SPLINE
  5
199
100
AcDbEntity
  8
Layer_1
 62
4
100
AcDbSpline
 70
8
 71
3
 72
8
 73
4
 74
0
 40
0
 40
0
 40
0
 40
0
 40
1
 40
1
 40
1
 40
1
 10
690.647400
 20
10.958830
 30
0.0
 10
689.948543
 20
10.897013
 30
0.0
 10
689.249745
 20
10.834536
 30
0.0
 10
688.551007
 20
10.771399
 30
0.0
  0
LINE
  5
19a
100
AcDbEntity
  8
Layer_1
 62
4
100
AcDbLine
 10
688.551007
 20
10.771399
 30
0.0
 11
685.718938
 21
10.515516
 31
0.0
  0
SPLINE
  5
19b
100
AcDbEntity
  8
Layer_1
 62
4
100
AcDbSpline
 70
8
 71
3
 72
8
 73
4
 74
0
 40
0
 40
0
 40
0
 40
0
 40
1
 40
1
 40
1
 40
1
 10
685.718938
 20
10.515516
 30
0.0
 10
685.016246
 20
10.452026
 30
0.0
 10
684.313488
 20
10.389266
 30
0.0
 10
683.610666
 20
10.327238
 30
0.0
  0
LINE
  5
19c
100
AcDbEntity
  8
Layer_1
 62
4
100
AcDbLine
 10
683.610666
 20
10.327238
 30
0.0
 11
568.372252
 21
0.156856
 31
0.0
  0
SPLINE
  5
19d
100
AcDbEntity
  8
Layer_1
 62
4
100
AcDbSpline
 70
8
 71
3
 72
8
 73
4
 74
0
 40
0
 40
0
 40
0
 40
0
 40
1
 40
1
 40
1
 40
1
 10
568.372252
 20
0.156856
 30
0.0
 10
567.669428
 20
0.094829
 30
0.0
 10
566.966583
 20
0.033051
 30
0.0
 10
566.263715
 20
-0.028478
 30
0.0
  0
LINE
  5
19e
100
AcDbEntity
  8
Layer_1
 62
4
100
AcDbLine
 10
566.263715
 20
-0.028478
 30
0.0
 11
566.165187
 21
-0.037124
 31
0.0
  0
SPLINE
  5
19f
100
AcDbEntity
  8
Layer_1
 62
4
100
AcDbSpline
 70
8
 71
3
 72
8
 73
4
 74
0
 40
0
 40
0
 40
0
 40
0
 40
1
 40
1
 40
1
 40
1
 10
566.165187
 20
-0.037124
 30
0.0
 10
565.582908
 20
-0.088099
 30
0.0
 10
564.638799
 20
-0.170096
 30
0.0
 10
564.056467
 20
-0.220424
 30
0.0
  0
SPLINE
  5
1a0
100
AcDbEntity
  8
Layer_1
 62
4
100
AcDbSpline
 70
8
 71
3
 72
8
 73
4
 74
0
 40
0
 40
0
 40
0
 40
0
 40
1
 40
1
 40
1
 40
1
 10
564.056467
 20
-0.220424
 30
0.0
 10
563.920739
 20
-0.232139
 30
0.0
 10
563.784993
 20
-0.243953
 30
0.0
 10
563.649265
 20
-0.255668
 30
0.0
  0
SPLINE
  5
1a1
100
AcDbEntity
  8
Layer_1
 62
4
100
AcDbSpline
 70
8
 71
3
 72
8
 73
4
 74
0
 40
0
 40
0
 40
0
 40
0
 40
1
 40
1
 40
1
 40
1
 10
563.649265
 20
-0.255668
 30
0.0
 10
563.066951
 20
-0.306138
 30
0.0
 10
562.122914
 20
-0.389025
 30
0.0
 10
561.540657
 20
-0.440213
 30
0.0
  0
LINE
  5
1a2
100
AcDbEntity
  8
Layer_1
 62
4
100
AcDbLine
 10
561.540657
 20
-0.440213
 30
0.0
 11
558.663355
 21
-0.693132
 31
0.0
  0
SPLINE
  5
1a3
100
AcDbEntity
  8
Layer_1
 62
4
100
AcDbSpline
 70
8
 71
3
 72
8
 73
4
 74
0
 40
0
 40
0
 40
0
 40
0
 40
1
 40
1
 40
1
 40
1
 10
558.663355
 20
-0.693132
 30
0.0
 10
558.383786
 20
-0.717709
 30
0.0
 10
558.105909
 20
-0.630190
 30
0.0
 10
557.890883
 20
-0.449839
 30
0.0
  0
SPLINE
  5
1a4
100
AcDbEntity
  8
Layer_1
 62
4
100
AcDbSpline
 70
8
 71
3
 72
8
 73
4
 74
0
 40
0
 40
0
 40
0
 40
0
 40
1
 40
1
 40
1
 40
1
 10
557.890883
 20
-0.449839
 30
0.0
 10
557.675856
 20
-0.269488
 30
0.0
 10
557.541305
 20
-0.011087
 30
0.0
 10
557.516843
 20
0.268492
 30
0.0
  0
LINE
  5
1a5
100
AcDbEntity
  8
Layer_1
 62
4
100
AcDbLine
 10
557.516843
 20
0.268492
 30
0.0
 11
557.457440
 21
0.947543
 31
0.0
  0
SPLINE
  5
1a6
100
AcDbEntity
  8
Layer_1
 62
4
100
AcDbSpline
 70
8
 71
3
 72
8
 73
4
 74
0
 40
0
 40
0
 40
0
 40
0
 40
1
 40
1
 40
1
 40
1
 10
557.457440
 20
0.947543
 30
0.0
 10
557.405248
 20
1.544078
 30
0.0
 10
556.905679
 20
2.001723
 30
0.0
 10
556.306866
 20
2.001564
 30
0.0
  0
LINE
  5
1a7
100
AcDbEntity
  8
Layer_1
 62
4
100
AcDbLine
 10
556.306866
 20
2.001564
 30
0.0
 11
542.130293
 21
1.997809
 31
0.0
  0
SPLINE
  5
1a8
100
AcDbEntity
  8
Layer_1
 62
4
100
AcDbSpline
 70
8
 71
3
 72
8
 73
4
 74
0
 40
0
 40
0
 40
0
 40
0
 40
1
 40
1
 40
1
 40
1
 10
542.130293
 20
1.997809
 30
0.0
 10
541.849639
 20
1.997735
 30
0.0
 10
541.580456
 20
2.109177
 30
0.0
 10
541.381985
 20
2.307610
 30
0.0
  0
SPLINE
  5
1a9
100
AcDbEntity
  8
Layer_1
 62
4
100
AcDbSpline
 70
8
 71
3
 72
8
 73
4
 74
0
 40
0
 40
0
 40
0
 40
0
 40
1
 40
1
 40
1
 40
1
 10
541.381985
 20
2.307610
 30
0.0
 10
541.183514
 20
2.506043
 30
0.0
 10
541.072020
 20
2.775204
 30
0.0
 10
541.072041
 20
3.055858
 30
0.0
  0
LINE
  5
1aa
100
AcDbEntity
  8
Layer_1
 62
4
100
AcDbLine
 10
541.072041
 20
3.055858
 30
0.0
 11
541.073014
 21
15.794427
 31
0.0
  0
SPLINE
  5
1ab
100
AcDbEntity
  8
Layer_1
 62
4
100
AcDbSpline
 70
8
 71
3
 72
8
 73
4
 74
0
 40
0
 40
0
 40
0
 40
0
 40
1
 40
1
 40
1
 40
1
 10
541.073014
 20
15.794427
 30
0.0
 10
541.073037
 20
16.075103
 30
0.0
 10
541.184564
 20
16.344273
 30
0.0
 10
541.383057
 20
16.542716
 30
0.0
  0
SPLINE
  5
1ac
100
AcDbEntity
  8
Layer_1
 62
4
100
AcDbSpline
 70
8
 71
3
 72
8
 73
4
 74
0
 40
0
 40
0
 40
0
 40
0
 40
1
 40
1
 40
1
 40
1
 10
541.383057
 20
16.542716
 30
0.0
 10
541.581550
 20
16.741158
 30
0.0
 10
541.850748
 20
16.852616
 30
0.0
 10
542.131425
 20
16.852567
 30
0.0
  0
LINE
  5
1ad
100
AcDbEntity
  8
Layer_1
 62
4
100
AcDbLine
 10
542.131425
 20
16.852567
 30
0.0
 11
555.052986
 21
16.850280
 31
0.0
  0
SPLINE
  5
1ae
100
AcDbEntity
  8
Layer_1
 62
4
100
AcDbSpline
 70
8
 71
3
 72
8
 73
4
 74
0
 40
0
 40
0
 40
0
 40
0
 40
1
 40
1
 40
1
 40
1
 10
555.052986
 20
16.850280
 30
0.0
 10
555.735293
 20
16.850159
 30
0.0
 10
556.394489
 20
17.097505
 30
0.0
 10
556.908300
 20
17.546438
 30
0.0
  0
LINE
  5
1af
100
AcDbEntity
  8
Layer_1
 62
4
100
AcDbLine
 10
556.908300
 20
17.546438
 30
0.0
 11
558.250888
 21
18.719498
 31
0.0
  0
SPLINE
  5
1b0
100
AcDbEntity
  8
Layer_1
 62
4
100
AcDbSpline
 70
8
 71
3
 72
8
 73
4
 74
0
 40
0
 40
0
 40
0
 40
0
 40
1
 40
1
 40
1
 40
1
 10
558.250888
 20
18.719498
 30
0.0
 10
558.768769
 20
19.171989
 30
0.0
 10
559.417078
 20
19.448152
 30
0.0
 10
560.102173
 20
19.508098
 30
0.0
  0
LINE
  5
1b1
100
AcDbEntity
  8
Layer_1
 62
4
100
AcDbLine
 10
560.102173
 20
19.508098
 30
0.0
 11
655.053522
 21
27.816218
 31
0.0
  0
SPLINE
  5
1b2
100
AcDbEntity
  8
Layer_1
 62
4
100
AcDbSpline
 70
8
 71
3
 72
8
 73
4
 74
0
 40
0
 40
0
 40
0
 40
0
 40
1
 40
1
 40
1
 40
1
 10
655.053522
 20
27.816218
 30
0.0
 10
655.756391
 20
27.877720
 30
0.0
 10
656.459260
 20
27.939225
 30
0.0
 10
657.162128
 20
28.000733
 30
0.0
  0
LINE
  5
1b3
100
AcDbEntity
  8
Layer_1
 62
4
100
AcDbLine
 10
657.162128
 20
28.000733
 30
0.0
 11
674.374277
 21
29.506907
 31
0.0
  0
SPLINE
  5
1b4
100
AcDbEntity
  8
Layer_1
 62
4
100
AcDbSpline
 70
8
 71
3
 72
8
 73
4
 74
0
 40
0
 40
0
 40
0
 40
0
 40
1
 40
1
 40
1
 40
1
 10
674.374277
 20
29.506907
 30
0.0
 10
675.077145
 20
29.568413
 30
0.0
 10
675.780014
 20
29.629918
 30
0.0
 10
676.482882
 20
29.691422
 30
0.0
  0
LINE
  5
1b5
100
AcDbEntity
  8
Layer_1
 62
4
100
AcDbLine
 10
676.482882
 20
29.691422
 30
0.0
 11
690.675770
 21
30.933336
 31
0.0
  0
SPLINE
  5
1b6
100
AcDbEntity
  8
Layer_1
 62
4
100
AcDbSpline
 70
8
 71
3
 72
8
 73
4
 74
0
 40
0
 40
0
 40
0
 40
0
 40
1
 40
1
 40
1
 40
1
 10
690.675770
 20
30.933336
 30
0.0
 10
691.355432
 20
30.992806
 30
0.0
 10
692.033572
 20
30.803512
 30
0.0
 10
692.584174
 20
30.400631
 30
0.0
  0
LINE
  5
1b7
100
AcDbEntity
  8
Layer_1
 62
4
100
AcDbLine
 10
692.584174
 20
30.400631
 30
0.0
 11
694.337181
 21
29.117945
 31
0.0
  0
SPLINE
  5
1b8
100
AcDbEntity
  8
Layer_1
 62
4
100
AcDbSpline
 70
8
 71
3
 72
8
 73
4
 74
0
 40
0
 40
0
 40
0
 40
0
 40
1
 40
1
 40
1
 40
1
 10
694.337181
 20
29.117945
 30
0.0
 10
694.879959
 20
28.720789
 30
0.0
 10
695.224907
 20
28.108689
 30
0.0
 10
695.283526
 20
27.438685
 30
0.0
  0
LINE
  5
1b9
100
AcDbEntity
  8
Layer_1
 62
4
100
AcDbLine
 10
695.283526
 20
27.438685
 30
0.0
 11
704.246180
 21
-75.005061
 31
0.0
  0
SPLINE
  5
1ba
100
AcDbEntity
  8
Layer_1
 62
4
100
AcDbSpline
 70
8
 71
3
 72
8
 73
4
 74
0
 40
0
 40
0
 40
0
 40
0
 40
1
 40
1
 40
1
 40
1
 10
704.246180
 20
-75.005061
 30
0.0
 10
704.305082
 20
-75.678306
 30
0.0
 10
704.085428
 20
-76.346267
 30
0.0
 10
703.638446
 20
-76.853156
 30
0.0
  0
LINE
  5
1bb
100
AcDbEntity
  8
Layer_1
 62
4
100
AcDbLine
 10
703.638446
 20
-76.853156
 30
0.0
 11
702.098370
 21
-78.599625
 31
0.0
  0
SPLINE
  5
1bc
100
AcDbEntity
  8
Layer_1
 62
4
100
AcDbSpline
 70
8
 71
3
 72
8
 73
4
 74
0
 40
0
 40
0
 40
0
 40
0
 40
1
 40
1
 40
1
 40
1
 10
702.098370
 20
-78.599625
 30
0.0
 10
701.649012
 20
-79.109208
 30
0.0
 10
701.020921
 20
-79.426503
 30
0.0
 10
700.344107
 20
-79.485833
 30
0.0
  0
LINE
  5
1bd
100
AcDbEntity
  8
Layer_1
 62
4
100
AcDbLine
 10
700.344107
 20
-79.485833
 30
0.0
 11
684.825662
 21
-80.846178
 31
0.0
  0
SPLINE
  5
1be
100
AcDbEntity
  8
Layer_1
 62
4
100
AcDbSpline
 70
8
 71
3
 72
8
 73
4
 74
0
 40
0
 40
0
 40
0
 40
0
 40
1
 40
1
 40
1
 40
1
 10
684.825662
 20
-80.846178
 30
0.0
 10
684.122802
 20
-80.907789
 30
0.0
 10
683.419942
 20
-80.969395
 30
0.0
 10
682.717081
 20
-81.030997
 30
0.0
  0
LINE
  5
1bf
100
AcDbEntity
  8
Layer_1
 62
4
100
AcDbLine
 10
682.717081
 20
-81.030997
 30
0.0
 11
665.768801
 21
-82.516459
 31
0.0
  0
SPLINE
  5
1c0
100
AcDbEntity
  8
Layer_1
 62
4
100
AcDbSpline
 70
8
 71
3
 72
8
 73
4
 74
0
 40
0
 40
0
 40
0
 40
0
 40
1
 40
1
 40
1
 40
1
 10
665.768801
 20
-82.516459
 30
0.0
 10
665.065939
 20
-82.578064
 30
0.0
 10
664.363076
 20
-82.639656
 30
0.0
 10
663.660213
 20
-82.701237
 30
0.0
  0
LINE
  5
1c1
100
AcDbEntity
  8
Layer_1
 62
4
100
AcDbLine
 10
663.660213
 20
-82.701237
 30
0.0
 11
569.762047
 21
-90.927938
 31
0.0
  0
SPLINE
  5
1c2
100
AcDbEntity
  8
Layer_1
 62
4
100
AcDbSpline
 70
8
 71
3
 72
8
 73
4
 74
0
 40
0
 40
0
 40
0
 40
0
 40
1
 40
1
 40
1
 40
1
 10
569.762047
 20
-90.927938
 30
0.0
 10
569.085556
 20
-90.987208
 30
0.0
 10
568.412366
 20
-90.782458
 30
0.0
 10
567.883437
 20
-90.356562
 30
0.0
  0
LINE
  5
1c3
100
AcDbEntity
  8
Layer_1
 62
4
100
AcDbLine
 10
567.883437
 20
-90.356562
 30
0.0
 11
566.083861
 21
-88.907524
 31
0.0
  0
SPLINE
  5
1c4
100
AcDbEntity
  8
Layer_1
 62
4
100
AcDbSpline
 70
8
 71
3
 72
8
 73
4
 74
0
 40
0
 40
0
 40
0
 40
0
 40
1
 40
1
 40
1
 40
1
 10
566.083861
 20
-88.907524
 30
0.0
 10
565.550379
 20
-88.477958
 30
0.0
 10
564.886141
 20
-88.243558
 30
0.0
 10
564.201210
 20
-88.243162
 30
0.0
  0
LINE
  5
1c5
100
AcDbEntity
  8
Layer_1
 62
4
100
AcDbLine
 10
564.201210
 20
-88.243162
 30
0.0
 11
502.034553
 21
-88.207305
 31
0.0
  0
SPLINE
  5
1c6
100
AcDbEntity
  8
Layer_1
 62
4
100
AcDbSpline
 70
8
 71
3
 72
8
 73
4
 74
0
 40
0
 40
0
 40
0
 40
0
 40
1
 40
1
 40
1
 40
1
 10
502.034553
 20
-88.207305
 30
0.0
 10
501.350092
 20
-88.206910
 30
0.0
 10
500.686519
 20
-88.443033
 30
0.0
 10
500.156160
 20
-88.875705
 30
0.0
  0
LINE
  5
1c7
100
AcDbEntity
  8
Layer_1
 62
4
100
AcDbLine
 10
500.156160
 20
-88.875705
 30
0.0
 11
500.156023
 21
-88.875894
 31
0.0
  0
SPLINE
  5
1c8
100
AcDbEntity
  8
Layer_1
 62
4
100
AcDbSpline
 70
8
 71
3
 72
8
 73
4
 74
0
 40
0
 40
0
 40
0
 40
0
 40
1
 40
1
 40
1
 40
1
 10
488.002862
 20
11.890661
 30
0.0
 10
487.096285
 20
11.969976
 30
0.0
 10
486.231197
 20
11.495373
 30
0.0
 10
485.810987
 20
10.688157
 30
0.0
  0
SPLINE
  5
1c9
100
AcDbEntity
  8
Layer_1
 62
4
100
AcDbSpline
 70
8
 71
3
 72
8
 73
4
 74
0
 40
0
 40
0
 40
0
 40
0
 40
1
 40
1
 40
1
 40
1
 10
485.810987
 20
10.688157
 30
0.0
 10
485.390777
 20
9.880942
 30
0.0
 10
485.498199
 20
8.900082
 30
0.0
 10
486.083162
 20
8.202951
 30
0.0
  0
SPLINE
  5
1ca
100
AcDbEntity
  8
Layer_1
 62
4
100
AcDbSpline
 70
8
 71
3
 72
8
 73
4
 74
0
 40
0
 40
0
 40
0
 40
0
 40
1
 40
1
 40
1
 40
1
 10
486.083162
 20
8.202951
 30
0.0
 10
486.668124
 20
7.505820
 30
0.0
 10
487.615429
 20
7.229705
 30
0.0
 10
488.483350
 20
7.503360
 30
0.0
  0
SPLINE
  5
1cb
100
AcDbEntity
  8
Layer_1
 62
4
100
AcDbSpline
 70
8
 71
3
 72
8
 73
4
 74
0
 40
0
 40
0
 40
0
 40
0
 40
1
 40
1
 40
1
 40
1
 10
488.483350
 20
7.503360
 30
0.0
 10
489.351270
 20
7.777014
 30
0.0
 10
489.968884
 20
8.546545
 30
0.0
 10
490.048200
 20
9.453122
 30
0.0
  0
SPLINE
  5
1cc
100
AcDbEntity
  8
Layer_1
 62
4
100
AcDbSpline
 70
8
 71
3
 72
8
 73
4
 74
0
 40
0
 40
0
 40
0
 40
0
 40
1
 40
1
 40
1
 40
1
 10
490.048200
 20
9.453122
 30
0.0
 10
490.100209
 20
10.047589
 30
0.0
 10
489.913937
 20
10.638368
 30
0.0
 10
489.530362
 20
11.095495
 30
0.0
  0
SPLINE
  5
1cd
100
AcDbEntity
  8
Layer_1
 62
4
100
AcDbSpline
 70
8
 71
3
 72
8
 73
4
 74
0
 40
0
 40
0
 40
0
 40
0
 40
1
 40
1
 40
1
 40
1
 10
489.530362
 20
11.095495
 30
0.0
 10
489.146786
 20
11.552622
 30
0.0
 10
488.597328
 20
11.838652
 30
0.0
 10
488.002862
 20
11.890661
 30
0.0
  0
LINE
  5
1ce
100
AcDbEntity
  8
Layer_1
 62
4
100
AcDbLine
 10
488.002862
 20
11.890661
 30
0.0
 11
488.002862
 21
11.890661
 31
0.0
  0
SPLINE
  5
1cf
100
AcDbEntity
  8
Layer_1
 62
4
100
AcDbSpline
 70
8
 71
3
 72
8
 73
4
 74
0
 40
0
 40
0
 40
0
 40
0
 40
1
 40
1
 40
1
 40
1
 10
391.099886
 20
20.368573
 30
0.0
 10
390.193309
 20
20.447888
 30
0.0
 10
389.328221
 20
19.973285
 30
0.0
 10
388.908011
 20
19.166069
 30
0.0
  0
SPLINE
  5
1d0
100
AcDbEntity
  8
Layer_1
 62
4
100
AcDbSpline
 70
8
 71
3
 72
8
 73
4
 74
0
 40
0
 40
0
 40
0
 40
0
 40
1
 40
1
 40
1
 40
1
 10
388.908011
 20
19.166069
 30
0.0
 10
388.487801
 20
18.358854
 30
0.0
 10
388.595223
 20
17.377994
 30
0.0
 10
389.180185
 20
16.680863
 30
0.0
  0
SPLINE
  5
1d1
100
AcDbEntity
  8
Layer_1
 62
4
100
AcDbSpline
 70
8
 71
3
 72
8
 73
4
 74
0
 40
0
 40
0
 40
0
 40
0
 40
1
 40
1
 40
1
 40
1
 10
389.180185
 20
16.680863
 30
0.0
 10
389.765148
 20
15.983732
 30
0.0
 10
390.712453
 20
15.707617
 30
0.0
 10
391.580373
 20
15.981272
 30
0.0
  0
SPLINE
  5
1d2
100
AcDbEntity
  8
Layer_1
 62
4
100
AcDbSpline
 70
8
 71
3
 72
8
 73
4
 74
0
 40
0
 40
0
 40
0
 40
0
 40
1
 40
1
 40
1
 40
1
 10
391.580373
 20
15.981272
 30
0.0
 10
392.448294
 20
16.254926
 30
0.0
 10
393.065908
 20
17.024457
 30
0.0
 10
393.145223
 20
17.931034
 30
0.0
  0
SPLINE
  5
1d3
100
AcDbEntity
  8
Layer_1
 62
4
100
AcDbSpline
 70
8
 71
3
 72
8
 73
4
 74
0
 40
0
 40
0
 40
0
 40
0
 40
1
 40
1
 40
1
 40
1
 10
393.145223
 20
17.931034
 30
0.0
 10
393.197232
 20
18.525501
 30
0.0
 10
393.010960
 20
19.116280
 30
0.0
 10
392.627385
 20
19.573407
 30
0.0
  0
SPLINE
  5
1d4
100
AcDbEntity
  8
Layer_1
 62
4
100
AcDbSpline
 70
8
 71
3
 72
8
 73
4
 74
0
 40
0
 40
0
 40
0
 40
0
 40
1
 40
1
 40
1
 40
1
 10
392.627385
 20
19.573407
 30
0.0
 10
392.243810
 20
20.030534
 30
0.0
 10
391.694352
 20
20.316564
 30
0.0
 10
391.099886
 20
20.368573
 30
0.0
  0
LINE
  5
1d5
100
AcDbEntity
  8
Layer_1
 62
4
100
AcDbLine
 10
391.099886
 20
20.368573
 30
0.0
 11
391.099886
 21
20.368573
 31
0.0
  0
SPLINE
  5
1d6
100
AcDbEntity
  8
Layer_1
 62
4
100
AcDbSpline
 70
8
 71
3
 72
8
 73
4
 74
0
 40
0
 40
0
 40
0
 40
0
 40
1
 40
1
 40
1
 40
1
 10
674.199883
 20
20.284797
 30
0.0
 10
673.293306
 20
20.205481
 30
0.0
 10
672.523775
 20
19.587867
 30
0.0
 10
672.250120
 20
18.719947
 30
0.0
  0
SPLINE
  5
1d7
100
AcDbEntity
  8
Layer_1
 62
4
100
AcDbSpline
 70
8
 71
3
 72
8
 73
4
 74
0
 40
0
 40
0
 40
0
 40
0
 40
1
 40
1
 40
1
 40
1
 10
672.250120
 20
18.719947
 30
0.0
 10
671.976466
 20
17.852026
 30
0.0
 10
672.252580
 20
16.904721
 30
0.0
 10
672.949711
 20
16.319759
 30
0.0
  0
SPLINE
  5
1d8
100
AcDbEntity
  8
Layer_1
 62
4
100
AcDbSpline
 70
8
 71
3
 72
8
 73
4
 74
0
 40
0
 40
0
 40
0
 40
0
 40
1
 40
1
 40
1
 40
1
 10
672.949711
 20
16.319759
 30
0.0
 10
673.646843
 20
15.734796
 30
0.0
 10
674.627703
 20
15.627375
 30
0.0
 10
675.434918
 20
16.047584
 30
0.0
  0
SPLINE
  5
1d9
100
AcDbEntity
  8
Layer_1
 62
4
100
AcDbSpline
 70
8
 71
3
 72
8
 73
4
 74
0
 40
0
 40
0
 40
0
 40
0
 40
1
 40
1
 40
1
 40
1
 10
675.434918
 20
16.047584
 30
0.0
 10
676.242133
 20
16.467794
 30
0.0
 10
676.716737
 20
17.332882
 30
0.0
 10
676.637422
 20
18.239459
 30
0.0
  0
SPLINE
  5
1da
100
AcDbEntity
  8
Layer_1
 62
4
100
AcDbSpline
 70
8
 71
3
 72
8
 73
4
 74
0
 40
0
 40
0
 40
0
 40
0
 40
1
 40
1
 40
1
 40
1
 10
676.637422
 20
18.239459
 30
0.0
 10
676.585413
 20
18.833925
 30
0.0
 10
676.299383
 20
19.383383
 30
0.0
 10
675.842256
 20
19.766959
 30
0.0
  0
SPLINE
  5
1db
100
AcDbEntity
  8
Layer_1
 62
4
100
AcDbSpline
 70
8
 71
3
 72
8
 73
4
 74
0
 40
0
 40
0
 40
0
 40
0
 40
1
 40
1
 40
1
 40
1
 10
675.842256
 20
19.766959
 30
0.0
 10
675.385129
 20
20.150534
 30
0.0
 10
674.794350
 20
20.336806
 30
0.0
 10
674.199883
 20
20.284797
 30
0.0
  0
LINE
  5
1dc
100
AcDbEntity
  8
Layer_1
 62
4
100
AcDbLine
 10
674.199883
 20
20.284797
 30
0.0
 11
674.199883
 21
20.284797
 31
0.0
  0
SPLINE
  5
1dd
100
AcDbEntity
  8
Layer_1
 62
4
100
AcDbSpline
 70
8
 71
3
 72
8
 73
4
 74
0
 40
0
 40
0
 40
0
 40
0
 40
1
 40
1
 40
1
 40
1
 10
577.296907
 20
11.806885
 30
0.0
 10
576.390330
 20
11.727570
 30
0.0
 10
575.620798
 20
11.109955
 30
0.0
 10
575.347144
 20
10.242035
 30
0.0
  0
SPLINE
  5
1de
100
AcDbEntity
  8
Layer_1
 62
4
100
AcDbSpline
 70
8
 71
3
 72
8
 73
4
 74
0
 40
0
 40
0
 40
0
 40
0
 40
1
 40
1
 40
1
 40
1
 10
575.347144
 20
10.242035
 30
0.0
 10
575.073490
 20
9.374114
 30
0.0
 10
575.349604
 20
8.426809
 30
0.0
 10
576.046735
 20
7.841847
 30
0.0
  0
SPLINE
  5
1df
100
AcDbEntity
  8
Layer_1
 62
4
100
AcDbSpline
 70
8
 71
3
 72
8
 73
4
 74
0
 40
0
 40
0
 40
0
 40
0
 40
1
 40
1
 40
1
 40
1
 10
576.046735
 20
7.841847
 30
0.0
 10
576.743866
 20
7.256884
 30
0.0
 10
577.724726
 20
7.149463
 30
0.0
 10
578.531942
 20
7.569672
 30
0.0
  0
SPLINE
  5
1e0
100
AcDbEntity
  8
Layer_1
 62
4
100
AcDbSpline
 70
8
 71
3
 72
8
 73
4
 74
0
 40
0
 40
0
 40
0
 40
0
 40
1
 40
1
 40
1
 40
1
 10
578.531942
 20
7.569672
 30
0.0
 10
579.339157
 20
7.989882
 30
0.0
 10
579.813761
 20
8.854970
 30
0.0
 10
579.734445
 20
9.761547
 30
0.0
  0
SPLINE
  5
1e1
100
AcDbEntity
  8
Layer_1
 62
4
100
AcDbSpline
 70
8
 71
3
 72
8
 73
4
 74
0
 40
0
 40
0
 40
0
 40
0
 40
1
 40
1
 40
1
 40
1
 10
579.734445
 20
9.761547
 30
0.0
 10
579.682436
 20
10.356013
 30
0.0
 10
579.396406
 20
10.905472
 30
0.0
 10
578.939279
 20
11.289047
 30
0.0
  0
SPLINE
  5
1e2
100
AcDbEntity
  8
Layer_1
 62
4
100
AcDbSpline
 70
8
 71
3
 72
8
 73
4
 74
0
 40
0
 40
0
 40
0
 40
0
 40
1
 40
1
 40
1
 40
1
 10
578.939279
 20
11.289047
 30
0.0
 10
578.482152
 20
11.672622
 30
0.0
 10
577.891373
 20
11.858894
 30
0.0
 10
577.296907
 20
11.806885
 30
0.0
  0
LINE
  5
1e3
100
AcDbEntity
  8
Layer_1
 62
4
100
AcDbLine
 10
577.296907
 20
11.806885
 30
0.0
 11
577.296907
 21
11.806885
 31
0.0
  0
ENDSEC
  0
SECTION
  2
OBJECTS
  0
DICTIONARY
  5
C
330
0
100
AcDbDictionary
  3
ACAD_GROUP
350
D
  3
ACAD_MLINESTYLE
350
17
  0
DICTIONARY
  5
D
330
C
100
AcDbDictionary
  0
DICTIONARY
  5
1A
330
C
100
AcDbDictionary
  0
DICTIONARY
  5
17
330
C
100
AcDbDictionary
  3
STANDARD
350
18
  0
DICTIONARY
  5
19
330
C
100
AcDbDictionary
  0
ENDSEC
  0
EOF
