  0
SECTION
  2
HEADER
  9
$ACADVER
  1
AC1014
  9
$HANDSEED
  5
FFFF
  9
$INSUNITS
 70
     0
  9
$MEASUREMENT
 70
     1
  0
ENDSEC
  0
SECTION
  2
TABLES
  0
TABLE
  2
VPORT
  5
8
330
0
100
AcDbSymbolTable
 70
     4
  0
VPORT
  5
2E
330
8
100
AcDbSymbolTableRecord
100
AcDbViewportTableRecord
  2
*ACTIVE
 70
     0
 10
0.0
 20
0.0
 11
1.0
 21
1.0
 12
210.0
 22
148.5
 13
0.0
 23
0.0
 14
10.0
 24
10.0
 15
10.0
 25
10.0
 16
0.0
 26
0.0
 36
1.0
 17
0.0
 27
0.0
 37
0.0
 40
341.0
 41
1.24
 42
50.0
 43
0.0
 44
0.0
 50
0.0
 51
0.0
 71
     0
 72
   100
 73
     1
 74
     3
 75
     0
 76
     0
 77
     0
 78
     0
  0
ENDTAB
  0
TABLE
  2
LTYPE
  5
5
330
0
100
AcDbSymbolTable
 70
     1
  0
LTYPE
  5
14
330
5
100
AcDbSymbolTableRecord
100
AcDbLinetypeTableRecord
  2
BYBLOCK
 70
     0
  3

 72
    65
 73
     0
 40
0.0
  0
LTYPE
  5
15
330
5
100
AcDbSymbolTableRecord
100
AcDbLinetypeTableRecord
  2
BYLAYER
 70
     0
  3

 72
    65
 73
     0
 40
0.0
  0
LTYPE
  5
16
330
5
100
AcDbSymbolTableRecord
100
AcDbLinetypeTableRecord
  2
CONTINUOUS
 70
     0
  3
Solid line
 72
    65
 73
     0
 40
0.0
  0
ENDTAB
  0
TABLE
  2
LAYER
  5
2
100
AcDbSymbolTable
 70
2
  0
LAYER
  5
50
100
AcDbSymbolTableRecord
100
AcDbLayerTableRecord
  2
0
 70
0
  6
CONTINUOUS
  0
LAYER
  5
51
100
AcDbSymbolTableRecord
100
AcDbLayerTableRecord
  2
Layer_1
 70
0
  6
CONTINUOUS
  0
ENDTAB
  0
TABLE
  2
STYLE
  5
3
330
0
100
AcDbSymbolTable
 70
     1
  0
STYLE
  5
11
330
3
100
AcDbSymbolTableRecord
100
AcDbTextStyleTableRecord
  2
STANDARD
 70
     0
 40
0.0
 41
1.0
 50
0.0
 71
     0
 42
2.5
  3
txt
  4

  0
ENDTAB
  0
TABLE
  2
VIEW
  5
6
330
0
100
AcDbSymbolTable
 70
     0
  0
ENDTAB
  0
TABLE
  2
UCS
  5
7
330
0
100
AcDbSymbolTable
 70
     0
  0
ENDTAB
  0
TABLE
  2
APPID
  5
9
330
0
100
AcDbSymbolTable
 70
     2
  0
APPID
  5
12
330
9
100
AcDbSymbolTableRecord
100
AcDbRegAppTableRecord
  2
ACAD
 70
     0
  0
ENDTAB
  0
TABLE
  2
DIMSTYLE
  5
A
330
0
100
AcDbSymbolTable
 70
     1
  0
DIMSTYLE
105
27
330
A
100
AcDbSymbolTableRecord
100
AcDbDimStyleTableRecord
  2
ISO-25
 70
     0
  3

  4

  5

  6

  7

 40
1.0
 41
2.5
 42
0.625
 43
3.75
 44
1.25
 45
0.0
 46
0.0
 47
0.0
 48
0.0
140
2.5
141
2.5
142
0.0
143
0.03937007874016
144
1.0
145
0.0
146
1.0
147
0.625
 71
     0
 72
     0
 73
     0
 74
     0
 75
     0
 76
     0
 77
     1
 78
     8
170
     0
171
     3
172
     1
173
     0
174
     0
175
     0
176
     0
177
     0
178
     0
270
     2
271
     2
272
     2
273
     2
274
     3
340
11
275
     0
280
     0
281
     0
282
     0
283
     0
284
     8
285
     0
286
     0
287
     3
288
     0
  0
ENDTAB
  0
TABLE
  2
BLOCK_RECORD
  5
1
330
0
100
AcDbSymbolTable
 70
     1
  0
BLOCK_RECORD
  5
1F
330
1
100
AcDbSymbolTableRecord
100
AcDbBlockTableRecord
  2
*MODEL_SPACE
  0
BLOCK_RECORD
  5
1B
330
1
100
AcDbSymbolTableRecord
100
AcDbBlockTableRecord
  2
*PAPER_SPACE
  0
ENDTAB
  0
ENDSEC
  0
SECTION
  2
BLOCKS
  0
BLOCK
  5
20
330
1F
100
AcDbEntity
  8
0
100
AcDbBlockBegin
  2
*MODEL_SPACE
 70
     0
 10
0.0
 20
0.0
 30
0.0
  3
*MODEL_SPACE
  1

  0
ENDBLK
  5
21
330
1F
100
AcDbEntity
  8
0
100
AcDbBlockEnd
  0
BLOCK
  5
1C
330
1B
100
AcDbEntity
 67
     1
  8
0
100
AcDbBlockBegin
  2
*PAPER_SPACE
  1

  0
ENDBLK
  5
1D
330
1B
100
AcDbEntity
 67
     1
  8
0
100
AcDbBlockEnd
  0
ENDSEC
  0
SECTION
  2
ENTITIES
  0
LINE
  5
100
100
AcDbEntity
  8
Layer_1
 62
5
100
AcDbLine
 10
524.122020
 20
16.850752
 30
0.0
 11
511.179482
 21
16.851187
 31
0.0
  0
SPLINE
  5
101
100
AcDbEntity
  8
Layer_1
 62
5
100
AcDbSpline
 70
8
 71
3
 72
8
 73
4
 74
0
 40
0
 40
0
 40
0
 40
0
 40
1
 40
1
 40
1
 40
1
 10
511.179482
 20
16.851187
 30
0.0
 10
510.497550
 20
16.851210
 30
0.0
 10
509.839149
 20
17.100519
 30
0.0
 10
509.328232
 20
17.552177
 30
0.0
  0
LINE
  5
102
100
AcDbEntity
  8
Layer_1
 62
5
100
AcDbLine
 10
509.328232
 20
17.552177
 30
0.0
 11
508.012296
 21
18.715483
 31
0.0
  0
SPLINE
  5
103
100
AcDbEntity
  8
Layer_1
 62
5
100
AcDbSpline
 70
8
 71
3
 72
8
 73
4
 74
0
 40
0
 40
0
 40
0
 40
0
 40
1
 40
1
 40
1
 40
1
 10
508.012296
 20
18.715483
 30
0.0
 10
507.497301
 20
19.170748
 30
0.0
 10
506.849831
 20
19.448780
 30
0.0
 10
506.165073
 20
19.508705
 30
0.0
  0
LINE
  5
104
100
AcDbEntity
  8
Layer_1
 62
5
100
AcDbLine
 10
506.165073
 20
19.508705
 30
0.0
 11
375.550907
 21
30.938926
 31
0.0
  0
SPLINE
  5
105
100
AcDbEntity
  8
Layer_1
 62
5
100
AcDbSpline
 70
8
 71
3
 72
8
 73
4
 74
0
 40
0
 40
0
 40
0
 40
0
 40
1
 40
1
 40
1
 40
1
 10
375.550907
 20
30.938926
 30
0.0
 10
374.870926
 20
30.998432
 30
0.0
 10
374.192289
 20
30.810765
 30
0.0
 10
373.639492
 20
30.410354
 30
0.0
  0
LINE
  5
106
100
AcDbEntity
  8
Layer_1
 62
5
100
AcDbLine
 10
373.639492
 20
30.410354
 30
0.0
 11
371.859801
 21
29.121258
 31
0.0
  0
SPLINE
  5
107
100
AcDbEntity
  8
Layer_1
 62
5
100
AcDbSpline
 70
8
 71
3
 72
8
 73
4
 74
0
 40
0
 40
0
 40
0
 40
0
 40
1
 40
1
 40
1
 40
1
 10
371.859801
 20
29.121258
 30
0.0
 10
371.315426
 20
28.726951
 30
0.0
 10
370.969043
 20
28.115736
 30
0.0
 10
370.910477
 20
27.446114
 30
0.0
  0
LINE
  5
108
100
AcDbEntity
  8
Layer_1
 62
5
100
AcDbLine
 10
370.910477
 20
27.446114
 30
0.0
 11
361.950129
 21
-75.004838
 31
0.0
  0
SPLINE
  5
109
100
AcDbEntity
  8
Layer_1
 62
5
100
AcDbSpline
 70
8
 71
3
 72
8
 73
4
 74
0
 40
0
 40
0
 40
0
 40
0
 40
1
 40
1
 40
1
 40
1
 10
361.950129
 20
-75.004838
 30
0.0
 10
361.891264
 20
-75.677875
 30
0.0
 10
362.111868
 20
-76.345489
 30
0.0
 10
362.560150
 20
-76.850946
 30
0.0
  0
LINE
  5
10a
100
AcDbEntity
  8
Layer_1
 62
5
100
AcDbLine
 10
362.560150
 20
-76.850946
 30
0.0
 11
364.131798
 21
-78.623041
 31
0.0
  0
SPLINE
  5
10b
100
AcDbEntity
  8
Layer_1
 62
5
100
AcDbSpline
 70
8
 71
3
 72
8
 73
4
 74
0
 40
0
 40
0
 40
0
 40
0
 40
1
 40
1
 40
1
 40
1
 10
364.131798
 20
-78.623041
 30
0.0
 10
364.519628
 20
-79.060344
 30
0.0
 10
365.306145
 20
-79.455207
 30
0.0
 10
365.888515
 20
-79.505040
 30
0.0
  0
SPLINE
  5
10c
100
AcDbEntity
  8
Layer_1
 62
5
100
AcDbSpline
 70
8
 71
3
 72
8
 73
4
 74
0
 40
0
 40
0
 40
0
 40
0
 40
1
 40
1
 40
1
 40
1
 10
365.888515
 20
-79.505040
 30
0.0
 10
379.393341
 20
-80.660634
 30
0.0
 10
392.133407
 20
-81.767225
 30
0.0
 10
404.675226
 20
-82.863244
 30
0.0
  0
SPLINE
  5
10d
100
AcDbEntity
  8
Layer_1
 62
5
100
AcDbSpline
 70
8
 71
3
 72
8
 73
4
 74
0
 40
0
 40
0
 40
0
 40
0
 40
1
 40
1
 40
1
 40
1
 10
404.675226
 20
-82.863244
 30
0.0
 10
405.257507
 20
-82.914129
 30
0.0
 10
406.201560
 20
-82.996743
 30
0.0
 10
406.783831
 20
-83.047749
 30
0.0
  0
LINE
  5
10e
100
AcDbEntity
  8
Layer_1
 62
5
100
AcDbLine
 10
406.783831
 20
-83.047749
 30
0.0
 11
422.364176
 21
-84.412627
 31
0.0
  0
SPLINE
  5
10f
100
AcDbEntity
  8
Layer_1
 62
5
100
AcDbSpline
 70
8
 71
3
 72
8
 73
4
 74
0
 40
0
 40
0
 40
0
 40
0
 40
1
 40
1
 40
1
 40
1
 10
422.364176
 20
-84.412627
 30
0.0
 10
422.946447
 20
-84.463632
 30
0.0
 10
423.890482
 20
-84.546389
 30
0.0
 10
424.472750
 20
-84.597476
 30
0.0
  0
SPLINE
  5
110
100
AcDbEntity
  8
Layer_1
 62
5
100
AcDbSpline
 70
8
 71
3
 72
8
 73
4
 74
0
 40
0
 40
0
 40
0
 40
0
 40
1
 40
1
 40
1
 40
1
 10
424.472750
 20
-84.597476
 30
0.0
 10
440.341641
 20
-85.989749
 30
0.0
 10
456.355073
 20
-87.396158
 30
0.0
 10
473.675687
 20
-88.897761
 30
0.0
  0
SPLINE
  5
111
100
AcDbEntity
  8
Layer_1
 62
5
100
AcDbSpline
 70
8
 71
3
 72
8
 73
4
 74
0
 40
0
 40
0
 40
0
 40
0
 40
1
 40
1
 40
1
 40
1
 10
473.675687
 20
-88.897761
 30
0.0
 10
474.258002
 20
-88.948241
 30
0.0
 10
475.202049
 20
-89.030906
 30
0.0
 10
475.784275
 20
-89.082428
 30
0.0
  0
LINE
  5
112
100
AcDbEntity
  8
Layer_1
 62
5
100
AcDbLine
 10
475.784275
 20
-89.082428
 30
0.0
 11
496.488862
 21
-90.914426
 31
0.0
  0
SPLINE
  5
113
100
AcDbEntity
  8
Layer_1
 62
5
100
AcDbSpline
 70
8
 71
3
 72
8
 73
4
 74
0
 40
0
 40
0
 40
0
 40
0
 40
1
 40
1
 40
1
 40
1
 10
496.488862
 20
-90.914426
 30
0.0
 10
497.164788
 20
-90.974235
 30
0.0
 10
497.837341
 20
-90.767646
 30
0.0
 10
498.363136
 20
-90.338701
 30
0.0
  0
LINE
  5
114
100
AcDbEntity
  8
Layer_1
 62
5
100
AcDbLine
 10
498.363136
 20
-90.338701
 30
0.0
 11
500.155974
 21
-88.876089
 31
0.0
  0
SPLINE
  5
115
100
AcDbEntity
  8
Layer_1
 62
5
100
AcDbSpline
 70
8
 71
3
 72
8
 73
4
 74
0
 40
0
 40
0
 40
0
 40
0
 40
1
 40
1
 40
1
 40
1
 10
500.155974
 20
-88.876089
 30
0.0
 10
500.686334
 20
-88.443419
 30
0.0
 10
501.349907
 20
-88.207298
 30
0.0
 10
502.034367
 20
-88.207693
 30
0.0
  0
LINE
  5
116
100
AcDbEntity
  8
Layer_1
 62
5
100
AcDbLine
 10
502.034367
 20
-88.207693
 30
0.0
 11
564.201025
 21
-88.243548
 31
0.0
  0
SPLINE
  5
117
100
AcDbEntity
  8
Layer_1
 62
5
100
AcDbSpline
 70
8
 71
3
 72
8
 73
4
 74
0
 40
0
 40
0
 40
0
 40
0
 40
1
 40
1
 40
1
 40
1
 10
564.201025
 20
-88.243548
 30
0.0
 10
564.885954
 20
-88.243946
 30
0.0
 10
565.550191
 20
-88.478347
 30
0.0
 10
566.083672
 20
-88.907913
 30
0.0
  0
LINE
  5
118
100
AcDbEntity
  8
Layer_1
 62
5
100
AcDbLine
 10
566.083672
 20
-88.907913
 30
0.0
 11
567.883251
 21
-90.356943
 31
0.0
  0
SPLINE
  5
119
100
AcDbEntity
  8
Layer_1
 62
5
100
AcDbSpline
 70
8
 71
3
 72
8
 73
4
 74
0
 40
0
 40
0
 40
0
 40
0
 40
1
 40
1
 40
1
 40
1
 10
567.883251
 20
-90.356943
 30
0.0
 10
568.412178
 20
-90.782841
 30
0.0
 10
569.085368
 20
-90.987593
 30
0.0
 10
569.761859
 20
-90.928326
 30
0.0
  0
LINE
  5
11a
100
AcDbEntity
  8
Layer_1
 62
5
100
AcDbLine
 10
569.761859
 20
-90.928326
 30
0.0
 11
663.660029
 21
-82.701656
 31
0.0
  0
SPLINE
  5
11b
100
AcDbEntity
  8
Layer_1
 62
5
100
AcDbSpline
 70
8
 71
3
 72
8
 73
4
 74
0
 40
0
 40
0
 40
0
 40
0
 40
1
 40
1
 40
1
 40
1
 10
663.660029
 20
-82.701656
 30
0.0
 10
664.362889
 20
-82.640076
 30
0.0
 10
665.065749
 20
-82.578483
 30
0.0
 10
665.768608
 20
-82.516879
 30
0.0
  0
LINE
  5
11c
100
AcDbEntity
  8
Layer_1
 62
5
100
AcDbLine
 10
665.768608
 20
-82.516879
 30
0.0
 11
682.716876
 21
-81.031086
 31
0.0
  0
SPLINE
  5
11d
100
AcDbEntity
  8
Layer_1
 62
5
100
AcDbSpline
 70
8
 71
3
 72
8
 73
4
 74
0
 40
0
 40
0
 40
0
 40
0
 40
1
 40
1
 40
1
 40
1
 10
682.716876
 20
-81.031086
 30
0.0
 10
683.419734
 20
-80.969481
 30
0.0
 10
684.122593
 20
-80.907872
 30
0.0
 10
684.825451
 20
-80.846258
 30
0.0
  0
LINE
  5
11e
100
AcDbEntity
  8
Layer_1
 62
5
100
AcDbLine
 10
684.825451
 20
-80.846258
 30
0.0
 11
700.343860
 21
-79.485562
 31
0.0
  0
SPLINE
  5
11f
100
AcDbEntity
  8
Layer_1
 62
5
100
AcDbSpline
 70
8
 71
3
 72
8
 73
4
 74
0
 40
0
 40
0
 40
0
 40
0
 40
1
 40
1
 40
1
 40
1
 10
700.343860
 20
-79.485562
 30
0.0
 10
701.020676
 20
-79.426232
 30
0.0
 10
701.648767
 20
-79.108937
 30
0.0
 10
702.098128
 20
-78.599355
 30
0.0
  0
LINE
  5
120
100
AcDbEntity
  8
Layer_1
 62
5
100
AcDbLine
 10
702.098128
 20
-78.599355
 30
0.0
 11
703.638203
 21
-76.852883
 31
0.0
  0
SPLINE
  5
121
100
AcDbEntity
  8
Layer_1
 62
5
100
AcDbSpline
 70
8
 71
3
 72
8
 73
4
 74
0
 40
0
 40
0
 40
0
 40
0
 40
1
 40
1
 40
1
 40
1
 10
703.638203
 20
-76.852883
 30
0.0
 10
704.085187
 20
-76.345996
 30
0.0
 10
704.304844
 20
-75.678037
 30
0.0
 10
704.245944
 20
-75.004792
 30
0.0
  0
LINE
  5
122
100
AcDbEntity
  8
Layer_1
 62
5
100
AcDbLine
 10
704.245944
 20
-75.004792
 30
0.0
 11
695.283335
 21
27.438302
 31
0.0
  0
SPLINE
  5
123
100
AcDbEntity
  8
Layer_1
 62
5
100
AcDbSpline
 70
8
 71
3
 72
8
 73
4
 74
0
 40
0
 40
0
 40
0
 40
0
 40
1
 40
1
 40
1
 40
1
 10
695.283335
 20
27.438302
 30
0.0
 10
695.224715
 20
28.108306
 30
0.0
 10
694.879766
 20
28.720407
 30
0.0
 10
694.336987
 20
29.117562
 30
0.0
  0
LINE
  5
124
100
AcDbEntity
  8
Layer_1
 62
5
100
AcDbLine
 10
694.336987
 20
29.117562
 30
0.0
 11
692.583992
 21
30.400250
 31
0.0
  0
SPLINE
  5
125
100
AcDbEntity
  8
Layer_1
 62
5
100
AcDbSpline
 70
8
 71
3
 72
8
 73
4
 74
0
 40
0
 40
0
 40
0
 40
0
 40
1
 40
1
 40
1
 40
1
 10
692.583992
 20
30.400250
 30
0.0
 10
692.033389
 20
30.803134
 30
0.0
 10
691.355246
 20
30.992429
 30
0.0
 10
690.675582
 20
30.932958
 30
0.0
  0
LINE
  5
126
100
AcDbEntity
  8
Layer_1
 62
5
100
AcDbLine
 10
690.675582
 20
30.932958
 30
0.0
 11
676.482695
 21
29.691031
 31
0.0
  0
SPLINE
  5
127
100
AcDbEntity
  8
Layer_1
 62
5
100
AcDbSpline
 70
8
 71
3
 72
8
 73
4
 74
0
 40
0
 40
0
 40
0
 40
0
 40
1
 40
1
 40
1
 40
1
 10
676.482695
 20
29.691031
 30
0.0
 10
675.779827
 20
29.629529
 30
0.0
 10
675.076959
 20
29.568026
 30
0.0
 10
674.374092
 20
29.506522
 30
0.0
  0
LINE
  5
128
100
AcDbEntity
  8
Layer_1
 62
5
100
AcDbLine
 10
674.374092
 20
29.506522
 30
0.0
 11
657.161936
 21
28.000342
 31
0.0
  0
SPLINE
  5
129
100
AcDbEntity
  8
Layer_1
 62
5
100
AcDbSpline
 70
8
 71
3
 72
8
 73
4
 74
0
 40
0
 40
0
 40
0
 40
0
 40
1
 40
1
 40
1
 40
1
 10
657.161936
 20
28.000342
 30
0.0
 10
656.459069
 20
27.938836
 30
0.0
 10
655.756201
 20
27.877333
 30
0.0
 10
655.053334
 20
27.815833
 30
0.0
  0
LINE
  5
12a
100
AcDbEntity
  8
Layer_1
 62
5
100
AcDbLine
 10
655.053334
 20
27.815833
 30
0.0
 11
560.101985
 21
19.507713
 31
0.0
  0
SPLINE
  5
12b
100
AcDbEntity
  8
Layer_1
 62
5
100
AcDbSpline
 70
8
 71
3
 72
8
 73
4
 74
0
 40
0
 40
0
 40
0
 40
0
 40
1
 40
1
 40
1
 40
1
 10
560.101985
 20
19.507713
 30
0.0
 10
559.416891
 20
19.447770
 30
0.0
 10
558.768583
 20
19.171610
 30
0.0
 10
558.250701
 20
18.719122
 30
0.0
  0
LINE
  5
12c
100
AcDbEntity
  8
Layer_1
 62
5
100
AcDbLine
 10
558.250701
 20
18.719122
 30
0.0
 11
556.908112
 21
17.546044
 31
0.0
  0
SPLINE
  5
12d
100
AcDbEntity
  8
Layer_1
 62
5
100
AcDbSpline
 70
8
 71
3
 72
8
 73
4
 74
0
 40
0
 40
0
 40
0
 40
0
 40
1
 40
1
 40
1
 40
1
 10
556.908112
 20
17.546044
 30
0.0
 10
556.394295
 20
17.097104
 30
0.0
 10
555.735116
 20
16.849710
 30
0.0
 10
555.052800
 20
16.849733
 30
0.0
  0
LINE
  5
12e
100
AcDbEntity
  8
Layer_1
 62
5
100
AcDbLine
 10
555.052800
 20
16.849733
 30
0.0
 11
542.132286
 21
16.850168
 31
0.0
  0
SPLINE
  5
12f
100
AcDbEntity
  8
Layer_1
 62
5
100
AcDbSpline
 70
8
 71
3
 72
8
 73
4
 74
0
 40
0
 40
0
 40
0
 40
0
 40
1
 40
1
 40
1
 40
1
 10
542.132286
 20
16.850168
 30
0.0
 10
541.851601
 20
16.850176
 30
0.0
 10
541.582409
 20
16.738679
 30
0.0
 10
541.383933
 20
16.540207
 30
0.0
  0
SPLINE
  5
130
100
AcDbEntity
  8
Layer_1
 62
5
100
AcDbSpline
 70
8
 71
3
 72
8
 73
4
 74
0
 40
0
 40
0
 40
0
 40
0
 40
1
 40
1
 40
1
 40
1
 10
541.383933
 20
16.540207
 30
0.0
 10
541.185456
 20
16.341735
 30
0.0
 10
541.073954
 20
16.072546
 30
0.0
 10
541.073956
 20
15.791861
 30
0.0
  0
LINE
  5
131
100
AcDbEntity
  8
Layer_1
 62
5
100
AcDbLine
 10
541.073956
 20
15.791861
 30
0.0
 11
541.073950
 21
3.055997
 31
0.0
  0
SPLINE
  5
132
100
AcDbEntity
  8
Layer_1
 62
5
100
AcDbSpline
 70
8
 71
3
 72
8
 73
4
 74
0
 40
0
 40
0
 40
0
 40
0
 40
1
 40
1
 40
1
 40
1
 10
541.073950
 20
3.055997
 30
0.0
 10
541.073949
 20
2.775310
 30
0.0
 10
541.185453
 20
2.506120
 30
0.0
 10
541.383930
 20
2.307646
 30
0.0
  0
SPLINE
  5
133
100
AcDbEntity
  8
Layer_1
 62
5
100
AcDbSpline
 70
8
 71
3
 72
8
 73
4
 74
0
 40
0
 40
0
 40
0
 40
0
 40
1
 40
1
 40
1
 40
1
 10
541.383930
 20
2.307646
 30
0.0
 10
541.582407
 20
2.109173
 30
0.0
 10
541.851599
 20
1.997674
 30
0.0
 10
542.132285
 20
1.997679
 30
0.0
  0
LINE
  5
134
100
AcDbEntity
  8
Layer_1
 62
5
100
AcDbLine
 10
542.132285
 20
1.997679
 30
0.0
 11
556.305861
 21
1.997899
 31
0.0
  0
SPLINE
  5
135
100
AcDbEntity
  8
Layer_1
 62
5
100
AcDbSpline
 70
8
 71
3
 72
8
 73
4
 74
0
 40
0
 40
0
 40
0
 40
0
 40
1
 40
1
 40
1
 40
1
 10
556.305861
 20
1.997899
 30
0.0
 10
556.904714
 20
1.997909
 30
0.0
 10
557.404239
 20
1.540190
 30
0.0
 10
557.456436
 20
0.943616
 30
0.0
  0
LINE
  5
136
100
AcDbEntity
  8
Layer_1
 62
5
100
AcDbLine
 10
557.456436
 20
0.943616
 30
0.0
 11
557.515626
 21
0.267070
 31
0.0
  0
SPLINE
  5
137
100
AcDbEntity
  8
Layer_1
 62
5
100
AcDbSpline
 70
8
 71
3
 72
8
 73
4
 74
0
 40
0
 40
0
 40
0
 40
0
 40
1
 40
1
 40
1
 40
1
 10
557.515626
 20
0.267070
 30
0.0
 10
557.540084
 20
-0.012491
 30
0.0
 10
557.674638
 20
-0.270872
 30
0.0
 10
557.889666
 20
-0.451193
 30
0.0
  0
SPLINE
  5
138
100
AcDbEntity
  8
Layer_1
 62
5
100
AcDbSpline
 70
8
 71
3
 72
8
 73
4
 74
0
 40
0
 40
0
 40
0
 40
0
 40
1
 40
1
 40
1
 40
1
 10
557.889666
 20
-0.451193
 30
0.0
 10
558.104694
 20
-0.631514
 30
0.0
 10
558.382567
 20
-0.718990
 30
0.0
 10
558.662113
 20
-0.694365
 30
0.0
  0
LINE
  5
139
100
AcDbEntity
  8
Layer_1
 62
5
100
AcDbLine
 10
558.662113
 20
-0.694365
 30
0.0
 11
561.540474
 21
-0.440534
 31
0.0
  0
SPLINE
  5
13a
100
AcDbEntity
  8
Layer_1
 62
5
100
AcDbSpline
 70
8
 71
3
 72
8
 73
4
 74
0
 40
0
 40
0
 40
0
 40
0
 40
1
 40
1
 40
1
 40
1
 10
561.540474
 20
-0.440534
 30
0.0
 10
562.122719
 20
-0.389243
 30
0.0
 10
563.066739
 20
-0.306260
 30
0.0
 10
563.649056
 20
-0.255796
 30
0.0
  0
SPLINE
  5
13b
100
AcDbEntity
  8
Layer_1
 62
5
100
AcDbSpline
 70
8
 71
3
 72
8
 73
4
 74
0
 40
0
 40
0
 40
0
 40
0
 40
1
 40
1
 40
1
 40
1
 10
563.649056
 20
-0.255796
 30
0.0
 10
563.784787
 20
-0.244031
 30
0.0
 10
563.920531
 20
-0.232296
 30
0.0
 10
564.056265
 20
-0.220561
 30
0.0
  0
SPLINE
  5
13c
100
AcDbEntity
  8
Layer_1
 62
5
100
AcDbSpline
 70
8
 71
3
 72
8
 73
4
 74
0
 40
0
 40
0
 40
0
 40
0
 40
1
 40
1
 40
1
 40
1
 10
564.056265
 20
-0.220561
 30
0.0
 10
564.638594
 20
-0.170226
 30
0.0
 10
565.582682
 20
-0.088021
 30
0.0
 10
566.164958
 20
-0.037078
 30
0.0
  0
LINE
  5
13d
100
AcDbEntity
  8
Layer_1
 62
5
100
AcDbLine
 10
566.164958
 20
-0.037078
 30
0.0
 11
566.263481
 21
-0.028458
 31
0.0
  0
SPLINE
  5
13e
100
AcDbEntity
  8
Layer_1
 62
5
100
AcDbSpline
 70
8
 71
3
 72
8
 73
4
 74
0
 40
0
 40
0
 40
0
 40
0
 40
1
 40
1
 40
1
 40
1
 10
566.263481
 20
-0.028458
 30
0.0
 10
566.966347
 20
0.033072
 30
0.0
 10
567.669190
 20
0.094851
 30
0.0
 10
568.372012
 20
0.156877
 30
0.0
  0
LINE
  5
13f
100
AcDbEntity
  8
Layer_1
 62
5
100
AcDbLine
 10
568.372012
 20
0.156877
 30
0.0
 11
683.610421
 21
10.327268
 31
0.0
  0
SPLINE
  5
140
100
AcDbEntity
  8
Layer_1
 62
5
100
AcDbSpline
 70
8
 71
3
 72
8
 73
4
 74
0
 40
0
 40
0
 40
0
 40
0
 40
1
 40
1
 40
1
 40
1
 10
683.610421
 20
10.327268
 30
0.0
 10
684.313238
 20
10.389358
 30
0.0
 10
685.015991
 20
10.452179
 30
0.0
 10
685.718678
 20
10.515732
 30
0.0
  0
LINE
  5
141
100
AcDbEntity
  8
Layer_1
 62
5
100
AcDbLine
 10
685.718678
 20
10.515732
 30
0.0
 11
688.550750
 21
10.771537
 31
0.0
  0
SPLINE
  5
142
100
AcDbEntity
  8
Layer_1
 62
5
100
AcDbSpline
 70
8
 71
3
 72
8
 73
4
 74
0
 40
0
 40
0
 40
0
 40
0
 40
1
 40
1
 40
1
 40
1
 10
688.550750
 20
10.771537
 30
0.0
 10
689.253442
 20
10.835023
 30
0.0
 10
689.956195
 20
10.897844
 30
0.0
 10
690.659007
 20
10.960000
 30
0.0
  0
SPLINE
  5
143
100
AcDbEntity
  8
Layer_1
 62
5
100
AcDbSpline
 70
8
 71
3
 72
8
 73
4
 74
0
 40
0
 40
0
 40
0
 40
0
 40
1
 40
1
 40
1
 40
1
 10
690.659007
 20
10.960000
 30
0.0
 10
691.234700
 20
11.010909
 30
0.0
 10
691.742675
 20
10.580163
 30
0.0
 10
691.793628
 20
9.997888
 30
0.0
  0
SPLINE
  5
144
100
AcDbEntity
  8
Layer_1
 62
5
100
AcDbSpline
 70
8
 71
3
 72
8
 73
4
 74
0
 40
0
 40
0
 40
0
 40
0
 40
1
 40
1
 40
1
 40
1
 10
691.793628
 20
9.997888
 30
0.0
 10
693.975146
 20
-14.931133
 30
0.0
 10
696.179706
 20
-40.138203
 30
0.0
 10
698.358797
 20
-65.065288
 30
0.0
  0
SPLINE
  5
145
100
AcDbEntity
  8
Layer_1
 62
5
100
AcDbSpline
 70
8
 71
3
 72
8
 73
4
 74
0
 40
0
 40
0
 40
0
 40
0
 40
1
 40
1
 40
1
 40
1
 10
698.358797
 20
-65.065288
 30
0.0
 10
698.409700
 20
-65.647567
 30
0.0
 10
697.978920
 20
-66.160665
 30
0.0
 10
697.396620
 20
-66.211338
 30
0.0
  0
SPLINE
  5
146
100
AcDbEntity
  8
Layer_1
 62
5
100
AcDbSpline
 70
8
 71
3
 72
8
 73
4
 74
0
 40
0
 40
0
 40
0
 40
0
 40
1
 40
1
 40
1
 40
1
 10
697.396620
 20
-66.211338
 30
0.0
 10
696.698349
 20
-66.272110
 30
0.0
 10
696.000019
 20
-66.332202
 30
0.0
 10
695.301631
 20
-66.391615
 30
0.0
  0
LINE
  5
147
100
AcDbEntity
  8
Layer_1
 62
5
100
AcDbLine
 10
695.301631
 20
-66.391615
 30
0.0
 11
661.078897
 21
-69.302198
 31
0.0
  0
SPLINE
  5
148
100
AcDbEntity
  8
Layer_1
 62
5
100
AcDbSpline
 70
8
 71
3
 72
8
 73
4
 74
0
 40
0
 40
0
 40
0
 40
0
 40
1
 40
1
 40
1
 40
1
 10
661.078897
 20
-69.302198
 30
0.0
 10
660.496534
 20
-69.352144
 30
0.0
 10
659.552306
 20
-69.432746
 30
0.0
 10
658.969943
 20
-69.482692
 30
0.0
  0
SPLINE
  5
149
100
AcDbEntity
  8
Layer_1
 62
5
100
AcDbSpline
 70
8
 71
3
 72
8
 73
4
 74
0
 40
0
 40
0
 40
0
 40
0
 40
1
 40
1
 40
1
 40
1
 10
658.969943
 20
-69.482692
 30
0.0
 10
644.791565
 20
-70.701256
 30
0.0
 10
630.616336
 20
-71.956285
 30
0.0
 10
616.439935
 20
-73.197563
 30
0.0
  0
SPLINE
  5
14a
100
AcDbEntity
  8
Layer_1
 62
5
100
AcDbSpline
 70
8
 71
3
 72
8
 73
4
 74
0
 40
0
 40
0
 40
0
 40
0
 40
1
 40
1
 40
1
 40
1
 10
616.439935
 20
-73.197563
 30
0.0
 10
615.857662
 20
-73.248535
 30
0.0
 10
614.913604
 20
-73.331079
 30
0.0
 10
614.331322
 20
-73.381952
 30
0.0
  0
LINE
  5
14b
100
AcDbEntity
  8
Layer_1
 62
5
100
AcDbLine
 10
614.331322
 20
-73.381952
 30
0.0
 11
580.115471
 21
-76.371436
 31
0.0
  0
SPLINE
  5
14c
100
AcDbEntity
  8
Layer_1
 62
5
100
AcDbSpline
 70
8
 71
3
 72
8
 73
4
 74
0
 40
0
 40
0
 40
0
 40
0
 40
1
 40
1
 40
1
 40
1
 10
580.115471
 20
-76.371436
 30
0.0
 10
579.412596
 20
-76.432851
 30
0.0
 10
578.709724
 20
-76.494304
 30
0.0
 10
578.006855
 20
-76.555796
 30
0.0
  0
LINE
  5
14d
100
AcDbEntity
  8
Layer_1
 62
5
100
AcDbLine
 10
578.006855
 20
-76.555796
 30
0.0
 11
575.128650
 21
-76.807606
 31
0.0
  0
SPLINE
  5
14e
100
AcDbEntity
  8
Layer_1
 62
5
100
AcDbSpline
 70
8
 71
3
 72
8
 73
4
 74
0
 40
0
 40
0
 40
0
 40
0
 40
1
 40
1
 40
1
 40
1
 10
575.128650
 20
-76.807606
 30
0.0
 10
574.546375
 20
-76.858547
 30
0.0
 10
574.033052
 20
-76.427817
 30
0.0
 10
573.982107
 20
-75.845543
 30
0.0
  0
LINE
  5
14f
100
AcDbEntity
  8
Layer_1
 62
5
100
AcDbLine
 10
573.982107
 20
-75.845543
 30
0.0
 11
572.413836
 21
-57.920125
 31
0.0
  0
LINE
  5
150
100
AcDbEntity
  8
Layer_1
 62
5
100
AcDbLine
 10
572.413836
 20
-57.920125
 30
0.0
 11
570.846055
 21
-40.000296
 31
0.0
  0
LINE
  5
151
100
AcDbEntity
  8
Layer_1
 62
5
100
AcDbLine
 10
570.846055
 20
-40.000296
 30
0.0
 11
569.185669
 21
-21.022000
 31
0.0
  0
SPLINE
  5
152
100
AcDbEntity
  8
Layer_1
 62
5
100
AcDbSpline
 70
8
 71
3
 72
8
 73
4
 74
0
 40
0
 40
0
 40
0
 40
0
 40
1
 40
1
 40
1
 40
1
 10
569.185669
 20
-21.022000
 30
0.0
 10
569.134726
 20
-20.439724
 30
0.0
 10
568.621402
 20
-20.008994
 30
0.0
 10
568.039126
 20
-20.059937
 30
0.0
  0
SPLINE
  5
153
100
AcDbEntity
  8
Layer_1
 62
5
100
AcDbSpline
 70
8
 71
3
 72
8
 73
4
 74
0
 40
0
 40
0
 40
0
 40
0
 40
1
 40
1
 40
1
 40
1
 10
568.039126
 20
-20.059937
 30
0.0
 10
567.160145
 20
-20.136848
 30
0.0
 10
566.281172
 20
-20.213738
 30
0.0
 10
565.402189
 20
-20.290639
 30
0.0
  0
SPLINE
  5
154
100
AcDbEntity
  8
Layer_1
 62
5
100
AcDbSpline
 70
8
 71
3
 72
8
 73
4
 74
0
 40
0
 40
0
 40
0
 40
0
 40
1
 40
1
 40
1
 40
1
 10
565.402189
 20
-20.290639
 30
0.0
 10
564.819913
 20
-20.341581
 30
0.0
 10
563.875866
 20
-20.424245
 30
0.0
 10
563.293598
 20
-20.475277
 30
0.0
  0
LINE
  5
155
100
AcDbEntity
  8
Layer_1
 62
5
100
AcDbLine
 10
563.293598
 20
-20.475277
 30
0.0
 11
560.414703
 21
-20.727589
 31
0.0
  0
SPLINE
  5
156
100
AcDbEntity
  8
Layer_1
 62
5
100
AcDbSpline
 70
8
 71
3
 72
8
 73
4
 74
0
 40
0
 40
0
 40
0
 40
0
 40
1
 40
1
 40
1
 40
1
 10
560.414703
 20
-20.727589
 30
0.0
 10
559.832411
 20
-20.778624
 30
0.0
 10
559.401711
 20
-21.291991
 30
0.0
 10
559.452654
 20
-21.874291
 30
0.0
  0
LINE
  5
157
100
AcDbEntity
  8
Layer_1
 62
5
100
AcDbLine
 10
559.452654
 20
-21.874291
 30
0.0
 11
564.270745
 21
-76.945329
 31
0.0
  0
SPLINE
  5
158
100
AcDbEntity
  8
Layer_1
 62
5
100
AcDbSpline
 70
8
 71
3
 72
8
 73
4
 74
0
 40
0
 40
0
 40
0
 40
0
 40
1
 40
1
 40
1
 40
1
 10
564.270745
 20
-76.945329
 30
0.0
 10
564.294441
 20
-77.216192
 30
0.0
 10
564.203341
 20
-77.484563
 30
0.0
 10
564.019648
 20
-77.685026
 30
0.0
  0
SPLINE
  5
159
100
AcDbEntity
  8
Layer_1
 62
5
100
AcDbSpline
 70
8
 71
3
 72
8
 73
4
 74
0
 40
0
 40
0
 40
0
 40
0
 40
1
 40
1
 40
1
 40
1
 10
564.019648
 20
-77.685026
 30
0.0
 10
563.835956
 20
-77.885490
 30
0.0
 10
563.576546
 20
-77.999632
 30
0.0
 10
563.304648
 20
-77.999632
 30
0.0
  0
LINE
  5
15a
100
AcDbEntity
  8
Layer_1
 62
5
100
AcDbLine
 10
563.304648
 20
-77.999632
 30
0.0
 11
502.927283
 21
-77.999736
 31
0.0
  0
SPLINE
  5
15b
100
AcDbEntity
  8
Layer_1
 62
5
100
AcDbSpline
 70
8
 71
3
 72
8
 73
4
 74
0
 40
0
 40
0
 40
0
 40
0
 40
1
 40
1
 40
1
 40
1
 10
502.927283
 20
-77.999736
 30
0.0
 10
502.655385
 20
-77.999737
 30
0.0
 10
502.395975
 20
-77.885595
 30
0.0
 10
502.212283
 20
-77.685131
 30
0.0
  0
SPLINE
  5
15c
100
AcDbEntity
  8
Layer_1
 62
5
100
AcDbSpline
 70
8
 71
3
 72
8
 73
4
 74
0
 40
0
 40
0
 40
0
 40
0
 40
1
 40
1
 40
1
 40
1
 10
502.212283
 20
-77.685131
 30
0.0
 10
502.028592
 20
-77.484668
 30
0.0
 10
501.937491
 20
-77.216298
 30
0.0
 10
501.961188
 20
-76.945435
 30
0.0
  0
LINE
  5
15d
100
AcDbEntity
  8
Layer_1
 62
5
100
AcDbLine
 10
501.961188
 20
-76.945435
 30
0.0
 11
506.871765
 21
-20.817185
 31
0.0
  0
SPLINE
  5
15e
100
AcDbEntity
  8
Layer_1
 62
5
100
AcDbSpline
 70
8
 71
3
 72
8
 73
4
 74
0
 40
0
 40
0
 40
0
 40
0
 40
1
 40
1
 40
1
 40
1
 10
506.871765
 20
-20.817185
 30
0.0
 10
506.922705
 20
-20.234884
 30
0.0
 10
506.492012
 20
-19.721516
 30
0.0
 10
505.909721
 20
-19.670469
 30
0.0
  0
LINE
  5
15f
100
AcDbEntity
  8
Layer_1
 62
5
100
AcDbLine
 10
505.909721
 20
-19.670469
 30
0.0
 11
496.182561
 21
-18.817792
 31
0.0
  0
SPLINE
  5
160
100
AcDbEntity
  8
Layer_1
 62
5
100
AcDbSpline
 70
8
 71
3
 72
8
 73
4
 74
0
 40
0
 40
0
 40
0
 40
0
 40
1
 40
1
 40
1
 40
1
 10
496.182561
 20
-18.817792
 30
0.0
 10
495.902962
 20
-18.793283
 30
0.0
 10
495.625081
 20
-18.880860
 30
0.0
 10
495.410059
 20
-19.061254
 30
0.0
  0
SPLINE
  5
161
100
AcDbEntity
  8
Layer_1
 62
5
100
AcDbSpline
 70
8
 71
3
 72
8
 73
4
 74
0
 40
0
 40
0
 40
0
 40
0
 40
1
 40
1
 40
1
 40
1
 10
495.410059
 20
-19.061254
 30
0.0
 10
495.195038
 20
-19.241647
 30
0.0
 10
495.060494
 20
-19.500077
 30
0.0
 10
495.036032
 20
-19.779679
 30
0.0
  0
LINE
  5
162
100
AcDbEntity
  8
Layer_1
 62
5
100
AcDbLine
 10
495.036032
 20
-19.779679
 30
0.0
 11
493.971334
 21
-31.949313
 31
0.0
  0
SPLINE
  5
163
100
AcDbEntity
  8
Layer_1
 62
5
100
AcDbSpline
 70
8
 71
3
 72
8
 73
4
 74
0
 40
0
 40
0
 40
0
 40
0
 40
1
 40
1
 40
1
 40
1
 10
493.971334
 20
-31.949313
 30
0.0
 10
493.913598
 20
-32.609212
 30
0.0
 10
494.184815
 20
-33.255169
 30
0.0
 10
494.696338
 20
-33.676055
 30
0.0
  0
LINE
  5
164
100
AcDbEntity
  8
Layer_1
 62
5
100
AcDbLine
 10
494.696338
 20
-33.676055
 30
0.0
 11
499.502116
 21
-37.630251
 31
0.0
  0
SPLINE
  5
165
100
AcDbEntity
  8
Layer_1
 62
5
100
AcDbSpline
 70
8
 71
3
 72
8
 73
4
 74
0
 40
0
 40
0
 40
0
 40
0
 40
1
 40
1
 40
1
 40
1
 10
499.502116
 20
-37.630251
 30
0.0
 10
500.013639
 20
-38.051137
 30
0.0
 10
500.284856
 20
-38.697094
 30
0.0
 10
500.227121
 20
-39.356993
 30
0.0
  0
LINE
  5
166
100
AcDbEntity
  8
Layer_1
 62
5
100
AcDbLine
 10
500.227121
 20
-39.356993
 30
0.0
 11
498.658954
 21
-57.281346
 31
0.0
  0
SPLINE
  5
167
100
AcDbEntity
  8
Layer_1
 62
5
100
AcDbSpline
 70
8
 71
3
 72
8
 73
4
 74
0
 40
0
 40
0
 40
0
 40
0
 40
1
 40
1
 40
1
 40
1
 10
498.658954
 20
-57.281346
 30
0.0
 10
498.597922
 20
-57.978915
 30
0.0
 10
498.416221
 20
-58.660588
 30
0.0
 10
498.121947
 20
-59.295985
 30
0.0
  0
LINE
  5
168
100
AcDbEntity
  8
Layer_1
 62
5
100
AcDbLine
 10
498.121947
 20
-59.295985
 30
0.0
 11
490.499649
 21
-75.754181
 31
0.0
  0
SPLINE
  5
169
100
AcDbEntity
  8
Layer_1
 62
5
100
AcDbSpline
 70
8
 71
3
 72
8
 73
4
 74
0
 40
0
 40
0
 40
0
 40
0
 40
1
 40
1
 40
1
 40
1
 10
490.499649
 20
-75.754181
 30
0.0
 10
490.232750
 20
-76.330467
 30
0.0
 10
489.633258
 20
-76.677627
 30
0.0
 10
489.000584
 20
-76.622276
 30
0.0
  0
LINE
  5
16a
100
AcDbEntity
  8
Layer_1
 62
5
100
AcDbLine
 10
489.000584
 20
-76.622276
 30
0.0
 11
483.490512
 21
-76.140216
 31
0.0
  0
SPLINE
  5
16b
100
AcDbEntity
  8
Layer_1
 62
5
100
AcDbSpline
 70
8
 71
3
 72
8
 73
4
 74
0
 40
0
 40
0
 40
0
 40
0
 40
1
 40
1
 40
1
 40
1
 10
483.490512
 20
-76.140216
 30
0.0
 10
482.787644
 20
-76.078723
 30
0.0
 10
482.084766
 20
-76.017343
 30
0.0
 10
481.381879
 20
-75.956075
 30
0.0
  0
LINE
  5
16c
100
AcDbEntity
  8
Layer_1
 62
5
100
AcDbLine
 10
481.381879
 20
-75.956075
 30
0.0
 11
447.161489
 21
-72.973238
 31
0.0
  0
SPLINE
  5
16d
100
AcDbEntity
  8
Layer_1
 62
5
100
AcDbSpline
 70
8
 71
3
 72
8
 73
4
 74
0
 40
0
 40
0
 40
0
 40
0
 40
1
 40
1
 40
1
 40
1
 10
447.161489
 20
-72.973238
 30
0.0
 10
446.579199
 20
-72.922485
 30
0.0
 10
445.635202
 20
-72.839243
 30
0.0
 10
445.053000
 20
-72.787418
 30
0.0
  0
SPLINE
  5
16e
100
AcDbEntity
  8
Layer_1
 62
5
100
AcDbSpline
 70
8
 71
3
 72
8
 73
4
 74
0
 40
0
 40
0
 40
0
 40
0
 40
1
 40
1
 40
1
 40
1
 10
445.053000
 20
-72.787418
 30
0.0
 10
433.387353
 20
-71.748984
 30
0.0
 10
421.719188
 20
-70.739139
 30
0.0
 10
410.052256
 20
-69.715494
 30
0.0
  0
SPLINE
  5
16f
100
AcDbEntity
  8
Layer_1
 62
5
100
AcDbSpline
 70
8
 71
3
 72
8
 73
4
 74
0
 40
0
 40
0
 40
0
 40
0
 40
1
 40
1
 40
1
 40
1
 10
410.052256
 20
-69.715494
 30
0.0
 10
409.469988
 20
-69.664408
 30
0.0
 10
408.525953
 20
-69.581661
 30
0.0
 10
407.943677
 20
-69.530716
 30
0.0
  0
LINE
  5
170
100
AcDbEntity
  8
Layer_1
 62
5
100
AcDbLine
 10
407.943677
 20
-69.530716
 30
0.0
 11
373.724255
 21
-66.536912
 31
0.0
  0
LINE
  5
171
100
AcDbEntity
  8
Layer_1
 62
5
100
AcDbLine
 10
373.724255
 20
-66.536912
 30
0.0
 11
368.807484
 21
-66.106750
 31
0.0
  0
SPLINE
  5
172
100
AcDbEntity
  8
Layer_1
 62
5
100
AcDbSpline
 70
8
 71
3
 72
8
 73
4
 74
0
 40
0
 40
0
 40
0
 40
0
 40
1
 40
1
 40
1
 40
1
 10
368.807484
 20
-66.106750
 30
0.0
 10
368.225208
 20
-66.055805
 30
0.0
 10
367.794439
 20
-65.542476
 30
0.0
 10
367.845344
 20
-64.960193
 30
0.0
  0
SPLINE
  5
173
100
AcDbEntity
  8
Layer_1
 62
5
100
AcDbSpline
 70
8
 71
3
 72
8
 73
4
 74
0
 40
0
 40
0
 40
0
 40
0
 40
1
 40
1
 40
1
 40
1
 10
367.845344
 20
-64.960193
 30
0.0
 10
370.026807
 20
-40.004884
 30
0.0
 10
372.211365
 20
-15.056280
 30
0.0
 10
374.392834
 20
9.899070
 30
0.0
  0
SPLINE
  5
174
100
AcDbEntity
  8
Layer_1
 62
5
100
AcDbSpline
 70
8
 71
3
 72
8
 73
4
 74
0
 40
0
 40
0
 40
0
 40
0
 40
1
 40
1
 40
1
 40
1
 10
374.392834
 20
9.899070
 30
0.0
 10
374.443739
 20
10.481352
 30
0.0
 10
374.957021
 20
10.912087
 30
0.0
 10
375.539297
 20
10.861142
 30
0.0
  0
LINE
  5
175
100
AcDbEntity
  8
Layer_1
 62
5
100
AcDbLine
 10
375.539297
 20
10.861142
 30
0.0
 11
378.328003
 21
10.617165
 31
0.0
  0
SPLINE
  5
176
100
AcDbEntity
  8
Layer_1
 62
5
100
AcDbSpline
 70
8
 71
3
 72
8
 73
4
 74
0
 40
0
 40
0
 40
0
 40
0
 40
1
 40
1
 40
1
 40
1
 10
378.328003
 20
10.617165
 30
0.0
 10
379.030871
 20
10.555670
 30
0.0
 10
379.733737
 20
10.494154
 30
0.0
 10
380.436601
 20
10.432619
 30
0.0
  0
SPLINE
  5
177
100
AcDbEntity
  8
Layer_1
 62
5
100
AcDbSpline
 70
8
 71
3
 72
8
 73
4
 74
0
 40
0
 40
0
 40
0
 40
0
 40
1
 40
1
 40
1
 40
1
 10
380.436601
 20
10.432619
 30
0.0
 10
381.133116
 20
10.371644
 30
0.0
 10
381.829632
 20
10.310688
 30
0.0
 10
382.526150
 20
10.249750
 30
0.0
  0
LINE
  5
178
100
AcDbEntity
  8
Layer_1
 62
5
100
AcDbLine
 10
382.526150
 20
10.249750
 30
0.0
 11
494.119438
 21
0.486293
 31
0.0
  0
SPLINE
  5
179
100
AcDbEntity
  8
Layer_1
 62
5
100
AcDbSpline
 70
8
 71
3
 72
8
 73
4
 74
0
 40
0
 40
0
 40
0
 40
0
 40
1
 40
1
 40
1
 40
1
 10
494.119438
 20
0.486293
 30
0.0
 10
494.822307
 20
0.424798
 30
0.0
 10
495.525175
 20
0.363296
 30
0.0
 10
496.228042
 20
0.301788
 30
0.0
  0
LINE
  5
17a
100
AcDbEntity
  8
Layer_1
 62
5
100
AcDbLine
 10
496.228042
 20
0.301788
 30
0.0
 11
507.570232
 21
-0.690793
 31
0.0
  0
SPLINE
  5
17b
100
AcDbEntity
  8
Layer_1
 62
5
100
AcDbSpline
 70
8
 71
3
 72
8
 73
4
 74
0
 40
0
 40
0
 40
0
 40
0
 40
1
 40
1
 40
1
 40
1
 10
507.570232
 20
-0.690793
 30
0.0
 10
507.849850
 20
-0.715263
 30
0.0
 10
508.127736
 20
-0.627651
 30
0.0
 10
508.342756
 20
-0.447231
 30
0.0
  0
SPLINE
  5
17c
100
AcDbEntity
  8
Layer_1
 62
5
100
AcDbSpline
 70
8
 71
3
 72
8
 73
4
 74
0
 40
0
 40
0
 40
0
 40
0
 40
1
 40
1
 40
1
 40
1
 10
508.342756
 20
-0.447231
 30
0.0
 10
508.557776
 20
-0.266811
 30
0.0
 10
508.692316
 20
-0.008362
 30
0.0
 10
508.716777
 20
0.271256
 30
0.0
  0
LINE
  5
17d
100
AcDbEntity
  8
Layer_1
 62
5
100
AcDbLine
 10
508.716777
 20
0.271256
 30
0.0
 11
508.775536
 21
0.942974
 31
0.0
  0
SPLINE
  5
17e
100
AcDbEntity
  8
Layer_1
 62
5
100
AcDbSpline
 70
8
 71
3
 72
8
 73
4
 74
0
 40
0
 40
0
 40
0
 40
0
 40
1
 40
1
 40
1
 40
1
 10
508.775536
 20
0.942974
 30
0.0
 10
508.827725
 20
1.539560
 30
0.0
 10
509.327249
 20
1.997298
 30
0.0
 10
509.926114
 20
1.997305
 30
0.0
  0
LINE
  5
17f
100
AcDbEntity
  8
Layer_1
 62
5
100
AcDbLine
 10
509.926114
 20
1.997305
 30
0.0
 11
524.123972
 21
1.997521
 31
0.0
  0
SPLINE
  5
180
100
AcDbEntity
  8
Layer_1
 62
5
100
AcDbSpline
 70
8
 71
3
 72
8
 73
4
 74
0
 40
0
 40
0
 40
0
 40
0
 40
1
 40
1
 40
1
 40
1
 10
524.123972
 20
1.997521
 30
0.0
 10
524.404648
 20
1.997526
 30
0.0
 10
524.673824
 20
2.109037
 30
0.0
 10
524.872276
 20
2.307521
 30
0.0
  0
SPLINE
  5
181
100
AcDbEntity
  8
Layer_1
 62
5
100
AcDbSpline
 70
8
 71
3
 72
8
 73
4
 74
0
 40
0
 40
0
 40
0
 40
0
 40
1
 40
1
 40
1
 40
1
 10
524.872276
 20
2.307521
 30
0.0
 10
525.070728
 20
2.506005
 30
0.0
 10
525.182197
 20
2.775199
 30
0.0
 10
525.182157
 20
3.055875
 30
0.0
  0
LINE
  5
182
100
AcDbEntity
  8
Layer_1
 62
5
100
AcDbLine
 10
525.182157
 20
3.055875
 30
0.0
 11
525.180399
 21
15.792519
 31
0.0
  0
SPLINE
  5
183
100
AcDbEntity
  8
Layer_1
 62
5
100
AcDbSpline
 70
8
 71
3
 72
8
 73
4
 74
0
 40
0
 40
0
 40
0
 40
0
 40
1
 40
1
 40
1
 40
1
 10
525.180399
 20
15.792519
 30
0.0
 10
525.180316
 20
16.377048
 30
0.0
 10
524.706448
 20
16.850864
 30
0.0
 10
524.121918
 20
16.850883
 30
0.0
  0
LINE
  5
184
100
AcDbEntity
  8
Layer_1
 62
5
100
AcDbLine
 10
524.121918
 20
16.850883
 30
0.0
 11
524.122020
 21
16.850752
 31
0.0
  0
SPLINE
  5
185
100
AcDbEntity
  8
Layer_1
 62
5
100
AcDbSpline
 70
8
 71
3
 72
8
 73
4
 74
0
 40
0
 40
0
 40
0
 40
0
 40
1
 40
1
 40
1
 40
1
 10
368.081253
 20
-70.279548
 30
0.0
 10
367.450678
 20
-70.224380
 30
0.0
 10
366.848961
 20
-70.554493
 30
0.0
 10
366.556682
 20
-71.115956
 30
0.0
  0
SPLINE
  5
186
100
AcDbEntity
  8
Layer_1
 62
5
100
AcDbSpline
 70
8
 71
3
 72
8
 73
4
 74
0
 40
0
 40
0
 40
0
 40
0
 40
1
 40
1
 40
1
 40
1
 10
366.556682
 20
-71.115956
 30
0.0
 10
366.264403
 20
-71.677420
 30
0.0
 10
366.339121
 20
-72.359663
 30
0.0
 10
366.745995
 20
-72.844556
 30
0.0
  0
SPLINE
  5
187
100
AcDbEntity
  8
Layer_1
 62
5
100
AcDbSpline
 70
8
 71
3
 72
8
 73
4
 74
0
 40
0
 40
0
 40
0
 40
0
 40
1
 40
1
 40
1
 40
1
 10
366.745995
 20
-72.844556
 30
0.0
 10
367.152869
 20
-73.329450
 30
0.0
 10
367.811772
 20
-73.521503
 30
0.0
 10
368.415459
 20
-73.331161
 30
0.0
  0
SPLINE
  5
188
100
AcDbEntity
  8
Layer_1
 62
5
100
AcDbSpline
 70
8
 71
3
 72
8
 73
4
 74
0
 40
0
 40
0
 40
0
 40
0
 40
1
 40
1
 40
1
 40
1
 10
368.415459
 20
-73.331161
 30
0.0
 10
369.019147
 20
-73.140819
 30
0.0
 10
369.448732
 20
-72.605567
 30
0.0
 10
369.503900
 20
-71.974992
 30
0.0
  0
SPLINE
  5
189
100
AcDbEntity
  8
Layer_1
 62
5
100
AcDbSpline
 70
8
 71
3
 72
8
 73
4
 74
0
 40
0
 40
0
 40
0
 40
0
 40
1
 40
1
 40
1
 40
1
 10
369.503900
 20
-71.974992
 30
0.0
 10
369.579231
 20
-71.113955
 30
0.0
 10
368.942290
 20
-70.354879
 30
0.0
 10
368.081253
 20
-70.279548
 30
0.0
  0
LINE
  5
18a
100
AcDbEntity
  8
Layer_1
 62
5
100
AcDbLine
 10
368.081253
 20
-70.279548
 30
0.0
 11
368.081253
 21
-70.279548
 31
0.0
  0
SPLINE
  5
18b
100
AcDbEntity
  8
Layer_1
 62
5
100
AcDbSpline
 70
8
 71
3
 72
8
 73
4
 74
0
 40
0
 40
0
 40
0
 40
0
 40
1
 40
1
 40
1
 40
1
 10
375.823596
 20
18.215911
 30
0.0
 10
375.193022
 20
18.271079
 30
0.0
 10
374.591305
 20
17.940966
 30
0.0
 10
374.299025
 20
17.379502
 30
0.0
  0
SPLINE
  5
18c
100
AcDbEntity
  8
Layer_1
 62
5
100
AcDbSpline
 70
8
 71
3
 72
8
 73
4
 74
0
 40
0
 40
0
 40
0
 40
0
 40
1
 40
1
 40
1
 40
1
 10
374.299025
 20
17.379502
 30
0.0
 10
374.006746
 20
16.818039
 30
0.0
 10
374.081464
 20
16.135796
 30
0.0
 10
374.488338
 20
15.650902
 30
0.0
  0
SPLINE
  5
18d
100
AcDbEntity
  8
Layer_1
 62
5
100
AcDbSpline
 70
8
 71
3
 72
8
 73
4
 74
0
 40
0
 40
0
 40
0
 40
0
 40
1
 40
1
 40
1
 40
1
 10
374.488338
 20
15.650902
 30
0.0
 10
374.895212
 20
15.166009
 30
0.0
 10
375.554115
 20
14.973956
 30
0.0
 10
376.157803
 20
15.164298
 30
0.0
  0
SPLINE
  5
18e
100
AcDbEntity
  8
Layer_1
 62
5
100
AcDbSpline
 70
8
 71
3
 72
8
 73
4
 74
0
 40
0
 40
0
 40
0
 40
0
 40
1
 40
1
 40
1
 40
1
 10
376.157803
 20
15.164298
 30
0.0
 10
376.761490
 20
15.354640
 30
0.0
 10
377.191075
 20
15.889892
 30
0.0
 10
377.246243
 20
16.520467
 30
0.0
  0
SPLINE
  5
18f
100
AcDbEntity
  8
Layer_1
 62
5
100
AcDbSpline
 70
8
 71
3
 72
8
 73
4
 74
0
 40
0
 40
0
 40
0
 40
0
 40
1
 40
1
 40
1
 40
1
 10
377.246243
 20
16.520467
 30
0.0
 10
377.321574
 20
17.381504
 30
0.0
 10
376.684633
 20
18.140580
 30
0.0
 10
375.823596
 20
18.215911
 30
0.0
  0
LINE
  5
190
100
AcDbEntity
  8
Layer_1
 62
5
100
AcDbLine
 10
375.823596
 20
18.215911
 30
0.0
 11
375.823596
 21
18.215911
 31
0.0
  0
SPLINE
  5
191
100
AcDbEntity
  8
Layer_1
 62
5
100
AcDbSpline
 70
8
 71
3
 72
8
 73
4
 74
0
 40
0
 40
0
 40
0
 40
0
 40
1
 40
1
 40
1
 40
1
 10
504.332560
 20
15.528321
 30
0.0
 10
503.701986
 20
15.583489
 30
0.0
 10
503.100269
 20
15.253376
 30
0.0
 10
502.807989
 20
14.691912
 30
0.0
  0
SPLINE
  5
192
100
AcDbEntity
  8
Layer_1
 62
5
100
AcDbSpline
 70
8
 71
3
 72
8
 73
4
 74
0
 40
0
 40
0
 40
0
 40
0
 40
1
 40
1
 40
1
 40
1
 10
502.807989
 20
14.691912
 30
0.0
 10
502.515710
 20
14.130449
 30
0.0
 10
502.590428
 20
13.448206
 30
0.0
 10
502.997302
 20
12.963313
 30
0.0
  0
SPLINE
  5
193
100
AcDbEntity
  8
Layer_1
 62
5
100
AcDbSpline
 70
8
 71
3
 72
8
 73
4
 74
0
 40
0
 40
0
 40
0
 40
0
 40
1
 40
1
 40
1
 40
1
 10
502.997302
 20
12.963313
 30
0.0
 10
503.404176
 20
12.478419
 30
0.0
 10
504.063079
 20
12.286366
 30
0.0
 10
504.666767
 20
12.476708
 30
0.0
  0
SPLINE
  5
194
100
AcDbEntity
  8
Layer_1
 62
5
100
AcDbSpline
 70
8
 71
3
 72
8
 73
4
 74
0
 40
0
 40
0
 40
0
 40
0
 40
1
 40
1
 40
1
 40
1
 10
504.666767
 20
12.476708
 30
0.0
 10
505.270454
 20
12.667050
 30
0.0
 10
505.700039
 20
13.202302
 30
0.0
 10
505.755207
 20
13.832877
 30
0.0
  0
SPLINE
  5
195
100
AcDbEntity
  8
Layer_1
 62
5
100
AcDbSpline
 70
8
 71
3
 72
8
 73
4
 74
0
 40
0
 40
0
 40
0
 40
0
 40
1
 40
1
 40
1
 40
1
 10
505.755207
 20
13.832877
 30
0.0
 10
505.791382
 20
14.246361
 30
0.0
 10
505.661820
 20
14.657281
 30
0.0
 10
505.395022
 20
14.975239
 30
0.0
  0
SPLINE
  5
196
100
AcDbEntity
  8
Layer_1
 62
5
100
AcDbSpline
 70
8
 71
3
 72
8
 73
4
 74
0
 40
0
 40
0
 40
0
 40
0
 40
1
 40
1
 40
1
 40
1
 10
505.395022
 20
14.975239
 30
0.0
 10
505.128224
 20
15.293196
 30
0.0
 10
504.746045
 20
15.492146
 30
0.0
 10
504.332560
 20
15.528321
 30
0.0
  0
LINE
  5
197
100
AcDbEntity
  8
Layer_1
 62
5
100
AcDbLine
 10
504.332560
 20
15.528321
 30
0.0
 11
504.332560
 21
15.528321
 31
0.0
  0
SPLINE
  5
198
100
AcDbEntity
  8
Layer_1
 62
5
100
AcDbSpline
 70
8
 71
3
 72
8
 73
4
 74
0
 40
0
 40
0
 40
0
 40
0
 40
1
 40
1
 40
1
 40
1
 10
495.849210
 20
-81.436897
 30
0.0
 10
495.218635
 20
-81.381729
 30
0.0
 10
494.616918
 20
-81.711842
 30
0.0
 10
494.324639
 20
-82.273306
 30
0.0
  0
SPLINE
  5
199
100
AcDbEntity
  8
Layer_1
 62
5
100
AcDbSpline
 70
8
 71
3
 72
8
 73
4
 74
0
 40
0
 40
0
 40
0
 40
0
 40
1
 40
1
 40
1
 40
1
 10
494.324639
 20
-82.273306
 30
0.0
 10
494.032359
 20
-82.834769
 30
0.0
 10
494.107077
 20
-83.517012
 30
0.0
 10
494.513951
 20
-84.001906
 30
0.0
  0
SPLINE
  5
19a
100
AcDbEntity
  8
Layer_1
 62
5
100
AcDbSpline
 70
8
 71
3
 72
8
 73
4
 74
0
 40
0
 40
0
 40
0
 40
0
 40
1
 40
1
 40
1
 40
1
 10
494.513951
 20
-84.001906
 30
0.0
 10
494.920825
 20
-84.486799
 30
0.0
 10
495.579729
 20
-84.678852
 30
0.0
 10
496.183416
 20
-84.488510
 30
0.0
  0
SPLINE
  5
19b
100
AcDbEntity
  8
Layer_1
 62
5
100
AcDbSpline
 70
8
 71
3
 72
8
 73
4
 74
0
 40
0
 40
0
 40
0
 40
0
 40
1
 40
1
 40
1
 40
1
 10
496.183416
 20
-84.488510
 30
0.0
 10
496.787103
 20
-84.298168
 30
0.0
 10
497.216688
 20
-83.762916
 30
0.0
 10
497.271856
 20
-83.132341
 30
0.0
  0
SPLINE
  5
19c
100
AcDbEntity
  8
Layer_1
 62
5
100
AcDbSpline
 70
8
 71
3
 72
8
 73
4
 74
0
 40
0
 40
0
 40
0
 40
0
 40
1
 40
1
 40
1
 40
1
 10
497.271856
 20
-83.132341
 30
0.0
 10
497.308032
 20
-82.718857
 30
0.0
 10
497.178469
 20
-82.307937
 30
0.0
 10
496.911671
 20
-81.989979
 30
0.0
  0
SPLINE
  5
19d
100
AcDbEntity
  8
Layer_1
 62
5
100
AcDbSpline
 70
8
 71
3
 72
8
 73
4
 74
0
 40
0
 40
0
 40
0
 40
0
 40
1
 40
1
 40
1
 40
1
 10
496.911671
 20
-81.989979
 30
0.0
 10
496.644873
 20
-81.672022
 30
0.0
 10
496.262694
 20
-81.473072
 30
0.0
 10
495.849210
 20
-81.436897
 30
0.0
  0
LINE
  5
19e
100
AcDbEntity
  8
Layer_1
 62
5
100
AcDbLine
 10
495.849210
 20
-81.436897
 30
0.0
 11
495.849210
 21
-81.436897
 31
0.0
  0
SPLINE
  5
19f
100
AcDbEntity
  8
Layer_1
 62
5
100
AcDbSpline
 70
8
 71
3
 72
8
 73
4
 74
0
 40
0
 40
0
 40
0
 40
0
 40
1
 40
1
 40
1
 40
1
 10
500.548487
 20
-27.723866
 30
0.0
 10
499.917913
 20
-27.668698
 30
0.0
 10
499.316196
 20
-27.998811
 30
0.0
 10
499.023916
 20
-28.560274
 30
0.0
  0
SPLINE
  5
1a0
100
AcDbEntity
  8
Layer_1
 62
5
100
AcDbSpline
 70
8
 71
3
 72
8
 73
4
 74
0
 40
0
 40
0
 40
0
 40
0
 40
1
 40
1
 40
1
 40
1
 10
499.023916
 20
-28.560274
 30
0.0
 10
498.731637
 20
-29.121738
 30
0.0
 10
498.806355
 20
-29.803981
 30
0.0
 10
499.213229
 20
-30.288874
 30
0.0
  0
SPLINE
  5
1a1
100
AcDbEntity
  8
Layer_1
 62
5
100
AcDbSpline
 70
8
 71
3
 72
8
 73
4
 74
0
 40
0
 40
0
 40
0
 40
0
 40
1
 40
1
 40
1
 40
1
 10
499.213229
 20
-30.288874
 30
0.0
 10
499.620103
 20
-30.773768
 30
0.0
 10
500.279006
 20
-30.965821
 30
0.0
 10
500.882694
 20
-30.775479
 30
0.0
  0
SPLINE
  5
1a2
100
AcDbEntity
  8
Layer_1
 62
5
100
AcDbSpline
 70
8
 71
3
 72
8
 73
4
 74
0
 40
0
 40
0
 40
0
 40
0
 40
1
 40
1
 40
1
 40
1
 10
500.882694
 20
-30.775479
 30
0.0
 10
501.486381
 20
-30.585137
 30
0.0
 10
501.915966
 20
-30.049885
 30
0.0
 10
501.971134
 20
-29.419310
 30
0.0
  0
SPLINE
  5
1a3
100
AcDbEntity
  8
Layer_1
 62
5
100
AcDbSpline
 70
8
 71
3
 72
8
 73
4
 74
0
 40
0
 40
0
 40
0
 40
0
 40
1
 40
1
 40
1
 40
1
 10
501.971134
 20
-29.419310
 30
0.0
 10
502.007309
 20
-29.005825
 30
0.0
 10
501.877747
 20
-28.594906
 30
0.0
 10
501.610949
 20
-28.276948
 30
0.0
  0
SPLINE
  5
1a4
100
AcDbEntity
  8
Layer_1
 62
5
100
AcDbSpline
 70
8
 71
3
 72
8
 73
4
 74
0
 40
0
 40
0
 40
0
 40
0
 40
1
 40
1
 40
1
 40
1
 10
501.610949
 20
-28.276948
 30
0.0
 10
501.344151
 20
-27.958991
 30
0.0
 10
500.961972
 20
-27.760041
 30
0.0
 10
500.548487
 20
-27.723866
 30
0.0
  0
LINE
  5
1a5
100
AcDbEntity
  8
Layer_1
 62
5
100
AcDbLine
 10
500.548487
 20
-27.723866
 30
0.0
 11
500.548487
 21
-27.723866
 31
0.0
  0
SPLINE
  5
1a6
100
AcDbEntity
  8
Layer_1
 62
5
100
AcDbSpline
 70
8
 71
3
 72
8
 73
4
 74
0
 40
0
 40
0
 40
0
 40
0
 40
1
 40
1
 40
1
 40
1
 10
698.113489
 20
-70.284835
 30
0.0
 10
698.744064
 20
-70.229667
 30
0.0
 10
699.345781
 20
-70.559780
 30
0.0
 10
699.638060
 20
-71.121243
 30
0.0
  0
SPLINE
  5
1a7
100
AcDbEntity
  8
Layer_1
 62
5
100
AcDbSpline
 70
8
 71
3
 72
8
 73
4
 74
0
 40
0
 40
0
 40
0
 40
0
 40
1
 40
1
 40
1
 40
1
 10
699.638060
 20
-71.121243
 30
0.0
 10
699.930339
 20
-71.682707
 30
0.0
 10
699.855622
 20
-72.364950
 30
0.0
 10
699.448748
 20
-72.849843
 30
0.0
  0
SPLINE
  5
1a8
100
AcDbEntity
  8
Layer_1
 62
5
100
AcDbSpline
 70
8
 71
3
 72
8
 73
4
 74
0
 40
0
 40
0
 40
0
 40
0
 40
1
 40
1
 40
1
 40
1
 10
699.448748
 20
-72.849843
 30
0.0
 10
699.041874
 20
-73.334737
 30
0.0
 10
698.382970
 20
-73.526790
 30
0.0
 10
697.779283
 20
-73.336448
 30
0.0
  0
SPLINE
  5
1a9
100
AcDbEntity
  8
Layer_1
 62
5
100
AcDbSpline
 70
8
 71
3
 72
8
 73
4
 74
0
 40
0
 40
0
 40
0
 40
0
 40
1
 40
1
 40
1
 40
1
 10
697.779283
 20
-73.336448
 30
0.0
 10
697.175596
 20
-73.146106
 30
0.0
 10
696.746011
 20
-72.610854
 30
0.0
 10
696.690842
 20
-71.980279
 30
0.0
  0
SPLINE
  5
1aa
100
AcDbEntity
  8
Layer_1
 62
5
100
AcDbSpline
 70
8
 71
3
 72
8
 73
4
 74
0
 40
0
 40
0
 40
0
 40
0
 40
1
 40
1
 40
1
 40
1
 10
696.690842
 20
-71.980279
 30
0.0
 10
696.654667
 20
-71.566794
 30
0.0
 10
696.784230
 20
-71.155875
 30
0.0
 10
697.051028
 20
-70.837917
 30
0.0
  0
SPLINE
  5
1ab
100
AcDbEntity
  8
Layer_1
 62
5
100
AcDbSpline
 70
8
 71
3
 72
8
 73
4
 74
0
 40
0
 40
0
 40
0
 40
0
 40
1
 40
1
 40
1
 40
1
 10
697.051028
 20
-70.837917
 30
0.0
 10
697.317826
 20
-70.519960
 30
0.0
 10
697.700005
 20
-70.321010
 30
0.0
 10
698.113489
 20
-70.284835
 30
0.0
  0
LINE
  5
1ac
100
AcDbEntity
  8
Layer_1
 62
5
100
AcDbLine
 10
698.113489
 20
-70.284835
 30
0.0
 11
698.113489
 21
-70.284835
 31
0.0
  0
SPLINE
  5
1ad
100
AcDbEntity
  8
Layer_1
 62
5
100
AcDbSpline
 70
8
 71
3
 72
8
 73
4
 74
0
 40
0
 40
0
 40
0
 40
0
 40
1
 40
1
 40
1
 40
1
 10
690.371146
 20
18.210624
 30
0.0
 10
691.001721
 20
18.265792
 30
0.0
 10
691.603438
 20
17.935679
 30
0.0
 10
691.895717
 20
17.374215
 30
0.0
  0
SPLINE
  5
1ae
100
AcDbEntity
  8
Layer_1
 62
5
100
AcDbSpline
 70
8
 71
3
 72
8
 73
4
 74
0
 40
0
 40
0
 40
0
 40
0
 40
1
 40
1
 40
1
 40
1
 10
691.895717
 20
17.374215
 30
0.0
 10
692.187996
 20
16.812752
 30
0.0
 10
692.113278
 20
16.130509
 30
0.0
 10
691.706404
 20
15.645615
 30
0.0
  0
SPLINE
  5
1af
100
AcDbEntity
  8
Layer_1
 62
5
100
AcDbSpline
 70
8
 71
3
 72
8
 73
4
 74
0
 40
0
 40
0
 40
0
 40
0
 40
1
 40
1
 40
1
 40
1
 10
691.706404
 20
15.645615
 30
0.0
 10
691.299530
 20
15.160722
 30
0.0
 10
690.640627
 20
14.968669
 30
0.0
 10
690.036940
 20
15.159011
 30
0.0
  0
SPLINE
  5
1b0
100
AcDbEntity
  8
Layer_1
 62
5
100
AcDbSpline
 70
8
 71
3
 72
8
 73
4
 74
0
 40
0
 40
0
 40
0
 40
0
 40
1
 40
1
 40
1
 40
1
 10
690.036940
 20
15.159011
 30
0.0
 10
689.433252
 20
15.349353
 30
0.0
 10
689.003667
 20
15.884605
 30
0.0
 10
688.948499
 20
16.515180
 30
0.0
  0
SPLINE
  5
1b1
100
AcDbEntity
  8
Layer_1
 62
5
100
AcDbSpline
 70
8
 71
3
 72
8
 73
4
 74
0
 40
0
 40
0
 40
0
 40
0
 40
1
 40
1
 40
1
 40
1
 10
688.948499
 20
16.515180
 30
0.0
 10
688.912324
 20
16.928664
 30
0.0
 10
689.041887
 20
17.339584
 30
0.0
 10
689.308685
 20
17.657541
 30
0.0
  0
SPLINE
  5
1b2
100
AcDbEntity
  8
Layer_1
 62
5
100
AcDbSpline
 70
8
 71
3
 72
8
 73
4
 74
0
 40
0
 40
0
 40
0
 40
0
 40
1
 40
1
 40
1
 40
1
 10
689.308685
 20
17.657541
 30
0.0
 10
689.575483
 20
17.975499
 30
0.0
 10
689.957661
 20
18.174449
 30
0.0
 10
690.371146
 20
18.210624
 30
0.0
  0
LINE
  5
1b3
100
AcDbEntity
  8
Layer_1
 62
5
100
AcDbLine
 10
690.371146
 20
18.210624
 30
0.0
 11
690.371146
 21
18.210624
 31
0.0
  0
SPLINE
  5
1b4
100
AcDbEntity
  8
Layer_1
 62
5
100
AcDbSpline
 70
8
 71
3
 72
8
 73
4
 74
0
 40
0
 40
0
 40
0
 40
0
 40
1
 40
1
 40
1
 40
1
 10
561.902040
 20
15.526521
 30
0.0
 10
562.532614
 20
15.581689
 30
0.0
 10
563.134331
 20
15.251576
 30
0.0
 10
563.426611
 20
14.690112
 30
0.0
  0
SPLINE
  5
1b5
100
AcDbEntity
  8
Layer_1
 62
5
100
AcDbSpline
 70
8
 71
3
 72
8
 73
4
 74
0
 40
0
 40
0
 40
0
 40
0
 40
1
 40
1
 40
1
 40
1
 10
563.426611
 20
14.690112
 30
0.0
 10
563.718890
 20
14.128649
 30
0.0
 10
563.644172
 20
13.446406
 30
0.0
 10
563.237298
 20
12.961513
 30
0.0
  0
SPLINE
  5
1b6
100
AcDbEntity
  8
Layer_1
 62
5
100
AcDbSpline
 70
8
 71
3
 72
8
 73
4
 74
0
 40
0
 40
0
 40
0
 40
0
 40
1
 40
1
 40
1
 40
1
 10
563.237298
 20
12.961513
 30
0.0
 10
562.830424
 20
12.476619
 30
0.0
 10
562.171521
 20
12.284566
 30
0.0
 10
561.567833
 20
12.474908
 30
0.0
  0
SPLINE
  5
1b7
100
AcDbEntity
  8
Layer_1
 62
5
100
AcDbSpline
 70
8
 71
3
 72
8
 73
4
 74
0
 40
0
 40
0
 40
0
 40
0
 40
1
 40
1
 40
1
 40
1
 10
561.567833
 20
12.474908
 30
0.0
 10
560.964146
 20
12.665250
 30
0.0
 10
560.534561
 20
13.200502
 30
0.0
 10
560.479393
 20
13.831077
 30
0.0
  0
SPLINE
  5
1b8
100
AcDbEntity
  8
Layer_1
 62
5
100
AcDbSpline
 70
8
 71
3
 72
8
 73
4
 74
0
 40
0
 40
0
 40
0
 40
0
 40
1
 40
1
 40
1
 40
1
 10
560.479393
 20
13.831077
 30
0.0
 10
560.443218
 20
14.244561
 30
0.0
 10
560.572780
 20
14.655481
 30
0.0
 10
560.839578
 20
14.973439
 30
0.0
  0
SPLINE
  5
1b9
100
AcDbEntity
  8
Layer_1
 62
5
100
AcDbSpline
 70
8
 71
3
 72
8
 73
4
 74
0
 40
0
 40
0
 40
0
 40
0
 40
1
 40
1
 40
1
 40
1
 10
560.839578
 20
14.973439
 30
0.0
 10
561.106376
 20
15.291396
 30
0.0
 10
561.488555
 20
15.490346
 30
0.0
 10
561.902040
 20
15.526521
 30
0.0
  0
LINE
  5
1ba
100
AcDbEntity
  8
Layer_1
 62
5
100
AcDbLine
 10
561.902040
 20
15.526521
 30
0.0
 11
561.902040
 21
15.526521
 31
0.0
  0
SPLINE
  5
1bb
100
AcDbEntity
  8
Layer_1
 62
5
100
AcDbSpline
 70
8
 71
3
 72
8
 73
4
 74
0
 40
0
 40
0
 40
0
 40
0
 40
1
 40
1
 40
1
 40
1
 10
570.385390
 20
-81.438697
 30
0.0
 10
571.015965
 20
-81.383529
 30
0.0
 10
571.617682
 20
-81.713642
 30
0.0
 10
571.909961
 20
-82.275106
 30
0.0
  0
SPLINE
  5
1bc
100
AcDbEntity
  8
Layer_1
 62
5
100
AcDbSpline
 70
8
 71
3
 72
8
 73
4
 74
0
 40
0
 40
0
 40
0
 40
0
 40
1
 40
1
 40
1
 40
1
 10
571.909961
 20
-82.275106
 30
0.0
 10
572.202241
 20
-82.836569
 30
0.0
 10
572.127523
 20
-83.518812
 30
0.0
 10
571.720649
 20
-84.003706
 30
0.0
  0
SPLINE
  5
1bd
100
AcDbEntity
  8
Layer_1
 62
5
100
AcDbSpline
 70
8
 71
3
 72
8
 73
4
 74
0
 40
0
 40
0
 40
0
 40
0
 40
1
 40
1
 40
1
 40
1
 10
571.720649
 20
-84.003706
 30
0.0
 10
571.313775
 20
-84.488599
 30
0.0
 10
570.654871
 20
-84.680652
 30
0.0
 10
570.051184
 20
-84.490310
 30
0.0
  0
SPLINE
  5
1be
100
AcDbEntity
  8
Layer_1
 62
5
100
AcDbSpline
 70
8
 71
3
 72
8
 73
4
 74
0
 40
0
 40
0
 40
0
 40
0
 40
1
 40
1
 40
1
 40
1
 10
570.051184
 20
-84.490310
 30
0.0
 10
569.447497
 20
-84.299968
 30
0.0
 10
569.017912
 20
-83.764716
 30
0.0
 10
568.962744
 20
-83.134141
 30
0.0
  0
SPLINE
  5
1bf
100
AcDbEntity
  8
Layer_1
 62
5
100
AcDbSpline
 70
8
 71
3
 72
8
 73
4
 74
0
 40
0
 40
0
 40
0
 40
0
 40
1
 40
1
 40
1
 40
1
 10
568.962744
 20
-83.134141
 30
0.0
 10
568.926568
 20
-82.720657
 30
0.0
 10
569.056131
 20
-82.309737
 30
0.0
 10
569.322929
 20
-81.991779
 30
0.0
  0
SPLINE
  5
1c0
100
AcDbEntity
  8
Layer_1
 62
5
100
AcDbSpline
 70
8
 71
3
 72
8
 73
4
 74
0
 40
0
 40
0
 40
0
 40
0
 40
1
 40
1
 40
1
 40
1
 10
569.322929
 20
-81.991779
 30
0.0
 10
569.589727
 20
-81.673822
 30
0.0
 10
569.971906
 20
-81.474872
 30
0.0
 10
570.385390
 20
-81.438697
 30
0.0
  0
LINE
  5
1c1
100
AcDbEntity
  8
Layer_1
 62
5
100
AcDbLine
 10
570.385390
 20
-81.438697
 30
0.0
 11
570.385390
 21
-81.438697
 31
0.0
  0
SPLINE
  5
1c2
100
AcDbEntity
  8
Layer_1
 62
5
100
AcDbSpline
 70
8
 71
3
 72
8
 73
4
 74
0
 40
0
 40
0
 40
0
 40
0
 40
1
 40
1
 40
1
 40
1
 10
565.686113
 20
-27.725666
 30
0.0
 10
566.316687
 20
-27.670498
 30
0.0
 10
566.918404
 20
-28.000611
 30
0.0
 10
567.210684
 20
-28.562074
 30
0.0
  0
SPLINE
  5
1c3
100
AcDbEntity
  8
Layer_1
 62
5
100
AcDbSpline
 70
8
 71
3
 72
8
 73
4
 74
0
 40
0
 40
0
 40
0
 40
0
 40
1
 40
1
 40
1
 40
1
 10
567.210684
 20
-28.562074
 30
0.0
 10
567.502963
 20
-29.123538
 30
0.0
 10
567.428245
 20
-29.805781
 30
0.0
 10
567.021371
 20
-30.290674
 30
0.0
  0
SPLINE
  5
1c4
100
AcDbEntity
  8
Layer_1
 62
5
100
AcDbSpline
 70
8
 71
3
 72
8
 73
4
 74
0
 40
0
 40
0
 40
0
 40
0
 40
1
 40
1
 40
1
 40
1
 10
567.021371
 20
-30.290674
 30
0.0
 10
566.614497
 20
-30.775568
 30
0.0
 10
565.955594
 20
-30.967621
 30
0.0
 10
565.351906
 20
-30.777279
 30
0.0
  0
SPLINE
  5
1c5
100
AcDbEntity
  8
Layer_1
 62
5
100
AcDbSpline
 70
8
 71
3
 72
8
 73
4
 74
0
 40
0
 40
0
 40
0
 40
0
 40
1
 40
1
 40
1
 40
1
 10
565.351906
 20
-30.777279
 30
0.0
 10
564.748219
 20
-30.586937
 30
0.0
 10
564.318634
 20
-30.051685
 30
0.0
 10
564.263466
 20
-29.421110
 30
0.0
  0
SPLINE
  5
1c6
100
AcDbEntity
  8
Layer_1
 62
5
100
AcDbSpline
 70
8
 71
3
 72
8
 73
4
 74
0
 40
0
 40
0
 40
0
 40
0
 40
1
 40
1
 40
1
 40
1
 10
564.263466
 20
-29.421110
 30
0.0
 10
564.227291
 20
-29.007625
 30
0.0
 10
564.356853
 20
-28.596706
 30
0.0
 10
564.623651
 20
-28.278748
 30
0.0
  0
SPLINE
  5
1c7
100
AcDbEntity
  8
Layer_1
 62
5
100
AcDbSpline
 70
8
 71
3
 72
8
 73
4
 74
0
 40
0
 40
0
 40
0
 40
0
 40
1
 40
1
 40
1
 40
1
 10
564.623651
 20
-28.278748
 30
0.0
 10
564.890449
 20
-27.960791
 30
0.0
 10
565.272628
 20
-27.761841
 30
0.0
 10
565.686113
 20
-27.725666
 30
0.0
  0
LINE
  5
1c8
100
AcDbEntity
  8
Layer_1
 62
5
100
AcDbLine
 10
565.686113
 20
-27.725666
 30
0.0
 11
565.686113
 21
-27.725666
 31
0.0
  0
SPLINE
  5
1c9
100
AcDbEntity
  8
Layer_1
 62
5
100
AcDbSpline
 70
8
 71
3
 72
8
 73
4
 74
0
 40
0
 40
0
 40
0
 40
0
 40
1
 40
1
 40
1
 40
1
 10
577.410170
 20
10.511587
 30
0.0
 10
577.027393
 20
10.478099
 30
0.0
 10
576.702480
 20
10.217328
 30
0.0
 10
576.586937
 20
9.850873
 30
0.0
  0
SPLINE
  5
1ca
100
AcDbEntity
  8
Layer_1
 62
5
100
AcDbSpline
 70
8
 71
3
 72
8
 73
4
 74
0
 40
0
 40
0
 40
0
 40
0
 40
1
 40
1
 40
1
 40
1
 10
576.586937
 20
9.850873
 30
0.0
 10
576.471394
 20
9.484418
 30
0.0
 10
576.587976
 20
9.084444
 30
0.0
 10
576.882320
 20
8.837460
 30
0.0
  0
SPLINE
  5
1cb
100
AcDbEntity
  8
Layer_1
 62
5
100
AcDbSpline
 70
8
 71
3
 72
8
 73
4
 74
0
 40
0
 40
0
 40
0
 40
0
 40
1
 40
1
 40
1
 40
1
 10
576.882320
 20
8.837460
 30
0.0
 10
577.176664
 20
8.590476
 30
0.0
 10
577.590805
 20
8.545120
 30
0.0
 10
577.931630
 20
8.722542
 30
0.0
  0
SPLINE
  5
1cc
100
AcDbEntity
  8
Layer_1
 62
5
100
AcDbSpline
 70
8
 71
3
 72
8
 73
4
 74
0
 40
0
 40
0
 40
0
 40
0
 40
1
 40
1
 40
1
 40
1
 10
577.931630
 20
8.722542
 30
0.0
 10
578.272454
 20
8.899964
 30
0.0
 10
578.472842
 20
9.265223
 30
0.0
 10
578.439353
 20
9.648000
 30
0.0
  0
SPLINE
  5
1cd
100
AcDbEntity
  8
Layer_1
 62
5
100
AcDbSpline
 70
8
 71
3
 72
8
 73
4
 74
0
 40
0
 40
0
 40
0
 40
0
 40
1
 40
1
 40
1
 40
1
 10
578.439353
 20
9.648000
 30
0.0
 10
578.417394
 20
9.898997
 30
0.0
 10
578.296626
 20
10.130991
 30
0.0
 10
578.103617
 20
10.292945
 30
0.0
  0
SPLINE
  5
1ce
100
AcDbEntity
  8
Layer_1
 62
5
100
AcDbSpline
 70
8
 71
3
 72
8
 73
4
 74
0
 40
0
 40
0
 40
0
 40
0
 40
1
 40
1
 40
1
 40
1
 10
578.103617
 20
10.292945
 30
0.0
 10
577.910607
 20
10.454899
 30
0.0
 10
577.661167
 20
10.533547
 30
0.0
 10
577.410170
 20
10.511587
 30
0.0
  0
LINE
  5
1cf
100
AcDbEntity
  8
Layer_1
 62
5
100
AcDbLine
 10
577.410170
 20
10.511587
 30
0.0
 11
577.410170
 21
10.511587
 31
0.0
  0
SPLINE
  5
1d0
100
AcDbEntity
  8
Layer_1
 62
5
100
AcDbSpline
 70
8
 71
3
 72
8
 73
4
 74
0
 40
0
 40
0
 40
0
 40
0
 40
1
 40
1
 40
1
 40
1
 10
674.313147
 20
18.989499
 30
0.0
 10
673.930370
 20
18.956011
 30
0.0
 10
673.605457
 20
18.695240
 30
0.0
 10
673.489914
 20
18.328785
 30
0.0
  0
SPLINE
  5
1d1
100
AcDbEntity
  8
Layer_1
 62
5
100
AcDbSpline
 70
8
 71
3
 72
8
 73
4
 74
0
 40
0
 40
0
 40
0
 40
0
 40
1
 40
1
 40
1
 40
1
 10
673.489914
 20
18.328785
 30
0.0
 10
673.374371
 20
17.962329
 30
0.0
 10
673.490952
 20
17.562356
 30
0.0
 10
673.785297
 20
17.315372
 30
0.0
  0
SPLINE
  5
1d2
100
AcDbEntity
  8
Layer_1
 62
5
100
AcDbSpline
 70
8
 71
3
 72
8
 73
4
 74
0
 40
0
 40
0
 40
0
 40
0
 40
1
 40
1
 40
1
 40
1
 10
673.785297
 20
17.315372
 30
0.0
 10
674.079641
 20
17.068388
 30
0.0
 10
674.493782
 20
17.023032
 30
0.0
 10
674.834606
 20
17.200454
 30
0.0
  0
SPLINE
  5
1d3
100
AcDbEntity
  8
Layer_1
 62
5
100
AcDbSpline
 70
8
 71
3
 72
8
 73
4
 74
0
 40
0
 40
0
 40
0
 40
0
 40
1
 40
1
 40
1
 40
1
 10
674.834606
 20
17.200454
 30
0.0
 10
675.175430
 20
17.377876
 30
0.0
 10
675.375818
 20
17.743135
 30
0.0
 10
675.342330
 20
18.125912
 30
0.0
  0
SPLINE
  5
1d4
100
AcDbEntity
  8
Layer_1
 62
5
100
AcDbSpline
 70
8
 71
3
 72
8
 73
4
 74
0
 40
0
 40
0
 40
0
 40
0
 40
1
 40
1
 40
1
 40
1
 10
675.342330
 20
18.125912
 30
0.0
 10
675.320370
 20
18.376909
 30
0.0
 10
675.199602
 20
18.608903
 30
0.0
 10
675.006593
 20
18.770857
 30
0.0
  0
SPLINE
  5
1d5
100
AcDbEntity
  8
Layer_1
 62
5
100
AcDbSpline
 70
8
 71
3
 72
8
 73
4
 74
0
 40
0
 40
0
 40
0
 40
0
 40
1
 40
1
 40
1
 40
1
 10
675.006593
 20
18.770857
 30
0.0
 10
674.813584
 20
18.932810
 30
0.0
 10
674.564144
 20
19.011459
 30
0.0
 10
674.313147
 20
18.989499
 30
0.0
  0
LINE
  5
1d6
100
AcDbEntity
  8
Layer_1
 62
5
100
AcDbLine
 10
674.313147
 20
18.989499
 30
0.0
 11
674.313147
 21
18.989499
 31
0.0
  0
SPLINE
  5
1d7
100
AcDbEntity
  8
Layer_1
 62
5
100
AcDbSpline
 70
8
 71
3
 72
8
 73
4
 74
0
 40
0
 40
0
 40
0
 40
0
 40
1
 40
1
 40
1
 40
1
 10
487.889507
 20
10.595351
 30
0.0
 10
487.506730
 20
10.628840
 30
0.0
 10
487.141471
 20
10.428452
 30
0.0
 10
486.964049
 20
10.087628
 30
0.0
  0
SPLINE
  5
1d8
100
AcDbEntity
  8
Layer_1
 62
5
100
AcDbSpline
 70
8
 71
3
 72
8
 73
4
 74
0
 40
0
 40
0
 40
0
 40
0
 40
1
 40
1
 40
1
 40
1
 10
486.964049
 20
10.087628
 30
0.0
 10
486.786627
 20
9.746803
 30
0.0
 10
486.831983
 20
9.332663
 30
0.0
 10
487.078967
 20
9.038318
 30
0.0
  0
SPLINE
  5
1d9
100
AcDbEntity
  8
Layer_1
 62
5
100
AcDbSpline
 70
8
 71
3
 72
8
 73
4
 74
0
 40
0
 40
0
 40
0
 40
0
 40
1
 40
1
 40
1
 40
1
 10
487.078967
 20
9.038318
 30
0.0
 10
487.325951
 20
8.743974
 30
0.0
 10
487.725924
 20
8.627392
 30
0.0
 10
488.092380
 20
8.742935
 30
0.0
  0
SPLINE
  5
1da
100
AcDbEntity
  8
Layer_1
 62
5
100
AcDbSpline
 70
8
 71
3
 72
8
 73
4
 74
0
 40
0
 40
0
 40
0
 40
0
 40
1
 40
1
 40
1
 40
1
 10
488.092380
 20
8.742935
 30
0.0
 10
488.458835
 20
8.858478
 30
0.0
 10
488.719605
 20
9.183392
 30
0.0
 10
488.753094
 20
9.566169
 30
0.0
  0
SPLINE
  5
1db
100
AcDbEntity
  8
Layer_1
 62
5
100
AcDbSpline
 70
8
 71
3
 72
8
 73
4
 74
0
 40
0
 40
0
 40
0
 40
0
 40
1
 40
1
 40
1
 40
1
 10
488.753094
 20
9.566169
 30
0.0
 10
488.775053
 20
9.817165
 30
0.0
 10
488.696405
 20
10.066606
 30
0.0
 10
488.534451
 20
10.259615
 30
0.0
  0
SPLINE
  5
1dc
100
AcDbEntity
  8
Layer_1
 62
5
100
AcDbSpline
 70
8
 71
3
 72
8
 73
4
 74
0
 40
0
 40
0
 40
0
 40
0
 40
1
 40
1
 40
1
 40
1
 10
488.534451
 20
10.259615
 30
0.0
 10
488.372497
 20
10.452624
 30
0.0
 10
488.140504
 20
10.573392
 30
0.0
 10
487.889507
 20
10.595351
 30
0.0
  0
LINE
  5
1dd
100
AcDbEntity
  8
Layer_1
 62
5
100
AcDbLine
 10
487.889507
 20
10.595351
 30
0.0
 11
487.889507
 21
10.595351
 31
0.0
  0
SPLINE
  5
1de
100
AcDbEntity
  8
Layer_1
 62
5
100
AcDbSpline
 70
8
 71
3
 72
8
 73
4
 74
0
 40
0
 40
0
 40
0
 40
0
 40
1
 40
1
 40
1
 40
1
 10
390.986531
 20
19.073263
 30
0.0
 10
390.603754
 20
19.106752
 30
0.0
 10
390.238494
 20
18.906364
 30
0.0
 10
390.061072
 20
18.565540
 30
0.0
  0
SPLINE
  5
1df
100
AcDbEntity
  8
Layer_1
 62
5
100
AcDbSpline
 70
8
 71
3
 72
8
 73
4
 74
0
 40
0
 40
0
 40
0
 40
0
 40
1
 40
1
 40
1
 40
1
 10
390.061072
 20
18.565540
 30
0.0
 10
389.883651
 20
18.224715
 30
0.0
 10
389.929006
 20
17.810574
 30
0.0
 10
390.175990
 20
17.516230
 30
0.0
  0
SPLINE
  5
1e0
100
AcDbEntity
  8
Layer_1
 62
5
100
AcDbSpline
 70
8
 71
3
 72
8
 73
4
 74
0
 40
0
 40
0
 40
0
 40
0
 40
1
 40
1
 40
1
 40
1
 10
390.175990
 20
17.516230
 30
0.0
 10
390.422975
 20
17.221886
 30
0.0
 10
390.822948
 20
17.105304
 30
0.0
 10
391.189403
 20
17.220847
 30
0.0
  0
SPLINE
  5
1e1
100
AcDbEntity
  8
Layer_1
 62
5
100
AcDbSpline
 70
8
 71
3
 72
8
 73
4
 74
0
 40
0
 40
0
 40
0
 40
0
 40
1
 40
1
 40
1
 40
1
 10
391.189403
 20
17.220847
 30
0.0
 10
391.555859
 20
17.336390
 30
0.0
 10
391.816629
 20
17.661303
 30
0.0
 10
391.850118
 20
18.044080
 30
0.0
  0
SPLINE
  5
1e2
100
AcDbEntity
  8
Layer_1
 62
5
100
AcDbSpline
 70
8
 71
3
 72
8
 73
4
 74
0
 40
0
 40
0
 40
0
 40
0
 40
1
 40
1
 40
1
 40
1
 10
391.850118
 20
18.044080
 30
0.0
 10
391.872077
 20
18.295077
 30
0.0
 10
391.793429
 20
18.544517
 30
0.0
 10
391.631475
 20
18.737527
 30
0.0
  0
SPLINE
  5
1e3
100
AcDbEntity
  8
Layer_1
 62
5
100
AcDbSpline
 70
8
 71
3
 72
8
 73
4
 74
0
 40
0
 40
0
 40
0
 40
0
 40
1
 40
1
 40
1
 40
1
 10
391.631475
 20
18.737527
 30
0.0
 10
391.469521
 20
18.930536
 30
0.0
 10
391.237528
 20
19.051304
 30
0.0
 10
390.986531
 20
19.073263
 30
0.0
  0
LINE
  5
1e4
100
AcDbEntity
  8
Layer_1
 62
5
100
AcDbLine
 10
390.986531
 20
19.073263
 30
0.0
 11
390.986531
 21
19.073263
 31
0.0
  0
ENDSEC
  0
SECTION
  2
OBJECTS
  0
DICTIONARY
  5
C
330
0
100
AcDbDictionary
  3
ACAD_GROUP
350
D
  3
ACAD_MLINESTYLE
350
17
  0
DICTIONARY
  5
D
330
C
100
AcDbDictionary
  0
DICTIONARY
  5
1A
330
C
100
AcDbDictionary
  0
DICTIONARY
  5
17
330
C
100
AcDbDictionary
  3
STANDARD
350
18
  0
DICTIONARY
  5
19
330
C
100
AcDbDictionary
  0
ENDSEC
  0
EOF
