  0
SECTION
  2
HEADER
  9
$ACADVER
  1
AC1014
  9
$HANDSEED
  5
FFFF
  9
$INSUNITS
 70
     0
  9
$MEASUREMENT
 70
     1
  0
ENDSEC
  0
SECTION
  2
TABLES
  0
TABLE
  2
VPORT
  5
8
330
0
100
AcDbSymbolTable
 70
     4
  0
VPORT
  5
2E
330
8
100
AcDbSymbolTableRecord
100
AcDbViewportTableRecord
  2
*ACTIVE
 70
     0
 10
0.0
 20
0.0
 11
1.0
 21
1.0
 12
210.0
 22
148.5
 13
0.0
 23
0.0
 14
10.0
 24
10.0
 15
10.0
 25
10.0
 16
0.0
 26
0.0
 36
1.0
 17
0.0
 27
0.0
 37
0.0
 40
341.0
 41
1.24
 42
50.0
 43
0.0
 44
0.0
 50
0.0
 51
0.0
 71
     0
 72
   100
 73
     1
 74
     3
 75
     0
 76
     0
 77
     0
 78
     0
  0
ENDTAB
  0
TABLE
  2
LTYPE
  5
5
330
0
100
AcDbSymbolTable
 70
     1
  0
LTYPE
  5
14
330
5
100
AcDbSymbolTableRecord
100
AcDbLinetypeTableRecord
  2
BYBLOCK
 70
     0
  3

 72
    65
 73
     0
 40
0.0
  0
LTYPE
  5
15
330
5
100
AcDbSymbolTableRecord
100
AcDbLinetypeTableRecord
  2
BYLAYER
 70
     0
  3

 72
    65
 73
     0
 40
0.0
  0
LTYPE
  5
16
330
5
100
AcDbSymbolTableRecord
100
AcDbLinetypeTableRecord
  2
CONTINUOUS
 70
     0
  3
Solid line
 72
    65
 73
     0
 40
0.0
  0
ENDTAB
  0
TABLE
  2
LAYER
  5
2
100
AcDbSymbolTable
 70
2
  0
LAYER
  5
50
100
AcDbSymbolTableRecord
100
AcDbLayerTableRecord
  2
0
 70
0
  6
CONTINUOUS
  0
LAYER
  5
51
100
AcDbSymbolTableRecord
100
AcDbLayerTableRecord
  2
Layer_1
 70
0
  6
CONTINUOUS
  0
ENDTAB
  0
TABLE
  2
STYLE
  5
3
330
0
100
AcDbSymbolTable
 70
     1
  0
STYLE
  5
11
330
3
100
AcDbSymbolTableRecord
100
AcDbTextStyleTableRecord
  2
STANDARD
 70
     0
 40
0.0
 41
1.0
 50
0.0
 71
     0
 42
2.5
  3
txt
  4

  0
ENDTAB
  0
TABLE
  2
VIEW
  5
6
330
0
100
AcDbSymbolTable
 70
     0
  0
ENDTAB
  0
TABLE
  2
UCS
  5
7
330
0
100
AcDbSymbolTable
 70
     0
  0
ENDTAB
  0
TABLE
  2
APPID
  5
9
330
0
100
AcDbSymbolTable
 70
     2
  0
APPID
  5
12
330
9
100
AcDbSymbolTableRecord
100
AcDbRegAppTableRecord
  2
ACAD
 70
     0
  0
ENDTAB
  0
TABLE
  2
DIMSTYLE
  5
A
330
0
100
AcDbSymbolTable
 70
     1
  0
DIMSTYLE
105
27
330
A
100
AcDbSymbolTableRecord
100
AcDbDimStyleTableRecord
  2
ISO-25
 70
     0
  3

  4

  5

  6

  7

 40
1.0
 41
2.5
 42
0.625
 43
3.75
 44
1.25
 45
0.0
 46
0.0
 47
0.0
 48
0.0
140
2.5
141
2.5
142
0.0
143
0.03937007874016
144
1.0
145
0.0
146
1.0
147
0.625
 71
     0
 72
     0
 73
     0
 74
     0
 75
     0
 76
     0
 77
     1
 78
     8
170
     0
171
     3
172
     1
173
     0
174
     0
175
     0
176
     0
177
     0
178
     0
270
     2
271
     2
272
     2
273
     2
274
     3
340
11
275
     0
280
     0
281
     0
282
     0
283
     0
284
     8
285
     0
286
     0
287
     3
288
     0
  0
ENDTAB
  0
TABLE
  2
BLOCK_RECORD
  5
1
330
0
100
AcDbSymbolTable
 70
     1
  0
BLOCK_RECORD
  5
1F
330
1
100
AcDbSymbolTableRecord
100
AcDbBlockTableRecord
  2
*MODEL_SPACE
  0
BLOCK_RECORD
  5
1B
330
1
100
AcDbSymbolTableRecord
100
AcDbBlockTableRecord
  2
*PAPER_SPACE
  0
ENDTAB
  0
ENDSEC
  0
SECTION
  2
BLOCKS
  0
BLOCK
  5
20
330
1F
100
AcDbEntity
  8
0
100
AcDbBlockBegin
  2
*MODEL_SPACE
 70
     0
 10
0.0
 20
0.0
 30
0.0
  3
*MODEL_SPACE
  1

  0
ENDBLK
  5
21
330
1F
100
AcDbEntity
  8
0
100
AcDbBlockEnd
  0
BLOCK
  5
1C
330
1B
100
AcDbEntity
 67
     1
  8
0
100
AcDbBlockBegin
  2
*PAPER_SPACE
  1

  0
ENDBLK
  5
1D
330
1B
100
AcDbEntity
 67
     1
  8
0
100
AcDbBlockEnd
  0
ENDSEC
  0
SECTION
  2
ENTITIES
  0
LINE
  5
100
100
AcDbEntity
  8
Layer_1
 62
5
100
AcDbLine
 10
508.775647
 20
0.941465
 30
0.0
 11
508.716947
 21
0.270445
 31
0.0
  0
SPLINE
  5
101
100
AcDbEntity
  8
Layer_1
 62
5
100
AcDbSpline
 70
8
 71
3
 72
8
 73
4
 74
0
 40
0
 40
0
 40
0
 40
0
 40
1
 40
1
 40
1
 40
1
 10
508.716947
 20
0.270445
 30
0.0
 10
508.692483
 20
-0.009172
 30
0.0
 10
508.557942
 20
-0.267617
 30
0.0
 10
508.342922
 20
-0.448035
 30
0.0
  0
SPLINE
  5
102
100
AcDbEntity
  8
Layer_1
 62
5
100
AcDbSpline
 70
8
 71
3
 72
8
 73
4
 74
0
 40
0
 40
0
 40
0
 40
0
 40
1
 40
1
 40
1
 40
1
 10
508.342922
 20
-0.448035
 30
0.0
 10
508.127903
 20
-0.628453
 30
0.0
 10
507.850018
 20
-0.716064
 30
0.0
 10
507.570401
 20
-0.691594
 30
0.0
  0
LINE
  5
103
100
AcDbEntity
  8
Layer_1
 62
5
100
AcDbLine
 10
507.570401
 20
-0.691594
 30
0.0
 11
496.228212
 21
0.300987
 31
0.0
  0
SPLINE
  5
104
100
AcDbEntity
  8
Layer_1
 62
5
100
AcDbSpline
 70
8
 71
3
 72
8
 73
4
 74
0
 40
0
 40
0
 40
0
 40
0
 40
1
 40
1
 40
1
 40
1
 10
496.228212
 20
0.300987
 30
0.0
 10
495.525344
 20
0.362495
 30
0.0
 10
494.822476
 20
0.423997
 30
0.0
 10
494.119607
 20
0.485492
 30
0.0
  0
LINE
  5
105
100
AcDbEntity
  8
Layer_1
 62
5
100
AcDbLine
 10
494.119607
 20
0.485492
 30
0.0
 11
382.526320
 21
10.248949
 31
0.0
  0
SPLINE
  5
106
100
AcDbEntity
  8
Layer_1
 62
5
100
AcDbSpline
 70
8
 71
3
 72
8
 73
4
 74
0
 40
0
 40
0
 40
0
 40
0
 40
1
 40
1
 40
1
 40
1
 10
382.526320
 20
10.248949
 30
0.0
 10
381.823452
 20
10.310445
 30
0.0
 10
381.120586
 20
10.371960
 30
0.0
 10
380.417722
 20
10.433494
 30
0.0
  0
SPLINE
  5
107
100
AcDbEntity
  8
Layer_1
 62
5
100
AcDbSpline
 70
8
 71
3
 72
8
 73
4
 74
0
 40
0
 40
0
 40
0
 40
0
 40
1
 40
1
 40
1
 40
1
 10
380.417722
 20
10.433494
 30
0.0
 10
379.721207
 20
10.494470
 30
0.0
 10
379.024691
 20
10.555427
 30
0.0
 10
378.328172
 20
10.616364
 30
0.0
  0
LINE
  5
108
100
AcDbEntity
  8
Layer_1
 62
5
100
AcDbLine
 10
378.328172
 20
10.616364
 30
0.0
 11
375.539466
 21
10.860341
 31
0.0
  0
SPLINE
  5
109
100
AcDbEntity
  8
Layer_1
 62
5
100
AcDbSpline
 70
8
 71
3
 72
8
 73
4
 74
0
 40
0
 40
0
 40
0
 40
0
 40
1
 40
1
 40
1
 40
1
 10
375.539466
 20
10.860341
 30
0.0
 10
374.957191
 20
10.911286
 30
0.0
 10
374.443908
 20
10.480551
 30
0.0
 10
374.393004
 20
9.898269
 30
0.0
  0
SPLINE
  5
10a
100
AcDbEntity
  8
Layer_1
 62
5
100
AcDbSpline
 70
8
 71
3
 72
8
 73
4
 74
0
 40
0
 40
0
 40
0
 40
0
 40
1
 40
1
 40
1
 40
1
 10
374.393004
 20
9.898269
 30
0.0
 10
372.211535
 20
-15.057081
 30
0.0
 10
370.026976
 20
-40.005685
 30
0.0
 10
367.845513
 20
-64.960994
 30
0.0
  0
SPLINE
  5
10b
100
AcDbEntity
  8
Layer_1
 62
5
100
AcDbSpline
 70
8
 71
3
 72
8
 73
4
 74
0
 40
0
 40
0
 40
0
 40
0
 40
1
 40
1
 40
1
 40
1
 10
367.845513
 20
-64.960994
 30
0.0
 10
367.794609
 20
-65.543277
 30
0.0
 10
368.225378
 20
-66.056606
 30
0.0
 10
368.807654
 20
-66.107551
 30
0.0
  0
LINE
  5
10c
100
AcDbEntity
  8
Layer_1
 62
5
100
AcDbLine
 10
368.807654
 20
-66.107551
 30
0.0
 11
371.615822
 21
-66.353228
 31
0.0
  0
LINE
  5
10d
100
AcDbEntity
  8
Layer_1
 62
5
100
AcDbLine
 10
371.615822
 20
-66.353228
 30
0.0
 11
407.943847
 21
-69.531517
 31
0.0
  0
SPLINE
  5
10e
100
AcDbEntity
  8
Layer_1
 62
5
100
AcDbSpline
 70
8
 71
3
 72
8
 73
4
 74
0
 40
0
 40
0
 40
0
 40
0
 40
1
 40
1
 40
1
 40
1
 10
407.943847
 20
-69.531517
 30
0.0
 10
408.526123
 20
-69.582462
 30
0.0
 10
409.470167
 20
-69.665208
 30
0.0
 10
410.052425
 20
-69.716295
 30
0.0
  0
SPLINE
  5
10f
100
AcDbEntity
  8
Layer_1
 62
5
100
AcDbSpline
 70
8
 71
3
 72
8
 73
4
 74
0
 40
0
 40
0
 40
0
 40
0
 40
1
 40
1
 40
1
 40
1
 10
410.052425
 20
-69.716295
 30
0.0
 10
421.719368
 20
-70.739939
 30
0.0
 10
433.387533
 20
-71.749784
 30
0.0
 10
445.053180
 20
-72.788228
 30
0.0
  0
SPLINE
  5
110
100
AcDbEntity
  8
Layer_1
 62
5
100
AcDbSpline
 70
8
 71
3
 72
8
 73
4
 74
0
 40
0
 40
0
 40
0
 40
0
 40
1
 40
1
 40
1
 40
1
 10
445.053180
 20
-72.788228
 30
0.0
 10
445.635373
 20
-72.840054
 30
0.0
 10
446.579369
 20
-72.923286
 30
0.0
 10
447.161658
 20
-72.974039
 30
0.0
  0
LINE
  5
111
100
AcDbEntity
  8
Layer_1
 62
5
100
AcDbLine
 10
447.161658
 20
-72.974039
 30
0.0
 11
481.382048
 21
-75.956876
 31
0.0
  0
SPLINE
  5
112
100
AcDbEntity
  8
Layer_1
 62
5
100
AcDbSpline
 70
8
 71
3
 72
8
 73
4
 74
0
 40
0
 40
0
 40
0
 40
0
 40
1
 40
1
 40
1
 40
1
 10
481.382048
 20
-75.956876
 30
0.0
 10
482.084936
 20
-76.018144
 30
0.0
 10
482.787814
 20
-76.079524
 30
0.0
 10
483.490681
 20
-76.141017
 30
0.0
  0
LINE
  5
113
100
AcDbEntity
  8
Layer_1
 62
5
100
AcDbLine
 10
483.490681
 20
-76.141017
 30
0.0
 11
489.000753
 21
-76.623077
 31
0.0
  0
SPLINE
  5
114
100
AcDbEntity
  8
Layer_1
 62
5
100
AcDbSpline
 70
8
 71
3
 72
8
 73
4
 74
0
 40
0
 40
0
 40
0
 40
0
 40
1
 40
1
 40
1
 40
1
 10
489.000753
 20
-76.623077
 30
0.0
 10
489.633427
 20
-76.678428
 30
0.0
 10
490.232919
 20
-76.331268
 30
0.0
 10
490.499818
 20
-75.754982
 30
0.0
  0
LINE
  5
115
100
AcDbEntity
  8
Layer_1
 62
5
100
AcDbLine
 10
490.499818
 20
-75.754982
 30
0.0
 11
498.122117
 21
-59.296786
 31
0.0
  0
SPLINE
  5
116
100
AcDbEntity
  8
Layer_1
 62
5
100
AcDbSpline
 70
8
 71
3
 72
8
 73
4
 74
0
 40
0
 40
0
 40
0
 40
0
 40
1
 40
1
 40
1
 40
1
 10
498.122117
 20
-59.296786
 30
0.0
 10
498.416391
 20
-58.661389
 30
0.0
 10
498.598092
 20
-57.979716
 30
0.0
 10
498.659123
 20
-57.282147
 30
0.0
  0
LINE
  5
117
100
AcDbEntity
  8
Layer_1
 62
5
100
AcDbLine
 10
498.659123
 20
-57.282147
 30
0.0
 11
500.227290
 21
-39.357794
 31
0.0
  0
SPLINE
  5
118
100
AcDbEntity
  8
Layer_1
 62
5
100
AcDbSpline
 70
8
 71
3
 72
8
 73
4
 74
0
 40
0
 40
0
 40
0
 40
0
 40
1
 40
1
 40
1
 40
1
 10
500.227290
 20
-39.357794
 30
0.0
 10
500.285005
 20
-38.698083
 30
0.0
 10
500.013147
 20
-38.052443
 30
0.0
 10
499.500916
 20
-37.632718
 30
0.0
  0
LINE
  5
119
100
AcDbEntity
  8
Layer_1
 62
5
100
AcDbLine
 10
499.500916
 20
-37.632718
 30
0.0
 11
494.696100
 21
-33.695603
 31
0.0
  0
SPLINE
  5
11a
100
AcDbEntity
  8
Layer_1
 62
5
100
AcDbSpline
 70
8
 71
3
 72
8
 73
4
 74
0
 40
0
 40
0
 40
0
 40
0
 40
1
 40
1
 40
1
 40
1
 10
494.696100
 20
-33.695603
 30
0.0
 10
494.183869
 20
-33.275877
 30
0.0
 10
493.912011
 20
-32.630238
 30
0.0
 10
493.969725
 20
-31.970526
 30
0.0
  0
LINE
  5
11b
100
AcDbEntity
  8
Layer_1
 62
5
100
AcDbLine
 10
493.969725
 20
-31.970526
 30
0.0
 11
495.036201
 21
-19.780480
 31
0.0
  0
SPLINE
  5
11c
100
AcDbEntity
  8
Layer_1
 62
5
100
AcDbSpline
 70
8
 71
3
 72
8
 73
4
 74
0
 40
0
 40
0
 40
0
 40
0
 40
1
 40
1
 40
1
 40
1
 10
495.036201
 20
-19.780480
 30
0.0
 10
495.060663
 20
-19.500878
 30
0.0
 10
495.195207
 20
-19.242448
 30
0.0
 10
495.410229
 20
-19.062055
 30
0.0
  0
SPLINE
  5
11d
100
AcDbEntity
  8
Layer_1
 62
5
100
AcDbSpline
 70
8
 71
3
 72
8
 73
4
 74
0
 40
0
 40
0
 40
0
 40
0
 40
1
 40
1
 40
1
 40
1
 10
495.410229
 20
-19.062055
 30
0.0
 10
495.625250
 20
-18.881661
 30
0.0
 10
495.903132
 20
-18.794084
 30
0.0
 10
496.182730
 20
-18.818593
 30
0.0
  0
LINE
  5
11e
100
AcDbEntity
  8
Layer_1
 62
5
100
AcDbLine
 10
496.182730
 20
-18.818593
 30
0.0
 11
505.909891
 21
-19.671270
 31
0.0
  0
SPLINE
  5
11f
100
AcDbEntity
  8
Layer_1
 62
5
100
AcDbSpline
 70
8
 71
3
 72
8
 73
4
 74
0
 40
0
 40
0
 40
0
 40
0
 40
1
 40
1
 40
1
 40
1
 10
505.909891
 20
-19.671270
 30
0.0
 10
506.492182
 20
-19.722317
 30
0.0
 10
506.922875
 20
-20.235685
 30
0.0
 10
506.871934
 20
-20.817986
 30
0.0
  0
LINE
  5
120
100
AcDbEntity
  8
Layer_1
 62
5
100
AcDbLine
 10
506.871934
 20
-20.817986
 30
0.0
 11
501.961190
 21
-76.948108
 31
0.0
  0
SPLINE
  5
121
100
AcDbEntity
  8
Layer_1
 62
5
100
AcDbSpline
 70
8
 71
3
 72
8
 73
4
 74
0
 40
0
 40
0
 40
0
 40
0
 40
1
 40
1
 40
1
 40
1
 10
501.961190
 20
-76.948108
 30
0.0
 10
501.937495
 20
-77.218966
 30
0.0
 10
502.028596
 20
-77.487331
 30
0.0
 10
502.212288
 20
-77.687787
 30
0.0
  0
SPLINE
  5
122
100
AcDbEntity
  8
Layer_1
 62
5
100
AcDbSpline
 70
8
 71
3
 72
8
 73
4
 74
0
 40
0
 40
0
 40
0
 40
0
 40
1
 40
1
 40
1
 40
1
 10
502.212288
 20
-77.687787
 30
0.0
 10
502.395980
 20
-77.888244
 30
0.0
 10
502.655388
 20
-78.002378
 30
0.0
 10
502.927281
 20
-78.002369
 30
0.0
  0
LINE
  5
123
100
AcDbEntity
  8
Layer_1
 62
5
100
AcDbLine
 10
502.927281
 20
-78.002369
 30
0.0
 11
563.304797
 21
-78.000204
 31
0.0
  0
SPLINE
  5
124
100
AcDbEntity
  8
Layer_1
 62
5
100
AcDbSpline
 70
8
 71
3
 72
8
 73
4
 74
0
 40
0
 40
0
 40
0
 40
0
 40
1
 40
1
 40
1
 40
1
 10
563.304797
 20
-78.000204
 30
0.0
 10
563.576699
 20
-78.000194
 30
0.0
 10
563.836109
 20
-77.886043
 30
0.0
 10
564.019799
 20
-77.685573
 30
0.0
  0
SPLINE
  5
125
100
AcDbEntity
  8
Layer_1
 62
5
100
AcDbSpline
 70
8
 71
3
 72
8
 73
4
 74
0
 40
0
 40
0
 40
0
 40
0
 40
1
 40
1
 40
1
 40
1
 10
564.019799
 20
-77.685573
 30
0.0
 10
564.203490
 20
-77.485103
 30
0.0
 10
564.294589
 20
-77.216728
 30
0.0
 10
564.270891
 20
-76.945861
 30
0.0
  0
LINE
  5
126
100
AcDbEntity
  8
Layer_1
 62
5
100
AcDbLine
 10
564.270891
 20
-76.945861
 30
0.0
 11
559.452823
 21
-21.875092
 31
0.0
  0
SPLINE
  5
127
100
AcDbEntity
  8
Layer_1
 62
5
100
AcDbSpline
 70
8
 71
3
 72
8
 73
4
 74
0
 40
0
 40
0
 40
0
 40
0
 40
1
 40
1
 40
1
 40
1
 10
559.452823
 20
-21.875092
 30
0.0
 10
559.401881
 20
-21.292792
 30
0.0
 10
559.832580
 20
-20.779425
 30
0.0
 10
560.414873
 20
-20.728391
 30
0.0
  0
LINE
  5
128
100
AcDbEntity
  8
Layer_1
 62
5
100
AcDbLine
 10
560.414873
 20
-20.728391
 30
0.0
 11
563.293767
 21
-20.476078
 31
0.0
  0
SPLINE
  5
129
100
AcDbEntity
  8
Layer_1
 62
5
100
AcDbSpline
 70
8
 71
3
 72
8
 73
4
 74
0
 40
0
 40
0
 40
0
 40
0
 40
1
 40
1
 40
1
 40
1
 10
563.293767
 20
-20.476078
 30
0.0
 10
563.876035
 20
-20.425046
 30
0.0
 10
564.820083
 20
-20.342382
 30
0.0
 10
565.402359
 20
-20.291440
 30
0.0
  0
SPLINE
  5
12a
100
AcDbEntity
  8
Layer_1
 62
5
100
AcDbSpline
 70
8
 71
3
 72
8
 73
4
 74
0
 40
0
 40
0
 40
0
 40
0
 40
1
 40
1
 40
1
 40
1
 10
565.402359
 20
-20.291440
 30
0.0
 10
566.281341
 20
-20.214539
 30
0.0
 10
567.160314
 20
-20.137649
 30
0.0
 10
568.039296
 20
-20.060738
 30
0.0
  0
SPLINE
  5
12b
100
AcDbEntity
  8
Layer_1
 62
5
100
AcDbSpline
 70
8
 71
3
 72
8
 73
4
 74
0
 40
0
 40
0
 40
0
 40
0
 40
1
 40
1
 40
1
 40
1
 10
568.039296
 20
-20.060738
 30
0.0
 10
568.621572
 20
-20.009795
 30
0.0
 10
569.134896
 20
-20.440525
 30
0.0
 10
569.185838
 20
-21.022801
 30
0.0
  0
LINE
  5
12c
100
AcDbEntity
  8
Layer_1
 62
5
100
AcDbLine
 10
569.185838
 20
-21.022801
 30
0.0
 11
570.661745
 21
-37.892491
 31
0.0
  0
LINE
  5
12d
100
AcDbEntity
  8
Layer_1
 62
5
100
AcDbLine
 10
570.661745
 20
-37.892491
 30
0.0
 11
572.229527
 21
-55.812321
 31
0.0
  0
LINE
  5
12e
100
AcDbEntity
  8
Layer_1
 62
5
100
AcDbLine
 10
572.229527
 20
-55.812321
 30
0.0
 11
573.982277
 21
-75.846344
 31
0.0
  0
SPLINE
  5
12f
100
AcDbEntity
  8
Layer_1
 62
5
100
AcDbSpline
 70
8
 71
3
 72
8
 73
4
 74
0
 40
0
 40
0
 40
0
 40
0
 40
1
 40
1
 40
1
 40
1
 10
573.982277
 20
-75.846344
 30
0.0
 10
574.033221
 20
-76.428618
 30
0.0
 10
574.546544
 20
-76.859348
 30
0.0
 10
575.128819
 20
-76.808407
 30
0.0
  0
LINE
  5
130
100
AcDbEntity
  8
Layer_1
 62
5
100
AcDbLine
 10
575.128819
 20
-76.808407
 30
0.0
 11
578.007025
 21
-76.556597
 31
0.0
  0
SPLINE
  5
131
100
AcDbEntity
  8
Layer_1
 62
5
100
AcDbSpline
 70
8
 71
3
 72
8
 73
4
 74
0
 40
0
 40
0
 40
0
 40
0
 40
1
 40
1
 40
1
 40
1
 10
578.007025
 20
-76.556597
 30
0.0
 10
578.709893
 20
-76.495105
 30
0.0
 10
579.412765
 20
-76.433652
 30
0.0
 10
580.115641
 20
-76.372237
 30
0.0
  0
LINE
  5
132
100
AcDbEntity
  8
Layer_1
 62
5
100
AcDbLine
 10
580.115641
 20
-76.372237
 30
0.0
 11
614.331492
 21
-73.382753
 31
0.0
  0
SPLINE
  5
133
100
AcDbEntity
  8
Layer_1
 62
5
100
AcDbSpline
 70
8
 71
3
 72
8
 73
4
 74
0
 40
0
 40
0
 40
0
 40
0
 40
1
 40
1
 40
1
 40
1
 10
614.331492
 20
-73.382753
 30
0.0
 10
614.913774
 20
-73.331880
 30
0.0
 10
615.857832
 20
-73.249336
 30
0.0
 10
616.440105
 20
-73.198364
 30
0.0
  0
SPLINE
  5
134
100
AcDbEntity
  8
Layer_1
 62
5
100
AcDbSpline
 70
8
 71
3
 72
8
 73
4
 74
0
 40
0
 40
0
 40
0
 40
0
 40
1
 40
1
 40
1
 40
1
 10
616.440105
 20
-73.198364
 30
0.0
 10
630.616540
 20
-71.957364
 30
0.0
 10
644.791770
 20
-70.702355
 30
0.0
 10
658.970122
 20
-69.483492
 30
0.0
  0
SPLINE
  5
135
100
AcDbEntity
  8
Layer_1
 62
5
100
AcDbSpline
 70
8
 71
3
 72
8
 73
4
 74
0
 40
0
 40
0
 40
0
 40
0
 40
1
 40
1
 40
1
 40
1
 10
658.970122
 20
-69.483492
 30
0.0
 10
659.552466
 20
-69.433447
 30
0.0
 10
660.496703
 20
-69.352945
 30
0.0
 10
661.079066
 20
-69.302999
 30
0.0
  0
LINE
  5
136
100
AcDbEntity
  8
Layer_1
 62
5
100
AcDbLine
 10
661.079066
 20
-69.302999
 30
0.0
 11
695.301800
 21
-66.392416
 31
0.0
  0
SPLINE
  5
137
100
AcDbEntity
  8
Layer_1
 62
5
100
AcDbSpline
 70
8
 71
3
 72
8
 73
4
 74
0
 40
0
 40
0
 40
0
 40
0
 40
1
 40
1
 40
1
 40
1
 10
695.301800
 20
-66.392416
 30
0.0
 10
696.004814
 20
-66.332603
 30
0.0
 10
696.707770
 20
-66.272106
 30
0.0
 10
697.410667
 20
-66.210925
 30
0.0
  0
SPLINE
  5
138
100
AcDbEntity
  8
Layer_1
 62
5
100
AcDbSpline
 70
8
 71
3
 72
8
 73
4
 74
0
 40
0
 40
0
 40
0
 40
0
 40
1
 40
1
 40
1
 40
1
 10
697.410667
 20
-66.210925
 30
0.0
 10
697.985316
 20
-66.160931
 30
0.0
 10
698.409879
 20
-65.648367
 30
0.0
 10
698.358976
 20
-65.066088
 30
0.0
  0
SPLINE
  5
139
100
AcDbEntity
  8
Layer_1
 62
5
100
AcDbSpline
 70
8
 71
3
 72
8
 73
4
 74
0
 40
0
 40
0
 40
0
 40
0
 40
1
 40
1
 40
1
 40
1
 10
698.358976
 20
-65.066088
 30
0.0
 10
696.180145
 20
-40.138981
 30
0.0
 10
693.975814
 20
-14.931890
 30
0.0
 10
691.793807
 20
9.997088
 30
0.0
  0
SPLINE
  5
13a
100
AcDbEntity
  8
Layer_1
 62
5
100
AcDbSpline
 70
8
 71
3
 72
8
 73
4
 74
0
 40
0
 40
0
 40
0
 40
0
 40
1
 40
1
 40
1
 40
1
 10
691.793807
 20
9.997088
 30
0.0
 10
691.742845
 20
10.579362
 30
0.0
 10
691.229540
 20
11.009642
 30
0.0
 10
690.647313
 20
10.958141
 30
0.0
  0
SPLINE
  5
13b
100
AcDbEntity
  8
Layer_1
 62
5
100
AcDbSpline
 70
8
 71
3
 72
8
 73
4
 74
0
 40
0
 40
0
 40
0
 40
0
 40
1
 40
1
 40
1
 40
1
 10
690.647313
 20
10.958141
 30
0.0
 10
689.948453
 20
10.896327
 30
0.0
 10
689.249652
 20
10.833851
 30
0.0
 10
688.550911
 20
10.770715
 30
0.0
  0
LINE
  5
13c
100
AcDbEntity
  8
Layer_1
 62
5
100
AcDbLine
 10
688.550911
 20
10.770715
 30
0.0
 11
685.718839
 21
10.514910
 31
0.0
  0
SPLINE
  5
13d
100
AcDbEntity
  8
Layer_1
 62
5
100
AcDbSpline
 70
8
 71
3
 72
8
 73
4
 74
0
 40
0
 40
0
 40
0
 40
0
 40
1
 40
1
 40
1
 40
1
 10
685.718839
 20
10.514910
 30
0.0
 10
685.016152
 20
10.451357
 30
0.0
 10
684.313400
 20
10.388536
 30
0.0
 10
683.610582
 20
10.326446
 30
0.0
  0
LINE
  5
13e
100
AcDbEntity
  8
Layer_1
 62
5
100
AcDbLine
 10
683.610582
 20
10.326446
 30
0.0
 11
568.372173
 21
0.156056
 31
0.0
  0
SPLINE
  5
13f
100
AcDbEntity
  8
Layer_1
 62
5
100
AcDbSpline
 70
8
 71
3
 72
8
 73
4
 74
0
 40
0
 40
0
 40
0
 40
0
 40
1
 40
1
 40
1
 40
1
 10
568.372173
 20
0.156056
 30
0.0
 10
567.669351
 20
0.094029
 30
0.0
 10
566.966508
 20
0.032250
 30
0.0
 10
566.263643
 20
-0.029280
 30
0.0
  0
LINE
  5
140
100
AcDbEntity
  8
Layer_1
 62
5
100
AcDbLine
 10
566.263643
 20
-0.029280
 30
0.0
 11
566.165119
 21
-0.037900
 31
0.0
  0
SPLINE
  5
141
100
AcDbEntity
  8
Layer_1
 62
5
100
AcDbSpline
 70
8
 71
3
 72
8
 73
4
 74
0
 40
0
 40
0
 40
0
 40
0
 40
1
 40
1
 40
1
 40
1
 10
566.165119
 20
-0.037900
 30
0.0
 10
565.582846
 20
-0.088872
 30
0.0
 10
564.638741
 20
-0.170889
 30
0.0
 10
564.056426
 20
-0.221383
 30
0.0
  0
SPLINE
  5
142
100
AcDbEntity
  8
Layer_1
 62
5
100
AcDbSpline
 70
8
 71
3
 72
8
 73
4
 74
0
 40
0
 40
0
 40
0
 40
0
 40
1
 40
1
 40
1
 40
1
 10
564.056426
 20
-0.221383
 30
0.0
 10
563.920693
 20
-0.233117
 30
0.0
 10
563.784951
 20
-0.244873
 30
0.0
 10
563.649219
 20
-0.256637
 30
0.0
  0
SPLINE
  5
143
100
AcDbEntity
  8
Layer_1
 62
5
100
AcDbSpline
 70
8
 71
3
 72
8
 73
4
 74
0
 40
0
 40
0
 40
0
 40
0
 40
1
 40
1
 40
1
 40
1
 10
563.649219
 20
-0.256637
 30
0.0
 10
563.066903
 20
-0.307122
 30
0.0
 10
562.122875
 20
-0.390005
 30
0.0
 10
561.540630
 20
-0.441296
 30
0.0
  0
LINE
  5
144
100
AcDbEntity
  8
Layer_1
 62
5
100
AcDbLine
 10
561.540630
 20
-0.441296
 30
0.0
 11
558.662269
 21
-0.695127
 31
0.0
  0
SPLINE
  5
145
100
AcDbEntity
  8
Layer_1
 62
5
100
AcDbSpline
 70
8
 71
3
 72
8
 73
4
 74
0
 40
0
 40
0
 40
0
 40
0
 40
1
 40
1
 40
1
 40
1
 10
558.662269
 20
-0.695127
 30
0.0
 10
558.382723
 20
-0.719752
 30
0.0
 10
558.104850
 20
-0.632276
 30
0.0
 10
557.889822
 20
-0.451955
 30
0.0
  0
SPLINE
  5
146
100
AcDbEntity
  8
Layer_1
 62
5
100
AcDbSpline
 70
8
 71
3
 72
8
 73
4
 74
0
 40
0
 40
0
 40
0
 40
0
 40
1
 40
1
 40
1
 40
1
 10
557.889822
 20
-0.451955
 30
0.0
 10
557.674794
 20
-0.271634
 30
0.0
 10
557.540240
 20
-0.013253
 30
0.0
 10
557.515782
 20
0.266308
 30
0.0
  0
LINE
  5
147
100
AcDbEntity
  8
Layer_1
 62
5
100
AcDbLine
 10
557.515782
 20
0.266308
 30
0.0
 11
557.457356
 21
0.934117
 31
0.0
  0
SPLINE
  5
148
100
AcDbEntity
  8
Layer_1
 62
5
100
AcDbSpline
 70
8
 71
3
 72
8
 73
4
 74
0
 40
0
 40
0
 40
0
 40
0
 40
1
 40
1
 40
1
 40
1
 10
557.457356
 20
0.934117
 30
0.0
 10
557.405160
 20
1.530718
 30
0.0
 10
556.905665
 20
1.988490
 30
0.0
 10
556.306786
 20
1.988581
 30
0.0
  0
LINE
  5
149
100
AcDbEntity
  8
Layer_1
 62
5
100
AcDbLine
 10
556.306786
 20
1.988581
 30
0.0
 11
509.926310
 21
1.995513
 31
0.0
  0
SPLINE
  5
14a
100
AcDbEntity
  8
Layer_1
 62
5
100
AcDbSpline
 70
8
 71
3
 72
8
 73
4
 74
0
 40
0
 40
0
 40
0
 40
0
 40
1
 40
1
 40
1
 40
1
 10
509.926310
 20
1.995513
 30
0.0
 10
509.327479
 20
1.995603
 30
0.0
 10
508.827931
 20
1.537924
 30
0.0
 10
508.775736
 20
0.941372
 30
0.0
  0
LINE
  5
14b
100
AcDbEntity
  8
Layer_1
 62
5
100
AcDbLine
 10
508.775736
 20
0.941372
 30
0.0
 11
508.775647
 21
0.941465
 31
0.0
  0
LINE
  5
14c
100
AcDbEntity
  8
Layer_1
 62
5
100
AcDbLine
 10
556.908180
 20
17.545374
 30
0.0
 11
558.250769
 21
18.718453
 31
0.0
  0
SPLINE
  5
14d
100
AcDbEntity
  8
Layer_1
 62
5
100
AcDbSpline
 70
8
 71
3
 72
8
 73
4
 74
0
 40
0
 40
0
 40
0
 40
0
 40
1
 40
1
 40
1
 40
1
 10
558.250769
 20
18.718453
 30
0.0
 10
558.768651
 20
19.170941
 30
0.0
 10
559.416959
 20
19.447100
 30
0.0
 10
560.102053
 20
19.507043
 30
0.0
  0
LINE
  5
14e
100
AcDbEntity
  8
Layer_1
 62
5
100
AcDbLine
 10
560.102053
 20
19.507043
 30
0.0
 11
655.053401
 21
27.815164
 31
0.0
  0
SPLINE
  5
14f
100
AcDbEntity
  8
Layer_1
 62
5
100
AcDbSpline
 70
8
 71
3
 72
8
 73
4
 74
0
 40
0
 40
0
 40
0
 40
0
 40
1
 40
1
 40
1
 40
1
 10
655.053401
 20
27.815164
 30
0.0
 10
655.756269
 20
27.876664
 30
0.0
 10
656.459137
 20
27.938167
 30
0.0
 10
657.162004
 20
27.999673
 30
0.0
  0
LINE
  5
150
100
AcDbEntity
  8
Layer_1
 62
5
100
AcDbLine
 10
657.162004
 20
27.999673
 30
0.0
 11
674.374159
 21
29.505852
 31
0.0
  0
SPLINE
  5
151
100
AcDbEntity
  8
Layer_1
 62
5
100
AcDbSpline
 70
8
 71
3
 72
8
 73
4
 74
0
 40
0
 40
0
 40
0
 40
0
 40
1
 40
1
 40
1
 40
1
 10
674.374159
 20
29.505852
 30
0.0
 10
675.077027
 20
29.567357
 30
0.0
 10
675.779894
 20
29.628860
 30
0.0
 10
676.482762
 20
29.690361
 30
0.0
  0
LINE
  5
152
100
AcDbEntity
  8
Layer_1
 62
5
100
AcDbLine
 10
676.482762
 20
29.690361
 30
0.0
 11
690.675649
 21
30.932289
 31
0.0
  0
SPLINE
  5
153
100
AcDbEntity
  8
Layer_1
 62
5
100
AcDbSpline
 70
8
 71
3
 72
8
 73
4
 74
0
 40
0
 40
0
 40
0
 40
0
 40
1
 40
1
 40
1
 40
1
 10
690.675649
 20
30.932289
 30
0.0
 10
691.355313
 20
30.991760
 30
0.0
 10
692.033456
 20
30.802465
 30
0.0
 10
692.584060
 20
30.399581
 30
0.0
  0
LINE
  5
154
100
AcDbEntity
  8
Layer_1
 62
5
100
AcDbLine
 10
692.584060
 20
30.399581
 30
0.0
 11
694.337054
 21
29.116893
 31
0.0
  0
SPLINE
  5
155
100
AcDbEntity
  8
Layer_1
 62
5
100
AcDbSpline
 70
8
 71
3
 72
8
 73
4
 74
0
 40
0
 40
0
 40
0
 40
0
 40
1
 40
1
 40
1
 40
1
 10
694.337054
 20
29.116893
 30
0.0
 10
694.879834
 20
28.719737
 30
0.0
 10
695.224783
 20
28.107637
 30
0.0
 10
695.283403
 20
27.437633
 30
0.0
  0
LINE
  5
156
100
AcDbEntity
  8
Layer_1
 62
5
100
AcDbLine
 10
695.283403
 20
27.437633
 30
0.0
 11
704.153830
 21
-73.951816
 31
0.0
  0
SPLINE
  5
157
100
AcDbEntity
  8
Layer_1
 62
5
100
AcDbSpline
 70
8
 71
3
 72
8
 73
4
 74
0
 40
0
 40
0
 40
0
 40
0
 40
1
 40
1
 40
1
 40
1
 10
704.153830
 20
-73.951816
 30
0.0
 10
704.212730
 20
-74.625061
 30
0.0
 10
703.993073
 20
-75.293021
 30
0.0
 10
703.546089
 20
-75.799907
 30
0.0
  0
LINE
  5
158
100
AcDbEntity
  8
Layer_1
 62
5
100
AcDbLine
 10
703.546089
 20
-75.799907
 30
0.0
 11
702.006014
 21
-77.546379
 31
0.0
  0
SPLINE
  5
159
100
AcDbEntity
  8
Layer_1
 62
5
100
AcDbSpline
 70
8
 71
3
 72
8
 73
4
 74
0
 40
0
 40
0
 40
0
 40
0
 40
1
 40
1
 40
1
 40
1
 10
702.006014
 20
-77.546379
 30
0.0
 10
701.556653
 20
-78.055961
 30
0.0
 10
700.928561
 20
-78.373256
 30
0.0
 10
700.251746
 20
-78.432586
 30
0.0
  0
LINE
  5
15a
100
AcDbEntity
  8
Layer_1
 62
5
100
AcDbLine
 10
700.251746
 20
-78.432586
 30
0.0
 11
684.733336
 21
-79.793282
 31
0.0
  0
SPLINE
  5
15b
100
AcDbEntity
  8
Layer_1
 62
5
100
AcDbSpline
 70
8
 71
3
 72
8
 73
4
 74
0
 40
0
 40
0
 40
0
 40
0
 40
1
 40
1
 40
1
 40
1
 10
684.733336
 20
-79.793282
 30
0.0
 10
684.030478
 20
-79.854896
 30
0.0
 10
683.327620
 20
-79.916505
 30
0.0
 10
682.624761
 20
-79.978110
 30
0.0
  0
LINE
  5
15c
100
AcDbEntity
  8
Layer_1
 62
5
100
AcDbLine
 10
682.624761
 20
-79.978110
 30
0.0
 11
665.676493
 21
-81.463903
 31
0.0
  0
SPLINE
  5
15d
100
AcDbEntity
  8
Layer_1
 62
5
100
AcDbSpline
 70
8
 71
3
 72
8
 73
4
 74
0
 40
0
 40
0
 40
0
 40
0
 40
1
 40
1
 40
1
 40
1
 10
665.676493
 20
-81.463903
 30
0.0
 10
664.973635
 20
-81.525507
 30
0.0
 10
664.270775
 20
-81.587100
 30
0.0
 10
663.567914
 20
-81.648681
 30
0.0
  0
LINE
  5
15e
100
AcDbEntity
  8
Layer_1
 62
5
100
AcDbLine
 10
663.567914
 20
-81.648681
 30
0.0
 11
569.669745
 21
-89.875350
 31
0.0
  0
SPLINE
  5
15f
100
AcDbEntity
  8
Layer_1
 62
5
100
AcDbSpline
 70
8
 71
3
 72
8
 73
4
 74
0
 40
0
 40
0
 40
0
 40
0
 40
1
 40
1
 40
1
 40
1
 10
569.669745
 20
-89.875350
 30
0.0
 10
568.993253
 20
-89.934618
 30
0.0
 10
568.320064
 20
-89.729866
 30
0.0
 10
567.791137
 20
-89.303968
 30
0.0
  0
LINE
  5
160
100
AcDbEntity
  8
Layer_1
 62
5
100
AcDbLine
 10
567.791137
 20
-89.303968
 30
0.0
 11
565.991558
 21
-87.854937
 31
0.0
  0
SPLINE
  5
161
100
AcDbEntity
  8
Layer_1
 62
5
100
AcDbSpline
 70
8
 71
3
 72
8
 73
4
 74
0
 40
0
 40
0
 40
0
 40
0
 40
1
 40
1
 40
1
 40
1
 10
565.991558
 20
-87.854937
 30
0.0
 10
565.458076
 20
-87.425372
 30
0.0
 10
564.793840
 20
-87.190971
 30
0.0
 10
564.108910
 20
-87.190573
 30
0.0
  0
LINE
  5
162
100
AcDbEntity
  8
Layer_1
 62
5
100
AcDbLine
 10
564.108910
 20
-87.190573
 30
0.0
 11
502.126725
 21
-87.154720
 31
0.0
  0
SPLINE
  5
163
100
AcDbEntity
  8
Layer_1
 62
5
100
AcDbSpline
 70
8
 71
3
 72
8
 73
4
 74
0
 40
0
 40
0
 40
0
 40
0
 40
1
 40
1
 40
1
 40
1
 10
502.126725
 20
-87.154720
 30
0.0
 10
501.442264
 20
-87.154323
 30
0.0
 10
500.778691
 20
-87.390445
 30
0.0
 10
500.248331
 20
-87.823116
 30
0.0
  0
LINE
  5
164
100
AcDbEntity
  8
Layer_1
 62
5
100
AcDbLine
 10
500.248331
 20
-87.823116
 30
0.0
 11
498.455504
 21
-89.285727
 31
0.0
  0
SPLINE
  5
165
100
AcDbEntity
  8
Layer_1
 62
5
100
AcDbSpline
 70
8
 71
3
 72
8
 73
4
 74
0
 40
0
 40
0
 40
0
 40
0
 40
1
 40
1
 40
1
 40
1
 10
498.455504
 20
-89.285727
 30
0.0
 10
497.929709
 20
-89.714672
 30
0.0
 10
497.257156
 20
-89.921261
 30
0.0
 10
496.581230
 20
-89.861451
 30
0.0
  0
LINE
  5
166
100
AcDbEntity
  8
Layer_1
 62
5
100
AcDbLine
 10
496.581230
 20
-89.861451
 30
0.0
 11
475.876643
 21
-88.029454
 31
0.0
  0
SPLINE
  5
167
100
AcDbEntity
  8
Layer_1
 62
5
100
AcDbSpline
 70
8
 71
3
 72
8
 73
4
 74
0
 40
0
 40
0
 40
0
 40
0
 40
1
 40
1
 40
1
 40
1
 10
475.876643
 20
-88.029454
 30
0.0
 10
475.294417
 20
-87.977932
 30
0.0
 10
474.350370
 20
-87.895266
 30
0.0
 10
473.768055
 20
-87.844786
 30
0.0
  0
SPLINE
  5
168
100
AcDbEntity
  8
Layer_1
 62
5
100
AcDbSpline
 70
8
 71
3
 72
8
 73
4
 74
0
 40
0
 40
0
 40
0
 40
0
 40
1
 40
1
 40
1
 40
1
 10
473.768055
 20
-87.844786
 30
0.0
 10
456.447430
 20
-86.343174
 30
0.0
 10
440.434009
 20
-84.936774
 30
0.0
 10
424.565118
 20
-83.544501
 30
0.0
  0
SPLINE
  5
169
100
AcDbEntity
  8
Layer_1
 62
5
100
AcDbSpline
 70
8
 71
3
 72
8
 73
4
 74
0
 40
0
 40
0
 40
0
 40
0
 40
1
 40
1
 40
1
 40
1
 10
424.565118
 20
-83.544501
 30
0.0
 10
423.982850
 20
-83.493415
 30
0.0
 10
423.038815
 20
-83.410658
 30
0.0
 10
422.456544
 20
-83.359652
 30
0.0
  0
LINE
  5
16a
100
AcDbEntity
  8
Layer_1
 62
5
100
AcDbLine
 10
422.456544
 20
-83.359652
 30
0.0
 11
406.876189
 21
-81.994776
 31
0.0
  0
SPLINE
  5
16b
100
AcDbEntity
  8
Layer_1
 62
5
100
AcDbSpline
 70
8
 71
3
 72
8
 73
4
 74
0
 40
0
 40
0
 40
0
 40
0
 40
1
 40
1
 40
1
 40
1
 10
406.876189
 20
-81.994776
 30
0.0
 10
406.293918
 20
-81.943770
 30
0.0
 10
405.349865
 20
-81.861155
 30
0.0
 10
404.767584
 20
-81.810271
 30
0.0
  0
SPLINE
  5
16c
100
AcDbEntity
  8
Layer_1
 62
5
100
AcDbSpline
 70
8
 71
3
 72
8
 73
4
 74
0
 40
0
 40
0
 40
0
 40
0
 40
1
 40
1
 40
1
 40
1
 10
404.767584
 20
-81.810271
 30
0.0
 10
392.225774
 20
-80.714251
 30
0.0
 10
379.485699
 20
-79.607660
 30
0.0
 10
365.980882
 20
-78.452065
 30
0.0
  0
SPLINE
  5
16d
100
AcDbEntity
  8
Layer_1
 62
5
100
AcDbSpline
 70
8
 71
3
 72
8
 73
4
 74
0
 40
0
 40
0
 40
0
 40
0
 40
1
 40
1
 40
1
 40
1
 10
365.980882
 20
-78.452065
 30
0.0
 10
365.398503
 20
-78.402233
 30
0.0
 10
364.611995
 20
-78.007370
 30
0.0
 10
364.224166
 20
-77.570067
 30
0.0
  0
LINE
  5
16e
100
AcDbEntity
  8
Layer_1
 62
5
100
AcDbLine
 10
364.224166
 20
-77.570067
 30
0.0
 11
362.652517
 21
-75.797972
 31
0.0
  0
SPLINE
  5
16f
100
AcDbEntity
  8
Layer_1
 62
5
100
AcDbSpline
 70
8
 71
3
 72
8
 73
4
 74
0
 40
0
 40
0
 40
0
 40
0
 40
1
 40
1
 40
1
 40
1
 10
362.652517
 20
-75.797972
 30
0.0
 10
362.204236
 20
-75.292514
 30
0.0
 10
361.983632
 20
-74.624900
 30
0.0
 10
362.042497
 20
-73.951864
 30
0.0
  0
LINE
  5
170
100
AcDbEntity
  8
Layer_1
 62
5
100
AcDbLine
 10
362.042497
 20
-73.951864
 30
0.0
 11
370.910545
 21
27.445445
 31
0.0
  0
SPLINE
  5
171
100
AcDbEntity
  8
Layer_1
 62
5
100
AcDbSpline
 70
8
 71
3
 72
8
 73
4
 74
0
 40
0
 40
0
 40
0
 40
0
 40
1
 40
1
 40
1
 40
1
 10
370.910545
 20
27.445445
 30
0.0
 10
370.969111
 20
28.115066
 30
0.0
 10
371.315494
 20
28.726281
 30
0.0
 10
371.859869
 20
29.120589
 30
0.0
  0
LINE
  5
172
100
AcDbEntity
  8
Layer_1
 62
5
100
AcDbLine
 10
371.859869
 20
29.120589
 30
0.0
 11
373.639559
 21
30.409684
 31
0.0
  0
SPLINE
  5
173
100
AcDbEntity
  8
Layer_1
 62
5
100
AcDbSpline
 70
8
 71
3
 72
8
 73
4
 74
0
 40
0
 40
0
 40
0
 40
0
 40
1
 40
1
 40
1
 40
1
 10
373.639559
 20
30.409684
 30
0.0
 10
374.192357
 20
30.810096
 30
0.0
 10
374.870994
 20
30.997762
 30
0.0
 10
375.550975
 20
30.938256
 30
0.0
  0
LINE
  5
174
100
AcDbEntity
  8
Layer_1
 62
5
100
AcDbLine
 10
375.550975
 20
30.938256
 30
0.0
 11
506.165140
 21
19.508036
 31
0.0
  0
SPLINE
  5
175
100
AcDbEntity
  8
Layer_1
 62
5
100
AcDbSpline
 70
8
 71
3
 72
8
 73
4
 74
0
 40
0
 40
0
 40
0
 40
0
 40
1
 40
1
 40
1
 40
1
 10
506.165140
 20
19.508036
 30
0.0
 10
506.849899
 20
19.448110
 30
0.0
 10
507.497369
 20
19.170078
 30
0.0
 10
508.012363
 20
18.714813
 30
0.0
  0
LINE
  5
176
100
AcDbEntity
  8
Layer_1
 62
5
100
AcDbLine
 10
508.012363
 20
18.714813
 30
0.0
 11
509.328300
 21
17.551508
 31
0.0
  0
SPLINE
  5
177
100
AcDbEntity
  8
Layer_1
 62
5
100
AcDbSpline
 70
8
 71
3
 72
8
 73
4
 74
0
 40
0
 40
0
 40
0
 40
0
 40
1
 40
1
 40
1
 40
1
 10
509.328300
 20
17.551508
 30
0.0
 10
509.839216
 20
17.099849
 30
0.0
 10
510.497618
 20
16.850541
 30
0.0
 10
511.179550
 20
16.850517
 30
0.0
  0
LINE
  5
178
100
AcDbEntity
  8
Layer_1
 62
5
100
AcDbLine
 10
511.179550
 20
16.850517
 30
0.0
 11
555.052868
 21
16.849064
 31
0.0
  0
SPLINE
  5
179
100
AcDbEntity
  8
Layer_1
 62
5
100
AcDbSpline
 70
8
 71
3
 72
8
 73
4
 74
0
 40
0
 40
0
 40
0
 40
0
 40
1
 40
1
 40
1
 40
1
 10
555.052868
 20
16.849064
 30
0.0
 10
555.735184
 20
16.849041
 30
0.0
 10
556.394362
 20
17.096435
 30
0.0
 10
556.908180
 20
17.545374
 30
0.0
  0
LINE
  5
17a
100
AcDbEntity
  8
Layer_1
 62
5
100
AcDbLine
 10
556.908180
 20
17.545374
 30
0.0
 11
556.908180
 21
17.545374
 31
0.0
  0
SPLINE
  5
17b
100
AcDbEntity
  8
Layer_1
 62
5
100
AcDbSpline
 70
8
 71
3
 72
8
 73
4
 74
0
 40
0
 40
0
 40
0
 40
0
 40
1
 40
1
 40
1
 40
1
 10
368.081353
 20
-70.280248
 30
0.0
 10
367.450778
 20
-70.225080
 30
0.0
 10
366.849061
 20
-70.555193
 30
0.0
 10
366.556782
 20
-71.116656
 30
0.0
  0
SPLINE
  5
17c
100
AcDbEntity
  8
Layer_1
 62
5
100
AcDbSpline
 70
8
 71
3
 72
8
 73
4
 74
0
 40
0
 40
0
 40
0
 40
0
 40
1
 40
1
 40
1
 40
1
 10
366.556782
 20
-71.116656
 30
0.0
 10
366.264503
 20
-71.678120
 30
0.0
 10
366.339221
 20
-72.360363
 30
0.0
 10
366.746095
 20
-72.845256
 30
0.0
  0
SPLINE
  5
17d
100
AcDbEntity
  8
Layer_1
 62
5
100
AcDbSpline
 70
8
 71
3
 72
8
 73
4
 74
0
 40
0
 40
0
 40
0
 40
0
 40
1
 40
1
 40
1
 40
1
 10
366.746095
 20
-72.845256
 30
0.0
 10
367.152969
 20
-73.330150
 30
0.0
 10
367.811872
 20
-73.522203
 30
0.0
 10
368.415559
 20
-73.331861
 30
0.0
  0
SPLINE
  5
17e
100
AcDbEntity
  8
Layer_1
 62
5
100
AcDbSpline
 70
8
 71
3
 72
8
 73
4
 74
0
 40
0
 40
0
 40
0
 40
0
 40
1
 40
1
 40
1
 40
1
 10
368.415559
 20
-73.331861
 30
0.0
 10
369.019247
 20
-73.141519
 30
0.0
 10
369.448832
 20
-72.606267
 30
0.0
 10
369.504000
 20
-71.975692
 30
0.0
  0
SPLINE
  5
17f
100
AcDbEntity
  8
Layer_1
 62
5
100
AcDbSpline
 70
8
 71
3
 72
8
 73
4
 74
0
 40
0
 40
0
 40
0
 40
0
 40
1
 40
1
 40
1
 40
1
 10
369.504000
 20
-71.975692
 30
0.0
 10
369.579331
 20
-71.114655
 30
0.0
 10
368.942390
 20
-70.355579
 30
0.0
 10
368.081353
 20
-70.280248
 30
0.0
  0
LINE
  5
180
100
AcDbEntity
  8
Layer_1
 62
5
100
AcDbLine
 10
368.081353
 20
-70.280248
 30
0.0
 11
368.081353
 21
-70.280248
 31
0.0
  0
SPLINE
  5
181
100
AcDbEntity
  8
Layer_1
 62
5
100
AcDbSpline
 70
8
 71
3
 72
8
 73
4
 74
0
 40
0
 40
0
 40
0
 40
0
 40
1
 40
1
 40
1
 40
1
 10
375.823696
 20
18.215211
 30
0.0
 10
375.193122
 20
18.270379
 30
0.0
 10
374.591405
 20
17.940266
 30
0.0
 10
374.299125
 20
17.378802
 30
0.0
  0
SPLINE
  5
182
100
AcDbEntity
  8
Layer_1
 62
5
100
AcDbSpline
 70
8
 71
3
 72
8
 73
4
 74
0
 40
0
 40
0
 40
0
 40
0
 40
1
 40
1
 40
1
 40
1
 10
374.299125
 20
17.378802
 30
0.0
 10
374.006846
 20
16.817339
 30
0.0
 10
374.081564
 20
16.135096
 30
0.0
 10
374.488438
 20
15.650202
 30
0.0
  0
SPLINE
  5
183
100
AcDbEntity
  8
Layer_1
 62
5
100
AcDbSpline
 70
8
 71
3
 72
8
 73
4
 74
0
 40
0
 40
0
 40
0
 40
0
 40
1
 40
1
 40
1
 40
1
 10
374.488438
 20
15.650202
 30
0.0
 10
374.895312
 20
15.165309
 30
0.0
 10
375.554215
 20
14.973256
 30
0.0
 10
376.157903
 20
15.163598
 30
0.0
  0
SPLINE
  5
184
100
AcDbEntity
  8
Layer_1
 62
5
100
AcDbSpline
 70
8
 71
3
 72
8
 73
4
 74
0
 40
0
 40
0
 40
0
 40
0
 40
1
 40
1
 40
1
 40
1
 10
376.157903
 20
15.163598
 30
0.0
 10
376.761590
 20
15.353940
 30
0.0
 10
377.191175
 20
15.889192
 30
0.0
 10
377.246343
 20
16.519767
 30
0.0
  0
SPLINE
  5
185
100
AcDbEntity
  8
Layer_1
 62
5
100
AcDbSpline
 70
8
 71
3
 72
8
 73
4
 74
0
 40
0
 40
0
 40
0
 40
0
 40
1
 40
1
 40
1
 40
1
 10
377.246343
 20
16.519767
 30
0.0
 10
377.321674
 20
17.380804
 30
0.0
 10
376.684733
 20
18.139880
 30
0.0
 10
375.823696
 20
18.215211
 30
0.0
  0
LINE
  5
186
100
AcDbEntity
  8
Layer_1
 62
5
100
AcDbLine
 10
375.823696
 20
18.215211
 30
0.0
 11
375.823696
 21
18.215211
 31
0.0
  0
SPLINE
  5
187
100
AcDbEntity
  8
Layer_1
 62
5
100
AcDbSpline
 70
8
 71
3
 72
8
 73
4
 74
0
 40
0
 40
0
 40
0
 40
0
 40
1
 40
1
 40
1
 40
1
 10
504.332660
 20
15.527621
 30
0.0
 10
503.702086
 20
15.582789
 30
0.0
 10
503.100369
 20
15.252676
 30
0.0
 10
502.808089
 20
14.691212
 30
0.0
  0
SPLINE
  5
188
100
AcDbEntity
  8
Layer_1
 62
5
100
AcDbSpline
 70
8
 71
3
 72
8
 73
4
 74
0
 40
0
 40
0
 40
0
 40
0
 40
1
 40
1
 40
1
 40
1
 10
502.808089
 20
14.691212
 30
0.0
 10
502.515810
 20
14.129749
 30
0.0
 10
502.590528
 20
13.447506
 30
0.0
 10
502.997402
 20
12.962613
 30
0.0
  0
SPLINE
  5
189
100
AcDbEntity
  8
Layer_1
 62
5
100
AcDbSpline
 70
8
 71
3
 72
8
 73
4
 74
0
 40
0
 40
0
 40
0
 40
0
 40
1
 40
1
 40
1
 40
1
 10
502.997402
 20
12.962613
 30
0.0
 10
503.404276
 20
12.477719
 30
0.0
 10
504.063179
 20
12.285666
 30
0.0
 10
504.666867
 20
12.476008
 30
0.0
  0
SPLINE
  5
18a
100
AcDbEntity
  8
Layer_1
 62
5
100
AcDbSpline
 70
8
 71
3
 72
8
 73
4
 74
0
 40
0
 40
0
 40
0
 40
0
 40
1
 40
1
 40
1
 40
1
 10
504.666867
 20
12.476008
 30
0.0
 10
505.270554
 20
12.666350
 30
0.0
 10
505.700139
 20
13.201602
 30
0.0
 10
505.755307
 20
13.832177
 30
0.0
  0
SPLINE
  5
18b
100
AcDbEntity
  8
Layer_1
 62
5
100
AcDbSpline
 70
8
 71
3
 72
8
 73
4
 74
0
 40
0
 40
0
 40
0
 40
0
 40
1
 40
1
 40
1
 40
1
 10
505.755307
 20
13.832177
 30
0.0
 10
505.791482
 20
14.245661
 30
0.0
 10
505.661920
 20
14.656581
 30
0.0
 10
505.395122
 20
14.974539
 30
0.0
  0
SPLINE
  5
18c
100
AcDbEntity
  8
Layer_1
 62
5
100
AcDbSpline
 70
8
 71
3
 72
8
 73
4
 74
0
 40
0
 40
0
 40
0
 40
0
 40
1
 40
1
 40
1
 40
1
 10
505.395122
 20
14.974539
 30
0.0
 10
505.128324
 20
15.292496
 30
0.0
 10
504.746145
 20
15.491446
 30
0.0
 10
504.332660
 20
15.527621
 30
0.0
  0
LINE
  5
18d
100
AcDbEntity
  8
Layer_1
 62
5
100
AcDbLine
 10
504.332660
 20
15.527621
 30
0.0
 11
504.332660
 21
15.527621
 31
0.0
  0
SPLINE
  5
18e
100
AcDbEntity
  8
Layer_1
 62
5
100
AcDbSpline
 70
8
 71
3
 72
8
 73
4
 74
0
 40
0
 40
0
 40
0
 40
0
 40
1
 40
1
 40
1
 40
1
 10
495.849310
 20
-81.437597
 30
0.0
 10
495.218735
 20
-81.382429
 30
0.0
 10
494.617018
 20
-81.712542
 30
0.0
 10
494.324739
 20
-82.274006
 30
0.0
  0
SPLINE
  5
18f
100
AcDbEntity
  8
Layer_1
 62
5
100
AcDbSpline
 70
8
 71
3
 72
8
 73
4
 74
0
 40
0
 40
0
 40
0
 40
0
 40
1
 40
1
 40
1
 40
1
 10
494.324739
 20
-82.274006
 30
0.0
 10
494.032459
 20
-82.835469
 30
0.0
 10
494.107177
 20
-83.517712
 30
0.0
 10
494.514051
 20
-84.002606
 30
0.0
  0
SPLINE
  5
190
100
AcDbEntity
  8
Layer_1
 62
5
100
AcDbSpline
 70
8
 71
3
 72
8
 73
4
 74
0
 40
0
 40
0
 40
0
 40
0
 40
1
 40
1
 40
1
 40
1
 10
494.514051
 20
-84.002606
 30
0.0
 10
494.920925
 20
-84.487499
 30
0.0
 10
495.579829
 20
-84.679552
 30
0.0
 10
496.183516
 20
-84.489210
 30
0.0
  0
SPLINE
  5
191
100
AcDbEntity
  8
Layer_1
 62
5
100
AcDbSpline
 70
8
 71
3
 72
8
 73
4
 74
0
 40
0
 40
0
 40
0
 40
0
 40
1
 40
1
 40
1
 40
1
 10
496.183516
 20
-84.489210
 30
0.0
 10
496.787203
 20
-84.298868
 30
0.0
 10
497.216788
 20
-83.763616
 30
0.0
 10
497.271956
 20
-83.133041
 30
0.0
  0
SPLINE
  5
192
100
AcDbEntity
  8
Layer_1
 62
5
100
AcDbSpline
 70
8
 71
3
 72
8
 73
4
 74
0
 40
0
 40
0
 40
0
 40
0
 40
1
 40
1
 40
1
 40
1
 10
497.271956
 20
-83.133041
 30
0.0
 10
497.308132
 20
-82.719557
 30
0.0
 10
497.178569
 20
-82.308637
 30
0.0
 10
496.911771
 20
-81.990679
 30
0.0
  0
SPLINE
  5
193
100
AcDbEntity
  8
Layer_1
 62
5
100
AcDbSpline
 70
8
 71
3
 72
8
 73
4
 74
0
 40
0
 40
0
 40
0
 40
0
 40
1
 40
1
 40
1
 40
1
 10
496.911771
 20
-81.990679
 30
0.0
 10
496.644973
 20
-81.672722
 30
0.0
 10
496.262794
 20
-81.473772
 30
0.0
 10
495.849310
 20
-81.437597
 30
0.0
  0
LINE
  5
194
100
AcDbEntity
  8
Layer_1
 62
5
100
AcDbLine
 10
495.849310
 20
-81.437597
 30
0.0
 11
495.849310
 21
-81.437597
 31
0.0
  0
SPLINE
  5
195
100
AcDbEntity
  8
Layer_1
 62
5
100
AcDbSpline
 70
8
 71
3
 72
8
 73
4
 74
0
 40
0
 40
0
 40
0
 40
0
 40
1
 40
1
 40
1
 40
1
 10
500.548587
 20
-27.724566
 30
0.0
 10
499.918013
 20
-27.669398
 30
0.0
 10
499.316296
 20
-27.999511
 30
0.0
 10
499.024016
 20
-28.560974
 30
0.0
  0
SPLINE
  5
196
100
AcDbEntity
  8
Layer_1
 62
5
100
AcDbSpline
 70
8
 71
3
 72
8
 73
4
 74
0
 40
0
 40
0
 40
0
 40
0
 40
1
 40
1
 40
1
 40
1
 10
499.024016
 20
-28.560974
 30
0.0
 10
498.731737
 20
-29.122438
 30
0.0
 10
498.806455
 20
-29.804681
 30
0.0
 10
499.213329
 20
-30.289574
 30
0.0
  0
SPLINE
  5
197
100
AcDbEntity
  8
Layer_1
 62
5
100
AcDbSpline
 70
8
 71
3
 72
8
 73
4
 74
0
 40
0
 40
0
 40
0
 40
0
 40
1
 40
1
 40
1
 40
1
 10
499.213329
 20
-30.289574
 30
0.0
 10
499.620203
 20
-30.774468
 30
0.0
 10
500.279106
 20
-30.966521
 30
0.0
 10
500.882794
 20
-30.776179
 30
0.0
  0
SPLINE
  5
198
100
AcDbEntity
  8
Layer_1
 62
5
100
AcDbSpline
 70
8
 71
3
 72
8
 73
4
 74
0
 40
0
 40
0
 40
0
 40
0
 40
1
 40
1
 40
1
 40
1
 10
500.882794
 20
-30.776179
 30
0.0
 10
501.486481
 20
-30.585837
 30
0.0
 10
501.916066
 20
-30.050585
 30
0.0
 10
501.971234
 20
-29.420010
 30
0.0
  0
SPLINE
  5
199
100
AcDbEntity
  8
Layer_1
 62
5
100
AcDbSpline
 70
8
 71
3
 72
8
 73
4
 74
0
 40
0
 40
0
 40
0
 40
0
 40
1
 40
1
 40
1
 40
1
 10
501.971234
 20
-29.420010
 30
0.0
 10
502.007409
 20
-29.006525
 30
0.0
 10
501.877847
 20
-28.595606
 30
0.0
 10
501.611049
 20
-28.277648
 30
0.0
  0
SPLINE
  5
19a
100
AcDbEntity
  8
Layer_1
 62
5
100
AcDbSpline
 70
8
 71
3
 72
8
 73
4
 74
0
 40
0
 40
0
 40
0
 40
0
 40
1
 40
1
 40
1
 40
1
 10
501.611049
 20
-28.277648
 30
0.0
 10
501.344251
 20
-27.959691
 30
0.0
 10
500.962072
 20
-27.760741
 30
0.0
 10
500.548587
 20
-27.724566
 30
0.0
  0
LINE
  5
19b
100
AcDbEntity
  8
Layer_1
 62
5
100
AcDbLine
 10
500.548587
 20
-27.724566
 30
0.0
 11
500.548587
 21
-27.724566
 31
0.0
  0
SPLINE
  5
19c
100
AcDbEntity
  8
Layer_1
 62
5
100
AcDbSpline
 70
8
 71
3
 72
8
 73
4
 74
0
 40
0
 40
0
 40
0
 40
0
 40
1
 40
1
 40
1
 40
1
 10
698.113489
 20
-70.285435
 30
0.0
 10
698.744064
 20
-70.230267
 30
0.0
 10
699.345781
 20
-70.560380
 30
0.0
 10
699.638060
 20
-71.121843
 30
0.0
  0
SPLINE
  5
19d
100
AcDbEntity
  8
Layer_1
 62
5
100
AcDbSpline
 70
8
 71
3
 72
8
 73
4
 74
0
 40
0
 40
0
 40
0
 40
0
 40
1
 40
1
 40
1
 40
1
 10
699.638060
 20
-71.121843
 30
0.0
 10
699.930339
 20
-71.683307
 30
0.0
 10
699.855622
 20
-72.365550
 30
0.0
 10
699.448748
 20
-72.850443
 30
0.0
  0
SPLINE
  5
19e
100
AcDbEntity
  8
Layer_1
 62
5
100
AcDbSpline
 70
8
 71
3
 72
8
 73
4
 74
0
 40
0
 40
0
 40
0
 40
0
 40
1
 40
1
 40
1
 40
1
 10
699.448748
 20
-72.850443
 30
0.0
 10
699.041874
 20
-73.335337
 30
0.0
 10
698.382970
 20
-73.527390
 30
0.0
 10
697.779283
 20
-73.337048
 30
0.0
  0
SPLINE
  5
19f
100
AcDbEntity
  8
Layer_1
 62
5
100
AcDbSpline
 70
8
 71
3
 72
8
 73
4
 74
0
 40
0
 40
0
 40
0
 40
0
 40
1
 40
1
 40
1
 40
1
 10
697.779283
 20
-73.337048
 30
0.0
 10
697.175596
 20
-73.146706
 30
0.0
 10
696.746011
 20
-72.611454
 30
0.0
 10
696.690842
 20
-71.980879
 30
0.0
  0
SPLINE
  5
1a0
100
AcDbEntity
  8
Layer_1
 62
5
100
AcDbSpline
 70
8
 71
3
 72
8
 73
4
 74
0
 40
0
 40
0
 40
0
 40
0
 40
1
 40
1
 40
1
 40
1
 10
696.690842
 20
-71.980879
 30
0.0
 10
696.654667
 20
-71.567394
 30
0.0
 10
696.784230
 20
-71.156475
 30
0.0
 10
697.051028
 20
-70.838517
 30
0.0
  0
SPLINE
  5
1a1
100
AcDbEntity
  8
Layer_1
 62
5
100
AcDbSpline
 70
8
 71
3
 72
8
 73
4
 74
0
 40
0
 40
0
 40
0
 40
0
 40
1
 40
1
 40
1
 40
1
 10
697.051028
 20
-70.838517
 30
0.0
 10
697.317826
 20
-70.520560
 30
0.0
 10
697.700005
 20
-70.321610
 30
0.0
 10
698.113489
 20
-70.285435
 30
0.0
  0
LINE
  5
1a2
100
AcDbEntity
  8
Layer_1
 62
5
100
AcDbLine
 10
698.113489
 20
-70.285435
 30
0.0
 11
698.113489
 21
-70.285435
 31
0.0
  0
SPLINE
  5
1a3
100
AcDbEntity
  8
Layer_1
 62
5
100
AcDbSpline
 70
8
 71
3
 72
8
 73
4
 74
0
 40
0
 40
0
 40
0
 40
0
 40
1
 40
1
 40
1
 40
1
 10
690.371146
 20
18.210024
 30
0.0
 10
691.001721
 20
18.265192
 30
0.0
 10
691.603438
 20
17.935079
 30
0.0
 10
691.895717
 20
17.373615
 30
0.0
  0
SPLINE
  5
1a4
100
AcDbEntity
  8
Layer_1
 62
5
100
AcDbSpline
 70
8
 71
3
 72
8
 73
4
 74
0
 40
0
 40
0
 40
0
 40
0
 40
1
 40
1
 40
1
 40
1
 10
691.895717
 20
17.373615
 30
0.0
 10
692.187996
 20
16.812152
 30
0.0
 10
692.113278
 20
16.129909
 30
0.0
 10
691.706404
 20
15.645015
 30
0.0
  0
SPLINE
  5
1a5
100
AcDbEntity
  8
Layer_1
 62
5
100
AcDbSpline
 70
8
 71
3
 72
8
 73
4
 74
0
 40
0
 40
0
 40
0
 40
0
 40
1
 40
1
 40
1
 40
1
 10
691.706404
 20
15.645015
 30
0.0
 10
691.299530
 20
15.160122
 30
0.0
 10
690.640627
 20
14.968069
 30
0.0
 10
690.036940
 20
15.158411
 30
0.0
  0
SPLINE
  5
1a6
100
AcDbEntity
  8
Layer_1
 62
5
100
AcDbSpline
 70
8
 71
3
 72
8
 73
4
 74
0
 40
0
 40
0
 40
0
 40
0
 40
1
 40
1
 40
1
 40
1
 10
690.036940
 20
15.158411
 30
0.0
 10
689.433252
 20
15.348753
 30
0.0
 10
689.003667
 20
15.884005
 30
0.0
 10
688.948499
 20
16.514580
 30
0.0
  0
SPLINE
  5
1a7
100
AcDbEntity
  8
Layer_1
 62
5
100
AcDbSpline
 70
8
 71
3
 72
8
 73
4
 74
0
 40
0
 40
0
 40
0
 40
0
 40
1
 40
1
 40
1
 40
1
 10
688.948499
 20
16.514580
 30
0.0
 10
688.912324
 20
16.928064
 30
0.0
 10
689.041887
 20
17.338984
 30
0.0
 10
689.308685
 20
17.656941
 30
0.0
  0
SPLINE
  5
1a8
100
AcDbEntity
  8
Layer_1
 62
5
100
AcDbSpline
 70
8
 71
3
 72
8
 73
4
 74
0
 40
0
 40
0
 40
0
 40
0
 40
1
 40
1
 40
1
 40
1
 10
689.308685
 20
17.656941
 30
0.0
 10
689.575483
 20
17.974899
 30
0.0
 10
689.957661
 20
18.173849
 30
0.0
 10
690.371146
 20
18.210024
 30
0.0
  0
LINE
  5
1a9
100
AcDbEntity
  8
Layer_1
 62
5
100
AcDbLine
 10
690.371146
 20
18.210024
 30
0.0
 11
690.371146
 21
18.210024
 31
0.0
  0
SPLINE
  5
1aa
100
AcDbEntity
  8
Layer_1
 62
5
100
AcDbSpline
 70
8
 71
3
 72
8
 73
4
 74
0
 40
0
 40
0
 40
0
 40
0
 40
1
 40
1
 40
1
 40
1
 10
561.902040
 20
15.525921
 30
0.0
 10
562.532614
 20
15.581089
 30
0.0
 10
563.134331
 20
15.250976
 30
0.0
 10
563.426611
 20
14.689512
 30
0.0
  0
SPLINE
  5
1ab
100
AcDbEntity
  8
Layer_1
 62
5
100
AcDbSpline
 70
8
 71
3
 72
8
 73
4
 74
0
 40
0
 40
0
 40
0
 40
0
 40
1
 40
1
 40
1
 40
1
 10
563.426611
 20
14.689512
 30
0.0
 10
563.718890
 20
14.128049
 30
0.0
 10
563.644172
 20
13.445806
 30
0.0
 10
563.237298
 20
12.960913
 30
0.0
  0
SPLINE
  5
1ac
100
AcDbEntity
  8
Layer_1
 62
5
100
AcDbSpline
 70
8
 71
3
 72
8
 73
4
 74
0
 40
0
 40
0
 40
0
 40
0
 40
1
 40
1
 40
1
 40
1
 10
563.237298
 20
12.960913
 30
0.0
 10
562.830424
 20
12.476019
 30
0.0
 10
562.171521
 20
12.283966
 30
0.0
 10
561.567833
 20
12.474308
 30
0.0
  0
SPLINE
  5
1ad
100
AcDbEntity
  8
Layer_1
 62
5
100
AcDbSpline
 70
8
 71
3
 72
8
 73
4
 74
0
 40
0
 40
0
 40
0
 40
0
 40
1
 40
1
 40
1
 40
1
 10
561.567833
 20
12.474308
 30
0.0
 10
560.964146
 20
12.664650
 30
0.0
 10
560.534561
 20
13.199902
 30
0.0
 10
560.479393
 20
13.830477
 30
0.0
  0
SPLINE
  5
1ae
100
AcDbEntity
  8
Layer_1
 62
5
100
AcDbSpline
 70
8
 71
3
 72
8
 73
4
 74
0
 40
0
 40
0
 40
0
 40
0
 40
1
 40
1
 40
1
 40
1
 10
560.479393
 20
13.830477
 30
0.0
 10
560.443218
 20
14.243961
 30
0.0
 10
560.572780
 20
14.654881
 30
0.0
 10
560.839578
 20
14.972839
 30
0.0
  0
SPLINE
  5
1af
100
AcDbEntity
  8
Layer_1
 62
5
100
AcDbSpline
 70
8
 71
3
 72
8
 73
4
 74
0
 40
0
 40
0
 40
0
 40
0
 40
1
 40
1
 40
1
 40
1
 10
560.839578
 20
14.972839
 30
0.0
 10
561.106376
 20
15.290796
 30
0.0
 10
561.488555
 20
15.489746
 30
0.0
 10
561.902040
 20
15.525921
 30
0.0
  0
LINE
  5
1b0
100
AcDbEntity
  8
Layer_1
 62
5
100
AcDbLine
 10
561.902040
 20
15.525921
 30
0.0
 11
561.902040
 21
15.525921
 31
0.0
  0
SPLINE
  5
1b1
100
AcDbEntity
  8
Layer_1
 62
5
100
AcDbSpline
 70
8
 71
3
 72
8
 73
4
 74
0
 40
0
 40
0
 40
0
 40
0
 40
1
 40
1
 40
1
 40
1
 10
570.385390
 20
-81.439297
 30
0.0
 10
571.015965
 20
-81.384129
 30
0.0
 10
571.617682
 20
-81.714242
 30
0.0
 10
571.909961
 20
-82.275706
 30
0.0
  0
SPLINE
  5
1b2
100
AcDbEntity
  8
Layer_1
 62
5
100
AcDbSpline
 70
8
 71
3
 72
8
 73
4
 74
0
 40
0
 40
0
 40
0
 40
0
 40
1
 40
1
 40
1
 40
1
 10
571.909961
 20
-82.275706
 30
0.0
 10
572.202241
 20
-82.837169
 30
0.0
 10
572.127523
 20
-83.519412
 30
0.0
 10
571.720649
 20
-84.004306
 30
0.0
  0
SPLINE
  5
1b3
100
AcDbEntity
  8
Layer_1
 62
5
100
AcDbSpline
 70
8
 71
3
 72
8
 73
4
 74
0
 40
0
 40
0
 40
0
 40
0
 40
1
 40
1
 40
1
 40
1
 10
571.720649
 20
-84.004306
 30
0.0
 10
571.313775
 20
-84.489199
 30
0.0
 10
570.654871
 20
-84.681252
 30
0.0
 10
570.051184
 20
-84.490910
 30
0.0
  0
SPLINE
  5
1b4
100
AcDbEntity
  8
Layer_1
 62
5
100
AcDbSpline
 70
8
 71
3
 72
8
 73
4
 74
0
 40
0
 40
0
 40
0
 40
0
 40
1
 40
1
 40
1
 40
1
 10
570.051184
 20
-84.490910
 30
0.0
 10
569.447497
 20
-84.300568
 30
0.0
 10
569.017912
 20
-83.765316
 30
0.0
 10
568.962744
 20
-83.134741
 30
0.0
  0
SPLINE
  5
1b5
100
AcDbEntity
  8
Layer_1
 62
5
100
AcDbSpline
 70
8
 71
3
 72
8
 73
4
 74
0
 40
0
 40
0
 40
0
 40
0
 40
1
 40
1
 40
1
 40
1
 10
568.962744
 20
-83.134741
 30
0.0
 10
568.926568
 20
-82.721257
 30
0.0
 10
569.056131
 20
-82.310337
 30
0.0
 10
569.322929
 20
-81.992379
 30
0.0
  0
SPLINE
  5
1b6
100
AcDbEntity
  8
Layer_1
 62
5
100
AcDbSpline
 70
8
 71
3
 72
8
 73
4
 74
0
 40
0
 40
0
 40
0
 40
0
 40
1
 40
1
 40
1
 40
1
 10
569.322929
 20
-81.992379
 30
0.0
 10
569.589727
 20
-81.674422
 30
0.0
 10
569.971906
 20
-81.475472
 30
0.0
 10
570.385390
 20
-81.439297
 30
0.0
  0
LINE
  5
1b7
100
AcDbEntity
  8
Layer_1
 62
5
100
AcDbLine
 10
570.385390
 20
-81.439297
 30
0.0
 11
570.385390
 21
-81.439297
 31
0.0
  0
SPLINE
  5
1b8
100
AcDbEntity
  8
Layer_1
 62
5
100
AcDbSpline
 70
8
 71
3
 72
8
 73
4
 74
0
 40
0
 40
0
 40
0
 40
0
 40
1
 40
1
 40
1
 40
1
 10
565.686113
 20
-27.726266
 30
0.0
 10
566.316687
 20
-27.671098
 30
0.0
 10
566.918404
 20
-28.001211
 30
0.0
 10
567.210684
 20
-28.562674
 30
0.0
  0
SPLINE
  5
1b9
100
AcDbEntity
  8
Layer_1
 62
5
100
AcDbSpline
 70
8
 71
3
 72
8
 73
4
 74
0
 40
0
 40
0
 40
0
 40
0
 40
1
 40
1
 40
1
 40
1
 10
567.210684
 20
-28.562674
 30
0.0
 10
567.502963
 20
-29.124138
 30
0.0
 10
567.428245
 20
-29.806381
 30
0.0
 10
567.021371
 20
-30.291274
 30
0.0
  0
SPLINE
  5
1ba
100
AcDbEntity
  8
Layer_1
 62
5
100
AcDbSpline
 70
8
 71
3
 72
8
 73
4
 74
0
 40
0
 40
0
 40
0
 40
0
 40
1
 40
1
 40
1
 40
1
 10
567.021371
 20
-30.291274
 30
0.0
 10
566.614497
 20
-30.776168
 30
0.0
 10
565.955594
 20
-30.968221
 30
0.0
 10
565.351906
 20
-30.777879
 30
0.0
  0
SPLINE
  5
1bb
100
AcDbEntity
  8
Layer_1
 62
5
100
AcDbSpline
 70
8
 71
3
 72
8
 73
4
 74
0
 40
0
 40
0
 40
0
 40
0
 40
1
 40
1
 40
1
 40
1
 10
565.351906
 20
-30.777879
 30
0.0
 10
564.748219
 20
-30.587537
 30
0.0
 10
564.318634
 20
-30.052285
 30
0.0
 10
564.263466
 20
-29.421710
 30
0.0
  0
SPLINE
  5
1bc
100
AcDbEntity
  8
Layer_1
 62
5
100
AcDbSpline
 70
8
 71
3
 72
8
 73
4
 74
0
 40
0
 40
0
 40
0
 40
0
 40
1
 40
1
 40
1
 40
1
 10
564.263466
 20
-29.421710
 30
0.0
 10
564.227291
 20
-29.008225
 30
0.0
 10
564.356853
 20
-28.597306
 30
0.0
 10
564.623651
 20
-28.279348
 30
0.0
  0
SPLINE
  5
1bd
100
AcDbEntity
  8
Layer_1
 62
5
100
AcDbSpline
 70
8
 71
3
 72
8
 73
4
 74
0
 40
0
 40
0
 40
0
 40
0
 40
1
 40
1
 40
1
 40
1
 10
564.623651
 20
-28.279348
 30
0.0
 10
564.890449
 20
-27.961391
 30
0.0
 10
565.272628
 20
-27.762441
 30
0.0
 10
565.686113
 20
-27.726266
 30
0.0
  0
LINE
  5
1be
100
AcDbEntity
  8
Layer_1
 62
5
100
AcDbLine
 10
565.686113
 20
-27.726266
 30
0.0
 11
565.686113
 21
-27.726266
 31
0.0
  0
SPLINE
  5
1bf
100
AcDbEntity
  8
Layer_1
 62
5
100
AcDbSpline
 70
8
 71
3
 72
8
 73
4
 74
0
 40
0
 40
0
 40
0
 40
0
 40
1
 40
1
 40
1
 40
1
 10
577.356628
 20
11.123580
 30
0.0
 10
576.726053
 20
11.068412
 30
0.0
 10
576.190801
 20
10.638827
 30
0.0
 10
576.000460
 20
10.035140
 30
0.0
  0
SPLINE
  5
1c0
100
AcDbEntity
  8
Layer_1
 62
5
100
AcDbSpline
 70
8
 71
3
 72
8
 73
4
 74
0
 40
0
 40
0
 40
0
 40
0
 40
1
 40
1
 40
1
 40
1
 10
576.000460
 20
10.035140
 30
0.0
 10
575.810118
 20
9.431453
 30
0.0
 10
576.002171
 20
8.772549
 30
0.0
 10
576.487064
 20
8.365675
 30
0.0
  0
SPLINE
  5
1c1
100
AcDbEntity
  8
Layer_1
 62
5
100
AcDbSpline
 70
8
 71
3
 72
8
 73
4
 74
0
 40
0
 40
0
 40
0
 40
0
 40
1
 40
1
 40
1
 40
1
 10
576.487064
 20
8.365675
 30
0.0
 10
576.971958
 20
7.958801
 30
0.0
 10
577.654200
 20
7.884084
 30
0.0
 10
578.215663
 20
8.176363
 30
0.0
  0
SPLINE
  5
1c2
100
AcDbEntity
  8
Layer_1
 62
5
100
AcDbSpline
 70
8
 71
3
 72
8
 73
4
 74
0
 40
0
 40
0
 40
0
 40
0
 40
1
 40
1
 40
1
 40
1
 10
578.215663
 20
8.176363
 30
0.0
 10
578.777127
 20
8.468642
 30
0.0
 10
579.107240
 20
9.070359
 30
0.0
 10
579.052072
 20
9.700934
 30
0.0
  0
SPLINE
  5
1c3
100
AcDbEntity
  8
Layer_1
 62
5
100
AcDbSpline
 70
8
 71
3
 72
8
 73
4
 74
0
 40
0
 40
0
 40
0
 40
0
 40
1
 40
1
 40
1
 40
1
 10
579.052072
 20
9.700934
 30
0.0
 10
579.015896
 20
10.114418
 30
0.0
 10
578.816947
 20
10.496597
 30
0.0
 10
578.498989
 20
10.763395
 30
0.0
  0
SPLINE
  5
1c4
100
AcDbEntity
  8
Layer_1
 62
5
100
AcDbSpline
 70
8
 71
3
 72
8
 73
4
 74
0
 40
0
 40
0
 40
0
 40
0
 40
1
 40
1
 40
1
 40
1
 10
578.498989
 20
10.763395
 30
0.0
 10
578.181032
 20
11.030192
 30
0.0
 10
577.770112
 20
11.159755
 30
0.0
 10
577.356628
 20
11.123580
 30
0.0
  0
LINE
  5
1c5
100
AcDbEntity
  8
Layer_1
 62
5
100
AcDbLine
 10
577.356628
 20
11.123580
 30
0.0
 11
577.356628
 21
11.123580
 31
0.0
  0
SPLINE
  5
1c6
100
AcDbEntity
  8
Layer_1
 62
5
100
AcDbSpline
 70
8
 71
3
 72
8
 73
4
 74
0
 40
0
 40
0
 40
0
 40
0
 40
1
 40
1
 40
1
 40
1
 10
674.259604
 20
19.601492
 30
0.0
 10
673.629030
 20
19.546324
 30
0.0
 10
673.093778
 20
19.116739
 30
0.0
 10
672.903436
 20
18.513051
 30
0.0
  0
SPLINE
  5
1c7
100
AcDbEntity
  8
Layer_1
 62
5
100
AcDbSpline
 70
8
 71
3
 72
8
 73
4
 74
0
 40
0
 40
0
 40
0
 40
0
 40
1
 40
1
 40
1
 40
1
 10
672.903436
 20
18.513051
 30
0.0
 10
672.713094
 20
17.909364
 30
0.0
 10
672.905147
 20
17.250461
 30
0.0
 10
673.390040
 20
16.843587
 30
0.0
  0
SPLINE
  5
1c8
100
AcDbEntity
  8
Layer_1
 62
5
100
AcDbSpline
 70
8
 71
3
 72
8
 73
4
 74
0
 40
0
 40
0
 40
0
 40
0
 40
1
 40
1
 40
1
 40
1
 10
673.390040
 20
16.843587
 30
0.0
 10
673.874934
 20
16.436713
 30
0.0
 10
674.557177
 20
16.361996
 30
0.0
 10
675.118640
 20
16.654275
 30
0.0
  0
SPLINE
  5
1c9
100
AcDbEntity
  8
Layer_1
 62
5
100
AcDbSpline
 70
8
 71
3
 72
8
 73
4
 74
0
 40
0
 40
0
 40
0
 40
0
 40
1
 40
1
 40
1
 40
1
 10
675.118640
 20
16.654275
 30
0.0
 10
675.680103
 20
16.946554
 30
0.0
 10
676.010216
 20
17.548271
 30
0.0
 10
675.955048
 20
18.178846
 30
0.0
  0
SPLINE
  5
1ca
100
AcDbEntity
  8
Layer_1
 62
5
100
AcDbSpline
 70
8
 71
3
 72
8
 73
4
 74
0
 40
0
 40
0
 40
0
 40
0
 40
1
 40
1
 40
1
 40
1
 10
675.955048
 20
18.178846
 30
0.0
 10
675.879717
 20
19.039882
 30
0.0
 10
675.120641
 20
19.676823
 30
0.0
 10
674.259604
 20
19.601492
 30
0.0
  0
LINE
  5
1cb
100
AcDbEntity
  8
Layer_1
 62
5
100
AcDbLine
 10
674.259604
 20
19.601492
 30
0.0
 11
674.259604
 21
19.601492
 31
0.0
  0
SPLINE
  5
1cc
100
AcDbEntity
  8
Layer_1
 62
5
100
AcDbSpline
 70
8
 71
3
 72
8
 73
4
 74
0
 40
0
 40
0
 40
0
 40
0
 40
1
 40
1
 40
1
 40
1
 10
487.943171
 20
11.207353
 30
0.0
 10
487.082134
 20
11.282684
 30
0.0
 10
486.323058
 20
10.645744
 30
0.0
 10
486.247727
 20
9.784707
 30
0.0
  0
SPLINE
  5
1cd
100
AcDbEntity
  8
Layer_1
 62
5
100
AcDbSpline
 70
8
 71
3
 72
8
 73
4
 74
0
 40
0
 40
0
 40
0
 40
0
 40
1
 40
1
 40
1
 40
1
 10
486.247727
 20
9.784707
 30
0.0
 10
486.172396
 20
8.923671
 30
0.0
 10
486.809337
 20
8.164595
 30
0.0
 10
487.670373
 20
8.089264
 30
0.0
  0
SPLINE
  5
1ce
100
AcDbEntity
  8
Layer_1
 62
5
100
AcDbSpline
 70
8
 71
3
 72
8
 73
4
 74
0
 40
0
 40
0
 40
0
 40
0
 40
1
 40
1
 40
1
 40
1
 10
487.670373
 20
8.089264
 30
0.0
 10
488.531410
 20
8.013933
 30
0.0
 10
489.290486
 20
8.650873
 30
0.0
 10
489.365817
 20
9.511910
 30
0.0
  0
SPLINE
  5
1cf
100
AcDbEntity
  8
Layer_1
 62
5
100
AcDbSpline
 70
8
 71
3
 72
8
 73
4
 74
0
 40
0
 40
0
 40
0
 40
0
 40
1
 40
1
 40
1
 40
1
 10
489.365817
 20
9.511910
 30
0.0
 10
489.401992
 20
9.925394
 30
0.0
 10
489.272429
 20
10.336314
 30
0.0
 10
489.005632
 20
10.654271
 30
0.0
  0
SPLINE
  5
1d0
100
AcDbEntity
  8
Layer_1
 62
5
100
AcDbSpline
 70
8
 71
3
 72
8
 73
4
 74
0
 40
0
 40
0
 40
0
 40
0
 40
1
 40
1
 40
1
 40
1
 10
489.005632
 20
10.654271
 30
0.0
 10
488.738834
 20
10.972229
 30
0.0
 10
488.356655
 20
11.171178
 30
0.0
 10
487.943171
 20
11.207353
 30
0.0
  0
LINE
  5
1d1
100
AcDbEntity
  8
Layer_1
 62
5
100
AcDbLine
 10
487.943171
 20
11.207353
 30
0.0
 11
487.943171
 21
11.207353
 31
0.0
  0
SPLINE
  5
1d2
100
AcDbEntity
  8
Layer_1
 62
5
100
AcDbSpline
 70
8
 71
3
 72
8
 73
4
 74
0
 40
0
 40
0
 40
0
 40
0
 40
1
 40
1
 40
1
 40
1
 10
391.040194
 20
19.685265
 30
0.0
 10
390.179158
 20
19.760596
 30
0.0
 10
389.420082
 20
19.123656
 30
0.0
 10
389.344751
 20
18.262619
 30
0.0
  0
SPLINE
  5
1d3
100
AcDbEntity
  8
Layer_1
 62
5
100
AcDbSpline
 70
8
 71
3
 72
8
 73
4
 74
0
 40
0
 40
0
 40
0
 40
0
 40
1
 40
1
 40
1
 40
1
 10
389.344751
 20
18.262619
 30
0.0
 10
389.269420
 20
17.401583
 30
0.0
 10
389.906360
 20
16.642507
 30
0.0
 10
390.767397
 20
16.567176
 30
0.0
  0
SPLINE
  5
1d4
100
AcDbEntity
  8
Layer_1
 62
5
100
AcDbSpline
 70
8
 71
3
 72
8
 73
4
 74
0
 40
0
 40
0
 40
0
 40
0
 40
1
 40
1
 40
1
 40
1
 10
390.767397
 20
16.567176
 30
0.0
 10
391.628433
 20
16.491845
 30
0.0
 10
392.387509
 20
17.128785
 30
0.0
 10
392.462840
 20
17.989822
 30
0.0
  0
SPLINE
  5
1d5
100
AcDbEntity
  8
Layer_1
 62
5
100
AcDbSpline
 70
8
 71
3
 72
8
 73
4
 74
0
 40
0
 40
0
 40
0
 40
0
 40
1
 40
1
 40
1
 40
1
 10
392.462840
 20
17.989822
 30
0.0
 10
392.499016
 20
18.403306
 30
0.0
 10
392.369453
 20
18.814226
 30
0.0
 10
392.102655
 20
19.132183
 30
0.0
  0
SPLINE
  5
1d6
100
AcDbEntity
  8
Layer_1
 62
5
100
AcDbSpline
 70
8
 71
3
 72
8
 73
4
 74
0
 40
0
 40
0
 40
0
 40
0
 40
1
 40
1
 40
1
 40
1
 10
392.102655
 20
19.132183
 30
0.0
 10
391.835857
 20
19.450140
 30
0.0
 10
391.453679
 20
19.649090
 30
0.0
 10
391.040194
 20
19.685265
 30
0.0
  0
LINE
  5
1d7
100
AcDbEntity
  8
Layer_1
 62
5
100
AcDbLine
 10
391.040194
 20
19.685265
 30
0.0
 11
391.040194
 21
19.685265
 31
0.0
  0
ENDSEC
  0
SECTION
  2
OBJECTS
  0
DICTIONARY
  5
C
330
0
100
AcDbDictionary
  3
ACAD_GROUP
350
D
  3
ACAD_MLINESTYLE
350
17
  0
DICTIONARY
  5
D
330
C
100
AcDbDictionary
  0
DICTIONARY
  5
1A
330
C
100
AcDbDictionary
  0
DICTIONARY
  5
17
330
C
100
AcDbDictionary
  3
STANDARD
350
18
  0
DICTIONARY
  5
19
330
C
100
AcDbDictionary
  0
ENDSEC
  0
EOF
