  0
SECTION
  2
HEADER
  9
$ACADVER
  1
AC1014
  9
$HANDSEED
  5
FFFF
  9
$INSUNITS
 70
     0
  9
$MEASUREMENT
 70
     1
  0
ENDSEC
  0
SECTION
  2
TABLES
  0
TABLE
  2
VPORT
  5
8
330
0
100
AcDbSymbolTable
 70
     4
  0
VPORT
  5
2E
330
8
100
AcDbSymbolTableRecord
100
AcDbViewportTableRecord
  2
*ACTIVE
 70
     0
 10
0.0
 20
0.0
 11
1.0
 21
1.0
 12
210.0
 22
148.5
 13
0.0
 23
0.0
 14
10.0
 24
10.0
 15
10.0
 25
10.0
 16
0.0
 26
0.0
 36
1.0
 17
0.0
 27
0.0
 37
0.0
 40
341.0
 41
1.24
 42
50.0
 43
0.0
 44
0.0
 50
0.0
 51
0.0
 71
     0
 72
   100
 73
     1
 74
     3
 75
     0
 76
     0
 77
     0
 78
     0
  0
ENDTAB
  0
TABLE
  2
LTYPE
  5
5
330
0
100
AcDbSymbolTable
 70
     1
  0
LTYPE
  5
14
330
5
100
AcDbSymbolTableRecord
100
AcDbLinetypeTableRecord
  2
BYBLOCK
 70
     0
  3

 72
    65
 73
     0
 40
0.0
  0
LTYPE
  5
15
330
5
100
AcDbSymbolTableRecord
100
AcDbLinetypeTableRecord
  2
BYLAYER
 70
     0
  3

 72
    65
 73
     0
 40
0.0
  0
LTYPE
  5
16
330
5
100
AcDbSymbolTableRecord
100
AcDbLinetypeTableRecord
  2
CONTINUOUS
 70
     0
  3
Solid line
 72
    65
 73
     0
 40
0.0
  0
ENDTAB
  0
TABLE
  2
LAYER
  5
2
100
AcDbSymbolTable
 70
2
  0
LAYER
  5
50
100
AcDbSymbolTableRecord
100
AcDbLayerTableRecord
  2
0
 70
0
  6
CONTINUOUS
  0
LAYER
  5
51
100
AcDbSymbolTableRecord
100
AcDbLayerTableRecord
  2
Layer_1
 70
0
  6
CONTINUOUS
  0
ENDTAB
  0
TABLE
  2
STYLE
  5
3
330
0
100
AcDbSymbolTable
 70
     1
  0
STYLE
  5
11
330
3
100
AcDbSymbolTableRecord
100
AcDbTextStyleTableRecord
  2
STANDARD
 70
     0
 40
0.0
 41
1.0
 50
0.0
 71
     0
 42
2.5
  3
txt
  4

  0
ENDTAB
  0
TABLE
  2
VIEW
  5
6
330
0
100
AcDbSymbolTable
 70
     0
  0
ENDTAB
  0
TABLE
  2
UCS
  5
7
330
0
100
AcDbSymbolTable
 70
     0
  0
ENDTAB
  0
TABLE
  2
APPID
  5
9
330
0
100
AcDbSymbolTable
 70
     2
  0
APPID
  5
12
330
9
100
AcDbSymbolTableRecord
100
AcDbRegAppTableRecord
  2
ACAD
 70
     0
  0
ENDTAB
  0
TABLE
  2
DIMSTYLE
  5
A
330
0
100
AcDbSymbolTable
 70
     1
  0
DIMSTYLE
105
27
330
A
100
AcDbSymbolTableRecord
100
AcDbDimStyleTableRecord
  2
ISO-25
 70
     0
  3

  4

  5

  6

  7

 40
1.0
 41
2.5
 42
0.625
 43
3.75
 44
1.25
 45
0.0
 46
0.0
 47
0.0
 48
0.0
140
2.5
141
2.5
142
0.0
143
0.03937007874016
144
1.0
145
0.0
146
1.0
147
0.625
 71
     0
 72
     0
 73
     0
 74
     0
 75
     0
 76
     0
 77
     1
 78
     8
170
     0
171
     3
172
     1
173
     0
174
     0
175
     0
176
     0
177
     0
178
     0
270
     2
271
     2
272
     2
273
     2
274
     3
340
11
275
     0
280
     0
281
     0
282
     0
283
     0
284
     8
285
     0
286
     0
287
     3
288
     0
  0
ENDTAB
  0
TABLE
  2
BLOCK_RECORD
  5
1
330
0
100
AcDbSymbolTable
 70
     1
  0
BLOCK_RECORD
  5
1F
330
1
100
AcDbSymbolTableRecord
100
AcDbBlockTableRecord
  2
*MODEL_SPACE
  0
BLOCK_RECORD
  5
1B
330
1
100
AcDbSymbolTableRecord
100
AcDbBlockTableRecord
  2
*PAPER_SPACE
  0
ENDTAB
  0
ENDSEC
  0
SECTION
  2
BLOCKS
  0
BLOCK
  5
20
330
1F
100
AcDbEntity
  8
0
100
AcDbBlockBegin
  2
*MODEL_SPACE
 70
     0
 10
0.0
 20
0.0
 30
0.0
  3
*MODEL_SPACE
  1

  0
ENDBLK
  5
21
330
1F
100
AcDbEntity
  8
0
100
AcDbBlockEnd
  0
BLOCK
  5
1C
330
1B
100
AcDbEntity
 67
     1
  8
0
100
AcDbBlockBegin
  2
*PAPER_SPACE
  1

  0
ENDBLK
  5
1D
330
1B
100
AcDbEntity
 67
     1
  8
0
100
AcDbBlockEnd
  0
ENDSEC
  0
SECTION
  2
ENTITIES
  0
LINE
  5
100
100
AcDbEntity
  8
Layer_1
 62
3
100
AcDbLine
 10
378.688681
 20
4.005225
 30
0.0
 11
380.499303
 21
24.711392
 31
0.0
  0
SPLINE
  5
101
100
AcDbEntity
  8
Layer_1
 62
3
100
AcDbSpline
 70
8
 71
3
 72
8
 73
4
 74
0
 40
0
 40
0
 40
0
 40
0
 40
1
 40
1
 40
1
 40
1
 10
380.499303
 20
24.711392
 30
0.0
 10
380.528579
 20
25.046205
 30
0.0
 10
380.701769
 20
25.351817
 30
0.0
 10
380.973959
 20
25.548971
 30
0.0
  0
LINE
  5
102
100
AcDbEntity
  8
Layer_1
 62
3
100
AcDbLine
 10
380.973959
 20
25.548971
 30
0.0
 11
383.610763
 21
27.458896
 31
0.0
  0
SPLINE
  5
103
100
AcDbEntity
  8
Layer_1
 62
3
100
AcDbSpline
 70
8
 71
3
 72
8
 73
4
 74
0
 40
0
 40
0
 40
0
 40
0
 40
1
 40
1
 40
1
 40
1
 10
383.610763
 20
27.458896
 30
0.0
 10
383.887162
 20
27.659104
 30
0.0
 10
384.226483
 20
27.752939
 30
0.0
 10
384.566475
 20
27.723186
 30
0.0
  0
LINE
  5
104
100
AcDbEntity
  8
Layer_1
 62
3
100
AcDbLine
 10
384.566475
 20
27.723186
 30
0.0
 11
496.730285
 21
17.907112
 31
0.0
  0
SPLINE
  5
105
100
AcDbEntity
  8
Layer_1
 62
3
100
AcDbSpline
 70
8
 71
3
 72
8
 73
4
 74
0
 40
0
 40
0
 40
0
 40
0
 40
1
 40
1
 40
1
 40
1
 10
496.730285
 20
17.907112
 30
0.0
 10
497.069744
 20
17.877408
 30
0.0
 10
497.386323
 20
17.723547
 30
0.0
 10
497.619416
 20
17.474985
 30
0.0
  0
LINE
  5
106
100
AcDbEntity
  8
Layer_1
 62
3
100
AcDbLine
 10
497.619416
 20
17.474985
 30
0.0
 11
499.797234
 21
15.152599
 31
0.0
  0
SPLINE
  5
107
100
AcDbEntity
  8
Layer_1
 62
3
100
AcDbSpline
 70
8
 71
3
 72
8
 73
4
 74
0
 40
0
 40
0
 40
0
 40
0
 40
1
 40
1
 40
1
 40
1
 10
499.797234
 20
15.152599
 30
0.0
 10
500.027572
 20
14.906973
 30
0.0
 10
500.142436
 20
14.574895
 30
0.0
 10
500.113089
 20
14.239445
 30
0.0
  0
LINE
  5
108
100
AcDbEntity
  8
Layer_1
 62
3
100
AcDbLine
 10
500.113089
 20
14.239445
 30
0.0
 11
499.170014
 21
3.460051
 31
0.0
  0
SPLINE
  5
109
100
AcDbEntity
  8
Layer_1
 62
3
100
AcDbSpline
 70
8
 71
3
 72
8
 73
4
 74
0
 40
0
 40
0
 40
0
 40
0
 40
1
 40
1
 40
1
 40
1
 10
499.170014
 20
3.460051
 30
0.0
 10
499.144543
 20
3.168913
 30
0.0
 10
498.886978
 20
2.932963
 30
0.0
 10
498.594723
 20
2.933045
 30
0.0
  0
SPLINE
  5
10a
100
AcDbEntity
  8
Layer_1
 62
3
100
AcDbSpline
 70
8
 71
3
 72
8
 73
4
 74
0
 40
0
 40
0
 40
0
 40
0
 40
1
 40
1
 40
1
 40
1
 10
498.594723
 20
2.933045
 30
0.0
 10
455.920735
 20
2.944853
 30
0.0
 10
421.520205
 20
2.948922
 30
0.0
 10
379.654823
 20
2.950848
 30
0.0
  0
SPLINE
  5
10b
100
AcDbEntity
  8
Layer_1
 62
3
100
AcDbSpline
 70
8
 71
3
 72
8
 73
4
 74
0
 40
0
 40
0
 40
0
 40
0
 40
1
 40
1
 40
1
 40
1
 10
379.654823
 20
2.950848
 30
0.0
 10
379.070322
 20
2.950891
 30
0.0
 10
378.637767
 20
3.422927
 30
0.0
 10
378.688680
 20
4.005205
 30
0.0
  0
LINE
  5
10c
100
AcDbEntity
  8
Layer_1
 62
3
100
AcDbLine
 10
378.688680
 20
4.005205
 30
0.0
 11
378.688681
 21
4.005225
 31
0.0
  0
SPLINE
  5
10d
100
AcDbEntity
  8
Layer_1
 62
3
100
AcDbSpline
 70
8
 71
3
 72
8
 73
4
 74
0
 40
0
 40
0
 40
0
 40
0
 40
1
 40
1
 40
1
 40
1
 10
686.587146
 20
2.949465
 30
0.0
 10
634.439733
 20
2.948385
 30
0.0
 10
610.188390
 20
2.949064
 30
0.0
 10
568.173397
 20
2.949337
 30
0.0
  0
SPLINE
  5
10e
100
AcDbEntity
  8
Layer_1
 62
3
100
AcDbSpline
 70
8
 71
3
 72
8
 73
4
 74
0
 40
0
 40
0
 40
0
 40
0
 40
1
 40
1
 40
1
 40
1
 10
568.173397
 20
2.949337
 30
0.0
 10
567.588888
 20
2.949393
 30
0.0
 10
567.073742
 20
3.421372
 30
0.0
 10
567.022779
 20
4.003646
 30
0.0
  0
LINE
  5
10f
100
AcDbEntity
  8
Layer_1
 62
3
100
AcDbLine
 10
567.022779
 20
4.003646
 30
0.0
 11
566.171106
 21
13.733502
 31
0.0
  0
SPLINE
  5
110
100
AcDbEntity
  8
Layer_1
 62
3
100
AcDbSpline
 70
8
 71
3
 72
8
 73
4
 74
0
 40
0
 40
0
 40
0
 40
0
 40
1
 40
1
 40
1
 40
1
 10
566.171106
 20
13.733502
 30
0.0
 10
566.112497
 20
14.403116
 30
0.0
 10
566.347477
 20
15.065192
 30
0.0
 10
566.815109
 20
15.548036
 30
0.0
  0
LINE
  5
111
100
AcDbEntity
  8
Layer_1
 62
3
100
AcDbLine
 10
566.815109
 20
15.548036
 30
0.0
 11
568.343916
 21
17.126597
 31
0.0
  0
SPLINE
  5
112
100
AcDbEntity
  8
Layer_1
 62
3
100
AcDbSpline
 70
8
 71
3
 72
8
 73
4
 74
0
 40
0
 40
0
 40
0
 40
0
 40
1
 40
1
 40
1
 40
1
 10
568.343916
 20
17.126597
 30
0.0
 10
568.818765
 20
17.616896
 30
0.0
 10
569.454564
 20
17.919418
 30
0.0
 10
570.134543
 20
17.978603
 30
0.0
  0
LINE
  5
113
100
AcDbEntity
  8
Layer_1
 62
3
100
AcDbLine
 10
570.134543
 20
17.978603
 30
0.0
 11
681.240125
 21
27.649091
 31
0.0
  0
SPLINE
  5
114
100
AcDbEntity
  8
Layer_1
 62
3
100
AcDbSpline
 70
8
 71
3
 72
8
 73
4
 74
0
 40
0
 40
0
 40
0
 40
0
 40
1
 40
1
 40
1
 40
1
 10
681.240125
 20
27.649091
 30
0.0
 10
681.919093
 20
27.708188
 30
0.0
 10
682.596022
 20
27.514943
 30
0.0
 10
683.141466
 20
27.106309
 30
0.0
  0
LINE
  5
115
100
AcDbEntity
  8
Layer_1
 62
3
100
AcDbLine
 10
683.141466
 20
27.106309
 30
0.0
 11
684.842488
 21
25.831933
 31
0.0
  0
SPLINE
  5
116
100
AcDbEntity
  8
Layer_1
 62
3
100
AcDbSpline
 70
8
 71
3
 72
8
 73
4
 74
0
 40
0
 40
0
 40
0
 40
0
 40
1
 40
1
 40
1
 40
1
 10
684.842488
 20
25.831933
 30
0.0
 10
685.381465
 20
25.428141
 30
0.0
 10
685.723029
 20
24.813970
 30
0.0
 10
685.781726
 20
24.143076
 30
0.0
  0
LINE
  5
117
100
AcDbEntity
  8
Layer_1
 62
3
100
AcDbLine
 10
685.781726
 20
24.143076
 30
0.0
 11
686.632562
 21
14.417975
 31
0.0
  0
SPLINE
  5
118
100
AcDbEntity
  8
Layer_1
 62
3
100
AcDbSpline
 70
8
 71
3
 72
8
 73
4
 74
0
 40
0
 40
0
 40
0
 40
0
 40
1
 40
1
 40
1
 40
1
 10
686.632562
 20
14.417975
 30
0.0
 10
686.694054
 20
13.715106
 30
0.0
 10
686.755866
 20
13.012265
 30
0.0
 10
686.817998
 20
12.309453
 30
0.0
  0
LINE
  5
119
100
AcDbEntity
  8
Layer_1
 62
3
100
AcDbLine
 10
686.817998
 20
12.309453
 30
0.0
 11
687.552687
 21
4.003699
 31
0.0
  0
SPLINE
  5
11a
100
AcDbEntity
  8
Layer_1
 62
3
100
AcDbSpline
 70
8
 71
3
 72
8
 73
4
 74
0
 40
0
 40
0
 40
0
 40
0
 40
1
 40
1
 40
1
 40
1
 10
687.552687
 20
4.003699
 30
0.0
 10
687.604158
 20
3.421470
 30
0.0
 10
687.172051
 20
2.949473
 30
0.0
 10
686.587548
 20
2.949460
 30
0.0
  0
LINE
  5
11b
100
AcDbEntity
  8
Layer_1
 62
3
100
AcDbLine
 10
686.587548
 20
2.949460
 30
0.0
 11
686.587146
 21
2.949465
 31
0.0
  0
SPLINE
  5
11c
100
AcDbEntity
  8
Layer_1
 62
3
100
AcDbSpline
 70
8
 71
3
 72
8
 73
4
 74
0
 40
0
 40
0
 40
0
 40
0
 40
1
 40
1
 40
1
 40
1
 10
487.890746
 20
10.589200
 30
0.0
 10
487.507969
 20
10.622689
 30
0.0
 10
487.142709
 20
10.422301
 30
0.0
 10
486.965287
 20
10.081476
 30
0.0
  0
SPLINE
  5
11d
100
AcDbEntity
  8
Layer_1
 62
3
100
AcDbSpline
 70
8
 71
3
 72
8
 73
4
 74
0
 40
0
 40
0
 40
0
 40
0
 40
1
 40
1
 40
1
 40
1
 10
486.965287
 20
10.081476
 30
0.0
 10
486.787865
 20
9.740652
 30
0.0
 10
486.833221
 20
9.326511
 30
0.0
 10
487.080205
 20
9.032167
 30
0.0
  0
SPLINE
  5
11e
100
AcDbEntity
  8
Layer_1
 62
3
100
AcDbSpline
 70
8
 71
3
 72
8
 73
4
 74
0
 40
0
 40
0
 40
0
 40
0
 40
1
 40
1
 40
1
 40
1
 10
487.080205
 20
9.032167
 30
0.0
 10
487.327190
 20
8.737823
 30
0.0
 10
487.727163
 20
8.621241
 30
0.0
 10
488.093618
 20
8.736784
 30
0.0
  0
SPLINE
  5
11f
100
AcDbEntity
  8
Layer_1
 62
3
100
AcDbSpline
 70
8
 71
3
 72
8
 73
4
 74
0
 40
0
 40
0
 40
0
 40
0
 40
1
 40
1
 40
1
 40
1
 10
488.093618
 20
8.736784
 30
0.0
 10
488.460074
 20
8.852327
 30
0.0
 10
488.720844
 20
9.177240
 30
0.0
 10
488.754333
 20
9.560017
 30
0.0
  0
SPLINE
  5
120
100
AcDbEntity
  8
Layer_1
 62
3
100
AcDbSpline
 70
8
 71
3
 72
8
 73
4
 74
0
 40
0
 40
0
 40
0
 40
0
 40
1
 40
1
 40
1
 40
1
 10
488.754333
 20
9.560017
 30
0.0
 10
488.776292
 20
9.811014
 30
0.0
 10
488.697644
 20
10.060454
 30
0.0
 10
488.535690
 20
10.253463
 30
0.0
  0
SPLINE
  5
121
100
AcDbEntity
  8
Layer_1
 62
3
100
AcDbSpline
 70
8
 71
3
 72
8
 73
4
 74
0
 40
0
 40
0
 40
0
 40
0
 40
1
 40
1
 40
1
 40
1
 10
488.535690
 20
10.253463
 30
0.0
 10
488.373736
 20
10.446473
 30
0.0
 10
488.141742
 20
10.567241
 30
0.0
 10
487.890746
 20
10.589200
 30
0.0
  0
LINE
  5
122
100
AcDbEntity
  8
Layer_1
 62
3
100
AcDbLine
 10
487.890746
 20
10.589200
 30
0.0
 11
487.890746
 21
10.589200
 31
0.0
  0
SPLINE
  5
123
100
AcDbEntity
  8
Layer_1
 62
3
100
AcDbSpline
 70
8
 71
3
 72
8
 73
4
 74
0
 40
0
 40
0
 40
0
 40
0
 40
1
 40
1
 40
1
 40
1
 10
390.987769
 20
19.067112
 30
0.0
 10
390.604992
 20
19.100601
 30
0.0
 10
390.239733
 20
18.900213
 30
0.0
 10
390.062311
 20
18.559388
 30
0.0
  0
SPLINE
  5
124
100
AcDbEntity
  8
Layer_1
 62
3
100
AcDbSpline
 70
8
 71
3
 72
8
 73
4
 74
0
 40
0
 40
0
 40
0
 40
0
 40
1
 40
1
 40
1
 40
1
 10
390.062311
 20
18.559388
 30
0.0
 10
389.884889
 20
18.218564
 30
0.0
 10
389.930245
 20
17.804423
 30
0.0
 10
390.177229
 20
17.510079
 30
0.0
  0
SPLINE
  5
125
100
AcDbEntity
  8
Layer_1
 62
3
100
AcDbSpline
 70
8
 71
3
 72
8
 73
4
 74
0
 40
0
 40
0
 40
0
 40
0
 40
1
 40
1
 40
1
 40
1
 10
390.177229
 20
17.510079
 30
0.0
 10
390.424213
 20
17.215735
 30
0.0
 10
390.824186
 20
17.099153
 30
0.0
 10
391.190642
 20
17.214696
 30
0.0
  0
SPLINE
  5
126
100
AcDbEntity
  8
Layer_1
 62
3
100
AcDbSpline
 70
8
 71
3
 72
8
 73
4
 74
0
 40
0
 40
0
 40
0
 40
0
 40
1
 40
1
 40
1
 40
1
 10
391.190642
 20
17.214696
 30
0.0
 10
391.557097
 20
17.330239
 30
0.0
 10
391.817868
 20
17.655152
 30
0.0
 10
391.851356
 20
18.037929
 30
0.0
  0
SPLINE
  5
127
100
AcDbEntity
  8
Layer_1
 62
3
100
AcDbSpline
 70
8
 71
3
 72
8
 73
4
 74
0
 40
0
 40
0
 40
0
 40
0
 40
1
 40
1
 40
1
 40
1
 10
391.851356
 20
18.037929
 30
0.0
 10
391.873316
 20
18.288926
 30
0.0
 10
391.794667
 20
18.538366
 30
0.0
 10
391.632713
 20
18.731375
 30
0.0
  0
SPLINE
  5
128
100
AcDbEntity
  8
Layer_1
 62
3
100
AcDbSpline
 70
8
 71
3
 72
8
 73
4
 74
0
 40
0
 40
0
 40
0
 40
0
 40
1
 40
1
 40
1
 40
1
 10
391.632713
 20
18.731375
 30
0.0
 10
391.470759
 20
18.924385
 30
0.0
 10
391.238766
 20
19.045153
 30
0.0
 10
390.987769
 20
19.067112
 30
0.0
  0
LINE
  5
129
100
AcDbEntity
  8
Layer_1
 62
3
100
AcDbLine
 10
390.987769
 20
19.067112
 30
0.0
 11
390.987769
 21
19.067112
 31
0.0
  0
SPLINE
  5
12a
100
AcDbEntity
  8
Layer_1
 62
3
100
AcDbSpline
 70
8
 71
3
 72
8
 73
4
 74
0
 40
0
 40
0
 40
0
 40
0
 40
1
 40
1
 40
1
 40
1
 10
674.337532
 20
19.001400
 30
0.0
 10
673.814858
 20
18.955672
 30
0.0
 10
673.428217
 20
18.494891
 30
0.0
 10
673.473945
 20
17.972217
 30
0.0
  0
SPLINE
  5
12b
100
AcDbEntity
  8
Layer_1
 62
3
100
AcDbSpline
 70
8
 71
3
 72
8
 73
4
 74
0
 40
0
 40
0
 40
0
 40
0
 40
1
 40
1
 40
1
 40
1
 10
673.473945
 20
17.972217
 30
0.0
 10
673.519673
 20
17.449543
 30
0.0
 10
673.980454
 20
17.062902
 30
0.0
 10
674.503128
 20
17.108630
 30
0.0
  0
SPLINE
  5
12c
100
AcDbEntity
  8
Layer_1
 62
3
100
AcDbSpline
 70
8
 71
3
 72
8
 73
4
 74
0
 40
0
 40
0
 40
0
 40
0
 40
1
 40
1
 40
1
 40
1
 10
674.503128
 20
17.108630
 30
0.0
 10
675.025802
 20
17.154358
 30
0.0
 10
675.412443
 20
17.615139
 30
0.0
 10
675.366715
 20
18.137813
 30
0.0
  0
SPLINE
  5
12d
100
AcDbEntity
  8
Layer_1
 62
3
100
AcDbSpline
 70
8
 71
3
 72
8
 73
4
 74
0
 40
0
 40
0
 40
0
 40
0
 40
1
 40
1
 40
1
 40
1
 10
675.366715
 20
18.137813
 30
0.0
 10
675.344756
 20
18.388810
 30
0.0
 10
675.223988
 20
18.620803
 30
0.0
 10
675.030979
 20
18.782757
 30
0.0
  0
SPLINE
  5
12e
100
AcDbEntity
  8
Layer_1
 62
3
100
AcDbSpline
 70
8
 71
3
 72
8
 73
4
 74
0
 40
0
 40
0
 40
0
 40
0
 40
1
 40
1
 40
1
 40
1
 10
675.030979
 20
18.782757
 30
0.0
 10
674.837969
 20
18.944711
 30
0.0
 10
674.588529
 20
19.023359
 30
0.0
 10
674.337532
 20
19.001400
 30
0.0
  0
LINE
  5
12f
100
AcDbEntity
  8
Layer_1
 62
3
100
AcDbLine
 10
674.337532
 20
19.001400
 30
0.0
 11
674.337532
 21
19.001400
 31
0.0
  0
SPLINE
  5
130
100
AcDbEntity
  8
Layer_1
 62
3
100
AcDbSpline
 70
8
 71
3
 72
8
 73
4
 74
0
 40
0
 40
0
 40
0
 40
0
 40
1
 40
1
 40
1
 40
1
 10
577.434556
 20
10.523488
 30
0.0
 10
577.051779
 20
10.489999
 30
0.0
 10
576.726866
 20
10.229229
 30
0.0
 10
576.611323
 20
9.862774
 30
0.0
  0
SPLINE
  5
131
100
AcDbEntity
  8
Layer_1
 62
3
100
AcDbSpline
 70
8
 71
3
 72
8
 73
4
 74
0
 40
0
 40
0
 40
0
 40
0
 40
1
 40
1
 40
1
 40
1
 10
576.611323
 20
9.862774
 30
0.0
 10
576.495780
 20
9.496318
 30
0.0
 10
576.612361
 20
9.096345
 30
0.0
 10
576.906706
 20
8.849361
 30
0.0
  0
SPLINE
  5
132
100
AcDbEntity
  8
Layer_1
 62
3
100
AcDbSpline
 70
8
 71
3
 72
8
 73
4
 74
0
 40
0
 40
0
 40
0
 40
0
 40
1
 40
1
 40
1
 40
1
 10
576.906706
 20
8.849361
 30
0.0
 10
577.201050
 20
8.602377
 30
0.0
 10
577.615191
 20
8.557021
 30
0.0
 10
577.956015
 20
8.734443
 30
0.0
  0
SPLINE
  5
133
100
AcDbEntity
  8
Layer_1
 62
3
100
AcDbSpline
 70
8
 71
3
 72
8
 73
4
 74
0
 40
0
 40
0
 40
0
 40
0
 40
1
 40
1
 40
1
 40
1
 10
577.956015
 20
8.734443
 30
0.0
 10
578.296839
 20
8.911865
 30
0.0
 10
578.497228
 20
9.277124
 30
0.0
 10
578.463739
 20
9.659901
 30
0.0
  0
SPLINE
  5
134
100
AcDbEntity
  8
Layer_1
 62
3
100
AcDbSpline
 70
8
 71
3
 72
8
 73
4
 74
0
 40
0
 40
0
 40
0
 40
0
 40
1
 40
1
 40
1
 40
1
 10
578.463739
 20
9.659901
 30
0.0
 10
578.441780
 20
9.910898
 30
0.0
 10
578.321011
 20
10.142891
 30
0.0
 10
578.128002
 20
10.304845
 30
0.0
  0
SPLINE
  5
135
100
AcDbEntity
  8
Layer_1
 62
3
100
AcDbSpline
 70
8
 71
3
 72
8
 73
4
 74
0
 40
0
 40
0
 40
0
 40
0
 40
1
 40
1
 40
1
 40
1
 10
578.128002
 20
10.304845
 30
0.0
 10
577.934993
 20
10.466799
 30
0.0
 10
577.685553
 20
10.545447
 30
0.0
 10
577.434556
 20
10.523488
 30
0.0
  0
LINE
  5
136
100
AcDbEntity
  8
Layer_1
 62
3
100
AcDbLine
 10
577.434556
 20
10.523488
 30
0.0
 11
577.434556
 21
10.523488
 31
0.0
  0
ENDSEC
  0
SECTION
  2
OBJECTS
  0
DICTIONARY
  5
C
330
0
100
AcDbDictionary
  3
ACAD_GROUP
350
D
  3
ACAD_MLINESTYLE
350
17
  0
DICTIONARY
  5
D
330
C
100
AcDbDictionary
  0
DICTIONARY
  5
1A
330
C
100
AcDbDictionary
  0
DICTIONARY
  5
17
330
C
100
AcDbDictionary
  3
STANDARD
350
18
  0
DICTIONARY
  5
19
330
C
100
AcDbDictionary
  0
ENDSEC
  0
EOF
